<?xml version="1.0" encoding="utf-8"?>
<!-- Generator: Adobe Illustrator 19.1.0, SVG Export Plug-In . SVG Version: 6.00 Build 0)  -->
<svg version="1.1" id="Layer_1" xmlns="http://www.w3.org/2000/svg" xmlns:xlink="http://www.w3.org/1999/xlink" x="0px" y="0px"
	 viewBox="-114 -70.4 433.8 933.4" style="enable-background:new -114 -70.4 433.8 933.4;" xml:space="preserve">
<style type="text/css">
	.st0{fill:#F0EFE9;}
</style>
<g>
	<g>
		<path class="st0" d="M-76.8,372.4c-20.5,0-37.2-16.7-37.2-37.2S-97.3,298-76.8,298c0.7,0,1.4,0.1,2.1,0.1
			C-73.6,270.8-51,249-23.5,249c16.8,0,32.3,8.1,41.9,21.8c4.4-2,8.9-3.1,13.5-3.1c17.9,0,32.5,14.6,32.5,32.5h-4.6
			c0-15.4-12.5-28-28-28c-4.5,0-8.9,1.2-13.2,3.5l-1.9,1l-1.1-1.8c-8.7-13.4-23.3-21.4-39.3-21.4c-25.8,0-46.7,21-46.7,46.7
			c0,0.2,0,0.3,0,0.4v2.6l-3.6-0.5c-1.1-0.1-2.1-0.3-3.1-0.3c-18,0-32.6,14.6-32.6,32.6s14.6,32.6,32.6,32.6l126.3-0.2v4.6
			L-76.8,372.4z"/>
	</g>
	<g>
		<path class="st0" d="M235,266.8c-8,0-15.6-2.9-21.5-8.2c-10.3,2.5-20.6,0.4-29-5.2c-5.1,5.2-12,8.1-19.3,8.1c0,0-3.6,0.2-7.7-1.1
			l1.4-4.3c3.2,1.1,6.1,0.9,6.1,0.9c6.8,0,13.1-2.9,17.4-8.1l1.4-1.7l1.7,1.3c7.9,6,18,8.1,28,5.4l1.3-0.3l0.9,0.9
			c5.2,5.1,12.1,7.8,19.3,7.8c15.3,0,27.8-12.5,27.8-27.8c0-15.3-12.5-27.8-27.8-27.8h-0.2c-0.1,0-0.3,0-0.4,0h-1.3l-0.7-1.1
			c-6-9.6-16.2-15.4-27.5-15.4c-13.6,0-25.8,8.6-30.4,21.4l-0.7,2l-2.1-0.6c-2.1-0.7-4.3-1-6.6-1c-4.9,0-9.5,1.5-13.4,4.5l-2.7-3.7
			c4.7-3.5,10.3-5.4,16.2-5.4c2,0,3.9,0.2,5.9,0.6c5.8-13.5,19.2-22.4,33.9-22.4c12.4,0,23.8,6.1,30.7,16.4
			c17.5,0.3,31.7,14.7,31.7,32.3C267.4,252.1,252.9,266.8,235,266.8z"/>
	</g>
	<g>
		
			<rect x="106.2" y="423.7" transform="matrix(0.9995 3.130062e-02 -3.130062e-02 0.9995 13.638 -3.1825)" class="st0" width="4.6" height="20.7"/>
	</g>
	<g>
		
			<rect x="104.6" y="456.4" transform="matrix(0.9995 3.130062e-02 -3.130062e-02 0.9995 14.4641 -3.1203)" class="st0" width="4.6" height="8.1"/>
	</g>
	<g>
		<polygon class="st0" points="168.3,872.8 87.5,872.8 103.9,478.8 108.5,478.9 92.2,868.2 163.6,868.2 147.2,478.9 151.8,478.8 		
			"/>
	</g>
	<g>
		
			<rect x="145.2" y="458" transform="matrix(3.120082e-02 0.9995 -0.9995 3.120082e-02 604.7048 296.7881)" class="st0" width="8.2" height="4.6"/>
	</g>
	<g>
		
			<rect x="138.7" y="430.4" transform="matrix(3.120082e-02 0.9995 -0.9995 3.120082e-02 576.9259 270.194)" class="st0" width="20.7" height="4.6"/>
	</g>
	<g>
		<path class="st0" d="M127.9,429.3c-46.2,0-83.7-37.5-83.7-83.7s37.5-83.7,83.7-83.7s83.7,37.5,83.7,83.7S174,429.3,127.9,429.3z
			 M127.9,266.5c-43.6,0-79.1,35.5-79.1,79.1s35.5,79.1,79.1,79.1s79.1-35.5,79.1-79.1S171.5,266.5,127.9,266.5z"/>
	</g>
	<g>
		<path class="st0" d="M127.4,428.8c-36-10.4-61.2-44.6-61.2-83.3c0-38.6,25.1-72.8,61.1-83.2l1.3,4.4c-34,9.8-57.8,42.3-57.8,78.8
			c0,36.6,23.8,69,57.8,78.9L127.4,428.8z"/>
	</g>
	<g>
		<path class="st0" d="M126.5,429c-19-13.7-31.3-46.5-31.3-83.5c0-36.8,12.2-69.5,31.1-83.4l2.7,3.7c-17.5,12.8-29.2,44.8-29.2,79.7
			c0,35,11.8,67,29.4,79.8L126.5,429z"/>
	</g>
	<g>
		<path class="st0" d="M129.2,429l-2.7-3.7c17.6-12.7,29.4-44.8,29.4-79.8c0-34.9-11.7-66.9-29.2-79.7l2.7-3.7
			c18.9,13.8,31.1,46.5,31.1,83.4S148.2,415.2,129.2,429z"/>
	</g>
	<g>
		<path class="st0" d="M128.6,428.8l-1.3-4.4c34.1-9.8,57.8-42.2,57.8-78.9c0-36.6-23.8-69-57.8-78.8l1.3-4.4
			c36,10.4,61.1,44.6,61.1,83.2C189.8,384.1,164.6,418.4,128.6,428.8z"/>
	</g>
	<g>
		<path class="st0" d="M164.5,458.5H91.3v-17.8h73.2V458.5z M95.9,453.9H160v-8.6H95.9V453.9L95.9,453.9z"/>
	</g>
	<g>
		<path class="st0" d="M160.5,266.2H95.3v-17.8h65.2V266.2z M99.9,261.6h56V253h-56V261.6z"/>
	</g>
	<g>
		<path class="st0" d="M160.5,171.6H95.3v-17.8h65.2V171.6z M99.9,167h56v-8.6h-56V167z"/>
	</g>
	<g>
		<path class="st0" d="M164.5,479.9H91.3v-17.8h73.2V479.9z M95.9,475.3H160v-8.6H95.9V475.3L95.9,475.3z"/>
	</g>
	<g>
		<rect x="54" y="295.9" class="st0" width="147.8" height="4.6"/>
	</g>
	<g>
		<rect x="100.1" y="237.9" class="st0" width="55.6" height="4.6"/>
	</g>
	<g>
		<rect x="100.1" y="222.6" class="st0" width="55.6" height="4.6"/>
	</g>
	<g>
		<rect x="100.1" y="207.4" class="st0" width="55.6" height="4.6"/>
	</g>
	<g>
		<rect x="100.1" y="192.1" class="st0" width="55.6" height="4.6"/>
	</g>
	<g>
		<rect x="111.4" y="83.8" class="st0" width="33" height="4.6"/>
	</g>
	<g>
		<rect x="111.4" y="73.1" class="st0" width="33" height="4.6"/>
	</g>
	<g>
		<rect x="119.6" y="143.4" class="st0" width="16.7" height="4.6"/>
	</g>
	<g>
		<rect x="119.6" y="132.6" class="st0" width="16.7" height="4.6"/>
	</g>
	<g>
		<rect x="119.6" y="112.8" class="st0" width="16.7" height="4.6"/>
	</g>
	<g>
		<rect x="119.6" y="102.1" class="st0" width="16.7" height="4.6"/>
	</g>
	<g>
		<rect x="122.9" y="57.8" class="st0" width="10" height="4.6"/>
	</g>
	<g>
		<rect x="122.9" y="47.1" class="st0" width="10" height="4.6"/>
	</g>
	<g>
		<rect x="122.9" y="27.3" class="st0" width="10" height="4.6"/>
	</g>
	<g>
		<rect x="122.9" y="16.6" class="st0" width="10" height="4.6"/>
	</g>
	<g>
		<rect x="117.5" y="2.9" class="st0" width="20.8" height="4.6"/>
	</g>
	<g>
		<rect x="117.5" y="-7.8" class="st0" width="20.8" height="4.6"/>
	</g>
	<g>
		<rect x="100.1" y="176.9" class="st0" width="55.6" height="4.6"/>
	</g>
	<g>
		<rect x="114.9" y="169.6" class="st0" width="4.6" height="81"/>
	</g>
	<g>
		<rect x="136.3" y="169.6" class="st0" width="4.6" height="81"/>
	</g>
	<g>
		<rect x="43.5" y="375.3" class="st0" width="168.9" height="4.6"/>
	</g>
	<g>
		<rect x="48.3" y="387.5" class="st0" width="159.3" height="4.6"/>
	</g>
	<g>
		<rect x="125.6" y="264.2" class="st0" width="4.6" height="162.8"/>
	</g>
	<g>
		<path class="st0" d="M152.2,253h-48.6v-85.5h48.6V253z M108.1,248.4h39.5v-76.3h-39.5V248.4z"/>
	</g>
	<g>
		<path class="st0" d="M138.5,158.4h-21.3V72.9h21.3V158.4L138.5,158.4z M121.8,153.8H134V77.4h-12.2V153.8z"/>
	</g>
	<g>
		<path class="st0" d="M135.2,77.4h-14.6V-8h14.6V77.4z M125.1,72.9h5.5V-3.4h-5.5V72.9z"/>
	</g>
	<g>
		<rect x="125.6" y="-60.3" class="st0" width="4.6" height="54.6"/>
	</g>
</g>
</svg>
