<?xml version="1.0" encoding="utf-8"?>
<!-- Generator: Adobe Illustrator 19.1.0, SVG Export Plug-In . SVG Version: 6.00 Build 0)  -->
<svg version="1.1" id="Layer_1" xmlns="http://www.w3.org/2000/svg" xmlns:xlink="http://www.w3.org/1999/xlink" x="0px" y="0px"
	 viewBox="-68 -54 474.4 916.3" style="enable-background:new -68 -54 474.4 916.3;" xml:space="preserve">
<style type="text/css">
	.st0{fill:#F0EFE9;}
</style>
<g>
	<g>
		<path class="st0" d="M-28.7,509.5c-21.7,0-39.3-17.6-39.3-39.3c0-21.7,17.6-39.3,39.3-39.3c0.8,0,1.5,0.1,2.2,0.1
			c1.2-28.8,25-51.9,54.1-51.9c17.7,0,34.1,8.6,44.3,23.1c4.6-2.2,9.4-3.3,14.3-3.3c19,0,34.4,15.4,34.4,34.4h-4.8
			c0-16.3-13.3-29.5-29.5-29.5c-4.8,0-9.5,1.2-13.9,3.7l-2,1.1l-1.2-1.9c-9.2-14.2-24.7-22.7-41.5-22.7c-27.2,0-49.4,22.1-49.4,49.4
			c0,0.2,0,0.3,0,0.4v2.8l-3.8-0.5c-1.1-0.2-2.2-0.3-3.2-0.3c-19,0-34.4,15.5-34.4,34.4s15.5,34.4,34.4,34.4l146.3-0.2v4.8
			L-28.7,509.5z"/>
	</g>
	<g>
		<path class="st0" d="M414.2,315.7c-8.5,0-16.5-3.1-22.8-8.7c-10.9,2.6-21.8,0.5-30.7-5.5c-5.4,5.5-12.7,8.6-20.4,8.6
			c0,0-3.8,0.2-8.1-1.2l1.5-4.6c3.4,1.1,6.4,1,6.5,1c7.2,0,13.8-3.1,18.3-8.5l1.5-1.8l1.8,1.4c8.4,6.3,19,8.6,29.6,5.7l1.3-0.4l1,1
			c5.5,5.3,12.8,8.3,20.4,8.3c16.2,0,29.3-13.2,29.3-29.3s-13.2-29.3-29.3-29.3h-0.2c-0.1,0-0.3,0-0.4,0h-1.4l-0.7-1.2
			c-6.3-10.2-17.2-16.2-29.1-16.2c-14.3,0-27.2,9.1-32.1,22.6l-0.8,2.2l-2.2-0.7c-2.2-0.7-4.6-0.9-7.1-1c-12-0.8-18.4,5.5-20.3,11.7
			l-4.6-1.4c3.1-10,13-15.9,25.2-15.1c2,0.1,4,0.3,6,0.7c6.1-14.3,20.3-23.7,35.9-23.7c13.1,0,25.1,6.5,32.4,17.4
			c18.5,0.4,33.5,15.6,33.5,34.2C448.4,300.4,433.1,315.7,414.2,315.7z"/>
	</g>
	<g>
		<path class="st0" d="M363.3,862.3h-17.7c-0.7,0-1.5-0.3-1.9-0.9c-0.5-0.6-0.6-1.4-0.4-2.1c16.9-66.3,26.6-163.1,28.2-180.3
			l-191.7,0.5v180.4c0,1.3-1.1,2.4-2.4,2.4h-13c-0.9,0-1.8-0.5-2.2-1.4l-22-45.2c-0.2-0.3-0.2-0.7-0.2-1.1l-0.3-521.4h4.8l0.3,520.9
			l21.1,43.3h9V677.2c0-1.3,1.1-2.4,2.4-2.4l196.7-0.5l0,0c0.7,0,1.3,0.3,1.8,0.8s0.7,1.2,0.6,1.8c-0.1,1.1-9.6,107.7-27.8,180.7
			h12.8c29.9-119.1,37-237.5,21.1-351.8c-12.8-92-40.4-181.6-82.1-266.3c-37.1-75.4-78.7-133-107.1-168
			c-23.1-28.5-41.4-47.1-49.2-54.6l0.2,255.7h-4.8l-0.1-261.4c0-1,0.6-1.8,1.4-2.2c0.9-0.4,1.9-0.2,2.6,0.4
			c0.2,0.2,22.7,20.7,53.6,58.9c28.5,35.2,70.4,93,107.7,168.9c41.9,85.2,69.7,175.3,82.6,267.8c16.1,115.6,8.8,235.3-21.7,355.6
			C365.3,861.7,364.4,862.3,363.3,862.3z"/>
	</g>
	<g>
		<path class="st0" d="M375.1,666.8H177.3c-1.3,0-2.4-1.1-2.4-2.4V485.8c0-1.3,1.1-2.4,2.4-2.4H370c1.2,0,2.2,0.9,2.4,2.1
			c11.5,92.2,5.2,178.1,5.1,178.9C377.4,665.8,376.3,666.8,375.1,666.8z M179.7,661.8h193.1c0.9-14,5-91-5-173.6H179.6L179.7,661.8
			L179.7,661.8z"/>
	</g>
	<g>
		<path class="st0" d="M368.4,475.8H177.3c-0.6,0-1.3-0.3-1.7-0.7c-0.5-0.5-0.7-1.1-0.7-1.7l0.5-181.7c0-1.3,1.1-2.4,2.4-2.4H313
			c0.9,0,1.7,0.5,2.1,1.3c24.1,45.5,54.3,176.7,55.6,182.3c0.2,0.7,0,1.5-0.5,2C369.8,475.5,369.1,475.8,368.4,475.8z M179.7,471
			h185.6c-4.7-19.9-32.1-134.6-53.8-176.9H180.2L179.7,471z"/>
	</g>
	<g>
		<path class="st0" d="M177.8,278c-0.6,0-1.3-0.3-1.7-0.7c-0.5-0.5-0.7-1.1-0.7-1.7l-0.5-208c0-1,0.6-1.9,1.6-2.3c1-0.3,2,0,2.7,0.8
			c48.2,59.6,80.6,113,99.4,147.2c20.3,37.2,29.4,60.7,29.5,60.9c0.3,0.7,0.2,1.6-0.3,2.2c-0.4,0.7-1.2,1-2,1.1L177.8,278L177.8,278
			z M179.7,74.5l0.5,198.7l121.9-0.5C295,255.5,258.7,173.5,179.7,74.5z"/>
	</g>
	<g>
		<path class="st0" d="M113.4,296.8c-16.6,0-30.8-0.9-30.9-0.9l0.3-4.8c19.3,1.3,71.3,2.6,80.6-6.1c0.9-0.8,1-1.4,1-1.8
			c0-0.3-0.1-0.9-0.9-1.6c-2.5-2.3-11.5-6.3-44-6.5c-18.9-0.2-36.5,1-36.7,1l-0.3-4.8c7.3-0.5,72.1-4.6,84.3,6.8
			c2,1.9,2.4,3.8,2.4,5.2s-0.4,3.4-2.5,5.4c-5.5,5.2-21,7.9-47.3,8.2C117.4,296.6,115.4,296.8,113.4,296.8z"/>
	</g>
	<g>
		<rect x="91" y="272.9" class="st0" width="4.8" height="20.5"/>
	</g>
	<g>
		<path class="st0" d="M120.3,272.4h-4.8v-27.6c0-1.3,1.1-2.4,2.4-2.4h23.9v4.8h-21.5V272.4z"/>
	</g>
	<g>
		<path class="st0" d="M164.4,862.3h-46.5c-1.3,0-2.4-1.1-2.4-2.4V294.2h4.8v563.3h44L164.4,862.3L164.4,862.3z"/>
	</g>
	<g>
		<rect x="177.7" y="233.1" class="st0" width="109.8" height="4.8"/>
	</g>
	<g>
		<rect x="177.7" y="254.1" class="st0" width="119.1" height="4.8"/>
	</g>
	<g>
		<rect x="177.7" y="310.5" class="st0" width="144.7" height="4.8"/>
	</g>
	<g>
		<rect x="177.7" y="330.6" class="st0" width="151.2" height="4.8"/>
	</g>
	<g>
		<rect x="177.7" y="350.6" class="st0" width="157" height="4.8"/>
	</g>
	<g>
		<rect x="177.7" y="370.7" class="st0" width="162.6" height="4.8"/>
	</g>
	<g>
		<rect x="177.7" y="390.7" class="st0" width="169" height="4.8"/>
	</g>
	<g>
		<rect x="177.7" y="410.8" class="st0" width="175.1" height="4.8"/>
	</g>
	<g>
		<rect x="177.7" y="430.8" class="st0" width="180.6" height="4.8"/>
	</g>
	<g>
		<rect x="177.7" y="450.8" class="st0" width="185.8" height="4.8"/>
	</g>
	<g>
		<rect x="177.7" y="502.4" class="st0" width="194.4" height="4.8"/>
	</g>
	<g>
		<rect x="177.7" y="522.5" class="st0" width="196.1" height="4.8"/>
	</g>
	<g>
		<rect x="177.7" y="542.5" class="st0" width="197.5" height="4.8"/>
	</g>
	<g>
		<rect x="177.7" y="562.7" class="st0" width="198.5" height="4.8"/>
	</g>
	<g>
		<rect x="177.7" y="582.7" class="st0" width="198.5" height="4.8"/>
	</g>
	<g>
		<rect x="177.7" y="602.8" class="st0" width="199.1" height="4.8"/>
	</g>
	<g>
		<rect x="177.7" y="622.8" class="st0" width="198.5" height="4.8"/>
	</g>
	<g>
		<rect x="177.7" y="642.8" class="st0" width="198.3" height="4.8"/>
	</g>
	<g>
		<rect x="177.7" y="694.4" class="st0" width="194.4" height="4.8"/>
	</g>
	<g>
		<rect x="177.7" y="714.4" class="st0" width="191.3" height="4.8"/>
	</g>
	<g>
		<rect x="177.7" y="734.4" class="st0" width="189.4" height="4.8"/>
	</g>
	<g>
		<rect x="177.7" y="754.5" class="st0" width="187.2" height="4.8"/>
	</g>
	<g>
		<rect x="177.7" y="774.5" class="st0" width="184" height="4.8"/>
	</g>
	<g>
		<rect x="177.7" y="794.7" class="st0" width="181.4" height="4.8"/>
	</g>
	<g>
		<rect x="177.7" y="814.7" class="st0" width="177.5" height="4.8"/>
	</g>
	<g>
		<rect x="177.7" y="834.8" class="st0" width="172.5" height="4.8"/>
	</g>
	<g>
		<path class="st0" d="M177.3,475.8c-0.5,0-1-0.2-1.4-0.5c-0.9-0.7-1.2-2-0.7-3c1.6-3.1,38.5-77.5,60.3-105.6
			c18.8-24.3,73.7-74.6,76-76.8c0.8-0.8,2.1-0.9,3-0.2s1.3,1.9,0.8,2.9c-1.2,2.9-29.8,70.4-54.4,99.3c-26.3,30.9-81.4,82.7-82,83.2
			C178.5,475.6,177.9,475.8,177.3,475.8z M306.1,301.4c-16.6,15.5-52.8,50-66.9,68.2c-16.2,20.9-41.7,69.4-53.5,92.3
			c17.2-16.5,52.2-50.5,71.5-73.2C275.6,367.2,296.9,322,306.1,301.4z"/>
	</g>
	<g>
		
			<rect x="242.8" y="269.3" transform="matrix(0.8011 0.5985 -0.5985 0.8011 277.8002 -70.6469)" class="st0" width="4.8" height="226.8"/>
	</g>
	<g>
		<path class="st0" d="M177.3,666.8c-0.7,0-1.3-0.3-1.8-0.8c-0.8-0.9-0.8-2.2-0.1-3.1c0.7-0.8,66-81.8,90.4-105.6
			c21.2-20.6,99.5-71.3,102.8-73.4c1-0.6,2.3-0.5,3.1,0.4c0.8,0.9,0.9,2.2,0.2,3.1c-0.5,0.6-47.6,62.4-73.8,89.5
			c-30.1,31-115.8,87.2-119.5,89.6C178.2,666.5,177.7,666.8,177.3,666.8z M359.3,495.6c-23.4,15.4-74.2,49.5-90.1,65
			c-18.5,17.9-60.6,69-80,92.8c25.9-17.5,82.7-56.7,105.4-80.1C313.8,553.5,344.4,514.8,359.3,495.6z"/>
	</g>
	<g>
		
			<rect x="271.3" y="443.7" transform="matrix(0.6796 0.7336 -0.7336 0.6796 509.5487 -16.5101)" class="st0" width="4.8" height="262.7"/>
	</g>
	<g>
		<path class="st0" d="M178.9,860.8c-0.7,0-1.3-0.3-1.8-0.8c-0.8-0.9-0.8-2.2-0.1-3.1c0.7-0.8,68.2-84.2,92.7-108
			c21.2-20.5,98.9-72,102.2-74.2c1-0.7,2.3-0.5,3.1,0.4c0.8,0.9,0.9,2.2,0.2,3.1c-0.5,0.6-47.8,64-74.1,91
			c-30.1,31-117.1,88.8-120.8,91.2C179.8,860.7,179.3,860.8,178.9,860.8z M362.6,686.7c-23.2,15.7-73.6,50.2-89.5,65.6
			c-18.5,17.9-62,70.5-81.9,94.9c26.3-18,83.7-58,106.4-81.4C316.8,745.9,347.6,706.2,362.6,686.7z"/>
	</g>
	<g>
		
			<rect x="273.5" y="634.5" transform="matrix(0.6829 0.7305 -0.7305 0.6829 648.1782 41.8117)" class="st0" width="4.8" height="266"/>
	</g>
	<g>
		<path class="st0" d="M141.8,247.2h-11.9c-1.3,0-2.4-1.1-2.4-2.4v-356.8c0-1.3,1.1-2.4,2.4-2.4h11.9c1.3,0,2.4,1.1,2.4,2.4v356.8
			C144.2,246.1,143.1,247.2,141.8,247.2z M132.3,242.4h7.1v-352h-7.1V242.4z"/>
	</g>
	<g>
		<rect x="164.4" y="857.5" class="st0" width="181.2" height="4.8"/>
	</g>
	<g>
		<path class="st0" d="M267.5,225.9h-68.9c-1.3,0-2.4-1.1-2.4-2.4v-7.7c0-1.3,1.1-2.4,2.4-2.4h68.9c1.3,0,2.4,1.1,2.4,2.4v7.7
			C269.9,224.8,268.8,225.9,267.5,225.9z M201,221h64.1v-2.9H201V221z"/>
	</g>
	<g>
		<path class="st0" d="M229.9,235h-4.8c0-1.4-0.5-2.6-1.7-3.7c-5.1-4.9-19.6-5.5-24.7-5.3l-0.2-4.8c2.1-0.1,20.8-0.5,28.2,6.7
			C228.8,229.8,229.9,232.2,229.9,235z"/>
	</g>
	<g>
		<path class="st0" d="M241.3,235h-4.8c0-2.8,1.1-5.2,3.2-7.2c7.5-7.2,26.1-6.8,28.2-6.7l-0.2,4.8c-5.2-0.2-19.6,0.4-24.7,5.4
			C241.8,232.3,241.3,233.5,241.3,235z"/>
	</g>
	<g>
		<path class="st0" d="M158.2,788.4c-4.1,0-7.5-3.4-7.5-7.5s3.4-7.5,7.5-7.5c4.2,0,7.5,3.4,7.5,7.5S162.3,788.4,158.2,788.4z
			 M158.2,778.2c-1.5,0-2.7,1.2-2.7,2.7s1.2,2.7,2.7,2.7s2.7-1.2,2.7-2.7S159.7,778.2,158.2,778.2z"/>
	</g>
	<g>
		<path class="st0" d="M158.2,809.4c-4.1,0-7.5-3.4-7.5-7.5s3.4-7.5,7.5-7.5c4.2,0,7.5,3.4,7.5,7.5S162.3,809.4,158.2,809.4z
			 M158.2,799.2c-1.5,0-2.7,1.2-2.7,2.7s1.2,2.7,2.7,2.7s2.7-1.2,2.7-2.7S159.7,799.2,158.2,799.2z"/>
	</g>
	<g>
		<rect x="206" y="163.8" class="st0" width="4.8" height="51.9"/>
	</g>
	<g>
		<rect x="216.8" y="181.5" class="st0" width="4.8" height="34.2"/>
	</g>
</g>
</svg>
