<?xml version="1.0" encoding="utf-8"?>
<!-- Generator: Adobe Illustrator 19.1.0, SVG Export Plug-In . SVG Version: 6.00 Build 0)  -->
<svg version="1.1" id="Layer_1" xmlns="http://www.w3.org/2000/svg" xmlns:xlink="http://www.w3.org/1999/xlink" x="0px" y="0px"
	 viewBox="203 -54 1017.9 900" style="enable-background:new 203 -54 1017.9 900;" xml:space="preserve">
<style type="text/css">
	.st0{fill:#F0EFE9;}
</style>
<g id="XMLID_978_">
	<g id="XMLID_1126_">
		<polygon id="XMLID_1001_" class="st0" points="918.6,804.5 914.2,804.5 914.2,755.2 441.7,755.2 441.7,804.5 437.3,804.5 
			437.3,750.8 918.6,750.8 		"/>
	</g>
	<g id="XMLID_1124_">
		<rect id="XMLID_1000_" x="378" y="750.8" class="st0" width="609.6" height="4.4"/>
	</g>
	<g id="XMLID_1120_">
		<path id="XMLID_997_" class="st0" d="M714.8,755.2h-73.6v-42.6c0-1.9,0.2-3.9,0.4-5.8c2.9-18,18.2-31,36.4-31
			c18.2,0,33.5,13,36.4,31c0.3,1.9,0.5,3.9,0.5,5.8L714.8,755.2L714.8,755.2z M645.5,750.8h64.9v-38.3c0-1.7-0.1-3.4-0.4-5.1
			c-2.5-15.8-16-27.3-32-27.3c-16.1,0-29.5,11.5-32.1,27.3c-0.3,1.7-0.4,3.4-0.4,5.1V750.8z"/>
	</g>
	<g id="XMLID_1118_">
		<path id="XMLID_996_" class="st0" d="M862.2,819.4c-23,0-34.7-4.5-46-8.9c-11.4-4.4-22.2-8.6-44.4-8.6c-22.2,0-33,4.2-44.4,8.6
			c-11.3,4.4-23,8.9-46,8.9s-34.7-4.5-46-8.9c-11.4-4.4-22.2-8.6-44.4-8.6c-22.2,0-33,4.2-44.4,8.6c-11.3,4.4-23,8.9-46,8.9
			s-34.7-4.5-46-8.9c-11.4-4.4-22.2-8.6-44.4-8.6c-1.2,0-2.2-1-2.2-2.2s1-2.2,2.2-2.2c23,0,34.7,4.5,46,8.9
			c11.4,4.4,22.2,8.6,44.4,8.6c22.2,0,33-4.2,44.4-8.6c11.3-4.4,23-8.9,46-8.9s34.7,4.5,46,8.9c11.4,4.4,22.2,8.6,44.4,8.6
			c22.2,0,33-4.2,44.4-8.6c11.3-4.4,23-8.9,46-8.9s34.7,4.5,46,8.9c11.4,4.4,22.2,8.6,44.4,8.6c22.2,0,33-4.2,44.4-8.6
			c11.3-4.4,23-8.9,46-8.9c1.2,0,2.2,1,2.2,2.2s-1,2.2-2.2,2.2c-22.2,0-33,4.2-44.4,8.6C896.9,814.9,885.2,819.4,862.2,819.4z"/>
	</g>
	<g id="XMLID_1114_">
		<path id="XMLID_993_" class="st0" d="M645.5,755.2h-22.1V726l22.1-14.5V755.2z M627.8,750.8h13.4v-31.3l-13.4,8.8V750.8z"/>
	</g>
	<g id="XMLID_1110_">
		<path id="XMLID_990_" class="st0" d="M733,755.2h-22.1v-43.8l22.1,14.5V755.2z M715.3,750.8h13.4v-22.5l-13.4-8.8V750.8z"/>
	</g>
	<g id="XMLID_1108_">
		<path id="XMLID_989_" class="st0" d="M678,755.2c-1.2,0-2.2-1-2.2-2.2v-37.5c0-1.2,1-2.2,2.2-2.2s2.2,1,2.2,2.2V753
			C680.1,754.2,679.2,755.2,678,755.2z"/>
	</g>
	<circle id="XMLID_1107_" class="st0" cx="598" cy="633.1" r="3.5"/>
	<circle id="XMLID_1106_" class="st0" cx="590.6" cy="595" r="3.5"/>
	<circle id="XMLID_1105_" class="st0" cx="552.8" cy="678" r="3.5"/>
	<circle id="XMLID_1104_" class="st0" cx="581" cy="714.1" r="3.5"/>
	<circle id="XMLID_1103_" class="st0" cx="629.6" cy="613.7" r="3.5"/>
	<circle id="XMLID_1102_" class="st0" cx="547.1" cy="621" r="3.5"/>
	<circle id="XMLID_1101_" class="st0" cx="572.7" cy="670.5" r="3.5"/>
	<circle id="XMLID_1100_" class="st0" cx="576" cy="693.1" r="3.5"/>
	<circle id="XMLID_1099_" class="st0" cx="712.7" cy="629.6" r="3.5"/>
	<circle id="XMLID_1098_" class="st0" cx="747" cy="612.1" r="3.5"/>
	<circle id="XMLID_1097_" class="st0" cx="751.1" cy="636.6" r="3.5"/>
	<circle id="XMLID_1096_" class="st0" cx="769" cy="699" r="3.5"/>
	<circle id="XMLID_1095_" class="st0" cx="738.8" cy="593.3" r="3.5"/>
	<circle id="XMLID_1094_" class="st0" cx="772.5" cy="593.2" r="3.5"/>
	<circle id="XMLID_1093_" class="st0" cx="758.4" cy="668.7" r="3.5"/>
	<circle id="XMLID_1092_" class="st0" cx="765.5" cy="718.4" r="3.5"/>
	<circle id="XMLID_1091_" class="st0" cx="556.3" cy="644.5" r="3.5"/>
	<circle id="XMLID_1090_" class="st0" cx="399.2" cy="344.8" r="3.5"/>
	<circle id="XMLID_1089_" class="st0" cx="343.3" cy="280.6" r="3.5"/>
	<circle id="XMLID_1088_" class="st0" cx="327.3" cy="321.4" r="3.5"/>
	<circle id="XMLID_1087_" class="st0" cx="311.2" cy="379.8" r="3.5"/>
	<circle id="XMLID_1086_" class="st0" cx="273.5" cy="394.4" r="3.5"/>
	<circle id="XMLID_1085_" class="st0" cx="232.7" cy="347.7" r="3.5"/>
	<circle id="XMLID_1084_" class="st0" cx="206.5" cy="289.4" r="3.5"/>
	<circle id="XMLID_1083_" class="st0" cx="219.6" cy="126" r="3.5"/>
	<circle id="XMLID_1082_" class="st0" cx="269.2" cy="114.4" r="3.5"/>
	<circle id="XMLID_1081_" class="st0" cx="431" cy="327.3" r="3.5"/>
	<circle id="XMLID_1080_" class="st0" cx="434.6" cy="363.1" r="3.5"/>
	<circle id="XMLID_1079_" class="st0" cx="586.6" cy="666.2" r="3.5"/>
	<g id="XMLID_1077_">
		<path id="XMLID_988_" class="st0" d="M684.5,643.1C684.5,643.1,684.4,643.1,684.5,643.1c-1.3-0.1-2.2-1.1-2.2-2.3l19.1-430
			c0.1-1.3,7.1-127.3-37.1-175.8c-0.8-0.9-0.8-2.3,0.1-3.1s2.3-0.8,3.1,0.1c19.1,21,31.4,57.5,36.4,108.6
			c3.7,37.9,1.9,70.1,1.8,70.4l-19.1,429.9C686.6,642.2,685.7,643.1,684.5,643.1z"/>
	</g>
	<g id="XMLID_1075_">
		<path id="XMLID_987_" class="st0" d="M678.1,672c-1.1,0-2.1-0.9-2.2-2.1L651.2,276c-3.9-50.7-25.5-89.1-59.2-105.3
			c-27.3-13.1-59.7-9.9-86.6,8.5c-1,0.7-2.4,0.4-3-0.6c-0.7-1-0.4-2.4,0.6-3c28.2-19.3,62.3-22.6,91-8.8
			c35.1,16.8,57.6,56.5,61.6,108.9l24.7,394c0.1,1.2-0.8,2.2-2,2.3C678.2,672,678.1,672,678.1,672z"/>
	</g>
	<g id="XMLID_1073_">
		<path id="XMLID_986_" class="st0" d="M607.4,680.2c-0.6,0-1.3-0.3-1.7-0.8c-2.7-3.4-4.7-7.2-5.8-11.5c-2.2-8.1-1.1-16.5,3.1-23.8
			s10.9-12.5,19-14.6c8.1-2.2,16.5-1.1,23.8,3.1c7.3,4.2,12.5,10.9,14.6,19c0.3,1.2-0.4,2.4-1.5,2.7c-1.2,0.3-2.4-0.4-2.7-1.5
			c-1.9-6.9-6.4-12.7-12.6-16.3s-13.5-4.5-20.5-2.6c-6.9,1.9-12.7,6.4-16.3,12.6c-3.6,6.2-4.5,13.5-2.6,20.5c1,3.6,2.7,7,5,9.9
			c0.8,0.9,0.6,2.3-0.3,3.1C608.4,680,607.9,680.2,607.4,680.2z"/>
	</g>
	<g id="XMLID_1071_">
		<path id="XMLID_985_" class="st0" d="M602.8,707.4c-0.6,0-1.2-0.3-1.7-0.8c-1.9-2.3-3.3-4.9-4.1-7.8c-1.4-5.2-0.7-10.6,2-15.3
			s7-8,12.2-9.4c3.2-0.9,6.6-0.9,9.8-0.2c1.2,0.3,1.9,1.4,1.6,2.6c-0.3,1.2-1.5,1.9-2.6,1.6c-2.5-0.6-5.2-0.5-7.7,0.1
			c-8.4,2.3-13.4,11-11.1,19.3c0.6,2.3,1.7,4.3,3.2,6.1c0.8,0.9,0.7,2.3-0.2,3.1C603.8,707.3,603.3,707.4,602.8,707.4z"/>
	</g>
	<g id="XMLID_1069_">
		<path id="XMLID_984_" class="st0" d="M610.2,730c-4.9,0-9.5-2.5-12-6.7c-4.1-6.6-2-15.4,4.6-19.5c1.1-0.7,2.4-1.3,3.7-1.6
			c1.2-0.3,2.4,0.4,2.7,1.5c0.3,1.2-0.4,2.4-1.5,2.7c-0.9,0.2-1.8,0.6-2.5,1.1c-4.6,2.8-6,8.9-3.2,13.4c1.8,2.9,5.1,4.7,8.6,4.6
			c1.2-0.1,2.2,0.9,2.2,2.1s-0.9,2.2-2.1,2.2C610.4,730,610.3,730,610.2,730z"/>
	</g>
	<g id="XMLID_1067_">
		<path id="XMLID_983_" class="st0" d="M742.3,676.4c-0.5,0-1-0.2-1.4-0.5c-0.9-0.8-1.1-2.1-0.3-3.1c1.6-2,2.7-4.2,3.4-6.7
			c1.3-4.7,0.6-9.6-1.8-13.8s-6.3-7.2-11-8.5s-9.6-0.6-13.8,1.8c-4.2,2.4-7.2,6.3-8.5,11c-0.3,1.2-1.5,1.9-2.7,1.5
			c-1.2-0.3-1.9-1.5-1.5-2.7c3.3-12,15.7-19.2,27.7-15.9c5.8,1.6,10.7,5.3,13.7,10.6c3,5.2,3.8,11.3,2.2,17.2
			c-0.8,3-2.2,5.8-4.2,8.3C743.5,676.1,742.9,676.4,742.3,676.4z"/>
	</g>
	<g id="XMLID_1065_">
		<path id="XMLID_982_" class="st0" d="M743,701.5c-0.5,0-1-0.2-1.4-0.5c-0.9-0.8-1-2.2-0.2-3.1c1.5-1.8,2.6-3.8,3.2-6.1
			c2.3-8.4-2.7-17.1-11.1-19.3c-0.3-0.1-0.6-0.2-0.9-0.2c-1.2-0.2-1.9-1.4-1.7-2.6c0.2-1.2,1.4-1.9,2.6-1.7c0.4,0.1,0.8,0.2,1.2,0.3
			c10.7,2.9,17.1,14,14.2,24.7c-0.8,2.9-2.2,5.5-4.1,7.8C744.2,701.3,743.6,701.5,743,701.5z"/>
	</g>
	<g id="XMLID_1063_">
		<path id="XMLID_981_" class="st0" d="M735.6,724.1c-0.1,0-0.2,0-0.4,0c-1.2,0-2.2-1-2.1-2.2c0-1.2,1-2.1,2.2-2.1
			c0.1,0,0.2,0,0.3,0c3.4,0,6.6-1.8,8.3-4.6c2.8-4.6,1.4-10.6-3.2-13.4c-0.8-0.5-1.7-0.9-2.6-1.1c-1.2-0.3-1.9-1.5-1.5-2.7
			c0.3-1.2,1.5-1.8,2.7-1.5c1.3,0.4,2.5,0.9,3.7,1.6c6.6,4.1,8.7,12.8,4.6,19.5C745.1,721.6,740.5,724.1,735.6,724.1z"/>
	</g>
	<g id="XMLID_1061_">
		<path id="XMLID_980_" class="st0" d="M674.9,157c-1,0-1.9-0.7-2.1-1.8c-11.1-55-56.1-98.9-123.5-120.5
			c-47.8-15.3-103.4-17.9-156.4-7.5c-57.7,11.4-109.4,37.4-149.6,75.1c-0.9,0.8-2.3,0.8-3.1-0.1c-0.8-0.9-0.8-2.3,0.1-3.1
			c40.8-38.3,93.3-64.7,151.8-76.2c53.7-10.6,110-7.9,158.6,7.6c69,22,115.1,67.2,126.5,123.8c0.2,1.2-0.5,2.3-1.7,2.6
			C675.1,157,675,157,674.9,157z"/>
	</g>
	<g id="XMLID_1059_">
		<path id="XMLID_979_" class="st0" d="M324.8,290.5c-1.1,0-2.1-0.9-2.2-2.1c-7.6-122.8,61.1-169.8,102.8-186.8
			c33-13.5,71.3-18,108-12.7c35,5.1,64.3,18.6,80.5,37.2c0.8,0.9,0.7,2.3-0.2,3.1c-0.9,0.8-2.3,0.7-3.1-0.2
			c-15.5-17.8-43.9-30.8-77.8-35.8c-36-5.2-73.5-0.8-105.8,12.4c-70.1,28.7-105.6,93.6-100.1,182.5c0.1,1.2-0.8,2.2-2,2.3
			C324.9,290.5,324.9,290.5,324.8,290.5z"/>
	</g>
	<g id="XMLID_1056_">
		<path id="XMLID_719_" class="st0" d="M682.2,678.4c-0.8,1.5-2.4,2.4-4.2,2.4c-1.8,0-3.4-1-4.3-2.5"/>
		<path id="XMLID_977_" class="st0" d="M678,683c-2.6,0-4.9-1.4-6.2-3.6c-0.6-1.1-0.2-2.4,0.9-3s2.4-0.2,3,0.9
			c0.5,0.8,1.4,1.4,2.3,1.4c1,0,1.8-0.5,2.3-1.3c0.6-1,1.9-1.4,3-0.8c1,0.6,1.4,1.9,0.8,3C682.8,681.7,680.5,683,678,683z"/>
	</g>
	<g id="XMLID_1054_">
		<path id="XMLID_976_" class="st0" d="M416.2,330.3c-0.9,0-1.8-0.6-2.1-1.5c-29.2-93.4-3.2-145.3,14.8-168
			c21.5-26.9,53-40.9,86.6-38.3c1.2,0.1,2.1,1.1,2,2.4c-0.1,1.2-1.2,2.1-2.4,2c-32.1-2.5-62.3,10.8-82.8,36.6
			c-17.5,22-42.7,72.5-14.1,164c0.4,1.2-0.3,2.4-1.4,2.7C416.6,330.2,416.4,330.3,416.2,330.3z"/>
	</g>
	<g id="XMLID_1052_">
		<path id="XMLID_975_" class="st0" d="M658.8,72.4c-0.7,0-1.5-0.4-1.9-1c-0.4-0.6-37.2-60.1-69.7-74.2c-1.1-0.5-1.6-1.8-1.1-2.9
			s1.8-1.6,2.9-1.1c14.2,6.2,30.7,20.9,48.8,43.7c13.4,16.9,22.8,32.1,22.9,32.3c0.6,1,0.3,2.4-0.7,3
			C659.6,72.3,659.2,72.4,658.8,72.4z"/>
	</g>
	<g id="XMLID_1050_">
		<path id="XMLID_974_" class="st0" d="M228.3,259.8c-0.1,0-0.2,0-0.3,0c-1.2-0.2-2-1.3-1.8-2.5c11.2-70,51.6-117.6,83.6-145.3
			c34.6-30,67.1-43.6,67.4-43.8c1.1-0.5,2.4,0.1,2.9,1.2c0.5,1.1-0.1,2.4-1.2,2.9c-0.3,0.1-32.3,13.6-66.4,43.1
			c-31.4,27.2-71.1,74-82,142.6C230.3,259.1,229.4,259.8,228.3,259.8z"/>
	</g>
	<g id="XMLID_1048_">
		<path id="XMLID_973_" class="st0" d="M372.6,379.5c-1.1,0-2-0.8-2.2-1.9c-8.6-63.5-6.5-111.8-6.4-112.3c0.1-1.2,1-2.1,2.3-2.1
			c1.2,0.1,2.1,1.1,2.1,2.3c0,0.5-2.2,48.4,6.4,111.5c0.2,1.2-0.7,2.3-1.9,2.5C372.8,379.5,372.7,379.5,372.6,379.5z"/>
	</g>
	<g id="XMLID_1046_">
		<path id="XMLID_972_" class="st0" d="M274.8,330.3c-1.1,0-2.1-0.8-2.2-2c-7.8-81,28.3-145.9,28.7-146.6c0.6-1.1,1.9-1.4,3-0.8
			c1.1,0.6,1.4,1.9,0.8,3c-0.4,0.6-35.8,64.4-28.1,144c0.1,1.2-0.8,2.3-2,2.4C274.9,330.3,274.8,330.3,274.8,330.3z"/>
	</g>
	<g id="XMLID_1044_">
		<path id="XMLID_971_" class="st0" d="M579.6,19c-0.4,0-0.9-0.1-1.2-0.4c-0.7-0.5-72.8-48.5-184.8-41c-1.2,0.1-2.2-0.8-2.3-2
			c-0.1-1.2,0.8-2.2,2-2.3c59.4-3.9,107.1,7.6,136.8,18c32.2,11.3,50,23.3,50.8,23.8c1,0.7,1.3,2,0.6,3
			C580.9,18.7,580.3,19,579.6,19z"/>
	</g>
	<g id="XMLID_1042_">
		<path id="XMLID_970_" class="st0" d="M1147.6,336.8l-98.7-0.1v-4.4l98.7,0.1c14,0,25.4-11.4,25.4-25.4s-11.4-25.4-25.4-25.4
			c-0.8,0-1.5,0.1-2.4,0.2l-3.3,0.4v-2.5c0-0.1,0-0.2,0-0.3c0-20.2-16.4-36.6-36.6-36.6c-12.5,0-24,6.3-30.8,16.8l-1.1,1.7l-1.8-1
			c-3.3-1.8-6.8-2.7-10.3-2.7c-12,0-21.8,9.8-21.8,21.8c0,2.4,0.5,4.9,1.4,7.4l1.1,2.9h-13.4v-4.4h7.3c-0.5-2-0.8-4-0.8-6
			c0-14.4,11.7-26.1,26.1-26.1c3.6,0,7.2,0.8,10.6,2.3c7.7-10.8,20-17.2,33.3-17.2c21.9,0,39.8,17.2,40.9,38.8
			c0.4,0,0.8-0.1,1.3-0.1c16.4,0,29.8,13.4,29.8,29.8S1164.1,336.8,1147.6,336.8z"/>
	</g>
	<g id="XMLID_1038_">
		<path id="XMLID_967_" class="st0" d="M1127.1,472.5c-14.3,0-26-11.7-26-26c0-14.1,11.3-25.6,25.3-26c5.5-8.2,14.6-13,24.5-13
			c11.7,0,22.4,7,27.1,17.7c1.5-0.3,2.9-0.5,4.4-0.5c4.7,0,9.1,1.5,12.9,4.2c4.3,2.5,11.7,9.9,9.3,21.2c0,0.1-3.2,17.7-22.2,18l0,0
			c-5.7,0.1-11.2-2.2-15.4-6.3c-6.7,4.4-14.7,5.9-22.8,4.1C1139.5,470.2,1133.5,472.5,1127.1,472.5z M1127.2,424.9
			c-12,0-21.7,9.7-21.7,21.6s9.7,21.6,21.6,21.6c5.6,0,11-2.2,15-6.1l0.9-0.9l1.2,0.3c7.8,2.1,15.7,0.5,21.9-4.2l1.7-1.3l1.3,1.6
			c3.3,4,8.1,6.2,13,6.2c0.1,0,0.2,0,0.3,0l0,0c15.3-0.2,17.8-13.9,17.9-14.5c2.4-11.1-6.9-16.4-7.3-16.6l-0.2-0.2
			c-3-2.3-6.6-3.5-10.4-3.5c-1.7,0-3.4,0.3-5.1,0.8l-2,0.6l-0.7-2c-3.6-10-13.1-16.7-23.7-16.7c-8.8,0-16.8,4.5-21.5,12l-0.7,1.1
			L1127.2,424.9L1127.2,424.9L1127.2,424.9z"/>
	</g>
	<g id="XMLID_1036_">
		<path id="XMLID_966_" class="st0" d="M1278.8,780.1c-14.9,0-22.5-3.3-29.8-6.6c-7.2-3.2-14-6.2-28-6.2s-20.8,3-28,6.2
			c-7.3,3.2-14.9,6.6-29.8,6.6c-14.9,0-22.5-3.3-29.8-6.6c-7.2-3.2-14-6.2-28-6.2s-20.8,3-28,6.2c-7.3,3.2-14.9,6.6-29.8,6.6
			c-14.9,0-22.5-3.3-29.8-6.6c-7.2-3.2-14-6.2-28-6.2s-20.8,3-28,6.2c-7.3,3.2-14.9,6.6-29.8,6.6c-1.2,0-2.2-1-2.2-2.2
			s1-2.2,2.2-2.2c14,0,20.8-3,28-6.2c7.3-3.2,14.9-6.6,29.8-6.6s22.5,3.3,29.8,6.6c7.2,3.2,14,6.2,28,6.2s20.8-3,28-6.2
			c7.3-3.2,14.9-6.6,29.8-6.6c14.9,0,22.5,3.3,29.8,6.6c7.2,3.2,14,6.2,28,6.2s20.8-3,28-6.2c7.3-3.2,14.9-6.6,29.8-6.6
			c14.9,0,22.5,3.3,29.8,6.6c7.2,3.2,14,6.2,28,6.2c1.2,0,2.2,1,2.2,2.2C1281,779.2,1280,780.1,1278.8,780.1z"/>
	</g>
	<g id="XMLID_1034_">
		<path id="XMLID_965_" class="st0" d="M801.9,628.9h-14.4V148.2h14.4v438.6c0,1.2-1,2.2-2.2,2.2s-2.2-1-2.2-2.2V152.5h-5.6v471.9
			h5.6v-16.9c0-1.2,1-2.2,2.2-2.2s2.2,1,2.2,2.2V628.9z"/>
	</g>
	<g id="XMLID_1032_">
		<path id="XMLID_964_" class="st0" d="M1121.2,768.4c-0.9,0-1.7-0.5-2-1.3c-0.5-1.1,0-2.4,1.2-2.9c45.2-19.3,69.7-58.8,78.2-75
			c0.9-1.8,1.2-3.4,0.8-4.1c-0.4-0.7-1.7-1.1-3.4-1.1l-435.8-0.5c-1.2,0-2.2-1-2.2-2.2s1-2.2,2.2-2.2l0,0l435.8,0.5
			c4.3,0,6.3,1.7,7.2,3.2s1.6,4.2-0.6,8.4c-8.6,16.5-33.8,57.1-80.3,76.9C1121.8,768.4,1121.5,768.4,1121.2,768.4z"/>
	</g>
	<g id="XMLID_1028_">
		<path id="XMLID_961_" class="st0" d="M853.4,606.9c-21.1,0-41.1-1.1-58.8-2.7c-0.8-0.1-1.5-0.5-1.8-1.3c-0.3-0.7-0.3-1.5,0.2-2.2
			c0.3-0.5,35.4-50.6,64.9-116.9c27.2-60.9,55.3-148.4,34.4-218.9c-13.7-46.2-46.8-80.2-98.4-101.1c-1-0.4-1.6-1.5-1.3-2.6
			c0.3-1.1,1.3-1.8,2.4-1.6c119.1,17.8,199.9,63.6,240.1,136.2c32.9,59.3,31.9,125.8,25.2,171.1c-7.2,49-22.5,84.5-22.6,84.8
			c-0.1,0.1-0.1,0.3-0.2,0.4c-0.5,0.7-12.6,17.7-48.8,32.7C947.9,601.8,898.4,606.9,853.4,606.9z M798.7,600.2
			c54.6,4.5,130.1,4.6,187.9-19.1c33.4-13.7,45.9-29.4,47.3-31.2c1.3-3,15.4-37.2,22.2-83.6c6.6-44.6,7.6-109.9-24.7-168.2
			c-37.7-67.9-111.8-112-220.3-131.2c44.1,21.7,72.8,54.2,85.5,97c21.2,71.8-7.1,160.4-34.7,222C836.3,543,806.7,588.2,798.7,600.2z
			"/>
	</g>
	<g id="XMLID_1026_">
		<path id="XMLID_960_" class="st0" d="M1046.7,720.1c-17.8,0-38.1-3.3-58.6-13.3c-1.1-0.5-1.5-1.8-1-2.9c0.5-1.1,1.8-1.5,2.9-1
			c59.5,28.9,115.9,0.3,116.4,0c1.1-0.6,2.4-0.1,3,0.9c0.6,1.1,0.1,2.4-0.9,3C1108.1,706.9,1082.1,720.1,1046.7,720.1z"/>
	</g>
	<g id="XMLID_1024_">
		<path id="XMLID_959_" class="st0" d="M856.6,720.1c-19.6,0-41.2-3.3-61.8-13.3c-1.1-0.5-1.5-1.8-1-2.9c0.5-1.1,1.8-1.5,2.9-1
			c59.6,29,128,0.3,128.6,0c1.1-0.5,2.4,0,2.9,1.1s0,2.4-1.1,2.9C926.6,707,895.5,720.1,856.6,720.1z"/>
	</g>
	<g id="XMLID_1022_">
		<path id="XMLID_958_" class="st0" d="M1108.7,713.6c-1.2,0-2.2-1-2.2-2.2s1-2.2,2.2-2.2c3.4,0,6.1-2.7,6.1-6.1
			c0-3.4-2.7-6.1-6.1-6.1c-3.4,0-6.1,2.7-6.1,6.1c0,1.2-1,2.2-2.2,2.2s-2.2-1-2.2-2.2c0-5.8,4.7-10.5,10.5-10.5s10.5,4.7,10.5,10.5
			C1119.2,708.9,1114.5,713.6,1108.7,713.6z"/>
	</g>
	<g id="XMLID_1020_">
		<path id="XMLID_957_" class="st0" d="M987.9,713.6c-5.4,0-10-4.2-10.4-9.6c-0.5-5.8,3.8-10.8,9.6-11.3c5.7-0.5,10.8,3.8,11.3,9.6
			c0.1,1.2-0.8,2.3-2,2.4c-1.2,0.1-2.3-0.8-2.4-2c-0.3-3.4-3.2-5.9-6.6-5.6c-3.4,0.3-5.9,3.2-5.6,6.6c0.3,3.4,3.2,5.9,6.6,5.6
			c1.2-0.1,2.3,0.8,2.4,2s-0.8,2.3-2,2.4C988.5,713.6,988.2,713.6,987.9,713.6z"/>
	</g>
	<g id="XMLID_1018_">
		<path id="XMLID_956_" class="st0" d="M927.5,713.6c-1.2,0-2.2-1-2.2-2.2s1-2.2,2.2-2.2c3.4,0,6.1-2.7,6.1-6.1
			c0-3.4-2.7-6.1-6.1-6.1s-6.1,2.7-6.1,6.1c0,1.2-1,2.2-2.2,2.2s-2.2-1-2.2-2.2c0-5.8,4.7-10.5,10.5-10.5s10.5,4.7,10.5,10.5
			C938,708.9,933.3,713.6,927.5,713.6z"/>
	</g>
	<g id="XMLID_1016_">
		<path id="XMLID_955_" class="st0" d="M794.6,713.6c-2.5,0-4.8-0.9-6.8-2.5c-2.1-1.8-3.4-4.3-3.7-7.1c-0.5-5.8,3.8-10.8,9.6-11.3
			c5.8-0.5,10.8,3.8,11.3,9.6c0.1,1.2-0.8,2.3-2,2.4c-1.2,0.1-2.3-0.8-2.4-2c-0.3-3.4-3.2-5.9-6.6-5.6c-3.4,0.3-5.9,3.2-5.6,6.6
			c0.1,1.6,0.9,3.1,2.1,4.2c1.2,1.1,2.8,1.6,4.5,1.4c1.2-0.1,2.3,0.8,2.4,2s-0.8,2.3-2,2.4C795.2,713.6,794.9,713.6,794.6,713.6z"/>
	</g>
	<g id="XMLID_1014_">
		<path id="XMLID_954_" class="st0" d="M830.4,530.8c-0.2,0-0.4,0-0.6-0.1l-25.4-7.9c-0.9-0.3-1.5-1.1-1.5-2.1s0.6-1.8,1.6-2.1
			c0.3-0.1,34.5-10.5,54.6-53.2c0.5-1.1,1.8-1.6,2.9-1c1.1,0.5,1.6,1.8,1,2.9c-16,34-40.1,48.2-51.3,53.2l19.3,6
			c1.2,0.4,1.8,1.6,1.4,2.7C832.2,530.2,831.3,530.8,830.4,530.8z"/>
	</g>
	<g id="XMLID_1012_">
		<path id="XMLID_953_" class="st0" d="M896.4,675.8c-0.6,0-1.2-0.3-1.7-0.8l-39.6-46.2H727.8c-1.2,0-2.2-1-2.2-2.2s1-2.2,2.2-2.2
			h129.4l40.9,47.7c0.8,0.9,0.7,2.3-0.2,3.1C897.5,675.6,896.9,675.8,896.4,675.8z"/>
	</g>
	<g id="XMLID_1010_">
		<path id="XMLID_952_" class="st0" d="M789.7,326.4c-0.7,0-1.4-0.3-1.8-1c-32.4-47.3-13.1-77.7,2.5-102.2
			c10.3-16.1,18.4-28.9,10.9-42.8c-0.6-1.1-0.2-2.4,0.9-3s2.4-0.2,3,0.9c8.7,16.2-0.9,31.3-11,47.2c-15.6,24.6-33.4,52.4-2.6,97.3
			c0.7,1,0.4,2.4-0.6,3C790.6,326.3,790.2,326.4,789.7,326.4z"/>
	</g>
	<g id="XMLID_1008_">
		<path id="XMLID_951_" class="st0" d="M870.1,646.5H759.4c-1.2,0-2.2-1-2.2-2.2s1-2.2,2.2-2.2h110.7c1.2,0,2.2,1,2.2,2.2
			S871.3,646.5,870.1,646.5z"/>
	</g>
	<g id="XMLID_1006_">
		<path id="XMLID_950_" class="st0" d="M1039,421.2c-0.5,0-1-0.2-1.4-0.5c-0.6-0.5-0.9-1.3-0.8-2.1c0-0.2,3.1-20.2-4.9-47.4
			c-16.1,6.8-25,11.4-25.1,11.5c-0.6,0.3-1.3,0.3-1.9,0s-1.1-0.9-1.2-1.5c-5.4-25.5-13.9-45.2-14-45.4c-0.5-1.1,0-2.4,1.1-2.9
			l22.7-10.1c-4-14.4-13.9-30.3-14.1-30.5c-0.3-0.5-0.4-1.1-0.3-1.7s0.5-1.1,1-1.4c0.1,0,6.6-3.8,16.2-8.8c1.1-0.6,2.4-0.2,3,0.9
			s0.2,2.4-0.9,3c-6.4,3.4-11.5,6.2-14.1,7.7c3,5,10.8,18.9,13.9,31.6c0.3,1-0.3,2.1-1.2,2.5l-22.4,10c2.2,5.5,8.4,21.5,12.9,41.5
			c4-2,12.6-6.1,25.1-11.3c0.6-0.2,1.2-0.2,1.8,0c0.6,0.3,1,0.7,1.2,1.3c7,22.5,6.7,40.3,6.1,47.8c5.3-2.5,13.1-6.4,13.2-6.4
			c1.1-0.5,2.4-0.1,2.9,1s0.1,2.4-1,2.9c-0.5,0.3-12.4,6.2-16.9,8.1C1039.5,421.2,1039.2,421.2,1039,421.2z"/>
	</g>
	<g id="XMLID_1004_">
		<path id="XMLID_949_" class="st0" d="M727.3,619c-0.9,0-1.7-0.5-2-1.3c-25.6-61.2,10.5-108.8,42.4-150.8
			c31.5-41.4,61.2-80.6,30.2-127.1c-0.7-1-0.4-2.4,0.6-3c1-0.7,2.4-0.4,3,0.6c32.7,49.1,2,89.5-30.4,132.2
			c-32.7,43-66.5,87.5-41.8,146.4c0.5,1.1-0.1,2.4-1.2,2.9C727.9,618.9,727.6,619,727.3,619z"/>
	</g>
</g>
</svg>
