<?xml version="1.0" encoding="utf-8"?>
<!-- Generator: Adobe Illustrator 19.1.0, SVG Export Plug-In . SVG Version: 6.00 Build 0)  -->
<svg version="1.1" id="Layer_1" xmlns="http://www.w3.org/2000/svg" xmlns:xlink="http://www.w3.org/1999/xlink" x="0px" y="0px"
	 viewBox="-95 -54 419.1 900" style="enable-background:new -95 -54 419.1 900;" xml:space="preserve">
<style type="text/css">
	.st0{fill:#F0EFE9;}
</style>
<g id="XMLID_100_">
	<g id="XMLID_245_">
		<path id="XMLID_154_" class="st0" d="M290.5,447.3c-8.1,0-15.8-3-21.8-8.3c-10.4,2.5-20.9,0.4-29.4-5.3
			c-5.1,5.2-12.1,8.2-19.5,8.2c-0.3,0-11.6,0.6-16.8-5.7l3.6-3c3.1,3.7,10.5,4.1,13.1,4c6.9,0,13.2-3,17.5-8.2l1.4-1.7l1.8,1.3
			c8,6.1,18.2,8.2,28.4,5.4l1.3-0.4l0.9,0.9c5.3,5.1,12.2,7.9,19.5,7.9c15.5,0,28.1-12.6,28.1-28.1s-12.6-28.1-28.1-28.1h-0.2
			c-0.1,0-0.3,0-0.4,0h-1.3l-0.7-1.1c-6-9.7-16.4-15.6-27.8-15.6c-13.7,0-26.1,8.7-30.8,21.6l-0.8,2.1l-2.1-0.6
			c-2.2-0.7-4.4-1-6.7-1c-4.9,0-9.6,1.6-13.6,4.5l-2.8-3.7c4.8-3.6,10.4-5.4,16.4-5.4c2,0,4,0.2,5.9,0.7C231.5,374,245,365,260,365
			c12.6,0,24.1,6.2,31.1,16.6c17.8,0.3,32.1,14.9,32.1,32.7C323.2,432.6,308.6,447.3,290.5,447.3z"/>
	</g>
	<g id="XMLID_243_">
		<path id="XMLID_153_" class="st0" d="M-56.5,245.4c-20.7,0-37.6-16.9-37.6-37.6s16.9-37.6,37.6-37.6c0.7,0,1.4,0.1,2.1,0.1
			c1.2-27.6,24-49.7,51.9-49.7c17,0,32.7,8.2,42.5,22.1c4.4-2.1,9-3.1,13.7-3.1c18.2,0,32.9,14.8,32.9,32.9c0,2.7-0.4,5.4-1.1,8.1
			h10v4.6H79.1l1.1-3.1c1.2-3.3,1.8-6.5,1.8-9.7c0-15.6-12.7-28.3-28.3-28.3c-4.6,0-9.1,1.2-13.4,3.5l-1.9,1l-1.2-1.8
			c-8.8-13.6-23.6-21.7-39.7-21.7c-26.1,0-47.3,21.2-47.3,47.3c0,0.2,0,0.3,0,0.4v2.7l-3.7-0.5c-1.1-0.1-2.1-0.3-3.1-0.3
			c-18.2,0-33,14.8-33,33s14.8,33,33,33l151-0.2v4.6L-56.5,245.4z"/>
	</g>
	<g id="XMLID_241_">
		
			<rect id="XMLID_152_" x="21" y="52.8" transform="matrix(6.086180e-05 1 -1 6.086180e-05 150.5155 -40.2535)" class="st0" width="148.7" height="4.6"/>
	</g>
	<g id="XMLID_239_">
		<rect id="XMLID_151_" x="118.5" y="-43.7" class="st0" width="4.6" height="147.1"/>
	</g>
	<g id="XMLID_237_">
		
			<rect id="XMLID_150_" x="105.8" y="61.5" transform="matrix(0.5813 0.8137 -0.8137 0.5813 107.982 -55.6491)" class="st0" width="4.6" height="31.2"/>
	</g>
	<g id="XMLID_235_">
		
			<rect id="XMLID_149_" x="92.6" y="92.5" transform="matrix(0.8275 0.5615 -0.5615 0.8275 71.8599 -44.2491)" class="st0" width="30.7" height="4.6"/>
	</g>
	<g id="XMLID_231_">
		<path id="XMLID_146_" class="st0" d="M94.8,517.1c-0.4,0-0.9-0.1-1.2-0.4L-15.8,448c-0.7-0.4-1.1-1.1-1.1-1.9s0.4-1.5,1-2
			l109.4-74c0.8-0.5,1.8-0.5,2.6,0l109.4,74c0.7,0.4,1,1.2,1,2s-0.4,1.5-1.1,1.9L96,516.7C95.7,517,95.2,517.1,94.8,517.1z
			 M-10.4,446l105.2,66.1L200,446L94.8,374.9L-10.4,446z"/>
	</g>
	<g id="XMLID_227_">
		<path id="XMLID_143_" class="st0" d="M94.8,659.8c-0.4,0-0.9-0.1-1.2-0.4l-109.4-68.7c-0.7-0.4-1.1-1.1-1.1-1.9s0.4-1.5,1-2
			l109.4-74c0.8-0.5,1.8-0.5,2.6,0l109.4,74c0.7,0.4,1,1.2,1,2s-0.4,1.5-1.1,1.9L96,659.5C95.7,659.7,95.2,659.8,94.8,659.8z
			 M-10.4,588.7l105.2,66.1L200,588.7L94.8,517.6L-10.4,588.7z"/>
	</g>
	<g id="XMLID_223_">
		<path id="XMLID_140_" class="st0" d="M125.6,783.2L125.6,783.2H63.9c-0.4,0-0.9-0.1-1.2-0.4l-78.6-49.4c-0.7-0.4-1.1-1.1-1.1-1.9
			s0.4-1.5,1-2l109.4-74c0.8-0.5,1.8-0.5,2.6,0l109.4,74c0.7,0.4,1,1.2,1,2s-0.4,1.5-1.1,1.9l-78.6,49.4
			C126.5,783.1,126.1,783.2,125.6,783.2z M64.6,778.6h60.3l75-47.1L94.8,660.3l-105.2,71.1L64.6,778.6z"/>
	</g>
	<g id="XMLID_221_">
		<rect id="XMLID_139_" x="92.5" y="372" class="st0" width="4.6" height="428.2"/>
	</g>
	<g id="XMLID_219_">
		<rect id="XMLID_138_" x="-16.9" y="446" class="st0" width="4.6" height="354.2"/>
	</g>
	<g id="XMLID_217_">
		<rect id="XMLID_137_" x="201.9" y="446" class="st0" width="4.6" height="354.2"/>
	</g>
	<g id="XMLID_215_">
		<rect id="XMLID_136_" x="-14.6" y="797.9" class="st0" width="218.8" height="4.6"/>
	</g>
	<g id="XMLID_211_">
		<path id="XMLID_133_" class="st0" d="M204.2,448.1c-0.5,0-0.9-0.1-1.3-0.4l-109.4-74c-0.6-0.4-1-1.2-1-2s0.4-1.5,1.1-1.9
			L203,301.1c0.7-0.4,1.6-0.5,2.4-0.1c0.7,0.4,1.2,1.2,1.2,2v142.7c0,0.9-0.5,1.6-1.2,2C205,448.1,204.6,448.1,204.2,448.1z
			 M99,371.9l102.9,69.6V307.3L99,371.9z"/>
	</g>
	<g id="XMLID_207_">
		<path id="XMLID_130_" class="st0" d="M95.4,374c-0.4,0-0.8-0.1-1.1-0.3c-0.7-0.4-1.2-1.2-1.2-2V228.9c0-0.9,0.5-1.6,1.2-2
			c0.8-0.4,1.7-0.4,2.4,0.1l109.4,74c0.6,0.4,1,1.2,1,2s-0.4,1.5-1.1,1.9L96.6,373.6C96.2,373.9,95.8,374,95.4,374z M97.7,233.3
			v134.2l102.9-64.6L97.7,233.3z"/>
	</g>
	<g id="XMLID_203_">
		<path id="XMLID_127_" class="st0" d="M204.2,305.4c-0.5,0-0.9-0.1-1.3-0.4L93.5,231c-0.6-0.4-1-1.2-1-2s0.4-1.5,1.1-1.9L203,158.4
			c0.7-0.4,1.6-0.5,2.4-0.1c0.7,0.4,1.2,1.2,1.2,2V303c0,0.9-0.5,1.6-1.2,2C205,305.3,204.6,305.4,204.2,305.4z M99,229.1
			l102.9,69.6V164.5L99,229.1z"/>
	</g>
	<g id="XMLID_199_">
		<path id="XMLID_124_" class="st0" d="M95.4,231.2c-0.4,0-0.8-0.1-1.1-0.3c-0.7-0.4-1.2-1.2-1.2-2v-99.5c0-0.6,0.2-1.2,0.7-1.6
			l25.5-26c0.8-0.8,2-0.9,3-0.3l83.9,56.7c0.6,0.4,1,1.2,1,2s-0.4,1.5-1.1,1.9L96.7,230.8C96.2,231.1,95.8,231.2,95.4,231.2z
			 M97.7,130.4v94.3l102.9-64.6l-79.4-53.7L97.7,130.4z"/>
	</g>
	<g id="XMLID_195_">
		<path id="XMLID_121_" class="st0" d="M207.1,841.3H-17v-43.4h224.1V841.3z M-12.3,836.7h214.8v-34.1H-12.3V836.7z"/>
	</g>
	<g id="XMLID_191_">
		<path id="XMLID_118_" class="st0" d="M207.1,802.6H-17v-24h224.1V802.6z M-12.3,797.9h214.8v-14.7H-12.3V797.9z"/>
	</g>
	<g id="XMLID_189_">
		<rect id="XMLID_117_" x="92.5" y="800.2" class="st0" width="4.6" height="38.7"/>
	</g>
	<g id="XMLID_187_">
		<rect id="XMLID_116_" x="103.6" y="809.2" class="st0" width="4.6" height="20.8"/>
	</g>
	<g id="XMLID_185_">
		<rect id="XMLID_115_" x="116" y="809.2" class="st0" width="4.6" height="20.8"/>
	</g>
	<g id="XMLID_183_">
		<rect id="XMLID_114_" x="128.5" y="809.2" class="st0" width="4.6" height="20.8"/>
	</g>
	<g id="XMLID_181_">
		<rect id="XMLID_113_" x="140.9" y="809.2" class="st0" width="4.6" height="20.8"/>
	</g>
	<g id="XMLID_179_">
		<rect id="XMLID_112_" x="153.3" y="809.2" class="st0" width="4.6" height="20.8"/>
	</g>
	<g id="XMLID_177_">
		<rect id="XMLID_111_" x="165.8" y="809.2" class="st0" width="4.6" height="20.8"/>
	</g>
	<g id="XMLID_175_">
		<rect id="XMLID_110_" x="178.2" y="809.2" class="st0" width="4.6" height="20.8"/>
	</g>
	<g id="XMLID_173_">
		<rect id="XMLID_109_" x="190.6" y="809.2" class="st0" width="4.6" height="20.8"/>
	</g>
	<g id="XMLID_171_">
		<rect id="XMLID_108_" x="-4.6" y="809.2" class="st0" width="4.6" height="20.8"/>
	</g>
	<g id="XMLID_169_">
		<rect id="XMLID_107_" x="7.9" y="809.2" class="st0" width="4.6" height="20.8"/>
	</g>
	<g id="XMLID_167_">
		<rect id="XMLID_106_" x="20.3" y="809.2" class="st0" width="4.6" height="20.8"/>
	</g>
	<g id="XMLID_165_">
		<rect id="XMLID_105_" x="32.7" y="809.2" class="st0" width="4.6" height="20.8"/>
	</g>
	<g id="XMLID_163_">
		<rect id="XMLID_104_" x="45.2" y="809.2" class="st0" width="4.6" height="20.8"/>
	</g>
	<g id="XMLID_161_">
		<rect id="XMLID_103_" x="57.6" y="809.2" class="st0" width="4.6" height="20.8"/>
	</g>
	<g id="XMLID_159_">
		<rect id="XMLID_102_" x="70" y="809.2" class="st0" width="4.6" height="20.8"/>
	</g>
	<g id="XMLID_157_">
		<rect id="XMLID_101_" x="82.5" y="809.2" class="st0" width="4.6" height="20.8"/>
	</g>
</g>
</svg>
