<?xml version="1.0" encoding="utf-8"?>
<!-- Generator: Adobe Illustrator 19.1.0, SVG Export Plug-In . SVG Version: 6.00 Build 0)  -->
<svg version="1.1" id="Layer_1" xmlns="http://www.w3.org/2000/svg" xmlns:xlink="http://www.w3.org/1999/xlink" x="0px" y="0px"
	 viewBox="-101 -54 407.5 900" style="enable-background:new -101 -54 407.5 900;" xml:space="preserve">
<style type="text/css">
	.st0{fill:#F0EFE9;}
</style>
<g id="XMLID_853_">
	<g id="XMLID_868_">
		<rect id="XMLID_704_" x="73.4" y="650.3" class="st0" width="33.5" height="4.9"/>
	</g>
	<g id="XMLID_866_">
		<rect id="XMLID_703_" x="73.4" y="674.7" class="st0" width="33.5" height="4.9"/>
	</g>
	<g id="XMLID_864_">
		<rect id="XMLID_702_" x="73.4" y="699" class="st0" width="33.5" height="4.9"/>
	</g>
	<g id="XMLID_862_">
		<rect id="XMLID_701_" x="73.4" y="723.4" class="st0" width="33.5" height="4.9"/>
	</g>
	<g id="XMLID_860_">
		<rect id="XMLID_700_" x="73.4" y="747.8" class="st0" width="33.5" height="4.9"/>
	</g>
	<g id="XMLID_858_">
		<rect id="XMLID_699_" x="73.4" y="772.1" class="st0" width="33.5" height="4.9"/>
	</g>
	<g id="XMLID_856_">
		<rect id="XMLID_698_" x="73.4" y="796.5" class="st0" width="33.5" height="4.9"/>
	</g>
	<g id="XMLID_854_">
		<rect id="XMLID_697_" x="73.4" y="820.8" class="st0" width="33.5" height="4.9"/>
	</g>
</g>
<g id="XMLID_836_">
	<g id="XMLID_851_">
		<rect id="XMLID_696_" x="227.3" y="650.3" class="st0" width="33.5" height="4.9"/>
	</g>
	<g id="XMLID_849_">
		<rect id="XMLID_695_" x="227.3" y="674.7" class="st0" width="33.5" height="4.9"/>
	</g>
	<g id="XMLID_847_">
		<rect id="XMLID_694_" x="227.3" y="699" class="st0" width="33.5" height="4.9"/>
	</g>
	<g id="XMLID_845_">
		<rect id="XMLID_693_" x="227.3" y="723.4" class="st0" width="33.5" height="4.9"/>
	</g>
	<g id="XMLID_843_">
		<rect id="XMLID_692_" x="227.3" y="747.8" class="st0" width="33.5" height="4.9"/>
	</g>
	<g id="XMLID_841_">
		<rect id="XMLID_691_" x="227.3" y="772.1" class="st0" width="33.5" height="4.9"/>
	</g>
	<g id="XMLID_839_">
		<rect id="XMLID_690_" x="227.3" y="796.5" class="st0" width="33.5" height="4.9"/>
	</g>
	<g id="XMLID_837_">
		<rect id="XMLID_689_" x="227.3" y="820.8" class="st0" width="33.5" height="4.9"/>
	</g>
</g>
<g id="XMLID_834_">
	<path id="XMLID_688_" class="st0" d="M-61.1,288.6c-22,0-39.9-17.9-39.9-39.9s17.9-39.9,39.9-39.9c0.8,0,1.5,0.1,2.2,0.1
		c1.2-29.3,25.4-52.7,55-52.7c18,0,34.7,8.7,45,23.4c4.7-2.2,9.5-3.3,14.5-3.3c19.2,0,34.9,15.7,34.9,34.9c0,2.8-0.4,5.7-1.2,8.6
		h20.4v4.9H82.5l1.2-3.3c1.3-3.5,1.9-6.9,1.9-10.2c0-16.5-13.4-30-30-30c-4.8,0-9.6,1.3-14.2,3.7l-2,1.1l-1.2-1.9
		c-9.3-14.4-25-23-42.1-23c-27.6,0-50.1,22.5-50.1,50.1c0,0.2,0,0.3,0,0.4v2.8l-3.9-0.5c-1.1-0.2-2.2-0.3-3.3-0.3
		c-19.3,0-35,15.7-35,35c0,19.3,15.7,35,35,35l146.8-0.2v4.9L-61.1,288.6z"/>
</g>
<g id="XMLID_832_">
	<path id="XMLID_687_" class="st0" d="M372,425.8c-8.6,0-16.7-3.1-23.1-8.8c-11.1,2.6-22.1,0.5-31.1-5.6c-5.4,5.6-12.9,8.7-20.7,8.7
		v-4.9c7.1,0,13.9-3.1,18.5-8.6l1.5-1.8l1.9,1.4c8.5,6.4,19.3,8.7,30.1,5.8l1.4-0.4l1,1c5.6,5.4,12.9,8.4,20.7,8.4
		c16.4,0,29.8-13.4,29.8-29.8s-13.4-29.8-29.8-29.8H372c-0.1,0-0.3,0-0.4,0h-1.4l-0.7-1.2c-6.4-10.3-17.4-16.5-29.5-16.5
		c-14.5,0-27.6,9.2-32.6,22.9l-0.8,2.2l-2.2-0.7c-2.3-0.7-4.7-1.1-7.1-1.1c-5.2,0-10.2,1.7-14.4,4.8l-2.9-3.9c5-3.8,11-5.8,17.3-5.8
		c2.1,0,4.2,0.2,6.3,0.7c6.2-14.5,20.6-24,36.4-24c13.3,0,25.5,6.6,32.9,17.6c18.8,0.4,34,15.8,34,34.7
		C406.7,410.1,391.1,425.8,372,425.8z"/>
</g>
<g id="XMLID_830_">
	<path id="XMLID_686_" class="st0" d="M172.9-8.6H168v-39.6c0-0.8-0.7-1.5-1.5-1.5S165-49,165-48.2v39.6h-4.9v-39.6
		c0-3.5,2.9-6.4,6.4-6.4s6.4,2.9,6.4,6.4V-8.6z"/>
</g>
<g id="XMLID_826_">
	<path id="XMLID_683_" class="st0" d="M297.7,632.5H35.3V402.2h262.4V632.5z M40.2,627.6h252.6V407.1H40.2V627.6z"/>
</g>
<g id="XMLID_822_">
	<path id="XMLID_680_" class="st0" d="M283.2,846.5H49.8V627.6h233.4V846.5z M54.7,841.6h223.6V632.5H54.7V841.6z"/>
</g>
<g id="XMLID_818_">
	<path id="XMLID_677_" class="st0" d="M282.7,407.1H50.3v-72.4h232.4V407.1z M55.2,402.2h222.6v-62.5H55.2V402.2z"/>
</g>
<g id="XMLID_814_">
	<path id="XMLID_674_" class="st0" d="M290.5,339.4H42.6l66.9-84.7h113.6L290.5,339.4z M52.7,334.4h227.6l-59.6-74.9H111.9
		L52.7,334.4z"/>
</g>
<g id="XMLID_810_">
	<path id="XMLID_671_" class="st0" d="M224.3,259.5H108.7v-71.9h115.6V259.5z M113.6,254.6h105.8v-62.1H113.6V254.6z"/>
</g>
<g id="XMLID_808_">
	<rect id="XMLID_670_" x="123.7" y="664.7" class="st0" width="4.9" height="148.9"/>
</g>
<g id="XMLID_806_">
	<rect id="XMLID_669_" x="144.2" y="664.7" class="st0" width="4.9" height="148.9"/>
</g>
<g id="XMLID_804_">
	<rect id="XMLID_668_" x="183.9" y="664.7" class="st0" width="4.9" height="148.9"/>
</g>
<g id="XMLID_802_">
	<rect id="XMLID_667_" x="204.4" y="664.7" class="st0" width="4.9" height="148.9"/>
</g>
<g id="XMLID_798_">
	<path id="XMLID_664_" class="st0" d="M181.4,13.1h-29.8v-23h29.8V13.1z M156.5,8.2h20V-5h-20V8.2z"/>
</g>
<g id="XMLID_794_">
	<path id="XMLID_661_" class="st0" d="M114.1,388H97.9v-27.5c0-4.5,3.6-8.1,8.1-8.1s8.1,3.6,8.1,8.1V388z M102.8,383.1h6.3v-22.6
		c0-1.7-1.4-3.2-3.2-3.2c-1.7,0-3.2,1.4-3.2,3.2L102.8,383.1L102.8,383.1z"/>
</g>
<g id="XMLID_790_">
	<path id="XMLID_658_" class="st0" d="M134.2,388H118v-27.5c0-4.5,3.6-8.1,8.1-8.1s8.1,3.6,8.1,8.1V388L134.2,388z M123,383.1h6.3
		v-22.6c0-1.7-1.4-3.2-3.2-3.2c-1.7,0-3.2,1.4-3.2,3.2L123,383.1L123,383.1z"/>
</g>
<g id="XMLID_786_">
	<path id="XMLID_655_" class="st0" d="M154.4,388h-16.2v-27.5c0-4.5,3.6-8.1,8.1-8.1s8.1,3.6,8.1,8.1V388L154.4,388z M143.2,383.1
		h6.3v-22.6c0-1.7-1.4-3.2-3.2-3.2c-1.7,0-3.2,1.4-3.2,3.2L143.2,383.1L143.2,383.1z"/>
</g>
<g id="XMLID_782_">
	<path id="XMLID_652_" class="st0" d="M174.6,388h-16.2v-27.5c0-4.5,3.6-8.1,8.1-8.1s8.1,3.6,8.1,8.1V388z M163.3,383.1h6.3v-22.6
		c0-1.7-1.4-3.2-3.2-3.2c-1.7,0-3.2,1.4-3.2,3.2L163.3,383.1L163.3,383.1z"/>
</g>
<g id="XMLID_778_">
	<path id="XMLID_649_" class="st0" d="M194.8,388h-16.2v-27.5c0-4.5,3.6-8.1,8.1-8.1s8.1,3.6,8.1,8.1V388L194.8,388z M183.5,383.1
		h6.3v-22.6c0-1.7-1.4-3.2-3.2-3.2c-1.7,0-3.2,1.4-3.2,3.2L183.5,383.1L183.5,383.1z"/>
</g>
<g id="XMLID_774_">
	<path id="XMLID_646_" class="st0" d="M214.9,388h-16.2v-27.5c0-4.5,3.6-8.1,8.1-8.1s8.1,3.6,8.1,8.1V388z M203.7,383.1h6.3v-22.6
		c0-1.7-1.4-3.2-3.2-3.2c-1.7,0-3.2,1.4-3.2,3.2L203.7,383.1L203.7,383.1z"/>
</g>
<g id="XMLID_770_">
	<path id="XMLID_643_" class="st0" d="M235.1,388h-16.2v-27.5c0-4.5,3.6-8.1,8.1-8.1s8.1,3.6,8.1,8.1V388L235.1,388z M223.9,383.1
		h6.3v-22.6c0-1.7-1.4-3.2-3.2-3.2c-1.7,0-3.2,1.4-3.2,3.2L223.9,383.1L223.9,383.1z"/>
</g>
<g id="XMLID_766_">
	<path id="XMLID_640_" class="st0" d="M139.3,240.4H126v-29.1c0-3.7,3-6.7,6.7-6.7s6.7,3,6.7,6.7L139.3,240.4L139.3,240.4z
		 M130.9,235.5h3.5v-24.2c0-1-0.8-1.8-1.8-1.8s-1.8,0.8-1.8,1.8L130.9,235.5L130.9,235.5z"/>
</g>
<g id="XMLID_762_">
	<path id="XMLID_637_" class="st0" d="M162.3,240.4H149v-29.1c0-3.7,3-6.7,6.7-6.7s6.7,3,6.7,6.7L162.3,240.4L162.3,240.4z
		 M153.8,235.5h3.5v-24.2c0-1-0.8-1.8-1.8-1.8s-1.8,0.8-1.8,1.8L153.8,235.5L153.8,235.5z"/>
</g>
<g id="XMLID_758_">
	<path id="XMLID_634_" class="st0" d="M185.2,240.4h-13.3v-29.1c0-3.7,3-6.7,6.7-6.7s6.7,3,6.7,6.7L185.2,240.4L185.2,240.4z
		 M176.8,235.5h3.5v-24.2c0-1-0.8-1.8-1.8-1.8s-1.8,0.8-1.8,1.8L176.8,235.5L176.8,235.5z"/>
</g>
<g id="XMLID_754_">
	<path id="XMLID_631_" class="st0" d="M208.1,240.4h-13.3v-29.1c0-3.7,3-6.7,6.7-6.7s6.7,3,6.7,6.7L208.1,240.4L208.1,240.4z
		 M199.7,235.5h3.5v-24.2c0-1-0.8-1.8-1.8-1.8s-1.8,0.8-1.8,1.8L199.7,235.5L199.7,235.5z"/>
</g>
<g id="XMLID_750_">
	<path id="XMLID_628_" class="st0" d="M241.5,566.2H91.6V416.4h149.9V566.2z M96.5,561.3h140V421.2h-140V561.3z"/>
</g>
<g id="XMLID_746_">
	<path id="XMLID_625_" class="st0" d="M166.5,566.2c-41.3,0-75-33.6-75-75s33.6-75,75-75s74.9,33.6,74.9,75S207.8,566.2,166.5,566.2
		z M166.5,421.2c-38.6,0-70,31.4-70,70s31.4,70,70,70s70-31.4,70-70S205.1,421.2,166.5,421.2z"/>
</g>
<g id="XMLID_742_">
	<path id="XMLID_622_" class="st0" d="M166.1,529.8c-21.3,0-38.6-17.3-38.6-38.6s17.3-38.6,38.6-38.6c21.3,0,38.6,17.3,38.6,38.6
		C204.7,512.5,187.4,529.8,166.1,529.8z M166.1,457.6c-18.6,0-33.7,15.1-33.7,33.7c0,18.6,15.1,33.7,33.7,33.7s33.7-15.1,33.7-33.7
		C199.8,472.8,184.7,457.6,166.1,457.6z"/>
</g>
<g id="XMLID_740_">
	
		<rect id="XMLID_621_" x="185.2" y="440.7" transform="matrix(0.5026 0.8645 -0.8645 0.5026 507.6141 76.1627)" class="st0" width="4.9" height="77"/>
</g>
<g id="XMLID_738_">
	
		<rect id="XMLID_620_" x="140.6" y="485.7" transform="matrix(0.8618 0.5073 -0.5073 0.8618 269.8763 -14.1677)" class="st0" width="40.7" height="4.9"/>
</g>
<rect id="XMLID_737_" x="164" y="431.4" class="st0" width="4.3" height="14.3"/>
<rect id="XMLID_736_" x="137.6" y="438.5" transform="matrix(0.866 -0.5 0.5 0.866 -204.1038 129.5775)" class="st0" width="4.3" height="14.3"/>
<rect id="XMLID_735_" x="118.2" y="457.7" transform="matrix(0.5 -0.866 0.866 0.5 -342.4139 336.6973)" class="st0" width="4.3" height="14.3"/>
<rect id="XMLID_734_" x="106.3" y="489.1" class="st0" width="14.3" height="4.3"/>
<rect id="XMLID_733_" x="118.3" y="510.5" transform="matrix(-0.5 -0.866 0.866 -0.5 -267.6462 880.7642)" class="st0" width="4.3" height="14.3"/>
<rect id="XMLID_732_" x="137.6" y="529.8" transform="matrix(-0.866 -0.5 0.5 -0.866 -7.7741 1071.8333)" class="st0" width="4.3" height="14.3"/>
<rect id="XMLID_731_" x="164" y="536.8" class="st0" width="4.3" height="14.3"/>
<rect id="XMLID_730_" x="190.4" y="529.8" transform="matrix(-0.866 0.5 -0.5 -0.866 627.7488 905.7699)" class="st0" width="4.3" height="14.3"/>
<rect id="XMLID_729_" x="209.6" y="510.4" transform="matrix(-0.5 0.866 -0.866 -0.5 765.918 592.9404)" class="st0" width="4.3" height="14.3"/>
<rect id="XMLID_728_" x="211.7" y="489.1" class="st0" width="14.3" height="4.3"/>
<rect id="XMLID_727_" x="190.3" y="438.4" transform="matrix(0.866 0.5 -0.5 0.866 248.5685 -36.5399)" class="st0" width="4.3" height="14.3"/>
<g id="XMLID_722_">
	<circle id="XMLID_612_" class="st0" cx="166.1" cy="491.2" r="4.9"/>
	<path id="XMLID_616_" class="st0" d="M166.1,497c-3.2,0-5.8-2.6-5.8-5.8c0-3.2,2.6-5.8,5.8-5.8c3.2,0,5.8,2.6,5.8,5.8
		S169.3,497,166.1,497z M166.1,487.1c-2.3,0-4.1,1.8-4.1,4.1s1.8,4.1,4.1,4.1s4.1-1.9,4.1-4.1S168.4,487.1,166.1,487.1z"/>
</g>
<g id="XMLID_718_">
	<path id="XMLID_613_" class="st0" d="M237.5,192.5h-142l4.2-4.2c57.4-57.4,56.6-176.4,56.6-177.6V8.2h20.5v2.4
		c0,1.2,1.6,122.7,56.6,177.7L237.5,192.5z M107.1,187.6h118.8c-15.7-17.5-35.3-49.8-46.5-107.9c-6.1-31.6-7.3-58.5-7.5-66.6h-10.8
		C160.9,30.3,157.5,132.2,107.1,187.6z"/>
</g>
</svg>
