<?xml version="1.0" encoding="utf-8"?>
<!-- Generator: Adobe Illustrator 19.1.0, SVG Export Plug-In . SVG Version: 6.00 Build 0)  -->
<svg version="1.1" id="Layer_1" xmlns="http://www.w3.org/2000/svg" xmlns:xlink="http://www.w3.org/1999/xlink" x="0px" y="0px"
	 viewBox="223 -54 1057.3 900" style="enable-background:new 223 -54 1057.3 900;" xml:space="preserve">
<style type="text/css">
	.st0{fill:#F0EFE9;}
</style>
<g id="XMLID_1867_">
	<polygon id="XMLID_1449_" class="st0" points="583.7,538.3 514.7,538.3 514.7,501.7 617.2,501.7 617.2,506.5 519.6,506.5 
		519.6,533.5 583.7,533.5 	"/>
</g>
<g id="XMLID_1865_">
	<polygon id="XMLID_1448_" class="st0" points="995.4,538.3 926.5,538.3 926.5,533.5 990.5,533.5 990.5,506.5 891.6,506.5 
		891.6,501.7 995.4,501.7 	"/>
</g>
<g id="XMLID_1861_">
	<path id="XMLID_1445_" class="st0" d="M995.4,595.8H514.7V533h67.7c2.9-4.1,14-18.6,37.1-33.2c24.6-15.5,67.9-34,135-34
		c37.1,0,90.5,5.9,134.8,34c23,14.6,34,29.1,36.9,33.2h69.2V595.8L995.4,595.8z M519.6,590.9h470.9v-53.1h-67l-0.7-1.1
		c-0.1-0.2-10.6-16.7-36.4-33c-23.9-15.1-66.1-33.1-131.9-33.1c-36.3,0-88.7,5.7-132.2,33.1c-26,16.3-36.5,32.9-36.6,33l-0.7,1.1
		h-1.3h-64.1L519.6,590.9L519.6,590.9z"/>
</g>
<g id="XMLID_1859_">
	<polygon id="XMLID_1444_" class="st0" points="671.9,480.3 667,480.3 667,419.4 683.8,419.4 683.8,424.3 671.9,424.3 	"/>
</g>
<g id="XMLID_1857_">
	<polygon id="XMLID_1443_" class="st0" points="845.7,481.6 840.8,481.6 840.8,424.3 829.6,424.3 829.6,419.4 845.7,419.4 	"/>
</g>
<g id="XMLID_1853_">
	<path id="XMLID_1440_" class="st0" d="M830.7,439.6H682V308.7h148.7V439.6L830.7,439.6z M686.9,434.7h139V313.6h-139V434.7z"/>
</g>
<g id="XMLID_1849_">
	<path id="XMLID_1437_" class="st0" d="M471.4,841.8H242.7V577.9h228.7V841.8z M247.6,836.9h218.9V582.8H247.6V836.9z"/>
</g>
<g id="XMLID_1845_">
	<path id="XMLID_1434_" class="st0" d="M455.8,399.8H258.3V236.3h197.5V399.8L455.8,399.8z M263.1,395h187.8V241.1H263.1V395z"/>
</g>
<g id="XMLID_1843_">
	<rect id="XMLID_1433_" x="284.9" y="273" class="st0" width="4.9" height="46"/>
</g>
<g id="XMLID_1841_">
	<rect id="XMLID_1432_" x="305.2" y="273" class="st0" width="4.9" height="46"/>
</g>
<g id="XMLID_1839_">
	<rect id="XMLID_1431_" x="398.4" y="273" class="st0" width="4.9" height="46"/>
</g>
<g id="XMLID_1837_">
	<rect id="XMLID_1430_" x="418.7" y="273" class="st0" width="4.9" height="46"/>
</g>
<g id="XMLID_1835_">
	<rect id="XMLID_1429_" x="284.9" y="429.1" class="st0" width="4.9" height="19.6"/>
</g>
<g id="XMLID_1833_">
	<rect id="XMLID_1428_" x="305.2" y="429.1" class="st0" width="4.9" height="19.6"/>
</g>
<g id="XMLID_1831_">
	<rect id="XMLID_1427_" x="398.4" y="429.1" class="st0" width="4.9" height="19.6"/>
</g>
<g id="XMLID_1829_">
	<rect id="XMLID_1426_" x="418.7" y="429.1" class="st0" width="4.9" height="19.6"/>
</g>
<g id="XMLID_1827_">
	<rect id="XMLID_1425_" x="284.9" y="334.6" class="st0" width="4.9" height="46"/>
</g>
<g id="XMLID_1825_">
	<rect id="XMLID_1424_" x="305.2" y="334.6" class="st0" width="4.9" height="46"/>
</g>
<g id="XMLID_1823_">
	<rect id="XMLID_1423_" x="398.4" y="334.6" class="st0" width="4.9" height="46"/>
</g>
<g id="XMLID_1821_">
	<rect id="XMLID_1422_" x="418.7" y="334.6" class="st0" width="4.9" height="46"/>
</g>
<g id="XMLID_1812_">
	<g id="XMLID_1817_">
		<path id="XMLID_1419_" class="st0" d="M442.1,696.7h-29v-56.2c0-8,6.5-14.5,14.5-14.5s14.5,6.5,14.5,14.5V696.7z M417.9,691.8
			h19.3v-51.3c0-5.3-4.3-9.6-9.7-9.6c-5.3,0-9.6,4.3-9.6,9.6V691.8z"/>
	</g>
	<g id="XMLID_1813_">
		<path id="XMLID_1416_" class="st0" d="M442.1,811.4h-29v-56.2c0-8,6.5-14.5,14.5-14.5s14.5,6.5,14.5,14.5V811.4z M417.9,806.5
			h19.3v-51.3c0-5.3-4.3-9.6-9.7-9.6c-5.3,0-9.6,4.3-9.6,9.6V806.5z"/>
	</g>
</g>
<g id="XMLID_1803_">
	<g id="XMLID_1808_">
		<path id="XMLID_1413_" class="st0" d="M539.4,696.7h-29v-56.2c0-8,6.5-14.5,14.5-14.5s14.5,6.5,14.5,14.5V696.7z M515.2,691.8
			h19.3v-51.3c0-5.3-4.3-9.6-9.7-9.6c-5.3,0-9.6,4.3-9.6,9.6V691.8L515.2,691.8z"/>
	</g>
	<g id="XMLID_1804_">
		<path id="XMLID_1410_" class="st0" d="M539.4,811.4h-29v-56.2c0-8,6.5-14.5,14.5-14.5s14.5,6.5,14.5,14.5V811.4z M515.2,806.5
			h19.3v-51.3c0-5.3-4.3-9.6-9.7-9.6c-5.3,0-9.6,4.3-9.6,9.6V806.5L515.2,806.5z"/>
	</g>
</g>
<g id="XMLID_1794_">
	<g id="XMLID_1799_">
		<path id="XMLID_1407_" class="st0" d="M995,696.7h-29v-56.2c0-8,6.5-14.5,14.5-14.5s14.5,6.5,14.5,14.5V696.7z M970.8,691.8h19.3
			v-51.3c0-5.3-4.3-9.6-9.7-9.6c-5.3,0-9.6,4.3-9.6,9.6L970.8,691.8L970.8,691.8z"/>
	</g>
	<g id="XMLID_1795_">
		<path id="XMLID_1404_" class="st0" d="M995,811.4h-29v-56.2c0-8,6.5-14.5,14.5-14.5s14.5,6.5,14.5,14.5V811.4z M970.8,806.5h19.3
			v-51.3c0-5.3-4.3-9.6-9.7-9.6c-5.3,0-9.6,4.3-9.6,9.6L970.8,806.5L970.8,806.5z"/>
	</g>
</g>
<g id="XMLID_1785_">
	<g id="XMLID_1790_">
		<path id="XMLID_1401_" class="st0" d="M304.3,696.7h-29v-56.2c0-8,6.5-14.5,14.5-14.5s14.5,6.5,14.5,14.5V696.7z M280.2,691.8
			h19.3v-51.3c0-5.3-4.3-9.6-9.7-9.6c-5.3,0-9.6,4.3-9.6,9.6V691.8L280.2,691.8z"/>
	</g>
	<g id="XMLID_1786_">
		<path id="XMLID_1398_" class="st0" d="M304.3,811.4h-29v-56.2c0-8,6.5-14.5,14.5-14.5s14.5,6.5,14.5,14.5V811.4z M280.2,806.5
			h19.3v-51.3c0-5.3-4.3-9.6-9.7-9.6c-5.3,0-9.6,4.3-9.6,9.6V806.5L280.2,806.5z"/>
	</g>
</g>
<g id="XMLID_1781_">
	<path id="XMLID_1395_" class="st0" d="M389.2,811.5h-61v-88.4c0-16.8,13.7-30.5,30.5-30.5s30.5,13.7,30.5,30.5V811.5L389.2,811.5z
		 M333.1,806.6h51.3v-83.5c0-14.1-11.5-25.6-25.7-25.6c-14.1,0-25.6,11.5-25.6,25.6V806.6L333.1,806.6z"/>
</g>
<g id="XMLID_1777_">
	<path id="XMLID_1392_" class="st0" d="M537,491.3c-8.3,0-15-6.7-15-15s6.7-15,15-15s15,6.7,15,15S545.3,491.3,537,491.3z
		 M537,466.1c-5.6,0-10.2,4.6-10.2,10.2s4.6,10.2,10.2,10.2c5.6,0,10.2-4.6,10.2-10.2S542.6,466.1,537,466.1z"/>
</g>
<g id="XMLID_1773_">
	<path id="XMLID_1389_" class="st0" d="M467.3,215.7c-8.3,0-15-6.7-15-15s6.7-15,15-15s15,6.7,15,15
		C482.3,208.9,475.6,215.7,467.3,215.7z M467.3,190.5c-5.6,0-10.2,4.6-10.2,10.2s4.6,10.2,10.2,10.2s10.2-4.6,10.2-10.2
		S472.9,190.5,467.3,190.5z"/>
</g>
<g id="XMLID_1769_">
	<path id="XMLID_1386_" class="st0" d="M361.9-30.8c-6.4,0-11.6-5.2-11.6-11.6S355.5-54,361.9-54c6.4,0,11.6,5.2,11.6,11.6
		C373.6-36,368.3-30.8,361.9-30.8z M361.9-49.1c-3.7,0-6.7,3-6.7,6.7s3,6.7,6.7,6.7s6.7-3,6.7-6.7C368.7-46.1,365.7-49.1,361.9-49.1
		z"/>
</g>
<g id="XMLID_1765_">
	<path id="XMLID_1383_" class="st0" d="M1158-29.3c-6.4,0-11.6-5.2-11.6-11.6s5.2-11.6,11.6-11.6s11.6,5.2,11.6,11.6
		S1164.4-29.3,1158-29.3z M1158-47.7c-3.7,0-6.7,3-6.7,6.7s3,6.7,6.7,6.7s6.7-3,6.7-6.7S1161.7-47.7,1158-47.7z"/>
</g>
<g id="XMLID_1761_">
	<path id="XMLID_1380_" class="st0" d="M248.5,215.7c-8.3,0-15-6.7-15-15s6.7-15,15-15s15,6.7,15,15
		C263.5,208.9,256.7,215.7,248.5,215.7z M248.5,190.5c-5.6,0-10.2,4.6-10.2,10.2s4.6,10.2,10.2,10.2s10.2-4.6,10.2-10.2
		S254.1,190.5,248.5,190.5z"/>
</g>
<g id="XMLID_1757_">
	<path id="XMLID_1377_" class="st0" d="M604.4,491.3c-8.3,0-15-6.7-15-15s6.7-15,15-15s15,6.7,15,15S612.7,491.3,604.4,491.3z
		 M604.4,466.1c-5.6,0-10.2,4.6-10.2,10.2s4.6,10.2,10.2,10.2s10.2-4.6,10.2-10.2C614.6,470.7,610,466.1,604.4,466.1z"/>
</g>
<g id="XMLID_1753_">
	<path id="XMLID_1374_" class="st0" d="M909.2,491.3c-8.3,0-15-6.7-15-15s6.7-15,15-15s15,6.7,15,15
		C924.2,484.6,917.5,491.3,909.2,491.3z M909.2,466.1c-5.6,0-10.2,4.6-10.2,10.2s4.6,10.2,10.2,10.2s10.2-4.6,10.2-10.2
		C919.4,470.7,914.8,466.1,909.2,466.1z"/>
</g>
<g id="XMLID_1749_">
	<path id="XMLID_1371_" class="st0" d="M980.9,491.3c-8.3,0-15-6.7-15-15s6.7-15,15-15s15,6.7,15,15S989.2,491.3,980.9,491.3z
		 M980.9,466.1c-5.6,0-10.2,4.6-10.2,10.2s4.6,10.2,10.2,10.2s10.2-4.6,10.2-10.2S986.5,466.1,980.9,466.1z"/>
</g>
<g id="XMLID_1745_">
	<path id="XMLID_1368_" class="st0" d="M484.3,583.1H223v-39.9h261.3V583.1z M227.9,578.3h251.6v-30.2H227.9V578.3z"/>
</g>
<g id="XMLID_1741_">
	<path id="XMLID_1365_" class="st0" d="M484.3,241H229.8v-19.4h254.5V241z M234.7,236.2h244.8v-9.7H234.7V236.2z"/>
</g>
<g id="XMLID_1737_">
	<path id="XMLID_1362_" class="st0" d="M448.3,226.5H268.2v-33.6h180.1L448.3,226.5L448.3,226.5z M273.1,221.7h170.4v-23.9H273.1
		V221.7z"/>
</g>
<g id="XMLID_1733_">
	<path id="XMLID_1359_" class="st0" d="M312,526.7h-29v-50.8c0-8,6.5-14.5,14.5-14.5s14.5,6.5,14.5,14.5V526.7L312,526.7z
		 M287.9,521.8h19.3v-45.9c0-5.3-4.3-9.6-9.7-9.6c-5.3,0-9.6,4.3-9.6,9.6V521.8z"/>
</g>
<g id="XMLID_1729_">
	<path id="XMLID_1356_" class="st0" d="M425.6,526.7h-29v-50.8c0-8,6.5-14.5,14.5-14.5s14.5,6.5,14.5,14.5V526.7z M401.5,521.8h19.3
		v-45.9c0-5.3-4.3-9.6-9.7-9.6c-5.3,0-9.6,4.3-9.6,9.6V521.8L401.5,521.8z"/>
</g>
<g id="XMLID_1725_">
	<path id="XMLID_1353_" class="st0" d="M379.2,526.7h-49.8v-41.9c0-13.7,11.2-24.9,24.9-24.9s24.9,11.2,24.9,24.9L379.2,526.7
		L379.2,526.7z M334.3,521.8h40.1v-37.1c0-11-9-20-20.1-20c-11,0-20,9-20,20V521.8L334.3,521.8z"/>
</g>
<g id="XMLID_1721_">
	<path id="XMLID_1350_" class="st0" d="M379.2,390h-49.8v-58.3h49.8V390z M334.3,385.1h40.1v-48.6h-40.1V385.1z"/>
</g>
<g id="XMLID_1719_">
	<path id="XMLID_1349_" class="st0" d="M415.8,70.8H411c0-27.1-22.1-49.2-49.2-49.2c-27.1,0-49.2,22.1-49.2,49.2h-4.9
		c0-29.8,24.3-54.1,54.1-54.1C391.6,16.7,415.8,41,415.8,70.8z"/>
</g>
<g id="XMLID_1715_">
	<path id="XMLID_1346_" class="st0" d="M361.8,21.6c-14.1,0-25.6-11.5-25.6-25.6s11.5-25.6,25.6-25.6S387.4-18.1,387.4-4
		S375.9,21.6,361.8,21.6z M361.8-24.8C350.3-24.8,341-15.5,341-4s9.3,20.7,20.7,20.7S382.4,7.4,382.4-4S373.2-24.8,361.8-24.8z"/>
</g>
<g id="XMLID_1713_">
	<rect id="XMLID_1345_" x="295.2" y="68.4" class="st0" width="133.2" height="4.9"/>
</g>
<g id="XMLID_1709_">
	<path id="XMLID_1342_" class="st0" d="M445.9,197.8H270.6v-4.9c0.3,0,37.2-2.4,37.2-122.1v-2.4H416v2.4
		c0,119.2,29.6,122.1,29.9,122.1V197.8z M282.1,192.9h154.2c-2.7-2.5-5.7-6.3-8.7-12c-10.7-20.7-16.2-56.9-16.4-107.7h-98.5
		C312.3,155.5,294.4,183.4,282.1,192.9z"/>
</g>
<g id="XMLID_1705_">
	<path id="XMLID_1339_" class="st0" d="M379.2,324h-49.8v-41.9c0-13.7,11.2-24.9,24.9-24.9s24.9,11.2,24.9,24.9L379.2,324L379.2,324
		z M334.3,319.1h40.1V282c0-11-9-20-20.1-20c-11,0-20,9-20,20V319.1L334.3,319.1z"/>
</g>
<g id="XMLID_1703_">
	<path id="XMLID_1338_" class="st0" d="M832,712.9h-4.9c0-37.7-30.7-68.5-68.5-68.5s-68.5,30.7-68.5,68.5h-4.9
		c0-40.4,32.9-73.3,73.3-73.3C799.1,639.6,832,672.5,832,712.9z"/>
</g>
<g id="XMLID_1701_">
	<polygon id="XMLID_1337_" class="st0" points="832,815.4 685.4,815.4 685.4,711.2 690.2,711.2 690.2,810.5 827.2,810.5 
		827.2,711.2 832,711.2 	"/>
</g>
<g id="XMLID_1699_">
	<rect id="XMLID_1336_" x="468.9" y="836.9" class="st0" width="572.3" height="4.9"/>
</g>
<g id="XMLID_1697_">
	<rect id="XMLID_1335_" x="468.9" y="591.4" class="st0" width="572.3" height="4.9"/>
</g>
<g id="XMLID_1693_">
	<path id="XMLID_1332_" class="st0" d="M806.1,421.5h-97v-97h97V421.5z M714,416.6h87.2v-87.2H714V416.6z"/>
</g>
<g id="XMLID_1689_">
	<path id="XMLID_1329_" class="st0" d="M757.6,421.5c-26.7,0-48.5-21.7-48.5-48.5c0-26.7,21.7-48.5,48.5-48.5s48.5,21.7,48.5,48.5
		C806.1,399.7,784.3,421.5,757.6,421.5z M757.6,329.4c-24,0-43.6,19.6-43.6,43.6s19.6,43.6,43.6,43.6c24.1,0,43.6-19.6,43.6-43.6
		S781.7,329.4,757.6,329.4z"/>
</g>
<g id="XMLID_1685_">
	<path id="XMLID_1326_" class="st0" d="M757.4,398.4c-14,0-25.4-11.4-25.4-25.4s11.4-25.4,25.4-25.4s25.4,11.4,25.4,25.4
		C782.7,387,771.4,398.4,757.4,398.4z M757.4,352.5c-11.3,0-20.5,9.2-20.5,20.5s9.2,20.5,20.5,20.5s20.5-9.2,20.5-20.5
		S768.7,352.5,757.4,352.5z"/>
</g>
<g id="XMLID_1673_">
	<rect id="XMLID_1461_" x="756" y="335" class="st0" width="2.7" height="9.1"/>
	
		<rect id="XMLID_1460_" x="739.2" y="339.4" transform="matrix(0.866 -0.5001 0.5001 0.866 -72.7595 416.4388)" class="st0" width="2.7" height="9.1"/>
	
		<rect id="XMLID_1459_" x="727" y="351.7" transform="matrix(0.5 -0.866 0.866 0.5 55.6204 808.8911)" class="st0" width="2.7" height="9.1"/>
	<rect id="XMLID_1458_" x="719.3" y="371.7" class="st0" width="9.1" height="2.7"/>
	
		<rect id="XMLID_1457_" x="726.9" y="385.2" transform="matrix(-0.5 -0.866 0.866 -0.5 754.8881 1215.3911)" class="st0" width="2.7" height="9.1"/>
	
		<rect id="XMLID_1456_" x="739.3" y="397.5" transform="matrix(-0.866 -0.5 0.5 -0.866 1180.9918 1120.5168)" class="st0" width="2.7" height="9.1"/>
	<rect id="XMLID_1455_" x="756" y="402" class="st0" width="2.7" height="9.1"/>
	
		<rect id="XMLID_1454_" x="772.7" y="397.4" transform="matrix(-0.866 0.5 -0.5 -0.866 1645.3367 363.1007)" class="st0" width="2.7" height="9.1"/>
	
		<rect id="XMLID_1453_" x="785" y="385.2" transform="matrix(-0.5 0.866 -0.866 -0.5 1517.0901 -96.3421)" class="st0" width="2.7" height="9.1"/>
	<rect id="XMLID_1452_" x="786.3" y="371.7" class="st0" width="9.1" height="2.7"/>
	
		<rect id="XMLID_1451_" x="772.8" y="339.5" transform="matrix(0.866 0.5 -0.5 0.866 275.7191 -340.9701)" class="st0" width="2.7" height="9.1"/>
</g>
<g id="XMLID_1663_">
	<g id="XMLID_1671_">
		
			<rect id="XMLID_1325_" x="768.5" y="340.8" transform="matrix(0.5026 0.8645 -0.8645 0.5026 699.2706 -484.8558)" class="st0" width="4.9" height="48.9"/>
	</g>
	<g id="XMLID_1669_">
		
			<rect id="XMLID_1324_" x="741.2" y="368.7" transform="matrix(0.8618 0.5073 -0.5073 0.8618 292.4995 -331.2476)" class="st0" width="25.8" height="4.9"/>
	</g>
	<g id="XMLID_1664_">
		<circle id="XMLID_1164_" class="st0" cx="757.4" cy="373" r="3.1"/>
		<path id="XMLID_1320_" class="st0" d="M757.4,378.6c-3.1,0-5.6-2.5-5.6-5.6s2.5-5.6,5.6-5.6s5.6,2.5,5.6,5.6
			S760.4,378.6,757.4,378.6z M757.4,372.3c-0.4,0-0.7,0.3-0.7,0.7s0.3,0.7,0.7,0.7c0.4,0,0.7-0.3,0.7-0.7S757.7,372.3,757.4,372.3z"
			/>
	</g>
</g>
<g id="XMLID_1659_">
	<path id="XMLID_1317_" class="st0" d="M691.4,267.6c-6.2,0-11.2-5-11.2-11.2s5-11.2,11.2-11.2s11.2,5,11.2,11.2
		S697.6,267.6,691.4,267.6z M691.4,250c-3.5,0-6.4,2.9-6.4,6.4s2.9,6.4,6.4,6.4s6.4-2.9,6.4-6.4S694.9,250,691.4,250z"/>
</g>
<g id="XMLID_1655_">
	<path id="XMLID_1314_" class="st0" d="M824.4,267.6c-6.2,0-11.2-5-11.2-11.2s5-11.2,11.2-11.2s11.2,5,11.2,11.2
		S830.6,267.6,824.4,267.6z M824.4,250c-3.5,0-6.4,2.9-6.4,6.4s2.9,6.4,6.4,6.4s6.4-2.9,6.4-6.4S827.9,250,824.4,250z"/>
</g>
<g id="XMLID_1651_">
	<path id="XMLID_1311_" class="st0" d="M840.6,313.6H668.5v-20.1h172.1V313.6z M673.4,308.7h162.4v-10.4H673.4V308.7z"/>
</g>
<g id="XMLID_1647_">
	<path id="XMLID_1308_" class="st0" d="M793.3,298.3h-71.9v-50.7h71.9V298.3z M726.3,293.4h62.1v-41h-62.1V293.4z"/>
</g>
<g id="XMLID_1643_">
	<path id="XMLID_1305_" class="st0" d="M726.3,298.3h-42.9v-27.8h42.9V298.3z M688.3,293.4h33.2v-18.1h-33.2V293.4z"/>
</g>
<g id="XMLID_1639_">
	<path id="XMLID_1302_" class="st0" d="M831.5,298.3h-42.9v-27.8h42.9V298.3z M793.5,293.4h33.2v-18.1h-33.2V293.4z"/>
</g>
<g id="XMLID_1635_">
	<path id="XMLID_1299_" class="st0" d="M801.9,252.5h-88.7v-13h88.7V252.5z M718.1,247.6h79v-3.2h-79V247.6L718.1,247.6z"/>
</g>
<g id="XMLID_1633_">
	<rect id="XMLID_1298_" x="747.4" y="40.8" class="st0" width="4.9" height="202.9"/>
</g>
<g id="XMLID_1629_">
	<path id="XMLID_1295_" class="st0" d="M747.3,159.6l0.8-103.7l1-0.7c1.2-0.9,30.5-22.7,65.7-15.2c6.9,1.5,13.9,3.4,20.6,5.3
		c19.3,5.4,37.5,10.6,50.6,3.7l3.6-1.9v100.4l-1.8,0.5c-1.4,0.4-33.5,8.9-74.3-6c-9.1-3.3-33.4-8.6-62.1,14.4L747.3,159.6z
		 M752.9,58.4l-0.7,91.2c29-20.9,53.4-15.6,62.8-12.1c33.9,12.4,62.3,7.8,69.5,6.3V54.9c-14.2,5.3-31.9,0.3-50.6-5
		c-6.7-1.9-13.6-3.8-20.3-5.3C784.2,38.4,758.2,54.8,752.9,58.4z"/>
</g>
<g id="XMLID_1625_">
	<path id="XMLID_1292_" class="st0" d="M755,569.8c-16.1,0-29.2-16.8-29.2-37.4S738.9,495,755,495s29.2,16.8,29.2,37.4
		C784.2,553,771.1,569.8,755,569.8z M755,499.9c-13.4,0-24.3,14.6-24.3,32.5s10.9,32.5,24.3,32.5s24.3-14.6,24.3-32.5
		S768.4,499.9,755,499.9z"/>
</g>
<g id="XMLID_1621_">
	<path id="XMLID_1289_" class="st0" d="M471.2,546.9H242.9V416.3h228.3V546.9L471.2,546.9z M247.4,542.4h219.3V420.8H247.4V542.4z"
		/>
</g>
<g id="XMLID_1617_">
	<path id="XMLID_1286_" class="st0" d="M484.3,421H223v-26h261.3V421z M227.9,416.1h251.6v-16.3H227.9V416.1z"/>
</g>
<g id="XMLID_1613_">
	<path id="XMLID_1283_" class="st0" d="M1267.4,841.8h-228.7V577.9h228.7V841.8z M1043.6,836.9h218.9V582.8h-218.9V836.9
		L1043.6,836.9z"/>
</g>
<g id="XMLID_1609_">
	<path id="XMLID_1280_" class="st0" d="M1251.8,399.8h-197.5V236.3h197.5V399.8z M1059.2,395H1247V241.1h-187.8V395z"/>
</g>
<g id="XMLID_1607_">
	<rect id="XMLID_1279_" x="1081" y="273" class="st0" width="4.9" height="46"/>
</g>
<g id="XMLID_1605_">
	<rect id="XMLID_1278_" x="1101.3" y="273" class="st0" width="4.9" height="46"/>
</g>
<g id="XMLID_1603_">
	<rect id="XMLID_1277_" x="1194.5" y="273" class="st0" width="4.9" height="46"/>
</g>
<g id="XMLID_1601_">
	<rect id="XMLID_1276_" x="1214.8" y="273" class="st0" width="4.9" height="46"/>
</g>
<g id="XMLID_1599_">
	<rect id="XMLID_1275_" x="1081" y="429.1" class="st0" width="4.9" height="19.6"/>
</g>
<g id="XMLID_1597_">
	<rect id="XMLID_1274_" x="1101.3" y="429.1" class="st0" width="4.9" height="19.6"/>
</g>
<g id="XMLID_1595_">
	<rect id="XMLID_1273_" x="1194.5" y="429.1" class="st0" width="4.9" height="19.6"/>
</g>
<g id="XMLID_1593_">
	<rect id="XMLID_1272_" x="1214.8" y="429.1" class="st0" width="4.9" height="19.6"/>
</g>
<g id="XMLID_1591_">
	<rect id="XMLID_1271_" x="1081" y="334.6" class="st0" width="4.9" height="46"/>
</g>
<g id="XMLID_1589_">
	<rect id="XMLID_1270_" x="1101.3" y="334.6" class="st0" width="4.9" height="46"/>
</g>
<g id="XMLID_1587_">
	<rect id="XMLID_1269_" x="1194.5" y="334.6" class="st0" width="4.9" height="46"/>
</g>
<g id="XMLID_1585_">
	<rect id="XMLID_1268_" x="1214.8" y="334.6" class="st0" width="4.9" height="46"/>
</g>
<g id="XMLID_1576_">
	<g id="XMLID_1581_">
		<path id="XMLID_1265_" class="st0" d="M1238.1,696.7h-29v-56.2c0-8,6.5-14.5,14.5-14.5s14.5,6.5,14.5,14.5V696.7z M1214,691.8
			h19.3v-51.3c0-5.3-4.3-9.6-9.7-9.6c-5.3,0-9.6,4.3-9.6,9.6L1214,691.8L1214,691.8z"/>
	</g>
	<g id="XMLID_1577_">
		<path id="XMLID_1262_" class="st0" d="M1238.1,811.4h-29v-56.2c0-8,6.5-14.5,14.5-14.5s14.5,6.5,14.5,14.5V811.4z M1214,806.5
			h19.3v-51.3c0-5.3-4.3-9.6-9.7-9.6c-5.3,0-9.6,4.3-9.6,9.6L1214,806.5L1214,806.5z"/>
	</g>
</g>
<g id="XMLID_1567_">
	<g id="XMLID_1572_">
		<path id="XMLID_1259_" class="st0" d="M1100.4,696.7h-29v-56.2c0-8,6.5-14.5,14.5-14.5s14.5,6.5,14.5,14.5V696.7z M1076.2,691.8
			h19.3v-51.3c0-5.3-4.3-9.6-9.7-9.6c-5.3,0-9.6,4.3-9.6,9.6L1076.2,691.8L1076.2,691.8z"/>
	</g>
	<g id="XMLID_1568_">
		<path id="XMLID_1256_" class="st0" d="M1100.4,811.4h-29v-56.2c0-8,6.5-14.5,14.5-14.5s14.5,6.5,14.5,14.5V811.4z M1076.2,806.5
			h19.3v-51.3c0-5.3-4.3-9.6-9.7-9.6c-5.3,0-9.6,4.3-9.6,9.6L1076.2,806.5L1076.2,806.5z"/>
	</g>
</g>
<g id="XMLID_1563_">
	<path id="XMLID_1253_" class="st0" d="M1185.3,811.5h-61v-88.4c0-16.8,13.7-30.5,30.5-30.5s30.5,13.7,30.5,30.5V811.5L1185.3,811.5
		z M1129.1,806.6h51.3v-83.5c0-14.1-11.5-25.6-25.7-25.6c-14.1,0-25.6,11.5-25.6,25.6L1129.1,806.6L1129.1,806.6z"/>
</g>
<g id="XMLID_1559_">
	<path id="XMLID_1250_" class="st0" d="M1263.4,215.7c-8.3,0-15-6.7-15-15s6.7-15,15-15s15,6.7,15,15
		C1278.4,208.9,1271.7,215.7,1263.4,215.7z M1263.4,190.5c-5.6,0-10.2,4.6-10.2,10.2s4.6,10.2,10.2,10.2s10.2-4.6,10.2-10.2
		C1273.5,195.1,1269,190.5,1263.4,190.5z"/>
</g>
<g id="XMLID_1555_">
	<path id="XMLID_1247_" class="st0" d="M1044.5,215.7c-8.3,0-15-6.7-15-15s6.7-15,15-15s15,6.7,15,15
		C1059.5,208.9,1052.8,215.7,1044.5,215.7z M1044.5,190.5c-5.6,0-10.2,4.6-10.2,10.2s4.6,10.2,10.2,10.2s10.2-4.6,10.2-10.2
		S1050.1,190.5,1044.5,190.5z"/>
</g>
<g id="XMLID_1551_">
	<path id="XMLID_1244_" class="st0" d="M1280.3,583.1H1019v-39.9h261.3V583.1z M1023.9,578.3h251.6v-30.2h-251.6V578.3z"/>
</g>
<g id="XMLID_1547_">
	<path id="XMLID_1241_" class="st0" d="M1280.3,241h-254.5v-19.4h254.5V241z M1030.7,236.2h244.8v-9.7h-244.8V236.2z"/>
</g>
<g id="XMLID_1543_">
	<path id="XMLID_1238_" class="st0" d="M1244.4,226.5h-180.1v-33.6h180.1V226.5z M1069.1,221.7h170.4v-23.9h-170.4V221.7z"/>
</g>
<g id="XMLID_1539_">
	<path id="XMLID_1235_" class="st0" d="M1108.1,526.7h-29v-50.8c0-8,6.5-14.5,14.5-14.5s14.5,6.5,14.5,14.5V526.7z M1083.9,521.8
		h19.3v-45.9c0-5.3-4.3-9.6-9.7-9.6c-5.3,0-9.6,4.3-9.6,9.6L1083.9,521.8L1083.9,521.8z"/>
</g>
<g id="XMLID_1535_">
	<path id="XMLID_1232_" class="st0" d="M1221.7,526.7h-29v-50.8c0-8,6.5-14.5,14.5-14.5s14.5,6.5,14.5,14.5V526.7z M1197.5,521.8
		h19.3v-45.9c0-5.3-4.3-9.6-9.7-9.6c-5.3,0-9.6,4.3-9.6,9.6L1197.5,521.8L1197.5,521.8z"/>
</g>
<g id="XMLID_1531_">
	<path id="XMLID_1229_" class="st0" d="M1175.3,526.7h-49.8v-41.9c0-13.7,11.2-24.9,24.9-24.9c13.7,0,24.9,11.2,24.9,24.9V526.7
		L1175.3,526.7z M1130.3,521.8h40.1v-37.1c0-11-9-20-20.1-20c-11,0-20,9-20,20V521.8L1130.3,521.8z"/>
</g>
<g id="XMLID_1527_">
	<path id="XMLID_1226_" class="st0" d="M1175.3,390h-49.8v-58.3h49.8V390z M1130.3,385.1h40.1v-48.6h-40.1V385.1z"/>
</g>
<g id="XMLID_1525_">
	<path id="XMLID_1225_" class="st0" d="M1211.9,70.8h-4.9c0-27.1-22.1-49.2-49.2-49.2s-49.2,22.1-49.2,49.2h-4.9
		c0-29.8,24.3-54.1,54.1-54.1C1187.6,16.7,1211.9,41,1211.9,70.8z"/>
</g>
<g id="XMLID_1521_">
	<path id="XMLID_1222_" class="st0" d="M1157.8,21.6c-14.1,0-25.6-11.5-25.6-25.6s11.5-25.6,25.6-25.6s25.6,11.5,25.6,25.6
		S1171.9,21.6,1157.8,21.6z M1157.8-24.8c-11.4,0-20.7,9.3-20.7,20.7s9.3,20.7,20.7,20.7s20.7-9.3,20.7-20.7
		S1169.3-24.8,1157.8-24.8z"/>
</g>
<g id="XMLID_1519_">
	<rect id="XMLID_1221_" x="1091.2" y="68.4" class="st0" width="133.2" height="4.9"/>
</g>
<g id="XMLID_1515_">
	<path id="XMLID_1218_" class="st0" d="M1241.9,197.8h-175.2v-4.9c0.3,0,37.2-2.4,37.2-122.1v-2.4h108.3v2.4
		c0,119.2,29.6,122.1,29.9,122.1L1241.9,197.8z M1078.1,192.9h154.2c-2.7-2.5-5.7-6.3-8.7-12c-10.7-20.7-16.2-56.9-16.4-107.7h-98.5
		C1108.4,155.5,1090.5,183.4,1078.1,192.9z"/>
</g>
<g id="XMLID_1511_">
	<path id="XMLID_1215_" class="st0" d="M1175.3,324h-49.8v-41.9c0-13.7,11.2-24.9,24.9-24.9c13.7,0,24.9,11.2,24.9,24.9V324
		L1175.3,324z M1130.3,319.1h40.1V282c0-11-9-20-20.1-20c-11,0-20,9-20,20V319.1L1130.3,319.1z"/>
</g>
<g id="XMLID_1507_">
	<path id="XMLID_1212_" class="st0" d="M1267.3,546.9H1039V416.3h228.3V546.9L1267.3,546.9z M1043.5,542.4h219.3V420.8h-219.3V542.4
		L1043.5,542.4z"/>
</g>
<g id="XMLID_1503_">
	<path id="XMLID_1209_" class="st0" d="M1280.3,421H1019v-26h261.3V421z M1023.9,416.1h251.6v-16.3h-251.6V416.1z"/>
</g>
<g id="XMLID_1499_">
	<path id="XMLID_1206_" class="st0" d="M639,841.8h-57.6V639H639V841.8z M586.3,836.9h47.8v-193h-47.8V836.9z"/>
</g>
<g id="XMLID_1495_">
	<path id="XMLID_1202_" class="st0" d="M606.5,632.2h-24.8v-30.1h24.8V632.2z M585.9,628h16.4v-21.7h-16.4V628z"/>
</g>
<g id="XMLID_1491_">
	<path id="XMLID_1196_" class="st0" d="M638.9,632.2h-24.8v-30.1h24.8V632.2z M618.4,628h16.4v-21.7h-16.4V628z"/>
</g>
<g id="XMLID_1487_">
	<path id="XMLID_1190_" class="st0" d="M895.1,632.2h-24.8v-30.1h24.8V632.2z M874.5,628h16.4v-21.7h-16.4V628z"/>
</g>
<g id="XMLID_1483_">
	<path id="XMLID_1184_" class="st0" d="M927.5,632.2h-24.8v-30.1h24.8V632.2z M907,628h16.4v-21.7H907V628z"/>
</g>
<g id="XMLID_1481_">
	<rect id="XMLID_1182_" x="594.4" y="653.6" class="st0" width="4.9" height="168.9"/>
</g>
<g id="XMLID_1479_">
	<rect id="XMLID_1180_" x="607.3" y="653.6" class="st0" width="4.9" height="168.9"/>
</g>
<g id="XMLID_1477_">
	<rect id="XMLID_1179_" x="621.9" y="653.6" class="st0" width="4.9" height="168.9"/>
</g>
<g id="XMLID_1473_">
	<path id="XMLID_1174_" class="st0" d="M927.6,841.8H870V639h57.6V841.8z M874.9,836.9h47.8v-193h-47.8V836.9z"/>
</g>
<g id="XMLID_1471_">
	<rect id="XMLID_1172_" x="883" y="653.6" class="st0" width="4.9" height="168.9"/>
</g>
<g id="XMLID_1469_">
	<rect id="XMLID_1170_" x="895.9" y="653.6" class="st0" width="4.9" height="168.9"/>
</g>
<g id="XMLID_1467_">
	<rect id="XMLID_1168_" x="910.5" y="653.6" class="st0" width="4.9" height="168.9"/>
</g>
<g id="XMLID_1465_">
	<rect id="XMLID_1166_" x="756.3" y="642" class="st0" width="4.9" height="170.9"/>
</g>
<circle id="XMLID_1450_" class="st0" cx="746.2" cy="748" r="3.4"/>
<circle id="XMLID_1323_" class="st0" cx="770.5" cy="748" r="3.4"/>
</svg>
