<?xml version="1.0" encoding="utf-8"?>
<!-- Generator: Adobe Illustrator 19.1.0, SVG Export Plug-In . SVG Version: 6.00 Build 0)  -->
<svg version="1.1" id="Layer_1" xmlns="http://www.w3.org/2000/svg" xmlns:xlink="http://www.w3.org/1999/xlink" x="0px" y="0px"
	 viewBox="114 -54 839.4 900" style="enable-background:new 114 -54 839.4 900;" xml:space="preserve">
<style type="text/css">
	.st0{fill:#F0EFE9;}
</style>
<g>
	<g>
		<path class="st0" d="M182.7,228.8c-20.5,0-37.2-16.7-37.2-37.2s16.7-37.2,37.2-37.2c0.7,0,1.4,0.1,2.1,0.1
			c1.1-27.3,23.7-49.1,51.2-49.1c16.8,0,32.3,8.1,41.9,21.8c4.4-2,8.9-3.1,13.5-3.1c17.3,0,30,12.1,30.9,29c4.2,0.8,9.6,3.3,9.6,8.7
			h-4.6c0-3.7-7.4-4.5-7.4-4.5l-2.1-0.2V155c0-15.6-10.9-26.4-26.4-26.4c-4.5,0-8.9,1.2-13.2,3.5l-1.9,1l-1.1-1.8
			c-8.7-13.4-23.3-21.4-39.2-21.4c-25.7,0-46.7,20.9-46.7,46.7c0,0.2,0,0.3,0,0.4v2.6l-3.6-0.5c-1.1-0.1-2.1-0.3-3.1-0.3
			c-18,0-32.6,14.6-32.6,32.6s14.6,32.6,32.6,32.6l138.4-0.2v4.6L182.7,228.8z"/>
	</g>
	<g>
		<path class="st0" d="M1006.9,316.1c-8,0-15.6-2.9-21.5-8.2c-10.3,2.5-20.6,0.4-29-5.2c-5.1,5.2-12,8.1-19.3,8.1
			c0,0-3.6,0.2-7.7-1.1l1.4-4.3c3.2,1.1,6.1,0.9,6.1,0.9c6.8,0,13.1-2.9,17.4-8.1l1.4-1.7l1.7,1.3c7.9,6,18,8.1,28,5.4l1.3-0.3
			l0.9,0.9c5.2,5.1,12.1,7.8,19.3,7.8c15.3,0,27.8-12.5,27.8-27.8s-12.5-27.8-27.8-27.8h-0.2c-0.1,0-0.3,0-0.4,0h-1.3l-0.7-1.1
			c-6-9.6-16.2-15.4-27.5-15.4c-13.6,0-25.8,8.6-30.4,21.3l-0.7,2l-2.1-0.6c-2.1-0.6-4.4-0.8-6.7-1c-1.8-0.1-3.5-0.1-5.1,0.1
			l-0.6-4.5c1.9-0.3,3.9-0.3,6-0.2c1.9,0.1,3.8,0.3,5.7,0.7c5.8-13.5,19.2-22.4,33.9-22.4c12.4,0,23.8,6.1,30.7,16.4
			c17.5,0.3,31.7,14.7,31.7,32.3C1039.2,301.6,1024.7,316.1,1006.9,316.1z"/>
	</g>
	<g>
		<path class="st0" d="M496,16.2h-7.4v-4.6h7.4c8.4,0,15.2-6.8,15.2-15.2s-6.8-15.2-15.2-15.2h-2.2l-0.1-2.2
			c-0.5-15.9-13.4-28.3-29.3-28.3c-8.7,0-16.8,3.8-22.4,10.4l-1.8,2.1l-1.7-2.1c-2.1-2.5-5.1-4-8.4-4c-6,0-10.9,4.9-10.9,10.9v2.1
			l-2.1,0.3c-10.5,1.1-18.5,9.9-18.5,20.5c0,11.4,9.3,20.6,20.6,20.6h52.4v4.6h-52.4C405.3,16.1,394,4.8,394-9.1
			c0-12.3,8.8-22.7,20.7-24.8c1-7.7,7.5-13.6,15.4-13.6c3.7,0,7.3,1.3,10.1,3.7c6.4-6.5,15.1-10.2,24.2-10.2
			c17.7,0,32.1,13.3,33.7,30.6c9.9,1.1,17.6,9.5,17.6,19.7C515.7,7.3,506.9,16.2,496,16.2z"/>
	</g>
	<g>
		<g>
			<path class="st0" d="M663.3,828.9h-80.9V685.7h80.9V828.9z M587,824.3h71.7v-134H587V824.3L587,824.3z"/>
		</g>
		<g>
			<rect x="620.6" y="688" class="st0" width="4.6" height="140.1"/>
		</g>
		<g>
			<rect x="584.7" y="724.1" class="st0" width="76.3" height="4.6"/>
		</g>
		<g>
			<rect x="584.7" y="729.7" class="st0" width="76.3" height="4.6"/>
		</g>
		<g>
			<path class="st0" d="M586,714l-2.6-3.8c0.1-0.1,12.6-8.7,14-22.4l4.6,0.5C600.4,704.2,586.6,713.6,586,714z"/>
		</g>
		<g>
			<path class="st0" d="M659.5,714c-0.6-0.4-14.4-9.8-16-25.7l4.6-0.5c1.4,13.8,13.9,22.3,14,22.4L659.5,714z"/>
		</g>
		<g>
			<rect x="613.4" y="769.6" class="st0" width="4.6" height="8.4"/>
		</g>
		<g>
			<rect x="627.3" y="769.6" class="st0" width="4.6" height="8.4"/>
		</g>
		<g>
			<path class="st0" d="M866.5,828.9h-56v-97.5h56V828.9z M815.1,824.3h46.8V736h-46.8V824.3z"/>
		</g>
		<g>
			<rect x="836.2" y="733.7" class="st0" width="4.6" height="92.9"/>
		</g>
		<g>
			<rect x="812.8" y="757.3" class="st0" width="51.4" height="4.6"/>
		</g>
		<g>
			<rect x="812.8" y="765.7" class="st0" width="51.4" height="4.6"/>
		</g>
		<g>
			<path class="st0" d="M814.1,751.9l-2.6-3.8l1.3,1.9l-1.3-1.9c0.1-0.1,8.2-5.7,9.1-14.5l4.6,0.5C824,745,814.5,751.6,814.1,751.9z
				"/>
		</g>
		<g>
			<path class="st0" d="M862.7,751.9c-0.4-0.3-10-6.8-11.1-17.9l4.6-0.5c0.9,8.9,9,14.5,9.1,14.6L862.7,751.9z"/>
		</g>
		<g>
			<rect x="830.1" y="788.7" class="st0" width="4.6" height="5.7"/>
		</g>
		<g>
			<rect x="842.3" y="788.7" class="st0" width="4.6" height="5.7"/>
		</g>
		<g>
			<rect x="558" y="641.6" class="st0" width="21.1" height="4.6"/>
		</g>
		<g>
			<rect x="666.4" y="641.6" class="st0" width="21.1" height="4.6"/>
		</g>
		<g>
			<path class="st0" d="M692.3,642.5c-0.1-0.1-6.2-6-17.8-11.9c-10.7-5.4-28.3-11.9-51.6-11.9c-50.1,0-70.1,23.4-70.3,23.6l-3.5-2.9
				c0.9-1,21.6-25.3,73.8-25.3c46.7,0,71.6,24.1,72.6,25.1L692.3,642.5z"/>
		</g>
		<g>
			<path class="st0" d="M884.8,708c-2.1-1.9-21.1-18.4-46.2-18.4c-22.7,0-41,13.3-46.2,18.4l-3.2-3.2c8-7.9,27.7-19.7,49.4-19.7
				c20.4,0,39.3,10.6,49.3,19.6L884.8,708z"/>
		</g>
		<g>
			<path class="st0" d="M663,670.5h-79.1v-40H663V670.5z M588.5,665.9h69.9V635h-69.9V665.9z"/>
		</g>
		<g>
			<path class="st0" d="M577.3,680.9h-15.4v-27.3h15.4V680.9z M566.5,676.3h6.3v-18.1h-6.3V676.3z"/>
		</g>
		<g>
			<path class="st0" d="M577.3,807.4h-15.4V704h15.4V807.4z M566.5,802.9h6.3v-94.3h-6.3V802.9z"/>
		</g>
		<g>
			<path class="st0" d="M684.1,807.4h-15.4V704h15.4V807.4z M673.3,802.9h6.3v-94.3h-6.3V802.9z"/>
		</g>
		<g>
			<path class="st0" d="M684.7,680.9h-15.4v-27.3h15.4V680.9z M673.8,676.3h6.3v-18.1h-6.3V676.3z"/>
		</g>
		<g>
			<rect x="582.3" y="677.9" class="st0" width="80.3" height="4.6"/>
		</g>
		<g>
			<path class="st0" d="M569.6,700.7c-5.3,0-9.5-4.3-9.5-9.5s4.3-9.5,9.5-9.5c5.3,0,9.5,4.3,9.5,9.5S574.9,700.7,569.6,700.7z
				 M569.6,686.3c-2.7,0-5,2.2-5,5s2.2,5,5,5s5-2.2,5-5S572.4,686.3,569.6,686.3z"/>
		</g>
		<g>
			<path class="st0" d="M676.4,700.7c-5.3,0-9.5-4.3-9.5-9.5s4.3-9.5,9.5-9.5c5.3,0,9.5,4.3,9.5,9.5S681.7,700.7,676.4,700.7z
				 M676.4,686.3c-2.7,0-5,2.2-5,5s2.2,5,5,5s5-2.2,5-5S679.2,686.3,676.4,686.3z"/>
		</g>
		<g>
			<path class="st0" d="M651.8,558.9h-57.4v-63.3c0-15.8,12.9-28.7,28.7-28.7c15.8,0,28.7,12.9,28.7,28.7L651.8,558.9L651.8,558.9z
				 M599,554.4h48.3v-58.8c0-13.3-10.8-24.1-24.2-24.1c-13.3,0-24.1,10.8-24.1,24.1L599,554.4L599,554.4z"/>
		</g>
		<g>
			<path class="st0" d="M861.5,652h-45.9v-50c0-12.6,10.3-22.9,22.9-22.9c12.7,0,23,10.3,23,22.9V652z M820.2,647.4h36.7V602
				c0-10.1-8.2-18.4-18.4-18.4c-10.1,0-18.4,8.2-18.4,18.4v45.4H820.2z"/>
		</g>
		<g>
			<rect x="562.5" y="555.8" class="st0" width="122.9" height="4.6"/>
		</g>
		<g>
			<rect x="559.4" y="572.6" class="st0" width="129.7" height="4.6"/>
		</g>
		<g>
			<rect x="559.4" y="578.7" class="st0" width="129.7" height="4.6"/>
		</g>
		<g>
			<rect x="564.4" y="558.1" class="st0" width="4.6" height="16.8"/>
		</g>
		<g>
			<rect x="576.8" y="558.1" class="st0" width="4.6" height="16.8"/>
		</g>
		<g>
			<rect x="666.7" y="558.1" class="st0" width="4.6" height="16.8"/>
		</g>
		<g>
			<rect x="678.8" y="558.1" class="st0" width="4.6" height="16.8"/>
		</g>
		<g>
			<path class="st0" d="M573.1,529.9c-3.2,0-5.7-2.6-5.7-5.7s2.6-5.7,5.7-5.7s5.7,2.6,5.7,5.7S576.3,529.9,573.1,529.9z M573.1,523
				c-0.6,0-1.1,0.5-1.1,1.1s0.5,1.1,1.1,1.1s1.1-0.5,1.1-1.1S573.8,523,573.1,523z"/>
		</g>
		<g>
			<path class="st0" d="M675.1,529.9c-3.2,0-5.7-2.6-5.7-5.7s2.6-5.7,5.7-5.7s5.7,2.6,5.7,5.7S678.2,529.9,675.1,529.9z M675.1,523
				c-0.6,0-1.1,0.5-1.1,1.1s0.5,1.1,1.1,1.1s1.1-0.5,1.1-1.1S675.7,523,675.1,523z"/>
		</g>
		<g>
			<path class="st0" d="M578.9,560.4h-12.1v-29.1h12.1V560.4z M571.4,555.8h2.9v-20h-2.9V555.8z"/>
		</g>
		<g>
			<path class="st0" d="M681.1,560.4H669v-29.1h12.1V560.4z M673.6,555.8h2.9v-20h-2.9V555.8z"/>
		</g>
		<g>
			<path class="st0" d="M581.4,599.5h-17.8v-20.8h17.8V599.5z M568.2,595h8.6v-11.7h-8.6V595z"/>
		</g>
		<g>
			<path class="st0" d="M683.6,599.5h-17.8v-20.8h17.8V599.5z M670.4,595h8.6v-11.7h-8.6V595z"/>
		</g>
		<g>
			<rect x="570.5" y="427.5" class="st0" width="28.6" height="4.6"/>
		</g>
		<g>
			<rect x="648.8" y="427.5" class="st0" width="30" height="4.6"/>
		</g>
		<g>
			<polygon class="st0" points="565,429.2 563.3,424.9 622.8,401.6 682.4,423.2 680.9,427.5 622.9,406.5 			"/>
		</g>
		<g>
			<rect x="790.6" y="574.5" class="st0" width="28.6" height="4.6"/>
		</g>
		<g>
			<rect x="857.7" y="574.5" class="st0" width="26.3" height="4.6"/>
		</g>
		<g>
			<polygon class="st0" points="791.4,570.2 789.7,565.9 838.6,546.7 884.8,564.8 883.2,569 838.6,551.7 			"/>
		</g>
		<g>
			<rect x="571" y="383.8" class="st0" width="103.7" height="4.6"/>
		</g>
		<g>
			<path class="st0" d="M587.7,410.4h-13.9v-19.2h13.9V410.4z M578.4,405.8h4.7v-10h-4.7V405.8z"/>
		</g>
		<g>
			<path class="st0" d="M671,410.4h-13.9v-19.2H671V410.4z M661.8,405.8h4.7v-10h-4.7V405.8z"/>
		</g>
		<g>
			<path class="st0" d="M655.7,405.6h-13.8v-14.5h13.9L655.7,405.6L655.7,405.6z M646.4,401.1h4.7v-5.4h-4.7V401.1z"/>
		</g>
		<g>
			<path class="st0" d="M603.9,405.6H590v-14.5h13.9V405.6z M594.6,401.1h4.7v-5.4h-4.7V401.1z"/>
		</g>
		<g>
			<path class="st0" d="M644.5,457.8h-42.9v-27.5h42.9V457.8z M606.2,453.2H640v-18.3h-33.8V453.2z"/>
		</g>
		<g>
			<path class="st0" d="M592.4,461.2h-15.6V436h15.6V461.2z M581.4,456.6h6.4v-16h-6.4V456.6z"/>
		</g>
		<g>
			<path class="st0" d="M670.4,461.2h-15.6V436h15.6V461.2z M659.4,456.6h6.4v-16h-6.4V456.6z"/>
		</g>
		<g>
			<rect x="582.5" y="458.9" class="st0" width="4.6" height="99.2"/>
		</g>
		<g>
			<rect x="660.5" y="458.9" class="st0" width="4.6" height="99.2"/>
		</g>
		<g>
			<rect x="459.1" y="376.9" class="st0" width="90.8" height="4.6"/>
		</g>
		<g>
			<rect x="695.6" y="376.9" class="st0" width="90.8" height="4.6"/>
		</g>
		<g>
			<rect x="459.1" y="203" class="st0" width="90.8" height="4.6"/>
		</g>
		<g>
			<rect x="697.1" y="203" class="st0" width="90.8" height="4.6"/>
		</g>
		<g>
			<rect x="459.1" y="178.6" class="st0" width="90.8" height="4.6"/>
		</g>
		<g>
			<rect x="457.6" y="471.5" class="st0" width="90.8" height="4.6"/>
		</g>
		<g>
			<rect x="695.6" y="471.5" class="st0" width="90.8" height="4.6"/>
		</g>
		<g>
			<rect x="457.6" y="500.5" class="st0" width="90.8" height="4.6"/>
		</g>
		<g>
			<rect x="116.3" y="474.9" class="st0" width="90.8" height="4.6"/>
		</g>
		<g>
			<rect x="116.3" y="503.9" class="st0" width="90.8" height="4.6"/>
		</g>
		<g>
			<rect x="116.3" y="763.4" class="st0" width="90.8" height="4.6"/>
		</g>
		<g>
			<rect x="116.3" y="812.5" class="st0" width="90.8" height="4.6"/>
		</g>
		<g>
			<rect x="695.6" y="500.5" class="st0" width="90.8" height="4.6"/>
		</g>
		<g>
			<rect x="798.4" y="665" class="st0" width="80.3" height="4.6"/>
		</g>
		<g>
			<rect x="798.4" y="704" class="st0" width="80.3" height="4.6"/>
		</g>
		<g>
			<rect x="798.4" y="672.6" class="st0" width="80.3" height="4.6"/>
		</g>
		<g>
			<rect x="798.4" y="648.9" class="st0" width="80.3" height="4.6"/>
		</g>
		<g>
			<rect x="824" y="651.2" class="st0" width="4.6" height="16.1"/>
		</g>
		<g>
			<rect x="830.1" y="651.2" class="st0" width="4.6" height="16.1"/>
		</g>
		<g>
			<rect x="836.2" y="651.2" class="st0" width="4.6" height="16.1"/>
		</g>
		<g>
			<rect x="842.3" y="651.2" class="st0" width="4.6" height="16.1"/>
		</g>
		<g>
			<rect x="848.4" y="651.2" class="st0" width="4.6" height="16.1"/>
		</g>
		<g>
			<path class="st0" d="M809,591.4c-3.2,0-5.7-2.6-5.7-5.7s2.6-5.7,5.7-5.7s5.7,2.6,5.7,5.7C814.7,588.8,812.1,591.4,809,591.4z
				 M809,584.5c-0.6,0-1.1,0.5-1.1,1.1s0.5,1.1,1.1,1.1s1.1-0.5,1.1-1.1C810.1,585.1,809.6,584.5,809,584.5z"/>
		</g>
		<g>
			<path class="st0" d="M870,591.4c-3.2,0-5.7-2.6-5.7-5.7s2.6-5.7,5.7-5.7s5.7,2.6,5.7,5.7C875.7,588.8,873.2,591.4,870,591.4z
				 M870,584.5c-0.6,0-1.1,0.5-1.1,1.1s0.5,1.1,1.1,1.1s1.1-0.5,1.1-1.1C871.2,585.1,870.7,584.5,870,584.5z"/>
		</g>
		<g>
			<rect x="806.7" y="589.1" class="st0" width="4.6" height="77.3"/>
		</g>
		<g>
			<rect x="867.7" y="589.1" class="st0" width="4.6" height="77.3"/>
		</g>
		<g>
			<path class="st0" d="M852.5,576.5h-28v-20h28V576.5z M829.1,571.9h18.8V561h-18.8V571.9z"/>
		</g>
		<g>
			<path class="st0" d="M811,727.6h-16.2v-16.2H811V727.6z M799.3,723.1h7.1V716h-7.1V723.1z"/>
		</g>
		<g>
			<path class="st0" d="M884.2,727.6H868v-16.2h16.2V727.6z M872.6,723.1h7.1V716h-7.1V723.1z"/>
		</g>
		<g>
			<path class="st0" d="M855.8,727.6h-34.5v-16.2h34.5V727.6z M825.8,723.1h25.4V716h-25.4V723.1z"/>
		</g>
		<g>
			<rect x="800.6" y="725.4" class="st0" width="4.6" height="102.8"/>
		</g>
		<g>
			<rect x="873.8" y="725.4" class="st0" width="4.6" height="102.8"/>
		</g>
		<g>
			<path class="st0" d="M1014.5,828.9h-56v-97.5h56V828.9z M963.1,824.3h46.8V736h-46.8V824.3z"/>
		</g>
		<g>
			<rect x="984.2" y="733.7" class="st0" width="4.6" height="92.9"/>
		</g>
		<g>
			<rect x="960.8" y="757.3" class="st0" width="51.4" height="4.6"/>
		</g>
		<g>
			<rect x="960.8" y="765.7" class="st0" width="51.4" height="4.6"/>
		</g>
		<g>
			<path class="st0" d="M962,751.9l-2.6-3.8l1.3,1.9l-1.3-1.9c0.1-0.1,8.2-5.7,9.1-14.5l4.6,0.5C972,745,962.5,751.6,962,751.9z"/>
		</g>
		<g>
			<path class="st0" d="M1010.7,751.9c-0.4-0.3-10-6.8-11.1-17.9l4.6-0.5c0.9,8.9,9,14.5,9.1,14.6L1010.7,751.9z"/>
		</g>
		<g>
			<rect x="978.1" y="788.7" class="st0" width="4.6" height="5.7"/>
		</g>
		<g>
			<rect x="990.2" y="788.7" class="st0" width="4.6" height="5.7"/>
		</g>
		<g>
			<path class="st0" d="M1032.8,708c-2.1-1.9-21.1-18.4-46.2-18.4c-22.7,0-41.1,13.3-46.2,18.4l-3.2-3.2c8-7.9,27.7-19.7,49.4-19.7
				c20.4,0,39.3,10.6,49.3,19.6L1032.8,708z"/>
		</g>
		<g>
			<path class="st0" d="M1009.5,652h-45.9v-50c0-12.6,10.3-22.9,22.9-22.9c12.7,0,23,10.3,23,22.9V652z M968.2,647.4h36.7V602
				c0-10.1-8.2-18.4-18.4-18.4c-10.1,0-18.4,8.2-18.4,18.4v45.4H968.2z"/>
		</g>
		<g>
			<rect x="938.6" y="574.5" class="st0" width="28.6" height="4.6"/>
		</g>
		<g>
			<rect x="1005.7" y="574.5" class="st0" width="26.3" height="4.6"/>
		</g>
		<g>
			<polygon class="st0" points="939.4,570.2 937.7,565.9 986.5,546.7 1032.8,564.8 1031.2,569 986.6,551.7 			"/>
		</g>
		<g>
			<rect x="946.4" y="665" class="st0" width="80.3" height="4.6"/>
		</g>
		<g>
			<rect x="946.4" y="704" class="st0" width="80.3" height="4.6"/>
		</g>
		<g>
			<rect x="946.4" y="672.6" class="st0" width="80.3" height="4.6"/>
		</g>
		<g>
			<rect x="946.4" y="648.9" class="st0" width="80.3" height="4.6"/>
		</g>
		<g>
			<rect x="972" y="651.2" class="st0" width="4.6" height="16.1"/>
		</g>
		<g>
			<rect x="978.1" y="651.2" class="st0" width="4.6" height="16.1"/>
		</g>
		<g>
			<rect x="984.2" y="651.2" class="st0" width="4.6" height="16.1"/>
		</g>
		<g>
			<rect x="990.3" y="651.2" class="st0" width="4.6" height="16.1"/>
		</g>
		<g>
			<rect x="996.4" y="651.2" class="st0" width="4.6" height="16.1"/>
		</g>
		<g>
			<path class="st0" d="M957,591.4c-3.2,0-5.7-2.6-5.7-5.7s2.6-5.7,5.7-5.7s5.7,2.6,5.7,5.7C962.7,588.8,960.1,591.4,957,591.4z
				 M957,584.5c-0.6,0-1.1,0.5-1.1,1.1s0.5,1.1,1.1,1.1s1.1-0.5,1.1-1.1C958.1,585.1,957.6,584.5,957,584.5z"/>
		</g>
		<g>
			<path class="st0" d="M1018,591.4c-3.2,0-5.7-2.6-5.7-5.7s2.6-5.7,5.7-5.7s5.7,2.6,5.7,5.7C1023.7,588.8,1021.2,591.4,1018,591.4z
				 M1018,584.5c-0.6,0-1.1,0.5-1.1,1.1s0.5,1.1,1.1,1.1s1.1-0.5,1.1-1.1C1019.2,585.1,1018.6,584.5,1018,584.5z"/>
		</g>
		<g>
			<rect x="954.7" y="589.1" class="st0" width="4.6" height="77.3"/>
		</g>
		<g>
			<rect x="1015.7" y="589.1" class="st0" width="4.6" height="77.3"/>
		</g>
		<g>
			<path class="st0" d="M1000.5,576.5h-28v-20h28V576.5z M977.1,571.9h18.8V561h-18.8V571.9z"/>
		</g>
		<g>
			<path class="st0" d="M959,727.6h-16.2v-16.2H959V727.6z M947.3,723.1h7.1V716h-7.1V723.1z"/>
		</g>
		<g>
			<path class="st0" d="M1032.2,727.6H1016v-16.2h16.2V727.6z M1020.6,723.1h7.1V716h-7.1V723.1z"/>
		</g>
		<g>
			<path class="st0" d="M1003.8,727.6h-34.5v-16.2h34.5V727.6z M973.8,723.1h25.4V716h-25.4V723.1z"/>
		</g>
		<g>
			<rect x="948.6" y="725.4" class="st0" width="4.6" height="102.8"/>
		</g>
		<g>
			<rect x="1021.8" y="725.4" class="st0" width="4.6" height="102.8"/>
		</g>
		<g>
			<path class="st0" d="M861.6,527.6H857v-63c0-18-15.1-23-18.4-23.9c-3.3,1.3-20,8.3-20,24.1v60.7H814v-60.7
				c0-8.6,4.2-16.4,12-22.3c5.8-4.4,11.5-6.2,11.8-6.3l0.6-0.2l0.6,0.1c0.2,0,22.6,5,22.6,28.5V527.6L861.6,527.6z"/>
		</g>
		<g>
			<path class="st0" d="M861.6,539.2H857v-74.6c0-18-15.1-23-18.4-23.9c-1.5,0.6-5.8,2.3-9.9,5.5c-6.7,5.1-10.1,11.3-10.1,18.6v74.4
				H814v-74.4c0-8.6,4.2-16.4,12-22.3c5.8-4.4,11.5-6.2,11.8-6.3l0.6-0.2l0.6,0.1c0.2,0,22.6,5,22.6,28.5V539.2L861.6,539.2z"/>
		</g>
		<g>
			<path class="st0" d="M872.3,542.5h-4.6v-77.9c0-11-5-20.4-14.7-28c-6.1-4.7-12.3-7.3-14.4-8c-4.7,1.9-30.6,13.4-30.6,36.2v77.7
				h-4.6v-77.7c0-11.8,6-22.6,17.3-31.2c8.4-6.4,16.7-9.4,17.1-9.6l0.7-0.3l0.7,0.2c0.3,0.1,33.1,10.9,33.1,40.6V542.5z"/>
		</g>
		<g>
			<rect x="797.7" y="525.3" class="st0" width="80.2" height="4.6"/>
		</g>
		<g>
			<rect x="823.7" y="476.3" class="st0" width="4.6" height="44.6"/>
		</g>
		<g>
			<rect x="848.9" y="476.3" class="st0" width="4.6" height="44.6"/>
		</g>
		<g>
			<rect x="836.3" y="478.4" class="st0" width="4.6" height="40.3"/>
		</g>
		<g>
			<path class="st0" d="M439.2,828.9h-56v-97.5h56V828.9z M387.8,824.3h46.8V736h-46.8V824.3z"/>
		</g>
		<g>
			<rect x="409" y="733.7" class="st0" width="4.6" height="92.9"/>
		</g>
		<g>
			<rect x="385.6" y="757.3" class="st0" width="51.4" height="4.6"/>
		</g>
		<g>
			<rect x="385.6" y="765.7" class="st0" width="51.4" height="4.6"/>
		</g>
		<g>
			<path class="st0" d="M435.7,751.9c-0.4-0.3-10-6.8-11.1-17.9l4.6-0.5c0.9,8.9,9,14.5,9.1,14.5L435.7,751.9z"/>
		</g>
		<g>
			<path class="st0" d="M387,751.9l-2.6-3.8l1.3,1.9l-1.3-1.9c0.1-0.1,8.2-5.7,9.1-14.5l4.6,0.5C397,745,387.4,751.6,387,751.9z"/>
		</g>
		<g>
			<rect x="415.1" y="788.7" class="st0" width="4.6" height="5.7"/>
		</g>
		<g>
			<rect x="402.9" y="788.7" class="st0" width="4.6" height="5.7"/>
		</g>
		<g>
			<path class="st0" d="M365,708l-3.1-3.4c10-9.1,28.9-19.6,49.3-19.6c21.7,0,41.4,11.8,49.4,19.7l-3.2,3.2
				c-5.1-5.1-23.5-18.4-46.2-18.4C386,689.5,367.1,706.1,365,708z"/>
		</g>
		<g>
			<path class="st0" d="M434.1,652h-45.9v-50c0-12.6,10.3-22.9,23-22.9c12.6,0,22.9,10.3,22.9,22.9V652z M392.8,647.4h36.7V602
				c0-10.1-8.2-18.4-18.4-18.4c-10.1,0-18.4,8.2-18.4,18.4L392.8,647.4L392.8,647.4z"/>
		</g>
		<g>
			<rect x="430.6" y="574.5" class="st0" width="28.6" height="4.6"/>
		</g>
		<g>
			<rect x="365.7" y="574.5" class="st0" width="26.3" height="4.6"/>
		</g>
		<g>
			<polygon class="st0" points="458.3,570.2 411.2,551.7 366.6,569 364.9,564.8 411.2,546.7 460,565.9 			"/>
		</g>
		<g>
			<rect x="371.1" y="665" class="st0" width="80.3" height="4.6"/>
		</g>
		<g>
			<rect x="371.1" y="704" class="st0" width="80.3" height="4.6"/>
		</g>
		<g>
			<rect x="371.1" y="672.6" class="st0" width="80.3" height="4.6"/>
		</g>
		<g>
			<rect x="371.1" y="648.9" class="st0" width="80.3" height="4.6"/>
		</g>
		<g>
			<rect x="421.2" y="651.2" class="st0" width="4.6" height="16.1"/>
		</g>
		<g>
			<rect x="415.1" y="651.2" class="st0" width="4.6" height="16.1"/>
		</g>
		<g>
			<rect x="408.9" y="651.2" class="st0" width="4.6" height="16.1"/>
		</g>
		<g>
			<rect x="402.8" y="651.2" class="st0" width="4.6" height="16.1"/>
		</g>
		<g>
			<rect x="396.7" y="651.2" class="st0" width="4.6" height="16.1"/>
		</g>
		<g>
			<path class="st0" d="M440.7,591.4c-3.2,0-5.7-2.6-5.7-5.7s2.6-5.7,5.7-5.7s5.7,2.6,5.7,5.7C446.5,588.8,443.9,591.4,440.7,591.4z
				 M440.7,584.5c-0.6,0-1.1,0.5-1.1,1.1s0.5,1.1,1.1,1.1s1.1-0.5,1.1-1.1C441.9,585.1,441.4,584.5,440.7,584.5z"/>
		</g>
		<g>
			<path class="st0" d="M379.7,591.4c-3.2,0-5.7-2.6-5.7-5.7s2.6-5.7,5.7-5.7c3.2,0,5.7,2.6,5.7,5.7
				C385.4,588.8,382.9,591.4,379.7,591.4z M379.7,584.5c-0.6,0-1.1,0.5-1.1,1.1s0.5,1.1,1.1,1.1s1.1-0.5,1.1-1.1
				C380.8,585.1,380.3,584.5,379.7,584.5z"/>
		</g>
		<g>
			<rect x="438.4" y="589.1" class="st0" width="4.6" height="77.3"/>
		</g>
		<g>
			<rect x="377.4" y="589.1" class="st0" width="4.6" height="77.3"/>
		</g>
		<g>
			<path class="st0" d="M425.2,576.5h-28v-20h28V576.5z M401.8,571.9h18.8V561h-18.8V571.9z"/>
		</g>
		<g>
			<path class="st0" d="M455,727.6h-16.2v-16.2H455V727.6z M443.3,723.1h7.1V716h-7.1V723.1z"/>
		</g>
		<g>
			<path class="st0" d="M381.7,727.6h-16.2v-16.2h16.2V727.6z M370.1,723.1h7.1V716h-7.1V723.1z"/>
		</g>
		<g>
			<path class="st0" d="M428.5,727.6h-34.6v-16.2h34.5L428.5,727.6L428.5,727.6z M398.5,723.1h25.4V716h-25.4V723.1z"/>
		</g>
		<g>
			<rect x="444.6" y="725.4" class="st0" width="4.6" height="102.8"/>
		</g>
		<g>
			<rect x="371.3" y="725.4" class="st0" width="4.6" height="102.8"/>
		</g>
		<g>
			<path class="st0" d="M286.7,828.9h-56v-97.5h56V828.9z M235.3,824.3h46.8V736h-46.8V824.3z"/>
		</g>
		<g>
			<rect x="256.4" y="733.7" class="st0" width="4.6" height="92.9"/>
		</g>
		<g>
			<rect x="409" y="582.7" class="st0" width="4.6" height="67.7"/>
		</g>
		<g>
			<rect x="256.4" y="582.7" class="st0" width="4.6" height="67.7"/>
		</g>
		<g>
			<rect x="233" y="757.3" class="st0" width="51.4" height="4.6"/>
		</g>
		<g>
			<rect x="233" y="765.7" class="st0" width="51.4" height="4.6"/>
		</g>
		<g>
			<path class="st0" d="M283.1,751.9c-0.4-0.3-10-6.8-11.1-17.9l4.6-0.5c0.9,8.9,9,14.5,9.1,14.5L283.1,751.9z"/>
		</g>
		<g>
			<path class="st0" d="M234.4,751.9l-2.6-3.8l1.3,1.9l-1.3-1.9c0.1-0.1,8.2-5.7,9.1-14.6l4.6,0.5
				C244.4,745,234.8,751.6,234.4,751.9z"/>
		</g>
		<g>
			<rect x="262.5" y="788.7" class="st0" width="4.6" height="5.7"/>
		</g>
		<g>
			<rect x="250.3" y="788.7" class="st0" width="4.6" height="5.7"/>
		</g>
		<g>
			<path class="st0" d="M212.4,708l-3.1-3.4c10-9.1,28.9-19.6,49.3-19.6c21.7,0,41.4,11.8,49.4,19.7l-3.2,3.2
				c-5.1-5.1-23.5-18.4-46.2-18.4C233.5,689.5,214.5,706.1,212.4,708z"/>
		</g>
		<g>
			<path class="st0" d="M281.6,652h-45.9v-50c0-12.6,10.3-22.9,23-22.9c12.6,0,22.9,10.3,22.9,22.9V652z M240.2,647.4h36.7V602
				c0-10.1-8.2-18.4-18.4-18.4c-10.1,0-18.4,8.2-18.4,18.4v45.4H240.2z"/>
		</g>
		<g>
			<rect x="278" y="574.5" class="st0" width="28.6" height="4.6"/>
		</g>
		<g>
			<rect x="213.1" y="574.5" class="st0" width="26.3" height="4.6"/>
		</g>
		<g>
			<polygon class="st0" points="305.8,570.2 258.6,551.7 214,569 212.3,564.8 258.6,546.7 307.4,565.9 			"/>
		</g>
		<g>
			<rect x="218.5" y="665" class="st0" width="80.3" height="4.6"/>
		</g>
		<g>
			<rect x="218.5" y="704" class="st0" width="80.3" height="4.6"/>
		</g>
		<g>
			<rect x="218.5" y="672.6" class="st0" width="80.3" height="4.6"/>
		</g>
		<g>
			<rect x="218.5" y="648.9" class="st0" width="80.3" height="4.6"/>
		</g>
		<g>
			<rect x="268.6" y="651.2" class="st0" width="4.6" height="16.1"/>
		</g>
		<g>
			<rect x="262.5" y="651.2" class="st0" width="4.6" height="16.1"/>
		</g>
		<g>
			<rect x="256.4" y="651.2" class="st0" width="4.6" height="16.1"/>
		</g>
		<g>
			<rect x="250.3" y="651.2" class="st0" width="4.6" height="16.1"/>
		</g>
		<g>
			<rect x="244.2" y="651.2" class="st0" width="4.6" height="16.1"/>
		</g>
		<g>
			<path class="st0" d="M288.2,591.4c-3.2,0-5.7-2.6-5.7-5.7s2.6-5.7,5.7-5.7c3.2,0,5.7,2.6,5.7,5.7
				C293.9,588.8,291.3,591.4,288.2,591.4z M288.2,584.5c-0.6,0-1.1,0.5-1.1,1.1s0.5,1.1,1.1,1.1s1.1-0.5,1.1-1.1
				C289.3,585.1,288.8,584.5,288.2,584.5z"/>
		</g>
		<g>
			<path class="st0" d="M227.1,591.4c-3.2,0-5.7-2.6-5.7-5.7s2.6-5.7,5.7-5.7c3.2,0,5.7,2.6,5.7,5.7
				C232.9,588.8,230.3,591.4,227.1,591.4z M227.1,584.5c-0.6,0-1.1,0.5-1.1,1.1s0.5,1.1,1.1,1.1s1.1-0.5,1.1-1.1
				C228.3,585.1,227.8,584.5,227.1,584.5z"/>
		</g>
		<g>
			<rect x="285.9" y="589.1" class="st0" width="4.6" height="77.3"/>
		</g>
		<g>
			<rect x="224.8" y="589.1" class="st0" width="4.6" height="77.3"/>
		</g>
		<g>
			<path class="st0" d="M272.6,576.5h-28v-20h28V576.5z M249.2,571.9H268V561h-18.8V571.9z"/>
		</g>
		<g>
			<path class="st0" d="M302.4,727.6h-16.2v-16.2h16.2V727.6z M290.8,723.1h7.1V716h-7.1V723.1z"/>
		</g>
		<g>
			<path class="st0" d="M229.2,727.6H213v-16.2h16.2V727.6z M217.5,723.1h7.1V716h-7.1V723.1z"/>
		</g>
		<g>
			<path class="st0" d="M275.9,727.6h-34.5v-16.2h34.5V727.6z M246,723.1h25.4V716H246V723.1z"/>
		</g>
		<g>
			<rect x="292" y="725.3" class="st0" width="4.6" height="102.8"/>
		</g>
		<g>
			<rect x="218.8" y="725.3" class="st0" width="4.6" height="102.8"/>
		</g>
		<g>
			<path class="st0" d="M392.7,527.6h-4.6v-63c0-23.5,22.4-28.4,22.6-28.5l0.6-0.1l0.6,0.2c0.2,0.1,6,2,11.8,6.3
				c7.9,5.9,12,13.6,12,22.3v60.7h-4.6v-60.7c0-15.7-16.7-22.8-20-24.1c-3.3,0.9-18.4,5.9-18.4,23.9L392.7,527.6L392.7,527.6z"/>
		</g>
		<g>
			<path class="st0" d="M435.6,539.2H431v-74.4c0-15.8-16.7-22.8-20-24.1c-3.3,0.9-18.4,5.9-18.4,23.9v74.6H388v-74.6
				c0-23.5,22.4-28.4,22.6-28.5l0.6-0.1l0.6,0.2c0.2,0.1,6,2,11.8,6.3c7.9,5.9,12,13.6,12,22.3L435.6,539.2L435.6,539.2z"/>
		</g>
		<g>
			<path class="st0" d="M446.3,542.5h-4.6v-77.7c0-22.9-25.9-34.3-30.6-36.2c-2.1,0.8-8.3,3.3-14.4,8c-9.8,7.6-14.7,17-14.7,28v77.9
				h-4.6v-77.9c0-29.7,32.7-40.5,33.1-40.6l0.7-0.2l0.7,0.3c0.3,0.1,8.7,3.1,17.1,9.6c11.3,8.7,17.3,19.5,17.3,31.2V542.5
				L446.3,542.5z"/>
		</g>
		<g>
			<rect x="371.8" y="525.3" class="st0" width="80.2" height="4.6"/>
		</g>
		<g>
			<path class="st0" d="M411.2,472.7c-6.3,0-11.4-5.1-11.4-11.4s5.1-11.4,11.4-11.4s11.4,5.1,11.4,11.4
				C422.6,467.5,417.5,472.7,411.2,472.7z M411.2,454.3c-3.8,0-6.9,3.1-6.9,6.9s3.1,6.9,6.9,6.9s6.9-3.1,6.9-6.9
				C418,457.4,415,454.3,411.2,454.3z"/>
		</g>
		<g>
			<path class="st0" d="M838.4,472.7c-6.3,0-11.4-5.1-11.4-11.4s5.1-11.4,11.4-11.4s11.4,5.1,11.4,11.4
				C849.8,467.5,844.7,472.7,838.4,472.7z M838.4,454.3c-3.8,0-6.9,3.1-6.9,6.9s3.1,6.9,6.9,6.9s6.9-3.1,6.9-6.9
				C845.2,457.4,842.1,454.3,838.4,454.3z"/>
		</g>
		<g>
			<rect x="421.5" y="476.3" class="st0" width="4.6" height="44.6"/>
		</g>
		<g>
			<rect x="396.3" y="476.3" class="st0" width="4.6" height="44.6"/>
		</g>
		<g>
			<rect x="408.9" y="478.4" class="st0" width="4.6" height="40.3"/>
		</g>
		<g>
			<path class="st0" d="M651.1,388.4h-56.5v-95.1c0-10.7,4.7-20.9,13.7-29.4c6.7-6.4,13.3-9.5,13.6-9.7l0.9-0.4l0.9,0.4
				c0.3,0.1,27.4,10.9,27.4,39.2V388.4L651.1,388.4z M599.2,383.8h47.3v-90.6c0-22.6-19-32.5-23.6-34.5c-1.9,1.1-6.8,3.9-11.6,8.5
				c-8.1,7.7-12.2,16.5-12.2,26L599.2,383.8L599.2,383.8z"/>
		</g>
		<g>
			<path class="st0" d="M666.6,385.3H662v-92c0-37.7-33.1-54.1-39.1-56.7c-5.9,3.1-39.3,22.3-39.3,56.7v92H579v-92
				c0-40.5,42.4-61.1,42.8-61.3l0.9-0.4l0.9,0.4c0.4,0.2,42.9,17,42.9,61.4L666.6,385.3L666.6,385.3z"/>
		</g>
		<g>
			<rect x="466.7" y="180.9" class="st0" width="4.6" height="583.6"/>
		</g>
		<g>
			<rect x="490.1" y="180.9" class="st0" width="4.6" height="583.6"/>
		</g>
		<g>
			<rect x="513.5" y="180.9" class="st0" width="4.6" height="583.6"/>
		</g>
		<g>
			<rect x="536.9" y="180.9" class="st0" width="4.6" height="583.6"/>
		</g>
		<g>
			<rect x="123.7" y="476.3" class="st0" width="4.6" height="349.1"/>
		</g>
		<g>
			<rect x="147.1" y="476.3" class="st0" width="4.6" height="289.3"/>
		</g>
		<g>
			<rect x="170.5" y="476.3" class="st0" width="4.6" height="289.3"/>
		</g>
		<g>
			<rect x="193.9" y="476.3" class="st0" width="4.6" height="349.1"/>
		</g>
		<g>
			<rect x="703.6" y="180.9" class="st0" width="4.6" height="583.6"/>
		</g>
		<g>
			<rect x="727" y="180.9" class="st0" width="4.6" height="583.6"/>
		</g>
		<g>
			<rect x="750.4" y="180.9" class="st0" width="4.6" height="583.6"/>
		</g>
		<g>
			<rect x="773.8" y="180.9" class="st0" width="4.6" height="583.6"/>
		</g>
		<g>
			<rect x="456.8" y="762.2" class="st0" width="98.6" height="4.6"/>
		</g>
		<g>
			<rect x="456.8" y="812.5" class="st0" width="98.6" height="4.6"/>
		</g>
		<g>
			<rect x="688.7" y="762.2" class="st0" width="98.6" height="4.6"/>
		</g>
		<g>
			<rect x="688.7" y="812.5" class="st0" width="98.6" height="4.6"/>
		</g>
		<g>
			<rect x="887.1" y="762.2" class="st0" width="53.1" height="4.6"/>
		</g>
		<g>
			<rect x="887.1" y="812.5" class="st0" width="53.1" height="4.6"/>
		</g>
		<g>
			<rect x="310.3" y="762.2" class="st0" width="53.1" height="4.6"/>
		</g>
		<g>
			<rect x="310.3" y="812.5" class="st0" width="53.1" height="4.6"/>
		</g>
		<g>
			<rect x="1034" y="762.2" class="st0" width="96.4" height="4.6"/>
		</g>
		<g>
			<rect x="1034" y="812.5" class="st0" width="96.4" height="4.6"/>
		</g>
		<g>
			<rect x="596.7" y="493.3" class="st0" width="52.9" height="4.6"/>
		</g>
		<g>
			<path class="st0" d="M633,495.6h-4.6c0-3.1-2.5-5.6-5.6-5.6s-5.6,2.5-5.6,5.6h-4.6c0-5.6,4.6-10.2,10.2-10.2
				C628.5,485.4,633,490,633,495.6z"/>
		</g>
		<g>
			<rect x="620.6" y="469.2" class="st0" width="4.6" height="18.5"/>
		</g>
		<g>
			
				<rect x="601.4" y="481.4" transform="matrix(0.7512 0.6601 -0.6601 0.7512 471.1864 -282.7226)" class="st0" width="18.4" height="4.6"/>
		</g>
		<g>
			
				<rect x="633.4" y="474.7" transform="matrix(0.6006 0.7995 -0.7995 0.6006 640.9001 -314.9031)" class="st0" width="4.6" height="18.8"/>
		</g>
		<g>
			<rect x="620.6" y="495.6" class="st0" width="4.6" height="59.6"/>
		</g>
		<g>
			<rect x="606.8" y="495.6" class="st0" width="4.6" height="59.6"/>
		</g>
		<g>
			<rect x="634.3" y="495.6" class="st0" width="4.6" height="59.6"/>
		</g>
		<g>
			<path class="st0" d="M490.2,371.1l-9.5-29.8l-9.5,29.8l-4.4-1.4l11.7-36.6c0.3-0.9,1.2-1.6,2.2-1.6s1.9,0.6,2.2,1.6l11.7,36.6
				L490.2,371.1z"/>
		</g>
		<g>
			<path class="st0" d="M494.8,371.1l-4.4-1.4l11.7-36.6c0.3-0.9,1.2-1.6,2.2-1.6l0,0c1,0,1.9,0.6,2.2,1.6l11.7,36.6l-4.4,1.4
				l-9.5-29.8L494.8,371.1z"/>
		</g>
		<g>
			<path class="st0" d="M537,371.1l-9.5-29.8l-9.5,29.8l-4.4-1.4l11.7-36.6c0.3-0.9,1.2-1.6,2.2-1.6s1.9,0.6,2.2,1.6l11.7,36.6
				L537,371.1z"/>
		</g>
		<g>
			<path class="st0" d="M490.3,503.6l-9.6-23.7l-9.6,23.7l-4.2-1.7l11.7-29c0.3-0.9,1.2-1.4,2.1-1.4s1.8,0.6,2.1,1.4l11.7,29
				L490.3,503.6z"/>
		</g>
		<g>
			<path class="st0" d="M494.7,503.6l-4.2-1.7l11.7-29c0.3-0.9,1.2-1.4,2.1-1.4l0,0c0.9,0,1.8,0.6,2.1,1.4l11.7,29l-4.2,1.7
				l-9.6-23.7L494.7,503.6z"/>
		</g>
		<g>
			<path class="st0" d="M537.1,503.6l-9.6-23.7l-9.6,23.7l-4.2-1.7l11.7-29c0.3-0.9,1.2-1.4,2.1-1.4s1.8,0.6,2.1,1.4l11.7,29
				L537.1,503.6z"/>
		</g>
		<g>
			<path class="st0" d="M727.3,503.6l-9.6-23.7l-9.6,23.7l-4.2-1.7l11.7-29c0.3-0.9,1.2-1.4,2.1-1.4s1.8,0.6,2.1,1.4l11.7,29
				L727.3,503.6z"/>
		</g>
		<g>
			<path class="st0" d="M731.8,503.6l-4.2-1.7l11.7-29c0.3-0.9,1.2-1.4,2.1-1.4l0,0c0.9,0,1.8,0.6,2.1,1.4l11.7,29l-4.2,1.7
				l-9.6-23.7L731.8,503.6z"/>
		</g>
		<g>
			<path class="st0" d="M774.1,503.6l-9.6-23.7l-9.6,23.7l-4.2-1.7l11.7-29c0.3-0.9,1.2-1.4,2.1-1.4s1.8,0.6,2.1,1.4l11.7,29
				L774.1,503.6z"/>
		</g>
		<g>
			<path class="st0" d="M727.1,371.1l-9.5-29.8l-9.5,29.8l-4.4-1.4l11.7-36.6c0.3-0.9,1.2-1.6,2.2-1.6s1.9,0.6,2.2,1.6l11.7,36.6
				L727.1,371.1z"/>
		</g>
		<g>
			<path class="st0" d="M731.6,371.1l-4.4-1.4l11.7-36.6c0.3-0.9,1.2-1.6,2.2-1.6l0,0c1,0,1.9,0.6,2.2,1.6l11.7,36.6l-4.4,1.4
				l-9.5-29.8L731.6,371.1z"/>
		</g>
		<g>
			<path class="st0" d="M773.9,371.1l-9.5-29.8l-9.5,29.8l-4.4-1.4l11.7-36.6c0.3-0.9,1.2-1.6,2.2-1.6s1.9,0.6,2.2,1.6l11.7,36.6
				L773.9,371.1z"/>
		</g>
		<g>
			<path class="st0" d="M490.2,181.9l-9.5-29.8l-9.5,29.8l-4.4-1.4l11.7-36.6c0.3-0.9,1.2-1.6,2.2-1.6s1.9,0.6,2.2,1.6l11.7,36.6
				L490.2,181.9z"/>
		</g>
		<g>
			<path class="st0" d="M494.8,181.9l-4.4-1.4l11.7-36.6c0.3-0.9,1.2-1.6,2.2-1.6l0,0c1,0,1.9,0.6,2.2,1.6l11.7,36.6l-4.4,1.4
				l-9.5-29.8L494.8,181.9z"/>
		</g>
		<g>
			<path class="st0" d="M537,181.9l-9.5-29.8l-9.5,29.8l-4.4-1.4l11.7-36.6c0.3-0.9,1.2-1.6,2.2-1.6s1.9,0.6,2.2,1.6l11.7,36.6
				L537,181.9z"/>
		</g>
		<g>
			<path class="st0" d="M487.2,466.9h-13v-43.3h13V466.9z M478.8,462.4h3.8v-34.1h-3.8V462.4z"/>
		</g>
		<g>
			<path class="st0" d="M534,466.7h-13v-43.3h13V466.7z M525.6,462.2h3.8v-34.1h-3.8V462.2z"/>
		</g>
		<g>
			<path class="st0" d="M723.7,466.9h-13v-43.3h13V466.9z M715.3,462.4h3.8v-34.1h-3.8V462.4z"/>
		</g>
		<g>
			<path class="st0" d="M771,466.7h-13v-43.3h13V466.7z M762.7,462.2h3.8v-34.1h-3.8V462.2z"/>
		</g>
		<g>
			<path class="st0" d="M487.2,658.2h-13v-41c0-2.8,1.7-6.9,6.5-6.9s6.5,4.1,6.5,6.9V658.2z M478.8,653.6h3.8v-36.4
				c0-0.8-0.3-2.3-1.9-2.3s-1.9,1.4-1.9,2.3L478.8,653.6L478.8,653.6z"/>
		</g>
		<g>
			<path class="st0" d="M510.8,658.2h-13v-41c0-2.8,1.7-6.9,6.5-6.9s6.5,4.1,6.5,6.9V658.2z M502.4,653.6h3.8v-36.4
				c0-0.8-0.3-2.3-1.9-2.3s-1.9,1.4-1.9,2.3V653.6L502.4,653.6z"/>
		</g>
		<g>
			<path class="st0" d="M534.1,658.2h-13v-41c0-2.8,1.7-6.9,6.5-6.9s6.5,4.1,6.5,6.9V658.2z M525.7,653.6h3.8v-36.4
				c0-0.8-0.3-2.3-1.9-2.3s-1.9,1.4-1.9,2.3V653.6L525.7,653.6z"/>
		</g>
		<g>
			<path class="st0" d="M545.1,148.6c-0.6,0-1.2-0.2-1.7-0.7c-0.9-0.9-0.8-2.4,0.1-3.2l77.8-71.6c0.9-0.9,2.4-0.8,3.2,0.1
				c0.9,0.9,0.8,2.4-0.1,3.2L546.6,148C546.2,148.4,545.6,148.6,545.1,148.6z"/>
		</g>
		<g>
			
				<rect x="409.5" y="191.2" transform="matrix(0.6781 0.735 -0.735 0.6781 330.3058 -216.0715)" class="st0" width="4.6" height="155.7"/>
		</g>
		<g>
			
				<rect x="258.8" y="327.7" transform="matrix(0.6781 0.735 -0.735 0.6781 383.9765 -60.5154)" class="st0" width="4.6" height="160.8"/>
		</g>
		<g>
			<path class="st0" d="M540,224.9c-0.6,0-1.2-0.2-1.7-0.7c-0.9-0.9-0.8-2.4,0.1-3.2l82.9-76.3c0.9-0.9,2.4-0.8,3.2,0.1
				c0.9,0.9,0.8,2.4-0.1,3.2l-82.9,76.3C541.1,224.7,540.5,224.9,540,224.9z"/>
		</g>
		<g>
			
				<rect x="409.2" y="263.5" transform="matrix(0.6774 0.7356 -0.7356 0.6774 383.5647 -192.6999)" class="st0" width="4.6" height="154.9"/>
		</g>
		<g>
			
				<rect x="256.3" y="396.7" transform="matrix(0.6774 0.7356 -0.7356 0.6774 437.7133 -34.8818)" class="st0" width="4.6" height="169.8"/>
		</g>
		<g>
			<path class="st0" d="M701.2,149.4c-0.6,0-1.1-0.2-1.5-0.6l-78.6-72.4c-0.9-0.9-1-2.3-0.1-3.2c0.9-0.9,2.3-1,3.2-0.1l78.6,72.4
				c0.9,0.9,1,2.3,0.1,3.2C702.5,149.1,701.9,149.4,701.2,149.4z"/>
		</g>
		<g>
			<path class="st0" d="M897.2,329.8c-0.6,0-1.1-0.2-1.5-0.6l-120-110.5c-0.9-0.9-1-2.3-0.1-3.2s2.3-1,3.2-0.1l120,110.5
				c0.9,0.9,1,2.3,0.1,3.2C898.5,329.5,897.8,329.8,897.2,329.8z"/>
		</g>
		<g>
			<path class="st0" d="M1041.1,462.2c-0.6,0-1.1-0.2-1.5-0.6L930.4,361.1c-0.9-0.9-1-2.3-0.1-3.2c0.9-0.9,2.3-1,3.2-0.1
				l109.2,100.5c0.9,0.9,1,2.3,0.1,3.2C1042.4,462,1041.8,462.2,1041.1,462.2z"/>
		</g>
		<g>
			<path class="st0" d="M704.5,223.9c-0.6,0-1.1-0.2-1.5-0.6l-81.9-75.4c-0.9-0.9-1-2.3-0.1-3.2s2.3-1,3.2-0.1l81.9,75.4
				c0.9,0.9,1,2.3,0.1,3.2C705.7,223.7,705.1,223.9,704.5,223.9z"/>
		</g>
		<g>
			<path class="st0" d="M897.2,401.4c-0.6,0-1.1-0.2-1.5-0.6l-120-110.5c-0.9-0.9-1-2.3-0.1-3.2c0.9-0.9,2.3-1,3.2-0.1l120,110.5
				c0.9,0.9,1,2.3,0.1,3.2C898.5,401.1,897.8,401.4,897.2,401.4z"/>
		</g>
		<g>
			<path class="st0" d="M1046.4,538.7c-0.6,0-1.1-0.2-1.5-0.6L930.4,432.7c-0.9-0.9-1-2.3-0.1-3.2s2.3-1,3.2-0.1L1048,534.7
				c0.9,0.9,1,2.3,0.1,3.2C1047.7,538.4,1047,538.7,1046.4,538.7z"/>
		</g>
		<g>
			<rect x="539.2" y="221" class="st0" width="168.1" height="4.6"/>
		</g>
		<g>
			<rect x="539.2" y="185.1" class="st0" width="168.1" height="4.6"/>
		</g>
		<g>
			<rect x="896.2" y="304.7" class="st0" width="4.6" height="459.7"/>
		</g>
		<g>
			<rect x="928.5" y="304.7" class="st0" width="4.6" height="459.7"/>
		</g>
		<g>
			<rect x="793.2" y="403.9" class="st0" width="82.5" height="4.6"/>
		</g>
		<g>
			<rect x="793.2" y="376.9" class="st0" width="82.5" height="4.6"/>
		</g>
		<g>
			<rect x="368.6" y="403.9" class="st0" width="82.8" height="4.6"/>
		</g>
		<g>
			<rect x="368.6" y="376.9" class="st0" width="82.8" height="4.6"/>
		</g>
		<g>
			<rect x="478.4" y="663.9" class="st0" width="4.6" height="90.2"/>
		</g>
		<g>
			<rect x="502" y="663.9" class="st0" width="4.6" height="90.2"/>
		</g>
		<g>
			<rect x="525.3" y="663.9" class="st0" width="4.6" height="90.2"/>
		</g>
		<g>
			<path class="st0" d="M724,658.2h-13v-41c0-2.8,1.7-6.9,6.5-6.9s6.5,4.1,6.5,6.9V658.2z M715.6,653.6h3.8v-36.4
				c0-0.8-0.3-2.3-1.9-2.3s-1.9,1.4-1.9,2.3V653.6L715.6,653.6z"/>
		</g>
		<g>
			<path class="st0" d="M747.6,658.2h-13v-41c0-2.8,1.7-6.9,6.5-6.9s6.5,4.1,6.5,6.9V658.2z M739.2,653.6h3.8v-36.4
				c0-0.8-0.3-2.3-1.9-2.3s-1.9,1.4-1.9,2.3V653.6L739.2,653.6z"/>
		</g>
		<g>
			<path class="st0" d="M770.9,658.2h-13v-41c0-2.8,1.7-6.9,6.5-6.9s6.5,4.1,6.5,6.9V658.2z M762.5,653.6h3.8v-36.4
				c0-0.8-0.3-2.3-1.9-2.3s-1.9,1.4-1.9,2.3V653.6L762.5,653.6z"/>
		</g>
		<g>
			<rect x="715.2" y="663.9" class="st0" width="4.6" height="90.2"/>
		</g>
		<g>
			<rect x="738.8" y="663.9" class="st0" width="4.6" height="90.2"/>
		</g>
		<g>
			<rect x="762.1" y="663.9" class="st0" width="4.6" height="90.2"/>
		</g>
		<g>
			<g>
				<path class="st0" d="M466.7,179.7h-4.6V72.2c0-0.1,0-0.3,0-0.4l4.6-23.1c0.2-1.1,1.2-1.8,2.2-1.8H492c1.1,0,2,0.8,2.2,1.8
					l4.7,23c0,0.1,0,0.3,0,0.4V169h-4.6V72.4l-4.2-21.1h-19.4l-4.2,21.1L466.7,179.7L466.7,179.7z"/>
			</g>
			<g>
				<rect x="457.9" y="103.7" class="st0" width="45.1" height="4.6"/>
			</g>
			<g>
				<rect x="457.9" y="132.4" class="st0" width="45.1" height="4.6"/>
			</g>
			<g>
				<rect x="457.9" y="117.7" class="st0" width="45.1" height="4.6"/>
			</g>
			<g>
				<path class="st0" d="M490.3,48.6h-4.6V15.8L483,1.2h-5.1l-2.7,14.6v32.8h-4.6v-33c0-0.1,0-0.3,0-0.4l3.1-16.7
					c0.2-1.1,1.1-1.9,2.3-1.9h9c1.1,0,2.1,0.8,2.3,1.9l3.1,16.7c0,0.1,0,0.3,0,0.4L490.3,48.6L490.3,48.6z"/>
			</g>
			<g>
				<rect x="478.2" y="-29.7" class="st0" width="4.6" height="21.5"/>
			</g>
			<g>
				<rect x="475.6" y="-10.4" class="st0" width="9.9" height="4.6"/>
			</g>
			<g>
				<path class="st0" d="M480.5-26.8c-2.5,0-4.6-2.1-4.6-4.6s2.1-4.6,4.6-4.6s4.6,2.1,4.6,4.6S483-26.8,480.5-26.8z"/>
			</g>
			<g>
				<rect x="472.5" y="72.2" class="st0" width="4.6" height="91.9"/>
			</g>
			<g>
				<rect x="484.9" y="72.2" class="st0" width="4.6" height="91.9"/>
			</g>
		</g>
		<g>
			<g>
				<path class="st0" d="M546.5,179.7h-4.6V72.4l-4.2-21.1h-19.4l-4.2,21.1v96.7h-4.6V72.2c0-0.1,0-0.3,0-0.4l4.6-23.1
					c0.2-1.1,1.2-1.8,2.2-1.8h23.1c1.1,0,2,0.8,2.2,1.8l4.6,23.1c0,0.1,0,0.3,0,0.4L546.5,179.7L546.5,179.7z"/>
			</g>
			<g>
				<rect x="505.5" y="103.7" class="st0" width="45.1" height="4.6"/>
			</g>
			<g>
				<rect x="505.5" y="132.4" class="st0" width="45.1" height="4.6"/>
			</g>
			<g>
				<rect x="505.5" y="117.7" class="st0" width="45.1" height="4.6"/>
			</g>
			<g>
				<path class="st0" d="M537.9,48.6h-4.6V15.8l-2.7-14.6h-5.1l-2.7,14.6v32.8h-4.6v-33c0-0.1,0-0.3,0-0.4l3.1-16.7
					c0.2-1.1,1.1-1.9,2.3-1.9h9c1.1,0,2.1,0.8,2.3,1.9l3.1,16.7c0,0.1,0,0.3,0,0.4L537.9,48.6L537.9,48.6z"/>
			</g>
			<g>
				<rect x="525.8" y="-29.7" class="st0" width="4.6" height="21.5"/>
			</g>
			<g>
				<rect x="523.1" y="-10.4" class="st0" width="9.9" height="4.6"/>
			</g>
			<g>
				<path class="st0" d="M528.1-26.8c-2.5,0-4.6-2.1-4.6-4.6s2.1-4.6,4.6-4.6s4.6,2.1,4.6,4.6S530.6-26.8,528.1-26.8z"/>
			</g>
			<g>
				<rect x="520.1" y="72.2" class="st0" width="4.6" height="88.9"/>
			</g>
			<g>
				<rect x="532.4" y="72.2" class="st0" width="4.6" height="95"/>
			</g>
		</g>
		<g>
			<rect x="697.1" y="178.6" class="st0" width="90.8" height="4.6"/>
		</g>
		<g>
			<path class="st0" d="M728.2,181.9l-9.5-29.8l-9.5,29.8l-4.4-1.4l11.7-36.6c0.3-0.9,1.2-1.6,2.2-1.6s1.9,0.6,2.2,1.6l11.7,36.6
				L728.2,181.9z"/>
		</g>
		<g>
			<path class="st0" d="M732.8,181.9l-4.4-1.4l11.7-36.6c0.3-0.9,1.2-1.6,2.2-1.6l0,0c1,0,1.9,0.6,2.2,1.6l11.7,36.6l-4.4,1.4
				l-9.5-29.8L732.8,181.9z"/>
		</g>
		<g>
			<path class="st0" d="M775,181.9l-9.5-29.8l-9.5,29.8l-4.4-1.4l11.7-36.6c0.3-0.9,1.2-1.6,2.2-1.6s1.9,0.6,2.2,1.6l11.7,36.6
				L775,181.9z"/>
		</g>
		<g>
			<g>
				<path class="st0" d="M704.7,179.7h-4.6V72.2c0-0.1,0-0.3,0-0.4l4.6-23.1c0.2-1.1,1.2-1.8,2.2-1.8H730c1.1,0,2,0.8,2.2,1.8
					l4.7,23c0,0.1,0,0.3,0,0.4V169h-4.6V72.4l-4.2-21.1h-19.4l-4.2,21.1L704.7,179.7L704.7,179.7z"/>
			</g>
			<g>
				<rect x="696" y="103.7" class="st0" width="45.1" height="4.6"/>
			</g>
			<g>
				<rect x="696" y="132.4" class="st0" width="45.1" height="4.6"/>
			</g>
			<g>
				<rect x="696" y="117.7" class="st0" width="45.1" height="4.6"/>
			</g>
			<g>
				<path class="st0" d="M728.3,48.6h-4.6V15.8L721,1.2h-5.1l-2.7,14.6v32.8h-4.6v-33c0-0.1,0-0.3,0-0.4l3.1-16.7
					c0.2-1.1,1.1-1.9,2.3-1.9h9c1.1,0,2.1,0.8,2.3,1.9l3.1,16.7c0,0.1,0,0.3,0,0.4L728.3,48.6L728.3,48.6z"/>
			</g>
			<g>
				<rect x="716.2" y="-29.7" class="st0" width="4.6" height="21.5"/>
			</g>
			<g>
				<rect x="713.6" y="-10.4" class="st0" width="9.9" height="4.6"/>
			</g>
			<g>
				<path class="st0" d="M718.5-26.8c-2.5,0-4.6-2.1-4.6-4.6s2.1-4.6,4.6-4.6s4.6,2.1,4.6,4.6S721-26.8,718.5-26.8z"/>
			</g>
			<g>
				<rect x="710.5" y="72.2" class="st0" width="4.6" height="91.9"/>
			</g>
			<g>
				<rect x="722.9" y="72.2" class="st0" width="4.6" height="91.9"/>
			</g>
		</g>
		<g>
			<g>
				<path class="st0" d="M784.5,179.7h-4.6V72.4l-4.2-21.1h-19.4l-4.2,21.1v96.7h-4.6V72.2c0-0.1,0-0.3,0-0.4l4.6-23.1
					c0.2-1.1,1.2-1.8,2.2-1.8h23.1c1.1,0,2,0.8,2.2,1.8l4.6,23.1c0,0.1,0,0.3,0,0.4L784.5,179.7L784.5,179.7z"/>
			</g>
			<g>
				<rect x="743.5" y="103.7" class="st0" width="45.1" height="4.6"/>
			</g>
			<g>
				<rect x="743.5" y="132.4" class="st0" width="45.1" height="4.6"/>
			</g>
			<g>
				<rect x="743.5" y="117.7" class="st0" width="45.1" height="4.6"/>
			</g>
			<g>
				<path class="st0" d="M775.9,48.6h-4.6V15.8l-2.7-14.6h-5.1l-2.7,14.6v32.8h-4.6v-33c0-0.1,0-0.3,0-0.4l3.1-16.7
					c0.2-1.1,1.1-1.9,2.3-1.9h9c1.1,0,2.1,0.8,2.3,1.9l3.1,16.7c0,0.1,0,0.3,0,0.4L775.9,48.6L775.9,48.6z"/>
			</g>
			<g>
				<rect x="763.8" y="-29.7" class="st0" width="4.6" height="21.5"/>
			</g>
			<g>
				<rect x="761.1" y="-10.4" class="st0" width="9.9" height="4.6"/>
			</g>
			<g>
				<path class="st0" d="M766.1-26.8c-2.5,0-4.6-2.1-4.6-4.6s2.1-4.6,4.6-4.6s4.6,2.1,4.6,4.6S768.6-26.8,766.1-26.8z"/>
			</g>
			<g>
				<rect x="758.1" y="72.2" class="st0" width="4.6" height="88.9"/>
			</g>
			<g>
				<rect x="770.5" y="72.2" class="st0" width="4.6" height="95"/>
			</g>
		</g>
		<g>
			<g>
				<path class="st0" d="M930.8,314h-32.3c-1.3,0-2.3-1-2.3-2.3V204.1c0-0.1,0-0.3,0-0.4l4.6-23.1c0.2-1.1,1.2-1.8,2.2-1.8h23.1
					c1.1,0,2,0.8,2.2,1.8l4.6,23.1c0,0.1,0,0.3,0,0.4v107.6C933.1,313,932.1,314,930.8,314z M900.8,309.4h27.7v-105l-4.2-21.1h-19.4
					l-4.2,21.1L900.8,309.4L900.8,309.4z"/>
			</g>
			<g>
				<rect x="892.1" y="235.7" class="st0" width="45.1" height="4.6"/>
			</g>
			<g>
				<rect x="892.1" y="264.4" class="st0" width="45.1" height="4.6"/>
			</g>
			<g>
				<rect x="892.1" y="249.7" class="st0" width="45.1" height="4.6"/>
			</g>
			<g>
				<path class="st0" d="M924.5,180.6h-4.6v-32.8l-2.7-14.6h-5.1l-2.7,14.6v32.8h-4.6v-33.1c0-0.1,0-0.3,0-0.4l3.1-16.7
					c0.2-1.1,1.1-1.9,2.3-1.9h9c1.1,0,2.1,0.8,2.3,1.9l3.1,16.7c0,0.1,0,0.3,0,0.4L924.5,180.6L924.5,180.6z"/>
			</g>
			<g>
				<rect x="912.4" y="102.3" class="st0" width="4.6" height="21.6"/>
			</g>
			<g>
				<rect x="909.7" y="121.6" class="st0" width="9.9" height="4.6"/>
			</g>
			<g>
				<path class="st0" d="M914.6,105.1c-2.5,0-4.6-2.1-4.6-4.6s2.1-4.6,4.6-4.6s4.6,2.1,4.6,4.6S917.2,105.1,914.6,105.1z"/>
			</g>
			<g>
				<rect x="906.6" y="204.1" class="st0" width="4.6" height="108.7"/>
			</g>
			<g>
				<rect x="919" y="204.1" class="st0" width="4.6" height="108.7"/>
			</g>
		</g>
		<g>
			<g>
				<path class="st0" d="M632.7,81.3h-4.6V48.4l-2.7-14.6h-5.1l-2.7,14.6v32.8H613v-33c0-0.1,0-0.3,0-0.4l3.1-16.7
					c0.2-1.1,1.1-1.9,2.3-1.9h9c1.1,0,2.1,0.8,2.3,1.9l3.1,16.7c0,0.1,0,0.3,0,0.4L632.7,81.3L632.7,81.3z"/>
			</g>
			<g>
				<rect x="620.6" y="3" class="st0" width="4.6" height="21.5"/>
			</g>
			<g>
				<rect x="617.9" y="22.2" class="st0" width="9.9" height="4.6"/>
			</g>
			<g>
				<path class="st0" d="M622.9,5.8c-2.5,0-4.6-2.1-4.6-4.6s2.1-4.6,4.6-4.6s4.6,2.1,4.6,4.6C627.4,3.7,625.4,5.8,622.9,5.8z"/>
			</g>
		</g>
		<g>
			<rect x="318.8" y="304.7" class="st0" width="4.6" height="459.7"/>
		</g>
		<g>
			<rect x="351.1" y="304.7" class="st0" width="4.6" height="459.7"/>
		</g>
		<g>
			<g>
				<path class="st0" d="M353.4,314h-32.3c-1.3,0-2.3-1-2.3-2.3V204.1c0-0.1,0-0.3,0-0.4l4.6-23.1c0.2-1.1,1.2-1.8,2.2-1.8h23.1
					c1.1,0,2,0.8,2.2,1.8l4.6,23.1c0,0.1,0,0.3,0,0.4v107.6C355.7,313,354.6,314,353.4,314z M323.4,309.4h27.7v-105l-4.2-21.1h-19.4
					l-4.2,21.1L323.4,309.4L323.4,309.4z"/>
			</g>
			<g>
				<rect x="314.7" y="235.7" class="st0" width="45.1" height="4.6"/>
			</g>
			<g>
				<rect x="314.7" y="264.4" class="st0" width="45.1" height="4.6"/>
			</g>
			<g>
				<rect x="314.7" y="249.7" class="st0" width="45.1" height="4.6"/>
			</g>
			<g>
				<path class="st0" d="M347.1,180.6h-4.6v-32.8l-2.7-14.6h-5.1l-2.7,14.6v32.8h-4.6v-33.1c0-0.1,0-0.3,0-0.4l3.1-16.7
					c0.2-1.1,1.1-1.9,2.3-1.9h9c1.1,0,2.1,0.8,2.3,1.9l3.1,16.7c0,0.1,0,0.3,0,0.4L347.1,180.6L347.1,180.6z"/>
			</g>
			<g>
				<rect x="334.9" y="102.3" class="st0" width="4.6" height="21.6"/>
			</g>
			<g>
				<rect x="332.3" y="121.6" class="st0" width="9.9" height="4.6"/>
			</g>
			<g>
				<path class="st0" d="M337.2,105.1c-2.5,0-4.6-2.1-4.6-4.6s2.1-4.6,4.6-4.6s4.6,2.1,4.6,4.6S339.8,105.1,337.2,105.1z"/>
			</g>
			<g>
				<rect x="329.2" y="204.1" class="st0" width="4.6" height="108.7"/>
			</g>
			<g>
				<rect x="341.6" y="204.1" class="st0" width="4.6" height="108.7"/>
			</g>
		</g>
		<g>
			<g>
				<path class="st0" d="M202,478.6h-32.3c-1.3,0-2.3-1-2.3-2.3V368.8c0-0.1,0-0.3,0-0.4l4.6-23.1c0.2-1.1,1.2-1.8,2.2-1.8h23.1
					c1.1,0,2,0.8,2.2,1.8l4.6,23.1c0,0.1,0,0.3,0,0.4v107.6C204.3,477.6,203.3,478.6,202,478.6z M172,474h27.7V369l-4.2-21.1h-19.4
					l-4.2,21.1L172,474L172,474z"/>
			</g>
			<g>
				<rect x="163.3" y="400.3" class="st0" width="45.1" height="4.6"/>
			</g>
			<g>
				<rect x="163.3" y="429" class="st0" width="45.1" height="4.6"/>
			</g>
			<g>
				<rect x="163.3" y="414.3" class="st0" width="45.1" height="4.6"/>
			</g>
			<g>
				<path class="st0" d="M195.7,345.2h-4.6v-32.8l-2.7-14.6h-5.1l-2.7,14.6v32.8H176v-33.1c0-0.1,0-0.3,0-0.4l3.1-16.7
					c0.2-1.1,1.1-1.9,2.3-1.9h9c1.1,0,2.1,0.8,2.3,1.9l3.1,16.7c0,0.1,0,0.3,0,0.4L195.7,345.2L195.7,345.2z"/>
			</g>
			<g>
				<rect x="183.6" y="266.9" class="st0" width="4.6" height="21.5"/>
			</g>
			<g>
				<rect x="180.9" y="286.2" class="st0" width="9.9" height="4.6"/>
			</g>
			<g>
				<path class="st0" d="M185.9,269.8c-2.5,0-4.6-2.1-4.6-4.6s2.1-4.6,4.6-4.6s4.6,2.1,4.6,4.6S188.4,269.8,185.9,269.8z"/>
			</g>
			<g>
				<rect x="177.8" y="368.8" class="st0" width="4.6" height="108.7"/>
			</g>
			<g>
				<rect x="190.2" y="368.8" class="st0" width="4.6" height="108.7"/>
			</g>
		</g>
		<g>
			<g>
				<path class="st0" d="M153.7,478.6h-32.3c-1.3,0-2.3-1-2.3-2.3V368.8c0-0.1,0-0.3,0-0.4l4.6-23.1c0.2-1.1,1.2-1.8,2.2-1.8H149
					c1.1,0,2,0.8,2.2,1.8l4.6,23.1c0,0.1,0,0.3,0,0.4v107.6C156,477.6,155,478.6,153.7,478.6z M123.7,474h27.7V369l-4.2-21.1h-19.3
					l-4.2,21.1V474L123.7,474z"/>
			</g>
			<g>
				<rect x="115" y="400.3" class="st0" width="45.1" height="4.6"/>
			</g>
			<g>
				<rect x="115" y="429" class="st0" width="45.1" height="4.6"/>
			</g>
			<g>
				<rect x="115" y="414.3" class="st0" width="45.1" height="4.6"/>
			</g>
			<g>
				<path class="st0" d="M147.4,345.2h-4.6v-32.8l-2.7-14.6H135l-2.7,14.6v32.8h-4.6v-33.1c0-0.1,0-0.3,0-0.4l3.1-16.7
					c0.2-1.1,1.1-1.9,2.3-1.9h9c1.1,0,2.1,0.8,2.3,1.9l3.1,16.7c0,0.1,0,0.3,0,0.4L147.4,345.2L147.4,345.2z"/>
			</g>
			<g>
				<rect x="135.3" y="266.9" class="st0" width="4.6" height="21.5"/>
			</g>
			<g>
				<rect x="132.6" y="286.2" class="st0" width="9.9" height="4.6"/>
			</g>
			<g>
				<path class="st0" d="M137.6,269.8c-2.5,0-4.6-2.1-4.6-4.6s2.1-4.6,4.6-4.6s4.6,2.1,4.6,4.6S140.1,269.8,137.6,269.8z"/>
			</g>
			<g>
				<rect x="129.5" y="368.8" class="st0" width="4.6" height="108.7"/>
			</g>
			<g>
				<rect x="141.9" y="368.8" class="st0" width="4.6" height="108.7"/>
			</g>
		</g>
		<g>
			<rect x="1036.8" y="474.9" class="st0" width="90.8" height="4.6"/>
		</g>
		<g>
			<rect x="1036.8" y="503.9" class="st0" width="90.8" height="4.6"/>
		</g>
		<g>
			<rect x="1044.2" y="476.3" class="st0" width="4.6" height="350.3"/>
		</g>
		<g>
			<rect x="1067.6" y="476.3" class="st0" width="4.6" height="288.1"/>
		</g>
		<g>
			<rect x="1091" y="476.3" class="st0" width="4.6" height="288.1"/>
		</g>
		<g>
			<rect x="1114.4" y="476.3" class="st0" width="4.6" height="350.7"/>
		</g>
		<g>
			<g>
				<path class="st0" d="M1122.5,478.6h-32.3c-1.3,0-2.3-1-2.3-2.3V368.8c0-0.1,0-0.3,0-0.4l4.6-23.1c0.2-1.1,1.2-1.8,2.2-1.8h23.1
					c1.1,0,2,0.8,2.2,1.8l4.6,23.1c0,0.1,0,0.3,0,0.4v107.6C1124.8,477.6,1123.8,478.6,1122.5,478.6z M1092.5,474h27.7V369
					l-4.2-21.1h-19.4l-4.2,21.1L1092.5,474L1092.5,474z"/>
			</g>
			<g>
				<rect x="1083.8" y="400.3" class="st0" width="45.1" height="4.6"/>
			</g>
			<g>
				<rect x="1083.8" y="429" class="st0" width="45.1" height="4.6"/>
			</g>
			<g>
				<rect x="1083.8" y="414.3" class="st0" width="45.1" height="4.6"/>
			</g>
			<g>
				<path class="st0" d="M1116.2,345.2h-4.6v-32.8l-2.7-14.6h-5.1l-2.7,14.6v32.8h-4.6v-33.1c0-0.1,0-0.3,0-0.4l3.1-16.7
					c0.2-1.1,1.1-1.9,2.3-1.9h9c1.1,0,2.1,0.8,2.3,1.9l3.1,16.7c0,0.1,0,0.3,0,0.4L1116.2,345.2L1116.2,345.2z"/>
			</g>
			<g>
				<rect x="1104.1" y="266.9" class="st0" width="4.6" height="21.5"/>
			</g>
			<g>
				<rect x="1101.4" y="286.2" class="st0" width="9.9" height="4.6"/>
			</g>
			<g>
				<path class="st0" d="M1106.4,269.8c-2.5,0-4.6-2.1-4.6-4.6s2.1-4.6,4.6-4.6s4.6,2.1,4.6,4.6S1108.9,269.8,1106.4,269.8z"/>
			</g>
			<g>
				<rect x="1098.3" y="368.8" class="st0" width="4.6" height="108.7"/>
			</g>
			<g>
				<rect x="1110.7" y="368.8" class="st0" width="4.6" height="108.7"/>
			</g>
		</g>
		<g>
			<g>
				<path class="st0" d="M1074.2,478.6h-32.3c-1.3,0-2.3-1-2.3-2.3V368.8c0-0.1,0-0.3,0-0.4l4.6-23.1c0.2-1.1,1.2-1.8,2.2-1.8h23.1
					c1.1,0,2,0.8,2.2,1.8l4.6,23.1c0,0.1,0,0.3,0,0.4v107.6C1076.5,477.6,1075.5,478.6,1074.2,478.6z M1044.2,474h27.7V369
					l-4.2-21.1h-19.4l-4.2,21.1L1044.2,474L1044.2,474z"/>
			</g>
			<g>
				<rect x="1035.5" y="400.3" class="st0" width="45.1" height="4.6"/>
			</g>
			<g>
				<rect x="1035.5" y="429" class="st0" width="45.1" height="4.6"/>
			</g>
			<g>
				<rect x="1035.5" y="414.3" class="st0" width="45.1" height="4.6"/>
			</g>
			<g>
				<path class="st0" d="M1067.9,345.2h-4.6v-32.8l-2.7-14.6h-5.1l-2.7,14.6v32.8h-4.6v-33.1c0-0.1,0-0.3,0-0.4l3.1-16.7
					c0.2-1.1,1.1-1.9,2.3-1.9h9c1.1,0,2.1,0.8,2.3,1.9l3.1,16.7c0,0.1,0,0.3,0,0.4L1067.9,345.2L1067.9,345.2z"/>
			</g>
			<g>
				<rect x="1055.8" y="266.9" class="st0" width="4.6" height="21.5"/>
			</g>
			<g>
				<rect x="1053.1" y="286.2" class="st0" width="9.9" height="4.6"/>
			</g>
			<g>
				<path class="st0" d="M1058.1,269.8c-2.5,0-4.6-2.1-4.6-4.6s2.1-4.6,4.6-4.6s4.6,2.1,4.6,4.6S1060.6,269.8,1058.1,269.8z"/>
			</g>
			<g>
				<rect x="1050" y="368.8" class="st0" width="4.6" height="108.7"/>
			</g>
			<g>
				<rect x="1062.4" y="368.8" class="st0" width="4.6" height="108.7"/>
			</g>
		</g>
		<g>
			<rect x="605.3" y="311.7" class="st0" width="4.6" height="74.4"/>
		</g>
		<g>
			<rect x="620.6" y="311.7" class="st0" width="4.6" height="74.4"/>
		</g>
		<g>
			<rect x="635.8" y="311.7" class="st0" width="4.6" height="74.4"/>
		</g>
		<g>
			<path class="st0" d="M622.9,306.6c-9.7,0-17.5-7.9-17.5-17.5c0-9.6,7.9-17.5,17.5-17.5c9.7,0,17.5,7.9,17.5,17.5
				C640.4,298.7,632.5,306.6,622.9,306.6z M622.9,276c-7.2,0-13,5.8-13,13s5.8,13,13,13s13-5.8,13-13S630,276,622.9,276z"/>
		</g>
		<g>
			<path class="st0" d="M622.9,128.6c-7.5,0-13.6-6.1-13.6-13.6s6.1-13.6,13.6-13.6s13.6,6.1,13.6,13.6
				C636.5,122.5,630.4,128.6,622.9,128.6z M622.9,106c-5,0-9,4.1-9,9c0,5,4,9,9,9s9-4.1,9-9C631.9,110,627.8,106,622.9,106z"/>
		</g>
		<g>
			<rect x="119.8" y="824.7" class="st0" width="1011" height="4.6"/>
		</g>
		<g>
			<path class="st0" d="M587,829.3h-33.9v-26.4H587V829.3z M557.7,824.7h24.7v-17.3h-24.7V824.7z"/>
		</g>
		<g>
			<path class="st0" d="M693.4,829.3h-33.9v-26.4h33.9V829.3z M664.1,824.7h24.7v-17.3h-24.7V824.7z"/>
		</g>
	</g>
</g>
</svg>
