<?xml version="1.0" encoding="utf-8"?>
<!-- Generator: Adobe Illustrator 19.1.0, SVG Export Plug-In . SVG Version: 6.00 Build 0)  -->
<svg version="1.1" id="Layer_1" xmlns="http://www.w3.org/2000/svg" xmlns:xlink="http://www.w3.org/1999/xlink" x="0px" y="0px"
	 viewBox="-47 -60.4 515.1 913.4" style="enable-background:new -47 -60.4 515.1 913.4;" xml:space="preserve">
<style type="text/css">
	.st0{fill:#EFEFEF;}
	.st1{fill:#EFEFEF;stroke:#000000;stroke-width:4.9608;stroke-miterlimit:10;}
</style>
<g id="XMLID_52_">
	<path id="XMLID_97_" class="st0" d="M352.4,43.8h-5v-96.3c0-1.6-1.3-3-3-3s-3,1.3-3,3v96.3h-5v-96.3c0-4.4,3.6-7.9,7.9-7.9
		s7.9,3.6,7.9,7.9L352.4,43.8L352.4,43.8z"/>
</g>
<g id="XMLID_51_">
	<path id="XMLID_96_" class="st0" d="M336.1,102.4h-5V53.6c0-7.3,5.9-13.2,13.2-13.2s13.2,5.9,13.2,13.2V102h-5V53.6
		c0-4.6-3.7-8.3-8.3-8.3s-8.3,3.7-8.3,8.3v48.8H336.1z"/>
</g>
<g id="XMLID_50_">
	<path id="XMLID_99_" class="st1" d="M344.3,157.3"/>
</g>
<g id="XMLID_49_">
	<path id="XMLID_95_" class="st0" d="M325.3,152.9h-5v-31.3c0-13.2,10.8-24,24-24s24,10.8,24,24v30.8h-5v-30.8c0-10.5-8.5-19-19-19
		s-19,8.5-19,19V152.9z"/>
</g>
<g id="XMLID_48_">
	<path id="XMLID_98_" class="st1" d="M344.3,230.7"/>
</g>
<g id="XMLID_47_">
	<path id="XMLID_94_" class="st0" d="M303.9,206.5c-0.1-1.2-0.2-2.4-0.2-3.7v-17.9c0-22.4,18.2-40.6,40.6-40.6s40.6,18.2,40.6,40.6
		v17.9c0,1.2-0.1,2.4-0.2,3.5l-4.9-0.4c0.1-1,0.1-2.1,0.1-3.1v-17.9c0-19.6-16-35.6-35.6-35.6s-35.6,16-35.6,35.6v17.9
		c0,1.1,0,2.1,0.1,3.2L303.9,206.5z"/>
</g>
<g id="XMLID_46_">
	<path id="XMLID_93_" class="st0" d="M406,264.9l-4.9-0.9c0.6-3.3,0.9-6.7,0.9-10c0-31.8-25.9-57.6-57.6-57.6s-57.6,25.9-57.6,57.6
		c0,3.3,0.3,6.5,0.8,9.7l-4.9,0.8c-0.6-3.5-0.9-7-0.9-10.6c0-34.5,28.1-62.6,62.6-62.6s62.6,28.1,62.6,62.6
		C406.9,257.6,406.6,261.3,406,264.9z"/>
</g>
<g id="XMLID_45_">
	<path id="XMLID_92_" class="st0" d="M255,338.7c-0.3-3.1-0.5-6.2-0.5-9.4c0-49.6,40.3-89.9,89.9-89.9s89.9,40.3,89.9,89.9
		c0,3.1-0.2,6.1-0.5,9.2l-4.9-0.5c0.3-2.9,0.4-5.8,0.4-8.7c0-46.8-38.1-84.9-84.9-84.9s-84.9,38.1-84.9,84.9c0,3,0.2,5.9,0.5,8.9
		L255,338.7z"/>
</g>
<g id="XMLID_44_">
	<polygon id="XMLID_91_" class="st0" points="224.3,704.7 175.7,704.7 175.7,613.8 270.5,613.8 270.5,618.8 180.6,618.8 
		180.6,699.7 224.3,699.7 	"/>
</g>
<g id="XMLID_43_">
	<polygon id="XMLID_90_" class="st0" points="513,704.7 462,704.7 462,699.7 508,699.7 508,618.8 418.9,618.8 418.9,613.8 
		513,613.8 	"/>
</g>
<g id="XMLID_42_">
	<polygon id="XMLID_89_" class="st0" points="257.6,618.8 206.7,618.8 206.7,402.8 233.8,402.8 233.8,407.7 211.6,407.7 
		211.6,613.9 257.6,613.9 	"/>
</g>
<g id="XMLID_41_">
	<polygon id="XMLID_88_" class="st0" points="482,618.8 432.2,618.8 432.2,613.9 477,613.9 477,407.7 454.8,407.7 454.8,402.8 
		482,402.8 	"/>
</g>
<g id="XMLID_40_">
	<path id="XMLID_87_" class="st0" d="M456.1,618.8h-37.2v-5h32.2V405.3c0-58.9-47.9-106.8-106.8-106.8s-106.8,47.9-106.8,106.8
		v208.6h31.4v5h-36.3V405.2c0-61.6,50.1-111.7,111.7-111.7s111.8,50.1,111.8,111.7V618.8L456.1,618.8z"/>
</g>
<g id="XMLID_39_">
	<polygon id="XMLID_86_" class="st0" points="414.2,323.7 402.4,289.9 375.1,300.1 344.3,269.4 313.6,299.1 286.3,289.8 
		274.5,323.7 269.8,322 283.3,283.6 312.4,293.4 344.4,262.4 376.3,294.3 405.4,283.5 418.9,322 	"/>
</g>
<g id="XMLID_38_">
	<polygon id="XMLID_85_" class="st0" points="388.6,256.3 381.3,235.3 364,241.8 344.3,222.2 324.7,241.1 307.4,235.3 300.1,256.3 
		295.4,254.6 304.4,229 323.5,235.4 344.4,215.2 365.2,236 384.3,228.9 393.3,254.6 	"/>
</g>
<g id="XMLID_37_">
	<polygon id="XMLID_84_" class="st0" points="368.2,201 344.3,177.1 320.5,201 317,197.5 344.3,170.1 371.7,197.5 	"/>
</g>
<g id="XMLID_36_">
	<path id="XMLID_1_" class="st1" d="M344.5,366.1"/>
</g>
<g id="XMLID_35_">
	<path id="XMLID_81_" class="st0" d="M584.1,853H105.3V699.7h130.2v-50.1l34.4-34.4V438.5c0-41.2,33.6-74.8,74.8-74.8
		s74.8,33.6,74.8,74.8v176.8l34.4,34.4v50.1h130.2V853z M110.3,848h468.8V704.7H448.9v-53l-34.4-34.4V438.5
		c0-38.5-31.3-69.8-69.8-69.8s-69.8,31.3-69.8,69.8v178.9l-34.4,34.4v53H110.3V848z"/>
</g>
<g id="XMLID_34_">
	<path id="XMLID_80_" class="st0" d="M368.3,850.5h-5V441.3c0-10.5-8.5-19-19-19s-19,8.5-19,19v409.3h-5V441.3c0-13.2,10.8-24,24-24
		s24,10.8,24,24V850.5z"/>
</g>
<g id="XMLID_26_">
	<g id="XMLID_33_">
		<rect id="XMLID_79_" x="272.4" y="453.1" class="st0" width="33.8" height="5"/>
	</g>
	<g id="XMLID_32_">
		<rect id="XMLID_78_" x="272.4" y="476.6" class="st0" width="33.8" height="5"/>
	</g>
	<g id="XMLID_31_">
		<rect id="XMLID_77_" x="272.4" y="500.1" class="st0" width="33.8" height="5"/>
	</g>
	<g id="XMLID_30_">
		<rect id="XMLID_76_" x="272.4" y="523.5" class="st0" width="33.8" height="5"/>
	</g>
	<g id="XMLID_29_">
		<rect id="XMLID_75_" x="272.4" y="547" class="st0" width="33.8" height="5"/>
	</g>
	<g id="XMLID_28_">
		<rect id="XMLID_74_" x="272.4" y="570.5" class="st0" width="33.8" height="5"/>
	</g>
	<g id="XMLID_27_">
		<rect id="XMLID_73_" x="272.4" y="593.9" class="st0" width="33.8" height="5"/>
	</g>
</g>
<g id="XMLID_18_">
	<g id="XMLID_25_">
		<rect id="XMLID_72_" x="382.4" y="453.1" class="st0" width="33.8" height="5"/>
	</g>
	<g id="XMLID_24_">
		<rect id="XMLID_71_" x="382.4" y="476.6" class="st0" width="33.8" height="5"/>
	</g>
	<g id="XMLID_23_">
		<rect id="XMLID_70_" x="382.4" y="500.1" class="st0" width="33.8" height="5"/>
	</g>
	<g id="XMLID_22_">
		<rect id="XMLID_69_" x="382.4" y="523.5" class="st0" width="33.8" height="5"/>
	</g>
	<g id="XMLID_21_">
		<rect id="XMLID_68_" x="382.4" y="547" class="st0" width="33.8" height="5"/>
	</g>
	<g id="XMLID_20_">
		<rect id="XMLID_67_" x="382.4" y="570.5" class="st0" width="33.8" height="5"/>
	</g>
	<g id="XMLID_19_">
		<rect id="XMLID_66_" x="382.4" y="593.9" class="st0" width="33.8" height="5"/>
	</g>
</g>
<g id="XMLID_17_">
	<rect id="XMLID_65_" x="107.8" y="729.4" class="st0" width="134.2" height="5"/>
</g>
<g id="XMLID_16_">
	<rect id="XMLID_64_" x="107.8" y="759.1" class="st0" width="134.2" height="5"/>
</g>
<g id="XMLID_15_">
	<rect id="XMLID_63_" x="107.8" y="788.7" class="st0" width="134.2" height="5"/>
</g>
<g id="XMLID_14_">
	<rect id="XMLID_62_" x="107.8" y="818.4" class="st0" width="134.2" height="5"/>
</g>
<g id="XMLID_13_">
	<rect id="XMLID_61_" x="447.5" y="729.4" class="st0" width="134.2" height="5"/>
</g>
<g id="XMLID_12_">
	<rect id="XMLID_60_" x="447.5" y="759.1" class="st0" width="134.2" height="5"/>
</g>
<g id="XMLID_11_">
	<rect id="XMLID_59_" x="447.5" y="788.7" class="st0" width="134.2" height="5"/>
</g>
<g id="XMLID_10_">
	<rect id="XMLID_58_" x="447.5" y="818.4" class="st0" width="134.2" height="5"/>
</g>
<g id="XMLID_9_">
	<path id="XMLID_57_" class="st0" d="M419.6,850.5h-5V677.4c0-3.6-3-6.6-6.6-6.6s-6.6,3-6.6,6.6v173.2h-5V677.4
		c0-6.4,5.2-11.6,11.6-11.6s11.6,5.2,11.6,11.6V850.5L419.6,850.5z"/>
</g>
<g id="XMLID_8_">
	<path id="XMLID_56_" class="st0" d="M292.3,850.5h-5V677.4c0-3.6-3-6.6-6.6-6.6s-6.6,3-6.6,6.6v173.2h-5V677.4
		c0-6.4,5.2-11.6,11.6-11.6s11.6,5.2,11.6,11.6V850.5L292.3,850.5z"/>
</g>
<g id="XMLID_7_">
	<polygon id="XMLID_55_" class="st0" points="270,448.5 253,392.6 279.4,392.7 272.1,355.6 305.9,368.3 316.3,320.4 344.3,360.2 
		372.4,320.4 382.7,368.3 416.5,355.7 410.1,392.6 435.6,392.6 419.4,448.4 414.7,447.1 429,397.5 404.2,397.5 410.1,363.3 
		379.1,375 369.9,332.5 344.3,368.8 318.8,332.5 309.6,375 278.7,363.4 285.4,397.7 259.7,397.6 274.8,447 	"/>
</g>
<g id="XMLID_6_">
	<path id="XMLID_54_" class="st0" d="M109.3,320.8c-22.2,0-40.3-18.1-40.3-40.3s18.1-40.3,40.3-40.3c0.8,0,1.5,0.1,2.3,0.1
		c1.2-29.6,25.7-53.2,55.5-53.2c18.2,0,35,8.8,45.4,23.7c4.7-2.2,9.6-3.3,14.6-3.3c19.4,0,35.3,15.8,35.3,35.3
		c0,2.9-0.4,5.8-1.2,8.7h20.6v5h-27.5l1.2-3.3c1.3-3.6,1.9-7,1.9-10.3c0-16.7-13.6-30.3-30.3-30.3c-4.9,0-9.7,1.3-14.3,3.8l-2,1.1
		l-1.2-1.9c-9.4-14.6-25.3-23.2-42.5-23.2c-27.9,0-50.6,22.7-50.6,50.6c0,0.2,0,0.3,0,0.4v2.8l-3.9-0.5c-1.2-0.2-2.2-0.3-3.3-0.3
		c-19.5,0-35.3,15.8-35.3,35.3S89.8,316,109.3,316l148.4-0.2v5L109.3,320.8z"/>
</g>
<g id="XMLID_5_">
	<path id="XMLID_53_" class="st0" d="M457.6,196.4c-8.7,0-16.9-3.2-23.3-8.9c-11.2,2.7-22.3,0.5-31.5-5.7c-5.5,5.6-13,8.8-20.9,8.8
		v-5c7.2,0,14-3.2,18.6-8.7l1.5-1.8l1.9,1.4c8.6,6.5,19.5,8.8,30.4,5.8l1.4-0.4l1,1c5.7,5.5,13.1,8.5,20.9,8.5
		c16.6,0,30.1-13.5,30.1-30.1s-13.5-30.1-30.1-30.1h-0.2c-0.1,0-0.3,0-0.4,0h-1.4l-0.7-1.2c-6.5-10.4-17.6-16.7-29.8-16.7
		c-14.7,0-27.9,9.3-32.9,23.1l-0.8,2.2l-2.3-0.7c-2.3-0.7-4.7-1.1-7.1-1.1c-5.3,0-10.3,1.7-14.5,4.8l-3-4c5.1-3.8,11.1-5.8,17.5-5.8
		c2.1,0,4.3,0.2,6.4,0.7c6.3-14.6,20.8-24.3,36.8-24.3c13.5,0,25.8,6.6,33.3,17.8c19,0.4,34.4,15.9,34.4,35
		C492.6,180.6,476.9,196.4,457.6,196.4z"/>
</g>
</svg>
