<?xml version="1.0" encoding="utf-8"?>
<!-- Generator: Adobe Illustrator 19.1.0, SVG Export Plug-In . SVG Version: 6.00 Build 0)  -->
<svg version="1.1" id="paris" xmlns="http://www.w3.org/2000/svg" xmlns:xlink="http://www.w3.org/1999/xlink" x="0px" y="0px"
	 viewBox="-72.7 -54 461.2 918.9" style="enable-background:new -72.7 -54 461.2 918.9;" xml:space="preserve">
<style type="text/css">
	.st0{fill:#EFEFEF;}
	.st1{fill:#EFEFEF;stroke:#000000;stroke-width:4.7858;stroke-linejoin:round;stroke-miterlimit:10;}
</style>
<g>
	<g>
		<path class="st0" d="M15.3,349.7c-21.4,0-38.9-17.4-38.9-38.9c0-21.4,17.4-38.9,38.9-38.9c0.8,0,1.5,0.1,2.2,0.1
			c1.2-28.5,24.8-51.3,53.6-51.3c17.5,0,33.8,8.5,43.8,22.8c4.6-2.1,9.3-3.2,14.1-3.2c18.8,0,34,15.3,34,34c0,2.7-0.4,5.6-1.1,8.4
			h8.7v4.8h-12c-0.8,0-1.5-0.4-2-1c-0.4-0.6-0.6-1.5-0.3-2.2c1.3-3.4,1.9-6.7,1.9-10c0-16.1-13.1-29.2-29.2-29.2
			c-4.7,0-9.3,1.2-13.8,3.6c-1.1,0.6-2.5,0.2-3.1-0.8c-9.1-14-24.4-22.4-41-22.4c-26.9,0-48.8,21.9-48.8,48.8c0,0.2,0,0.3,0,0.4
			c0,0.7-0.3,1.4-0.8,1.8c-0.5,0.5-1.2,0.7-1.9,0.6l-1-0.1c-1.1-0.2-2.2-0.3-3.2-0.3c-18.8,0-34.1,15.3-34.1,34.1
			c0,18.8,15.3,34.1,34.1,34.1l147.9-0.2v4.8L15.3,349.7z"/>
	</g>
	<g>
		<path class="st0" d="M313,229.6c-8.4,0-16.3-3-22.5-8.6c-10.8,2.6-21.5,0.4-30.3-5.5c-5.3,5.4-12.5,8.5-20.2,8.5
			c-0.2,0-9.1,0.5-15.2-5.5l3.3-3.4c4.6,4.5,11.7,4.1,11.8,4.1c7.1,0,13.7-3.1,18.1-8.4c0.8-1,2.3-1.1,3.3-0.4
			c8.3,6.3,18.8,8.5,29.3,5.6c0.8-0.2,1.7,0,2.3,0.6c5.5,5.3,12.6,8.2,20.2,8.2c16,0,29-13,29-29s-13-29-29-29h-0.2
			c-0.1,0-0.3,0-0.4,0c-0.8,0-1.6-0.4-2.1-1.1c-6.2-10.1-17-16.1-28.8-16.1c-14.2,0-26.9,9-31.8,22.3c-0.4,1.2-1.7,1.8-3,1.5
			c-2.2-0.7-4.5-1-6.9-1c-5.1,0-10,1.6-14,4.7l-2.9-3.8c4.9-3.7,10.7-5.6,16.9-5.6c2.1,0,4.1,0.2,6.1,0.7c6-14.1,20-23.4,35.5-23.4
			c13,0,24.9,6.4,32.1,17.2c18.3,0.4,33.2,15.4,33.2,33.8C346.8,214.5,331.7,229.6,313,229.6z"/>
	</g>
	<g>
		<path class="st0" d="M100.3,599.5l-4.5-1.7c58.3-150.2,87.8-341.4,87.8-568h4.8C188.5,257,158.8,448.7,100.3,599.5z"/>
	</g>
	<g>
		<path class="st0" d="M305.3,599.5c-58.8-151.6-88.6-343.3-88.6-569.8h4.8c0,225.9,29.7,417,88.2,568L305.3,599.5z"/>
	</g>
	<g>
		<rect x="136.5" y="444.7" class="st0" width="135.8" height="4.8"/>
	</g>
	<g>
		<rect x="136.5" y="478.7" class="st0" width="132.9" height="4.8"/>
	</g>
	<g>
		<rect x="175.6" y="515.7" class="st0" width="54.7" height="4.8"/>
	</g>
	<g>
		<rect x="179" y="493.9" class="st0" width="47.9" height="4.8"/>
	</g>
	<g>
		<rect x="132.9" y="464.8" class="st0" width="143" height="4.8"/>
	</g>
	<g>
		<rect x="128.7" y="507.7" class="st0" width="47" height="4.8"/>
	</g>
	<g>
		<rect x="117.3" y="544.4" class="st0" width="51.2" height="4.8"/>
	</g>
	<g>
		<rect x="103.9" y="581.5" class="st0" width="55.9" height="4.8"/>
	</g>
	<g>
		<rect x="232" y="507.7" class="st0" width="44.8" height="4.8"/>
	</g>
	<g>
		<rect x="238.7" y="544.4" class="st0" width="50" height="4.8"/>
	</g>
	<g>
		<rect x="247.1" y="581.5" class="st0" width="54.4" height="4.8"/>
	</g>
	<g>
		<rect x="178.4" y="27.3" class="st0" width="49.1" height="4.8"/>
	</g>
	<g>
		<rect x="185.1" y="-1" class="st0" width="37.2" height="4.8"/>
	</g>
	<g>
		<rect x="201.4" y="-54" class="st0" width="4.8" height="72"/>
	</g>
	<g>
		<rect x="178.4" y="51.5" class="st0" width="49.1" height="4.8"/>
	</g>
	<g>
		<rect x="185.8" y="65.4" class="st0" width="33.6" height="4.8"/>
	</g>
	<g>
		<rect x="185.8" y="80.5" class="st0" width="33.6" height="4.8"/>
	</g>
	<g>
		<rect x="185.8" y="95.6" class="st0" width="33.6" height="4.8"/>
	</g>
	<g>
		<rect x="185.8" y="110.6" class="st0" width="33.6" height="4.8"/>
	</g>
	<g>
		<rect x="185.8" y="125.7" class="st0" width="33.6" height="4.8"/>
	</g>
	<g>
		<rect x="185.8" y="140.8" class="st0" width="33.6" height="4.8"/>
	</g>
	<g>
		<rect x="182.9" y="155.9" class="st0" width="39.3" height="4.8"/>
	</g>
	<g>
		<rect x="182.9" y="171" class="st0" width="39.3" height="4.8"/>
	</g>
	<g>
		<rect x="181.1" y="186.1" class="st0" width="42.9" height="4.8"/>
	</g>
	<g>
		<rect x="181.1" y="201.2" class="st0" width="42.9" height="4.8"/>
	</g>
	<g>
		<rect x="177.8" y="225.9" class="st0" width="49.6" height="4.8"/>
	</g>
	<g>
		<rect x="175.2" y="252.6" class="st0" width="54.7" height="4.8"/>
	</g>
	<g>
		<rect x="172.4" y="278.6" class="st0" width="60.4" height="4.8"/>
	</g>
	<g>
		<rect x="169.3" y="306.6" class="st0" width="66.9" height="4.8"/>
	</g>
	<g>
		<rect x="164.9" y="336.3" class="st0" width="75.9" height="4.8"/>
	</g>
	<g>
		<rect x="159.8" y="365.3" class="st0" width="85.3" height="4.8"/>
	</g>
	<g>
		<rect x="154.6" y="396.3" class="st0" width="95.2" height="4.8"/>
	</g>
	<g>
		<rect x="63.9" y="596.7" class="st0" width="282.6" height="4.8"/>
	</g>
	<g>
		<rect x="63.9" y="623" class="st0" width="282.6" height="4.8"/>
	</g>
	<g>
		<rect x="63.9" y="645.6" class="st0" width="285.8" height="4.8"/>
	</g>
	<g>
		<rect x="52.4" y="672.3" class="st0" width="308.8" height="4.8"/>
	</g>
	<g>
		<rect x="44.3" y="684.7" class="st0" width="65.1" height="4.8"/>
	</g>
	<g>
		<rect x="27.3" y="709.4" class="st0" width="65.1" height="4.8"/>
	</g>
	<g>
		<rect x="319.7" y="709.4" class="st0" width="65.1" height="4.8"/>
	</g>
	<g>
		<rect x="11.8" y="732.5" class="st0" width="65.1" height="4.8"/>
	</g>
	<g>
		<rect x="336.6" y="732.5" class="st0" width="62.7" height="4.8"/>
	</g>
	<g>
		<rect x="347.9" y="754.1" class="st0" width="66.8" height="4.8"/>
	</g>
	<g>
		<rect x="361" y="772.6" class="st0" width="65.3" height="4.8"/>
	</g>
	<g>
		<rect x="375" y="792.3" class="st0" width="64" height="4.8"/>
	</g>
	<g>

			<rect x="417.7" y="780.8" transform="matrix(1.299998e-03 1 -1 1.299998e-03 1233.1031 392.3673)" class="st0" width="4.8" height="65.4"/>
	</g>
	<g>
		<rect x="-2" y="754.1" class="st0" width="65.1" height="4.8"/>
	</g>
	<g>
		<rect x="-14.8" y="774" class="st0" width="65.1" height="4.8"/>
	</g>
	<g>
		<rect x="-27.4" y="793.1" class="st0" width="65.1" height="4.8"/>
	</g>
	<g>
		<rect x="-39.8" y="811.6" class="st0" width="65.1" height="4.8"/>
	</g>
	<g>
		<rect x="-56.6" y="836.9" class="st0" width="65.1" height="4.8"/>
	</g>
	<g>
		<rect x="404.8" y="836.9" class="st0" width="65.1" height="4.8"/>
	</g>
	<g>
		<rect x="303" y="684.7" class="st0" width="66.3" height="4.8"/>
	</g>
	<g>
		<path class="st0" d="M-71.6,864.9c-0.5,0-0.9-0.1-1.3-0.4c-1.1-0.7-1.4-2.2-0.7-3.3L83,624.1c0.7-1.1,2.2-1.4,3.3-0.7
			c1.1,0.7,1.4,2.2,0.7,3.3L-69.6,863.8C-70.1,864.5-70.8,864.9-71.6,864.9z"/>
	</g>
	<g>
		<path class="st0" d="M485.2,864.9c-0.8,0-1.5-0.4-2-1.1L326.6,626.7c-0.7-1.1-0.4-2.6,0.7-3.3s2.6-0.4,3.3,0.7l156.6,237.1
			c0.7,1.1,0.4,2.6-0.7,3.3C486.1,864.7,485.7,864.9,485.2,864.9z"/>
	</g>
	<g>
		<path class="st0" d="M90.6,719.9l-4-2.7c17.9-26.8,66.1-44.9,119.9-44.9c51.8,0,97.8,16.5,117.3,42l-3.8,2.9
			c-18.6-24.4-63.2-40.2-113.5-40.2C154.2,677.1,107.6,694.3,90.6,719.9z"/>
	</g>
	<g>

			<rect x="256.1" y="634.3" transform="matrix(0.5511 0.8344 -0.8344 0.5511 652.3166 60.745)" class="st0" width="27.1" height="4.8"/>
	</g>
	<g>
		<path class="st0" d="M-6.5,864.9c-0.5,0-0.9-0.1-1.3-0.4c-1.1-0.7-1.4-2.2-0.7-3.3l123.5-187c0.7-1.1,2.2-1.4,3.3-0.7
			c1.1,0.7,1.4,2.2,0.7,3.3l-46,69.7c47.2-48.3,95-55.6,133.5-55.6c55.9,0,98.1,26.5,123.7,48.6c4.3,3.7,8.3,7.5,12,11.1l-48.8-73.8
			c-0.7-1.1-0.4-2.6,0.7-3.3s2.6-0.4,3.3,0.7l71.4,108c1.7,2.4,2.8,4.2,3.4,5.1l48.2,73c0.7,1.1,0.4,2.6-0.7,3.3s-2.6,0.4-3.3-0.7
			l0,0l-47.8-72.2c0,0-0.2-0.4-0.6-1l-2.5-3.8c-5.6-8.2-18.6-25.6-38.5-42.9c-24.9-21.6-66-47.4-120.4-47.4
			c-31.9,0-57.8,5.6-81.8,17.7c-30.2,15.3-56.9,40.9-81.6,78.2l-47.7,72.3C-4.9,864.5-5.7,864.9-6.5,864.9z"/>
	</g>
	<g>

			<rect x="140.2" y="623.1" transform="matrix(0.8344 0.5512 -0.5512 0.8344 374.5277 26.8512)" class="st0" width="4.8" height="27.1"/>
	</g>
	<g>
		<rect x="78.4" y="648" class="st0" width="4.8" height="26.8"/>
	</g>
	<g>
		<rect x="63" y="655.1" class="st0" width="4.8" height="19.6"/>
	</g>
	<g>
		<rect x="93.8" y="648" class="st0" width="4.8" height="26.8"/>
	</g>
	<g>
		<rect x="109.2" y="648" class="st0" width="4.8" height="26.8"/>
	</g>
	<g>
		<rect x="124.7" y="648" class="st0" width="4.8" height="26.8"/>
	</g>
	<g>
		<rect x="140.1" y="648" class="st0" width="4.8" height="26.8"/>
	</g>
	<g>
		<rect x="67.6" y="600.2" class="st0" width="4.8" height="25.2"/>
	</g>
	<g>
		<rect x="82.7" y="600.2" class="st0" width="4.8" height="25.2"/>
	</g>
	<g>
		<rect x="97.7" y="600.2" class="st0" width="4.8" height="25.2"/>
	</g>
	<g>
		<rect x="112.8" y="600.2" class="st0" width="4.8" height="25.2"/>
	</g>
	<g>
		<rect x="127.9" y="600.2" class="st0" width="4.8" height="25.2"/>
	</g>
	<g>
		<rect x="142.9" y="600.2" class="st0" width="4.8" height="25.2"/>
	</g>
	<g>
		<rect x="158" y="600.2" class="st0" width="4.8" height="25.2"/>
	</g>
	<g>
		<rect x="173.1" y="600.2" class="st0" width="4.8" height="25.2"/>
	</g>
	<g>
		<rect x="188.1" y="600.2" class="st0" width="4.8" height="25.2"/>
	</g>
	<g>
		<rect x="203.2" y="600.2" class="st0" width="4.8" height="25.2"/>
	</g>
	<g>
		<rect x="218.3" y="600.2" class="st0" width="4.8" height="25.2"/>
	</g>
	<g>
		<rect x="233.3" y="600.2" class="st0" width="4.8" height="25.2"/>
	</g>
	<g>
		<rect x="248.4" y="598.6" class="st0" width="4.8" height="26.8"/>
	</g>
	<g>
		<rect x="263.5" y="600.2" class="st0" width="4.8" height="25.2"/>
	</g>
	<g>
		<rect x="278.5" y="600.2" class="st0" width="4.8" height="25.2"/>
	</g>
	<g>
		<rect x="293.6" y="600.2" class="st0" width="4.8" height="25.2"/>
	</g>
	<g>
		<rect x="308.7" y="600.2" class="st0" width="4.8" height="25.2"/>
	</g>
	<g>
		<rect x="323.7" y="600.2" class="st0" width="4.8" height="25.2"/>
	</g>
	<g>
		<rect x="338.8" y="600.2" class="st0" width="4.8" height="25.2"/>
	</g>
	<g>
		<rect x="155.5" y="648" class="st0" width="4.8" height="26.8"/>
	</g>
	<g>
		<rect x="171" y="648" class="st0" width="4.8" height="26.8"/>
	</g>
	<g>
		<rect x="186.4" y="648" class="st0" width="4.8" height="26.8"/>
	</g>
	<g>
		<rect x="201.8" y="648" class="st0" width="4.8" height="26.8"/>
	</g>
	<g>
		<rect x="217.3" y="648" class="st0" width="4.8" height="26.8"/>
	</g>
	<g>
		<rect x="232.7" y="648" class="st0" width="4.8" height="26.8"/>
	</g>
	<g>
		<rect x="248.1" y="648" class="st0" width="4.8" height="26.8"/>
	</g>
	<g>
		<rect x="263.6" y="648" class="st0" width="4.8" height="26.8"/>
	</g>
	<g>
		<rect x="279" y="648" class="st0" width="4.8" height="26.8"/>
	</g>
	<g>
		<rect x="294.4" y="648" class="st0" width="4.8" height="26.8"/>
	</g>
	<g>
		<rect x="309.9" y="648" class="st0" width="4.8" height="26.8"/>
	</g>
	<g>
		<rect x="325.3" y="648" class="st0" width="4.8" height="26.8"/>
	</g>
	<g>
		<rect x="340.7" y="648" class="st0" width="4.8" height="26.8"/>
	</g>
	<g>
		<path class="st0" d="M159.4,599.7l-4.6-1.2l1-3.9c13.6-50.6,41.9-155.9,44.5-540.7h4.8c-2.6,385.5-31.1,491.2-44.7,541.9
			L159.4,599.7z"/>
	</g>
	<g>
		<path class="st0" d="M248.5,599.2c-0.6-2.3-1.3-4.7-2-7.3c-14.3-52.3-44-161.2-46.6-538h4.8c2.6,376.2,32.2,484.6,46.4,536.8
			c0.7,2.6,1.4,5,2,7.3L248.5,599.2z"/>
	</g>
	<g>

			<rect x="31.6" y="708.6" transform="matrix(0.5648 0.8252 -0.8252 0.5648 613.0851 259.3652)" class="st0" width="58" height="4.8"/>
	</g>
	<g>

			<rect x="58.3" y="656.6" transform="matrix(0.4402 0.8979 -0.8979 0.4402 672.3217 343.5044)" class="st0" width="4.8" height="108.7"/>
	</g>
	<g>
		<rect x="16" y="671" transform="matrix(0.8448 0.535 -0.535 0.8448 417.3964 110.3675)" class="st0" width="4.8" height="207.6"/>
	</g>
	<g>

			<rect x="297.7" y="708.2" transform="matrix(0.9004 0.435 -0.435 0.9004 344.1596 -82.2697)" class="st0" width="108.2" height="4.8"/>
	</g>
	<g>

			<rect x="350" y="683" transform="matrix(0.8169 0.5767 -0.5767 0.8169 475.3069 -72.8391)" class="st0" width="4.8" height="58.6"/>
	</g>
	<g>
		<path class="st0" d="M146.6,446.9l-4.6-1.3l2.3,0.7l-2.3-0.6c0-0.1,1.6-6-1.3-10.4c-1.7-2.7-4.8-4.4-9.2-5c-1.2-0.2-2.1-1.3-2-2.5
			s1.1-2.2,2.4-2.2h141c2.4-0.2,4.2,0,4.3,0c1.3,0.1,2.2,1.2,2.1,2.5s-1.1,2.3-2.4,2.3H273c-2.7,0.2-6.2,1-8.3,3.5
			c-2.3,2.6-2.8,6.6-1.5,12l-4.7,1.1c-1.7-7-0.8-12.5,2.5-16.3c0.1-0.1,0.2-0.2,0.3-0.3H142.7c0.8,0.7,1.4,1.6,2,2.5
			C148.8,439,146.7,446.6,146.6,446.9z"/>
	</g>
	<g>
		<rect x="186.8" y="1.4" class="st0" width="4.8" height="16.9"/>
	</g>
	<g>
		<rect x="216.1" y="1.4" class="st0" width="4.8" height="16.9"/>
	</g>
	<g>
		<path class="st0" d="M188.5,29.9l-4.8-0.4c0.1-1.4-0.1-5.5-2-7.5c-0.8-0.9-1.9-1.3-3.3-1.3c-1.3,0-2.4-1.1-2.4-2.4
			c0-1.3,1.1-2.4,2.4-2.4h48.9c1.2-0.1,2,0,2,0c1.2,0.2,2.2,1.3,2.1,2.5c-0.1,1.3-1.1,2.2-2.4,2.2h-1.6c-1,0.1-2.4,0.4-3.6,1.5
			c-1.6,1.5-2.5,4-2.5,7.5h-4.8c0-3.7,0.8-6.7,2.3-9h-32.3C188.8,24.5,188.5,29.3,188.5,29.9z"/>
	</g>
	<g>
		<path class="st1" d="M121.9,24"/>
	</g>
	<g>

			<rect x="160.8" y="447" transform="matrix(0.9837 0.1797 -0.1797 0.9837 84.8175 -21.8761)" class="st0" width="4.8" height="20.4"/>
	</g>
	<g>

			<rect x="195.2" y="454.3" transform="matrix(2.909864e-02 0.9996 -0.9996 2.909864e-02 654.6375 239.4898)" class="st0" width="17.7" height="4.8"/>
	</g>
	<g>

			<rect x="232.2" y="455.1" transform="matrix(0.1919 0.9814 -0.9814 0.1919 644.6106 132.1852)" class="st0" width="19.7" height="4.8"/>
	</g>
	<g>

			<rect x="139.5" y="454.7" transform="matrix(0.6515 0.7587 -0.7587 0.6515 400.0068 43.4905)" class="st0" width="26.4" height="4.8"/>
	</g>
	<g>

			<rect x="147.9" y="442.3" transform="matrix(0.6731 0.7395 -0.7395 0.6731 387.2095 38.2924)" class="st0" width="4.8" height="29.8"/>
	</g>
	<g>

			<rect x="162.9" y="455.1" transform="matrix(0.6418 0.7668 -0.7668 0.6418 413.6703 29.3151)" class="st0" width="25.2" height="4.8"/>
	</g>
	<g>

			<rect x="171.4" y="442.2" transform="matrix(0.658 0.753 -0.753 0.658 403.7771 25.5259)" class="st0" width="4.8" height="30.1"/>
	</g>
	<g>

			<rect x="181" y="454.5" transform="matrix(0.6828 0.7306 -0.7306 0.6828 395.3904 3.1252)" class="st0" width="26.2" height="4.8"/>
	</g>
	<g>

			<rect x="190.9" y="443.1" transform="matrix(0.7006 0.7136 -0.7136 0.7006 383.6797 -1.2402)" class="st0" width="4.8" height="27"/>
	</g>
	<g>

			<rect x="200.9" y="454.8" transform="matrix(0.6847 0.7289 -0.7289 0.6847 400.9069 -12.3242)" class="st0" width="27.5" height="4.8"/>
	</g>
	<g>
		<rect x="211" y="443.6" transform="matrix(0.7442 0.668 -0.668 0.7442 359.9188 -25.59)" class="st0" width="4.8" height="27"/>
	</g>
	<g>

			<rect x="218.5" y="454.8" transform="matrix(0.7327 0.6805 -0.6805 0.7327 373.4514 -36.514)" class="st0" width="29.5" height="4.8"/>
	</g>
	<g>

			<rect x="230.3" y="444" transform="matrix(0.7594 0.6506 -0.6506 0.7594 353.4285 -41.4142)" class="st0" width="4.8" height="26.4"/>
	</g>
	<g>

			<rect x="237.7" y="454.8" transform="matrix(0.7663 0.6424 -0.6424 0.7663 352.9026 -55.921)" class="st0" width="31.2" height="4.8"/>
	</g>
	<g>

			<rect x="250.6" y="443.6" transform="matrix(0.7442 0.668 -0.668 0.7442 370.0546 -52.0469)" class="st0" width="4.8" height="27"/>
	</g>
	<g>
		<path class="st0" d="M63.1,841.7c-0.4,0-0.7-0.1-1.1-0.3c-1.2-0.6-1.7-2-1.1-3.2l65.8-130.6c0.6-1.2,2-1.6,3.2-1.1
			c1.2,0.6,1.7,2,1.1,3.2L65.2,840.3C64.8,841.2,64,841.7,63.1,841.7z"/>
	</g>
	<g>
		<path class="st0" d="M25.4,841.7c-0.4,0-0.7-0.1-1.1-0.3c-1.2-0.6-1.7-2-1.1-3.2l42.1-83.5c0.6-1.2,2-1.6,3.2-1.1
			c1.2,0.6,1.7,2,1.1,3.2l-42.1,83.6C27.1,841.2,26.3,841.7,25.4,841.7z"/>
	</g>
	<g>
		<rect x="193" y="29.7" class="st0" width="4.8" height="24.2"/>
	</g>
	<g>
		<rect x="208.4" y="29.7" class="st0" width="4.8" height="24.2"/>
	</g>
	<g>

			<rect x="141.4" y="463.6" transform="matrix(0.9648 0.263 -0.263 0.9648 145.0573 -19.0681)" class="st0" width="4.8" height="137.4"/>
	</g>
	<g>

			<rect x="193.8" y="530.5" transform="matrix(0.2634 0.9647 -0.9647 0.2634 707.042 139.8795)" class="st0" width="136.2" height="4.8"/>
	</g>
	<g>

			<rect x="291.5" y="772.4" transform="matrix(0.5402 0.8416 -0.8416 0.5402 834.0151 23.2532)" class="st0" width="208.4" height="4.8"/>
	</g>
	<g>
		<path class="st0" d="M325.2,796.2c-13.4-28.9-62.3-69-119.3-69c-32.9,0-59.7,13.4-76.4,24.7c-22.6,15.3-36.2,32.6-41.4,43.7
			l-4.3-2c11.5-24.8,59.2-71.2,122.1-71.2c59,0,109.8,41.7,123.7,71.7L325.2,796.2z"/>
	</g>
	<g>
		<rect x="2.9" y="753.3" transform="matrix(0.68 0.7332 -0.7332 0.68 564.0308 218.9662)" class="st0" width="56.6" height="4.8"/>
	</g>
	<g>

			<rect x="28.7" y="705.3" transform="matrix(0.4122 0.9111 -0.9111 0.4122 706.7076 415.869)" class="st0" width="4.8" height="100.7"/>
	</g>
	<g>

			<rect x="378.8" y="728.4" transform="matrix(0.7206 0.6933 -0.6933 0.7206 630.8066 -53.0178)" class="st0" width="4.8" height="55.6"/>
	</g>
	<g>

			<rect x="332.5" y="751.9" transform="matrix(0.9179 0.3968 -0.3968 0.9179 330.6503 -89.5119)" class="st0" width="98.2" height="4.8"/>
	</g>
	<g>

			<rect x="-22.2" y="792.9" transform="matrix(0.7306 0.6828 -0.6828 0.7306 544.4427 210.5903)" class="st0" width="55" height="4.8"/>
	</g>
	<g>

			<rect x="4.2" y="747.6" transform="matrix(0.3944 0.9189 -0.9189 0.3944 734.7481 475.4758)" class="st0" width="4.8" height="95.2"/>
	</g>
	<g>

			<rect x="-50.5" y="835.8" transform="matrix(0.5349 0.8449 -0.8449 0.5349 698.0954 408.2858)" class="st0" width="57.4" height="4.8"/>
	</g>
	<g>

			<rect x="-26" y="784.5" transform="matrix(0.4511 0.8925 -0.8925 0.4511 735.1173 481.2077)" class="st0" width="4.8" height="107.5"/>
	</g>
	<g>
		<path class="st0" d="M-6.5,864.9h-65.1c-1.3,0-2.4-1.1-2.4-2.4s1.1-2.4,2.4-2.4h65.1c1.3,0,2.4,1.1,2.4,2.4S-5.1,864.9-6.5,864.9z
			"/>
	</g>
	<g>
		<path class="st0" d="M485.2,864.9h-66.4c-1.3,0-2.4-1.1-2.4-2.4s1.1-2.4,2.4-2.4h66.4c1.3,0,2.4,1.1,2.4,2.4
			S486.5,864.9,485.2,864.9z"/>
	</g>
	<g>
		<path class="st0" d="M63.1,841.7H25.4c-1.3,0-2.4-1.1-2.4-2.4s1.1-2.4,2.4-2.4h37.7c1.3,0,2.4,1.1,2.4,2.4
			C65.5,840.6,64.4,841.7,63.1,841.7z"/>
	</g>
	<g>
		<path class="st0" d="M349.7,841.7c-0.9,0-1.7-0.5-2.1-1.3L284,714.3c-0.6-1.2-0.1-2.6,1.1-3.2c1.2-0.6,2.6-0.1,3.2,1.1l63.6,126.1
			c0.6,1.2,0.1,2.6-1.1,3.2C350.4,841.6,350,841.7,349.7,841.7z"/>
	</g>
	<g>
		<path class="st0" d="M387.4,841.7c-0.9,0-1.7-0.5-2.1-1.3l-42.1-83.5c-0.6-1.2-0.1-2.6,1.1-3.2c1.2-0.6,2.6-0.1,3.2,1.1l42.1,83.5
			c0.6,1.2,0.1,2.6-1.1,3.2C388.1,841.6,387.7,841.7,387.4,841.7z"/>
	</g>
	<g>
		<path class="st0" d="M387.4,841.7h-37.7c-1.3,0-2.4-1.1-2.4-2.4s1.1-2.4,2.4-2.4h37.7c1.3,0,2.4,1.1,2.4,2.4
			C389.8,840.6,388.7,841.7,387.4,841.7z"/>
	</g>
	<g>
		<path class="st1" d="M204.4,674.7"/>
	</g>
	<g>

			<rect x="182.3" y="682.1" transform="matrix(0.1045 0.9945 -0.9945 0.1045 852.2303 422.5594)" class="st0" width="18.3" height="4.8"/>
	</g>
	<g>

			<rect x="170.1" y="683.8" transform="matrix(0.208 0.9781 -0.9781 0.208 812.765 368.623)" class="st0" width="17.4" height="4.8"/>
	</g>
	<g>

			<rect x="156.4" y="685.3" transform="matrix(0.3094 0.9509 -0.9509 0.3094 768.2811 317.4349)" class="st0" width="18.4" height="4.8"/>
	</g>
	<g>

			<rect x="143.5" y="688.2" transform="matrix(0.4016 0.9158 -0.9158 0.4016 723.8284 273.3959)" class="st0" width="18.4" height="4.8"/>
	</g>
	<g>

			<rect x="130" y="692.3" transform="matrix(0.5013 0.8653 -0.8653 0.5013 670.5459 225.9346)" class="st0" width="18.5" height="4.8"/>
	</g>
	<g>

			<rect x="117.4" y="697.5" transform="matrix(0.5847 0.8112 -0.8112 0.5847 620.3423 187.9607)" class="st0" width="18.4" height="4.8"/>
	</g>
	<g>

			<rect x="104.9" y="704.2" transform="matrix(0.6685 0.7437 -0.7437 0.6685 563.2299 149.6641)" class="st0" width="17.6" height="4.8"/>
	</g>
	<g>

			<rect x="94" y="712.6" transform="matrix(0.7423 0.6701 -0.6701 0.7423 505.3855 115.8949)" class="st0" width="16" height="4.8"/>
	</g>
	<g>

			<rect x="85" y="723.4" transform="matrix(0.8187 0.5742 -0.5742 0.8187 433.2419 79.4325)" class="st0" width="11.7" height="4.8"/>
	</g>
	<g>

			<rect x="76.5" y="734.5" transform="matrix(0.8743 0.4853 -0.4853 0.8743 367.7371 53.4803)" class="st0" width="8.2" height="4.8"/>
	</g>
	<g>

			<rect x="337" y="744.5" transform="matrix(0.4051 0.9143 -0.9143 0.4051 885.2552 134.3347)" class="st0" width="4.8" height="5.9"/>
	</g>
	<g>

			<rect x="326.7" y="730.6" transform="matrix(0.4968 0.8679 -0.8679 0.4968 803.9823 84.5001)" class="st0" width="4.8" height="9.9"/>
	</g>
	<g>

			<rect x="316.3" y="717.1" transform="matrix(0.5858 0.8104 -0.8104 0.5858 719.1349 41.7382)" class="st0" width="4.8" height="14.8"/>
	</g>
	<g>

			<rect x="305.1" y="704.7" transform="matrix(0.6738 0.7389 -0.7389 0.6738 627.9896 5.7682)" class="st0" width="4.8" height="19"/>
	</g>
	<g>

			<rect x="293" y="695.8" transform="matrix(0.746 0.6659 -0.6659 0.746 545.1866 -17.3897)" class="st0" width="4.8" height="20.5"/>
	</g>
	<g>

			<rect x="280.3" y="689.2" transform="matrix(0.8088 0.5881 -0.5881 0.8088 465.4868 -32.4631)" class="st0" width="4.8" height="20.8"/>
	</g>
	<g>

			<rect x="267.1" y="684.1" transform="matrix(0.8679 0.4968 -0.4968 0.8679 380.5282 -42.1448)" class="st0" width="4.8" height="20.5"/>
	</g>
	<g>

			<rect x="254.1" y="680.4" transform="matrix(0.9138 0.4061 -0.4061 0.9138 302.4753 -44.6919)" class="st0" width="4.8" height="19.9"/>
	</g>
	<g>

			<rect x="241.1" y="677.2" transform="matrix(0.9516 0.3072 -0.3072 0.9516 222.8618 -41.566)" class="st0" width="4.8" height="19.9"/>
	</g>
	<g>

			<rect x="227.9" y="677.4" transform="matrix(0.9782 0.2077 -0.2077 0.9782 147.5276 -32.8634)" class="st0" width="4.8" height="17.4"/>
	</g>
	<g>

			<rect x="215" y="675.5" transform="matrix(0.9945 0.1048 -0.1048 0.9945 72.9236 -19.0114)" class="st0" width="4.8" height="17.9"/>
	</g>
	<g>
		<rect x="202" y="674.7" class="st0" width="4.8" height="18.5"/>
	</g>
	<g>
		<rect x="301" y="609.2" transform="matrix(0.375 0.927 -0.927 0.375 780.537 117.1333)" class="st0" width="4.8" height="56.5"/>
	</g>
	<g>

			<rect x="261.4" y="634.9" transform="matrix(0.967 0.2548 -0.2548 0.967 172.3954 -56.1634)" class="st0" width="83.1" height="4.8"/>
	</g>
	<g>

			<rect x="107.6" y="596.5" transform="matrix(0.2467 0.9691 -0.9691 0.2467 699.8809 373.0544)" class="st0" width="4.8" height="80.5"/>
	</g>
	<g>

			<rect x="82.3" y="634.3" transform="matrix(0.9344 0.3561 -0.3561 0.9344 233.9643 2.5119)" class="st0" width="55.7" height="4.8"/>
	</g>
	<g>
		<rect x="358" y="791.7" transform="matrix(0.92 0.392 -0.392 0.92 343.8668 -96.1601)" class="st0" width="98.9" height="4.8"/>
	</g>
	<g>

			<rect x="404.3" y="767.5" transform="matrix(0.6823 0.7311 -0.7311 0.6823 710.3477 -44.7988)" class="st0" width="4.8" height="54.8"/>
	</g>
	<g>

			<rect x="381.2" y="834.7" transform="matrix(0.8982 0.4395 -0.4395 0.8982 412.1861 -105.9108)" class="st0" width="107.2" height="4.8"/>
	</g>
	<g>

			<rect x="433.7" y="808.3" transform="matrix(0.821 0.571 -0.571 0.821 556.3245 -99.0637)" class="st0" width="4.8" height="58.5"/>
	</g>
</g>
</svg>
