<?xml version="1.0" encoding="utf-8"?>
<!-- Generator: Adobe Illustrator 19.1.0, SVG Export Plug-In . SVG Version: 6.00 Build 0)  -->
<svg version="1.1" id="Layer_1" xmlns="http://www.w3.org/2000/svg" xmlns:xlink="http://www.w3.org/1999/xlink" x="0px" y="0px"
	 viewBox="-99 -54 449.9 900" style="enable-background:new -99 -54 449.9 900;" xml:space="preserve">
<style type="text/css">
	.st0{fill:#F0EFE9;}
</style>
<g id="XMLID_1049_">
	<g id="XMLID_1203_">
		<polygon id="XMLID_1136_" class="st0" points="57.2,859.5 31.3,847.6 70,758.5 74.5,760.4 37.7,845.2 54.7,853 87.3,777.7 
			91.8,779.7 		"/>
	</g>
	<g id="XMLID_1201_">
		<path id="XMLID_1135_" class="st0" d="M156.3-6.5h-4.9V-46c0-0.8-0.7-1.5-1.5-1.5s-1.5,0.7-1.5,1.5v39.5h-4.9V-46
			c0-3.5,2.9-6.4,6.4-6.4s6.4,2.9,6.4,6.4V-6.5L156.3-6.5z"/>
	</g>
	<g id="XMLID_1199_">
		<rect id="XMLID_1134_" x="192.5" y="342.5" class="st0" width="4.9" height="271.7"/>
	</g>
	<g id="XMLID_1197_">
		<rect id="XMLID_1133_" x="162.6" y="590.7" class="st0" width="4.9" height="12.7"/>
	</g>
	<g id="XMLID_1195_">
		<rect id="XMLID_1132_" x="162.6" y="524.2" class="st0" width="4.9" height="46.4"/>
	</g>
	<g id="XMLID_1193_">
		<rect id="XMLID_1131_" x="162.6" y="457.3" class="st0" width="4.9" height="47.1"/>
	</g>
	<g id="XMLID_1191_">
		<rect id="XMLID_1130_" x="162.6" y="390.7" class="st0" width="4.9" height="45.7"/>
	</g>
	<g id="XMLID_1189_">
		<rect id="XMLID_1129_" x="162.6" y="353.1" class="st0" width="4.9" height="16.4"/>
	</g>
	<g id="XMLID_1187_">
		<polygon id="XMLID_1128_" class="st0" points="235.7,859.5 204.2,779.8 208.8,778 238.4,852.9 255.3,845.1 222.1,761.1 
			226.7,759.3 261.5,847.6 		"/>
	</g>
	<g id="XMLID_1185_">
		<path id="XMLID_1127_" class="st0" d="M149.3,356.9c-5.3,0-10.6-0.4-15.8-1.3l0.8-4.8c4.9,0.8,10,1.2,15,1.2c49.6,0,90-40.4,90-90
			s-40.4-90-90-90s-90,40.4-90,90c0,32.3,17.5,62.3,45.6,78.3l-2.4,4.3c-29.6-16.8-48.1-48.5-48.1-82.5c0-52.3,42.6-94.9,94.9-94.9
			s94.9,42.6,94.9,94.9S201.6,356.9,149.3,356.9z"/>
	</g>
	<g id="XMLID_1183_">
		<path id="XMLID_1125_" class="st0" d="M243.2,697.4H53.5V695c0-34.3,18.6-66,48.5-82.8l2.4,4.3c-27.7,15.5-45.1,44.5-46,76.1
			h179.9c-1.3-48.5-41.1-87.5-89.9-87.5c-4.4,0-8.8,0.3-13.2,1l-0.7-4.8c4.6-0.7,9.2-1,13.9-1c52.3,0,94.9,42.6,94.9,94.9
			L243.2,697.4L243.2,697.4z"/>
	</g>
	<g id="XMLID_1181_">
		<path id="XMLID_1123_" class="st0" d="M139.6,800.9c-23.5-2.1-45.2-12.9-61.2-30.3c-16.1-17.5-24.9-40.3-24.9-64.1v-2.4h189.7v2.4
			c0,45.8-32.6,85-77.6,93.3l-0.9-4.8c41.9-7.7,72.4-43.7,73.6-86H58.4c0.6,21.7,8.9,42.3,23.6,58.4c15.2,16.5,35.8,26.7,58,28.8
			L139.6,800.9z"/>
	</g>
	<g id="XMLID_1177_">
		<path id="XMLID_1119_" class="st0" d="M234.9,708.9H63.5v-16.4h171.4V708.9z M68.4,704H230v-6.7H68.4V704z"/>
	</g>
	<g id="XMLID_1175_">
		<rect id="XMLID_1117_" x="47.7" y="293.6" class="st0" width="203.3" height="4.9"/>
	</g>
	<g id="XMLID_1173_">
		<rect id="XMLID_1116_" x="47.7" y="280.5" class="st0" width="203.3" height="4.9"/>
	</g>
	<g id="XMLID_1171_">
		<rect id="XMLID_1115_" x="68.2" y="192.5" class="st0" width="162.3" height="4.9"/>
	</g>
	<g id="XMLID_1169_">
		<rect id="XMLID_1113_" x="59.9" y="665.8" class="st0" width="177" height="4.9"/>
	</g>
	<g id="XMLID_1167_">
		<rect id="XMLID_1112_" x="58.6" y="727.9" class="st0" width="179.1" height="4.9"/>
	</g>
	<g id="XMLID_1165_">
		<rect id="XMLID_1111_" x="125.8" y="120.7" class="st0" width="47.4" height="4.9"/>
	</g>
	<g id="XMLID_1163_">
		<rect id="XMLID_1109_" x="134.4" y="27" class="st0" width="29.6" height="4.9"/>
	</g>
	<g id="XMLID_1161_">
		<polygon id="XMLID_1078_" class="st0" points="165.1,172.1 134.7,172.1 134.7,94.5 139.6,94.5 139.6,167.2 160.2,167.2 
			160.2,94.5 165.1,94.5 		"/>
	</g>
	<g id="XMLID_1159_">
		<polygon id="XMLID_1076_" class="st0" points="158.9,49.3 154,49.3 154,-2.2 145.8,-2.2 145.8,49.3 140.9,49.3 140.9,-7.1 
			158.9,-7.1 		"/>
	</g>
	<g id="XMLID_1155_">
		<path id="XMLID_1070_" class="st0" d="M149.9,101.5c-15.3,0-27.7-12.4-27.7-27.7s12.4-27.7,27.7-27.7s27.7,12.4,27.7,27.7
			S165.2,101.5,149.9,101.5z M149.9,51c-12.6,0-22.8,10.2-22.8,22.8s10.2,22.8,22.8,22.8c12.6,0,22.8-10.2,22.8-22.8
			S162.5,51,149.9,51z"/>
	</g>
	<g id="XMLID_1151_">
		<path id="XMLID_1064_" class="st0" d="M166.4,860.2H138v-95.7c0-7.1,6.4-12.8,14.2-12.8c7.8,0,14.2,5.7,14.2,12.8L166.4,860.2
			L166.4,860.2z M142.9,855.3h18.6v-90.8c0-4.4-4.2-7.9-9.3-7.9c-5.1,0-9.3,3.5-9.3,7.9L142.9,855.3L142.9,855.3z"/>
	</g>
	<g id="XMLID_1149_">
		<path id="XMLID_1062_" class="st0" d="M173.4,391.7h-39.5v-4.9h39.5c3.2,0,5.8-3.1,5.8-7c0-3.8-2.6-7-5.8-7h-39.5v-4.9h39.5
			c5.9,0,10.7,5.3,10.7,11.9S179.3,391.7,173.4,391.7z"/>
	</g>
	<g id="XMLID_1147_">
		<path id="XMLID_1060_" class="st0" d="M173.4,458.6h-39.5v-4.9h39.5c3.2,0,5.8-3.1,5.8-7c0-3.8-2.6-7-5.8-7h-39.5v-4.9h39.5
			c5.9,0,10.7,5.3,10.7,11.9S179.3,458.6,173.4,458.6z"/>
	</g>
	<g id="XMLID_1145_">
		<path id="XMLID_1058_" class="st0" d="M173.4,592.4h-39.5v-4.9h39.5c3.2,0,5.8-3.1,5.8-7s-2.6-7-5.8-7h-39.5v-4.9h39.5
			c5.9,0,10.7,5.3,10.7,11.9S179.3,592.4,173.4,592.4z"/>
	</g>
	<g id="XMLID_1143_">
		<path id="XMLID_1057_" class="st0" d="M173.4,526.1h-39.5v-4.9h39.5c3.2,0,5.8-3.1,5.8-7s-2.6-7-5.8-7h-39.5v-4.9h39.5
			c5.9,0,10.7,5.3,10.7,11.9S179.3,526.1,173.4,526.1z"/>
	</g>
	<g id="XMLID_1139_">
		<path id="XMLID_1051_" class="st0" d="M112.4,638.5c-6.6,0-10.7-3.9-10.7-10.3V333.8c0-3.9,1.8-6.1,3.4-7.2
			c1.8-1.4,4.4-2.1,7.4-2.1c9.5,0,23.7,7.8,23.7,18.6l0.3,199.3l-0.1,22.5l-0.2,53C136.1,629.8,121.9,638.5,112.4,638.5z
			 M112.4,329.3c-5.8,0-5.8,3.4-5.8,4.5v294.4c0,1.9,0.5,3.2,1.5,4.1c1,0.8,2.5,1.3,4.3,1.3c7.4,0,18.8-7.1,18.8-15.8l0.2-53
			l0.1-25.5l-0.3-196.2C131.2,335.5,119.8,329.3,112.4,329.3z"/>
	</g>
</g>
<g id="XMLID_1142_">
	<path id="XMLID_1140_" class="st0" d="M284,522.9c-8.3,0-16.2-3-22.3-8.5c-10.7,2.6-21.3,0.4-30.1-5.4c-5.3,5.4-12.4,8.4-20,8.4
		c-0.4,0-11.9,0.6-17.1-5.8l3.7-3c3.1,3.8,10.7,4.2,13.4,4.1c7,0,13.5-3,18-8.4l1.4-1.7l1.8,1.4c8.2,6.2,18.6,8.4,29,5.6l1.3-0.4
		l1,0.9c5.4,5.2,12.5,8.1,20,8.1c15.9,0,28.8-12.9,28.8-28.8c0-15.9-12.9-28.8-28.8-28.8h-0.2c-0.1,0-0.3,0-0.4,0h-1.4l-0.7-1.2
		c-6.2-10-16.8-15.9-28.5-15.9c-14,0-26.7,8.9-31.5,22.1l-0.8,2.1l-2.2-0.7c-2.2-0.7-4.5-1-6.8-1c-5.1,0-9.9,1.6-13.9,4.6l-2.8-3.8
		c4.9-3.6,10.7-5.6,16.7-5.6c2.1,0,4.1,0.2,6.1,0.7c6-14,19.9-23.2,35.2-23.2c12.9,0,24.7,6.3,31.8,17c18.2,0.4,32.9,15.2,32.9,33.5
		C317.5,507.8,302.5,522.9,284,522.9z"/>
</g>
<g id="XMLID_1141_">
	<path id="XMLID_1138_" class="st0" d="M-55.2,243.6c-21.9,0-39.8-17.8-39.8-39.8S-77.2,164-55.2,164c0.8,0,1.5,0.1,2.2,0.1
		c1.2-29.2,25.3-52.5,54.8-52.5c18,0,34.6,8.7,44.9,23.4c4.7-2.2,9.5-3.3,14.5-3.3c19.2,0,34.8,15.6,34.8,34.8
		c0,2.8-0.4,5.7-1.2,8.6h20.5l-10,4.9H87.9l1.2-3.3c1.3-3.5,1.9-6.9,1.9-10.2c0-16.5-13.4-29.9-29.9-29.9c-4.8,0-9.6,1.2-14.1,3.7
		l-2,1.1l-1.2-1.9c-9.3-14.4-25-22.9-42-22.9c-27.6,0-50,22.4-50,50c0,0.2,0,0.3,0,0.4v2.8l-3.9-0.5c-1.1-0.2-2.2-0.3-3.3-0.3
		c-19.2,0-34.9,15.6-34.9,34.9s15.6,34.9,34.9,34.9l114.5-0.2v4.9L-55.2,243.6z"/>
</g>
</svg>
