<?xml version="1.0" encoding="utf-8"?>
<!-- Generator: Adobe Illustrator 19.1.0, SVG Export Plug-In . SVG Version: 6.00 Build 0)  -->
<svg version="1.1" id="Layer_1" xmlns="http://www.w3.org/2000/svg" xmlns:xlink="http://www.w3.org/1999/xlink" x="0px" y="0px"
	 viewBox="800 -54 1054 900" style="enable-background:new 800 -54 1054 900;" xml:space="preserve">
<style type="text/css">
	.st0{fill:#F0EFE9;}
</style>
<g>
	<g>
		<path class="st0" d="M985.2,496.6c-20.7,0-37.6-16.9-37.6-37.6s16.9-37.6,37.6-37.6c0.7,0,1.4,0.1,2.1,0.1
			c1.1-27.6,23.9-49.6,51.8-49.6c17,0,32.7,8.2,42.4,22.1c4.4-2.1,9-3.1,13.7-3.1c18.1,0,32.9,14.8,32.9,32.9h-4.6
			c0-15.6-12.7-28.3-28.3-28.3c-4.6,0-9,1.2-13.3,3.5l-1.9,1l-1.2-1.8c-8.8-13.6-23.6-21.7-39.7-21.7c-26,0-47.2,21.2-47.2,47.2
			c0,0.2,0,0.3,0,0.4v2.6l-3.6-0.5c-1.1-0.1-2.1-0.3-3.1-0.3c-18.2,0-32.9,14.8-32.9,32.9s14.8,32.9,32.9,32.9l139.9-0.2v4.6
			L985.2,496.6z"/>
	</g>
	<g>
		<path class="st0" d="M2433.4,312.3c-8.1,0-15.8-2.9-21.8-8.3c-10.4,2.5-20.8,0.4-29.3-5.3c-5.1,5.2-12.1,8.2-19.5,8.2
			c0,0-3.6,0.2-7.8-1.1l1.5-4.4c3.2,1.1,6.2,0.9,6.2,0.9c6.9,0,13.2-3,17.5-8.2l1.4-1.7l1.8,1.3c8,6.1,18.1,8.2,28.3,5.4l1.3-0.3
			l0.9,0.9c5.3,5.1,12.2,7.9,19.5,7.9c15.5,0,28.1-12.6,28.1-28.1s-12.6-28.1-28.1-28.1h-0.2c-0.1,0-0.3,0-0.4,0h-1.3l-0.7-1.1
			c-6-9.7-16.4-15.5-27.8-15.5c-13.7,0-26.1,8.7-30.7,21.6l-0.8,2.1l-2.1-0.6c-2.1-0.6-4.4-0.8-6.8-1c-1.8-0.1-3.5-0.1-5.2,0.1
			l-0.6-4.6c1.9-0.3,4-0.3,6.1-0.2c1.9,0.1,3.8,0.3,5.8,0.7c5.8-13.7,19.4-22.7,34.3-22.7c12.6,0,24.1,6.2,31,16.6
			c17.7,0.3,32.1,14.9,32.1,32.7C2466.1,297.6,2451.5,312.3,2433.4,312.3z"/>
	</g>
	<g>
		<g>
			<path class="st0" d="M2343.4,831.7h-269.1l-0.1-2.3l-16.7-671.1h302.6L2343.4,831.7z M2078.8,827h260.1l16.5-664.1h-293.1
				L2078.8,827z"/>
		</g>
		<g>
			<path class="st0" d="M2343.4,162.9h-269.1v-22.3h269.1V162.9z M2078.9,158.3h259.9v-13.1h-259.9V158.3z"/>
		</g>
		<g>
			<path class="st0" d="M2360,87.3h-302.5V65H2360V87.3z M2062.2,82.7h293.2V69.6h-293.2V82.7z"/>
		</g>
		<g>
			<path class="st0" d="M2311,145.2h-204.5v-15.7H2311V145.2z M2111.2,140.6h195.2v-6.4h-195.2V140.6z"/>
		</g>
		<g>
			<rect x="2059.9" y="178.8" class="st0" width="297.3" height="4.6"/>
		</g>
		<g>
			<rect x="2059.9" y="195.4" class="st0" width="297.3" height="4.6"/>
		</g>
		<g>
			<rect x="2059.9" y="212" class="st0" width="297.3" height="4.6"/>
		</g>
		<g>
			<rect x="2059.9" y="228.6" class="st0" width="297.3" height="4.6"/>
		</g>
		<g>
			<rect x="2059.9" y="245.2" class="st0" width="297.3" height="4.6"/>
		</g>
		<g>
			<rect x="2059.9" y="261.8" class="st0" width="297.3" height="4.6"/>
		</g>
		<g>
			<rect x="2062.9" y="278.4" class="st0" width="291.9" height="4.6"/>
		</g>
		<g>
			<rect x="2062.9" y="295" class="st0" width="291.9" height="4.6"/>
		</g>
		<g>
			<rect x="2063.7" y="311.6" class="st0" width="290.2" height="4.6"/>
		</g>
		<g>
			<rect x="2063.7" y="328.2" class="st0" width="289.8" height="4.6"/>
		</g>
		<g>
			<rect x="2063.7" y="344.8" class="st0" width="289.4" height="4.6"/>
		</g>
		<g>
			<rect x="2064.9" y="361.5" class="st0" width="288.2" height="4.6"/>
		</g>
		<g>
			<rect x="2064.9" y="378.1" class="st0" width="287.3" height="4.6"/>
		</g>
		<g>
			<rect x="2065.8" y="394.7" class="st0" width="286.1" height="4.6"/>
		</g>
		<g>
			<rect x="2065.8" y="411.3" class="st0" width="285.7" height="4.6"/>
		</g>
		<g>
			<rect x="2066.6" y="427.9" class="st0" width="284.9" height="4.6"/>
		</g>
		<g>
			<rect x="2066.6" y="444.5" class="st0" width="284" height="4.6"/>
		</g>
		<g>
			<rect x="2066.6" y="461.1" class="st0" width="283.6" height="4.6"/>
		</g>
		<g>
			<rect x="2067.8" y="477.7" class="st0" width="282" height="4.6"/>
		</g>
		<g>
			<rect x="2067.8" y="494.3" class="st0" width="281.6" height="4.6"/>
		</g>
		<g>
			<rect x="2068.6" y="510.9" class="st0" width="280.3" height="4.6"/>
		</g>
		<g>
			<rect x="2069.1" y="527.5" class="st0" width="279.5" height="4.6"/>
		</g>
		<g>
			<rect x="2069.1" y="544.1" class="st0" width="279.1" height="4.6"/>
		</g>
		<g>
			<rect x="2069.9" y="560.8" class="st0" width="278.3" height="4.6"/>
		</g>
		<g>
			<rect x="2070.3" y="577.4" class="st0" width="277" height="4.6"/>
		</g>
		<g>
			<rect x="2070.7" y="594" class="st0" width="276.6" height="4.6"/>
		</g>
		<g>
			<rect x="2071.1" y="610.6" class="st0" width="275.4" height="4.6"/>
		</g>
		<g>
			<rect x="2071.5" y="627.2" class="st0" width="275" height="4.6"/>
		</g>
		<g>
			<rect x="2071.9" y="643.8" class="st0" width="273.7" height="4.6"/>
		</g>
		<g>
			<rect x="2072.4" y="660.4" class="st0" width="272.9" height="4.6"/>
		</g>
		<g>
			<rect x="2072.4" y="677" class="st0" width="272.5" height="4.6"/>
		</g>
		<g>
			<rect x="2073.2" y="693.6" class="st0" width="271.7" height="4.6"/>
		</g>
		<g>
			<rect x="2073.6" y="710.2" class="st0" width="270.4" height="4.6"/>
		</g>
		<g>
			<rect x="2074" y="726.8" class="st0" width="270" height="4.6"/>
		</g>
		<g>
			<rect x="2074.4" y="743.4" class="st0" width="269.6" height="4.6"/>
		</g>
		<g>
			<rect x="2074.8" y="760" class="st0" width="267.9" height="4.6"/>
		</g>
		<g>
			<rect x="2075.2" y="776.7" class="st0" width="267.1" height="4.6"/>
		</g>
		<g>
			<rect x="2075.7" y="793.3" class="st0" width="266.3" height="4.6"/>
		</g>
		<g>
			<rect x="2076.1" y="809.9" class="st0" width="265.5" height="4.6"/>
		</g>
		<g>
			<path class="st0" d="M2381.5,134.1H1102.6c-205.2,0-256.6-24.8-269.1-39.5c-4.2-5-3.7-8.7-3.7-9.1l0.3-1.9h1551.3l0.6,1.5
				c0.6,1.8,6.3,17.6,6.3,23.8s-5.7,22-6.3,23.8L2381.5,134.1z M835,88.2c0.4,1,1.2,2.4,2.7,4.1c10.3,11.2,56.6,37.3,265,37.3
				h1275.6c1.9-5.5,5.5-16.5,5.5-20.7s-3.6-15.2-5.5-20.7H835z"/>
		</g>
		<g>
			<rect x="2206.9" y="160.6" class="st0" width="4.6" height="668.8"/>
		</g>
		<g>
			<rect x="2188.4" y="160.6" class="st0" width="4.6" height="668.8"/>
		</g>
		<g>
			
				<rect x="1838.6" y="492.6" transform="matrix(2.299988e-03 1 -1 2.299988e-03 2662.9146 -1679.2052)" class="st0" width="668.8" height="4.6"/>
		</g>
		<g>
			
				<rect x="1820.8" y="492.7" transform="matrix(4.599902e-03 1 -1 4.599902e-03 2640.2844 -1662.5309)" class="st0" width="668.8" height="4.6"/>
		</g>
		<g>
			
				<rect x="1803.1" y="492.6" transform="matrix(6.899672e-03 1 -1 6.899672e-03 2617.6218 -1645.9425)" class="st0" width="668.8" height="4.6"/>
		</g>
		<g>
			
				<rect x="1785.3" y="492.6" transform="matrix(9.199222e-03 1 -1 9.199222e-03 2595.1294 -1629.2444)" class="st0" width="668.8" height="4.6"/>
		</g>
		<g>
			
				<rect x="1767.6" y="492.7" transform="matrix(1.150078e-02 0.9999 -0.9999 1.150078e-02 2572.7188 -1612.562)" class="st0" width="668.8" height="4.6"/>
		</g>
		<g>
			
				<rect x="1748.2" y="492.6" transform="matrix(1.840112e-02 0.9998 -0.9998 1.840112e-02 2539.1611 -1596.5269)" class="st0" width="668.9" height="4.6"/>
		</g>
		<g>
			<rect x="2225.4" y="160.6" class="st0" width="4.6" height="668.8"/>
		</g>
		<g>
			
				<rect x="2243.1" y="160.5" transform="matrix(1 2.599982e-03 -2.599982e-03 1 1.2944 -5.8364)" class="st0" width="4.6" height="668.8"/>
		</g>
		<g>
			
				<rect x="2260.9" y="160.6" transform="matrix(1 4.599902e-03 -4.599902e-03 1 2.3011 -10.4051)" class="st0" width="4.6" height="668.8"/>
		</g>
		<g>
			
				<rect x="2278.7" y="160.6" transform="matrix(1 7.199626e-03 -7.199626e-03 1 3.6233 -16.4093)" class="st0" width="4.6" height="668.8"/>
		</g>
		<g>
			
				<rect x="2296.4" y="160.5" transform="matrix(1 9.099247e-03 -9.099247e-03 1 4.5985 -20.8961)" class="st0" width="4.6" height="668.8"/>
		</g>
		<g>
			
				<rect x="2314.1" y="160.6" transform="matrix(0.9999 1.170074e-02 -1.170074e-02 0.9999 5.95 -27.07)" class="st0" width="4.6" height="668.8"/>
		</g>
		<g>
			
				<rect x="2333.4" y="160.5" transform="matrix(0.9998 1.820124e-02 -1.820124e-02 0.9998 9.3945 -42.4306)" class="st0" width="4.6" height="668.9"/>
		</g>
		<g>
			<path class="st0" d="M1872.9,831.7h-269.1l-0.1-2.3L1587,158.3h302.6L1872.9,831.7z M1608.3,827h260.1l16.5-664.1h-293.1
				L1608.3,827z"/>
		</g>
		<g>
			<path class="st0" d="M1872.9,162.9h-269.1v-22.3h269.1V162.9z M1608.4,158.3h259.9v-13.1h-259.9V158.3z"/>
		</g>
		<g>
			<path class="st0" d="M1840.6,145.2h-204.5v-15.7h204.5V145.2L1840.6,145.2z M1640.7,140.6H1836v-6.4h-195.2v6.4H1640.7z"/>
		</g>
		<g>
			<rect x="1589.4" y="178.8" class="st0" width="297.3" height="4.6"/>
		</g>
		<g>
			<rect x="1589.4" y="195.4" class="st0" width="297.3" height="4.6"/>
		</g>
		<g>
			<rect x="1589.4" y="212" class="st0" width="297.3" height="4.6"/>
		</g>
		<g>
			<rect x="1589.4" y="228.6" class="st0" width="297.3" height="4.6"/>
		</g>
		<g>
			<rect x="1589.4" y="245.2" class="st0" width="297.3" height="4.6"/>
		</g>
		<g>
			<rect x="1589.4" y="261.8" class="st0" width="297.3" height="4.6"/>
		</g>
		<g>
			<rect x="1592.4" y="278.4" class="st0" width="291.9" height="4.6"/>
		</g>
		<g>
			<rect x="1592.4" y="295" class="st0" width="291.9" height="4.6"/>
		</g>
		<g>
			<rect x="1593.2" y="311.6" class="st0" width="290.2" height="4.6"/>
		</g>
		<g>
			<rect x="1593.2" y="328.2" class="st0" width="289.8" height="4.6"/>
		</g>
		<g>
			<rect x="1593.2" y="344.8" class="st0" width="289.4" height="4.6"/>
		</g>
		<g>
			<rect x="1594.5" y="361.5" class="st0" width="288.2" height="4.6"/>
		</g>
		<g>
			<rect x="1594.5" y="378.1" class="st0" width="287.3" height="4.6"/>
		</g>
		<g>
			<rect x="1595.3" y="394.7" class="st0" width="286.1" height="4.6"/>
		</g>
		<g>
			<rect x="1595.3" y="411.3" class="st0" width="285.7" height="4.6"/>
		</g>
		<g>
			<rect x="1596.1" y="427.9" class="st0" width="284.9" height="4.6"/>
		</g>
		<g>
			<rect x="1596.1" y="444.5" class="st0" width="284" height="4.6"/>
		</g>
		<g>
			<rect x="1596.1" y="461.1" class="st0" width="283.6" height="4.6"/>
		</g>
		<g>
			<rect x="1597.4" y="477.7" class="st0" width="282" height="4.6"/>
		</g>
		<g>
			<rect x="1597.4" y="494.3" class="st0" width="281.6" height="4.6"/>
		</g>
		<g>
			<rect x="1598.2" y="510.9" class="st0" width="280.3" height="4.6"/>
		</g>
		<g>
			<rect x="1598.6" y="527.5" class="st0" width="279.5" height="4.6"/>
		</g>
		<g>
			<rect x="1598.6" y="544.1" class="st0" width="279.1" height="4.6"/>
		</g>
		<g>
			<rect x="1599.4" y="560.8" class="st0" width="278.3" height="4.6"/>
		</g>
		<g>
			<rect x="1599.8" y="577.4" class="st0" width="277" height="4.6"/>
		</g>
		<g>
			<rect x="1600.2" y="594" class="st0" width="276.6" height="4.6"/>
		</g>
		<g>
			<rect x="1600.7" y="610.6" class="st0" width="275.4" height="4.6"/>
		</g>
		<g>
			<rect x="1601.1" y="627.2" class="st0" width="275" height="4.6"/>
		</g>
		<g>
			<rect x="1601.5" y="643.8" class="st0" width="273.7" height="4.6"/>
		</g>
		<g>
			<rect x="1601.9" y="660.4" class="st0" width="272.9" height="4.6"/>
		</g>
		<g>
			<rect x="1601.9" y="677" class="st0" width="272.5" height="4.6"/>
		</g>
		<g>
			<rect x="1602.7" y="693.6" class="st0" width="271.7" height="4.6"/>
		</g>
		<g>
			<rect x="1603.1" y="710.2" class="st0" width="270.4" height="4.6"/>
		</g>
		<g>
			<rect x="1603.5" y="726.8" class="st0" width="270" height="4.6"/>
		</g>
		<g>
			<rect x="1604" y="743.4" class="st0" width="269.6" height="4.6"/>
		</g>
		<g>
			<rect x="1604.4" y="760" class="st0" width="267.9" height="4.6"/>
		</g>
		<g>
			<rect x="1604.8" y="776.7" class="st0" width="267.1" height="4.6"/>
		</g>
		<g>
			<rect x="1605.2" y="793.3" class="st0" width="266.3" height="4.6"/>
		</g>
		<g>
			<rect x="1605.6" y="809.9" class="st0" width="265.5" height="4.6"/>
		</g>
		<g>
			<rect x="1736.4" y="160.6" class="st0" width="4.6" height="668.8"/>
		</g>
		<g>
			<rect x="1717.9" y="160.6" class="st0" width="4.6" height="668.8"/>
		</g>
		<g>
			
				<rect x="1368.1" y="492.7" transform="matrix(2.299988e-03 1 -1 2.299988e-03 2193.5901 -1208.7079)" class="st0" width="668.8" height="4.6"/>
		</g>
		<g>
			
				<rect x="1350.4" y="492.6" transform="matrix(4.599902e-03 1 -1 4.599902e-03 2171.9512 -1192.1404)" class="st0" width="668.8" height="4.6"/>
		</g>
		<g>
			
				<rect x="1332.6" y="492.7" transform="matrix(6.899672e-03 1 -1 6.899672e-03 2150.4829 -1175.4661)" class="st0" width="668.8" height="4.6"/>
		</g>
		<g>
			
				<rect x="1314.9" y="492.7" transform="matrix(9.199222e-03 1 -1 9.199222e-03 2129.0872 -1158.7858)" class="st0" width="668.8" height="4.6"/>
		</g>
		<g>
			
				<rect x="1297.1" y="492.6" transform="matrix(1.150078e-02 0.9999 -0.9999 1.150078e-02 2107.6289 -1142.1764)" class="st0" width="668.8" height="4.6"/>
		</g>
		<g>
			
				<rect x="1277.8" y="492.7" transform="matrix(1.840112e-02 0.9998 -0.9998 1.840112e-02 2077.4368 -1126.0952)" class="st0" width="668.9" height="4.6"/>
		</g>
		<g>
			<rect x="1755" y="160.6" class="st0" width="4.6" height="668.8"/>
		</g>
		<g>
			
				<rect x="1772.7" y="160.5" transform="matrix(1 2.599982e-03 -2.599982e-03 1 1.2928 -4.6134)" class="st0" width="4.6" height="668.8"/>
		</g>
		<g>
			
				<rect x="1790.5" y="160.6" transform="matrix(1 4.599902e-03 -4.599902e-03 1 2.296 -8.2412)" class="st0" width="4.6" height="668.8"/>
		</g>
		<g>
			
				<rect x="1808.1" y="160.6" transform="matrix(1 7.199626e-03 -7.199626e-03 1 3.6109 -13.0217)" class="st0" width="4.6" height="668.8"/>
		</g>
		<g>
			
				<rect x="1825.9" y="160.5" transform="matrix(1 9.099247e-03 -9.099247e-03 1 4.5792 -16.6146)" class="st0" width="4.6" height="668.8"/>
		</g>
		<g>
			
				<rect x="1843.7" y="160.6" transform="matrix(0.9999 1.170074e-02 -1.170074e-02 0.9999 5.918 -21.566)" class="st0" width="4.6" height="668.8"/>
		</g>
		<g>
			
				<rect x="1863" y="160.5" transform="matrix(0.9998 1.820124e-02 -1.820124e-02 0.9998 9.3171 -33.8687)" class="st0" width="4.6" height="668.9"/>
		</g>
		<g>
			<path class="st0" d="M1402.5,831.7h-269.2l-0.1-2.3l-16.7-671.1h302.6L1402.5,831.7z M1137.8,827h260.1l16.5-664.1h-293.1
				L1137.8,827z"/>
		</g>
		<g>
			<path class="st0" d="M1402.4,162.9h-269.1v-22.3h269.1V162.9z M1138,158.3h259.9v-13.1H1138V158.3z"/>
		</g>
		<g>
			<path class="st0" d="M1370.1,145.2h-204.4v-15.7h204.5L1370.1,145.2L1370.1,145.2z M1170.3,140.6h195.2v-6.4h-195.2V140.6z"/>
		</g>
		<g>
			<rect x="1119" y="178.8" class="st0" width="297.3" height="4.6"/>
		</g>
		<g>
			<rect x="1119" y="195.4" class="st0" width="297.3" height="4.6"/>
		</g>
		<g>
			<rect x="1119" y="212" class="st0" width="297.3" height="4.6"/>
		</g>
		<g>
			<rect x="1119" y="228.6" class="st0" width="297.3" height="4.6"/>
		</g>
		<g>
			<rect x="1119" y="245.2" class="st0" width="297.3" height="4.6"/>
		</g>
		<g>
			<rect x="1119" y="261.8" class="st0" width="297.3" height="4.6"/>
		</g>
		<g>
			<rect x="1122" y="278.4" class="st0" width="291.9" height="4.6"/>
		</g>
		<g>
			<rect x="1122" y="295" class="st0" width="291.9" height="4.6"/>
		</g>
		<g>
			<rect x="1122.8" y="311.6" class="st0" width="290.2" height="4.6"/>
		</g>
		<g>
			<rect x="1122.8" y="328.2" class="st0" width="289.8" height="4.6"/>
		</g>
		<g>
			<rect x="1122.8" y="344.8" class="st0" width="289.4" height="4.6"/>
		</g>
		<g>
			<rect x="1124" y="361.5" class="st0" width="288.2" height="4.6"/>
		</g>
		<g>
			<rect x="1124" y="378.1" class="st0" width="287.3" height="4.6"/>
		</g>
		<g>
			<rect x="1124.8" y="394.7" class="st0" width="286.1" height="4.6"/>
		</g>
		<g>
			<rect x="1124.8" y="411.3" class="st0" width="285.7" height="4.6"/>
		</g>
		<g>
			<rect x="1125.7" y="427.9" class="st0" width="284.9" height="4.6"/>
		</g>
		<g>
			<rect x="1125.7" y="444.5" class="st0" width="284" height="4.6"/>
		</g>
		<g>
			<rect x="1125.7" y="461.1" class="st0" width="283.6" height="4.6"/>
		</g>
		<g>
			<rect x="1126.9" y="477.7" class="st0" width="282" height="4.6"/>
		</g>
		<g>
			<rect x="1126.9" y="494.3" class="st0" width="281.6" height="4.6"/>
		</g>
		<g>
			<rect x="1127.7" y="510.9" class="st0" width="280.3" height="4.6"/>
		</g>
		<g>
			<rect x="1128.1" y="527.5" class="st0" width="279.5" height="4.6"/>
		</g>
		<g>
			<rect x="1128.1" y="544.1" class="st0" width="279.1" height="4.6"/>
		</g>
		<g>
			<rect x="1129" y="560.8" class="st0" width="278.3" height="4.6"/>
		</g>
		<g>
			<rect x="1129.4" y="577.4" class="st0" width="277" height="4.6"/>
		</g>
		<g>
			<rect x="1129.8" y="594" class="st0" width="276.6" height="4.6"/>
		</g>
		<g>
			<rect x="1130.2" y="610.6" class="st0" width="275.4" height="4.6"/>
		</g>
		<g>
			<rect x="1130.6" y="627.2" class="st0" width="275" height="4.6"/>
		</g>
		<g>
			<rect x="1131" y="643.8" class="st0" width="273.7" height="4.6"/>
		</g>
		<g>
			<rect x="1131.4" y="660.4" class="st0" width="272.9" height="4.6"/>
		</g>
		<g>
			<rect x="1131.4" y="677" class="st0" width="272.5" height="4.6"/>
		</g>
		<g>
			<rect x="1132.3" y="693.6" class="st0" width="271.7" height="4.6"/>
		</g>
		<g>
			<rect x="1132.7" y="710.2" class="st0" width="270.4" height="4.6"/>
		</g>
		<g>
			<rect x="1133.1" y="726.8" class="st0" width="270" height="4.6"/>
		</g>
		<g>
			<rect x="1133.5" y="743.4" class="st0" width="269.6" height="4.6"/>
		</g>
		<g>
			<rect x="1133.9" y="760" class="st0" width="267.9" height="4.6"/>
		</g>
		<g>
			<rect x="1134.3" y="776.7" class="st0" width="267.1" height="4.6"/>
		</g>
		<g>
			<rect x="1134.7" y="793.3" class="st0" width="266.3" height="4.6"/>
		</g>
		<g>
			<rect x="1135.2" y="809.9" class="st0" width="265.5" height="4.6"/>
		</g>
		<g>
			<rect x="1266" y="160.6" class="st0" width="4.6" height="668.8"/>
		</g>
		<g>
			<rect x="1247.5" y="160.6" class="st0" width="4.6" height="668.8"/>
		</g>
		<g>
			
				<rect x="897.7" y="492.6" transform="matrix(2.299988e-03 1 -1 2.299988e-03 1724.1653 -738.3104)" class="st0" width="668.8" height="4.6"/>
		</g>
		<g>
			
				<rect x="879.8" y="492.7" transform="matrix(4.599902e-03 1 -1 4.599902e-03 1703.6196 -721.5506)" class="st0" width="668.8" height="4.6"/>
		</g>
		<g>
			
				<rect x="862.1" y="492.6" transform="matrix(6.899672e-03 1 -1 6.899672e-03 1683.1451 -704.9872)" class="st0" width="668.8" height="4.6"/>
		</g>
		<g>
			
				<rect x="844.4" y="492.6" transform="matrix(9.199222e-03 1 -1 9.199222e-03 1662.8459 -688.3242)" class="st0" width="668.8" height="4.6"/>
		</g>
		<g>
			
				<rect x="826.7" y="492.7" transform="matrix(1.150078e-02 0.9999 -0.9999 1.150078e-02 1642.6401 -671.6931)" class="st0" width="668.8" height="4.6"/>
		</g>
		<g>
			
				<rect x="807.3" y="492.6" transform="matrix(1.840112e-02 0.9998 -0.9998 1.840112e-02 1615.6106 -655.7598)" class="st0" width="668.9" height="4.6"/>
		</g>
		<g>
			<rect x="1284.5" y="160.6" class="st0" width="4.6" height="668.8"/>
		</g>
		<g>
			
				<rect x="1302.3" y="160.5" transform="matrix(1 2.599982e-03 -2.599982e-03 1 1.2912 -3.3903)" class="st0" width="4.6" height="668.8"/>
		</g>
		<g>
			
				<rect x="1319.9" y="160.6" transform="matrix(1 4.599902e-03 -4.599902e-03 1 2.2908 -6.0769)" class="st0" width="4.6" height="668.8"/>
		</g>
		<g>
			
				<rect x="1337.7" y="160.6" transform="matrix(1 7.199626e-03 -7.199626e-03 1 3.5984 -9.6348)" class="st0" width="4.6" height="668.8"/>
		</g>
		<g>
			
				<rect x="1355.4" y="160.5" transform="matrix(1 9.099247e-03 -9.099247e-03 1 4.5598 -12.334)" class="st0" width="4.6" height="668.8"/>
		</g>
		<g>
			
				<rect x="1373.2" y="160.6" transform="matrix(0.9999 1.170074e-02 -1.170074e-02 0.9999 5.886 -16.0608)" class="st0" width="4.6" height="668.8"/>
		</g>
		<g>
			
				<rect x="1392.5" y="160.5" transform="matrix(0.9998 1.820124e-02 -1.820124e-02 0.9998 9.2396 -25.3051)" class="st0" width="4.6" height="668.9"/>
		</g>
		<g>
			<path class="st0" d="M2230,69.6h-87.1V23.2h87.1V69.6z M2147.5,65h77.9V27.9h-77.9V65z"/>
		</g>
		<g>
			<rect x="2166.1" y="-15.6" class="st0" width="4.6" height="41.1"/>
		</g>
		<g>
			<rect x="2175.8" y="5" class="st0" width="4.6" height="20.6"/>
		</g>
		<g>
			<path class="st0" d="M1420.3,87.3h-302.4V65h302.5L1420.3,87.3L1420.3,87.3z M1122.5,82.7h293.2V69.6h-293.2V82.7z"/>
		</g>
		<g>
			<path class="st0" d="M1379.4,35.4h-224.3c-33.4,0-36.8-8.9-37.2-10.7c-0.1-0.7,0-1.4,0.5-1.9c0.4-0.5,1.1-0.8,1.8-0.8H1418
				c1,0,1.8,0.6,2.2,1.5c0.3,0.9,0.1,1.9-0.6,2.6C1419.1,26.3,1408.6,35.4,1379.4,35.4z M1126.1,26.5c4,2,12.3,4.2,29,4.2h224.3
				c14,0,23.4-2.1,29.2-4.2H1126.1z"/>
		</g>
		<g>
			<polygon class="st0" points="1290.3,69.6 1203.2,69.6 1203.2,34 1207.8,34 1207.8,65 1285.7,65 1285.7,34.4 1290.3,34.4 			"/>
		</g>
		<g>
			<polygon class="st0" points="1207.8,23.3 1203.2,23.3 1203.2,13 1290.3,13 1290.3,23.1 1285.7,23.1 1285.7,17.6 1207.8,17.6 			
				"/>
		</g>
		<g>
			<rect x="1226.3" y="-27.9" class="st0" width="4.6" height="41.1"/>
		</g>
		<g>
			<rect x="1236.1" y="-7.3" class="st0" width="4.6" height="20.6"/>
		</g>
		<g>
			<rect x="1418" y="73.8" class="st0" width="641.9" height="4.6"/>
		</g>
		<g>
			<path class="st0" d="M1456.6,88.2c-1.3,0-2.3-1-2.3-2.3V52.2c0-1.3,1-2.3,2.3-2.3s2.3,1,2.3,2.3v33.7
				C1459,87.1,1457.9,88.2,1456.6,88.2z"/>
		</g>
		<g>
			<path class="st0" d="M1434.7,57.4c-0.8,0-1.6-0.4-2-1.1c-0.5-0.8-0.4-1.8,0.1-2.6c7.4-10.3,18.7-6.9,23.6-3.6
				c0.8,0.5,1.2,1.5,1,2.4c-0.2,0.9-1,1.6-1.9,1.8l-20.4,3C1434.9,57.4,1434.8,57.4,1434.7,57.4z"/>
		</g>
		<g>
			<path class="st0" d="M1476.4,61.2c-0.2,0-0.5,0-0.7-0.1L1456,55c-0.9-0.3-1.5-1.1-1.6-2c-0.1-0.9,0.4-1.8,1.2-2.3
				c11.1-6,19.8,1.9,22.8,6.9c0.5,0.8,0.4,1.9-0.2,2.6C1477.8,60.9,1477.1,61.2,1476.4,61.2z"/>
		</g>
		<g>
			<path class="st0" d="M1456.6,53.2c-0.4,0-0.7-0.1-1.1-0.3c-0.8-0.4-1.3-1.3-1.2-2.3c0.5-5.2,4.5-14.9,16.6-14.4
				c1,0,1.8,0.6,2.1,1.5c0.3,0.9,0.1,1.9-0.7,2.5L1458,52.5C1457.7,53,1457.2,53.2,1456.6,53.2z"/>
		</g>
		<g>
			<path class="st0" d="M1533.8,88.2c-1.3,0-2.3-1-2.3-2.3V52.2c0-1.3,1-2.3,2.3-2.3c1.3,0,2.3,1,2.3,2.3v33.7
				C1536.1,87.1,1535,88.2,1533.8,88.2z"/>
		</g>
		<g>
			<path class="st0" d="M1514.2,58.4c-0.8,0-1.6-0.4-2-1.1c-0.5-0.8-0.4-1.8,0.1-2.6c7.6-10.2,18.8-6.6,23.6-3.3
				c0.8,0.5,1.2,1.5,1,2.4c-0.2,0.9-1,1.6-1.9,1.8l-20.5,2.7C1514.4,58.3,1514.3,58.4,1514.2,58.4z"/>
		</g>
		<g>
			<path class="st0" d="M1553.9,61.1c-0.3,0-0.5,0-0.8-0.1l-19.5-6.9c-0.9-0.3-1.5-1.1-1.5-2s0.5-1.8,1.3-2.2
				c11.4-5.6,19.7,2.7,22.5,7.9c0.5,0.8,0.4,1.9-0.3,2.6C1555.2,60.8,1554.5,61.1,1553.9,61.1z"/>
		</g>
		<g>
			<path class="st0" d="M1535.2,54.8c-0.7,0-1.4-0.3-1.9-1c-3-4.2-6.3-14.2,3.1-21.8c0.7-0.6,1.8-0.7,2.6-0.2s1.3,1.4,1.2,2.3
				l-2.7,18.7c-0.1,0.9-0.8,1.7-1.7,1.9C1535.6,54.8,1535.4,54.8,1535.2,54.8z"/>
		</g>
		<g>
			<path class="st0" d="M1610.9,88.2c-1.3,0-2.3-1-2.3-2.3V52.2c0-1.3,1-2.3,2.3-2.3s2.3,1,2.3,2.3v33.7
				C1613.2,87.1,1612.2,88.2,1610.9,88.2z"/>
		</g>
		<g>
			<path class="st0" d="M1595.5,66.9c-0.3,0-0.5,0-0.8-0.1c-0.9-0.3-1.5-1.1-1.5-2.1c-0.6-12.7,10.3-17,16.2-17.6
				c1-0.1,1.9,0.4,2.3,1.3c0.4,0.9,0.3,1.9-0.4,2.6l-14.1,15.1C1596.7,66.6,1596.1,66.9,1595.5,66.9z"/>
		</g>
		<g>
			<path class="st0" d="M1612.2,51.7c-0.9,0-1.7-0.5-2.1-1.3s-0.2-1.8,0.4-2.5c8.5-9.4,19.3-4.7,23.8-0.9c0.7,0.6,1,1.6,0.7,2.5
				c-0.3,0.9-1.1,1.5-2.1,1.6L1612.2,51.7L1612.2,51.7z"/>
		</g>
		<g>
			<path class="st0" d="M1610,52.5c-0.6,0-1.2-0.2-1.6-0.7c-3.7-3.7-8.5-13-0.4-22c0.6-0.7,1.6-1,2.5-0.6c0.9,0.3,1.5,1.2,1.5,2.1
				l0.3,18.9c0,0.9-0.5,1.8-1.4,2.2C1610.6,52.4,1610.3,52.5,1610,52.5z"/>
		</g>
		<g>
			<path class="st0" d="M1772.5,88.2c-1.3,0-2.3-1-2.3-2.3V52.2c0-1.3,1-2.3,2.3-2.3s2.3,1,2.3,2.3v33.7
				C1774.8,87.1,1773.7,88.2,1772.5,88.2z"/>
		</g>
		<g>
			<path class="st0" d="M1750.5,57.4c-0.8,0-1.6-0.4-2-1.1c-0.5-0.8-0.4-1.8,0.1-2.6c7.4-10.3,18.7-6.9,23.6-3.6
				c0.8,0.5,1.2,1.5,1,2.4s-1,1.6-1.9,1.8l-20.4,3C1750.7,57.4,1750.6,57.4,1750.5,57.4z"/>
		</g>
		<g>
			<path class="st0" d="M1792.2,61.2c-0.2,0-0.5,0-0.7-0.1l-19.7-6.1c-0.9-0.3-1.5-1.1-1.6-2s0.4-1.8,1.2-2.3
				c11.1-6,19.8,1.9,22.8,6.9c0.5,0.8,0.4,1.9-0.2,2.6C1793.6,60.9,1792.9,61.2,1792.2,61.2z"/>
		</g>
		<g>
			<path class="st0" d="M1772.5,53.2c-0.4,0-0.7-0.1-1.1-0.3c-0.8-0.4-1.3-1.3-1.2-2.3c0.5-5.2,4.6-14.9,16.6-14.4
				c1,0,1.8,0.6,2.1,1.5c0.3,0.9,0.1,1.9-0.7,2.5L1774,52.6C1773.5,53,1773,53.2,1772.5,53.2z"/>
		</g>
		<g>
			<path class="st0" d="M2002.9,88.2c-1.3,0-2.3-1-2.3-2.3V52.2c0-1.3,1-2.3,2.3-2.3s2.3,1,2.3,2.3v33.7
				C2005.2,87.1,2004.2,88.2,2002.9,88.2z"/>
		</g>
		<g>
			<path class="st0" d="M2024.9,57.4c-0.1,0-0.2,0-0.3,0l-20.4-3c-0.9-0.1-1.7-0.9-1.9-1.8c-0.2-0.9,0.2-1.9,1-2.4
				c4.9-3.2,16.2-6.7,23.6,3.6c0.5,0.8,0.6,1.8,0.1,2.6C2026.4,57,2025.7,57.4,2024.9,57.4z"/>
		</g>
		<g>
			<path class="st0" d="M1983.1,61.2c-0.7,0-1.4-0.3-1.8-0.9c-0.6-0.8-0.7-1.8-0.2-2.6c3-5,11.7-13,22.8-6.9
				c0.8,0.4,1.3,1.3,1.2,2.3c-0.1,0.9-0.7,1.7-1.6,2l-19.7,6.1C1983.6,61.1,1983.4,61.2,1983.1,61.2z"/>
		</g>
		<g>
			<path class="st0" d="M2002.9,53.2c-0.5,0-1.1-0.2-1.5-0.6l-14.3-12.3c-0.7-0.6-1-1.6-0.7-2.5s1.2-1.5,2.1-1.5
				c12.1-0.4,16.2,9.3,16.6,14.4c0.1,0.9-0.4,1.8-1.2,2.3C2003.6,53.1,2003.2,53.2,2002.9,53.2z"/>
		</g>
		<g>
			<path class="st0" d="M1925.8,88.2c-1.3,0-2.3-1-2.3-2.3V52.2c0-1.3,1-2.3,2.3-2.3s2.3,1,2.3,2.3v33.7
				C1928.1,87.1,1927,88.2,1925.8,88.2z"/>
		</g>
		<g>
			<path class="st0" d="M1945.3,58.4c-0.1,0-0.2,0-0.3,0l-20.5-2.7c-0.9-0.1-1.7-0.8-1.9-1.8c-0.2-0.9,0.2-1.9,1-2.4
				c4.9-3.3,16.1-6.9,23.6,3.3c0.6,0.7,0.6,1.8,0.1,2.6C1946.9,57.9,1946.1,58.4,1945.3,58.4z"/>
		</g>
		<g>
			<path class="st0" d="M1905.7,61.1c-0.7,0-1.3-0.3-1.8-0.8c-0.6-0.7-0.7-1.8-0.3-2.6c2.8-5.2,11.1-13.5,22.5-7.9
				c0.8,0.4,1.3,1.3,1.3,2.2s-0.7,1.7-1.5,2l-19.5,6.9C1906.2,61,1905.9,61.1,1905.7,61.1z"/>
		</g>
		<g>
			<path class="st0" d="M1924.3,54.8c-0.2,0-0.4,0-0.6-0.1c-0.9-0.2-1.6-1-1.7-1.9l-2.7-18.7c-0.1-0.9,0.3-1.9,1.2-2.3
				c0.8-0.5,1.9-0.4,2.6,0.2c9.4,7.7,6.1,17.6,3.1,21.8C1925.7,54.4,1925,54.8,1924.3,54.8z"/>
		</g>
		<g>
			<path class="st0" d="M1848.6,88.2c-1.3,0-2.3-1-2.3-2.3V52.2c0-1.3,1-2.3,2.3-2.3s2.3,1,2.3,2.3v33.7
				C1850.9,87.1,1849.9,88.2,1848.6,88.2z"/>
		</g>
		<g>
			<path class="st0" d="M1864,66.9c-0.6,0-1.3-0.3-1.7-0.7l-14.1-15.1c-0.7-0.7-0.8-1.7-0.4-2.6s1.3-1.4,2.3-1.3
				c5.9,0.5,16.8,4.9,16.2,17.6c0,0.9-0.6,1.7-1.5,2.1C1864.6,66.8,1864.3,66.9,1864,66.9z"/>
		</g>
		<g>
			<path class="st0" d="M1847.4,51.7C1847.3,51.7,1847.3,51.7,1847.4,51.7l-20.7-0.7c-1,0-1.8-0.7-2.1-1.6c-0.3-0.9,0-1.9,0.7-2.5
				c4.5-3.8,15.3-8.4,23.8,0.9c0.6,0.7,0.8,1.7,0.4,2.5C1849.1,51.2,1848.3,51.7,1847.4,51.7z"/>
		</g>
		<g>
			<path class="st0" d="M1849.6,52.5c-0.3,0-0.6-0.1-0.9-0.2c-0.9-0.4-1.4-1.2-1.4-2.2l0.3-18.9c0-1,0.6-1.8,1.5-2.1
				s1.9-0.1,2.5,0.6c8,9.1,3.2,18.4-0.4,22C1850.8,52.2,1850.2,52.5,1849.6,52.5z"/>
		</g>
		<g>
			<path class="st0" d="M1698.3,88.2c-1.3,0-2.3-1-2.3-2.3V52.2c0-1.3,1-2.3,2.3-2.3s2.3,1,2.3,2.3v33.7
				C1700.6,87.1,1699.5,88.2,1698.3,88.2z"/>
		</g>
		<g>
			<path class="st0" d="M1720.2,57.4c-0.1,0-0.2,0-0.3,0l-20.4-3c-0.9-0.1-1.7-0.9-1.9-1.8c-0.2-0.9,0.2-1.9,1-2.4
				c4.9-3.2,16.2-6.7,23.6,3.6c0.5,0.8,0.6,1.8,0.1,2.6C1721.8,57,1721,57.4,1720.2,57.4z"/>
		</g>
		<g>
			<path class="st0" d="M1678.5,61.2c-0.7,0-1.4-0.3-1.8-0.9c-0.6-0.8-0.7-1.8-0.2-2.6c3-5,11.7-13,22.8-6.9
				c0.8,0.4,1.3,1.3,1.2,2.3c-0.1,0.9-0.7,1.7-1.6,2l-19.7,6.1C1679,61.1,1678.8,61.2,1678.5,61.2z"/>
		</g>
		<g>
			<path class="st0" d="M1698.3,53.2c-0.5,0-1.1-0.2-1.5-0.6l-14.3-12.3c-0.7-0.6-1-1.6-0.7-2.5s1.2-1.5,2.1-1.5
				c12.1-0.4,16.2,9.3,16.6,14.4c0.1,0.9-0.4,1.8-1.2,2.3C1699,53.1,1698.6,53.2,1698.3,53.2z"/>
		</g>
		<g>
			<rect x="2136.6" y="33.3" class="st0" width="99.8" height="4.6"/>
		</g>
		<g>
			<rect x="2136.6" y="42.5" class="st0" width="99.8" height="4.6"/>
		</g>
	</g>
	<g>
		<path class="st0" d="M2181.4,19.9h-77.6c-14.1,0-25.5-11.4-25.5-25.5c0-12.4,8.9-22.9,20.9-25.1c1-7.8,7.6-13.8,15.6-13.8
			c3.8,0,7.4,1.4,10.2,3.8c6.4-6.6,15.2-10.3,24.5-10.3c17.9,0,32.5,13.4,34.1,31c10,1.1,17.8,9.6,17.8,19.9
			C2201.4,10.9,2192.4,19.9,2181.4,19.9z M2114.7-39.8c-6.1,0-11.1,5-11.1,11.1v2.1l-2.1,0.3c-10.7,1.1-18.7,10-18.7,20.8
			c0,11.5,9.4,20.8,20.9,20.8h77.6c8.5,0,15.4-6.9,15.4-15.4s-6.9-15.4-15.4-15.4h-2.2l-0.1-2.2c-0.5-16.1-13.5-28.6-29.6-28.6
			c-8.8,0-17,3.8-22.7,10.5l-1.8,2.1l-1.8-2.1C2121.1-38.4,2118-39.8,2114.7-39.8z"/>
	</g>
</g>
</svg>
