<?xml version="1.0" encoding="utf-8"?>
<!-- Generator: Adobe Illustrator 19.1.0, SVG Export Plug-In . SVG Version: 6.00 Build 0)  -->
<svg version="1.1" id="Layer_1" xmlns="http://www.w3.org/2000/svg" xmlns:xlink="http://www.w3.org/1999/xlink" x="0px" y="0px"
	 viewBox="-108 -46.1 393.3 885.1" style="enable-background:new -108 -46.1 393.3 885.1;" xml:space="preserve">
<style type="text/css">
	.st0{fill:#EFEFEF;}
</style>
<g id="XMLID_835_">
	<g id="XMLID_749_">
		<path id="XMLID_948_" class="st0" d="M-67,185.6c-22,0-39.8-17.9-39.8-39.8S-88.9,106-67,106c0.8,0,1.5,0.1,2.2,0.1
			c1.2-29.2,25.4-52.7,54.9-52.7c18,0,34.6,8.7,45,23.4c4.7-2.2,9.5-3.3,14.5-3.3c19.2,0,34.9,15.6,34.9,34.9c0,2.8-0.4,5.7-1.2,8.6
			h10.6v4.9H76.5l1.2-3.3c1.3-3.5,1.9-6.9,1.9-10.2c0-16.5-13.4-30-30-30c-4.8,0-9.6,1.2-14.1,3.7l-2,1.1l-1.2-1.9
			c-9.3-14.4-25-23-42.1-23c-27.6,0-50.1,22.5-50.1,50.1c0,0.2,0,0.3,0,0.5v2.8l-3.8-0.5c-1.1-0.2-2.2-0.3-3.3-0.3
			c-19.3,0-34.9,15.7-34.9,34.9s15.7,34.9,34.9,34.9l133.7-0.2v4.9L-67,185.6z"/>
	</g>
	<g id="XMLID_831_">
		<polygon id="XMLID_947_" class="st0" points="361.8,277.7 -104.4,277.7 -104.4,263.7 -68,263.6 -68,268.5 -99.5,268.6 
			-99.5,272.8 356.9,272.8 356.9,268.6 322,268.6 322,263.7 361.8,263.7 		"/>
	</g>
	<g id="XMLID_829_">
		<rect id="XMLID_946_" x="56.7" y="263.7" class="st0" width="140.2" height="4.9"/>
	</g>
	<g id="XMLID_828_">
		<path id="XMLID_945_" class="st0" d="M257.5,273.6c-40.5,0-73.5-6.6-94.2-12.2c-19.1-5.1-31.1-10.3-34.7-11.9
			c-7.2,3.6-48.1,22.1-131.2,23.5c-40.4,0.7-70.3-3.2-88.7-11.5c-14.3-6.5-16.5-13.4-16.6-14.2c-0.2-0.8,0-1.7,0.7-2.3
			c0.6-0.6,1.5-0.8,2.4-0.6c0.3,0.1,26.1,6.8,63.8-1.9c34.8-8,87.1-31.1,138.7-95.8l3.8,3.1c-29,36.4-77.1,82.8-141.7,97.6
			c-28.1,6.4-49.5,4.6-59.6,3c7.3,6.7,29.8,18.9,97.2,17.7c46.4-0.8,79.3-7.1,98.7-12.3c21-5.6,31.2-11.1,31.3-11.2
			c0.7-0.4,1.5-0.4,2.2-0.1c0.1,0.1,13,6.1,35.1,12.1c20.3,5.5,52.9,12,92.7,12c0.2,0,0.5,0,0.7,0c66.9-0.1,90.6-11.6,98.7-18.2
			c-10.2,1.5-31,3.1-58.2-3.2c-35.3-8.1-88.4-31.7-141-97.6l3.8-3.1c51.7,64.8,103.7,87.9,138.2,95.8c37.2,8.6,62.5,1.9,62.7,1.8
			c0.9-0.2,1.8,0,2.4,0.7s0.8,1.6,0.6,2.4c-0.8,2.6-10.7,25.9-107.3,26.1C258,273.6,257.8,273.6,257.5,273.6z"/>
	</g>
	<g id="XMLID_827_">
		<rect id="XMLID_944_" x="126.1" y="148.3" class="st0" width="4.9" height="98.5"/>
	</g>
	<g id="XMLID_825_">
		<rect id="XMLID_943_" x="56" y="386.4" class="st0" width="141.6" height="4.9"/>
	</g>
	<g id="XMLID_824_">
		<polygon id="XMLID_942_" class="st0" points="361.8,400.4 -104.4,400.4 -104.4,386.4 -66.9,386.4 -66.9,391.3 -99.5,391.3 
			-99.5,395.5 356.9,395.5 356.9,391.3 321.7,391.3 321.7,386.4 361.8,386.4 		"/>
	</g>
	<g id="XMLID_823_">
		<path id="XMLID_941_" class="st0" d="M257.5,396.3c-40.5,0-73.5-6.6-94.2-12.2c-19.1-5.1-31.1-10.3-34.7-11.9
			c-7.2,3.6-48.1,22.1-131.2,23.5c-40.4,0.7-70.3-3.2-88.7-11.5c-14.3-6.5-16.5-13.4-16.6-14.2c-0.2-0.8,0-1.7,0.7-2.3
			c0.6-0.6,1.5-0.9,2.4-0.6c0.6,0.2,62.1,15.8,135.1-33.8l2.8,4.1C-28.2,379.1-82,375.7-99.8,373c7.2,6.7,29.7,18.9,97.3,17.8
			c46.4-0.8,79.3-7.1,98.7-12.3c21-5.6,31.2-11.1,31.3-11.2c0.7-0.4,1.5-0.4,2.2-0.1c0.1,0.1,13,6.1,35.1,12.1
			c20.3,5.5,52.9,12,92.7,12c0.2,0,0.5,0,0.7,0c67.1-0.1,90.7-11.7,98.8-18.2c-18.6,2.7-72.4,5.4-133.8-37.7l2.8-4
			c73.8,51.8,135.9,35.9,136.5,35.7c0.9-0.2,1.8,0,2.4,0.7c0.6,0.6,0.8,1.6,0.6,2.4c-0.8,2.6-10.7,25.9-107.3,26.1
			C258,396.3,257.8,396.3,257.5,396.3z"/>
	</g>
	<g id="XMLID_821_">
		<rect id="XMLID_940_" x="126.1" y="336.3" class="st0" width="4.9" height="33.1"/>
	</g>
	<g id="XMLID_820_">
		<path id="XMLID_939_" class="st0" d="M156.3,117h-4.9c0-12.1-9.9-22-22-22s-22,9.9-22,22h-4.9c0-14.8,12.1-26.9,26.9-26.9
			C144.3,90.1,156.3,102.2,156.3,117z"/>
	</g>
	<g id="XMLID_819_">
		<path id="XMLID_936_" class="st0" d="M167.4,150.7H92.1v-36.1h75.3V150.7z M97,145.8h65.5v-26.3H97V145.8z"/>
	</g>
	<g id="XMLID_817_">
		<rect id="XMLID_935_" x="127" y="-58.2" class="st0" width="4.9" height="150.8"/>
	</g>
	<g id="XMLID_816_">
		<path id="XMLID_932_" class="st0" d="M129.4-46.7c-6.3,0-11.5-5.1-11.5-11.5s5.1-11.5,11.5-11.5c6.3,0,11.5,5.1,11.5,11.5
			S135.8-46.7,129.4-46.7z M129.4-64.7c-3.6,0-6.5,2.9-6.5,6.5c0,3.6,2.9,6.5,6.5,6.5s6.5-2.9,6.5-6.5
			C135.9-61.8,133.1-64.7,129.4-64.7z"/>
	</g>
	<g id="XMLID_815_">
		<path id="XMLID_929_" class="st0" d="M-89.7,301.7c-6.3,0-11.5-5.1-11.5-11.5s5.1-11.5,11.5-11.5c6.3,0,11.5,5.1,11.5,11.5
			S-83.4,301.7-89.7,301.7z M-89.7,283.7c-3.6,0-6.5,2.9-6.5,6.5s2.9,6.5,6.5,6.5s6.5-2.9,6.5-6.5S-86.1,283.7-89.7,283.7z"/>
	</g>
	<g id="XMLID_813_">
		<path id="XMLID_926_" class="st0" d="M345.4,301.7c-6.3,0-11.5-5.1-11.5-11.5s5.1-11.5,11.5-11.5s11.5,5.1,11.5,11.5
			C356.8,296.5,351.7,301.7,345.4,301.7z M345.4,283.7c-3.6,0-6.5,2.9-6.5,6.5s2.9,6.5,6.5,6.5s6.5-2.9,6.5-6.5
			S349,283.7,345.4,283.7z"/>
	</g>
	<g id="XMLID_812_">
		<path id="XMLID_923_" class="st0" d="M-89.7,424.4c-6.3,0-11.5-5.1-11.5-11.5s5.1-11.5,11.5-11.5c6.3,0,11.5,5.1,11.5,11.5
			S-83.4,424.4-89.7,424.4z M-89.7,406.4c-3.6,0-6.5,2.9-6.5,6.5s2.9,6.5,6.5,6.5s6.5-2.9,6.5-6.5S-86.1,406.4-89.7,406.4z"/>
	</g>
	<g id="XMLID_811_">
		<path id="XMLID_920_" class="st0" d="M345.4,424.4c-6.3,0-11.5-5.1-11.5-11.5s5.1-11.5,11.5-11.5s11.5,5.1,11.5,11.5
			S351.7,424.4,345.4,424.4z M345.4,406.4c-3.6,0-6.5,2.9-6.5,6.5s2.9,6.5,6.5,6.5s6.5-2.9,6.5-6.5S349,406.4,345.4,406.4z"/>
	</g>
	<g id="XMLID_809_">
		<path id="XMLID_919_" class="st0" d="M153.9-30.1H105c-1.4,0-2.5-1.1-2.5-2.5c0-1.4,1.1-2.5,2.5-2.5h48.9c1.4,0,2.5,1.1,2.5,2.5
			S155.2-30.1,153.9-30.1z"/>
	</g>
	<g id="XMLID_807_">
		<path id="XMLID_918_" class="st0" d="M153.9-16.5H105c-1.4,0-2.5-1.1-2.5-2.5s1.1-2.5,2.5-2.5h48.9c1.4,0,2.5,1.1,2.5,2.5
			C156.3-17.6,155.2-16.5,153.9-16.5z"/>
	</g>
	<g id="XMLID_805_">
		<path id="XMLID_917_" class="st0" d="M153.9-2.9H105c-1.4,0-2.5-1.1-2.5-2.5s1.1-2.5,2.5-2.5h48.9c1.4,0,2.5,1.1,2.5,2.5
			S155.2-2.9,153.9-2.9z"/>
	</g>
	<g id="XMLID_803_">
		<path id="XMLID_916_" class="st0" d="M153.9,10.7H105c-1.4,0-2.5-1.1-2.5-2.5s1.1-2.5,2.5-2.5h48.9c1.4,0,2.5,1.1,2.5,2.5
			S155.2,10.7,153.9,10.7z"/>
	</g>
	<g id="XMLID_801_">
		<path id="XMLID_915_" class="st0" d="M153.9,24.3H105c-1.4,0-2.5-1.1-2.5-2.5s1.1-2.5,2.5-2.5h48.9c1.4,0,2.5,1.1,2.5,2.5
			S155.2,24.3,153.9,24.3z"/>
	</g>
	<g id="XMLID_800_">
		<path id="XMLID_914_" class="st0" d="M153.9,37.9H105c-1.4,0-2.5-1.1-2.5-2.5s1.1-2.5,2.5-2.5h48.9c1.4,0,2.5,1.1,2.5,2.5
			S155.2,37.9,153.9,37.9z"/>
	</g>
	<g id="XMLID_799_">
		<path id="XMLID_913_" class="st0" d="M153.9,51.5H105c-1.4,0-2.5-1.1-2.5-2.5s1.1-2.5,2.5-2.5h48.9c1.4,0,2.5,1.1,2.5,2.5
			S155.2,51.5,153.9,51.5z"/>
	</g>
	<g id="XMLID_797_">
		<path id="XMLID_912_" class="st0" d="M153.9,65.1H105c-1.4,0-2.5-1.1-2.5-2.5s1.1-2.5,2.5-2.5h48.9c1.4,0,2.5,1.1,2.5,2.5
			S155.2,65.1,153.9,65.1z"/>
	</g>
	<g id="XMLID_796_">
		<path id="XMLID_911_" class="st0" d="M153.9,78.7H105c-1.4,0-2.5-1.1-2.5-2.5s1.1-2.5,2.5-2.5h48.9c1.4,0,2.5,1.1,2.5,2.5
			S155.2,78.7,153.9,78.7z"/>
	</g>
	<g id="XMLID_795_">
		<path id="XMLID_910_" class="st0" d="M244.7,312.9H14.2c-1.4,0-2.5-1.1-2.5-2.5s1.1-2.5,2.5-2.5h230.5c1.4,0,2.5,1.1,2.5,2.5
			S246,312.9,244.7,312.9z"/>
	</g>
	<g id="XMLID_793_">
		<path id="XMLID_909_" class="st0" d="M244.7,326.5H14.2c-1.4,0-2.5-1.1-2.5-2.5s1.1-2.5,2.5-2.5h230.5c1.4,0,2.5,1.1,2.5,2.5
			S246,326.5,244.7,326.5z"/>
	</g>
	<g id="XMLID_792_">
		<path id="XMLID_908_" class="st0" d="M244.7,435.6H14.2c-1.4,0-2.5-1.1-2.5-2.5s1.1-2.5,2.5-2.5h230.5c1.4,0,2.5,1.1,2.5,2.5
			S246,435.6,244.7,435.6z"/>
	</g>
	<g id="XMLID_791_">
		<path id="XMLID_907_" class="st0" d="M244.7,449.2H14.2c-1.4,0-2.5-1.1-2.5-2.5s1.1-2.5,2.5-2.5h230.5c1.4,0,2.5,1.1,2.5,2.5
			S246,449.2,244.7,449.2z"/>
	</g>
	<g id="XMLID_789_">
		<path id="XMLID_904_" class="st0" d="M227.7,338.5H29.6v-65.7h198.1V338.5z M34.4,333.6h188.3v-55.9H34.4V333.6z"/>
	</g>
	<g id="XMLID_788_">
		<path id="XMLID_901_" class="st0" d="M227.7,461.2H29.6v-65.7h198.1V461.2z M34.4,456.3h188.3v-55.9H34.4V456.3z"/>
	</g>
	<g id="XMLID_787_">
		<rect id="XMLID_900_" x="56" y="510.7" class="st0" width="141.6" height="4.9"/>
	</g>
	<g id="XMLID_785_">
		<polygon id="XMLID_899_" class="st0" points="361.8,524.7 -104.4,524.7 -104.4,510.7 -66.9,510.7 -66.9,515.6 -99.5,515.6 
			-99.5,519.8 356.9,519.8 356.9,515.6 321.7,515.6 321.7,510.7 361.8,510.7 		"/>
	</g>
	<g id="XMLID_784_">
		<path id="XMLID_898_" class="st0" d="M257.5,520.6c-40.5,0-73.5-6.6-94.2-12.2c-19.1-5.1-31.1-10.3-34.7-11.9
			c-7.2,3.6-48.1,22.1-131.2,23.5c-40.4,0.7-70.3-3.2-88.7-11.5c-14.3-6.5-16.5-13.4-16.6-14.2c-0.2-0.8,0-1.7,0.7-2.3
			s1.5-0.8,2.4-0.6c0.6,0.2,62.1,15.8,135.1-33.8l2.8,4.1C-28.2,503.4-82,500-99.8,497.3c7.2,6.7,29.7,18.9,97.3,17.8
			c46.4-0.8,79.3-7.1,98.7-12.3c21-5.6,31.2-11.1,31.3-11.2c0.7-0.4,1.5-0.4,2.2-0.1c0.1,0.1,13,6.1,35.1,12.1
			c20.3,5.5,52.9,12,92.7,12c0.2,0,0.5,0,0.7,0c67.1-0.1,90.7-11.7,98.8-18.2c-18.6,2.7-72.4,5.4-133.8-37.7l2.8-4
			c73.8,51.8,135.9,35.9,136.5,35.7c0.9-0.2,1.8,0,2.4,0.7c0.6,0.6,0.8,1.6,0.6,2.4c-0.8,2.7-10.7,25.9-107.3,26.1
			C258,520.6,257.8,520.6,257.5,520.6z"/>
	</g>
	<g id="XMLID_783_">
		<rect id="XMLID_897_" x="126.1" y="460.6" class="st0" width="4.9" height="33.1"/>
	</g>
	<g id="XMLID_781_">
		<path id="XMLID_894_" class="st0" d="M-89.7,548.7c-6.3,0-11.5-5.1-11.5-11.5c0-6.3,5.1-11.5,11.5-11.5c6.3,0,11.5,5.1,11.5,11.5
			C-78.3,543.6-83.4,548.7-89.7,548.7z M-89.7,530.7c-3.6,0-6.5,2.9-6.5,6.5s2.9,6.5,6.5,6.5s6.5-2.9,6.5-6.5
			S-86.1,530.7-89.7,530.7z"/>
	</g>
	<g id="XMLID_780_">
		<path id="XMLID_891_" class="st0" d="M345.4,548.7c-6.3,0-11.5-5.1-11.5-11.5c0-6.3,5.1-11.5,11.5-11.5s11.5,5.1,11.5,11.5
			C356.8,543.6,351.7,548.7,345.4,548.7z M345.4,530.7c-3.6,0-6.5,2.9-6.5,6.5s2.9,6.5,6.5,6.5s6.5-2.9,6.5-6.5
			S349,530.7,345.4,530.7z"/>
	</g>
	<g id="XMLID_779_">
		<path id="XMLID_890_" class="st0" d="M244.7,559.9H14.2c-1.4,0-2.5-1.1-2.5-2.5s1.1-2.5,2.5-2.5h230.5c1.4,0,2.5,1.1,2.5,2.5
			S246,559.9,244.7,559.9z"/>
	</g>
	<g id="XMLID_777_">
		<path id="XMLID_889_" class="st0" d="M244.7,573.5H14.2c-1.4,0-2.5-1.1-2.5-2.5s1.1-2.5,2.5-2.5h230.5c1.4,0,2.5,1.1,2.5,2.5
			S246,573.5,244.7,573.5z"/>
	</g>
	<g id="XMLID_776_">
		<path id="XMLID_886_" class="st0" d="M227.7,585.5H29.6v-65.7h198.1V585.5z M34.4,580.6h188.3v-55.9H34.4V580.6z"/>
	</g>
	<g id="XMLID_775_">
		<rect id="XMLID_885_" x="56" y="633.4" class="st0" width="141.6" height="4.9"/>
	</g>
	<g id="XMLID_773_">
		<polygon id="XMLID_884_" class="st0" points="361.8,647.4 -104.4,647.4 -104.4,633.4 -66.9,633.4 -66.9,638.3 -99.5,638.3 
			-99.5,642.5 356.9,642.5 356.9,638.3 321.7,638.3 321.7,633.4 361.8,633.4 		"/>
	</g>
	<g id="XMLID_772_">
		<path id="XMLID_883_" class="st0" d="M257.5,643.3c-40.5,0-73.5-6.6-94.2-12.2c-19.1-5.1-31.1-10.3-34.7-11.9
			c-7.2,3.6-48.1,22.1-131.2,23.5c-40.4,0.7-70.3-3.2-88.7-11.5c-14.3-6.5-16.5-13.4-16.6-14.2c-0.2-0.8,0-1.7,0.7-2.3
			s1.5-0.8,2.4-0.6c0.6,0.2,62.1,15.8,135.1-33.8l2.8,4.1C-28.2,626.1-82,622.7-99.8,620c7.2,6.7,29.7,18.9,97.3,17.8
			c46.4-0.8,79.3-7.1,98.7-12.3c21-5.6,31.2-11.1,31.3-11.2c0.7-0.4,1.5-0.4,2.2-0.1c0.1,0.1,13,6.1,35.1,12.1
			c20.5,5.5,53.2,12,93.5,12c67.1-0.1,90.7-11.7,98.8-18.2c-18.6,2.7-72.4,5.4-133.8-37.7l2.8-4c73.8,51.8,135.9,35.9,136.5,35.7
			c0.9-0.2,1.8,0,2.4,0.7c0.6,0.6,0.8,1.6,0.6,2.4c-0.8,2.7-10.7,25.9-107.3,26.1C258,643.3,257.8,643.3,257.5,643.3z"/>
	</g>
	<g id="XMLID_771_">
		<rect id="XMLID_882_" x="126.1" y="583.3" class="st0" width="4.9" height="33.1"/>
	</g>
	<g id="XMLID_769_">
		<path id="XMLID_879_" class="st0" d="M-89.7,671.4c-6.3,0-11.5-5.1-11.5-11.5c0-6.3,5.1-11.5,11.5-11.5c6.3,0,11.5,5.1,11.5,11.5
			C-78.3,666.2-83.4,671.4-89.7,671.4z M-89.7,653.4c-3.6,0-6.5,2.9-6.5,6.5s2.9,6.5,6.5,6.5s6.5-2.9,6.5-6.5
			C-83.2,656.3-86.1,653.4-89.7,653.4z"/>
	</g>
	<g id="XMLID_768_">
		<path id="XMLID_876_" class="st0" d="M345.4,671.4c-6.3,0-11.5-5.1-11.5-11.5c0-6.3,5.1-11.5,11.5-11.5s11.5,5.1,11.5,11.5
			C356.8,666.2,351.7,671.4,345.4,671.4z M345.4,653.4c-3.6,0-6.5,2.9-6.5,6.5s2.9,6.5,6.5,6.5s6.5-2.9,6.5-6.5
			C351.9,656.3,349,653.4,345.4,653.4z"/>
	</g>
	<g id="XMLID_767_">
		<path id="XMLID_875_" class="st0" d="M244.7,682.6H14.2c-1.4,0-2.5-1.1-2.5-2.5s1.1-2.5,2.5-2.5h230.5c1.4,0,2.5,1.1,2.5,2.5
			S246,682.6,244.7,682.6z"/>
	</g>
	<g id="XMLID_765_">
		<path id="XMLID_874_" class="st0" d="M244.7,696.2H14.2c-1.4,0-2.5-1.1-2.5-2.5s1.1-2.5,2.5-2.5h230.5c1.4,0,2.5,1.1,2.5,2.5
			S246,696.2,244.7,696.2z"/>
	</g>
	<g id="XMLID_764_">
		<path id="XMLID_871_" class="st0" d="M227.7,708.2H29.6v-65.7h198.1V708.2z M34.4,703.3h188.3v-55.9H34.4V703.3z"/>
	</g>
	<g id="XMLID_763_">
		<rect id="XMLID_870_" x="56" y="754.4" class="st0" width="141.6" height="4.9"/>
	</g>
	<g id="XMLID_761_">
		<polygon id="XMLID_869_" class="st0" points="361.8,768.4 -104.4,768.4 -104.4,754.4 -66.9,754.4 -66.9,759.3 -99.5,759.3 
			-99.5,763.5 356.9,763.5 356.9,759.3 321.7,759.3 321.7,754.4 361.8,754.4 		"/>
	</g>
	<g id="XMLID_760_">
		<path id="XMLID_867_" class="st0" d="M257.5,764.3c-40.5,0-73.5-6.6-94.2-12.2c-19.1-5.1-31.1-10.3-34.7-11.9
			c-7.2,3.6-48.1,22.1-131.2,23.5c-40.4,0.7-70.3-3.2-88.7-11.5c-14.3-6.5-16.5-13.4-16.6-14.2c-0.2-0.8,0-1.7,0.7-2.3
			c0.6-0.6,1.5-0.8,2.4-0.6c0.6,0.2,62.1,15.8,135.1-33.8l2.8,4.1C-28.2,747.1-82,743.7-99.8,741c7.2,6.7,29.7,18.9,97.3,17.8
			c46.4-0.8,79.3-7.1,98.7-12.3c21-5.6,31.2-11.1,31.3-11.2c0.7-0.4,1.5-0.4,2.2-0.1c0.1,0.1,13,6.1,35.1,12.1
			c20.5,5.5,53.2,12,93.5,12c67.1-0.1,90.7-11.7,98.8-18.2c-18.6,2.7-72.4,5.4-133.8-37.7l2.8-4c73.8,51.9,135.9,35.9,136.5,35.7
			c0.9-0.2,1.8,0,2.4,0.7c0.6,0.6,0.8,1.6,0.6,2.4c-0.8,2.7-10.7,25.9-107.3,26.1C258,764.3,257.8,764.3,257.5,764.3z"/>
	</g>
	<g id="XMLID_759_">
		<rect id="XMLID_865_" x="126.1" y="704.4" class="st0" width="4.9" height="33.1"/>
	</g>
	<g id="XMLID_757_">
		<path id="XMLID_859_" class="st0" d="M-89.7,792.4c-6.3,0-11.5-5.1-11.5-11.5c0-6.3,5.1-11.5,11.5-11.5c6.3,0,11.5,5.1,11.5,11.5
			C-78.3,787.3-83.4,792.4-89.7,792.4z M-89.7,774.4c-3.6,0-6.5,2.9-6.5,6.5s2.9,6.5,6.5,6.5s6.5-2.9,6.5-6.5
			S-86.1,774.4-89.7,774.4z"/>
	</g>
	<g id="XMLID_756_">
		<path id="XMLID_852_" class="st0" d="M345.4,792.4c-6.3,0-11.5-5.1-11.5-11.5c0-6.3,5.1-11.5,11.5-11.5s11.5,5.1,11.5,11.5
			C356.8,787.3,351.7,792.4,345.4,792.4z M345.4,774.4c-3.6,0-6.5,2.9-6.5,6.5s2.9,6.5,6.5,6.5s6.5-2.9,6.5-6.5
			S349,774.4,345.4,774.4z"/>
	</g>
	<g id="XMLID_755_">
		<path id="XMLID_850_" class="st0" d="M244.7,792.2H14.2c-1.4,0-2.5-1.1-2.5-2.5s1.1-2.5,2.5-2.5h230.5c1.4,0,2.5,1.1,2.5,2.5
			S246,792.2,244.7,792.2z"/>
	</g>
	<g id="XMLID_753_">
		<path id="XMLID_844_" class="st0" d="M227,802H30.1v-37.9H227V802z M33.8,798.3h189.5v-30.5H33.8V798.3z"/>
	</g>
	<g id="XMLID_752_">
		<path id="XMLID_838_" class="st0" d="M324.3,829.5H-66.5V798h390.8V829.5z M-62.2,825.1h382v-22.7h-382V825.1z"/>
	</g>
	<g id="XMLID_751_">
		<line id="XMLID_748_" class="st0" x1="-80.8" y1="800.2" x2="336.4" y2="800.2"/>
		<path id="XMLID_833_" class="st0" d="M336.4,802.4H-80.7c-1.2,0-2.2-1-2.2-2.2s1-2.2,2.2-2.2h417.1c1.2,0,2.2,1,2.2,2.2
			S337.6,802.4,336.4,802.4z"/>
	</g>
</g>
</svg>
