<?xml version="1.0" encoding="utf-8"?>
<!-- Generator: Adobe Illustrator 19.1.0, SVG Export Plug-In . SVG Version: 6.00 Build 0)  -->
<svg version="1.1" id="Calque_1" xmlns="http://www.w3.org/2000/svg" xmlns:xlink="http://www.w3.org/1999/xlink" x="0px" y="0px"
	 viewBox="0 0 162 49.5" style="enable-background:new 0 0 162 49.5;" xml:space="preserve">
<style type="text/css">
	.st0{fill:none;}
	.st1{fill:#C00418;}
</style>
<g>
	<g>
		<path class="st0" d="M61.6,11.6c0-8,0.5-10.1-4.6-10.5c0,0,0,0,0,0c-0.1,0-0.2,0-0.3,0c-4.8,0.4-4.4,2.6-4.4,10.5v26.1
			c0,8.1-0.5,10.2,4.7,10.6c0,0,0,0,0,0c5-0.4,4.5-2.6,4.5-10.6V11.6z"/>
		<path class="st1" d="M107,19.1v-7.5c0-9.1-0.6-10.5,7-10.5V0H92.8v1.1c7.5,0,7,1.5,7,10.5v6.7c-10.2-0.9-20.5-1.2-30.9-0.9v-5.8
			c0-9.1-0.6-10.5,6.9-10.5V0H38.2v1.1c1.9,0,3.3,0.1,4.3,0.4c3.1,0.8,2.8,3.3,2.8,10.2V19c-10.4,1.1-20.7,2.8-31,4.9v0c0,0,0,0,0,0
			V11.6c0-9.1-0.6-10.5,7-10.5V0H0v1.1c1.6,0,2.9,0.1,3.9,0.3C7.3,2.1,7,4.5,7,11.6v26.2c0,9.1,0.5,10.6-7,10.6v1.1h21.2v-1.1
			c-7.6,0-7-1.5-7-10.6V26.3c10.4-1.8,20.7-3.2,31-4.2v0c0,0,0,0,0,0v15.6c0,9.1,0.5,10.6-7,10.6v1.1h0.2l18.7,0l18.7,0v-1.1
			c-7.6,0-6.9-1.5-6.9-10.6V20.9c10.4-0.1,20.8,0.2,30.9,1.3v15.6c0,9.1,0.5,10.6-7,10.6v1.1H114v-1.1c-7.6,0-7-1.5-7-10.6V23
			c15.9,1.7,36.1,5.5,55,11.3c-0.3-0.9-0.6-1.9-0.8-2.9C143.3,25.2,124.1,21.2,107,19.1z M57.1,48.3C57.1,48.3,57.1,48.3,57.1,48.3
			c-5.2-0.4-4.7-2.5-4.7-10.6V11.6c0-7.9-0.4-10,4.4-10.5c0.1,0,0.2,0,0.3,0c0,0,0,0,0,0c5,0.4,4.6,2.5,4.6,10.5v26.2
			C61.6,45.8,62.1,47.9,57.1,48.3z"/>
	</g>
</g>
</svg>
