<?xml version="1.0" encoding="utf-8"?>
<!-- Generator: Adobe Illustrator 19.1.0, SVG Export Plug-In . SVG Version: 6.00 Build 0)  -->
<svg version="1.1" id="Calque_1" xmlns="http://www.w3.org/2000/svg" xmlns:xlink="http://www.w3.org/1999/xlink" x="0px" y="0px"
	 viewBox="0 0 464.4 51.6" style="enable-background:new 0 0 464.4 51.6;" xml:space="preserve">
<style type="text/css">
	.st0{fill:none;}
	.st1{fill:#C00418;}
	.st2{fill:#FFFFFF;}
</style>
<g>
	<g>
		<path class="st0" d="M63.7,12.4c0-8,0.5-10.1-4.6-10.5c0,0,0,0,0,0c-0.1,0-0.2,0-0.3,0c-4.8,0.4-4.4,2.6-4.4,10.5v26.1
			c0,8.1-0.5,10.2,4.7,10.6c0,0,0,0,0,0c5-0.4,4.5-2.6,4.5-10.6V12.4z"/>
		<path class="st1" d="M109.1,19.9v-7.5c0-9.1-0.6-10.5,7-10.5V0.7H94.9v1.1c7.5,0,7,1.5,7,10.5v6.7c-10.2-0.9-20.5-1.2-30.9-0.9
			v-5.8c0-9.1-0.6-10.5,6.9-10.5V0.7H40.3v1.1c1.9,0,3.3,0.1,4.3,0.4c3.1,0.8,2.8,3.3,2.8,10.2v7.4c-10.4,1.1-20.7,2.8-31,4.9v0
			c0,0,0,0,0,0V12.4c0-9.1-0.6-10.5,7-10.5V0.7H2.1v1.1C3.7,1.8,5,1.9,6,2.1c3.5,0.7,3.2,3.2,3.2,10.3v26.2c0,9.1,0.5,10.6-7,10.6
			v1.1h21.2v-1.1c-7.6,0-7-1.5-7-10.6V27c10.4-1.8,20.7-3.2,31-4.2v0c0,0,0,0,0,0v15.6c0,9.1,0.5,10.6-7,10.6v1.1h0.2l18.7,0l18.7,0
			v-1.1c-7.6,0-6.9-1.5-6.9-10.6V21.6c10.4-0.1,20.8,0.2,30.9,1.3v15.6c0,9.1,0.5,10.6-7,10.6v1.1h21.2v-1.1c-7.6,0-7-1.5-7-10.6
			V23.7c15.9,1.7,36.1,5.5,55,11.3c-0.3-0.9-0.6-1.9-0.8-2.9C145.4,25.9,126.1,22,109.1,19.9z M59.2,49.1
			C59.2,49.1,59.2,49.1,59.2,49.1c-5.2-0.4-4.7-2.5-4.7-10.6V12.4c0-7.9-0.4-10,4.4-10.5c0.1,0,0.2,0,0.3,0c0,0,0,0,0,0
			c5,0.4,4.6,2.5,4.6,10.5v26.2C63.7,46.5,64.2,48.7,59.2,49.1z"/>
	</g>
</g>
<g>
	<path class="st2" d="M148.2,36c0,1.5-0.1,3.1-0.3,4.9c-0.2,1.8-0.8,3.5-1.7,5.1c-0.9,1.6-2.2,2.9-4,4c-1.8,1.1-4.3,1.6-7.5,1.6
		c-3.6,0-6.5-0.9-8.6-2.7c-2.1-1.8-3.5-4.3-4.2-7.3l4.6-0.8c1.1,4.5,3.8,6.7,8.2,6.7c1.6,0,3-0.3,4.1-0.8c1.1-0.5,2-1.3,2.7-2.2
		c0.7-0.9,1.2-2,1.5-3.3s0.5-2.6,0.5-4.1V1.2h4.6V36z"/>
	<path class="st2" d="M162.7,25.8c0-3.7,0.6-7.2,1.9-10.3c1.2-3.1,3-5.9,5.2-8.2s4.9-4.1,8-5.4c3.1-1.3,6.6-1.9,10.3-1.9
		s7.2,0.6,10.3,1.9c3.1,1.3,5.8,3.1,8,5.4c2.2,2.3,4,5,5.2,8.2c1.2,3.1,1.9,6.6,1.9,10.3s-0.6,7.2-1.9,10.4c-1.2,3.2-3,5.9-5.2,8.2
		c-2.2,2.3-4.9,4.1-8,5.3c-3.1,1.3-6.6,1.9-10.3,1.9s-7.2-0.6-10.3-1.9c-3.1-1.3-5.8-3.1-8-5.3s-4-5-5.2-8.2
		C163.3,33,162.7,29.6,162.7,25.8z M167.3,25.8c0,3.1,0.5,5.9,1.5,8.5s2.4,4.9,4.2,6.9c1.8,1.9,4,3.5,6.6,4.6
		c2.6,1.1,5.5,1.7,8.6,1.7s6.1-0.6,8.6-1.7c2.6-1.1,4.8-2.6,6.6-4.6c1.8-1.9,3.2-4.2,4.2-6.9s1.5-5.5,1.5-8.5c0-3.1-0.5-5.9-1.5-8.5
		c-1-2.6-2.4-4.9-4.2-6.9c-1.8-1.9-4-3.5-6.6-4.6c-2.6-1.1-5.4-1.7-8.6-1.7s-6.1,0.6-8.6,1.7c-2.6,1.1-4.8,2.6-6.6,4.6
		c-1.8,1.9-3.2,4.2-4.2,6.9C167.8,19.9,167.3,22.8,167.3,25.8z"/>
	<path class="st2" d="M262.9,31.6c0,2.6-0.3,5.2-0.9,7.6c-0.6,2.4-1.6,4.5-3,6.4c-1.4,1.9-3.3,3.3-5.6,4.4c-2.3,1.1-5.1,1.7-8.4,1.7
		c-3.3,0-6.1-0.6-8.4-1.7c-2.3-1.1-4.1-2.6-5.6-4.4c-1.4-1.9-2.4-4-3-6.4c-0.6-2.4-0.9-4.9-0.9-7.6V1.2h4.6v29.2
		c0,1.8,0.2,3.6,0.5,5.6s1,3.8,1.9,5.6c0.9,1.7,2.3,3.1,4,4.2c1.7,1.1,4,1.7,6.9,1.7c2.9,0,5.2-0.6,6.9-1.7c1.7-1.1,3.1-2.5,4-4.2
		c0.9-1.7,1.6-3.6,1.9-5.6s0.5-3.9,0.5-5.6V1.2h4.6V31.6z"/>
	<path class="st2" d="M279.6,1.2h12.9c0.6,0,1.5,0,2.6,0.1c1.1,0,2.3,0.2,3.6,0.4c1.3,0.2,2.6,0.6,4,1.1c1.3,0.5,2.5,1.2,3.6,2.2
		c1.1,1,1.9,2.2,2.6,3.7c0.7,1.5,1,3.3,1,5.4c0,2.4-0.4,4.3-1.2,5.8c-0.8,1.5-1.8,2.8-3.1,3.7c-1.2,0.9-2.6,1.7-4.1,2.1
		c-1.5,0.5-2.9,0.8-4.2,1l14.3,23.6h-5.2l-13.8-23.3h-8.5v23.3h-4.6V1.2z M284.2,22.9h9.7c2.4,0,4.4-0.3,5.9-0.9
		c1.5-0.6,2.7-1.3,3.5-2.2c0.8-0.9,1.4-1.8,1.7-2.8c0.3-1,0.5-1.9,0.5-2.8c0-0.8-0.1-1.8-0.5-2.8c-0.3-1-0.9-2-1.7-2.8
		c-0.8-0.9-2-1.6-3.5-2.2c-1.5-0.6-3.5-0.9-5.9-0.9h-9.7V22.9z"/>
	<path class="st2" d="M324.9,1.2h5.9l29.9,43h0.1v-43h4.6v49.1h-5.9l-29.9-43h-0.1v43h-4.6V1.2z"/>
	<path class="st2" d="M398.1,1.2h4.7l20.7,49.1h-5.1l-5.3-13.1h-26l-5.6,13.1h-4.8L398.1,1.2z M400.3,6.2l-11.5,26.9h22.6L400.3,6.2
		z"/>
	<path class="st2" d="M434.8,1.2h4.6v45h22.9v4.2h-27.5V1.2z"/>
</g>
</svg>
