<?xml version="1.0" encoding="utf-8"?>
<!-- Generator: Adobe Illustrator 19.1.0, SVG Export Plug-In . SVG Version: 6.00 Build 0)  -->
<svg version="1.1" id="Calque_1" xmlns="http://www.w3.org/2000/svg" xmlns:xlink="http://www.w3.org/1999/xlink" x="0px" y="0px"
	 viewBox="0 0 467 50.4" style="enable-background:new 0 0 467 50.4;" xml:space="preserve">
<style type="text/css">
	.st0{fill:none;}
	.st1{fill:#C00418;}
</style>
<g>
	<g>
		<path class="st0" d="M65.5,11.1c0-8,0.5-10.1-4.6-10.5c0,0,0,0,0,0c-0.1,0-0.2,0-0.3,0c-4.8,0.4-4.4,2.6-4.4,10.5v26.1
			c0,8.1-0.5,10.2,4.7,10.6c0,0,0,0,0,0c5-0.4,4.5-2.6,4.5-10.6V11.1z"/>
		<path class="st1" d="M110.9,18.6v-7.5c0-9.1-0.6-10.5,7-10.5v-1.1H96.7v1.1c7.5,0,7,1.5,7,10.5v6.7c-10.2-0.9-20.5-1.2-30.9-0.9
			v-5.8c0-9.1-0.6-10.5,6.9-10.5v-1.1H42.1v1.1c1.9,0,3.3,0.1,4.3,0.4c3.1,0.8,2.8,3.3,2.8,10.2v7.4c-10.4,1.1-20.7,2.8-31,4.9v0
			c0,0,0,0,0,0V11.1c0-9.1-0.6-10.5,7-10.5v-1.1H3.9v1.1c1.6,0,2.9,0.1,3.9,0.3c3.5,0.7,3.2,3.2,3.2,10.3v26.2
			c0,9.1,0.5,10.6-7,10.6V49h21.2v-1.1c-7.6,0-7-1.5-7-10.6V25.8c10.4-1.8,20.7-3.2,31-4.2v0c0,0,0,0,0,0v15.6
			c0,9.1,0.5,10.6-7,10.6V49h0.2L61,49l18.7,0v-1.1c-7.6,0-6.9-1.5-6.9-10.6V20.4c10.4-0.1,20.8,0.2,30.9,1.3v15.6
			c0,9.1,0.5,10.6-7,10.6V49h21.2v-1.1c-7.6,0-7-1.5-7-10.6V22.5c15.9,1.7,36.1,5.5,55,11.3c-0.3-0.9-0.6-1.9-0.8-2.9
			C147.2,24.7,128,20.7,110.9,18.6z M61,47.8C61,47.8,61,47.8,61,47.8c-5.2-0.4-4.7-2.5-4.7-10.6V11.1c0-7.9-0.4-10,4.4-10.5
			c0.1,0,0.2,0,0.3,0c0,0,0,0,0,0c5,0.4,4.6,2.5,4.6,10.5v26.2C65.5,45.3,66,47.4,61,47.8z"/>
	</g>
</g>
<g>
	<path d="M150.1,34.7c0,1.5-0.1,3.1-0.3,4.9c-0.2,1.8-0.8,3.5-1.7,5.1c-0.9,1.6-2.2,2.9-4,4c-1.8,1.1-4.3,1.6-7.5,1.6
		c-3.6,0-6.5-0.9-8.6-2.7c-2.1-1.8-3.5-4.3-4.2-7.3l4.6-0.8c1.1,4.5,3.8,6.7,8.2,6.7c1.6,0,3-0.3,4.1-0.8c1.1-0.5,2-1.3,2.7-2.2
		c0.7-0.9,1.2-2,1.5-3.3c0.3-1.3,0.5-2.6,0.5-4.1V0h4.6V34.7z"/>
	<path d="M164.5,24.6c0-3.7,0.6-7.2,1.9-10.3c1.2-3.1,3-5.9,5.2-8.2s4.9-4.1,8-5.4c3.1-1.3,6.6-1.9,10.3-1.9c3.7,0,7.2,0.6,10.3,1.9
		c3.1,1.3,5.8,3.1,8,5.4s4,5,5.2,8.2c1.2,3.1,1.9,6.6,1.9,10.3s-0.6,7.2-1.9,10.4c-1.2,3.2-3,5.9-5.2,8.2s-4.9,4.1-8,5.3
		c-3.1,1.3-6.6,1.9-10.3,1.9c-3.7,0-7.2-0.6-10.3-1.9c-3.1-1.3-5.8-3.1-8-5.3s-4-5-5.2-8.2C165.1,31.8,164.5,28.3,164.5,24.6z
		 M169.1,24.6c0,3.1,0.5,5.9,1.5,8.5s2.4,4.9,4.2,6.9c1.8,1.9,4,3.5,6.6,4.6c2.6,1.1,5.5,1.7,8.6,1.7s6.1-0.6,8.6-1.7
		c2.6-1.1,4.8-2.6,6.6-4.6c1.8-1.9,3.2-4.2,4.2-6.9s1.5-5.5,1.5-8.5c0-3.1-0.5-5.9-1.5-8.5c-1-2.6-2.4-4.9-4.2-6.9
		c-1.8-1.9-4-3.5-6.6-4.6c-2.6-1.1-5.4-1.7-8.6-1.7s-6.1,0.6-8.6,1.7c-2.6,1.1-4.8,2.6-6.6,4.6c-1.8,1.9-3.2,4.2-4.2,6.9
		C169.6,18.7,169.1,21.5,169.1,24.6z"/>
	<path d="M264.7,30.3c0,2.6-0.3,5.2-0.9,7.6c-0.6,2.4-1.6,4.5-3,6.4s-3.3,3.3-5.6,4.4c-2.3,1.1-5.1,1.7-8.4,1.7
		c-3.3,0-6.1-0.6-8.4-1.7c-2.3-1.1-4.1-2.6-5.6-4.4c-1.4-1.9-2.4-4-3-6.4c-0.6-2.4-0.9-4.9-0.9-7.6V0h4.6v29.2
		c0,1.8,0.2,3.6,0.5,5.6s1,3.8,1.9,5.6c0.9,1.7,2.3,3.1,4,4.2c1.7,1.1,4,1.7,6.9,1.7c2.9,0,5.2-0.6,6.9-1.7c1.7-1.1,3.1-2.5,4-4.2
		c0.9-1.7,1.6-3.6,1.9-5.6c0.3-2,0.5-3.9,0.5-5.6V0h4.6V30.3z"/>
	<path d="M281.4,0h12.9c0.6,0,1.5,0,2.6,0.1c1.1,0,2.3,0.2,3.6,0.4c1.3,0.2,2.6,0.6,4,1.1c1.3,0.5,2.5,1.2,3.6,2.2
		c1.1,1,1.9,2.2,2.6,3.7c0.7,1.5,1,3.3,1,5.4c0,2.4-0.4,4.3-1.2,5.8c-0.8,1.5-1.8,2.8-3.1,3.7c-1.2,0.9-2.6,1.7-4.1,2.1
		c-1.5,0.5-2.9,0.8-4.2,1l14.3,23.6h-5.2l-13.8-23.3H286v23.3h-4.6V0z M286,21.7h9.7c2.4,0,4.4-0.3,5.9-0.9c1.5-0.6,2.7-1.3,3.5-2.2
		c0.8-0.9,1.4-1.8,1.7-2.8c0.3-1,0.5-1.9,0.5-2.8c0-0.8-0.1-1.8-0.5-2.8c-0.3-1-0.9-2-1.7-2.8c-0.8-0.9-2-1.6-3.5-2.2
		c-1.5-0.6-3.5-0.9-5.9-0.9H286V21.7z"/>
	<path d="M326.7,0h5.9l29.9,43h0.1V0h4.6v49.1h-5.9l-29.9-43h-0.1v43h-4.6V0z"/>
	<path d="M399.9,0h4.7l20.7,49.1h-5.1l-5.3-13.1h-26l-5.6,13.1h-4.8L399.9,0z M402.1,5l-11.5,26.9h22.6L402.1,5z"/>
	<path d="M436.6,0h4.6v45h22.9v4.2h-27.5V0z"/>
</g>
</svg>
