<svg version="1.1" id="Layer_1" xmlns="http://www.w3.org/2000/svg" x="0" y="0" viewBox="-114 -70.4 433.8 933.4" xml:space="preserve"><style type="text/css">.st0{fill:#f0efe9}</style><path class="st0" d="M-76.8 372.4c-20.5 0-37.2-16.7-37.2-37.2S-97.3 298-76.8 298c.7 0 1.4.1 2.1.1C-73.6 270.8-51 249-23.5 249c16.8 0 32.3 8.1 41.9 21.8 4.4-2 8.9-3.1 13.5-3.1 17.9 0 32.5 14.6 32.5 32.5h-4.6c0-15.4-12.5-28-28-28-4.5 0-8.9 1.2-13.2 3.5l-1.9 1-1.1-1.8c-8.7-13.4-23.3-21.4-39.3-21.4-25.8 0-46.7 21-46.7 46.7v3l-3.6-.5c-1.1-.1-2.1-.3-3.1-.3-18 0-32.6 14.6-32.6 32.6s14.6 32.6 32.6 32.6l126.3-.2v4.6l-126 .4zM235 266.8c-8 0-15.6-2.9-21.5-8.2-10.3 2.5-20.6.4-29-5.2-5.1 5.2-12 8.1-19.3 8.1 0 0-3.6.2-7.7-1.1l1.4-4.3c3.2 1.1 6.1.9 6.1.9 6.8 0 13.1-2.9 17.4-8.1l1.4-1.7 1.7 1.3c7.9 6 18 8.1 28 5.4l1.3-.3.9.9c5.2 5.1 12.1 7.8 19.3 7.8 15.3 0 27.8-12.5 27.8-27.8s-12.5-27.8-27.8-27.8H233.1l-.7-1.1c-6-9.6-16.2-15.4-27.5-15.4-13.6 0-25.8 8.6-30.4 21.4l-.7 2-2.1-.6c-2.1-.7-4.3-1-6.6-1-4.9 0-9.5 1.5-13.4 4.5l-2.7-3.7c4.7-3.5 10.3-5.4 16.2-5.4 2 0 3.9.2 5.9.6 5.8-13.5 19.2-22.4 33.9-22.4 12.4 0 23.8 6.1 30.7 16.4 17.5.3 31.7 14.7 31.7 32.3 0 17.8-14.5 32.5-32.4 32.5z"/><path transform="rotate(1.794 108.469 434.008) scale(.99999)" class="st0" d="M106.2 423.7h4.6v20.7h-4.6z"/><path transform="rotate(1.794 106.895 460.425) scale(.99999)" class="st0" d="M104.6 456.4h4.6v8.1h-4.6z"/><path class="st0" d="M168.3 872.8H87.5l16.4-394 4.6.1-16.3 389.3h71.4l-16.4-389.3 4.6-.1z"/><path transform="matrix(.0312 .9995 -.9995 .0312 604.705 296.788)" class="st0" d="M145.2 458h8.2v4.6h-8.2z"/><path transform="matrix(.0312 .9995 -.9995 .0312 576.926 270.194)" class="st0" d="M138.7 430.4h20.7v4.6h-20.7z"/><path class="st0" d="M127.9 429.3c-46.2 0-83.7-37.5-83.7-83.7s37.5-83.7 83.7-83.7 83.7 37.5 83.7 83.7-37.6 83.7-83.7 83.7zm0-162.8c-43.6 0-79.1 35.5-79.1 79.1s35.5 79.1 79.1 79.1 79.1-35.5 79.1-79.1-35.5-79.1-79.1-79.1z"/><path class="st0" d="M127.4 428.8c-36-10.4-61.2-44.6-61.2-83.3 0-38.6 25.1-72.8 61.1-83.2l1.3 4.4c-34 9.8-57.8 42.3-57.8 78.8 0 36.6 23.8 69 57.8 78.9l-1.2 4.4z"/><path class="st0" d="M126.5 429c-19-13.7-31.3-46.5-31.3-83.5 0-36.8 12.2-69.5 31.1-83.4l2.7 3.7c-17.5 12.8-29.2 44.8-29.2 79.7 0 35 11.8 67 29.4 79.8l-2.7 3.7z"/><path class="st0" d="M129.2 429l-2.7-3.7c17.6-12.7 29.4-44.8 29.4-79.8 0-34.9-11.7-66.9-29.2-79.7l2.7-3.7c18.9 13.8 31.1 46.5 31.1 83.4s-12.3 69.7-31.3 83.5z"/><path class="st0" d="M128.6 428.8l-1.3-4.4c34.1-9.8 57.8-42.2 57.8-78.9 0-36.6-23.8-69-57.8-78.8l1.3-4.4c36 10.4 61.1 44.6 61.1 83.2.1 38.6-25.1 72.9-61.1 83.3zM164.5 458.5H91.3v-17.8h73.2v17.8zm-68.6-4.6H160v-8.6H95.9v8.6z"/><path class="st0" d="M160.5 266.2H95.3v-17.8h65.2v17.8zm-60.6-4.6h56V253h-56v8.6zM160.5 171.6H95.3v-17.8h65.2v17.8zM99.9 167h56v-8.6h-56v8.6zM164.5 479.9H91.3v-17.8h73.2v17.8zm-68.6-4.6H160v-8.6H95.9v8.6zM54 295.9h147.8v4.6H54zM100.1 237.9h55.6v4.6h-55.6zM100.1 222.6h55.6v4.6h-55.6zM100.1 207.4h55.6v4.6h-55.6zM100.1 192.1h55.6v4.6h-55.6zM111.4 83.8h33v4.6h-33zM111.4 73.1h33v4.6h-33zM119.6 143.4h16.7v4.6h-16.7zM119.6 132.6h16.7v4.6h-16.7zM119.6 112.8h16.7v4.6h-16.7zM119.6 102.1h16.7v4.6h-16.7zM122.9 57.8h10v4.6h-10zM122.9 47.1h10v4.6h-10zM122.9 27.3h10v4.6h-10zM122.9 16.6h10v4.6h-10zM117.5 2.9h20.8v4.6h-20.8zM117.5-7.8h20.8v4.6h-20.8zM100.1 176.9h55.6v4.6h-55.6z"/><path class="st0" d="M114.9 169.6h4.6v81h-4.6zM136.3 169.6h4.6v81h-4.6zM43.5 375.3h168.9v4.6H43.5zM48.3 387.5h159.3v4.6H48.3z"/><path class="st0" d="M125.6 264.2h4.6V427h-4.6zM152.2 253h-48.6v-85.5h48.6V253zm-44.1-4.6h39.5v-76.3h-39.5v76.3zM138.5 158.4h-21.3V72.9h21.3v85.5zm-16.7-4.6H134V77.4h-12.2v76.4z"/><path class="st0" d="M135.2 77.4h-14.6V-8h14.6v85.4zm-10.1-4.5h5.5V-3.4h-5.5v76.3z"/><path class="st0" d="M125.6-60.3h4.6v54.6h-4.6z"/></svg>