<svg version="1.1" id="Layer_1" xmlns="http://www.w3.org/2000/svg" x="0" y="0" viewBox="-68 -54 474.4 916.3" xml:space="preserve"><style type="text/css">.st0{fill:#f0efe9}</style><path class="st0" d="M-28.7 509.5c-21.7 0-39.3-17.6-39.3-39.3 0-21.7 17.6-39.3 39.3-39.3.8 0 1.5.1 2.2.1 1.2-28.8 25-51.9 54.1-51.9 17.7 0 34.1 8.6 44.3 23.1 4.6-2.2 9.4-3.3 14.3-3.3 19 0 34.4 15.4 34.4 34.4h-4.8c0-16.3-13.3-29.5-29.5-29.5-4.8 0-9.5 1.2-13.9 3.7l-2 1.1-1.2-1.9C60 392.5 44.5 384 27.7 384c-27.2 0-49.4 22.1-49.4 49.4V436.6l-3.8-.5c-1.1-.2-2.2-.3-3.2-.3-19 0-34.4 15.5-34.4 34.4s15.5 34.4 34.4 34.4l146.3-.2v4.8l-146.3.3zM414.2 315.7c-8.5 0-16.5-3.1-22.8-8.7-10.9 2.6-21.8.5-30.7-5.5-5.4 5.5-12.7 8.6-20.4 8.6 0 0-3.8.2-8.1-1.2l1.5-4.6c3.4 1.1 6.4 1 6.5 1 7.2 0 13.8-3.1 18.3-8.5l1.5-1.8 1.8 1.4c8.4 6.3 19 8.6 29.6 5.7l1.3-.4 1 1c5.5 5.3 12.8 8.3 20.4 8.3 16.2 0 29.3-13.2 29.3-29.3s-13.2-29.3-29.3-29.3h-2l-.7-1.2c-6.3-10.2-17.2-16.2-29.1-16.2-14.3 0-27.2 9.1-32.1 22.6l-.8 2.2-2.2-.7c-2.2-.7-4.6-.9-7.1-1-12-.8-18.4 5.5-20.3 11.7l-4.6-1.4c3.1-10 13-15.9 25.2-15.1 2 .1 4 .3 6 .7 6.1-14.3 20.3-23.7 35.9-23.7 13.1 0 25.1 6.5 32.4 17.4 18.5.4 33.5 15.6 33.5 34.2.2 18.5-15.1 33.8-34 33.8z"/><path class="st0" d="M363.3 862.3h-17.7c-.7 0-1.5-.3-1.9-.9-.5-.6-.6-1.4-.4-2.1 16.9-66.3 26.6-163.1 28.2-180.3l-191.7.5v180.4c0 1.3-1.1 2.4-2.4 2.4h-13c-.9 0-1.8-.5-2.2-1.4l-22-45.2c-.2-.3-.2-.7-.2-1.1l-.3-521.4h4.8l.3 520.9 21.1 43.3h9V677.2c0-1.3 1.1-2.4 2.4-2.4l196.7-.5c.7 0 1.3.3 1.8.8s.7 1.2.6 1.8c-.1 1.1-9.6 107.7-27.8 180.7h12.8c29.9-119.1 37-237.5 21.1-351.8-12.8-92-40.4-181.6-82.1-266.3-37.1-75.4-78.7-133-107.1-168-23.1-28.5-41.4-47.1-49.2-54.6l.2 255.7h-4.8l-.1-261.4c0-1 .6-1.8 1.4-2.2.9-.4 1.9-.2 2.6.4.2.2 22.7 20.7 53.6 58.9 28.5 35.2 70.4 93 107.7 168.9 41.9 85.2 69.7 175.3 82.6 267.8 16.1 115.6 8.8 235.3-21.7 355.6-.3 1.1-1.2 1.7-2.3 1.7z"/><path class="st0" d="M375.1 666.8H177.3c-1.3 0-2.4-1.1-2.4-2.4V485.8c0-1.3 1.1-2.4 2.4-2.4H370c1.2 0 2.2.9 2.4 2.1 11.5 92.2 5.2 178.1 5.1 178.9-.1 1.4-1.2 2.4-2.4 2.4zm-195.4-5h193.1c.9-14 5-91-5-173.6H179.6l.1 173.6zM368.4 475.8H177.3c-.6 0-1.3-.3-1.7-.7-.5-.5-.7-1.1-.7-1.7l.5-181.7c0-1.3 1.1-2.4 2.4-2.4H313c.9 0 1.7.5 2.1 1.3 24.1 45.5 54.3 176.7 55.6 182.3.2.7 0 1.5-.5 2-.4.6-1.1.9-1.8.9zM179.7 471h185.6c-4.7-19.9-32.1-134.6-53.8-176.9H180.2l-.5 176.9zM177.8 278c-.6 0-1.3-.3-1.7-.7-.5-.5-.7-1.1-.7-1.7l-.5-208c0-1 .6-1.9 1.6-2.3 1-.3 2 0 2.7.8 48.2 59.6 80.6 113 99.4 147.2 20.3 37.2 29.4 60.7 29.5 60.9.3.7.2 1.6-.3 2.2-.4.7-1.2 1-2 1.1l-128 .5zm1.9-203.5l.5 198.7 121.9-.5c-7.1-17.2-43.4-99.2-122.4-198.2zM113.4 296.8c-16.6 0-30.8-.9-30.9-.9l.3-4.8c19.3 1.3 71.3 2.6 80.6-6.1.9-.8 1-1.4 1-1.8 0-.3-.1-.9-.9-1.6-2.5-2.3-11.5-6.3-44-6.5-18.9-.2-36.5 1-36.7 1l-.3-4.8c7.3-.5 72.1-4.6 84.3 6.8 2 1.9 2.4 3.8 2.4 5.2s-.4 3.4-2.5 5.4c-5.5 5.2-21 7.9-47.3 8.2-2-.3-4-.1-6-.1z"/><path class="st0" d="M91 272.9h4.8v20.5H91zM120.3 272.4h-4.8v-27.6c0-1.3 1.1-2.4 2.4-2.4h23.9v4.8h-21.5v25.2zM164.4 862.3h-46.5c-1.3 0-2.4-1.1-2.4-2.4V294.2h4.8v563.3h44l.1 4.8zM177.7 233.1h109.8v4.8H177.7zM177.7 254.1h119.1v4.8H177.7zM177.7 310.5h144.7v4.8H177.7zM177.7 330.6h151.2v4.8H177.7zM177.7 350.6h157v4.8h-157zM177.7 370.7h162.6v4.8H177.7zM177.7 390.7h169v4.8h-169zM177.7 410.8h175.1v4.8H177.7zM177.7 430.8h180.6v4.8H177.7zM177.7 450.8h185.8v4.8H177.7zM177.7 502.4h194.4v4.8H177.7zM177.7 522.5h196.1v4.8H177.7zM177.7 542.5h197.5v4.8H177.7zM177.7 562.7h198.5v4.8H177.7zM177.7 582.7h198.5v4.8H177.7zM177.7 602.8h199.1v4.8H177.7zM177.7 622.8h198.5v4.8H177.7zM177.7 642.8H376v4.8H177.7zM177.7 694.4h194.4v4.8H177.7zM177.7 714.4H369v4.8H177.7zM177.7 734.4h189.4v4.8H177.7zM177.7 754.5h187.2v4.8H177.7zM177.7 774.5h184v4.8h-184zM177.7 794.7h181.4v4.8H177.7zM177.7 814.7h177.5v4.8H177.7zM177.7 834.8h172.5v4.8H177.7z"/><path class="st0" d="M177.3 475.8c-.5 0-1-.2-1.4-.5-.9-.7-1.2-2-.7-3 1.6-3.1 38.5-77.5 60.3-105.6 18.8-24.3 73.7-74.6 76-76.8.8-.8 2.1-.9 3-.2s1.3 1.9.8 2.9c-1.2 2.9-29.8 70.4-54.4 99.3-26.3 30.9-81.4 82.7-82 83.2-.4.5-1 .7-1.6.7zm128.8-174.4c-16.6 15.5-52.8 50-66.9 68.2-16.2 20.9-41.7 69.4-53.5 92.3 17.2-16.5 52.2-50.5 71.5-73.2 18.4-21.5 39.7-66.7 48.9-87.3z"/><path transform="rotate(36.765 245.213 382.669)" class="st0" d="M242.8 269.3h4.8v226.8h-4.8z"/><path class="st0" d="M177.3 666.8c-.7 0-1.3-.3-1.8-.8-.8-.9-.8-2.2-.1-3.1.7-.8 66-81.8 90.4-105.6 21.2-20.6 99.5-71.3 102.8-73.4 1-.6 2.3-.5 3.1.4.8.9.9 2.2.2 3.1-.5.6-47.6 62.4-73.8 89.5-30.1 31-115.8 87.2-119.5 89.6-.4 0-.9.3-1.3.3zm182-171.2c-23.4 15.4-74.2 49.5-90.1 65-18.5 17.9-60.6 69-80 92.8 25.9-17.5 82.7-56.7 105.4-80.1 19.2-19.8 49.8-58.5 64.7-77.7z"/><path transform="rotate(47.188 273.665 575.063)" class="st0" d="M271.3 443.7h4.8v262.7h-4.8z"/><path class="st0" d="M178.9 860.8c-.7 0-1.3-.3-1.8-.8-.8-.9-.8-2.2-.1-3.1.7-.8 68.2-84.2 92.7-108 21.2-20.5 98.9-72 102.2-74.2 1-.7 2.3-.5 3.1.4.8.9.9 2.2.2 3.1-.5.6-47.8 64-74.1 91-30.1 31-117.1 88.8-120.8 91.2-.5.3-1 .4-1.4.4zm183.7-174.1c-23.2 15.7-73.6 50.2-89.5 65.6-18.5 17.9-62 70.5-81.9 94.9 26.3-18 83.7-58 106.4-81.4 19.2-19.9 50-59.6 65-79.1z"/><path transform="rotate(46.929 275.936 767.528)" class="st0" d="M273.5 634.5h4.8v266h-4.8z"/><path class="st0" d="M141.8 247.2h-11.9c-1.3 0-2.4-1.1-2.4-2.4V-112c0-1.3 1.1-2.4 2.4-2.4h11.9c1.3 0 2.4 1.1 2.4 2.4v356.8c0 1.3-1.1 2.4-2.4 2.4zm-9.5-4.8h7.1v-352h-7.1v352zM164.4 857.5h181.2v4.8H164.4zM267.5 225.9h-68.9c-1.3 0-2.4-1.1-2.4-2.4v-7.7c0-1.3 1.1-2.4 2.4-2.4h68.9c1.3 0 2.4 1.1 2.4 2.4v7.7c0 1.3-1.1 2.4-2.4 2.4zM201 221h64.1v-2.9H201v2.9z"/><path class="st0" d="M229.9 235h-4.8c0-1.4-.5-2.6-1.7-3.7-5.1-4.9-19.6-5.5-24.7-5.3l-.2-4.8c2.1-.1 20.8-.5 28.2 6.7 2.1 1.9 3.2 4.3 3.2 7.1zM241.3 235h-4.8c0-2.8 1.1-5.2 3.2-7.2 7.5-7.2 26.1-6.8 28.2-6.7l-.2 4.8c-5.2-.2-19.6.4-24.7 5.4-1.2 1-1.7 2.2-1.7 3.7zM158.2 788.4c-4.1 0-7.5-3.4-7.5-7.5s3.4-7.5 7.5-7.5c4.2 0 7.5 3.4 7.5 7.5s-3.4 7.5-7.5 7.5zm0-10.2c-1.5 0-2.7 1.2-2.7 2.7s1.2 2.7 2.7 2.7 2.7-1.2 2.7-2.7-1.2-2.7-2.7-2.7zM158.2 809.4c-4.1 0-7.5-3.4-7.5-7.5s3.4-7.5 7.5-7.5c4.2 0 7.5 3.4 7.5 7.5s-3.4 7.5-7.5 7.5zm0-10.2c-1.5 0-2.7 1.2-2.7 2.7s1.2 2.7 2.7 2.7 2.7-1.2 2.7-2.7-1.2-2.7-2.7-2.7zM206 163.8h4.8v51.9H206zM216.8 181.5h4.8v34.2h-4.8z"/></svg>