<svg version="1.1" id="Layer_1" xmlns="http://www.w3.org/2000/svg" x="0" y="0" viewBox="203 -54 1017.9 900" xml:space="preserve"><style type="text/css">.st0{fill:#f0efe9}</style><g id="XMLID_978_"><g id="XMLID_1126_"><path id="XMLID_1001_" class="st0" d="M918.6 804.5h-4.4v-49.3H441.7v49.3h-4.4v-53.7h481.3z"/></g><g id="XMLID_1124_"><path id="XMLID_1000_" class="st0" d="M378 750.8h609.6v4.4H378z"/></g><g id="XMLID_1120_"><path id="XMLID_997_" class="st0" d="M714.8 755.2h-73.6v-42.6c0-1.9.2-3.9.4-5.8 2.9-18 18.2-31 36.4-31s33.5 13 36.4 31c.3 1.9.5 3.9.5 5.8l-.1 42.6zm-69.3-4.4h64.9v-38.3c0-1.7-.1-3.4-.4-5.1-2.5-15.8-16-27.3-32-27.3-16.1 0-29.5 11.5-32.1 27.3-.3 1.7-.4 3.4-.4 5.1v38.3z"/></g><g id="XMLID_1118_"><path id="XMLID_996_" class="st0" d="M862.2 819.4c-23 0-34.7-4.5-46-8.9-11.4-4.4-22.2-8.6-44.4-8.6s-33 4.2-44.4 8.6c-11.3 4.4-23 8.9-46 8.9s-34.7-4.5-46-8.9c-11.4-4.4-22.2-8.6-44.4-8.6s-33 4.2-44.4 8.6c-11.3 4.4-23 8.9-46 8.9s-34.7-4.5-46-8.9c-11.4-4.4-22.2-8.6-44.4-8.6-1.2 0-2.2-1-2.2-2.2s1-2.2 2.2-2.2c23 0 34.7 4.5 46 8.9 11.4 4.4 22.2 8.6 44.4 8.6s33-4.2 44.4-8.6c11.3-4.4 23-8.9 46-8.9s34.7 4.5 46 8.9c11.4 4.4 22.2 8.6 44.4 8.6s33-4.2 44.4-8.6c11.3-4.4 23-8.9 46-8.9s34.7 4.5 46 8.9c11.4 4.4 22.2 8.6 44.4 8.6s33-4.2 44.4-8.6c11.3-4.4 23-8.9 46-8.9 1.2 0 2.2 1 2.2 2.2s-1 2.2-2.2 2.2c-22.2 0-33 4.2-44.4 8.6-11.3 4.4-23 8.9-46 8.9z"/></g><g id="XMLID_1114_"><path id="XMLID_993_" class="st0" d="M645.5 755.2h-22.1V726l22.1-14.5v43.7zm-17.7-4.4h13.4v-31.3l-13.4 8.8v22.5z"/></g><g id="XMLID_1110_"><path id="XMLID_990_" class="st0" d="M733 755.2h-22.1v-43.8l22.1 14.5v29.3zm-17.7-4.4h13.4v-22.5l-13.4-8.8v31.3z"/></g><g id="XMLID_1108_"><path id="XMLID_989_" class="st0" d="M678 755.2c-1.2 0-2.2-1-2.2-2.2v-37.5c0-1.2 1-2.2 2.2-2.2s2.2 1 2.2 2.2V753c-.1 1.2-1 2.2-2.2 2.2z"/></g><circle id="XMLID_1107_" class="st0" cx="598" cy="633.1" r="3.5"/><circle id="XMLID_1106_" class="st0" cx="590.6" cy="595" r="3.5"/><circle id="XMLID_1105_" class="st0" cx="552.8" cy="678" r="3.5"/><circle id="XMLID_1104_" class="st0" cx="581" cy="714.1" r="3.5"/><circle id="XMLID_1103_" class="st0" cx="629.6" cy="613.7" r="3.5"/><circle id="XMLID_1102_" class="st0" cx="547.1" cy="621" r="3.5"/><circle id="XMLID_1101_" class="st0" cx="572.7" cy="670.5" r="3.5"/><circle id="XMLID_1100_" class="st0" cx="576" cy="693.1" r="3.5"/><circle id="XMLID_1099_" class="st0" cx="712.7" cy="629.6" r="3.5"/><circle id="XMLID_1098_" class="st0" cx="747" cy="612.1" r="3.5"/><circle id="XMLID_1097_" class="st0" cx="751.1" cy="636.6" r="3.5"/><circle id="XMLID_1096_" class="st0" cx="769" cy="699" r="3.5"/><circle id="XMLID_1095_" class="st0" cx="738.8" cy="593.3" r="3.5"/><circle id="XMLID_1094_" class="st0" cx="772.5" cy="593.2" r="3.5"/><circle id="XMLID_1093_" class="st0" cx="758.4" cy="668.7" r="3.5"/><circle id="XMLID_1092_" class="st0" cx="765.5" cy="718.4" r="3.5"/><circle id="XMLID_1091_" class="st0" cx="556.3" cy="644.5" r="3.5"/><circle id="XMLID_1090_" class="st0" cx="399.2" cy="344.8" r="3.5"/><circle id="XMLID_1089_" class="st0" cx="343.3" cy="280.6" r="3.5"/><circle id="XMLID_1088_" class="st0" cx="327.3" cy="321.4" r="3.5"/><circle id="XMLID_1087_" class="st0" cx="311.2" cy="379.8" r="3.5"/><circle id="XMLID_1086_" class="st0" cx="273.5" cy="394.4" r="3.5"/><circle id="XMLID_1085_" class="st0" cx="232.7" cy="347.7" r="3.5"/><circle id="XMLID_1084_" class="st0" cx="206.5" cy="289.4" r="3.5"/><circle id="XMLID_1083_" class="st0" cx="219.6" cy="126" r="3.5"/><circle id="XMLID_1082_" class="st0" cx="269.2" cy="114.4" r="3.5"/><circle id="XMLID_1081_" class="st0" cx="431" cy="327.3" r="3.5"/><circle id="XMLID_1080_" class="st0" cx="434.6" cy="363.1" r="3.5"/><circle id="XMLID_1079_" class="st0" cx="586.6" cy="666.2" r="3.5"/><g id="XMLID_1077_"><path id="XMLID_988_" class="st0" d="M684.5 643.1s-.1 0 0 0c-1.3-.1-2.2-1.1-2.2-2.3l19.1-430c.1-1.3 7.1-127.3-37.1-175.8-.8-.9-.8-2.3.1-3.1s2.3-.8 3.1.1c19.1 21 31.4 57.5 36.4 108.6 3.7 37.9 1.9 70.1 1.8 70.4l-19.1 429.9c0 1.3-.9 2.2-2.1 2.2z"/></g><g id="XMLID_1075_"><path id="XMLID_987_" class="st0" d="M678.1 672c-1.1 0-2.1-.9-2.2-2.1L651.2 276c-3.9-50.7-25.5-89.1-59.2-105.3-27.3-13.1-59.7-9.9-86.6 8.5-1 .7-2.4.4-3-.6-.7-1-.4-2.4.6-3 28.2-19.3 62.3-22.6 91-8.8 35.1 16.8 57.6 56.5 61.6 108.9l24.7 394c.1 1.2-.8 2.2-2 2.3h-.2z"/></g><g id="XMLID_1073_"><path id="XMLID_986_" class="st0" d="M607.4 680.2c-.6 0-1.3-.3-1.7-.8-2.7-3.4-4.7-7.2-5.8-11.5-2.2-8.1-1.1-16.5 3.1-23.8s10.9-12.5 19-14.6c8.1-2.2 16.5-1.1 23.8 3.1 7.3 4.2 12.5 10.9 14.6 19 .3 1.2-.4 2.4-1.5 2.7-1.2.3-2.4-.4-2.7-1.5-1.9-6.9-6.4-12.7-12.6-16.3s-13.5-4.5-20.5-2.6c-6.9 1.9-12.7 6.4-16.3 12.6-3.6 6.2-4.5 13.5-2.6 20.5 1 3.6 2.7 7 5 9.9.8.9.6 2.3-.3 3.1-.5 0-1 .2-1.5.2z"/></g><g id="XMLID_1071_"><path id="XMLID_985_" class="st0" d="M602.8 707.4c-.6 0-1.2-.3-1.7-.8-1.9-2.3-3.3-4.9-4.1-7.8-1.4-5.2-.7-10.6 2-15.3s7-8 12.2-9.4c3.2-.9 6.6-.9 9.8-.2 1.2.3 1.9 1.4 1.6 2.6-.3 1.2-1.5 1.9-2.6 1.6-2.5-.6-5.2-.5-7.7.1-8.4 2.3-13.4 11-11.1 19.3.6 2.3 1.7 4.3 3.2 6.1.8.9.7 2.3-.2 3.1-.4.6-.9.7-1.4.7z"/></g><g id="XMLID_1069_"><path id="XMLID_984_" class="st0" d="M610.2 730c-4.9 0-9.5-2.5-12-6.7-4.1-6.6-2-15.4 4.6-19.5 1.1-.7 2.4-1.3 3.7-1.6 1.2-.3 2.4.4 2.7 1.5.3 1.2-.4 2.4-1.5 2.7-.9.2-1.8.6-2.5 1.1-4.6 2.8-6 8.9-3.2 13.4 1.8 2.9 5.1 4.7 8.6 4.6 1.2-.1 2.2.9 2.2 2.1s-.9 2.2-2.1 2.2c-.3.2-.4.2-.5.2z"/></g><g id="XMLID_1067_"><path id="XMLID_983_" class="st0" d="M742.3 676.4c-.5 0-1-.2-1.4-.5-.9-.8-1.1-2.1-.3-3.1 1.6-2 2.7-4.2 3.4-6.7 1.3-4.7.6-9.6-1.8-13.8s-6.3-7.2-11-8.5-9.6-.6-13.8 1.8c-4.2 2.4-7.2 6.3-8.5 11-.3 1.2-1.5 1.9-2.7 1.5-1.2-.3-1.9-1.5-1.5-2.7 3.3-12 15.7-19.2 27.7-15.9 5.8 1.6 10.7 5.3 13.7 10.6 3 5.2 3.8 11.3 2.2 17.2-.8 3-2.2 5.8-4.2 8.3-.6.5-1.2.8-1.8.8z"/></g><g id="XMLID_1065_"><path id="XMLID_982_" class="st0" d="M743 701.5c-.5 0-1-.2-1.4-.5-.9-.8-1-2.2-.2-3.1 1.5-1.8 2.6-3.8 3.2-6.1 2.3-8.4-2.7-17.1-11.1-19.3-.3-.1-.6-.2-.9-.2-1.2-.2-1.9-1.4-1.7-2.6.2-1.2 1.4-1.9 2.6-1.7l1.2.3c10.7 2.9 17.1 14 14.2 24.7-.8 2.9-2.2 5.5-4.1 7.8-.6.5-1.2.7-1.8.7z"/></g><g id="XMLID_1063_"><path id="XMLID_981_" class="st0" d="M735.6 724.1h-.4c-1.2 0-2.2-1-2.1-2.2 0-1.2 1-2.1 2.2-2.1h.3c3.4 0 6.6-1.8 8.3-4.6 2.8-4.6 1.4-10.6-3.2-13.4-.8-.5-1.7-.9-2.6-1.1-1.2-.3-1.9-1.5-1.5-2.7.3-1.2 1.5-1.8 2.7-1.5 1.3.4 2.5.9 3.7 1.6 6.6 4.1 8.7 12.8 4.6 19.5-2.5 4-7.1 6.5-12 6.5z"/></g><g id="XMLID_1061_"><path id="XMLID_980_" class="st0" d="M674.9 157c-1 0-1.9-.7-2.1-1.8-11.1-55-56.1-98.9-123.5-120.5-47.8-15.3-103.4-17.9-156.4-7.5-57.7 11.4-109.4 37.4-149.6 75.1-.9.8-2.3.8-3.1-.1-.8-.9-.8-2.3.1-3.1 40.8-38.3 93.3-64.7 151.8-76.2 53.7-10.6 110-7.9 158.6 7.6 69 22 115.1 67.2 126.5 123.8.2 1.2-.5 2.3-1.7 2.6-.4.1-.5.1-.6.1z"/></g><g id="XMLID_1059_"><path id="XMLID_979_" class="st0" d="M324.8 290.5c-1.1 0-2.1-.9-2.2-2.1-7.6-122.8 61.1-169.8 102.8-186.8 33-13.5 71.3-18 108-12.7 35 5.1 64.3 18.6 80.5 37.2.8.9.7 2.3-.2 3.1-.9.8-2.3.7-3.1-.2-15.5-17.8-43.9-30.8-77.8-35.8-36-5.2-73.5-.8-105.8 12.4-70.1 28.7-105.6 93.6-100.1 182.5.1 1.2-.8 2.2-2 2.3 0 .1 0 .1-.1.1z"/></g><g id="XMLID_1056_"><path id="XMLID_719_" class="st0" d="M682.2 678.4c-.8 1.5-2.4 2.4-4.2 2.4-1.8 0-3.4-1-4.3-2.5"/><path id="XMLID_977_" class="st0" d="M678 683c-2.6 0-4.9-1.4-6.2-3.6-.6-1.1-.2-2.4.9-3s2.4-.2 3 .9c.5.8 1.4 1.4 2.3 1.4 1 0 1.8-.5 2.3-1.3.6-1 1.9-1.4 3-.8 1 .6 1.4 1.9.8 3-1.3 2.1-3.6 3.4-6.1 3.4z"/></g><g id="XMLID_1054_"><path id="XMLID_976_" class="st0" d="M416.2 330.3c-.9 0-1.8-.6-2.1-1.5-29.2-93.4-3.2-145.3 14.8-168 21.5-26.9 53-40.9 86.6-38.3 1.2.1 2.1 1.1 2 2.4-.1 1.2-1.2 2.1-2.4 2-32.1-2.5-62.3 10.8-82.8 36.6-17.5 22-42.7 72.5-14.1 164 .4 1.2-.3 2.4-1.4 2.7-.2 0-.4.1-.6.1z"/></g><g id="XMLID_1052_"><path id="XMLID_975_" class="st0" d="M658.8 72.4c-.7 0-1.5-.4-1.9-1-.4-.6-37.2-60.1-69.7-74.2-1.1-.5-1.6-1.8-1.1-2.9s1.8-1.6 2.9-1.1c14.2 6.2 30.7 20.9 48.8 43.7 13.4 16.9 22.8 32.1 22.9 32.3.6 1 .3 2.4-.7 3-.4.1-.8.2-1.2.2z"/></g><g id="XMLID_1050_"><path id="XMLID_974_" class="st0" d="M228.3 259.8h-.3c-1.2-.2-2-1.3-1.8-2.5 11.2-70 51.6-117.6 83.6-145.3 34.6-30 67.1-43.6 67.4-43.8 1.1-.5 2.4.1 2.9 1.2.5 1.1-.1 2.4-1.2 2.9-.3.1-32.3 13.6-66.4 43.1-31.4 27.2-71.1 74-82 142.6-.2 1.1-1.1 1.8-2.2 1.8z"/></g><g id="XMLID_1048_"><path id="XMLID_973_" class="st0" d="M372.6 379.5c-1.1 0-2-.8-2.2-1.9-8.6-63.5-6.5-111.8-6.4-112.3.1-1.2 1-2.1 2.3-2.1 1.2.1 2.1 1.1 2.1 2.3 0 .5-2.2 48.4 6.4 111.5.2 1.2-.7 2.3-1.9 2.5h-.3z"/></g><g id="XMLID_1046_"><path id="XMLID_972_" class="st0" d="M274.8 330.3c-1.1 0-2.1-.8-2.2-2-7.8-81 28.3-145.9 28.7-146.6.6-1.1 1.9-1.4 3-.8 1.1.6 1.4 1.9.8 3-.4.6-35.8 64.4-28.1 144 .1 1.2-.8 2.3-2 2.4h-.2z"/></g><g id="XMLID_1044_"><path id="XMLID_971_" class="st0" d="M579.6 19c-.4 0-.9-.1-1.2-.4-.7-.5-72.8-48.5-184.8-41-1.2.1-2.2-.8-2.3-2-.1-1.2.8-2.2 2-2.3 59.4-3.9 107.1 7.6 136.8 18 32.2 11.3 50 23.3 50.8 23.8 1 .7 1.3 2 .6 3-.6.6-1.2.9-1.9.9z"/></g><g id="XMLID_1042_"><path id="XMLID_970_" class="st0" d="M1147.6 336.8l-98.7-.1v-4.4l98.7.1c14 0 25.4-11.4 25.4-25.4s-11.4-25.4-25.4-25.4c-.8 0-1.5.1-2.4.2l-3.3.4v-2.5-.3c0-20.2-16.4-36.6-36.6-36.6-12.5 0-24 6.3-30.8 16.8l-1.1 1.7-1.8-1c-3.3-1.8-6.8-2.7-10.3-2.7-12 0-21.8 9.8-21.8 21.8 0 2.4.5 4.9 1.4 7.4l1.1 2.9h-13.4v-4.4h7.3c-.5-2-.8-4-.8-6 0-14.4 11.7-26.1 26.1-26.1 3.6 0 7.2.8 10.6 2.3 7.7-10.8 20-17.2 33.3-17.2 21.9 0 39.8 17.2 40.9 38.8.4 0 .8-.1 1.3-.1 16.4 0 29.8 13.4 29.8 29.8s-13 30-29.5 30z"/></g><g id="XMLID_1038_"><path id="XMLID_967_" class="st0" d="M1127.1 472.5c-14.3 0-26-11.7-26-26 0-14.1 11.3-25.6 25.3-26 5.5-8.2 14.6-13 24.5-13 11.7 0 22.4 7 27.1 17.7 1.5-.3 2.9-.5 4.4-.5 4.7 0 9.1 1.5 12.9 4.2 4.3 2.5 11.7 9.9 9.3 21.2 0 .1-3.2 17.7-22.2 18-5.7.1-11.2-2.2-15.4-6.3-6.7 4.4-14.7 5.9-22.8 4.1-4.7 4.3-10.7 6.6-17.1 6.6zm.1-47.6c-12 0-21.7 9.7-21.7 21.6s9.7 21.6 21.6 21.6c5.6 0 11-2.2 15-6.1l.9-.9 1.2.3c7.8 2.1 15.7.5 21.9-4.2l1.7-1.3 1.3 1.6c3.3 4 8.1 6.2 13 6.2h.3c15.3-.2 17.8-13.9 17.9-14.5 2.4-11.1-6.9-16.4-7.3-16.6l-.2-.2c-3-2.3-6.6-3.5-10.4-3.5-1.7 0-3.4.3-5.1.8l-2 .6-.7-2c-3.6-10-13.1-16.7-23.7-16.7-8.8 0-16.8 4.5-21.5 12l-.7 1.1-1.5.2z"/></g><g id="XMLID_1036_"><path id="XMLID_966_" class="st0" d="M1278.8 780.1c-14.9 0-22.5-3.3-29.8-6.6-7.2-3.2-14-6.2-28-6.2s-20.8 3-28 6.2c-7.3 3.2-14.9 6.6-29.8 6.6s-22.5-3.3-29.8-6.6c-7.2-3.2-14-6.2-28-6.2s-20.8 3-28 6.2c-7.3 3.2-14.9 6.6-29.8 6.6s-22.5-3.3-29.8-6.6c-7.2-3.2-14-6.2-28-6.2s-20.8 3-28 6.2c-7.3 3.2-14.9 6.6-29.8 6.6-1.2 0-2.2-1-2.2-2.2s1-2.2 2.2-2.2c14 0 20.8-3 28-6.2 7.3-3.2 14.9-6.6 29.8-6.6s22.5 3.3 29.8 6.6c7.2 3.2 14 6.2 28 6.2s20.8-3 28-6.2c7.3-3.2 14.9-6.6 29.8-6.6s22.5 3.3 29.8 6.6c7.2 3.2 14 6.2 28 6.2s20.8-3 28-6.2c7.3-3.2 14.9-6.6 29.8-6.6s22.5 3.3 29.8 6.6c7.2 3.2 14 6.2 28 6.2 1.2 0 2.2 1 2.2 2.2 0 1.3-1 2.2-2.2 2.2z"/></g><g id="XMLID_1034_"><path id="XMLID_965_" class="st0" d="M801.9 628.9h-14.4V148.2h14.4v438.6c0 1.2-1 2.2-2.2 2.2s-2.2-1-2.2-2.2V152.5h-5.6v471.9h5.6v-16.9c0-1.2 1-2.2 2.2-2.2s2.2 1 2.2 2.2v21.4z"/></g><g id="XMLID_1032_"><path id="XMLID_964_" class="st0" d="M1121.2 768.4c-.9 0-1.7-.5-2-1.3-.5-1.1 0-2.4 1.2-2.9 45.2-19.3 69.7-58.8 78.2-75 .9-1.8 1.2-3.4.8-4.1-.4-.7-1.7-1.1-3.4-1.1l-435.8-.5c-1.2 0-2.2-1-2.2-2.2s1-2.2 2.2-2.2l435.8.5c4.3 0 6.3 1.7 7.2 3.2s1.6 4.2-.6 8.4c-8.6 16.5-33.8 57.1-80.3 76.9-.5.3-.8.3-1.1.3z"/></g><g id="XMLID_1028_"><path id="XMLID_961_" class="st0" d="M853.4 606.9c-21.1 0-41.1-1.1-58.8-2.7-.8-.1-1.5-.5-1.8-1.3-.3-.7-.3-1.5.2-2.2.3-.5 35.4-50.6 64.9-116.9 27.2-60.9 55.3-148.4 34.4-218.9-13.7-46.2-46.8-80.2-98.4-101.1-1-.4-1.6-1.5-1.3-2.6.3-1.1 1.3-1.8 2.4-1.6 119.1 17.8 199.9 63.6 240.1 136.2 32.9 59.3 31.9 125.8 25.2 171.1-7.2 49-22.5 84.5-22.6 84.8-.1.1-.1.3-.2.4-.5.7-12.6 17.7-48.8 32.7-40.8 17-90.3 22.1-135.3 22.1zm-54.7-6.7c54.6 4.5 130.1 4.6 187.9-19.1 33.4-13.7 45.9-29.4 47.3-31.2 1.3-3 15.4-37.2 22.2-83.6 6.6-44.6 7.6-109.9-24.7-168.2-37.7-67.9-111.8-112-220.3-131.2 44.1 21.7 72.8 54.2 85.5 97 21.2 71.8-7.1 160.4-34.7 222-25.6 57.1-55.2 102.3-63.2 114.3z"/></g><g id="XMLID_1026_"><path id="XMLID_960_" class="st0" d="M1046.7 720.1c-17.8 0-38.1-3.3-58.6-13.3-1.1-.5-1.5-1.8-1-2.9.5-1.1 1.8-1.5 2.9-1 59.5 28.9 115.9.3 116.4 0 1.1-.6 2.4-.1 3 .9.6 1.1.1 2.4-.9 3-.4.1-26.4 13.3-61.8 13.3z"/></g><g id="XMLID_1024_"><path id="XMLID_959_" class="st0" d="M856.6 720.1c-19.6 0-41.2-3.3-61.8-13.3-1.1-.5-1.5-1.8-1-2.9.5-1.1 1.8-1.5 2.9-1 59.6 29 128 .3 128.6 0 1.1-.5 2.4 0 2.9 1.1s0 2.4-1.1 2.9c-.5.1-31.6 13.2-70.5 13.2z"/></g><g id="XMLID_1022_"><path id="XMLID_958_" class="st0" d="M1108.7 713.6c-1.2 0-2.2-1-2.2-2.2s1-2.2 2.2-2.2c3.4 0 6.1-2.7 6.1-6.1 0-3.4-2.7-6.1-6.1-6.1-3.4 0-6.1 2.7-6.1 6.1 0 1.2-1 2.2-2.2 2.2s-2.2-1-2.2-2.2c0-5.8 4.7-10.5 10.5-10.5s10.5 4.7 10.5 10.5-4.7 10.5-10.5 10.5z"/></g><g id="XMLID_1020_"><path id="XMLID_957_" class="st0" d="M987.9 713.6c-5.4 0-10-4.2-10.4-9.6-.5-5.8 3.8-10.8 9.6-11.3 5.7-.5 10.8 3.8 11.3 9.6.1 1.2-.8 2.3-2 2.4-1.2.1-2.3-.8-2.4-2-.3-3.4-3.2-5.9-6.6-5.6-3.4.3-5.9 3.2-5.6 6.6.3 3.4 3.2 5.9 6.6 5.6 1.2-.1 2.3.8 2.4 2s-.8 2.3-2 2.4c-.3-.1-.6-.1-.9-.1z"/></g><g id="XMLID_1018_"><path id="XMLID_956_" class="st0" d="M927.5 713.6c-1.2 0-2.2-1-2.2-2.2s1-2.2 2.2-2.2c3.4 0 6.1-2.7 6.1-6.1 0-3.4-2.7-6.1-6.1-6.1s-6.1 2.7-6.1 6.1c0 1.2-1 2.2-2.2 2.2s-2.2-1-2.2-2.2c0-5.8 4.7-10.5 10.5-10.5s10.5 4.7 10.5 10.5-4.7 10.5-10.5 10.5z"/></g><g id="XMLID_1016_"><path id="XMLID_955_" class="st0" d="M794.6 713.6c-2.5 0-4.8-.9-6.8-2.5-2.1-1.8-3.4-4.3-3.7-7.1-.5-5.8 3.8-10.8 9.6-11.3s10.8 3.8 11.3 9.6c.1 1.2-.8 2.3-2 2.4-1.2.1-2.3-.8-2.4-2-.3-3.4-3.2-5.9-6.6-5.6-3.4.3-5.9 3.2-5.6 6.6.1 1.6.9 3.1 2.1 4.2 1.2 1.1 2.8 1.6 4.5 1.4 1.2-.1 2.3.8 2.4 2s-.8 2.3-2 2.4c-.2-.1-.5-.1-.8-.1z"/></g><g id="XMLID_1014_"><path id="XMLID_954_" class="st0" d="M830.4 530.8c-.2 0-.4 0-.6-.1l-25.4-7.9c-.9-.3-1.5-1.1-1.5-2.1s.6-1.8 1.6-2.1c.3-.1 34.5-10.5 54.6-53.2.5-1.1 1.8-1.6 2.9-1 1.1.5 1.6 1.8 1 2.9-16 34-40.1 48.2-51.3 53.2l19.3 6c1.2.4 1.8 1.6 1.4 2.7-.2 1-1.1 1.6-2 1.6z"/></g><g id="XMLID_1012_"><path id="XMLID_953_" class="st0" d="M896.4 675.8c-.6 0-1.2-.3-1.7-.8l-39.6-46.2H727.8c-1.2 0-2.2-1-2.2-2.2s1-2.2 2.2-2.2h129.4l40.9 47.7c.8.9.7 2.3-.2 3.1-.4.4-1 .6-1.5.6z"/></g><g id="XMLID_1010_"><path id="XMLID_952_" class="st0" d="M789.7 326.4c-.7 0-1.4-.3-1.8-1-32.4-47.3-13.1-77.7 2.5-102.2 10.3-16.1 18.4-28.9 10.9-42.8-.6-1.1-.2-2.4.9-3s2.4-.2 3 .9c8.7 16.2-.9 31.3-11 47.2-15.6 24.6-33.4 52.4-2.6 97.3.7 1 .4 2.4-.6 3-.4.5-.8.6-1.3.6z"/></g><g id="XMLID_1008_"><path id="XMLID_951_" class="st0" d="M870.1 646.5H759.4c-1.2 0-2.2-1-2.2-2.2s1-2.2 2.2-2.2h110.7c1.2 0 2.2 1 2.2 2.2s-1 2.2-2.2 2.2z"/></g><g id="XMLID_1006_"><path id="XMLID_950_" class="st0" d="M1039 421.2c-.5 0-1-.2-1.4-.5-.6-.5-.9-1.3-.8-2.1 0-.2 3.1-20.2-4.9-47.4-16.1 6.8-25 11.4-25.1 11.5-.6.3-1.3.3-1.9 0s-1.1-.9-1.2-1.5c-5.4-25.5-13.9-45.2-14-45.4-.5-1.1 0-2.4 1.1-2.9l22.7-10.1c-4-14.4-13.9-30.3-14.1-30.5-.3-.5-.4-1.1-.3-1.7s.5-1.1 1-1.4c.1 0 6.6-3.8 16.2-8.8 1.1-.6 2.4-.2 3 .9s.2 2.4-.9 3c-6.4 3.4-11.5 6.2-14.1 7.7 3 5 10.8 18.9 13.9 31.6.3 1-.3 2.1-1.2 2.5l-22.4 10c2.2 5.5 8.4 21.5 12.9 41.5 4-2 12.6-6.1 25.1-11.3.6-.2 1.2-.2 1.8 0 .6.3 1 .7 1.2 1.3 7 22.5 6.7 40.3 6.1 47.8 5.3-2.5 13.1-6.4 13.2-6.4 1.1-.5 2.4-.1 2.9 1s.1 2.4-1 2.9c-.5.3-12.4 6.2-16.9 8.1-.4.2-.7.2-.9.2z"/></g><g id="XMLID_1004_"><path id="XMLID_949_" class="st0" d="M727.3 619c-.9 0-1.7-.5-2-1.3-25.6-61.2 10.5-108.8 42.4-150.8 31.5-41.4 61.2-80.6 30.2-127.1-.7-1-.4-2.4.6-3 1-.7 2.4-.4 3 .6 32.7 49.1 2 89.5-30.4 132.2-32.7 43-66.5 87.5-41.8 146.4.5 1.1-.1 2.4-1.2 2.9-.2 0-.5.1-.8.1z"/></g></g></svg>