<svg version="1.1" id="Layer_1" xmlns="http://www.w3.org/2000/svg" x="0" y="0" viewBox="-95 -54 419.1 900" xml:space="preserve"><style type="text/css">.st0{fill:#f0efe9}</style><g id="XMLID_100_"><g id="XMLID_245_"><path id="XMLID_154_" class="st0" d="M290.5 447.3c-8.1 0-15.8-3-21.8-8.3-10.4 2.5-20.9.4-29.4-5.3-5.1 5.2-12.1 8.2-19.5 8.2-.3 0-11.6.6-16.8-5.7l3.6-3c3.1 3.7 10.5 4.1 13.1 4 6.9 0 13.2-3 17.5-8.2l1.4-1.7 1.8 1.3c8 6.1 18.2 8.2 28.4 5.4l1.3-.4.9.9c5.3 5.1 12.2 7.9 19.5 7.9 15.5 0 28.1-12.6 28.1-28.1s-12.6-28.1-28.1-28.1H288.6l-.7-1.1c-6-9.7-16.4-15.6-27.8-15.6-13.7 0-26.1 8.7-30.8 21.6l-.8 2.1-2.1-.6c-2.2-.7-4.4-1-6.7-1-4.9 0-9.6 1.6-13.6 4.5l-2.8-3.7c4.8-3.6 10.4-5.4 16.4-5.4 2 0 4 .2 5.9.7C231.5 374 245 365 260 365c12.6 0 24.1 6.2 31.1 16.6 17.8.3 32.1 14.9 32.1 32.7 0 18.3-14.6 33-32.7 33z"/></g><g id="XMLID_243_"><path id="XMLID_153_" class="st0" d="M-56.5 245.4c-20.7 0-37.6-16.9-37.6-37.6s16.9-37.6 37.6-37.6c.7 0 1.4.1 2.1.1 1.2-27.6 24-49.7 51.9-49.7 17 0 32.7 8.2 42.5 22.1 4.4-2.1 9-3.1 13.7-3.1 18.2 0 32.9 14.8 32.9 32.9 0 2.7-.4 5.4-1.1 8.1h10v4.6H79.1l1.1-3.1c1.2-3.3 1.8-6.5 1.8-9.7 0-15.6-12.7-28.3-28.3-28.3-4.6 0-9.1 1.2-13.4 3.5l-1.9 1-1.2-1.8c-8.8-13.6-23.6-21.7-39.7-21.7-26.1 0-47.3 21.2-47.3 47.3v3.1l-3.7-.5c-1.1-.1-2.1-.3-3.1-.3-18.2 0-33 14.8-33 33s14.8 33 33 33l151-.2v4.6l-150.9.3z"/></g><g id="XMLID_241_"><path id="XMLID_152_" transform="rotate(89.997 95.386 55.136)" class="st0" d="M21 52.8h148.7v4.6H21z"/></g><g id="XMLID_239_"><path id="XMLID_151_" class="st0" d="M118.5-43.7h4.6v147.1h-4.6z"/></g><g id="XMLID_237_"><path id="XMLID_150_" transform="rotate(54.458 108.063 77.1)" class="st0" d="M105.8 61.5h4.6v31.2h-4.6z"/></g><g id="XMLID_235_"><path id="XMLID_149_" transform="rotate(34.157 107.935 94.82)" class="st0" d="M92.6 92.5h30.7v4.6H92.6z"/></g><g id="XMLID_231_"><path id="XMLID_146_" class="st0" d="M94.8 517.1c-.4 0-.9-.1-1.2-.4L-15.8 448c-.7-.4-1.1-1.1-1.1-1.9s.4-1.5 1-2l109.4-74c.8-.5 1.8-.5 2.6 0l109.4 74c.7.4 1 1.2 1 2s-.4 1.5-1.1 1.9L96 516.7c-.3.3-.8.4-1.2.4zM-10.4 446l105.2 66.1L200 446 94.8 374.9-10.4 446z"/></g><g id="XMLID_227_"><path id="XMLID_143_" class="st0" d="M94.8 659.8c-.4 0-.9-.1-1.2-.4l-109.4-68.7c-.7-.4-1.1-1.1-1.1-1.9s.4-1.5 1-2l109.4-74c.8-.5 1.8-.5 2.6 0l109.4 74c.7.4 1 1.2 1 2s-.4 1.5-1.1 1.9L96 659.5c-.3.2-.8.3-1.2.3zm-105.2-71.1l105.2 66.1L200 588.7 94.8 517.6l-105.2 71.1z"/></g><g id="XMLID_223_"><path id="XMLID_140_" class="st0" d="M125.6 783.2H63.9c-.4 0-.9-.1-1.2-.4l-78.6-49.4c-.7-.4-1.1-1.1-1.1-1.9s.4-1.5 1-2l109.4-74c.8-.5 1.8-.5 2.6 0l109.4 74c.7.4 1 1.2 1 2s-.4 1.5-1.1 1.9l-78.6 49.4c-.2.3-.6.4-1.1.4zm-61-4.6h60.3l75-47.1-105.1-71.2-105.2 71.1 75 47.2z"/></g><g id="XMLID_221_"><path id="XMLID_139_" class="st0" d="M92.5 372h4.6v428.2h-4.6z"/></g><g id="XMLID_219_"><path id="XMLID_138_" class="st0" d="M-16.9 446h4.6v354.2h-4.6z"/></g><g id="XMLID_217_"><path id="XMLID_137_" class="st0" d="M201.9 446h4.6v354.2h-4.6z"/></g><g id="XMLID_215_"><path id="XMLID_136_" class="st0" d="M-14.6 797.9h218.8v4.6H-14.6z"/></g><g id="XMLID_211_"><path id="XMLID_133_" class="st0" d="M204.2 448.1c-.5 0-.9-.1-1.3-.4l-109.4-74c-.6-.4-1-1.2-1-2s.4-1.5 1.1-1.9L203 301.1c.7-.4 1.6-.5 2.4-.1.7.4 1.2 1.2 1.2 2v142.7c0 .9-.5 1.6-1.2 2-.4.4-.8.4-1.2.4zM99 371.9l102.9 69.6V307.3L99 371.9z"/></g><g id="XMLID_207_"><path id="XMLID_130_" class="st0" d="M95.4 374c-.4 0-.8-.1-1.1-.3-.7-.4-1.2-1.2-1.2-2V228.9c0-.9.5-1.6 1.2-2 .8-.4 1.7-.4 2.4.1l109.4 74c.6.4 1 1.2 1 2s-.4 1.5-1.1 1.9L96.6 373.6c-.4.3-.8.4-1.2.4zm2.3-140.7v134.2l102.9-64.6-102.9-69.6z"/></g><g id="XMLID_203_"><path id="XMLID_127_" class="st0" d="M204.2 305.4c-.5 0-.9-.1-1.3-.4L93.5 231c-.6-.4-1-1.2-1-2s.4-1.5 1.1-1.9L203 158.4c.7-.4 1.6-.5 2.4-.1.7.4 1.2 1.2 1.2 2V303c0 .9-.5 1.6-1.2 2-.4.3-.8.4-1.2.4zM99 229.1l102.9 69.6V164.5L99 229.1z"/></g><g id="XMLID_199_"><path id="XMLID_124_" class="st0" d="M95.4 231.2c-.4 0-.8-.1-1.1-.3-.7-.4-1.2-1.2-1.2-2v-99.5c0-.6.2-1.2.7-1.6l25.5-26c.8-.8 2-.9 3-.3l83.9 56.7c.6.4 1 1.2 1 2s-.4 1.5-1.1 1.9L96.7 230.8c-.5.3-.9.4-1.3.4zm2.3-100.8v94.3l102.9-64.6-79.4-53.7-23.5 24z"/></g><g id="XMLID_195_"><path id="XMLID_121_" class="st0" d="M207.1 841.3H-17v-43.4h224.1v43.4zm-219.4-4.6h214.8v-34.1H-12.3v34.1z"/></g><g id="XMLID_191_"><path id="XMLID_118_" class="st0" d="M207.1 802.6H-17v-24h224.1v24zm-219.4-4.7h214.8v-14.7H-12.3v14.7z"/></g><g id="XMLID_189_"><path id="XMLID_117_" class="st0" d="M92.5 800.2h4.6v38.7h-4.6z"/></g><g id="XMLID_187_"><path id="XMLID_116_" class="st0" d="M103.6 809.2h4.6V830h-4.6z"/></g><g id="XMLID_185_"><path id="XMLID_115_" class="st0" d="M116 809.2h4.6V830H116z"/></g><g id="XMLID_183_"><path id="XMLID_114_" class="st0" d="M128.5 809.2h4.6V830h-4.6z"/></g><g id="XMLID_181_"><path id="XMLID_113_" class="st0" d="M140.9 809.2h4.6V830h-4.6z"/></g><g id="XMLID_179_"><path id="XMLID_112_" class="st0" d="M153.3 809.2h4.6V830h-4.6z"/></g><g id="XMLID_177_"><path id="XMLID_111_" class="st0" d="M165.8 809.2h4.6V830h-4.6z"/></g><g id="XMLID_175_"><path id="XMLID_110_" class="st0" d="M178.2 809.2h4.6V830h-4.6z"/></g><g id="XMLID_173_"><path id="XMLID_109_" class="st0" d="M190.6 809.2h4.6V830h-4.6z"/></g><g id="XMLID_171_"><path id="XMLID_108_" class="st0" d="M-4.6 809.2H0V830h-4.6z"/></g><g id="XMLID_169_"><path id="XMLID_107_" class="st0" d="M7.9 809.2h4.6V830H7.9z"/></g><g id="XMLID_167_"><path id="XMLID_106_" class="st0" d="M20.3 809.2h4.6V830h-4.6z"/></g><g id="XMLID_165_"><path id="XMLID_105_" class="st0" d="M32.7 809.2h4.6V830h-4.6z"/></g><g id="XMLID_163_"><path id="XMLID_104_" class="st0" d="M45.2 809.2h4.6V830h-4.6z"/></g><g id="XMLID_161_"><path id="XMLID_103_" class="st0" d="M57.6 809.2h4.6V830h-4.6z"/></g><g id="XMLID_159_"><path id="XMLID_102_" class="st0" d="M70 809.2h4.6V830H70z"/></g><g id="XMLID_157_"><path id="XMLID_101_" class="st0" d="M82.5 809.2h4.6V830h-4.6z"/></g></g></svg>