<svg version="1.1" id="Layer_1" xmlns="http://www.w3.org/2000/svg" x="0" y="0" viewBox="-101 -54 407.5 900" xml:space="preserve"><style type="text/css">.st0{fill:#f0efe9}</style><g id="XMLID_853_"><g id="XMLID_868_"><path id="XMLID_704_" class="st0" d="M73.4 650.3h33.5v4.9H73.4z"/></g><g id="XMLID_866_"><path id="XMLID_703_" class="st0" d="M73.4 674.7h33.5v4.9H73.4z"/></g><g id="XMLID_864_"><path id="XMLID_702_" class="st0" d="M73.4 699h33.5v4.9H73.4z"/></g><g id="XMLID_862_"><path id="XMLID_701_" class="st0" d="M73.4 723.4h33.5v4.9H73.4z"/></g><g id="XMLID_860_"><path id="XMLID_700_" class="st0" d="M73.4 747.8h33.5v4.9H73.4z"/></g><g id="XMLID_858_"><path id="XMLID_699_" class="st0" d="M73.4 772.1h33.5v4.9H73.4z"/></g><g id="XMLID_856_"><path id="XMLID_698_" class="st0" d="M73.4 796.5h33.5v4.9H73.4z"/></g><g id="XMLID_854_"><path id="XMLID_697_" class="st0" d="M73.4 820.8h33.5v4.9H73.4z"/></g></g><g id="XMLID_836_"><g id="XMLID_851_"><path id="XMLID_696_" class="st0" d="M227.3 650.3h33.5v4.9h-33.5z"/></g><g id="XMLID_849_"><path id="XMLID_695_" class="st0" d="M227.3 674.7h33.5v4.9h-33.5z"/></g><g id="XMLID_847_"><path id="XMLID_694_" class="st0" d="M227.3 699h33.5v4.9h-33.5z"/></g><g id="XMLID_845_"><path id="XMLID_693_" class="st0" d="M227.3 723.4h33.5v4.9h-33.5z"/></g><g id="XMLID_843_"><path id="XMLID_692_" class="st0" d="M227.3 747.8h33.5v4.9h-33.5z"/></g><g id="XMLID_841_"><path id="XMLID_691_" class="st0" d="M227.3 772.1h33.5v4.9h-33.5z"/></g><g id="XMLID_839_"><path id="XMLID_690_" class="st0" d="M227.3 796.5h33.5v4.9h-33.5z"/></g><g id="XMLID_837_"><path id="XMLID_689_" class="st0" d="M227.3 820.8h33.5v4.9h-33.5z"/></g></g><g id="XMLID_834_"><path id="XMLID_688_" class="st0" d="M-61.1 288.6c-22 0-39.9-17.9-39.9-39.9s17.9-39.9 39.9-39.9c.8 0 1.5.1 2.2.1 1.2-29.3 25.4-52.7 55-52.7 18 0 34.7 8.7 45 23.4 4.7-2.2 9.5-3.3 14.5-3.3 19.2 0 34.9 15.7 34.9 34.9 0 2.8-.4 5.7-1.2 8.6h20.4v4.9H82.5l1.2-3.3c1.3-3.5 1.9-6.9 1.9-10.2 0-16.5-13.4-30-30-30-4.8 0-9.6 1.3-14.2 3.7l-2 1.1-1.2-1.9c-9.3-14.4-25-23-42.1-23-27.6 0-50.1 22.5-50.1 50.1V214.4l-3.9-.5c-1.1-.2-2.2-.3-3.3-.3-19.3 0-35 15.7-35 35s15.7 35 35 35l146.8-.2v4.9l-146.7.3z"/></g><g id="XMLID_832_"><path id="XMLID_687_" class="st0" d="M372 425.8c-8.6 0-16.7-3.1-23.1-8.8-11.1 2.6-22.1.5-31.1-5.6-5.4 5.6-12.9 8.7-20.7 8.7v-4.9c7.1 0 13.9-3.1 18.5-8.6l1.5-1.8 1.9 1.4c8.5 6.4 19.3 8.7 30.1 5.8l1.4-.4 1 1c5.6 5.4 12.9 8.4 20.7 8.4 16.4 0 29.8-13.4 29.8-29.8s-13.4-29.8-29.8-29.8h-2l-.7-1.2c-6.4-10.3-17.4-16.5-29.5-16.5-14.5 0-27.6 9.2-32.6 22.9l-.8 2.2-2.2-.7c-2.3-.7-4.7-1.1-7.1-1.1-5.2 0-10.2 1.7-14.4 4.8l-2.9-3.9c5-3.8 11-5.8 17.3-5.8 2.1 0 4.2.2 6.3.7 6.2-14.5 20.6-24 36.4-24 13.3 0 25.5 6.6 32.9 17.6 18.8.4 34 15.8 34 34.7-.2 19-15.8 34.7-34.9 34.7z"/></g><g id="XMLID_830_"><path id="XMLID_686_" class="st0" d="M172.9-8.6H168v-39.6c0-.8-.7-1.5-1.5-1.5s-1.5.7-1.5 1.5v39.6h-4.9v-39.6c0-3.5 2.9-6.4 6.4-6.4s6.4 2.9 6.4 6.4v39.6z"/></g><g id="XMLID_826_"><path id="XMLID_683_" class="st0" d="M297.7 632.5H35.3V402.2h262.4v230.3zm-257.5-4.9h252.6V407.1H40.2v220.5z"/></g><g id="XMLID_822_"><path id="XMLID_680_" class="st0" d="M283.2 846.5H49.8V627.6h233.4v218.9zm-228.5-4.9h223.6V632.5H54.7v209.1z"/></g><g id="XMLID_818_"><path id="XMLID_677_" class="st0" d="M282.7 407.1H50.3v-72.4h232.4v72.4zm-227.5-4.9h222.6v-62.5H55.2v62.5z"/></g><g id="XMLID_814_"><path id="XMLID_674_" class="st0" d="M290.5 339.4H42.6l66.9-84.7h113.6l67.4 84.7zm-237.8-5h227.6l-59.6-74.9H111.9l-59.2 74.9z"/></g><g id="XMLID_810_"><path id="XMLID_671_" class="st0" d="M224.3 259.5H108.7v-71.9h115.6v71.9zm-110.7-4.9h105.8v-62.1H113.6v62.1z"/></g><g id="XMLID_808_"><path id="XMLID_670_" class="st0" d="M123.7 664.7h4.9v148.9h-4.9z"/></g><g id="XMLID_806_"><path id="XMLID_669_" class="st0" d="M144.2 664.7h4.9v148.9h-4.9z"/></g><g id="XMLID_804_"><path id="XMLID_668_" class="st0" d="M183.9 664.7h4.9v148.9h-4.9z"/></g><g id="XMLID_802_"><path id="XMLID_667_" class="st0" d="M204.4 664.7h4.9v148.9h-4.9z"/></g><g id="XMLID_798_"><path id="XMLID_664_" class="st0" d="M181.4 13.1h-29.8v-23h29.8v23zm-24.9-4.9h20V-5h-20V8.2z"/></g><g id="XMLID_794_"><path id="XMLID_661_" class="st0" d="M114.1 388H97.9v-27.5c0-4.5 3.6-8.1 8.1-8.1s8.1 3.6 8.1 8.1V388zm-11.3-4.9h6.3v-22.6c0-1.7-1.4-3.2-3.2-3.2-1.7 0-3.2 1.4-3.2 3.2l.1 22.6z"/></g><g id="XMLID_790_"><path id="XMLID_658_" class="st0" d="M134.2 388H118v-27.5c0-4.5 3.6-8.1 8.1-8.1s8.1 3.6 8.1 8.1V388zm-11.2-4.9h6.3v-22.6c0-1.7-1.4-3.2-3.2-3.2-1.7 0-3.2 1.4-3.2 3.2l.1 22.6z"/></g><g id="XMLID_786_"><path id="XMLID_655_" class="st0" d="M154.4 388h-16.2v-27.5c0-4.5 3.6-8.1 8.1-8.1s8.1 3.6 8.1 8.1V388zm-11.2-4.9h6.3v-22.6c0-1.7-1.4-3.2-3.2-3.2-1.7 0-3.2 1.4-3.2 3.2l.1 22.6z"/></g><g id="XMLID_782_"><path id="XMLID_652_" class="st0" d="M174.6 388h-16.2v-27.5c0-4.5 3.6-8.1 8.1-8.1s8.1 3.6 8.1 8.1V388zm-11.3-4.9h6.3v-22.6c0-1.7-1.4-3.2-3.2-3.2-1.7 0-3.2 1.4-3.2 3.2l.1 22.6z"/></g><g id="XMLID_778_"><path id="XMLID_649_" class="st0" d="M194.8 388h-16.2v-27.5c0-4.5 3.6-8.1 8.1-8.1s8.1 3.6 8.1 8.1V388zm-11.3-4.9h6.3v-22.6c0-1.7-1.4-3.2-3.2-3.2-1.7 0-3.2 1.4-3.2 3.2l.1 22.6z"/></g><g id="XMLID_774_"><path id="XMLID_646_" class="st0" d="M214.9 388h-16.2v-27.5c0-4.5 3.6-8.1 8.1-8.1s8.1 3.6 8.1 8.1V388zm-11.2-4.9h6.3v-22.6c0-1.7-1.4-3.2-3.2-3.2-1.7 0-3.2 1.4-3.2 3.2l.1 22.6z"/></g><g id="XMLID_770_"><path id="XMLID_643_" class="st0" d="M235.1 388h-16.2v-27.5c0-4.5 3.6-8.1 8.1-8.1s8.1 3.6 8.1 8.1V388zm-11.2-4.9h6.3v-22.6c0-1.7-1.4-3.2-3.2-3.2-1.7 0-3.2 1.4-3.2 3.2l.1 22.6z"/></g><g id="XMLID_766_"><path id="XMLID_640_" class="st0" d="M139.3 240.4H126v-29.1a6.7 6.7 0 0 1 13.4 0l-.1 29.1zm-8.4-4.9h3.5v-24.2c0-1-.8-1.8-1.8-1.8s-1.8.8-1.8 1.8l.1 24.2z"/></g><g id="XMLID_762_"><path id="XMLID_637_" class="st0" d="M162.3 240.4H149v-29.1a6.7 6.7 0 0 1 13.4 0l-.1 29.1zm-8.5-4.9h3.5v-24.2c0-1-.8-1.8-1.8-1.8s-1.8.8-1.8 1.8l.1 24.2z"/></g><g id="XMLID_758_"><path id="XMLID_634_" class="st0" d="M185.2 240.4h-13.3v-29.1a6.7 6.7 0 0 1 13.4 0l-.1 29.1zm-8.4-4.9h3.5v-24.2c0-1-.8-1.8-1.8-1.8s-1.8.8-1.8 1.8l.1 24.2z"/></g><g id="XMLID_754_"><path id="XMLID_631_" class="st0" d="M208.1 240.4h-13.3v-29.1a6.7 6.7 0 0 1 13.4 0l-.1 29.1zm-8.4-4.9h3.5v-24.2c0-1-.8-1.8-1.8-1.8s-1.8.8-1.8 1.8l.1 24.2z"/></g><g id="XMLID_750_"><path id="XMLID_628_" class="st0" d="M241.5 566.2H91.6V416.4h149.9v149.8zm-145-4.9h140V421.2h-140v140.1z"/></g><g id="XMLID_746_"><path id="XMLID_625_" class="st0" d="M166.5 566.2c-41.3 0-75-33.6-75-75s33.6-75 75-75 74.9 33.6 74.9 75-33.6 75-74.9 75zm0-145c-38.6 0-70 31.4-70 70s31.4 70 70 70 70-31.4 70-70-31.4-70-70-70z"/></g><g id="XMLID_742_"><path id="XMLID_622_" class="st0" d="M166.1 529.8c-21.3 0-38.6-17.3-38.6-38.6s17.3-38.6 38.6-38.6 38.6 17.3 38.6 38.6-17.3 38.6-38.6 38.6zm0-72.2c-18.6 0-33.7 15.1-33.7 33.7s15.1 33.7 33.7 33.7 33.7-15.1 33.7-33.7c0-18.5-15.1-33.7-33.7-33.7z"/></g><g id="XMLID_740_"><path id="XMLID_621_" transform="rotate(59.828 187.626 479.223)" class="st0" d="M185.2 440.7h4.9v77h-4.9z"/></g><g id="XMLID_738_"><path id="XMLID_620_" transform="rotate(30.483 160.932 488.136)" class="st0" d="M140.6 485.7h40.7v4.9h-40.7z"/></g><path id="XMLID_737_" class="st0" d="M164 431.4h4.3v14.3H164z"/><path id="XMLID_736_" transform="rotate(-30 139.72 445.653)" class="st0" d="M137.6 438.5h4.3v14.3h-4.3z"/><path id="XMLID_735_" transform="rotate(-60 120.378 464.9)" class="st0" d="M118.2 457.7h4.3V472h-4.3z"/><path id="XMLID_734_" class="st0" d="M106.3 489.1h14.3v4.3h-14.3z"/><path id="XMLID_733_" transform="rotate(-120 120.426 517.65)" class="st0" d="M118.3 510.5h4.3v14.3h-4.3z"/><path id="XMLID_732_" transform="rotate(-150 139.715 536.965)" class="st0" d="M137.6 529.8h4.3v14.3h-4.3z"/><path id="XMLID_731_" class="st0" d="M164 536.8h4.3v14.3H164z"/><path id="XMLID_730_" transform="rotate(150 192.525 536.995)" class="st0" d="M190.4 529.8h4.3v14.3h-4.3z"/><path id="XMLID_729_" transform="rotate(120 211.8 517.573)" class="st0" d="M209.6 510.4h4.3v14.3h-4.3z"/><path id="XMLID_728_" class="st0" d="M211.7 489.1H226v4.3h-14.3z"/><path id="XMLID_727_" transform="rotate(30 192.487 445.55)" class="st0" d="M190.3 438.4h4.3v14.3h-4.3z"/><g id="XMLID_722_"><circle id="XMLID_612_" class="st0" cx="166.1" cy="491.2" r="4.9"/><path id="XMLID_616_" class="st0" d="M166.1 497c-3.2 0-5.8-2.6-5.8-5.8 0-3.2 2.6-5.8 5.8-5.8 3.2 0 5.8 2.6 5.8 5.8s-2.6 5.8-5.8 5.8zm0-9.9c-2.3 0-4.1 1.8-4.1 4.1s1.8 4.1 4.1 4.1 4.1-1.9 4.1-4.1-1.8-4.1-4.1-4.1z"/></g><g id="XMLID_718_"><path id="XMLID_613_" class="st0" d="M237.5 192.5h-142l4.2-4.2c57.4-57.4 56.6-176.4 56.6-177.6V8.2h20.5v2.4c0 1.2 1.6 122.7 56.6 177.7l4.1 4.2zm-130.4-4.9h118.8c-15.7-17.5-35.3-49.8-46.5-107.9-6.1-31.6-7.3-58.5-7.5-66.6h-10.8c-.2 17.2-3.6 119.1-54 174.5z"/></g></svg>