<svg version="1.1" id="Layer_1" xmlns="http://www.w3.org/2000/svg" x="0" y="0" viewBox="223 -54 1057.3 900" xml:space="preserve"><style type="text/css">.st0{fill:#f0efe9}</style><g id="XMLID_1867_"><path id="XMLID_1449_" class="st0" d="M583.7 538.3h-69v-36.6h102.5v4.8h-97.6v27h64.1z"/></g><g id="XMLID_1865_"><path id="XMLID_1448_" class="st0" d="M995.4 538.3h-68.9v-4.8h64v-27h-98.9v-4.8h103.8z"/></g><g id="XMLID_1861_"><path id="XMLID_1445_" class="st0" d="M995.4 595.8H514.7V533h67.7c2.9-4.1 14-18.6 37.1-33.2 24.6-15.5 67.9-34 135-34 37.1 0 90.5 5.9 134.8 34 23 14.6 34 29.1 36.9 33.2h69.2v62.8zm-475.8-4.9h470.9v-53.1h-67l-.7-1.1c-.1-.2-10.6-16.7-36.4-33-23.9-15.1-66.1-33.1-131.9-33.1-36.3 0-88.7 5.7-132.2 33.1-26 16.3-36.5 32.9-36.6 33l-.7 1.1H519.6v53.1z"/></g><g id="XMLID_1859_"><path id="XMLID_1444_" class="st0" d="M671.9 480.3H667v-60.9h16.8v4.9h-11.9z"/></g><g id="XMLID_1857_"><path id="XMLID_1443_" class="st0" d="M845.7 481.6h-4.9v-57.3h-11.2v-4.9h16.1z"/></g><g id="XMLID_1853_"><path id="XMLID_1440_" class="st0" d="M830.7 439.6H682V308.7h148.7v130.9zm-143.8-4.9h139V313.6h-139v121.1z"/></g><g id="XMLID_1849_"><path id="XMLID_1437_" class="st0" d="M471.4 841.8H242.7V577.9h228.7v263.9zm-223.8-4.9h218.9V582.8H247.6v254.1z"/></g><g id="XMLID_1845_"><path id="XMLID_1434_" class="st0" d="M455.8 399.8H258.3V236.3h197.5v163.5zM263.1 395h187.8V241.1H263.1V395z"/></g><g id="XMLID_1843_"><path id="XMLID_1433_" class="st0" d="M284.9 273h4.9v46h-4.9z"/></g><g id="XMLID_1841_"><path id="XMLID_1432_" class="st0" d="M305.2 273h4.9v46h-4.9z"/></g><g id="XMLID_1839_"><path id="XMLID_1431_" class="st0" d="M398.4 273h4.9v46h-4.9z"/></g><g id="XMLID_1837_"><path id="XMLID_1430_" class="st0" d="M418.7 273h4.9v46h-4.9z"/></g><g id="XMLID_1835_"><path id="XMLID_1429_" class="st0" d="M284.9 429.1h4.9v19.6h-4.9z"/></g><g id="XMLID_1833_"><path id="XMLID_1428_" class="st0" d="M305.2 429.1h4.9v19.6h-4.9z"/></g><g id="XMLID_1831_"><path id="XMLID_1427_" class="st0" d="M398.4 429.1h4.9v19.6h-4.9z"/></g><g id="XMLID_1829_"><path id="XMLID_1426_" class="st0" d="M418.7 429.1h4.9v19.6h-4.9z"/></g><g id="XMLID_1827_"><path id="XMLID_1425_" class="st0" d="M284.9 334.6h4.9v46h-4.9z"/></g><g id="XMLID_1825_"><path id="XMLID_1424_" class="st0" d="M305.2 334.6h4.9v46h-4.9z"/></g><g id="XMLID_1823_"><path id="XMLID_1423_" class="st0" d="M398.4 334.6h4.9v46h-4.9z"/></g><g id="XMLID_1821_"><path id="XMLID_1422_" class="st0" d="M418.7 334.6h4.9v46h-4.9z"/></g><g id="XMLID_1812_"><g id="XMLID_1817_"><path id="XMLID_1419_" class="st0" d="M442.1 696.7h-29v-56.2c0-8 6.5-14.5 14.5-14.5s14.5 6.5 14.5 14.5v56.2zm-24.2-4.9h19.3v-51.3c0-5.3-4.3-9.6-9.7-9.6-5.3 0-9.6 4.3-9.6 9.6v51.3z"/></g><g id="XMLID_1813_"><path id="XMLID_1416_" class="st0" d="M442.1 811.4h-29v-56.2c0-8 6.5-14.5 14.5-14.5s14.5 6.5 14.5 14.5v56.2zm-24.2-4.9h19.3v-51.3c0-5.3-4.3-9.6-9.7-9.6-5.3 0-9.6 4.3-9.6 9.6v51.3z"/></g></g><g id="XMLID_1803_"><g id="XMLID_1808_"><path id="XMLID_1413_" class="st0" d="M539.4 696.7h-29v-56.2c0-8 6.5-14.5 14.5-14.5s14.5 6.5 14.5 14.5v56.2zm-24.2-4.9h19.3v-51.3c0-5.3-4.3-9.6-9.7-9.6-5.3 0-9.6 4.3-9.6 9.6v51.3z"/></g><g id="XMLID_1804_"><path id="XMLID_1410_" class="st0" d="M539.4 811.4h-29v-56.2c0-8 6.5-14.5 14.5-14.5s14.5 6.5 14.5 14.5v56.2zm-24.2-4.9h19.3v-51.3c0-5.3-4.3-9.6-9.7-9.6-5.3 0-9.6 4.3-9.6 9.6v51.3z"/></g></g><g id="XMLID_1794_"><g id="XMLID_1799_"><path id="XMLID_1407_" class="st0" d="M995 696.7h-29v-56.2c0-8 6.5-14.5 14.5-14.5s14.5 6.5 14.5 14.5v56.2zm-24.2-4.9h19.3v-51.3c0-5.3-4.3-9.6-9.7-9.6-5.3 0-9.6 4.3-9.6 9.6v51.3z"/></g><g id="XMLID_1795_"><path id="XMLID_1404_" class="st0" d="M995 811.4h-29v-56.2c0-8 6.5-14.5 14.5-14.5s14.5 6.5 14.5 14.5v56.2zm-24.2-4.9h19.3v-51.3c0-5.3-4.3-9.6-9.7-9.6-5.3 0-9.6 4.3-9.6 9.6v51.3z"/></g></g><g id="XMLID_1785_"><g id="XMLID_1790_"><path id="XMLID_1401_" class="st0" d="M304.3 696.7h-29v-56.2c0-8 6.5-14.5 14.5-14.5s14.5 6.5 14.5 14.5v56.2zm-24.1-4.9h19.3v-51.3c0-5.3-4.3-9.6-9.7-9.6-5.3 0-9.6 4.3-9.6 9.6v51.3z"/></g><g id="XMLID_1786_"><path id="XMLID_1398_" class="st0" d="M304.3 811.4h-29v-56.2c0-8 6.5-14.5 14.5-14.5s14.5 6.5 14.5 14.5v56.2zm-24.1-4.9h19.3v-51.3c0-5.3-4.3-9.6-9.7-9.6-5.3 0-9.6 4.3-9.6 9.6v51.3z"/></g></g><g id="XMLID_1781_"><path id="XMLID_1395_" class="st0" d="M389.2 811.5h-61v-88.4c0-16.8 13.7-30.5 30.5-30.5s30.5 13.7 30.5 30.5v88.4zm-56.1-4.9h51.3v-83.5c0-14.1-11.5-25.6-25.7-25.6-14.1 0-25.6 11.5-25.6 25.6v83.5z"/></g><g id="XMLID_1777_"><path id="XMLID_1392_" class="st0" d="M537 491.3c-8.3 0-15-6.7-15-15s6.7-15 15-15 15 6.7 15 15-6.7 15-15 15zm0-25.2c-5.6 0-10.2 4.6-10.2 10.2s4.6 10.2 10.2 10.2 10.2-4.6 10.2-10.2-4.6-10.2-10.2-10.2z"/></g><g id="XMLID_1773_"><path id="XMLID_1389_" class="st0" d="M467.3 215.7c-8.3 0-15-6.7-15-15s6.7-15 15-15 15 6.7 15 15c0 8.2-6.7 15-15 15zm0-25.2c-5.6 0-10.2 4.6-10.2 10.2s4.6 10.2 10.2 10.2 10.2-4.6 10.2-10.2-4.6-10.2-10.2-10.2z"/></g><g id="XMLID_1769_"><path id="XMLID_1386_" class="st0" d="M361.9-30.8c-6.4 0-11.6-5.2-11.6-11.6S355.5-54 361.9-54c6.4 0 11.6 5.2 11.6 11.6.1 6.4-5.2 11.6-11.6 11.6zm0-18.3a6.7 6.7 0 1 0 6.7 6.7c.1-3.7-2.9-6.7-6.7-6.7z"/></g><g id="XMLID_1765_"><path id="XMLID_1383_" class="st0" d="M1158-29.3c-6.4 0-11.6-5.2-11.6-11.6s5.2-11.6 11.6-11.6 11.6 5.2 11.6 11.6-5.2 11.6-11.6 11.6zm0-18.4a6.7 6.7 0 1 0 0 13.4 6.7 6.7 0 0 0 0-13.4z"/></g><g id="XMLID_1761_"><path id="XMLID_1380_" class="st0" d="M248.5 215.7c-8.3 0-15-6.7-15-15s6.7-15 15-15 15 6.7 15 15c0 8.2-6.8 15-15 15zm0-25.2c-5.6 0-10.2 4.6-10.2 10.2s4.6 10.2 10.2 10.2 10.2-4.6 10.2-10.2-4.6-10.2-10.2-10.2z"/></g><g id="XMLID_1757_"><path id="XMLID_1377_" class="st0" d="M604.4 491.3c-8.3 0-15-6.7-15-15s6.7-15 15-15 15 6.7 15 15-6.7 15-15 15zm0-25.2c-5.6 0-10.2 4.6-10.2 10.2s4.6 10.2 10.2 10.2 10.2-4.6 10.2-10.2-4.6-10.2-10.2-10.2z"/></g><g id="XMLID_1753_"><path id="XMLID_1374_" class="st0" d="M909.2 491.3c-8.3 0-15-6.7-15-15s6.7-15 15-15 15 6.7 15 15-6.7 15-15 15zm0-25.2c-5.6 0-10.2 4.6-10.2 10.2s4.6 10.2 10.2 10.2 10.2-4.6 10.2-10.2-4.6-10.2-10.2-10.2z"/></g><g id="XMLID_1749_"><path id="XMLID_1371_" class="st0" d="M980.9 491.3c-8.3 0-15-6.7-15-15s6.7-15 15-15 15 6.7 15 15-6.7 15-15 15zm0-25.2c-5.6 0-10.2 4.6-10.2 10.2s4.6 10.2 10.2 10.2 10.2-4.6 10.2-10.2-4.6-10.2-10.2-10.2z"/></g><g id="XMLID_1745_"><path id="XMLID_1368_" class="st0" d="M484.3 583.1H223v-39.9h261.3v39.9zm-256.4-4.8h251.6v-30.2H227.9v30.2z"/></g><g id="XMLID_1741_"><path id="XMLID_1365_" class="st0" d="M484.3 241H229.8v-19.4h254.5V241zm-249.6-4.8h244.8v-9.7H234.7v9.7z"/></g><g id="XMLID_1737_"><path id="XMLID_1362_" class="st0" d="M448.3 226.5H268.2v-33.6h180.1v33.6zm-175.2-4.8h170.4v-23.9H273.1v23.9z"/></g><g id="XMLID_1733_"><path id="XMLID_1359_" class="st0" d="M312 526.7h-29v-50.8c0-8 6.5-14.5 14.5-14.5s14.5 6.5 14.5 14.5v50.8zm-24.1-4.9h19.3v-45.9c0-5.3-4.3-9.6-9.7-9.6-5.3 0-9.6 4.3-9.6 9.6v45.9z"/></g><g id="XMLID_1729_"><path id="XMLID_1356_" class="st0" d="M425.6 526.7h-29v-50.8c0-8 6.5-14.5 14.5-14.5s14.5 6.5 14.5 14.5v50.8zm-24.1-4.9h19.3v-45.9c0-5.3-4.3-9.6-9.7-9.6-5.3 0-9.6 4.3-9.6 9.6v45.9z"/></g><g id="XMLID_1725_"><path id="XMLID_1353_" class="st0" d="M379.2 526.7h-49.8v-41.9c0-13.7 11.2-24.9 24.9-24.9s24.9 11.2 24.9 24.9v41.9zm-44.9-4.9h40.1v-37.1c0-11-9-20-20.1-20-11 0-20 9-20 20v37.1z"/></g><g id="XMLID_1721_"><path id="XMLID_1350_" class="st0" d="M379.2 390h-49.8v-58.3h49.8V390zm-44.9-4.9h40.1v-48.6h-40.1v48.6z"/></g><g id="XMLID_1719_"><path id="XMLID_1349_" class="st0" d="M415.8 70.8H411c0-27.1-22.1-49.2-49.2-49.2s-49.2 22.1-49.2 49.2h-4.9c0-29.8 24.3-54.1 54.1-54.1s54 24.3 54 54.1z"/></g><g id="XMLID_1715_"><path id="XMLID_1346_" class="st0" d="M361.8 21.6c-14.1 0-25.6-11.5-25.6-25.6s11.5-25.6 25.6-25.6S387.4-18.1 387.4-4s-11.5 25.6-25.6 25.6zm0-46.4C350.3-24.8 341-15.5 341-4s9.3 20.7 20.7 20.7S382.4 7.4 382.4-4s-9.2-20.8-20.6-20.8z"/></g><g id="XMLID_1713_"><path id="XMLID_1345_" class="st0" d="M295.2 68.4h133.2v4.9H295.2z"/></g><g id="XMLID_1709_"><path id="XMLID_1342_" class="st0" d="M445.9 197.8H270.6v-4.9c.3 0 37.2-2.4 37.2-122.1v-2.4H416v2.4c0 119.2 29.6 122.1 29.9 122.1v4.9zm-163.8-4.9h154.2c-2.7-2.5-5.7-6.3-8.7-12-10.7-20.7-16.2-56.9-16.4-107.7h-98.5c-.4 82.3-18.3 110.2-30.6 119.7z"/></g><g id="XMLID_1705_"><path id="XMLID_1339_" class="st0" d="M379.2 324h-49.8v-41.9c0-13.7 11.2-24.9 24.9-24.9s24.9 11.2 24.9 24.9V324zm-44.9-4.9h40.1V282c0-11-9-20-20.1-20-11 0-20 9-20 20v37.1z"/></g><g id="XMLID_1703_"><path id="XMLID_1338_" class="st0" d="M832 712.9h-4.9c0-37.7-30.7-68.5-68.5-68.5s-68.5 30.7-68.5 68.5h-4.9c0-40.4 32.9-73.3 73.3-73.3 40.6 0 73.5 32.9 73.5 73.3z"/></g><g id="XMLID_1701_"><path id="XMLID_1337_" class="st0" d="M832 815.4H685.4V711.2h4.8v99.3h137v-99.3h4.8z"/></g><g id="XMLID_1699_"><path id="XMLID_1336_" class="st0" d="M468.9 836.9h572.3v4.9H468.9z"/></g><g id="XMLID_1697_"><path id="XMLID_1335_" class="st0" d="M468.9 591.4h572.3v4.9H468.9z"/></g><g id="XMLID_1693_"><path id="XMLID_1332_" class="st0" d="M806.1 421.5h-97v-97h97v97zm-92.1-4.9h87.2v-87.2H714v87.2z"/></g><g id="XMLID_1689_"><path id="XMLID_1329_" class="st0" d="M757.6 421.5c-26.7 0-48.5-21.7-48.5-48.5 0-26.7 21.7-48.5 48.5-48.5s48.5 21.7 48.5 48.5c0 26.7-21.8 48.5-48.5 48.5zm0-92.1c-24 0-43.6 19.6-43.6 43.6s19.6 43.6 43.6 43.6c24.1 0 43.6-19.6 43.6-43.6s-19.5-43.6-43.6-43.6z"/></g><g id="XMLID_1685_"><path id="XMLID_1326_" class="st0" d="M757.4 398.4c-14 0-25.4-11.4-25.4-25.4s11.4-25.4 25.4-25.4 25.4 11.4 25.4 25.4c-.1 14-11.4 25.4-25.4 25.4zm0-45.9c-11.3 0-20.5 9.2-20.5 20.5s9.2 20.5 20.5 20.5 20.5-9.2 20.5-20.5-9.2-20.5-20.5-20.5z"/></g><g id="XMLID_1673_"><path id="XMLID_1461_" class="st0" d="M756 335h2.7v9.1H756z"/><path id="XMLID_1460_" transform="rotate(-30.006 740.53 343.954)" class="st0" d="M739.2 339.4h2.7v9.1h-2.7z"/><path id="XMLID_1459_" transform="rotate(-60 728.342 356.294)" class="st0" d="M727 351.7h2.7v9.1H727z"/><path id="XMLID_1458_" class="st0" d="M719.3 371.7h9.1v2.7h-9.1z"/><path id="XMLID_1457_" transform="rotate(-120 728.298 389.79)" class="st0" d="M726.9 385.2h2.7v9.1h-2.7z"/><path id="XMLID_1456_" transform="rotate(-150 740.627 402.038)" class="st0" d="M739.3 397.5h2.7v9.1h-2.7z"/><path id="XMLID_1455_" class="st0" d="M756 402h2.7v9.1H756z"/><path id="XMLID_1454_" transform="rotate(150 774.03 401.991)" class="st0" d="M772.7 397.4h2.7v9.1h-2.7z"/><path id="XMLID_1453_" transform="rotate(120 786.367 389.768)" class="st0" d="M785 385.2h2.7v9.1H785z"/><path id="XMLID_1452_" class="st0" d="M786.3 371.7h9.1v2.7h-9.1z"/><path id="XMLID_1451_" transform="rotate(30 774.125 343.973)" class="st0" d="M772.8 339.5h2.7v9.1h-2.7z"/></g><g id="XMLID_1663_"><g id="XMLID_1671_"><path id="XMLID_1325_" transform="rotate(59.828 771.01 365.264)" class="st0" d="M768.5 340.8h4.9v48.9h-4.9z"/></g><g id="XMLID_1669_"><path id="XMLID_1324_" transform="rotate(30.483 754.08 371.113)" class="st0" d="M741.2 368.7H767v4.9h-25.8z"/></g><g id="XMLID_1664_"><circle id="XMLID_1164_" class="st0" cx="757.4" cy="373" r="3.1"/><path id="XMLID_1320_" class="st0" d="M757.4 378.6c-3.1 0-5.6-2.5-5.6-5.6s2.5-5.6 5.6-5.6 5.6 2.5 5.6 5.6-2.6 5.6-5.6 5.6zm0-6.3c-.4 0-.7.3-.7.7s.3.7.7.7c.4 0 .7-.3.7-.7s-.4-.7-.7-.7z"/></g></g><g id="XMLID_1659_"><path id="XMLID_1317_" class="st0" d="M691.4 267.6c-6.2 0-11.2-5-11.2-11.2s5-11.2 11.2-11.2 11.2 5 11.2 11.2-5 11.2-11.2 11.2zm0-17.6c-3.5 0-6.4 2.9-6.4 6.4s2.9 6.4 6.4 6.4 6.4-2.9 6.4-6.4-2.9-6.4-6.4-6.4z"/></g><g id="XMLID_1655_"><path id="XMLID_1314_" class="st0" d="M824.4 267.6c-6.2 0-11.2-5-11.2-11.2s5-11.2 11.2-11.2 11.2 5 11.2 11.2-5 11.2-11.2 11.2zm0-17.6c-3.5 0-6.4 2.9-6.4 6.4s2.9 6.4 6.4 6.4 6.4-2.9 6.4-6.4-2.9-6.4-6.4-6.4z"/></g><g id="XMLID_1651_"><path id="XMLID_1311_" class="st0" d="M840.6 313.6H668.5v-20.1h172.1v20.1zm-167.2-4.9h162.4v-10.4H673.4v10.4z"/></g><g id="XMLID_1647_"><path id="XMLID_1308_" class="st0" d="M793.3 298.3h-71.9v-50.7h71.9v50.7zm-67-4.9h62.1v-41h-62.1v41z"/></g><g id="XMLID_1643_"><path id="XMLID_1305_" class="st0" d="M726.3 298.3h-42.9v-27.8h42.9v27.8zm-38-4.9h33.2v-18.1h-33.2v18.1z"/></g><g id="XMLID_1639_"><path id="XMLID_1302_" class="st0" d="M831.5 298.3h-42.9v-27.8h42.9v27.8zm-38-4.9h33.2v-18.1h-33.2v18.1z"/></g><g id="XMLID_1635_"><path id="XMLID_1299_" class="st0" d="M801.9 252.5h-88.7v-13h88.7v13zm-83.8-4.9h79v-3.2h-79v3.2z"/></g><g id="XMLID_1633_"><path id="XMLID_1298_" class="st0" d="M747.4 40.8h4.9v202.9h-4.9z"/></g><g id="XMLID_1629_"><path id="XMLID_1295_" class="st0" d="M747.3 159.6l.8-103.7 1-.7c1.2-.9 30.5-22.7 65.7-15.2 6.9 1.5 13.9 3.4 20.6 5.3 19.3 5.4 37.5 10.6 50.6 3.7l3.6-1.9v100.4l-1.8.5c-1.4.4-33.5 8.9-74.3-6-9.1-3.3-33.4-8.6-62.1 14.4l-4.1 3.2zm5.6-101.2l-.7 91.2c29-20.9 53.4-15.6 62.8-12.1 33.9 12.4 62.3 7.8 69.5 6.3V54.9c-14.2 5.3-31.9.3-50.6-5-6.7-1.9-13.6-3.8-20.3-5.3-29.4-6.2-55.4 10.2-60.7 13.8z"/></g><g id="XMLID_1625_"><path id="XMLID_1292_" class="st0" d="M755 569.8c-16.1 0-29.2-16.8-29.2-37.4S738.9 495 755 495s29.2 16.8 29.2 37.4c0 20.6-13.1 37.4-29.2 37.4zm0-69.9c-13.4 0-24.3 14.6-24.3 32.5s10.9 32.5 24.3 32.5 24.3-14.6 24.3-32.5-10.9-32.5-24.3-32.5z"/></g><g id="XMLID_1621_"><path id="XMLID_1289_" class="st0" d="M471.2 546.9H242.9V416.3h228.3v130.6zm-223.8-4.5h219.3V420.8H247.4v121.6z"/></g><g id="XMLID_1617_"><path id="XMLID_1286_" class="st0" d="M484.3 421H223v-26h261.3v26zm-256.4-4.9h251.6v-16.3H227.9v16.3z"/></g><g id="XMLID_1613_"><path id="XMLID_1283_" class="st0" d="M1267.4 841.8h-228.7V577.9h228.7v263.9zm-223.8-4.9h218.9V582.8h-218.9v254.1z"/></g><g id="XMLID_1609_"><path id="XMLID_1280_" class="st0" d="M1251.8 399.8h-197.5V236.3h197.5v163.5zm-192.6-4.8H1247V241.1h-187.8V395z"/></g><g id="XMLID_1607_"><path id="XMLID_1279_" class="st0" d="M1081 273h4.9v46h-4.9z"/></g><g id="XMLID_1605_"><path id="XMLID_1278_" class="st0" d="M1101.3 273h4.9v46h-4.9z"/></g><g id="XMLID_1603_"><path id="XMLID_1277_" class="st0" d="M1194.5 273h4.9v46h-4.9z"/></g><g id="XMLID_1601_"><path id="XMLID_1276_" class="st0" d="M1214.8 273h4.9v46h-4.9z"/></g><g id="XMLID_1599_"><path id="XMLID_1275_" class="st0" d="M1081 429.1h4.9v19.6h-4.9z"/></g><g id="XMLID_1597_"><path id="XMLID_1274_" class="st0" d="M1101.3 429.1h4.9v19.6h-4.9z"/></g><g id="XMLID_1595_"><path id="XMLID_1273_" class="st0" d="M1194.5 429.1h4.9v19.6h-4.9z"/></g><g id="XMLID_1593_"><path id="XMLID_1272_" class="st0" d="M1214.8 429.1h4.9v19.6h-4.9z"/></g><g id="XMLID_1591_"><path id="XMLID_1271_" class="st0" d="M1081 334.6h4.9v46h-4.9z"/></g><g id="XMLID_1589_"><path id="XMLID_1270_" class="st0" d="M1101.3 334.6h4.9v46h-4.9z"/></g><g id="XMLID_1587_"><path id="XMLID_1269_" class="st0" d="M1194.5 334.6h4.9v46h-4.9z"/></g><g id="XMLID_1585_"><path id="XMLID_1268_" class="st0" d="M1214.8 334.6h4.9v46h-4.9z"/></g><g id="XMLID_1576_"><g id="XMLID_1581_"><path id="XMLID_1265_" class="st0" d="M1238.1 696.7h-29v-56.2c0-8 6.5-14.5 14.5-14.5s14.5 6.5 14.5 14.5v56.2zm-24.1-4.9h19.3v-51.3c0-5.3-4.3-9.6-9.7-9.6-5.3 0-9.6 4.3-9.6 9.6v51.3z"/></g><g id="XMLID_1577_"><path id="XMLID_1262_" class="st0" d="M1238.1 811.4h-29v-56.2c0-8 6.5-14.5 14.5-14.5s14.5 6.5 14.5 14.5v56.2zm-24.1-4.9h19.3v-51.3c0-5.3-4.3-9.6-9.7-9.6-5.3 0-9.6 4.3-9.6 9.6v51.3z"/></g></g><g id="XMLID_1567_"><g id="XMLID_1572_"><path id="XMLID_1259_" class="st0" d="M1100.4 696.7h-29v-56.2c0-8 6.5-14.5 14.5-14.5s14.5 6.5 14.5 14.5v56.2zm-24.2-4.9h19.3v-51.3c0-5.3-4.3-9.6-9.7-9.6-5.3 0-9.6 4.3-9.6 9.6v51.3z"/></g><g id="XMLID_1568_"><path id="XMLID_1256_" class="st0" d="M1100.4 811.4h-29v-56.2c0-8 6.5-14.5 14.5-14.5s14.5 6.5 14.5 14.5v56.2zm-24.2-4.9h19.3v-51.3c0-5.3-4.3-9.6-9.7-9.6-5.3 0-9.6 4.3-9.6 9.6v51.3z"/></g></g><g id="XMLID_1563_"><path id="XMLID_1253_" class="st0" d="M1185.3 811.5h-61v-88.4c0-16.8 13.7-30.5 30.5-30.5s30.5 13.7 30.5 30.5v88.4zm-56.2-4.9h51.3v-83.5c0-14.1-11.5-25.6-25.7-25.6-14.1 0-25.6 11.5-25.6 25.6v83.5z"/></g><g id="XMLID_1559_"><path id="XMLID_1250_" class="st0" d="M1263.4 215.7c-8.3 0-15-6.7-15-15s6.7-15 15-15 15 6.7 15 15c0 8.2-6.7 15-15 15zm0-25.2c-5.6 0-10.2 4.6-10.2 10.2s4.6 10.2 10.2 10.2 10.2-4.6 10.2-10.2c-.1-5.6-4.6-10.2-10.2-10.2z"/></g><g id="XMLID_1555_"><path id="XMLID_1247_" class="st0" d="M1044.5 215.7c-8.3 0-15-6.7-15-15s6.7-15 15-15 15 6.7 15 15c0 8.2-6.7 15-15 15zm0-25.2c-5.6 0-10.2 4.6-10.2 10.2s4.6 10.2 10.2 10.2 10.2-4.6 10.2-10.2-4.6-10.2-10.2-10.2z"/></g><g id="XMLID_1551_"><path id="XMLID_1244_" class="st0" d="M1280.3 583.1H1019v-39.9h261.3v39.9zm-256.4-4.8h251.6v-30.2h-251.6v30.2z"/></g><g id="XMLID_1547_"><path id="XMLID_1241_" class="st0" d="M1280.3 241h-254.5v-19.4h254.5V241zm-249.6-4.8h244.8v-9.7h-244.8v9.7z"/></g><g id="XMLID_1543_"><path id="XMLID_1238_" class="st0" d="M1244.4 226.5h-180.1v-33.6h180.1v33.6zm-175.3-4.8h170.4v-23.9h-170.4v23.9z"/></g><g id="XMLID_1539_"><path id="XMLID_1235_" class="st0" d="M1108.1 526.7h-29v-50.8c0-8 6.5-14.5 14.5-14.5s14.5 6.5 14.5 14.5v50.8zm-24.2-4.9h19.3v-45.9c0-5.3-4.3-9.6-9.7-9.6-5.3 0-9.6 4.3-9.6 9.6v45.9z"/></g><g id="XMLID_1535_"><path id="XMLID_1232_" class="st0" d="M1221.7 526.7h-29v-50.8c0-8 6.5-14.5 14.5-14.5s14.5 6.5 14.5 14.5v50.8zm-24.2-4.9h19.3v-45.9c0-5.3-4.3-9.6-9.7-9.6-5.3 0-9.6 4.3-9.6 9.6v45.9z"/></g><g id="XMLID_1531_"><path id="XMLID_1229_" class="st0" d="M1175.3 526.7h-49.8v-41.9c0-13.7 11.2-24.9 24.9-24.9s24.9 11.2 24.9 24.9v41.9zm-45-4.9h40.1v-37.1c0-11-9-20-20.1-20-11 0-20 9-20 20v37.1z"/></g><g id="XMLID_1527_"><path id="XMLID_1226_" class="st0" d="M1175.3 390h-49.8v-58.3h49.8V390zm-45-4.9h40.1v-48.6h-40.1v48.6z"/></g><g id="XMLID_1525_"><path id="XMLID_1225_" class="st0" d="M1211.9 70.8h-4.9c0-27.1-22.1-49.2-49.2-49.2s-49.2 22.1-49.2 49.2h-4.9c0-29.8 24.3-54.1 54.1-54.1s54.1 24.3 54.1 54.1z"/></g><g id="XMLID_1521_"><path id="XMLID_1222_" class="st0" d="M1157.8 21.6c-14.1 0-25.6-11.5-25.6-25.6s11.5-25.6 25.6-25.6 25.6 11.5 25.6 25.6-11.5 25.6-25.6 25.6zm0-46.4c-11.4 0-20.7 9.3-20.7 20.7s9.3 20.7 20.7 20.7 20.7-9.3 20.7-20.7-9.2-20.7-20.7-20.7z"/></g><g id="XMLID_1519_"><path id="XMLID_1221_" class="st0" d="M1091.2 68.4h133.2v4.9h-133.2z"/></g><g id="XMLID_1515_"><path id="XMLID_1218_" class="st0" d="M1241.9 197.8h-175.2v-4.9c.3 0 37.2-2.4 37.2-122.1v-2.4h108.3v2.4c0 119.2 29.6 122.1 29.9 122.1l-.2 4.9zm-163.8-4.9h154.2c-2.7-2.5-5.7-6.3-8.7-12-10.7-20.7-16.2-56.9-16.4-107.7h-98.5c-.3 82.3-18.2 110.2-30.6 119.7z"/></g><g id="XMLID_1511_"><path id="XMLID_1215_" class="st0" d="M1175.3 324h-49.8v-41.9c0-13.7 11.2-24.9 24.9-24.9s24.9 11.2 24.9 24.9V324zm-45-4.9h40.1V282c0-11-9-20-20.1-20-11 0-20 9-20 20v37.1z"/></g><g id="XMLID_1507_"><path id="XMLID_1212_" class="st0" d="M1267.3 546.9H1039V416.3h228.3v130.6zm-223.8-4.5h219.3V420.8h-219.3v121.6z"/></g><g id="XMLID_1503_"><path id="XMLID_1209_" class="st0" d="M1280.3 421H1019v-26h261.3v26zm-256.4-4.9h251.6v-16.3h-251.6v16.3z"/></g><g id="XMLID_1499_"><path id="XMLID_1206_" class="st0" d="M639 841.8h-57.6V639H639v202.8zm-52.7-4.9h47.8v-193h-47.8v193z"/></g><g id="XMLID_1495_"><path id="XMLID_1202_" class="st0" d="M606.5 632.2h-24.8v-30.1h24.8v30.1zm-20.6-4.2h16.4v-21.7h-16.4V628z"/></g><g id="XMLID_1491_"><path id="XMLID_1196_" class="st0" d="M638.9 632.2h-24.8v-30.1h24.8v30.1zm-20.5-4.2h16.4v-21.7h-16.4V628z"/></g><g id="XMLID_1487_"><path id="XMLID_1190_" class="st0" d="M895.1 632.2h-24.8v-30.1h24.8v30.1zm-20.6-4.2h16.4v-21.7h-16.4V628z"/></g><g id="XMLID_1483_"><path id="XMLID_1184_" class="st0" d="M927.5 632.2h-24.8v-30.1h24.8v30.1zM907 628h16.4v-21.7H907V628z"/></g><g id="XMLID_1481_"><path id="XMLID_1182_" class="st0" d="M594.4 653.6h4.9v168.9h-4.9z"/></g><g id="XMLID_1479_"><path id="XMLID_1180_" class="st0" d="M607.3 653.6h4.9v168.9h-4.9z"/></g><g id="XMLID_1477_"><path id="XMLID_1179_" class="st0" d="M621.9 653.6h4.9v168.9h-4.9z"/></g><g id="XMLID_1473_"><path id="XMLID_1174_" class="st0" d="M927.6 841.8H870V639h57.6v202.8zm-52.7-4.9h47.8v-193h-47.8v193z"/></g><g id="XMLID_1471_"><path id="XMLID_1172_" class="st0" d="M883 653.6h4.9v168.9H883z"/></g><g id="XMLID_1469_"><path id="XMLID_1170_" class="st0" d="M895.9 653.6h4.9v168.9h-4.9z"/></g><g id="XMLID_1467_"><path id="XMLID_1168_" class="st0" d="M910.5 653.6h4.9v168.9h-4.9z"/></g><g id="XMLID_1465_"><path id="XMLID_1166_" class="st0" d="M756.3 642h4.9v170.9h-4.9z"/></g><circle id="XMLID_1450_" class="st0" cx="746.2" cy="748" r="3.4"/><circle id="XMLID_1323_" class="st0" cx="770.5" cy="748" r="3.4"/></svg>