<svg version="1.1" id="Layer_1" xmlns="http://www.w3.org/2000/svg" x="0" y="0" viewBox="114 -54 839.4 900" xml:space="preserve"><style type="text/css">.st0{fill:#f0efe9}</style><path class="st0" d="M182.7 228.8c-20.5 0-37.2-16.7-37.2-37.2s16.7-37.2 37.2-37.2c.7 0 1.4.1 2.1.1 1.1-27.3 23.7-49.1 51.2-49.1 16.8 0 32.3 8.1 41.9 21.8 4.4-2 8.9-3.1 13.5-3.1 17.3 0 30 12.1 30.9 29 4.2.8 9.6 3.3 9.6 8.7h-4.6c0-3.7-7.4-4.5-7.4-4.5l-2.1-.2V155c0-15.6-10.9-26.4-26.4-26.4-4.5 0-8.9 1.2-13.2 3.5l-1.9 1-1.1-1.8c-8.7-13.4-23.3-21.4-39.2-21.4-25.7 0-46.7 20.9-46.7 46.7v3l-3.6-.5c-1.1-.1-2.1-.3-3.1-.3-18 0-32.6 14.6-32.6 32.6s14.6 32.6 32.6 32.6l138.4-.2v4.6l-138.3.4zM1006.9 316.1c-8 0-15.6-2.9-21.5-8.2-10.3 2.5-20.6.4-29-5.2-5.1 5.2-12 8.1-19.3 8.1 0 0-3.6.2-7.7-1.1l1.4-4.3c3.2 1.1 6.1.9 6.1.9 6.8 0 13.1-2.9 17.4-8.1l1.4-1.7 1.7 1.3c7.9 6 18 8.1 28 5.4l1.3-.3.9.9c5.2 5.1 12.1 7.8 19.3 7.8 15.3 0 27.8-12.5 27.8-27.8s-12.5-27.8-27.8-27.8H1005l-.7-1.1c-6-9.6-16.2-15.4-27.5-15.4-13.6 0-25.8 8.6-30.4 21.3l-.7 2-2.1-.6c-2.1-.6-4.4-.8-6.7-1-1.8-.1-3.5-.1-5.1.1l-.6-4.5c1.9-.3 3.9-.3 6-.2 1.9.1 3.8.3 5.7.7 5.8-13.5 19.2-22.4 33.9-22.4 12.4 0 23.8 6.1 30.7 16.4 17.5.3 31.7 14.7 31.7 32.3 0 18-14.5 32.5-32.3 32.5zM496 16.2h-7.4v-4.6h7.4c8.4 0 15.2-6.8 15.2-15.2s-6.8-15.2-15.2-15.2h-2.2l-.1-2.2c-.5-15.9-13.4-28.3-29.3-28.3-8.7 0-16.8 3.8-22.4 10.4l-1.8 2.1-1.7-2.1c-2.1-2.5-5.1-4-8.4-4-6 0-10.9 4.9-10.9 10.9v2.1l-2.1.3c-10.5 1.1-18.5 9.9-18.5 20.5 0 11.4 9.3 20.6 20.6 20.6h52.4v4.6h-52.4C405.3 16.1 394 4.8 394-9.1c0-12.3 8.8-22.7 20.7-24.8 1-7.7 7.5-13.6 15.4-13.6 3.7 0 7.3 1.3 10.1 3.7 6.4-6.5 15.1-10.2 24.2-10.2 17.7 0 32.1 13.3 33.7 30.6 9.9 1.1 17.6 9.5 17.6 19.7 0 11-8.8 19.9-19.7 19.9zM663.3 828.9h-80.9V685.7h80.9v143.2zm-76.3-4.6h71.7v-134H587v134z"/><path class="st0" d="M620.6 688h4.6v140.1h-4.6z"/><path class="st0" d="M584.7 724.1H661v4.6h-76.3zM584.7 729.7H661v4.6h-76.3zM586 714l-2.6-3.8c.1-.1 12.6-8.7 14-22.4l4.6.5c-1.6 15.9-15.4 25.3-16 25.7zM659.5 714c-.6-.4-14.4-9.8-16-25.7l4.6-.5c1.4 13.8 13.9 22.3 14 22.4l-2.6 3.8zM613.4 769.6h4.6v8.4h-4.6zM627.3 769.6h4.6v8.4h-4.6zM866.5 828.9h-56v-97.5h56v97.5zm-51.4-4.6h46.8V736h-46.8v88.3z"/><path class="st0" d="M836.2 733.7h4.6v92.9h-4.6z"/><path class="st0" d="M812.8 757.3h51.4v4.6h-51.4zM812.8 765.7h51.4v4.6h-51.4zM814.1 751.9l-2.6-3.8 1.3 1.9-1.3-1.9c.1-.1 8.2-5.7 9.1-14.5l4.6.5c-1.2 10.9-10.7 17.5-11.1 17.8zM862.7 751.9c-.4-.3-10-6.8-11.1-17.9l4.6-.5c.9 8.9 9 14.5 9.1 14.6l-2.6 3.8zM830.1 788.7h4.6v5.7h-4.6zM842.3 788.7h4.6v5.7h-4.6zM558 641.6h21.1v4.6H558zM666.4 641.6h21.1v4.6h-21.1z"/><path class="st0" d="M692.3 642.5c-.1-.1-6.2-6-17.8-11.9-10.7-5.4-28.3-11.9-51.6-11.9-50.1 0-70.1 23.4-70.3 23.6l-3.5-2.9c.9-1 21.6-25.3 73.8-25.3 46.7 0 71.6 24.1 72.6 25.1l-3.2 3.3zM884.8 708c-2.1-1.9-21.1-18.4-46.2-18.4-22.7 0-41 13.3-46.2 18.4l-3.2-3.2c8-7.9 27.7-19.7 49.4-19.7 20.4 0 39.3 10.6 49.3 19.6l-3.1 3.3z"/><path class="st0" d="M663 670.5h-79.1v-40H663v40zm-74.5-4.6h69.9V635h-69.9v30.9zM577.3 680.9h-15.4v-27.3h15.4v27.3zm-10.8-4.6h6.3v-18.1h-6.3v18.1zM577.3 807.4h-15.4V704h15.4v103.4zm-10.8-4.5h6.3v-94.3h-6.3v94.3zM684.1 807.4h-15.4V704h15.4v103.4zm-10.8-4.5h6.3v-94.3h-6.3v94.3zM684.7 680.9h-15.4v-27.3h15.4v27.3zm-10.9-4.6h6.3v-18.1h-6.3v18.1zM582.3 677.9h80.3v4.6h-80.3zM569.6 700.7c-5.3 0-9.5-4.3-9.5-9.5s4.3-9.5 9.5-9.5c5.3 0 9.5 4.3 9.5 9.5s-4.2 9.5-9.5 9.5zm0-14.4c-2.7 0-5 2.2-5 5s2.2 5 5 5 5-2.2 5-5-2.2-5-5-5zM676.4 700.7c-5.3 0-9.5-4.3-9.5-9.5s4.3-9.5 9.5-9.5c5.3 0 9.5 4.3 9.5 9.5s-4.2 9.5-9.5 9.5zm0-14.4c-2.7 0-5 2.2-5 5s2.2 5 5 5 5-2.2 5-5-2.2-5-5-5zM651.8 558.9h-57.4v-63.3c0-15.8 12.9-28.7 28.7-28.7 15.8 0 28.7 12.9 28.7 28.7v63.3zm-52.8-4.5h48.3v-58.8c0-13.3-10.8-24.1-24.2-24.1-13.3 0-24.1 10.8-24.1 24.1v58.8zM861.5 652h-45.9v-50c0-12.6 10.3-22.9 22.9-22.9 12.7 0 23 10.3 23 22.9v50zm-41.3-4.6h36.7V602c0-10.1-8.2-18.4-18.4-18.4-10.1 0-18.4 8.2-18.4 18.4v45.4h.1z"/><path class="st0" d="M562.5 555.8h122.9v4.6H562.5zM559.4 572.6h129.7v4.6H559.4zM559.4 578.7h129.7v4.6H559.4z"/><path class="st0" d="M564.4 558.1h4.6v16.8h-4.6zM576.8 558.1h4.6v16.8h-4.6zM666.7 558.1h4.6v16.8h-4.6zM678.8 558.1h4.6v16.8h-4.6zM573.1 529.9c-3.2 0-5.7-2.6-5.7-5.7s2.6-5.7 5.7-5.7 5.7 2.6 5.7 5.7-2.5 5.7-5.7 5.7zm0-6.9c-.6 0-1.1.5-1.1 1.1s.5 1.1 1.1 1.1 1.1-.5 1.1-1.1-.4-1.1-1.1-1.1zM675.1 529.9c-3.2 0-5.7-2.6-5.7-5.7s2.6-5.7 5.7-5.7 5.7 2.6 5.7 5.7-2.6 5.7-5.7 5.7zm0-6.9c-.6 0-1.1.5-1.1 1.1s.5 1.1 1.1 1.1 1.1-.5 1.1-1.1-.5-1.1-1.1-1.1z"/><path class="st0" d="M578.9 560.4h-12.1v-29.1h12.1v29.1zm-7.5-4.6h2.9v-20h-2.9v20zM681.1 560.4H669v-29.1h12.1v29.1zm-7.5-4.6h2.9v-20h-2.9v20zM581.4 599.5h-17.8v-20.8h17.8v20.8zm-13.2-4.5h8.6v-11.7h-8.6V595zM683.6 599.5h-17.8v-20.8h17.8v20.8zm-13.2-4.5h8.6v-11.7h-8.6V595zM570.5 427.5h28.6v4.6h-28.6zM648.8 427.5h30v4.6h-30z"/><path class="st0" d="M565 429.2l-1.7-4.3 59.5-23.3 59.6 21.6-1.5 4.3-58-21zM790.6 574.5h28.6v4.6h-28.6zM857.7 574.5H884v4.6h-26.3zM791.4 570.2l-1.7-4.3 48.9-19.2 46.2 18.1-1.6 4.2-44.6-17.3zM571 383.8h103.7v4.6H571zM587.7 410.4h-13.9v-19.2h13.9v19.2zm-9.3-4.6h4.7v-10h-4.7v10zM671 410.4h-13.9v-19.2H671v19.2zm-9.2-4.6h4.7v-10h-4.7v10zM655.7 405.6h-13.8v-14.5h13.9l-.1 14.5zm-9.3-4.5h4.7v-5.4h-4.7v5.4zM603.9 405.6H590v-14.5h13.9v14.5zm-9.3-4.5h4.7v-5.4h-4.7v5.4zM644.5 457.8h-42.9v-27.5h42.9v27.5zm-38.3-4.6H640v-18.3h-33.8v18.3zM592.4 461.2h-15.6V436h15.6v25.2zm-11-4.6h6.4v-16h-6.4v16zM670.4 461.2h-15.6V436h15.6v25.2zm-11-4.6h6.4v-16h-6.4v16z"/><path class="st0" d="M582.5 458.9h4.6v99.2h-4.6zM660.5 458.9h4.6v99.2h-4.6zM459.1 376.9h90.8v4.6h-90.8zM695.6 376.9h90.8v4.6h-90.8zM459.1 203h90.8v4.6h-90.8zM697.1 203h90.8v4.6h-90.8zM459.1 178.6h90.8v4.6h-90.8zM457.6 471.5h90.8v4.6h-90.8zM695.6 471.5h90.8v4.6h-90.8zM457.6 500.5h90.8v4.6h-90.8zM116.3 474.9h90.8v4.6h-90.8zM116.3 503.9h90.8v4.6h-90.8zM116.3 763.4h90.8v4.6h-90.8zM116.3 812.5h90.8v4.6h-90.8zM695.6 500.5h90.8v4.6h-90.8zM798.4 665h80.3v4.6h-80.3zM798.4 704h80.3v4.6h-80.3zM798.4 672.6h80.3v4.6h-80.3zM798.4 648.9h80.3v4.6h-80.3z"/><path class="st0" d="M824 651.2h4.6v16.1H824zM830.1 651.2h4.6v16.1h-4.6zM836.2 651.2h4.6v16.1h-4.6zM842.3 651.2h4.6v16.1h-4.6zM848.4 651.2h4.6v16.1h-4.6zM809 591.4c-3.2 0-5.7-2.6-5.7-5.7s2.6-5.7 5.7-5.7 5.7 2.6 5.7 5.7-2.6 5.7-5.7 5.7zm0-6.9c-.6 0-1.1.5-1.1 1.1s.5 1.1 1.1 1.1 1.1-.5 1.1-1.1c0-.5-.5-1.1-1.1-1.1zM870 591.4c-3.2 0-5.7-2.6-5.7-5.7s2.6-5.7 5.7-5.7 5.7 2.6 5.7 5.7-2.5 5.7-5.7 5.7zm0-6.9c-.6 0-1.1.5-1.1 1.1s.5 1.1 1.1 1.1 1.1-.5 1.1-1.1c.1-.5-.4-1.1-1.1-1.1z"/><path class="st0" d="M806.7 589.1h4.6v77.3h-4.6zM867.7 589.1h4.6v77.3h-4.6zM852.5 576.5h-28v-20h28v20zm-23.4-4.6h18.8V561h-18.8v10.9zM811 727.6h-16.2v-16.2H811v16.2zm-11.7-4.5h7.1V716h-7.1v7.1zM884.2 727.6H868v-16.2h16.2v16.2zm-11.6-4.5h7.1V716h-7.1v7.1zM855.8 727.6h-34.5v-16.2h34.5v16.2zm-30-4.5h25.4V716h-25.4v7.1z"/><path class="st0" d="M800.6 725.4h4.6v102.8h-4.6zM873.8 725.4h4.6v102.8h-4.6zM1014.5 828.9h-56v-97.5h56v97.5zm-51.4-4.6h46.8V736h-46.8v88.3z"/><path class="st0" d="M984.2 733.7h4.6v92.9h-4.6z"/><path class="st0" d="M960.8 757.3h51.4v4.6h-51.4zM960.8 765.7h51.4v4.6h-51.4zM962 751.9l-2.6-3.8 1.3 1.9-1.3-1.9c.1-.1 8.2-5.7 9.1-14.5l4.6.5c-1.1 10.9-10.6 17.5-11.1 17.8zM1010.7 751.9c-.4-.3-10-6.8-11.1-17.9l4.6-.5c.9 8.9 9 14.5 9.1 14.6l-2.6 3.8zM978.1 788.7h4.6v5.7h-4.6zM990.2 788.7h4.6v5.7h-4.6zM1032.8 708c-2.1-1.9-21.1-18.4-46.2-18.4-22.7 0-41.1 13.3-46.2 18.4l-3.2-3.2c8-7.9 27.7-19.7 49.4-19.7 20.4 0 39.3 10.6 49.3 19.6l-3.1 3.3zM1009.5 652h-45.9v-50c0-12.6 10.3-22.9 22.9-22.9 12.7 0 23 10.3 23 22.9v50zm-41.3-4.6h36.7V602c0-10.1-8.2-18.4-18.4-18.4-10.1 0-18.4 8.2-18.4 18.4v45.4h.1zM938.6 574.5h28.6v4.6h-28.6zM1005.7 574.5h26.3v4.6h-26.3zM939.4 570.2l-1.7-4.3 48.8-19.2 46.3 18.1-1.6 4.2-44.6-17.3zM946.4 665h80.3v4.6h-80.3z"/><path class="st0" d="M946.4 704h80.3v4.6h-80.3zM946.4 672.6h80.3v4.6h-80.3zM946.4 648.9h80.3v4.6h-80.3z"/><path class="st0" d="M972 651.2h4.6v16.1H972zM978.1 651.2h4.6v16.1h-4.6zM984.2 651.2h4.6v16.1h-4.6zM990.3 651.2h4.6v16.1h-4.6zM996.4 651.2h4.6v16.1h-4.6zM957 591.4c-3.2 0-5.7-2.6-5.7-5.7s2.6-5.7 5.7-5.7 5.7 2.6 5.7 5.7-2.6 5.7-5.7 5.7zm0-6.9c-.6 0-1.1.5-1.1 1.1s.5 1.1 1.1 1.1 1.1-.5 1.1-1.1c0-.5-.5-1.1-1.1-1.1zM1018 591.4c-3.2 0-5.7-2.6-5.7-5.7s2.6-5.7 5.7-5.7 5.7 2.6 5.7 5.7-2.5 5.7-5.7 5.7zm0-6.9c-.6 0-1.1.5-1.1 1.1s.5 1.1 1.1 1.1 1.1-.5 1.1-1.1c.1-.5-.5-1.1-1.1-1.1z"/><path class="st0" d="M954.7 589.1h4.6v77.3h-4.6zM1015.7 589.1h4.6v77.3h-4.6zM1000.5 576.5h-28v-20h28v20zm-23.4-4.6h18.8V561h-18.8v10.9zM959 727.6h-16.2v-16.2H959v16.2zm-11.7-4.5h7.1V716h-7.1v7.1zM1032.2 727.6H1016v-16.2h16.2v16.2zm-11.6-4.5h7.1V716h-7.1v7.1zM1003.8 727.6h-34.5v-16.2h34.5v16.2zm-30-4.5h25.4V716h-25.4v7.1z"/><path class="st0" d="M948.6 725.4h4.6v102.8h-4.6zM1021.8 725.4h4.6v102.8h-4.6zM861.6 527.6H857v-63c0-18-15.1-23-18.4-23.9-3.3 1.3-20 8.3-20 24.1v60.7H814v-60.7c0-8.6 4.2-16.4 12-22.3 5.8-4.4 11.5-6.2 11.8-6.3l.6-.2.6.1c.2 0 22.6 5 22.6 28.5v63z"/><path class="st0" d="M861.6 539.2H857v-74.6c0-18-15.1-23-18.4-23.9-1.5.6-5.8 2.3-9.9 5.5-6.7 5.1-10.1 11.3-10.1 18.6v74.4H814v-74.4c0-8.6 4.2-16.4 12-22.3 5.8-4.4 11.5-6.2 11.8-6.3l.6-.2.6.1c.2 0 22.6 5 22.6 28.5v74.6z"/><path class="st0" d="M872.3 542.5h-4.6v-77.9c0-11-5-20.4-14.7-28-6.1-4.7-12.3-7.3-14.4-8-4.7 1.9-30.6 13.4-30.6 36.2v77.7h-4.6v-77.7c0-11.8 6-22.6 17.3-31.2 8.4-6.4 16.7-9.4 17.1-9.6l.7-.3.7.2c.3.1 33.1 10.9 33.1 40.6v78z"/><path class="st0" d="M797.7 525.3h80.2v4.6h-80.2zM823.7 476.3h4.6v44.6h-4.6zM848.9 476.3h4.6v44.6h-4.6zM836.3 478.4h4.6v40.3h-4.6zM439.2 828.9h-56v-97.5h56v97.5zm-51.4-4.6h46.8V736h-46.8v88.3z"/><path class="st0" d="M409 733.7h4.6v92.9H409z"/><path class="st0" d="M385.6 757.3H437v4.6h-51.4zM385.6 765.7H437v4.6h-51.4zM435.7 751.9c-.4-.3-10-6.8-11.1-17.9l4.6-.5c.9 8.9 9 14.5 9.1 14.5l-2.6 3.9zM387 751.9l-2.6-3.8 1.3 1.9-1.3-1.9c.1-.1 8.2-5.7 9.1-14.5l4.6.5c-1.1 10.9-10.7 17.5-11.1 17.8zM415.1 788.7h4.6v5.7h-4.6zM402.9 788.7h4.6v5.7h-4.6zM365 708l-3.1-3.4c10-9.1 28.9-19.6 49.3-19.6 21.7 0 41.4 11.8 49.4 19.7l-3.2 3.2c-5.1-5.1-23.5-18.4-46.2-18.4-25.2 0-44.1 16.6-46.2 18.5zM434.1 652h-45.9v-50c0-12.6 10.3-22.9 23-22.9 12.6 0 22.9 10.3 22.9 22.9v50zm-41.3-4.6h36.7V602c0-10.1-8.2-18.4-18.4-18.4-10.1 0-18.4 8.2-18.4 18.4l.1 45.4zM430.6 574.5h28.6v4.6h-28.6zM365.7 574.5H392v4.6h-26.3zM458.3 570.2l-47.1-18.5-44.6 17.3-1.7-4.2 46.3-18.1 48.8 19.2zM371.1 665h80.3v4.6h-80.3z"/><path class="st0" d="M371.1 704h80.3v4.6h-80.3zM371.1 672.6h80.3v4.6h-80.3zM371.1 648.9h80.3v4.6h-80.3z"/><path class="st0" d="M421.2 651.2h4.6v16.1h-4.6zM415.1 651.2h4.6v16.1h-4.6zM408.9 651.2h4.6v16.1h-4.6zM402.8 651.2h4.6v16.1h-4.6zM396.7 651.2h4.6v16.1h-4.6zM440.7 591.4c-3.2 0-5.7-2.6-5.7-5.7s2.6-5.7 5.7-5.7 5.7 2.6 5.7 5.7c.1 3.1-2.5 5.7-5.7 5.7zm0-6.9c-.6 0-1.1.5-1.1 1.1s.5 1.1 1.1 1.1 1.1-.5 1.1-1.1c.1-.5-.4-1.1-1.1-1.1zM379.7 591.4c-3.2 0-5.7-2.6-5.7-5.7s2.6-5.7 5.7-5.7c3.2 0 5.7 2.6 5.7 5.7s-2.5 5.7-5.7 5.7zm0-6.9c-.6 0-1.1.5-1.1 1.1s.5 1.1 1.1 1.1 1.1-.5 1.1-1.1c0-.5-.5-1.1-1.1-1.1z"/><path class="st0" d="M438.4 589.1h4.6v77.3h-4.6zM377.4 589.1h4.6v77.3h-4.6zM425.2 576.5h-28v-20h28v20zm-23.4-4.6h18.8V561h-18.8v10.9zM455 727.6h-16.2v-16.2H455v16.2zm-11.7-4.5h7.1V716h-7.1v7.1zM381.7 727.6h-16.2v-16.2h16.2v16.2zm-11.6-4.5h7.1V716h-7.1v7.1zM428.5 727.6h-34.6v-16.2h34.5l.1 16.2zm-30-4.5h25.4V716h-25.4v7.1z"/><path class="st0" d="M444.6 725.4h4.6v102.8h-4.6zM371.3 725.4h4.6v102.8h-4.6zM286.7 828.9h-56v-97.5h56v97.5zm-51.4-4.6h46.8V736h-46.8v88.3z"/><path class="st0" d="M256.4 733.7h4.6v92.9h-4.6zM409 582.7h4.6v67.7H409zM256.4 582.7h4.6v67.7h-4.6z"/><path class="st0" d="M233 757.3h51.4v4.6H233zM233 765.7h51.4v4.6H233zM283.1 751.9c-.4-.3-10-6.8-11.1-17.9l4.6-.5c.9 8.9 9 14.5 9.1 14.5l-2.6 3.9zM234.4 751.9l-2.6-3.8 1.3 1.9-1.3-1.9c.1-.1 8.2-5.7 9.1-14.6l4.6.5c-1.1 11-10.7 17.6-11.1 17.9zM262.5 788.7h4.6v5.7h-4.6zM250.3 788.7h4.6v5.7h-4.6zM212.4 708l-3.1-3.4c10-9.1 28.9-19.6 49.3-19.6 21.7 0 41.4 11.8 49.4 19.7l-3.2 3.2c-5.1-5.1-23.5-18.4-46.2-18.4-25.1 0-44.1 16.6-46.2 18.5zM281.6 652h-45.9v-50c0-12.6 10.3-22.9 23-22.9 12.6 0 22.9 10.3 22.9 22.9v50zm-41.4-4.6h36.7V602c0-10.1-8.2-18.4-18.4-18.4-10.1 0-18.4 8.2-18.4 18.4v45.4h.1zM278 574.5h28.6v4.6H278zM213.1 574.5h26.3v4.6h-26.3zM305.8 570.2l-47.2-18.5L214 569l-1.7-4.2 46.3-18.1 48.8 19.2zM218.5 665h80.3v4.6h-80.3z"/><path class="st0" d="M218.5 704h80.3v4.6h-80.3zM218.5 672.6h80.3v4.6h-80.3zM218.5 648.9h80.3v4.6h-80.3z"/><path class="st0" d="M268.6 651.2h4.6v16.1h-4.6zM262.5 651.2h4.6v16.1h-4.6zM256.4 651.2h4.6v16.1h-4.6zM250.3 651.2h4.6v16.1h-4.6zM244.2 651.2h4.6v16.1h-4.6zM288.2 591.4c-3.2 0-5.7-2.6-5.7-5.7s2.6-5.7 5.7-5.7c3.2 0 5.7 2.6 5.7 5.7s-2.6 5.7-5.7 5.7zm0-6.9c-.6 0-1.1.5-1.1 1.1s.5 1.1 1.1 1.1 1.1-.5 1.1-1.1c0-.5-.5-1.1-1.1-1.1zM227.1 591.4c-3.2 0-5.7-2.6-5.7-5.7s2.6-5.7 5.7-5.7c3.2 0 5.7 2.6 5.7 5.7.1 3.1-2.5 5.7-5.7 5.7zm0-6.9c-.6 0-1.1.5-1.1 1.1s.5 1.1 1.1 1.1 1.1-.5 1.1-1.1c.1-.5-.4-1.1-1.1-1.1z"/><path class="st0" d="M285.9 589.1h4.6v77.3h-4.6zM224.8 589.1h4.6v77.3h-4.6zM272.6 576.5h-28v-20h28v20zm-23.4-4.6H268V561h-18.8v10.9zM302.4 727.6h-16.2v-16.2h16.2v16.2zm-11.6-4.5h7.1V716h-7.1v7.1zM229.2 727.6H213v-16.2h16.2v16.2zm-11.7-4.5h7.1V716h-7.1v7.1zM275.9 727.6h-34.5v-16.2h34.5v16.2zm-29.9-4.5h25.4V716H246v7.1z"/><path class="st0" d="M292 725.3h4.6v102.8H292zM218.8 725.3h4.6v102.8h-4.6zM392.7 527.6h-4.6v-63c0-23.5 22.4-28.4 22.6-28.5l.6-.1.6.2c.2.1 6 2 11.8 6.3 7.9 5.9 12 13.6 12 22.3v60.7h-4.6v-60.7c0-15.7-16.7-22.8-20-24.1-3.3.9-18.4 5.9-18.4 23.9v63z"/><path class="st0" d="M435.6 539.2H431v-74.4c0-15.8-16.7-22.8-20-24.1-3.3.9-18.4 5.9-18.4 23.9v74.6H388v-74.6c0-23.5 22.4-28.4 22.6-28.5l.6-.1.6.2c.2.1 6 2 11.8 6.3 7.9 5.9 12 13.6 12 22.3v74.4z"/><path class="st0" d="M446.3 542.5h-4.6v-77.7c0-22.9-25.9-34.3-30.6-36.2-2.1.8-8.3 3.3-14.4 8-9.8 7.6-14.7 17-14.7 28v77.9h-4.6v-77.9c0-29.7 32.7-40.5 33.1-40.6l.7-.2.7.3c.3.1 8.7 3.1 17.1 9.6 11.3 8.7 17.3 19.5 17.3 31.2v77.6z"/><path class="st0" d="M371.8 525.3H452v4.6h-80.2zM411.2 472.7c-6.3 0-11.4-5.1-11.4-11.4s5.1-11.4 11.4-11.4 11.4 5.1 11.4 11.4c0 6.2-5.1 11.4-11.4 11.4zm0-18.4c-3.8 0-6.9 3.1-6.9 6.9s3.1 6.9 6.9 6.9 6.9-3.1 6.9-6.9c-.1-3.8-3.1-6.9-6.9-6.9zM838.4 472.7c-6.3 0-11.4-5.1-11.4-11.4s5.1-11.4 11.4-11.4 11.4 5.1 11.4 11.4c0 6.2-5.1 11.4-11.4 11.4zm0-18.4c-3.8 0-6.9 3.1-6.9 6.9s3.1 6.9 6.9 6.9 6.9-3.1 6.9-6.9c-.1-3.8-3.2-6.9-6.9-6.9zM421.5 476.3h4.6v44.6h-4.6zM396.3 476.3h4.6v44.6h-4.6zM408.9 478.4h4.6v40.3h-4.6zM651.1 388.4h-56.5v-95.1c0-10.7 4.7-20.9 13.7-29.4 6.7-6.4 13.3-9.5 13.6-9.7l.9-.4.9.4c.3.1 27.4 10.9 27.4 39.2v95zm-51.9-4.6h47.3v-90.6c0-22.6-19-32.5-23.6-34.5-1.9 1.1-6.8 3.9-11.6 8.5-8.1 7.7-12.2 16.5-12.2 26l.1 90.6z"/><path class="st0" d="M666.6 385.3H662v-92c0-37.7-33.1-54.1-39.1-56.7-5.9 3.1-39.3 22.3-39.3 56.7v92H579v-92c0-40.5 42.4-61.1 42.8-61.3l.9-.4.9.4c.4.2 42.9 17 42.9 61.4l.1 91.9zM466.7 180.9h4.6v583.6h-4.6zM490.1 180.9h4.6v583.6h-4.6zM513.5 180.9h4.6v583.6h-4.6zM536.9 180.9h4.6v583.6h-4.6zM123.7 476.3h4.6v349.1h-4.6zM147.1 476.3h4.6v289.3h-4.6zM170.5 476.3h4.6v289.3h-4.6zM193.9 476.3h4.6v349.1h-4.6zM703.6 180.9h4.6v583.6h-4.6zM727 180.9h4.6v583.6H727zM750.4 180.9h4.6v583.6h-4.6zM773.8 180.9h4.6v583.6h-4.6z"/><path class="st0" d="M456.8 762.2h98.6v4.6h-98.6zM456.8 812.5h98.6v4.6h-98.6zM688.7 762.2h98.6v4.6h-98.6zM688.7 812.5h98.6v4.6h-98.6zM887.1 762.2h53.1v4.6h-53.1zM887.1 812.5h53.1v4.6h-53.1zM310.3 762.2h53.1v4.6h-53.1zM310.3 812.5h53.1v4.6h-53.1zM1034 762.2h96.4v4.6H1034zM1034 812.5h96.4v4.6H1034zM596.7 493.3h52.9v4.6h-52.9z"/><path class="st0" d="M633 495.6h-4.6c0-3.1-2.5-5.6-5.6-5.6s-5.6 2.5-5.6 5.6h-4.6c0-5.6 4.6-10.2 10.2-10.2 5.7 0 10.2 4.6 10.2 10.2z"/><path class="st0" d="M620.6 469.2h4.6v18.5h-4.6z"/><path transform="rotate(41.306 610.603 483.667)" class="st0" d="M601.4 481.4h18.4v4.6h-18.4z"/><path transform="rotate(53.085 635.686 484.093)" class="st0" d="M633.4 474.7h4.6v18.8h-4.6z"/><path class="st0" d="M620.6 495.6h4.6v59.6h-4.6zM606.8 495.6h4.6v59.6h-4.6zM634.3 495.6h4.6v59.6h-4.6zM490.2 371.1l-9.5-29.8-9.5 29.8-4.4-1.4 11.7-36.6c.3-.9 1.2-1.6 2.2-1.6s1.9.6 2.2 1.6l11.7 36.6-4.4 1.4z"/><path class="st0" d="M494.8 371.1l-4.4-1.4 11.7-36.6c.3-.9 1.2-1.6 2.2-1.6 1 0 1.9.6 2.2 1.6l11.7 36.6-4.4 1.4-9.5-29.8-9.5 29.8z"/><path class="st0" d="M537 371.1l-9.5-29.8-9.5 29.8-4.4-1.4 11.7-36.6c.3-.9 1.2-1.6 2.2-1.6s1.9.6 2.2 1.6l11.7 36.6-4.4 1.4zM490.3 503.6l-9.6-23.7-9.6 23.7-4.2-1.7 11.7-29c.3-.9 1.2-1.4 2.1-1.4s1.8.6 2.1 1.4l11.7 29-4.2 1.7z"/><path class="st0" d="M494.7 503.6l-4.2-1.7 11.7-29c.3-.9 1.2-1.4 2.1-1.4.9 0 1.8.6 2.1 1.4l11.7 29-4.2 1.7-9.6-23.7-9.6 23.7z"/><path class="st0" d="M537.1 503.6l-9.6-23.7-9.6 23.7-4.2-1.7 11.7-29c.3-.9 1.2-1.4 2.1-1.4s1.8.6 2.1 1.4l11.7 29-4.2 1.7zM727.3 503.6l-9.6-23.7-9.6 23.7-4.2-1.7 11.7-29c.3-.9 1.2-1.4 2.1-1.4s1.8.6 2.1 1.4l11.7 29-4.2 1.7z"/><path class="st0" d="M731.8 503.6l-4.2-1.7 11.7-29c.3-.9 1.2-1.4 2.1-1.4.9 0 1.8.6 2.1 1.4l11.7 29-4.2 1.7-9.6-23.7-9.6 23.7z"/><path class="st0" d="M774.1 503.6l-9.6-23.7-9.6 23.7-4.2-1.7 11.7-29c.3-.9 1.2-1.4 2.1-1.4s1.8.6 2.1 1.4l11.7 29-4.2 1.7zM727.1 371.1l-9.5-29.8-9.5 29.8-4.4-1.4 11.7-36.6c.3-.9 1.2-1.6 2.2-1.6s1.9.6 2.2 1.6l11.7 36.6-4.4 1.4z"/><path class="st0" d="M731.6 371.1l-4.4-1.4 11.7-36.6c.3-.9 1.2-1.6 2.2-1.6 1 0 1.9.6 2.2 1.6l11.7 36.6-4.4 1.4-9.5-29.8-9.5 29.8z"/><path class="st0" d="M773.9 371.1l-9.5-29.8-9.5 29.8-4.4-1.4 11.7-36.6c.3-.9 1.2-1.6 2.2-1.6s1.9.6 2.2 1.6l11.7 36.6-4.4 1.4zM490.2 181.9l-9.5-29.8-9.5 29.8-4.4-1.4 11.7-36.6c.3-.9 1.2-1.6 2.2-1.6s1.9.6 2.2 1.6l11.7 36.6-4.4 1.4z"/><path class="st0" d="M494.8 181.9l-4.4-1.4 11.7-36.6c.3-.9 1.2-1.6 2.2-1.6 1 0 1.9.6 2.2 1.6l11.7 36.6-4.4 1.4-9.5-29.8-9.5 29.8z"/><path class="st0" d="M537 181.9l-9.5-29.8-9.5 29.8-4.4-1.4 11.7-36.6c.3-.9 1.2-1.6 2.2-1.6s1.9.6 2.2 1.6l11.7 36.6-4.4 1.4zM487.2 466.9h-13v-43.3h13v43.3zm-8.4-4.5h3.8v-34.1h-3.8v34.1zM534 466.7h-13v-43.3h13v43.3zm-8.4-4.5h3.8v-34.1h-3.8v34.1zM723.7 466.9h-13v-43.3h13v43.3zm-8.4-4.5h3.8v-34.1h-3.8v34.1zM771 466.7h-13v-43.3h13v43.3zm-8.3-4.5h3.8v-34.1h-3.8v34.1zM487.2 658.2h-13v-41c0-2.8 1.7-6.9 6.5-6.9s6.5 4.1 6.5 6.9v41zm-8.4-4.6h3.8v-36.4c0-.8-.3-2.3-1.9-2.3s-1.9 1.4-1.9 2.3v36.4zM510.8 658.2h-13v-41c0-2.8 1.7-6.9 6.5-6.9s6.5 4.1 6.5 6.9v41zm-8.4-4.6h3.8v-36.4c0-.8-.3-2.3-1.9-2.3s-1.9 1.4-1.9 2.3v36.4zM534.1 658.2h-13v-41c0-2.8 1.7-6.9 6.5-6.9s6.5 4.1 6.5 6.9v41zm-8.4-4.6h3.8v-36.4c0-.8-.3-2.3-1.9-2.3s-1.9 1.4-1.9 2.3v36.4zM545.1 148.6c-.6 0-1.2-.2-1.7-.7-.9-.9-.8-2.4.1-3.2l77.8-71.6c.9-.9 2.4-.8 3.2.1.9.9.8 2.4-.1 3.2L546.6 148c-.4.4-1 .6-1.5.6z"/><path transform="rotate(47.305 411.804 269.042)" class="st0" d="M409.5 191.2h4.6v155.7h-4.6z"/><path transform="rotate(47.305 261.058 408.084)" class="st0" d="M258.8 327.7h4.6v160.8h-4.6z"/><path class="st0" d="M540 224.9c-.6 0-1.2-.2-1.7-.7-.9-.9-.8-2.4.1-3.2l82.9-76.3c.9-.9 2.4-.8 3.2.1.9.9.8 2.4-.1 3.2l-82.9 76.3c-.4.4-1 .6-1.5.6z"/><path transform="rotate(47.359 411.496 340.968)" class="st0" d="M409.2 263.5h4.6v154.9h-4.6z"/><path transform="rotate(47.359 258.635 481.617)" class="st0" d="M256.3 396.7h4.6v169.8h-4.6z"/><path class="st0" d="M701.2 149.4c-.6 0-1.1-.2-1.5-.6l-78.6-72.4c-.9-.9-1-2.3-.1-3.2.9-.9 2.3-1 3.2-.1l78.6 72.4c.9.9 1 2.3.1 3.2-.4.4-1 .7-1.7.7zM897.2 329.8c-.6 0-1.1-.2-1.5-.6l-120-110.5c-.9-.9-1-2.3-.1-3.2s2.3-1 3.2-.1l120 110.5c.9.9 1 2.3.1 3.2-.4.4-1.1.7-1.7.7zM1041.1 462.2c-.6 0-1.1-.2-1.5-.6L930.4 361.1c-.9-.9-1-2.3-.1-3.2.9-.9 2.3-1 3.2-.1l109.2 100.5c.9.9 1 2.3.1 3.2-.4.5-1 .7-1.7.7zM704.5 223.9c-.6 0-1.1-.2-1.5-.6l-81.9-75.4c-.9-.9-1-2.3-.1-3.2s2.3-1 3.2-.1l81.9 75.4c.9.9 1 2.3.1 3.2-.5.5-1.1.7-1.7.7zM897.2 401.4c-.6 0-1.1-.2-1.5-.6l-120-110.5c-.9-.9-1-2.3-.1-3.2.9-.9 2.3-1 3.2-.1l120 110.5c.9.9 1 2.3.1 3.2-.4.4-1.1.7-1.7.7zM1046.4 538.7c-.6 0-1.1-.2-1.5-.6L930.4 432.7c-.9-.9-1-2.3-.1-3.2s2.3-1 3.2-.1L1048 534.7c.9.9 1 2.3.1 3.2-.4.5-1.1.8-1.7.8z"/><path class="st0" d="M539.2 221h168.1v4.6H539.2zM539.2 185.1h168.1v4.6H539.2zM896.2 304.7h4.6v459.7h-4.6zM928.5 304.7h4.6v459.7h-4.6zM793.2 403.9h82.5v4.6h-82.5zM793.2 376.9h82.5v4.6h-82.5zM368.6 403.9h82.8v4.6h-82.8zM368.6 376.9h82.8v4.6h-82.8zM478.4 663.9h4.6v90.2h-4.6zM502 663.9h4.6v90.2H502zM525.3 663.9h4.6v90.2h-4.6zM724 658.2h-13v-41c0-2.8 1.7-6.9 6.5-6.9s6.5 4.1 6.5 6.9v41zm-8.4-4.6h3.8v-36.4c0-.8-.3-2.3-1.9-2.3s-1.9 1.4-1.9 2.3v36.4zM747.6 658.2h-13v-41c0-2.8 1.7-6.9 6.5-6.9s6.5 4.1 6.5 6.9v41zm-8.4-4.6h3.8v-36.4c0-.8-.3-2.3-1.9-2.3s-1.9 1.4-1.9 2.3v36.4zM770.9 658.2h-13v-41c0-2.8 1.7-6.9 6.5-6.9s6.5 4.1 6.5 6.9v41zm-8.4-4.6h3.8v-36.4c0-.8-.3-2.3-1.9-2.3s-1.9 1.4-1.9 2.3v36.4zM715.2 663.9h4.6v90.2h-4.6zM738.8 663.9h4.6v90.2h-4.6zM762.1 663.9h4.6v90.2h-4.6zM466.7 179.7h-4.6V72.2v-.4l4.6-23.1c.2-1.1 1.2-1.8 2.2-1.8H492c1.1 0 2 .8 2.2 1.8l4.7 23V169h-4.6V72.4l-4.2-21.1h-19.4l-4.2 21.1.2 107.3z"/><path class="st0" d="M457.9 103.7H503v4.6h-45.1zM457.9 132.4H503v4.6h-45.1zM457.9 117.7H503v4.6h-45.1zM490.3 48.6h-4.6V15.8L483 1.2h-5.1l-2.7 14.6v32.8h-4.6v-33-.4l3.1-16.7c.2-1.1 1.1-1.9 2.3-1.9h9c1.1 0 2.1.8 2.3 1.9l3.1 16.7v.4l-.1 33zM478.2-29.7h4.6v21.5h-4.6z"/><path class="st0" d="M475.6-10.4h9.9v4.6h-9.9zM480.5-26.8c-2.5 0-4.6-2.1-4.6-4.6s2.1-4.6 4.6-4.6 4.6 2.1 4.6 4.6-2.1 4.6-4.6 4.6zM472.5 72.2h4.6v91.9h-4.6zM484.9 72.2h4.6v91.9h-4.6zM546.5 179.7h-4.6V72.4l-4.2-21.1h-19.4l-4.2 21.1v96.7h-4.6V72.2v-.4l4.6-23.1c.2-1.1 1.2-1.8 2.2-1.8h23.1c1.1 0 2 .8 2.2 1.8l4.6 23.1v.4l.3 107.5z"/><path class="st0" d="M505.5 103.7h45.1v4.6h-45.1zM505.5 132.4h45.1v4.6h-45.1zM505.5 117.7h45.1v4.6h-45.1zM537.9 48.6h-4.6V15.8l-2.7-14.6h-5.1l-2.7 14.6v32.8h-4.6v-33-.4l3.1-16.7c.2-1.1 1.1-1.9 2.3-1.9h9c1.1 0 2.1.8 2.3 1.9l3.1 16.7v.4l-.1 33zM525.8-29.7h4.6v21.5h-4.6z"/><path class="st0" d="M523.1-10.4h9.9v4.6h-9.9zM528.1-26.8c-2.5 0-4.6-2.1-4.6-4.6s2.1-4.6 4.6-4.6 4.6 2.1 4.6 4.6-2.1 4.6-4.6 4.6zM520.1 72.2h4.6v88.9h-4.6zM532.4 72.2h4.6v95h-4.6zM697.1 178.6h90.8v4.6h-90.8z"/><path class="st0" d="M728.2 181.9l-9.5-29.8-9.5 29.8-4.4-1.4 11.7-36.6c.3-.9 1.2-1.6 2.2-1.6s1.9.6 2.2 1.6l11.7 36.6-4.4 1.4z"/><path class="st0" d="M732.8 181.9l-4.4-1.4 11.7-36.6c.3-.9 1.2-1.6 2.2-1.6 1 0 1.9.6 2.2 1.6l11.7 36.6-4.4 1.4-9.5-29.8-9.5 29.8z"/><path class="st0" d="M775 181.9l-9.5-29.8-9.5 29.8-4.4-1.4 11.7-36.6c.3-.9 1.2-1.6 2.2-1.6s1.9.6 2.2 1.6l11.7 36.6-4.4 1.4zM704.7 179.7h-4.6V72.2v-.4l4.6-23.1c.2-1.1 1.2-1.8 2.2-1.8H730c1.1 0 2 .8 2.2 1.8l4.7 23V169h-4.6V72.4l-4.2-21.1h-19.4l-4.2 21.1.2 107.3z"/><path class="st0" d="M696 103.7h45.1v4.6H696zM696 132.4h45.1v4.6H696zM696 117.7h45.1v4.6H696zM728.3 48.6h-4.6V15.8L721 1.2h-5.1l-2.7 14.6v32.8h-4.6v-33-.4l3.1-16.7c.2-1.1 1.1-1.9 2.3-1.9h9c1.1 0 2.1.8 2.3 1.9l3.1 16.7v.4l-.1 33zM716.2-29.7h4.6v21.5h-4.6z"/><path class="st0" d="M713.6-10.4h9.9v4.6h-9.9zM718.5-26.8c-2.5 0-4.6-2.1-4.6-4.6s2.1-4.6 4.6-4.6 4.6 2.1 4.6 4.6-2.1 4.6-4.6 4.6zM710.5 72.2h4.6v91.9h-4.6zM722.9 72.2h4.6v91.9h-4.6z"/><g><path class="st0" d="M784.5 179.7h-4.6V72.4l-4.2-21.1h-19.4l-4.2 21.1v96.7h-4.6V72.2v-.4l4.6-23.1c.2-1.1 1.2-1.8 2.2-1.8h23.1c1.1 0 2 .8 2.2 1.8l4.6 23.1v.4l.3 107.5z"/><path class="st0" d="M743.5 103.7h45.1v4.6h-45.1zM743.5 132.4h45.1v4.6h-45.1zM743.5 117.7h45.1v4.6h-45.1zM775.9 48.6h-4.6V15.8l-2.7-14.6h-5.1l-2.7 14.6v32.8h-4.6v-33-.4l3.1-16.7c.2-1.1 1.1-1.9 2.3-1.9h9c1.1 0 2.1.8 2.3 1.9l3.1 16.7v.4l-.1 33zM763.8-29.7h4.6v21.5h-4.6z"/><path class="st0" d="M761.1-10.4h9.9v4.6h-9.9zM766.1-26.8c-2.5 0-4.6-2.1-4.6-4.6s2.1-4.6 4.6-4.6 4.6 2.1 4.6 4.6-2.1 4.6-4.6 4.6zM758.1 72.2h4.6v88.9h-4.6zM770.5 72.2h4.6v95h-4.6z"/></g><g><path class="st0" d="M930.8 314h-32.3c-1.3 0-2.3-1-2.3-2.3V204.1v-.4l4.6-23.1c.2-1.1 1.2-1.8 2.2-1.8h23.1c1.1 0 2 .8 2.2 1.8l4.6 23.1v108c.2 1.3-.8 2.3-2.1 2.3zm-30-4.6h27.7v-105l-4.2-21.1h-19.4l-4.2 21.1.1 105z"/><path class="st0" d="M892.1 235.7h45.1v4.6h-45.1zM892.1 264.4h45.1v4.6h-45.1zM892.1 249.7h45.1v4.6h-45.1zM924.5 180.6h-4.6v-32.8l-2.7-14.6h-5.1l-2.7 14.6v32.8h-4.6v-33.1-.4l3.1-16.7c.2-1.1 1.1-1.9 2.3-1.9h9c1.1 0 2.1.8 2.3 1.9l3.1 16.7v.4l-.1 33.1zM912.4 102.3h4.6v21.6h-4.6z"/><path class="st0" d="M909.7 121.6h9.9v4.6h-9.9zM914.6 105.1c-2.5 0-4.6-2.1-4.6-4.6s2.1-4.6 4.6-4.6 4.6 2.1 4.6 4.6-2 4.6-4.6 4.6zM906.6 204.1h4.6v108.7h-4.6zM919 204.1h4.6v108.7H919z"/></g><g><path class="st0" d="M632.7 81.3h-4.6V48.4l-2.7-14.6h-5.1l-2.7 14.6v32.8H613v-33-.4l3.1-16.7c.2-1.1 1.1-1.9 2.3-1.9h9c1.1 0 2.1.8 2.3 1.9l3.1 16.7v.4l-.1 33.1zM620.6 3h4.6v21.5h-4.6z"/><path class="st0" d="M617.9 22.2h9.9v4.6h-9.9zM622.9 5.8c-2.5 0-4.6-2.1-4.6-4.6s2.1-4.6 4.6-4.6 4.6 2.1 4.6 4.6c-.1 2.5-2.1 4.6-4.6 4.6z"/></g><g><path class="st0" d="M318.8 304.7h4.6v459.7h-4.6z"/></g><g><path class="st0" d="M351.1 304.7h4.6v459.7h-4.6z"/></g><g><path class="st0" d="M353.4 314h-32.3c-1.3 0-2.3-1-2.3-2.3V204.1v-.4l4.6-23.1c.2-1.1 1.2-1.8 2.2-1.8h23.1c1.1 0 2 .8 2.2 1.8l4.6 23.1v108c.2 1.3-.9 2.3-2.1 2.3zm-30-4.6h27.7v-105l-4.2-21.1h-19.4l-4.2 21.1.1 105z"/><path class="st0" d="M314.7 235.7h45.1v4.6h-45.1zM314.7 264.4h45.1v4.6h-45.1zM314.7 249.7h45.1v4.6h-45.1zM347.1 180.6h-4.6v-32.8l-2.7-14.6h-5.1l-2.7 14.6v32.8h-4.6v-33.1-.4l3.1-16.7c.2-1.1 1.1-1.9 2.3-1.9h9c1.1 0 2.1.8 2.3 1.9l3.1 16.7v.4l-.1 33.1zM334.9 102.3h4.6v21.6h-4.6z"/><path class="st0" d="M332.3 121.6h9.9v4.6h-9.9zM337.2 105.1c-2.5 0-4.6-2.1-4.6-4.6s2.1-4.6 4.6-4.6 4.6 2.1 4.6 4.6-2 4.6-4.6 4.6zM329.2 204.1h4.6v108.7h-4.6zM341.6 204.1h4.6v108.7h-4.6z"/></g><g><path class="st0" d="M202 478.6h-32.3c-1.3 0-2.3-1-2.3-2.3V368.8v-.4l4.6-23.1c.2-1.1 1.2-1.8 2.2-1.8h23.1c1.1 0 2 .8 2.2 1.8l4.6 23.1v108c.2 1.2-.8 2.2-2.1 2.2zm-30-4.6h27.7V369l-4.2-21.1h-19.4l-4.2 21.1.1 105z"/><path class="st0" d="M163.3 400.3h45.1v4.6h-45.1zM163.3 429h45.1v4.6h-45.1zM163.3 414.3h45.1v4.6h-45.1zM195.7 345.2h-4.6v-32.8l-2.7-14.6h-5.1l-2.7 14.6v32.8H176v-33.1-.4l3.1-16.7c.2-1.1 1.1-1.9 2.3-1.9h9c1.1 0 2.1.8 2.3 1.9l3.1 16.7v.4l-.1 33.1zM183.6 266.9h4.6v21.5h-4.6z"/><path class="st0" d="M180.9 286.2h9.9v4.6h-9.9zM185.9 269.8c-2.5 0-4.6-2.1-4.6-4.6s2.1-4.6 4.6-4.6 4.6 2.1 4.6 4.6-2.1 4.6-4.6 4.6zM177.8 368.8h4.6v108.7h-4.6zM190.2 368.8h4.6v108.7h-4.6z"/></g><g><path class="st0" d="M153.7 478.6h-32.3c-1.3 0-2.3-1-2.3-2.3V368.8v-.4l4.6-23.1c.2-1.1 1.2-1.8 2.2-1.8H149c1.1 0 2 .8 2.2 1.8l4.6 23.1v108c.2 1.2-.8 2.2-2.1 2.2zm-30-4.6h27.7V369l-4.2-21.1h-19.3l-4.2 21.1v105z"/><path class="st0" d="M115 400.3h45.1v4.6H115zM115 429h45.1v4.6H115zM115 414.3h45.1v4.6H115zM147.4 345.2h-4.6v-32.8l-2.7-14.6H135l-2.7 14.6v32.8h-4.6v-33.1-.4l3.1-16.7c.2-1.1 1.1-1.9 2.3-1.9h9c1.1 0 2.1.8 2.3 1.9l3.1 16.7v.4l-.1 33.1zM135.3 266.9h4.6v21.5h-4.6z"/><path class="st0" d="M132.6 286.2h9.9v4.6h-9.9zM137.6 269.8c-2.5 0-4.6-2.1-4.6-4.6s2.1-4.6 4.6-4.6 4.6 2.1 4.6 4.6-2.1 4.6-4.6 4.6zM129.5 368.8h4.6v108.7h-4.6zM141.9 368.8h4.6v108.7h-4.6z"/></g><g><path class="st0" d="M1036.8 474.9h90.8v4.6h-90.8z"/></g><g><path class="st0" d="M1036.8 503.9h90.8v4.6h-90.8z"/></g><g><path class="st0" d="M1044.2 476.3h4.6v350.3h-4.6z"/></g><g><path class="st0" d="M1067.6 476.3h4.6v288.1h-4.6z"/></g><g><path class="st0" d="M1091 476.3h4.6v288.1h-4.6z"/></g><g><path class="st0" d="M1114.4 476.3h4.6V827h-4.6z"/></g><g><path class="st0" d="M1122.5 478.6h-32.3c-1.3 0-2.3-1-2.3-2.3V368.8v-.4l4.6-23.1c.2-1.1 1.2-1.8 2.2-1.8h23.1c1.1 0 2 .8 2.2 1.8l4.6 23.1v108c.2 1.2-.8 2.2-2.1 2.2zm-30-4.6h27.7V369l-4.2-21.1h-19.4l-4.2 21.1.1 105z"/><path class="st0" d="M1083.8 400.3h45.1v4.6h-45.1zM1083.8 429h45.1v4.6h-45.1zM1083.8 414.3h45.1v4.6h-45.1zM1116.2 345.2h-4.6v-32.8l-2.7-14.6h-5.1l-2.7 14.6v32.8h-4.6v-33.1-.4l3.1-16.7c.2-1.1 1.1-1.9 2.3-1.9h9c1.1 0 2.1.8 2.3 1.9l3.1 16.7v.4l-.1 33.1zM1104.1 266.9h4.6v21.5h-4.6z"/><path class="st0" d="M1101.4 286.2h9.9v4.6h-9.9zM1106.4 269.8c-2.5 0-4.6-2.1-4.6-4.6s2.1-4.6 4.6-4.6 4.6 2.1 4.6 4.6-2.1 4.6-4.6 4.6zM1098.3 368.8h4.6v108.7h-4.6zM1110.7 368.8h4.6v108.7h-4.6z"/></g><g><path class="st0" d="M1074.2 478.6h-32.3c-1.3 0-2.3-1-2.3-2.3V368.8v-.4l4.6-23.1c.2-1.1 1.2-1.8 2.2-1.8h23.1c1.1 0 2 .8 2.2 1.8l4.6 23.1v108c.2 1.2-.8 2.2-2.1 2.2zm-30-4.6h27.7V369l-4.2-21.1h-19.4l-4.2 21.1.1 105z"/><path class="st0" d="M1035.5 400.3h45.1v4.6h-45.1zM1035.5 429h45.1v4.6h-45.1zM1035.5 414.3h45.1v4.6h-45.1zM1067.9 345.2h-4.6v-32.8l-2.7-14.6h-5.1l-2.7 14.6v32.8h-4.6v-33.1-.4l3.1-16.7c.2-1.1 1.1-1.9 2.3-1.9h9c1.1 0 2.1.8 2.3 1.9l3.1 16.7v.4l-.1 33.1zM1055.8 266.9h4.6v21.5h-4.6z"/><path class="st0" d="M1053.1 286.2h9.9v4.6h-9.9zM1058.1 269.8c-2.5 0-4.6-2.1-4.6-4.6s2.1-4.6 4.6-4.6 4.6 2.1 4.6 4.6-2.1 4.6-4.6 4.6zM1050 368.8h4.6v108.7h-4.6zM1062.4 368.8h4.6v108.7h-4.6z"/></g><g><path class="st0" d="M605.3 311.7h4.6v74.4h-4.6z"/></g><g><path class="st0" d="M620.6 311.7h4.6v74.4h-4.6z"/></g><g><path class="st0" d="M635.8 311.7h4.6v74.4h-4.6z"/></g><g><path class="st0" d="M622.9 306.6c-9.7 0-17.5-7.9-17.5-17.5s7.9-17.5 17.5-17.5c9.7 0 17.5 7.9 17.5 17.5s-7.9 17.5-17.5 17.5zm0-30.6c-7.2 0-13 5.8-13 13s5.8 13 13 13 13-5.8 13-13-5.9-13-13-13z"/></g><g><path class="st0" d="M622.9 128.6c-7.5 0-13.6-6.1-13.6-13.6s6.1-13.6 13.6-13.6 13.6 6.1 13.6 13.6-6.1 13.6-13.6 13.6zm0-22.6c-5 0-9 4.1-9 9 0 5 4 9 9 9s9-4.1 9-9c0-5-4.1-9-9-9z"/></g><g><path class="st0" d="M119.8 824.7h1011v4.6h-1011z"/></g><g><path class="st0" d="M587 829.3h-33.9v-26.4H587v26.4zm-29.3-4.6h24.7v-17.3h-24.7v17.3z"/></g><g><path class="st0" d="M693.4 829.3h-33.9v-26.4h33.9v26.4zm-29.3-4.6h24.7v-17.3h-24.7v17.3z"/></g></svg>