<svg version="1.1" id="Layer_1" xmlns="http://www.w3.org/2000/svg" x="0" y="0" viewBox="-47 -60.4 515.1 913.4" xml:space="preserve"><style type="text/css">.st0,.st1{fill:#efefef}.st1{stroke:#000;stroke-width:4.9608;stroke-miterlimit:10}</style><g id="XMLID_52_"><path id="XMLID_97_" class="st0" d="M352.4 43.8h-5v-96.3c0-1.6-1.3-3-3-3s-3 1.3-3 3v96.3h-5v-96.3c0-4.4 3.6-7.9 7.9-7.9s7.9 3.6 7.9 7.9l.2 96.3z"/></g><g id="XMLID_51_"><path id="XMLID_96_" class="st0" d="M336.1 102.4h-5V53.6c0-7.3 5.9-13.2 13.2-13.2s13.2 5.9 13.2 13.2V102h-5V53.6c0-4.6-3.7-8.3-8.3-8.3s-8.3 3.7-8.3 8.3v48.8h.2z"/></g><g id="XMLID_49_"><path id="XMLID_95_" class="st0" d="M325.3 152.9h-5v-31.3c0-13.2 10.8-24 24-24s24 10.8 24 24v30.8h-5v-30.8c0-10.5-8.5-19-19-19s-19 8.5-19 19v31.3z"/></g><g id="XMLID_47_"><path id="XMLID_94_" class="st0" d="M303.9 206.5c-.1-1.2-.2-2.4-.2-3.7v-17.9c0-22.4 18.2-40.6 40.6-40.6s40.6 18.2 40.6 40.6v17.9c0 1.2-.1 2.4-.2 3.5l-4.9-.4c.1-1 .1-2.1.1-3.1v-17.9c0-19.6-16-35.6-35.6-35.6s-35.6 16-35.6 35.6v17.9c0 1.1 0 2.1.1 3.2l-4.9.5z"/></g><g id="XMLID_46_"><path id="XMLID_93_" class="st0" d="M406 264.9l-4.9-.9c.6-3.3.9-6.7.9-10 0-31.8-25.9-57.6-57.6-57.6s-57.6 25.9-57.6 57.6c0 3.3.3 6.5.8 9.7l-4.9.8c-.6-3.5-.9-7-.9-10.6 0-34.5 28.1-62.6 62.6-62.6s62.6 28.1 62.6 62.6c-.1 3.7-.4 7.4-1 11z"/></g><g id="XMLID_45_"><path id="XMLID_92_" class="st0" d="M255 338.7c-.3-3.1-.5-6.2-.5-9.4 0-49.6 40.3-89.9 89.9-89.9s89.9 40.3 89.9 89.9c0 3.1-.2 6.1-.5 9.2l-4.9-.5c.3-2.9.4-5.8.4-8.7 0-46.8-38.1-84.9-84.9-84.9s-84.9 38.1-84.9 84.9c0 3 .2 5.9.5 8.9l-5 .5z"/></g><g id="XMLID_44_"><path id="XMLID_91_" class="st0" d="M224.3 704.7h-48.6v-90.9h94.8v5h-89.9v80.9h43.7z"/></g><g id="XMLID_43_"><path id="XMLID_90_" class="st0" d="M513 704.7h-51v-5h46v-80.9h-89.1v-5H513z"/></g><g id="XMLID_42_"><path id="XMLID_89_" class="st0" d="M257.6 618.8h-50.9v-216h27.1v4.9h-22.2v206.2h46z"/></g><g id="XMLID_41_"><path id="XMLID_88_" class="st0" d="M482 618.8h-49.8v-4.9H477V407.7h-22.2v-4.9H482z"/></g><g id="XMLID_40_"><path id="XMLID_87_" class="st0" d="M456.1 618.8h-37.2v-5h32.2V405.3c0-58.9-47.9-106.8-106.8-106.8s-106.8 47.9-106.8 106.8v208.6h31.4v5h-36.3V405.2c0-61.6 50.1-111.7 111.7-111.7s111.8 50.1 111.8 111.7v213.6z"/></g><g id="XMLID_39_"><path id="XMLID_86_" class="st0" d="M414.2 323.7l-11.8-33.8-27.3 10.2-30.8-30.7-30.7 29.7-27.3-9.3-11.8 33.9-4.7-1.7 13.5-38.4 29.1 9.8 32-31 31.9 31.9 29.1-10.8 13.5 38.5z"/></g><g id="XMLID_38_"><path id="XMLID_85_" class="st0" d="M388.6 256.3l-7.3-21-17.3 6.5-19.7-19.6-19.6 18.9-17.3-5.8-7.3 21-4.7-1.7 9-25.6 19.1 6.4 20.9-20.2 20.8 20.8 19.1-7.1 9 25.7z"/></g><g id="XMLID_37_"><path id="XMLID_84_" class="st0" d="M368.2 201l-23.9-23.9-23.8 23.9-3.5-3.5 27.3-27.4 27.4 27.4z"/></g><g id="XMLID_35_"><path id="XMLID_81_" class="st0" d="M584.1 853H105.3V699.7h130.2v-50.1l34.4-34.4V438.5c0-41.2 33.6-74.8 74.8-74.8s74.8 33.6 74.8 74.8v176.8l34.4 34.4v50.1h130.2V853zm-473.8-5h468.8V704.7H448.9v-53l-34.4-34.4V438.5c0-38.5-31.3-69.8-69.8-69.8s-69.8 31.3-69.8 69.8v178.9l-34.4 34.4v53H110.3V848z"/></g><g id="XMLID_34_"><path id="XMLID_80_" class="st0" d="M368.3 850.5h-5V441.3c0-10.5-8.5-19-19-19s-19 8.5-19 19v409.3h-5V441.3c0-13.2 10.8-24 24-24s24 10.8 24 24v409.2z"/></g><g id="XMLID_26_"><g id="XMLID_33_"><path id="XMLID_79_" class="st0" d="M272.4 453.1h33.8v5h-33.8z"/></g><g id="XMLID_32_"><path id="XMLID_78_" class="st0" d="M272.4 476.6h33.8v5h-33.8z"/></g><g id="XMLID_31_"><path id="XMLID_77_" class="st0" d="M272.4 500.1h33.8v5h-33.8z"/></g><g id="XMLID_30_"><path id="XMLID_76_" class="st0" d="M272.4 523.5h33.8v5h-33.8z"/></g><g id="XMLID_29_"><path id="XMLID_75_" class="st0" d="M272.4 547h33.8v5h-33.8z"/></g><g id="XMLID_28_"><path id="XMLID_74_" class="st0" d="M272.4 570.5h33.8v5h-33.8z"/></g><g id="XMLID_27_"><path id="XMLID_73_" class="st0" d="M272.4 593.9h33.8v5h-33.8z"/></g></g><g id="XMLID_18_"><g id="XMLID_25_"><path id="XMLID_72_" class="st0" d="M382.4 453.1h33.8v5h-33.8z"/></g><g id="XMLID_24_"><path id="XMLID_71_" class="st0" d="M382.4 476.6h33.8v5h-33.8z"/></g><g id="XMLID_23_"><path id="XMLID_70_" class="st0" d="M382.4 500.1h33.8v5h-33.8z"/></g><g id="XMLID_22_"><path id="XMLID_69_" class="st0" d="M382.4 523.5h33.8v5h-33.8z"/></g><g id="XMLID_21_"><path id="XMLID_68_" class="st0" d="M382.4 547h33.8v5h-33.8z"/></g><g id="XMLID_20_"><path id="XMLID_67_" class="st0" d="M382.4 570.5h33.8v5h-33.8z"/></g><g id="XMLID_19_"><path id="XMLID_66_" class="st0" d="M382.4 593.9h33.8v5h-33.8z"/></g></g><g id="XMLID_17_"><path id="XMLID_65_" class="st0" d="M107.8 729.4H242v5H107.8z"/></g><g id="XMLID_16_"><path id="XMLID_64_" class="st0" d="M107.8 759.1H242v5H107.8z"/></g><g id="XMLID_15_"><path id="XMLID_63_" class="st0" d="M107.8 788.7H242v5H107.8z"/></g><g id="XMLID_14_"><path id="XMLID_62_" class="st0" d="M107.8 818.4H242v5H107.8z"/></g><g id="XMLID_13_"><path id="XMLID_61_" class="st0" d="M447.5 729.4h134.2v5H447.5z"/></g><g id="XMLID_12_"><path id="XMLID_60_" class="st0" d="M447.5 759.1h134.2v5H447.5z"/></g><g id="XMLID_11_"><path id="XMLID_59_" class="st0" d="M447.5 788.7h134.2v5H447.5z"/></g><g id="XMLID_10_"><path id="XMLID_58_" class="st0" d="M447.5 818.4h134.2v5H447.5z"/></g><g id="XMLID_9_"><path id="XMLID_57_" class="st0" d="M419.6 850.5h-5V677.4c0-3.6-3-6.6-6.6-6.6s-6.6 3-6.6 6.6v173.2h-5V677.4c0-6.4 5.2-11.6 11.6-11.6s11.6 5.2 11.6 11.6v173.1z"/></g><g id="XMLID_8_"><path id="XMLID_56_" class="st0" d="M292.3 850.5h-5V677.4c0-3.6-3-6.6-6.6-6.6s-6.6 3-6.6 6.6v173.2h-5V677.4c0-6.4 5.2-11.6 11.6-11.6s11.6 5.2 11.6 11.6v173.1z"/></g><g id="XMLID_7_"><path id="XMLID_55_" class="st0" d="M270 448.5l-17-55.9 26.4.1-7.3-37.1 33.8 12.7 10.4-47.9 28 39.8 28.1-39.8 10.3 47.9 33.8-12.6-6.4 36.9h25.5l-16.2 55.8-4.7-1.3 14.3-49.6h-24.8l5.9-34.2-31 11.7-9.2-42.5-25.6 36.3-25.5-36.3-9.2 42.5-30.9-11.6 6.7 34.3-25.7-.1 15.1 49.4z"/></g><g id="XMLID_6_"><path id="XMLID_54_" class="st0" d="M109.3 320.8c-22.2 0-40.3-18.1-40.3-40.3s18.1-40.3 40.3-40.3c.8 0 1.5.1 2.3.1 1.2-29.6 25.7-53.2 55.5-53.2 18.2 0 35 8.8 45.4 23.7 4.7-2.2 9.6-3.3 14.6-3.3 19.4 0 35.3 15.8 35.3 35.3 0 2.9-.4 5.8-1.2 8.7h20.6v5h-27.5l1.2-3.3c1.3-3.6 1.9-7 1.9-10.3 0-16.7-13.6-30.3-30.3-30.3-4.9 0-9.7 1.3-14.3 3.8l-2 1.1-1.2-1.9c-9.4-14.6-25.3-23.2-42.5-23.2-27.9 0-50.6 22.7-50.6 50.6V246.2l-3.9-.5c-1.2-.2-2.2-.3-3.3-.3-19.5 0-35.3 15.8-35.3 35.3S89.8 316 109.3 316l148.4-.2v5H109.3z"/></g><g id="XMLID_5_"><path id="XMLID_53_" class="st0" d="M457.6 196.4c-8.7 0-16.9-3.2-23.3-8.9-11.2 2.7-22.3.5-31.5-5.7-5.5 5.6-13 8.8-20.9 8.8v-5c7.2 0 14-3.2 18.6-8.7l1.5-1.8 1.9 1.4c8.6 6.5 19.5 8.8 30.4 5.8l1.4-.4 1 1c5.7 5.5 13.1 8.5 20.9 8.5 16.6 0 30.1-13.5 30.1-30.1s-13.5-30.1-30.1-30.1h-2l-.7-1.2c-6.5-10.4-17.6-16.7-29.8-16.7-14.7 0-27.9 9.3-32.9 23.1l-.8 2.2-2.3-.7c-2.3-.7-4.7-1.1-7.1-1.1-5.3 0-10.3 1.7-14.5 4.8l-3-4c5.1-3.8 11.1-5.8 17.5-5.8 2.1 0 4.3.2 6.4.7 6.3-14.6 20.8-24.3 36.8-24.3 13.5 0 25.8 6.6 33.3 17.8 19 .4 34.4 15.9 34.4 35-.3 19.6-16 35.4-35.3 35.4z"/></g></svg>