<svg version="1.1" id="paris" xmlns="http://www.w3.org/2000/svg" x="0" y="0" viewBox="-72.7 -54 461.2 918.9" xml:space="preserve"><style type="text/css">.st0,.st1{fill:#efefef}.st1{stroke:#000;stroke-width:4.7858;stroke-linejoin:round;stroke-miterlimit:10}</style><path class="st0" d="M15.3 349.7c-21.4 0-38.9-17.4-38.9-38.9 0-21.4 17.4-38.9 38.9-38.9.8 0 1.5.1 2.2.1 1.2-28.5 24.8-51.3 53.6-51.3 17.5 0 33.8 8.5 43.8 22.8 4.6-2.1 9.3-3.2 14.1-3.2 18.8 0 34 15.3 34 34 0 2.7-.4 5.6-1.1 8.4h8.7v4.8h-12c-.8 0-1.5-.4-2-1-.4-.6-.6-1.5-.3-2.2 1.3-3.4 1.9-6.7 1.9-10 0-16.1-13.1-29.2-29.2-29.2-4.7 0-9.3 1.2-13.8 3.6-1.1.6-2.5.2-3.1-.8-9.1-14-24.4-22.4-41-22.4-26.9 0-48.8 21.9-48.8 48.8v.4c0 .7-.3 1.4-.8 1.8-.5.5-1.2.7-1.9.6l-1-.1c-1.1-.2-2.2-.3-3.2-.3-18.8 0-34.1 15.3-34.1 34.1s15.3 34.1 34.1 34.1l147.9-.2v4.8l-148 .2zM313 229.6c-8.4 0-16.3-3-22.5-8.6-10.8 2.6-21.5.4-30.3-5.5-5.3 5.4-12.5 8.5-20.2 8.5-.2 0-9.1.5-15.2-5.5l3.3-3.4c4.6 4.5 11.7 4.1 11.8 4.1 7.1 0 13.7-3.1 18.1-8.4.8-1 2.3-1.1 3.3-.4 8.3 6.3 18.8 8.5 29.3 5.6.8-.2 1.7 0 2.3.6 5.5 5.3 12.6 8.2 20.2 8.2 16 0 29-13 29-29s-13-29-29-29H312.5c-.8 0-1.6-.4-2.1-1.1-6.2-10.1-17-16.1-28.8-16.1-14.2 0-26.9 9-31.8 22.3-.4 1.2-1.7 1.8-3 1.5-2.2-.7-4.5-1-6.9-1-5.1 0-10 1.6-14 4.7l-2.9-3.8c4.9-3.7 10.7-5.6 16.9-5.6 2.1 0 4.1.2 6.1.7 6-14.1 20-23.4 35.5-23.4 13 0 24.9 6.4 32.1 17.2 18.3.4 33.2 15.4 33.2 33.8 0 18.5-15.1 33.6-33.8 33.6z"/><path class="st0" d="M100.3 599.5l-4.5-1.7c58.3-150.2 87.8-341.4 87.8-568h4.8c.1 227.2-29.6 418.9-88.1 569.7zM305.3 599.5c-58.8-151.6-88.6-343.3-88.6-569.8h4.8c0 225.9 29.7 417 88.2 568l-4.4 1.8z"/><path class="st0" d="M136.5 444.7h135.8v4.8H136.5zM136.5 478.7h132.9v4.8H136.5zM175.6 515.7h54.7v4.8h-54.7zM179 493.9h47.9v4.8H179zM132.9 464.8h143v4.8h-143zM128.7 507.7h47v4.8h-47zM117.3 544.4h51.2v4.8h-51.2zM103.9 581.5h55.9v4.8h-55.9zM232 507.7h44.8v4.8H232zM238.7 544.4h50v4.8h-50zM247.1 581.5h54.4v4.8h-54.4zM178.4 27.3h49.1v4.8h-49.1zM185.1-1h37.2v4.8h-37.2z"/><path class="st0" d="M201.4-54h4.8v72h-4.8zM178.4 51.5h49.1v4.8h-49.1zM185.8 65.4h33.6v4.8h-33.6zM185.8 80.5h33.6v4.8h-33.6zM185.8 95.6h33.6v4.8h-33.6zM185.8 110.6h33.6v4.8h-33.6zM185.8 125.7h33.6v4.8h-33.6zM185.8 140.8h33.6v4.8h-33.6zM182.9 155.9h39.3v4.8h-39.3zM182.9 171h39.3v4.8h-39.3zM181.1 186.1H224v4.8h-42.9zM181.1 201.2H224v4.8h-42.9zM177.8 225.9h49.6v4.8h-49.6zM175.2 252.6h54.7v4.8h-54.7zM172.4 278.6h60.4v4.8h-60.4zM169.3 306.6h66.9v4.8h-66.9zM164.9 336.3h75.9v4.8h-75.9zM159.8 365.3h85.3v4.8h-85.3zM154.6 396.3h95.2v4.8h-95.2zM63.9 596.7h282.6v4.8H63.9zM63.9 623h282.6v4.8H63.9zM63.9 645.6h285.8v4.8H63.9zM52.4 672.3h308.8v4.8H52.4zM44.3 684.7h65.1v4.8H44.3zM27.3 709.4h65.1v4.8H27.3zM319.7 709.4h65.1v4.8h-65.1zM11.8 732.5h65.1v4.8H11.8zM336.6 732.5h62.7v4.8h-62.7zM347.9 754.1h66.8v4.8h-66.8zM361 772.6h65.3v4.8H361zM375 792.3h64v4.8h-64z"/><path transform="rotate(89.926 420.112 813.537)" class="st0" d="M417.7 780.8h4.8v65.4h-4.8z"/><path class="st0" d="M-2 754.1h65.1v4.8H-2zM-14.8 774h65.1v4.8h-65.1zM-27.4 793.1h65.1v4.8h-65.1zM-39.8 811.6h65.1v4.8h-65.1zM-56.6 836.9H8.5v4.8h-65.1zM404.8 836.9h65.1v4.8h-65.1zM303 684.7h66.3v4.8H303z"/><path class="st0" d="M-71.6 864.9c-.5 0-.9-.1-1.3-.4-1.1-.7-1.4-2.2-.7-3.3L83 624.1c.7-1.1 2.2-1.4 3.3-.7 1.1.7 1.4 2.2.7 3.3L-69.6 863.8c-.5.7-1.2 1.1-2 1.1zM485.2 864.9c-.8 0-1.5-.4-2-1.1L326.6 626.7c-.7-1.1-.4-2.6.7-3.3s2.6-.4 3.3.7l156.6 237.1c.7 1.1.4 2.6-.7 3.3-.4.2-.8.4-1.3.4zM90.6 719.9l-4-2.7c17.9-26.8 66.1-44.9 119.9-44.9 51.8 0 97.8 16.5 117.3 42l-3.8 2.9c-18.6-24.4-63.2-40.2-113.5-40.2-52.3.1-98.9 17.3-115.9 42.9z"/><path transform="rotate(56.556 269.708 636.69)" class="st0" d="M256.1 634.3h27.1v4.8h-27.1z"/><path class="st0" d="M-6.5 864.9c-.5 0-.9-.1-1.3-.4-1.1-.7-1.4-2.2-.7-3.3l123.5-187c.7-1.1 2.2-1.4 3.3-.7 1.1.7 1.4 2.2.7 3.3l-46 69.7c47.2-48.3 95-55.6 133.5-55.6 55.9 0 98.1 26.5 123.7 48.6 4.3 3.7 8.3 7.5 12 11.1l-48.8-73.8c-.7-1.1-.4-2.6.7-3.3s2.6-.4 3.3.7l71.4 108c1.7 2.4 2.8 4.2 3.4 5.1l48.2 73c.7 1.1.4 2.6-.7 3.3s-2.6.4-3.3-.7l-47.8-72.2s-.2-.4-.6-1l-2.5-3.8c-5.6-8.2-18.6-25.6-38.5-42.9-24.9-21.6-66-47.4-120.4-47.4-31.9 0-57.8 5.6-81.8 17.7-30.2 15.3-56.9 40.9-81.6 78.2l-47.7 72.3c-.4.7-1.2 1.1-2 1.1z"/><path transform="rotate(33.447 142.557 636.648)" class="st0" d="M140.2 623.1h4.8v27.1h-4.8z"/><path class="st0" d="M78.4 648h4.8v26.8h-4.8zM63 655.1h4.8v19.6H63zM93.8 648h4.8v26.8h-4.8zM109.2 648h4.8v26.8h-4.8zM124.7 648h4.8v26.8h-4.8zM140.1 648h4.8v26.8h-4.8zM67.6 600.2h4.8v25.2h-4.8zM82.7 600.2h4.8v25.2h-4.8zM97.7 600.2h4.8v25.2h-4.8zM112.8 600.2h4.8v25.2h-4.8zM127.9 600.2h4.8v25.2h-4.8zM142.9 600.2h4.8v25.2h-4.8zM158 600.2h4.8v25.2H158zM173.1 600.2h4.8v25.2h-4.8zM188.1 600.2h4.8v25.2h-4.8zM203.2 600.2h4.8v25.2h-4.8zM218.3 600.2h4.8v25.2h-4.8zM233.3 600.2h4.8v25.2h-4.8zM248.4 598.6h4.8v26.8h-4.8zM263.5 600.2h4.8v25.2h-4.8zM278.5 600.2h4.8v25.2h-4.8zM293.6 600.2h4.8v25.2h-4.8zM308.7 600.2h4.8v25.2h-4.8zM323.7 600.2h4.8v25.2h-4.8zM338.8 600.2h4.8v25.2h-4.8zM155.5 648h4.8v26.8h-4.8zM171 648h4.8v26.8H171zM186.4 648h4.8v26.8h-4.8zM201.8 648h4.8v26.8h-4.8zM217.3 648h4.8v26.8h-4.8zM232.7 648h4.8v26.8h-4.8zM248.1 648h4.8v26.8h-4.8zM263.6 648h4.8v26.8h-4.8zM279 648h4.8v26.8H279zM294.4 648h4.8v26.8h-4.8zM309.9 648h4.8v26.8h-4.8zM325.3 648h4.8v26.8h-4.8zM340.7 648h4.8v26.8h-4.8zM159.4 599.7l-4.6-1.2 1-3.9c13.6-50.6 41.9-155.9 44.5-540.7h4.8c-2.6 385.5-31.1 491.2-44.7 541.9l-1 3.9z"/><path class="st0" d="M248.5 599.2c-.6-2.3-1.3-4.7-2-7.3-14.3-52.3-44-161.2-46.6-538h4.8c2.6 376.2 32.2 484.6 46.4 536.8.7 2.6 1.4 5 2 7.3l-4.6 1.2z"/><path transform="rotate(55.612 60.65 710.968)" class="st0" d="M31.6 708.6h58v4.8h-58z"/><path transform="rotate(63.883 60.676 710.942)" class="st0" d="M58.3 656.6h4.8v108.7h-4.8z"/><path transform="rotate(32.346 18.418 774.839)" class="st0" d="M16 671h4.8v207.6H16z"/><path transform="rotate(25.786 351.794 710.645)" class="st0" d="M297.7 708.2h108.2v4.8H297.7z"/><path transform="rotate(35.221 352.407 712.324)" class="st0" d="M350 683h4.8v58.6H350z"/><path class="st0" d="M146.6 446.9l-4.6-1.3 2.3.7-2.3-.6c0-.1 1.6-6-1.3-10.4-1.7-2.7-4.8-4.4-9.2-5-1.2-.2-2.1-1.3-2-2.5s1.1-2.2 2.4-2.2h141c2.4-.2 4.2 0 4.3 0 1.3.1 2.2 1.2 2.1 2.5s-1.1 2.3-2.4 2.3H273c-2.7.2-6.2 1-8.3 3.5-2.3 2.6-2.8 6.6-1.5 12l-4.7 1.1c-1.7-7-.8-12.5 2.5-16.3l.3-.3H142.7c.8.7 1.4 1.6 2 2.5 4.1 6.1 2 13.7 1.9 14zM186.8 1.4h4.8v16.9h-4.8zM216.1 1.4h4.8v16.9h-4.8z"/><path class="st0" d="M188.5 29.9l-4.8-.4c.1-1.4-.1-5.5-2-7.5-.8-.9-1.9-1.3-3.3-1.3-1.3 0-2.4-1.1-2.4-2.4 0-1.3 1.1-2.4 2.4-2.4h48.9c1.2-.1 2 0 2 0 1.2.2 2.2 1.3 2.1 2.5-.1 1.3-1.1 2.2-2.4 2.2h-1.6c-1 .1-2.4.4-3.6 1.5-1.6 1.5-2.5 4-2.5 7.5h-4.8c0-3.7.8-6.7 2.3-9h-32.3c2.3 3.9 2 8.7 2 9.3z"/><path transform="rotate(10.359 163.207 457.191)" class="st0" d="M160.8 447h4.8v20.4h-4.8z"/><path transform="matrix(.0291 .9996 -.9996 .0291 654.638 239.49)" class="st0" d="M195.2 454.3h17.7v4.8h-17.7z"/><path transform="rotate(78.936 242.043 457.525)" class="st0" d="M232.2 455.1h19.7v4.8h-19.7z"/><path transform="rotate(49.347 152.662 457.095)" class="st0" d="M139.5 454.7h26.4v4.8h-26.4z"/><path transform="rotate(47.691 150.294 457.18)" class="st0" d="M147.9 442.3h4.8v29.8h-4.8z"/><path transform="rotate(50.071 175.463 457.524)" class="st0" d="M162.9 455.1h25.2v4.8h-25.2z"/><path transform="rotate(48.85 173.795 457.29)" class="st0" d="M171.4 442.2h4.8v30.1h-4.8z"/><path transform="rotate(46.937 194.098 456.915)" class="st0" d="M181 454.5h26.2v4.8H181z"/><path transform="rotate(45.527 193.311 456.553)" class="st0" d="M190.9 443.1h4.8v27h-4.8z"/><path transform="rotate(46.791 214.685 457.134)" class="st0" d="M200.9 454.8h27.5v4.8h-27.5z"/><path transform="rotate(41.911 213.363 457.088)" class="st0" d="M211 443.6h4.8v27H211z"/><path transform="rotate(42.885 233.22 457.193)" class="st0" d="M218.5 454.8H248v4.8h-29.5z"/><path transform="rotate(40.589 232.723 457.17)" class="st0" d="M230.3 444h4.8v26.4h-4.8z"/><path transform="rotate(39.974 253.34 457.208)" class="st0" d="M237.7 454.8h31.2v4.8h-31.2z"/><path transform="rotate(41.911 252.97 457.092)" class="st0" d="M250.6 443.6h4.8v27h-4.8z"/><path class="st0" d="M63.1 841.7c-.4 0-.7-.1-1.1-.3-1.2-.6-1.7-2-1.1-3.2l65.8-130.6c.6-1.2 2-1.6 3.2-1.1 1.2.6 1.7 2 1.1 3.2L65.2 840.3c-.4.9-1.2 1.4-2.1 1.4zM25.4 841.7c-.4 0-.7-.1-1.1-.3-1.2-.6-1.7-2-1.1-3.2l42.1-83.5c.6-1.2 2-1.6 3.2-1.1 1.2.6 1.7 2 1.1 3.2l-42.1 83.6c-.4.8-1.2 1.3-2.1 1.3zM193 29.7h4.8v24.2H193zM208.4 29.7h4.8v24.2h-4.8z"/><path transform="rotate(15.247 143.747 532.31)" class="st0" d="M141.4 463.6h4.8V601h-4.8z"/><path transform="rotate(74.728 261.919 532.925)" class="st0" d="M193.8 530.5H330v4.8H193.8z"/><path transform="rotate(57.305 395.708 774.771)" class="st0" d="M291.5 772.4h208.4v4.8H291.5z"/><path class="st0" d="M325.2 796.2c-13.4-28.9-62.3-69-119.3-69-32.9 0-59.7 13.4-76.4 24.7-22.6 15.3-36.2 32.6-41.4 43.7l-4.3-2c11.5-24.8 59.2-71.2 122.1-71.2 59 0 109.8 41.7 123.7 71.7l-4.4 2.1z"/><path transform="rotate(47.156 31.163 755.672)" class="st0" d="M2.9 753.3h56.6v4.8H2.9z"/><path transform="rotate(65.657 31.051 755.631)" class="st0" d="M28.7 705.3h4.8V806h-4.8z"/><path transform="rotate(43.894 381.204 756.255)" class="st0" d="M378.8 728.4h4.8V784h-4.8z"/><path transform="rotate(23.379 381.658 754.325)" class="st0" d="M332.5 751.9h98.2v4.8h-98.2z"/><path transform="rotate(43.063 5.349 795.257)" class="st0" d="M-22.2 792.9h55v4.8h-55z"/><path transform="rotate(66.771 6.624 795.23)" class="st0" d="M4.2 747.6H9v95.2H4.2z"/><path transform="rotate(57.663 -21.799 838.246)" class="st0" d="M-50.5 835.8H6.9v4.8h-57.4z"/><path transform="rotate(63.186 -23.657 838.21)" class="st0" d="M-26 784.5h4.8V892H-26z"/><path class="st0" d="M-6.5 864.9h-65.1c-1.3 0-2.4-1.1-2.4-2.4s1.1-2.4 2.4-2.4h65.1c1.3 0 2.4 1.1 2.4 2.4s-1 2.4-2.4 2.4zM485.2 864.9h-66.4c-1.3 0-2.4-1.1-2.4-2.4s1.1-2.4 2.4-2.4h66.4c1.3 0 2.4 1.1 2.4 2.4s-1.1 2.4-2.4 2.4zM63.1 841.7H25.4c-1.3 0-2.4-1.1-2.4-2.4s1.1-2.4 2.4-2.4h37.7c1.3 0 2.4 1.1 2.4 2.4 0 1.3-1.1 2.4-2.4 2.4zM349.7 841.7c-.9 0-1.7-.5-2.1-1.3L284 714.3c-.6-1.2-.1-2.6 1.1-3.2 1.2-.6 2.6-.1 3.2 1.1l63.6 126.1c.6 1.2.1 2.6-1.1 3.2-.4.1-.8.2-1.1.2zM387.4 841.7c-.9 0-1.7-.5-2.1-1.3l-42.1-83.5c-.6-1.2-.1-2.6 1.1-3.2 1.2-.6 2.6-.1 3.2 1.1l42.1 83.5c.6 1.2.1 2.6-1.1 3.2-.4.1-.8.2-1.1.2z"/><path class="st0" d="M387.4 841.7h-37.7c-1.3 0-2.4-1.1-2.4-2.4s1.1-2.4 2.4-2.4h37.7c1.3 0 2.4 1.1 2.4 2.4 0 1.3-1.1 2.4-2.4 2.4z"/><path transform="rotate(84.002 191.483 684.522)" class="st0" d="M182.3 682.1h18.3v4.8h-18.3z"/><path transform="rotate(77.994 178.76 686.22)" class="st0" d="M170.1 683.8h17.4v4.8h-17.4z"/><path transform="rotate(71.976 165.595 687.692)" class="st0" d="M156.4 685.3h18.4v4.8h-18.4z"/><path transform="rotate(66.322 152.713 690.593)" class="st0" d="M143.5 688.2h18.4v4.8h-18.4z"/><path transform="rotate(59.914 139.256 694.671)" class="st0" d="M130 692.3h18.5v4.8H130z"/><path transform="rotate(54.217 126.588 699.92)" class="st0" d="M117.4 697.5h18.4v4.8h-18.4z"/><path transform="rotate(48.049 113.737 706.637)" class="st0" d="M104.9 704.2h17.6v4.8h-17.6z"/><path transform="rotate(42.072 102.003 714.967)" class="st0" d="M94 712.6h16v4.8H94z"/><path transform="rotate(35.045 90.84 725.832)" class="st0" d="M85 723.4h11.7v4.8H85z"/><path transform="rotate(29.033 80.6 736.882)" class="st0" d="M76.5 734.5h8.2v4.8h-8.2z"/><path transform="rotate(66.103 339.394 747.393)" class="st0" d="M337 744.5h4.8v5.9H337z"/><path transform="rotate(60.212 329.114 735.525)" class="st0" d="M326.7 730.6h4.8v9.9h-4.8z"/><path transform="rotate(54.139 318.746 724.487)" class="st0" d="M316.3 717.1h4.8v14.8h-4.8z"/><path transform="rotate(47.639 307.471 714.16)" class="st0" d="M305.1 704.7h4.8v19h-4.8z"/><path transform="rotate(41.753 295.4 706.058)" class="st0" d="M293 695.8h4.8v20.5H293z"/><path transform="rotate(36.021 282.655 699.614)" class="st0" d="M280.3 689.2h4.8V710h-4.8z"/><path transform="rotate(29.788 269.487 694.285)" class="st0" d="M267.1 684.1h4.8v20.5h-4.8z"/><path transform="rotate(23.961 256.551 690.39)" class="st0" d="M254.1 680.4h4.8v19.9h-4.8z"/><path transform="rotate(17.891 243.47 687.136)" class="st0" d="M241.1 677.2h4.8v19.9h-4.8z"/><path transform="rotate(11.986 230.24 686.126)" class="st0" d="M227.9 677.4h4.8v17.4h-4.8z"/><path transform="rotate(6.012 217.326 684.43)" class="st0" d="M215 675.5h4.8v17.9H215z"/><path class="st0" d="M202 674.7h4.8v18.5H202z"/><path transform="rotate(67.98 303.414 637.436)" class="st0" d="M301 609.2h4.8v56.5H301z"/><path transform="rotate(14.76 302.967 637.353)" class="st0" d="M261.4 634.9h83.1v4.8h-83.1z"/><path transform="rotate(75.718 109.977 636.71)" class="st0" d="M107.6 596.5h4.8V677h-4.8z"/><path transform="rotate(20.862 110.165 636.738)" class="st0" d="M82.3 634.3H138v4.8H82.3z"/><path transform="rotate(23.07 407.363 794.076)" class="st0" d="M358 791.7h98.9v4.8H358z"/><path transform="rotate(46.976 406.694 794.886)" class="st0" d="M404.3 767.5h4.8v54.8h-4.8z"/><path transform="rotate(26.073 434.82 837.174)" class="st0" d="M381.2 834.7h107.2v4.8H381.2z"/><path transform="rotate(34.81 436.066 837.598)" class="st0" d="M433.7 808.3h4.8v58.5h-4.8z"/></svg>