<svg version="1.1" id="Layer_1" xmlns="http://www.w3.org/2000/svg" x="0" y="0" viewBox="-99 -54 449.9 900" xml:space="preserve"><style type="text/css">.st0{fill:#f0efe9}</style><g id="XMLID_1049_"><g id="XMLID_1203_"><path id="XMLID_1136_" class="st0" d="M57.2 859.5l-25.9-11.9L70 758.5l4.5 1.9-36.8 84.8 17 7.8 32.6-75.3 4.5 2z"/></g><g id="XMLID_1201_"><path id="XMLID_1135_" class="st0" d="M156.3-6.5h-4.9V-46c0-.8-.7-1.5-1.5-1.5s-1.5.7-1.5 1.5v39.5h-4.9V-46c0-3.5 2.9-6.4 6.4-6.4s6.4 2.9 6.4 6.4v39.5z"/></g><g id="XMLID_1199_"><path id="XMLID_1134_" class="st0" d="M192.5 342.5h4.9v271.7h-4.9z"/></g><g id="XMLID_1197_"><path id="XMLID_1133_" class="st0" d="M162.6 590.7h4.9v12.7h-4.9z"/></g><g id="XMLID_1195_"><path id="XMLID_1132_" class="st0" d="M162.6 524.2h4.9v46.4h-4.9z"/></g><g id="XMLID_1193_"><path id="XMLID_1131_" class="st0" d="M162.6 457.3h4.9v47.1h-4.9z"/></g><g id="XMLID_1191_"><path id="XMLID_1130_" class="st0" d="M162.6 390.7h4.9v45.7h-4.9z"/></g><g id="XMLID_1189_"><path id="XMLID_1129_" class="st0" d="M162.6 353.1h4.9v16.4h-4.9z"/></g><g id="XMLID_1187_"><path id="XMLID_1128_" class="st0" d="M235.7 859.5l-31.5-79.7 4.6-1.8 29.6 74.9 16.9-7.8-33.2-84 4.6-1.8 34.8 88.3z"/></g><g id="XMLID_1185_"><path id="XMLID_1127_" class="st0" d="M149.3 356.9c-5.3 0-10.6-.4-15.8-1.3l.8-4.8c4.9.8 10 1.2 15 1.2 49.6 0 90-40.4 90-90s-40.4-90-90-90-90 40.4-90 90c0 32.3 17.5 62.3 45.6 78.3l-2.4 4.3c-29.6-16.8-48.1-48.5-48.1-82.5 0-52.3 42.6-94.9 94.9-94.9s94.9 42.6 94.9 94.9-42.6 94.8-94.9 94.8z"/></g><g id="XMLID_1183_"><path id="XMLID_1125_" class="st0" d="M243.2 697.4H53.5V695c0-34.3 18.6-66 48.5-82.8l2.4 4.3c-27.7 15.5-45.1 44.5-46 76.1h179.9c-1.3-48.5-41.1-87.5-89.9-87.5-4.4 0-8.8.3-13.2 1l-.7-4.8c4.6-.7 9.2-1 13.9-1 52.3 0 94.9 42.6 94.9 94.9l-.1 2.2z"/></g><g id="XMLID_1181_"><path id="XMLID_1123_" class="st0" d="M139.6 800.9c-23.5-2.1-45.2-12.9-61.2-30.3-16.1-17.5-24.9-40.3-24.9-64.1v-2.4h189.7v2.4c0 45.8-32.6 85-77.6 93.3l-.9-4.8c41.9-7.7 72.4-43.7 73.6-86H58.4c.6 21.7 8.9 42.3 23.6 58.4 15.2 16.5 35.8 26.7 58 28.8l-.4 4.7z"/></g><g id="XMLID_1177_"><path id="XMLID_1119_" class="st0" d="M234.9 708.9H63.5v-16.4h171.4v16.4zM68.4 704H230v-6.7H68.4v6.7z"/></g><g id="XMLID_1175_"><path id="XMLID_1117_" class="st0" d="M47.7 293.6H251v4.9H47.7z"/></g><g id="XMLID_1173_"><path id="XMLID_1116_" class="st0" d="M47.7 280.5H251v4.9H47.7z"/></g><g id="XMLID_1171_"><path id="XMLID_1115_" class="st0" d="M68.2 192.5h162.3v4.9H68.2z"/></g><g id="XMLID_1169_"><path id="XMLID_1113_" class="st0" d="M59.9 665.8h177v4.9h-177z"/></g><g id="XMLID_1167_"><path id="XMLID_1112_" class="st0" d="M58.6 727.9h179.1v4.9H58.6z"/></g><g id="XMLID_1165_"><path id="XMLID_1111_" class="st0" d="M125.8 120.7h47.4v4.9h-47.4z"/></g><g id="XMLID_1163_"><path id="XMLID_1109_" class="st0" d="M134.4 27H164v4.9h-29.6z"/></g><g id="XMLID_1161_"><path id="XMLID_1078_" class="st0" d="M165.1 172.1h-30.4V94.5h4.9v72.7h20.6V94.5h4.9z"/></g><g id="XMLID_1159_"><path id="XMLID_1076_" class="st0" d="M158.9 49.3H154V-2.2h-8.2v51.5h-4.9V-7.1h18z"/></g><g id="XMLID_1155_"><path id="XMLID_1070_" class="st0" d="M149.9 101.5c-15.3 0-27.7-12.4-27.7-27.7s12.4-27.7 27.7-27.7 27.7 12.4 27.7 27.7-12.4 27.7-27.7 27.7zm0-50.5c-12.6 0-22.8 10.2-22.8 22.8s10.2 22.8 22.8 22.8c12.6 0 22.8-10.2 22.8-22.8S162.5 51 149.9 51z"/></g><g id="XMLID_1151_"><path id="XMLID_1064_" class="st0" d="M166.4 860.2H138v-95.7c0-7.1 6.4-12.8 14.2-12.8 7.8 0 14.2 5.7 14.2 12.8v95.7zm-23.5-4.9h18.6v-90.8c0-4.4-4.2-7.9-9.3-7.9-5.1 0-9.3 3.5-9.3 7.9v90.8z"/></g><g id="XMLID_1149_"><path id="XMLID_1062_" class="st0" d="M173.4 391.7h-39.5v-4.9h39.5c3.2 0 5.8-3.1 5.8-7 0-3.8-2.6-7-5.8-7h-39.5v-4.9h39.5c5.9 0 10.7 5.3 10.7 11.9s-4.8 11.9-10.7 11.9z"/></g><g id="XMLID_1147_"><path id="XMLID_1060_" class="st0" d="M173.4 458.6h-39.5v-4.9h39.5c3.2 0 5.8-3.1 5.8-7 0-3.8-2.6-7-5.8-7h-39.5v-4.9h39.5c5.9 0 10.7 5.3 10.7 11.9s-4.8 11.9-10.7 11.9z"/></g><g id="XMLID_1145_"><path id="XMLID_1058_" class="st0" d="M173.4 592.4h-39.5v-4.9h39.5c3.2 0 5.8-3.1 5.8-7s-2.6-7-5.8-7h-39.5v-4.9h39.5c5.9 0 10.7 5.3 10.7 11.9s-4.8 11.9-10.7 11.9z"/></g><g id="XMLID_1143_"><path id="XMLID_1057_" class="st0" d="M173.4 526.1h-39.5v-4.9h39.5c3.2 0 5.8-3.1 5.8-7s-2.6-7-5.8-7h-39.5v-4.9h39.5c5.9 0 10.7 5.3 10.7 11.9s-4.8 11.9-10.7 11.9z"/></g><g id="XMLID_1139_"><path id="XMLID_1051_" class="st0" d="M112.4 638.5c-6.6 0-10.7-3.9-10.7-10.3V333.8c0-3.9 1.8-6.1 3.4-7.2 1.8-1.4 4.4-2.1 7.4-2.1 9.5 0 23.7 7.8 23.7 18.6l.3 199.3-.1 22.5-.2 53c-.1 11.9-14.3 20.6-23.8 20.6zm0-309.2c-5.8 0-5.8 3.4-5.8 4.5v294.4c0 1.9.5 3.2 1.5 4.1 1 .8 2.5 1.3 4.3 1.3 7.4 0 18.8-7.1 18.8-15.8l.2-53 .1-25.5-.3-196.2c0-7.6-11.4-13.8-18.8-13.8z"/></g></g><g id="XMLID_1142_"><path id="XMLID_1140_" class="st0" d="M284 522.9c-8.3 0-16.2-3-22.3-8.5-10.7 2.6-21.3.4-30.1-5.4-5.3 5.4-12.4 8.4-20 8.4-.4 0-11.9.6-17.1-5.8l3.7-3c3.1 3.8 10.7 4.2 13.4 4.1 7 0 13.5-3 18-8.4l1.4-1.7 1.8 1.4c8.2 6.2 18.6 8.4 29 5.6l1.3-.4 1 .9c5.4 5.2 12.5 8.1 20 8.1 15.9 0 28.8-12.9 28.8-28.8s-12.9-28.8-28.8-28.8h-2l-.7-1.2c-6.2-10-16.8-15.9-28.5-15.9-14 0-26.7 8.9-31.5 22.1l-.8 2.1-2.2-.7c-2.2-.7-4.5-1-6.8-1-5.1 0-9.9 1.6-13.9 4.6l-2.8-3.8c4.9-3.6 10.7-5.6 16.7-5.6 2.1 0 4.1.2 6.1.7 6-14 19.9-23.2 35.2-23.2 12.9 0 24.7 6.3 31.8 17 18.2.4 32.9 15.2 32.9 33.5-.1 18.6-15.1 33.7-33.6 33.7z"/></g><g id="XMLID_1141_"><path id="XMLID_1138_" class="st0" d="M-55.2 243.6c-21.9 0-39.8-17.8-39.8-39.8S-77.2 164-55.2 164c.8 0 1.5.1 2.2.1 1.2-29.2 25.3-52.5 54.8-52.5 18 0 34.6 8.7 44.9 23.4 4.7-2.2 9.5-3.3 14.5-3.3 19.2 0 34.8 15.6 34.8 34.8 0 2.8-.4 5.7-1.2 8.6h20.5l-10 4.9H87.9l1.2-3.3c1.3-3.5 1.9-6.9 1.9-10.2 0-16.5-13.4-29.9-29.9-29.9-4.8 0-9.6 1.2-14.1 3.7l-2 1.1-1.2-1.9c-9.3-14.4-25-22.9-42-22.9-27.6 0-50 22.4-50 50V169.8l-3.9-.5c-1.1-.2-2.2-.3-3.3-.3-19.2 0-34.9 15.6-34.9 34.9s15.6 34.9 34.9 34.9l114.5-.2v4.9l-114.3.1z"/></g></svg>