<svg version="1.1" id="Layer_1" xmlns="http://www.w3.org/2000/svg" x="0" y="0" viewBox="800 -54 1054 900" xml:space="preserve"><style type="text/css">.st0{fill:#f0efe9}</style><path class="st0" d="M985.2 496.6c-20.7 0-37.6-16.9-37.6-37.6s16.9-37.6 37.6-37.6c.7 0 1.4.1 2.1.1 1.1-27.6 23.9-49.6 51.8-49.6 17 0 32.7 8.2 42.4 22.1 4.4-2.1 9-3.1 13.7-3.1 18.1 0 32.9 14.8 32.9 32.9h-4.6c0-15.6-12.7-28.3-28.3-28.3-4.6 0-9 1.2-13.3 3.5l-1.9 1-1.2-1.8c-8.8-13.6-23.6-21.7-39.7-21.7-26 0-47.2 21.2-47.2 47.2v3l-3.6-.5c-1.1-.1-2.1-.3-3.1-.3-18.2 0-32.9 14.8-32.9 32.9s14.8 32.9 32.9 32.9l139.9-.2v4.6l-139.9.5zM2433.4 312.3c-8.1 0-15.8-2.9-21.8-8.3-10.4 2.5-20.8.4-29.3-5.3-5.1 5.2-12.1 8.2-19.5 8.2 0 0-3.6.2-7.8-1.1l1.5-4.4c3.2 1.1 6.2.9 6.2.9 6.9 0 13.2-3 17.5-8.2l1.4-1.7 1.8 1.3c8 6.1 18.1 8.2 28.3 5.4l1.3-.3.9.9c5.3 5.1 12.2 7.9 19.5 7.9 15.5 0 28.1-12.6 28.1-28.1s-12.6-28.1-28.1-28.1H2431.5l-.7-1.1c-6-9.7-16.4-15.5-27.8-15.5-13.7 0-26.1 8.7-30.7 21.6l-.8 2.1-2.1-.6c-2.1-.6-4.4-.8-6.8-1-1.8-.1-3.5-.1-5.2.1l-.6-4.6c1.9-.3 4-.3 6.1-.2 1.9.1 3.8.3 5.8.7 5.8-13.7 19.4-22.7 34.3-22.7 12.6 0 24.1 6.2 31 16.6 17.7.3 32.1 14.9 32.1 32.7 0 18.1-14.6 32.8-32.7 32.8z"/><path class="st0" d="M2343.4 831.7h-269.1l-.1-2.3-16.7-671.1h302.6l-16.7 673.4zm-264.6-4.7h260.1l16.5-664.1h-293.1l16.5 664.1z"/><path class="st0" d="M2343.4 162.9h-269.1v-22.3h269.1v22.3zm-264.5-4.6h259.9v-13.1h-259.9v13.1zM2360 87.3h-302.5V65H2360v22.3zm-297.8-4.6h293.2V69.6h-293.2v13.1z"/><path class="st0" d="M2311 145.2h-204.5v-15.7H2311v15.7zm-199.8-4.6h195.2v-6.4h-195.2v6.4zM2059.9 178.8h297.3v4.6h-297.3zM2059.9 195.4h297.3v4.6h-297.3zM2059.9 212h297.3v4.6h-297.3zM2059.9 228.6h297.3v4.6h-297.3zM2059.9 245.2h297.3v4.6h-297.3zM2059.9 261.8h297.3v4.6h-297.3zM2062.9 278.4h291.9v4.6h-291.9zM2062.9 295h291.9v4.6h-291.9zM2063.7 311.6h290.2v4.6h-290.2zM2063.7 328.2h289.8v4.6h-289.8zM2063.7 344.8h289.4v4.6h-289.4zM2064.9 361.5h288.2v4.6h-288.2zM2064.9 378.1h287.3v4.6h-287.3zM2065.8 394.7h286.1v4.6h-286.1zM2065.8 411.3h285.7v4.6h-285.7zM2066.6 427.9h284.9v4.6h-284.9zM2066.6 444.5h284v4.6h-284zM2066.6 461.1h283.6v4.6h-283.6zM2067.8 477.7h282v4.6h-282zM2067.8 494.3h281.6v4.6h-281.6zM2068.6 510.9h280.3v4.6h-280.3zM2069.1 527.5h279.5v4.6h-279.5zM2069.1 544.1h279.1v4.6h-279.1zM2069.9 560.8h278.3v4.6h-278.3zM2070.3 577.4h277v4.6h-277zM2070.7 594h276.6v4.6h-276.6zM2071.1 610.6h275.4v4.6h-275.4zM2071.5 627.2h275v4.6h-275zM2071.9 643.8h273.7v4.6h-273.7zM2072.4 660.4h272.9v4.6h-272.9zM2072.4 677h272.5v4.6h-272.5zM2073.2 693.6h271.7v4.6h-271.7zM2073.6 710.2H2344v4.6h-270.4zM2074 726.8h270v4.6h-270zM2074.4 743.4H2344v4.6h-269.6zM2074.8 760h267.9v4.6h-267.9zM2075.2 776.7h267.1v4.6h-267.1zM2075.7 793.3H2342v4.6h-266.3zM2076.1 809.9h265.5v4.6h-265.5z"/><path class="st0" d="M2381.5 134.1H1102.6c-205.2 0-256.6-24.8-269.1-39.5-4.2-5-3.7-8.7-3.7-9.1l.3-1.9h1551.3l.6 1.5c.6 1.8 6.3 17.6 6.3 23.8s-5.7 22-6.3 23.8l-.5 1.4zM835 88.2c.4 1 1.2 2.4 2.7 4.1 10.3 11.2 56.6 37.3 265 37.3h1275.6c1.9-5.5 5.5-16.5 5.5-20.7s-3.6-15.2-5.5-20.7H835zM2206.9 160.6h4.6v668.8h-4.6zM2188.4 160.6h4.6v668.8h-4.6z"/><path transform="rotate(89.868 2172.987 494.92)" class="st0" d="M1838.6 492.6h668.8v4.6h-668.8z"/><path transform="matrix(.0046 1 -1 .0046 2640.284 -1662.53)" class="st0" d="M1820.8 492.7h668.8v4.6h-668.8z"/><path transform="matrix(.0069 1 -1 .0069 2617.622 -1645.943)" class="st0" d="M1803.1 492.6h668.8v4.6h-668.8z"/><path transform="matrix(.0092 1 -1 .0092 2595.13 -1629.244)" class="st0" d="M1785.3 492.6h668.8v4.6h-668.8z"/><path transform="matrix(.0115 .9999 -.9999 .0115 2572.719 -1612.562)" class="st0" d="M1767.6 492.7h668.8v4.6h-668.8z"/><path transform="rotate(88.946 2082.672 494.898) scale(.99997)" class="st0" d="M1748.2 492.6h668.9v4.6h-668.9z"/><path class="st0" d="M2225.4 160.6h4.6v668.8h-4.6z"/><path transform="matrix(1 .0026 -.0026 1 1.294 -5.836)" class="st0" d="M2243.1 160.5h4.6v668.8h-4.6z"/><path transform="matrix(1 .0046 -.0046 1 2.301 -10.405)" class="st0" d="M2260.9 160.6h4.6v668.8h-4.6z"/><path transform="matrix(1 .0072 -.0072 1 3.623 -16.41)" class="st0" d="M2278.7 160.6h4.6v668.8h-4.6z"/><path transform="matrix(1 .0091 -.0091 1 4.598 -20.896)" class="st0" d="M2296.4 160.5h4.6v668.8h-4.6z"/><path transform="rotate(.678 2316.419 494.642) scale(.99997)" class="st0" d="M2314.1 160.6h4.6v668.8h-4.6z"/><path transform="matrix(.9998 .0182 -.0182 .9998 9.395 -42.43)" class="st0" d="M2333.4 160.5h4.6v668.9h-4.6z"/><path class="st0" d="M1872.9 831.7h-269.1l-.1-2.3-16.7-671.1h302.6l-16.7 673.4zm-264.6-4.7h260.1l16.5-664.1h-293.1l16.5 664.1z"/><path class="st0" d="M1872.9 162.9h-269.1v-22.3h269.1v22.3zm-264.5-4.6h259.9v-13.1h-259.9v13.1z"/><path class="st0" d="M1840.6 145.2h-204.5v-15.7h204.5v15.7zm-199.9-4.6H1836v-6.4h-195.2v6.4h-.1zM1589.4 178.8h297.3v4.6h-297.3zM1589.4 195.4h297.3v4.6h-297.3zM1589.4 212h297.3v4.6h-297.3zM1589.4 228.6h297.3v4.6h-297.3zM1589.4 245.2h297.3v4.6h-297.3zM1589.4 261.8h297.3v4.6h-297.3zM1592.4 278.4h291.9v4.6h-291.9zM1592.4 295h291.9v4.6h-291.9zM1593.2 311.6h290.2v4.6h-290.2zM1593.2 328.2H1883v4.6h-289.8zM1593.2 344.8h289.4v4.6h-289.4zM1594.5 361.5h288.2v4.6h-288.2zM1594.5 378.1h287.3v4.6h-287.3zM1595.3 394.7h286.1v4.6h-286.1zM1595.3 411.3H1881v4.6h-285.7zM1596.1 427.9H1881v4.6h-284.9zM1596.1 444.5h284v4.6h-284zM1596.1 461.1h283.6v4.6h-283.6zM1597.4 477.7h282v4.6h-282zM1597.4 494.3H1879v4.6h-281.6zM1598.2 510.9h280.3v4.6h-280.3zM1598.6 527.5h279.5v4.6h-279.5zM1598.6 544.1h279.1v4.6h-279.1zM1599.4 560.8h278.3v4.6h-278.3zM1599.8 577.4h277v4.6h-277zM1600.2 594h276.6v4.6h-276.6zM1600.7 610.6h275.4v4.6h-275.4zM1601.1 627.2h275v4.6h-275zM1601.5 643.8h273.7v4.6h-273.7zM1601.9 660.4h272.9v4.6h-272.9zM1601.9 677h272.5v4.6h-272.5zM1602.7 693.6h271.7v4.6h-271.7zM1603.1 710.2h270.4v4.6h-270.4zM1603.5 726.8h270v4.6h-270zM1604 743.4h269.6v4.6H1604zM1604.4 760h267.9v4.6h-267.9zM1604.8 776.7h267.1v4.6h-267.1zM1605.2 793.3h266.3v4.6h-266.3zM1605.6 809.9h265.5v4.6h-265.5z"/><path class="st0" d="M1736.4 160.6h4.6v668.8h-4.6zM1717.9 160.6h4.6v668.8h-4.6z"/><path transform="rotate(89.868 1702.536 494.965)" class="st0" d="M1368.1 492.7h668.8v4.6h-668.8z"/><path transform="matrix(.0046 1 -1 .0046 2171.951 -1192.14)" class="st0" d="M1350.4 492.6h668.8v4.6h-668.8z"/><path transform="matrix(.0069 1 -1 .0069 2150.483 -1175.466)" class="st0" d="M1332.6 492.7h668.8v4.6h-668.8z"/><path transform="matrix(.0092 1 -1 .0092 2129.087 -1158.786)" class="st0" d="M1314.9 492.7h668.8v4.6h-668.8z"/><path transform="matrix(.0115 .9999 -.9999 .0115 2107.629 -1142.176)" class="st0" d="M1297.1 492.6h668.8v4.6h-668.8z"/><path transform="rotate(88.946 1612.225 494.964) scale(.99997)" class="st0" d="M1277.8 492.7h668.9v4.6h-668.9z"/><path class="st0" d="M1755 160.6h4.6v668.8h-4.6z"/><path transform="matrix(1 .0026 -.0026 1 1.293 -4.613)" class="st0" d="M1772.7 160.5h4.6v668.8h-4.6z"/><path transform="matrix(1 .0046 -.0046 1 2.296 -8.241)" class="st0" d="M1790.5 160.6h4.6v668.8h-4.6z"/><path transform="matrix(1 .0072 -.0072 1 3.61 -13.022)" class="st0" d="M1808.1 160.6h4.6v668.8h-4.6z"/><path transform="matrix(1 .0091 -.0091 1 4.58 -16.615)" class="st0" d="M1825.9 160.5h4.6v668.8h-4.6z"/><path transform="rotate(.678 1846.036 494.72) scale(.99997)" class="st0" d="M1843.7 160.6h4.6v668.8h-4.6z"/><path transform="matrix(.9998 .0182 -.0182 .9998 9.317 -33.869)" class="st0" d="M1863 160.5h4.6v668.9h-4.6z"/><path class="st0" d="M1402.5 831.7h-269.2l-.1-2.3-16.7-671.1h302.6l-16.6 673.4zm-264.7-4.7h260.1l16.5-664.1h-293.1l16.5 664.1z"/><path class="st0" d="M1402.4 162.9h-269.1v-22.3h269.1v22.3zm-264.4-4.6h259.9v-13.1H1138v13.1z"/><path class="st0" d="M1370.1 145.2h-204.4v-15.7h204.5l-.1 15.7zm-199.8-4.6h195.2v-6.4h-195.2v6.4zM1119 178.8h297.3v4.6H1119zM1119 195.4h297.3v4.6H1119zM1119 212h297.3v4.6H1119zM1119 228.6h297.3v4.6H1119zM1119 245.2h297.3v4.6H1119zM1119 261.8h297.3v4.6H1119zM1122 278.4h291.9v4.6H1122zM1122 295h291.9v4.6H1122zM1122.8 311.6H1413v4.6h-290.2zM1122.8 328.2h289.8v4.6h-289.8zM1122.8 344.8h289.4v4.6h-289.4zM1124 361.5h288.2v4.6H1124zM1124 378.1h287.3v4.6H1124zM1124.8 394.7h286.1v4.6h-286.1zM1124.8 411.3h285.7v4.6h-285.7zM1125.7 427.9h284.9v4.6h-284.9zM1125.7 444.5h284v4.6h-284zM1125.7 461.1h283.6v4.6h-283.6zM1126.9 477.7h282v4.6h-282zM1126.9 494.3h281.6v4.6h-281.6zM1127.7 510.9H1408v4.6h-280.3zM1128.1 527.5h279.5v4.6h-279.5zM1128.1 544.1h279.1v4.6h-279.1zM1129 560.8h278.3v4.6H1129zM1129.4 577.4h277v4.6h-277zM1129.8 594h276.6v4.6h-276.6zM1130.2 610.6h275.4v4.6h-275.4zM1130.6 627.2h275v4.6h-275zM1131 643.8h273.7v4.6H1131zM1131.4 660.4h272.9v4.6h-272.9zM1131.4 677h272.5v4.6h-272.5zM1132.3 693.6H1404v4.6h-271.7zM1132.7 710.2h270.4v4.6h-270.4zM1133.1 726.8h270v4.6h-270zM1133.5 743.4h269.6v4.6h-269.6zM1133.9 760h267.9v4.6h-267.9zM1134.3 776.7h267.1v4.6h-267.1zM1134.7 793.3H1401v4.6h-266.3zM1135.2 809.9h265.5v4.6h-265.5z"/><path class="st0" d="M1266 160.6h4.6v668.8h-4.6zM1247.5 160.6h4.6v668.8h-4.6z"/><path transform="matrix(.0023 1 -1 .0023 1724.165 -738.31)" class="st0" d="M897.7 492.6h668.8v4.6H897.7z"/><path transform="matrix(.0046 1 -1 .0046 1703.62 -721.55)" class="st0" d="M879.8 492.7h668.8v4.6H879.8z"/><path transform="matrix(.0069 1 -1 .0069 1683.145 -704.987)" class="st0" d="M862.1 492.6h668.8v4.6H862.1z"/><path transform="matrix(.0092 1 -1 .0092 1662.846 -688.324)" class="st0" d="M844.4 492.6h668.8v4.6H844.4z"/><path transform="matrix(.0115 .9999 -.9999 .0115 1642.64 -671.693)" class="st0" d="M826.7 492.7h668.8v4.6H826.7z"/><path transform="rotate(88.946 1141.776 494.93) scale(.99997)" class="st0" d="M807.3 492.6h668.9v4.6H807.3z"/><path class="st0" d="M1284.5 160.6h4.6v668.8h-4.6z"/><path transform="matrix(1 .0026 -.0026 1 1.291 -3.39)" class="st0" d="M1302.3 160.5h4.6v668.8h-4.6z"/><path transform="matrix(1 .0046 -.0046 1 2.29 -6.077)" class="st0" d="M1319.9 160.6h4.6v668.8h-4.6z"/><path transform="matrix(1 .0072 -.0072 1 3.598 -9.635)" class="st0" d="M1337.7 160.6h4.6v668.8h-4.6z"/><path transform="matrix(1 .0091 -.0091 1 4.56 -12.334)" class="st0" d="M1355.4 160.5h4.6v668.8h-4.6z"/><path transform="rotate(.678 1375.55 494.8) scale(.99997)" class="st0" d="M1373.2 160.6h4.6v668.8h-4.6z"/><path transform="matrix(.9998 .0182 -.0182 .9998 9.24 -25.305)" class="st0" d="M1392.5 160.5h4.6v668.9h-4.6z"/><path class="st0" d="M2230 69.6h-87.1V23.2h87.1v46.4zm-82.5-4.6h77.9V27.9h-77.9V65z"/><path class="st0" d="M2166.1-15.6h4.6v41.1h-4.6zM2175.8 5h4.6v20.6h-4.6zM1420.3 87.3h-302.4V65h302.5l-.1 22.3zm-297.8-4.6h293.2V69.6h-293.2v13.1zM1379.4 35.4h-224.3c-33.4 0-36.8-8.9-37.2-10.7-.1-.7 0-1.4.5-1.9.4-.5 1.1-.8 1.8-.8H1418c1 0 1.8.6 2.2 1.5.3.9.1 1.9-.6 2.6-.5.2-11 9.3-40.2 9.3zm-253.3-8.9c4 2 12.3 4.2 29 4.2h224.3c14 0 23.4-2.1 29.2-4.2h-282.5z"/><path class="st0" d="M1290.3 69.6h-87.1V34h4.6v31h77.9V34.4h4.6zM1207.8 23.3h-4.6V13h87.1v10.1h-4.6v-5.5h-77.9z"/><path class="st0" d="M1226.3-27.9h4.6v41.1h-4.6zM1236.1-7.3h4.6v20.6h-4.6zM1418 73.8h641.9v4.6H1418z"/><path class="st0" d="M1456.6 88.2c-1.3 0-2.3-1-2.3-2.3V52.2c0-1.3 1-2.3 2.3-2.3s2.3 1 2.3 2.3v33.7c.1 1.2-1 2.3-2.3 2.3z"/><path class="st0" d="M1434.7 57.4c-.8 0-1.6-.4-2-1.1-.5-.8-.4-1.8.1-2.6 7.4-10.3 18.7-6.9 23.6-3.6.8.5 1.2 1.5 1 2.4-.2.9-1 1.6-1.9 1.8l-20.4 3c-.2.1-.3.1-.4.1z"/><path class="st0" d="M1476.4 61.2c-.2 0-.5 0-.7-.1L1456 55c-.9-.3-1.5-1.1-1.6-2-.1-.9.4-1.8 1.2-2.3 11.1-6 19.8 1.9 22.8 6.9.5.8.4 1.9-.2 2.6-.4.7-1.1 1-1.8 1z"/><path class="st0" d="M1456.6 53.2c-.4 0-.7-.1-1.1-.3-.8-.4-1.3-1.3-1.2-2.3.5-5.2 4.5-14.9 16.6-14.4 1 0 1.8.6 2.1 1.5.3.9.1 1.9-.7 2.5L1458 52.5c-.3.5-.8.7-1.4.7zM1533.8 88.2c-1.3 0-2.3-1-2.3-2.3V52.2c0-1.3 1-2.3 2.3-2.3 1.3 0 2.3 1 2.3 2.3v33.7c0 1.2-1.1 2.3-2.3 2.3z"/><path class="st0" d="M1514.2 58.4c-.8 0-1.6-.4-2-1.1-.5-.8-.4-1.8.1-2.6 7.6-10.2 18.8-6.6 23.6-3.3.8.5 1.2 1.5 1 2.4-.2.9-1 1.6-1.9 1.8l-20.5 2.7c-.1 0-.2.1-.3.1z"/><path class="st0" d="M1553.9 61.1c-.3 0-.5 0-.8-.1l-19.5-6.9c-.9-.3-1.5-1.1-1.5-2s.5-1.8 1.3-2.2c11.4-5.6 19.7 2.7 22.5 7.9.5.8.4 1.9-.3 2.6-.4.4-1.1.7-1.7.7z"/><path class="st0" d="M1535.2 54.8c-.7 0-1.4-.3-1.9-1-3-4.2-6.3-14.2 3.1-21.8.7-.6 1.8-.7 2.6-.2s1.3 1.4 1.2 2.3l-2.7 18.7c-.1.9-.8 1.7-1.7 1.9-.2.1-.4.1-.6.1zM1610.9 88.2c-1.3 0-2.3-1-2.3-2.3V52.2c0-1.3 1-2.3 2.3-2.3s2.3 1 2.3 2.3v33.7c0 1.2-1 2.3-2.3 2.3z"/><path class="st0" d="M1595.5 66.9c-.3 0-.5 0-.8-.1-.9-.3-1.5-1.1-1.5-2.1-.6-12.7 10.3-17 16.2-17.6 1-.1 1.9.4 2.3 1.3.4.9.3 1.9-.4 2.6l-14.1 15.1c-.5.5-1.1.8-1.7.8z"/><path class="st0" d="M1612.2 51.7c-.9 0-1.7-.5-2.1-1.3s-.2-1.8.4-2.5c8.5-9.4 19.3-4.7 23.8-.9.7.6 1 1.6.7 2.5-.3.9-1.1 1.5-2.1 1.6l-20.7.6z"/><path class="st0" d="M1610 52.5c-.6 0-1.2-.2-1.6-.7-3.7-3.7-8.5-13-.4-22 .6-.7 1.6-1 2.5-.6.9.3 1.5 1.2 1.5 2.1l.3 18.9c0 .9-.5 1.8-1.4 2.2-.3 0-.6.1-.9.1zM1772.5 88.2c-1.3 0-2.3-1-2.3-2.3V52.2c0-1.3 1-2.3 2.3-2.3s2.3 1 2.3 2.3v33.7c0 1.2-1.1 2.3-2.3 2.3z"/><path class="st0" d="M1750.5 57.4c-.8 0-1.6-.4-2-1.1-.5-.8-.4-1.8.1-2.6 7.4-10.3 18.7-6.9 23.6-3.6.8.5 1.2 1.5 1 2.4s-1 1.6-1.9 1.8l-20.4 3c-.2.1-.3.1-.4.1z"/><path class="st0" d="M1792.2 61.2c-.2 0-.5 0-.7-.1l-19.7-6.1c-.9-.3-1.5-1.1-1.6-2s.4-1.8 1.2-2.3c11.1-6 19.8 1.9 22.8 6.9.5.8.4 1.9-.2 2.6-.4.7-1.1 1-1.8 1z"/><path class="st0" d="M1772.5 53.2c-.4 0-.7-.1-1.1-.3-.8-.4-1.3-1.3-1.2-2.3.5-5.2 4.6-14.9 16.6-14.4 1 0 1.8.6 2.1 1.5.3.9.1 1.9-.7 2.5L1774 52.6c-.5.4-1 .6-1.5.6zM2002.9 88.2c-1.3 0-2.3-1-2.3-2.3V52.2c0-1.3 1-2.3 2.3-2.3s2.3 1 2.3 2.3v33.7c0 1.2-1 2.3-2.3 2.3z"/><path class="st0" d="M2024.9 57.4h-.3l-20.4-3c-.9-.1-1.7-.9-1.9-1.8-.2-.9.2-1.9 1-2.4 4.9-3.2 16.2-6.7 23.6 3.6.5.8.6 1.8.1 2.6-.6.6-1.3 1-2.1 1z"/><path class="st0" d="M1983.1 61.2c-.7 0-1.4-.3-1.8-.9-.6-.8-.7-1.8-.2-2.6 3-5 11.7-13 22.8-6.9.8.4 1.3 1.3 1.2 2.3-.1.9-.7 1.7-1.6 2l-19.7 6.1c-.2-.1-.4 0-.7 0z"/><path class="st0" d="M2002.9 53.2c-.5 0-1.1-.2-1.5-.6l-14.3-12.3c-.7-.6-1-1.6-.7-2.5s1.2-1.5 2.1-1.5c12.1-.4 16.2 9.3 16.6 14.4.1.9-.4 1.8-1.2 2.3-.3.1-.7.2-1 .2zM1925.8 88.2c-1.3 0-2.3-1-2.3-2.3V52.2c0-1.3 1-2.3 2.3-2.3s2.3 1 2.3 2.3v33.7c0 1.2-1.1 2.3-2.3 2.3z"/><path class="st0" d="M1945.3 58.4h-.3l-20.5-2.7c-.9-.1-1.7-.8-1.9-1.8-.2-.9.2-1.9 1-2.4 4.9-3.3 16.1-6.9 23.6 3.3.6.7.6 1.8.1 2.6-.4.5-1.2 1-2 1z"/><path class="st0" d="M1905.7 61.1c-.7 0-1.3-.3-1.8-.8-.6-.7-.7-1.8-.3-2.6 2.8-5.2 11.1-13.5 22.5-7.9.8.4 1.3 1.3 1.3 2.2s-.7 1.7-1.5 2l-19.5 6.9c-.2.1-.5.2-.7.2z"/><path class="st0" d="M1924.3 54.8c-.2 0-.4 0-.6-.1-.9-.2-1.6-1-1.7-1.9l-2.7-18.7c-.1-.9.3-1.9 1.2-2.3.8-.5 1.9-.4 2.6.2 9.4 7.7 6.1 17.6 3.1 21.8-.5.6-1.2 1-1.9 1zM1848.6 88.2c-1.3 0-2.3-1-2.3-2.3V52.2c0-1.3 1-2.3 2.3-2.3s2.3 1 2.3 2.3v33.7c0 1.2-1 2.3-2.3 2.3z"/><path class="st0" d="M1864 66.9c-.6 0-1.3-.3-1.7-.7l-14.1-15.1c-.7-.7-.8-1.7-.4-2.6s1.3-1.4 2.3-1.3c5.9.5 16.8 4.9 16.2 17.6 0 .9-.6 1.7-1.5 2.1-.2-.1-.5 0-.8 0z"/><path class="st0" d="M1847.4 51.7c-.1 0-.1 0 0 0l-20.7-.7c-1 0-1.8-.7-2.1-1.6-.3-.9 0-1.9.7-2.5 4.5-3.8 15.3-8.4 23.8.9.6.7.8 1.7.4 2.5-.4.9-1.2 1.4-2.1 1.4z"/><path class="st0" d="M1849.6 52.5c-.3 0-.6-.1-.9-.2-.9-.4-1.4-1.2-1.4-2.2l.3-18.9c0-1 .6-1.8 1.5-2.1s1.9-.1 2.5.6c8 9.1 3.2 18.4-.4 22-.4.5-1 .8-1.6.8zM1698.3 88.2c-1.3 0-2.3-1-2.3-2.3V52.2c0-1.3 1-2.3 2.3-2.3s2.3 1 2.3 2.3v33.7c0 1.2-1.1 2.3-2.3 2.3z"/><path class="st0" d="M1720.2 57.4h-.3l-20.4-3c-.9-.1-1.7-.9-1.9-1.8-.2-.9.2-1.9 1-2.4 4.9-3.2 16.2-6.7 23.6 3.6.5.8.6 1.8.1 2.6-.5.6-1.3 1-2.1 1z"/><path class="st0" d="M1678.5 61.2c-.7 0-1.4-.3-1.8-.9-.6-.8-.7-1.8-.2-2.6 3-5 11.7-13 22.8-6.9.8.4 1.3 1.3 1.2 2.3-.1.9-.7 1.7-1.6 2l-19.7 6.1c-.2-.1-.4 0-.7 0z"/><path class="st0" d="M1698.3 53.2c-.5 0-1.1-.2-1.5-.6l-14.3-12.3c-.7-.6-1-1.6-.7-2.5s1.2-1.5 2.1-1.5c12.1-.4 16.2 9.3 16.6 14.4.1.9-.4 1.8-1.2 2.3-.3.1-.7.2-1 .2zM2136.6 33.3h99.8v4.6h-99.8zM2136.6 42.5h99.8v4.6h-99.8z"/><g><path class="st0" d="M2181.4 19.9h-77.6c-14.1 0-25.5-11.4-25.5-25.5 0-12.4 8.9-22.9 20.9-25.1 1-7.8 7.6-13.8 15.6-13.8 3.8 0 7.4 1.4 10.2 3.8 6.4-6.6 15.2-10.3 24.5-10.3 17.9 0 32.5 13.4 34.1 31 10 1.1 17.8 9.6 17.8 19.9 0 11-9 20-20 20zm-66.7-59.7c-6.1 0-11.1 5-11.1 11.1v2.1l-2.1.3c-10.7 1.1-18.7 10-18.7 20.8 0 11.5 9.4 20.8 20.9 20.8h77.6c8.5 0 15.4-6.9 15.4-15.4s-6.9-15.4-15.4-15.4h-2.2l-.1-2.2c-.5-16.1-13.5-28.6-29.6-28.6-8.8 0-17 3.8-22.7 10.5l-1.8 2.1-1.8-2.1c-2-2.6-5.1-4-8.4-4z"/></g></svg>