<svg version="1.1" id="Layer_1" xmlns="http://www.w3.org/2000/svg" x="0" y="0" viewBox="-108 -46.1 393.3 885.1" xml:space="preserve"><style type="text/css">.st0{fill:#efefef}</style><g id="XMLID_835_"><g id="XMLID_749_"><path id="XMLID_948_" class="st0" d="M-67 185.6c-22 0-39.8-17.9-39.8-39.8S-88.9 106-67 106c.8 0 1.5.1 2.2.1 1.2-29.2 25.4-52.7 54.9-52.7 18 0 34.6 8.7 45 23.4 4.7-2.2 9.5-3.3 14.5-3.3 19.2 0 34.9 15.6 34.9 34.9 0 2.8-.4 5.7-1.2 8.6h10.6v4.9H76.5l1.2-3.3c1.3-3.5 1.9-6.9 1.9-10.2 0-16.5-13.4-30-30-30-4.8 0-9.6 1.2-14.1 3.7l-2 1.1-1.2-1.9c-9.3-14.4-25-23-42.1-23-27.6 0-50.1 22.5-50.1 50.1v3.3l-3.8-.5c-1.1-.2-2.2-.3-3.3-.3-19.3 0-34.9 15.7-34.9 34.9s15.7 34.9 34.9 34.9l133.7-.2v4.9l-133.7.2z"/></g><g id="XMLID_831_"><path id="XMLID_947_" class="st0" d="M361.8 277.7h-466.2v-14l36.4-.1v4.9l-31.5.1v4.2h456.4v-4.2H322v-4.9h39.8z"/></g><g id="XMLID_829_"><path id="XMLID_946_" class="st0" d="M56.7 263.7h140.2v4.9H56.7z"/></g><g id="XMLID_828_"><path id="XMLID_945_" class="st0" d="M257.5 273.6c-40.5 0-73.5-6.6-94.2-12.2-19.1-5.1-31.1-10.3-34.7-11.9-7.2 3.6-48.1 22.1-131.2 23.5-40.4.7-70.3-3.2-88.7-11.5-14.3-6.5-16.5-13.4-16.6-14.2-.2-.8 0-1.7.7-2.3.6-.6 1.5-.8 2.4-.6.3.1 26.1 6.8 63.8-1.9 34.8-8 87.1-31.1 138.7-95.8l3.8 3.1c-29 36.4-77.1 82.8-141.7 97.6-28.1 6.4-49.5 4.6-59.6 3 7.3 6.7 29.8 18.9 97.2 17.7 46.4-.8 79.3-7.1 98.7-12.3 21-5.6 31.2-11.1 31.3-11.2.7-.4 1.5-.4 2.2-.1.1.1 13 6.1 35.1 12.1 20.3 5.5 52.9 12 92.7 12h.7c66.9-.1 90.6-11.6 98.7-18.2-10.2 1.5-31 3.1-58.2-3.2-35.3-8.1-88.4-31.7-141-97.6l3.8-3.1c51.7 64.8 103.7 87.9 138.2 95.8 37.2 8.6 62.5 1.9 62.7 1.8.9-.2 1.8 0 2.4.7s.8 1.6.6 2.4c-.8 2.6-10.7 25.9-107.3 26.1 0 .3-.2.3-.5.3z"/></g><g id="XMLID_827_"><path id="XMLID_944_" class="st0" d="M126.1 148.3h4.9v98.5h-4.9z"/></g><g id="XMLID_825_"><path id="XMLID_943_" class="st0" d="M56 386.4h141.6v4.9H56z"/></g><g id="XMLID_824_"><path id="XMLID_942_" class="st0" d="M361.8 400.4h-466.2v-14h37.5v4.9h-32.6v4.2h456.4v-4.2h-35.2v-4.9h40.1z"/></g><g id="XMLID_823_"><path id="XMLID_941_" class="st0" d="M257.5 396.3c-40.5 0-73.5-6.6-94.2-12.2-19.1-5.1-31.1-10.3-34.7-11.9-7.2 3.6-48.1 22.1-131.2 23.5-40.4.7-70.3-3.2-88.7-11.5-14.3-6.5-16.5-13.4-16.6-14.2-.2-.8 0-1.7.7-2.3.6-.6 1.5-.9 2.4-.6.6.2 62.1 15.8 135.1-33.8l2.8 4.1C-28.2 379.1-82 375.7-99.8 373c7.2 6.7 29.7 18.9 97.3 17.8 46.4-.8 79.3-7.1 98.7-12.3 21-5.6 31.2-11.1 31.3-11.2.7-.4 1.5-.4 2.2-.1.1.1 13 6.1 35.1 12.1 20.3 5.5 52.9 12 92.7 12h.7c67.1-.1 90.7-11.7 98.8-18.2-18.6 2.7-72.4 5.4-133.8-37.7l2.8-4c73.8 51.8 135.9 35.9 136.5 35.7.9-.2 1.8 0 2.4.7.6.6.8 1.6.6 2.4-.8 2.6-10.7 25.9-107.3 26.1h-.7z"/></g><g id="XMLID_821_"><path id="XMLID_940_" class="st0" d="M126.1 336.3h4.9v33.1h-4.9z"/></g><g id="XMLID_820_"><path id="XMLID_939_" class="st0" d="M156.3 117h-4.9c0-12.1-9.9-22-22-22s-22 9.9-22 22h-4.9c0-14.8 12.1-26.9 26.9-26.9 14.9 0 26.9 12.1 26.9 26.9z"/></g><g id="XMLID_819_"><path id="XMLID_936_" class="st0" d="M167.4 150.7H92.1v-36.1h75.3v36.1zM97 145.8h65.5v-26.3H97v26.3z"/></g><g id="XMLID_817_"><path id="XMLID_935_" class="st0" d="M127-58.2h4.9V92.6H127z"/></g><g id="XMLID_816_"><path id="XMLID_932_" class="st0" d="M129.4-46.7c-6.3 0-11.5-5.1-11.5-11.5s5.1-11.5 11.5-11.5c6.3 0 11.5 5.1 11.5 11.5s-5.1 11.5-11.5 11.5zm0-18c-3.6 0-6.5 2.9-6.5 6.5s2.9 6.5 6.5 6.5 6.5-2.9 6.5-6.5-2.8-6.5-6.5-6.5z"/></g><g id="XMLID_815_"><path id="XMLID_929_" class="st0" d="M-89.7 301.7c-6.3 0-11.5-5.1-11.5-11.5s5.1-11.5 11.5-11.5c6.3 0 11.5 5.1 11.5 11.5s-5.2 11.5-11.5 11.5zm0-18c-3.6 0-6.5 2.9-6.5 6.5s2.9 6.5 6.5 6.5 6.5-2.9 6.5-6.5-2.9-6.5-6.5-6.5z"/></g><g id="XMLID_813_"><path id="XMLID_926_" class="st0" d="M345.4 301.7c-6.3 0-11.5-5.1-11.5-11.5s5.1-11.5 11.5-11.5 11.5 5.1 11.5 11.5c-.1 6.3-5.2 11.5-11.5 11.5zm0-18c-3.6 0-6.5 2.9-6.5 6.5s2.9 6.5 6.5 6.5 6.5-2.9 6.5-6.5-2.9-6.5-6.5-6.5z"/></g><g id="XMLID_812_"><path id="XMLID_923_" class="st0" d="M-89.7 424.4c-6.3 0-11.5-5.1-11.5-11.5s5.1-11.5 11.5-11.5c6.3 0 11.5 5.1 11.5 11.5s-5.2 11.5-11.5 11.5zm0-18c-3.6 0-6.5 2.9-6.5 6.5s2.9 6.5 6.5 6.5 6.5-2.9 6.5-6.5-2.9-6.5-6.5-6.5z"/></g><g id="XMLID_811_"><path id="XMLID_920_" class="st0" d="M345.4 424.4c-6.3 0-11.5-5.1-11.5-11.5s5.1-11.5 11.5-11.5 11.5 5.1 11.5 11.5-5.2 11.5-11.5 11.5zm0-18c-3.6 0-6.5 2.9-6.5 6.5s2.9 6.5 6.5 6.5 6.5-2.9 6.5-6.5-2.9-6.5-6.5-6.5z"/></g><g id="XMLID_809_"><path id="XMLID_919_" class="st0" d="M153.9-30.1H105c-1.4 0-2.5-1.1-2.5-2.5s1.1-2.5 2.5-2.5h48.9c1.4 0 2.5 1.1 2.5 2.5s-1.2 2.5-2.5 2.5z"/></g><g id="XMLID_807_"><path id="XMLID_918_" class="st0" d="M153.9-16.5H105c-1.4 0-2.5-1.1-2.5-2.5s1.1-2.5 2.5-2.5h48.9c1.4 0 2.5 1.1 2.5 2.5-.1 1.4-1.2 2.5-2.5 2.5z"/></g><g id="XMLID_805_"><path id="XMLID_917_" class="st0" d="M153.9-2.9H105c-1.4 0-2.5-1.1-2.5-2.5s1.1-2.5 2.5-2.5h48.9c1.4 0 2.5 1.1 2.5 2.5s-1.2 2.5-2.5 2.5z"/></g><g id="XMLID_803_"><path id="XMLID_916_" class="st0" d="M153.9 10.7H105c-1.4 0-2.5-1.1-2.5-2.5s1.1-2.5 2.5-2.5h48.9c1.4 0 2.5 1.1 2.5 2.5s-1.2 2.5-2.5 2.5z"/></g><g id="XMLID_801_"><path id="XMLID_915_" class="st0" d="M153.9 24.3H105c-1.4 0-2.5-1.1-2.5-2.5s1.1-2.5 2.5-2.5h48.9c1.4 0 2.5 1.1 2.5 2.5s-1.2 2.5-2.5 2.5z"/></g><g id="XMLID_800_"><path id="XMLID_914_" class="st0" d="M153.9 37.9H105c-1.4 0-2.5-1.1-2.5-2.5s1.1-2.5 2.5-2.5h48.9c1.4 0 2.5 1.1 2.5 2.5s-1.2 2.5-2.5 2.5z"/></g><g id="XMLID_799_"><path id="XMLID_913_" class="st0" d="M153.9 51.5H105c-1.4 0-2.5-1.1-2.5-2.5s1.1-2.5 2.5-2.5h48.9c1.4 0 2.5 1.1 2.5 2.5s-1.2 2.5-2.5 2.5z"/></g><g id="XMLID_797_"><path id="XMLID_912_" class="st0" d="M153.9 65.1H105c-1.4 0-2.5-1.1-2.5-2.5s1.1-2.5 2.5-2.5h48.9c1.4 0 2.5 1.1 2.5 2.5s-1.2 2.5-2.5 2.5z"/></g><g id="XMLID_796_"><path id="XMLID_911_" class="st0" d="M153.9 78.7H105c-1.4 0-2.5-1.1-2.5-2.5s1.1-2.5 2.5-2.5h48.9c1.4 0 2.5 1.1 2.5 2.5s-1.2 2.5-2.5 2.5z"/></g><g id="XMLID_795_"><path id="XMLID_910_" class="st0" d="M244.7 312.9H14.2c-1.4 0-2.5-1.1-2.5-2.5s1.1-2.5 2.5-2.5h230.5c1.4 0 2.5 1.1 2.5 2.5s-1.2 2.5-2.5 2.5z"/></g><g id="XMLID_793_"><path id="XMLID_909_" class="st0" d="M244.7 326.5H14.2c-1.4 0-2.5-1.1-2.5-2.5s1.1-2.5 2.5-2.5h230.5c1.4 0 2.5 1.1 2.5 2.5s-1.2 2.5-2.5 2.5z"/></g><g id="XMLID_792_"><path id="XMLID_908_" class="st0" d="M244.7 435.6H14.2c-1.4 0-2.5-1.1-2.5-2.5s1.1-2.5 2.5-2.5h230.5c1.4 0 2.5 1.1 2.5 2.5s-1.2 2.5-2.5 2.5z"/></g><g id="XMLID_791_"><path id="XMLID_907_" class="st0" d="M244.7 449.2H14.2c-1.4 0-2.5-1.1-2.5-2.5s1.1-2.5 2.5-2.5h230.5c1.4 0 2.5 1.1 2.5 2.5s-1.2 2.5-2.5 2.5z"/></g><g id="XMLID_789_"><path id="XMLID_904_" class="st0" d="M227.7 338.5H29.6v-65.7h198.1v65.7zm-193.3-4.9h188.3v-55.9H34.4v55.9z"/></g><g id="XMLID_788_"><path id="XMLID_901_" class="st0" d="M227.7 461.2H29.6v-65.7h198.1v65.7zm-193.3-4.9h188.3v-55.9H34.4v55.9z"/></g><g id="XMLID_787_"><path id="XMLID_900_" class="st0" d="M56 510.7h141.6v4.9H56z"/></g><g id="XMLID_785_"><path id="XMLID_899_" class="st0" d="M361.8 524.7h-466.2v-14h37.5v4.9h-32.6v4.2h456.4v-4.2h-35.2v-4.9h40.1z"/></g><g id="XMLID_784_"><path id="XMLID_898_" class="st0" d="M257.5 520.6c-40.5 0-73.5-6.6-94.2-12.2-19.1-5.1-31.1-10.3-34.7-11.9-7.2 3.6-48.1 22.1-131.2 23.5-40.4.7-70.3-3.2-88.7-11.5-14.3-6.5-16.5-13.4-16.6-14.2-.2-.8 0-1.7.7-2.3s1.5-.8 2.4-.6c.6.2 62.1 15.8 135.1-33.8l2.8 4.1C-28.2 503.4-82 500-99.8 497.3c7.2 6.7 29.7 18.9 97.3 17.8 46.4-.8 79.3-7.1 98.7-12.3 21-5.6 31.2-11.1 31.3-11.2.7-.4 1.5-.4 2.2-.1.1.1 13 6.1 35.1 12.1 20.3 5.5 52.9 12 92.7 12h.7c67.1-.1 90.7-11.7 98.8-18.2-18.6 2.7-72.4 5.4-133.8-37.7l2.8-4c73.8 51.8 135.9 35.9 136.5 35.7.9-.2 1.8 0 2.4.7.6.6.8 1.6.6 2.4-.8 2.7-10.7 25.9-107.3 26.1h-.7z"/></g><g id="XMLID_783_"><path id="XMLID_897_" class="st0" d="M126.1 460.6h4.9v33.1h-4.9z"/></g><g id="XMLID_781_"><path id="XMLID_894_" class="st0" d="M-89.7 548.7c-6.3 0-11.5-5.1-11.5-11.5 0-6.3 5.1-11.5 11.5-11.5 6.3 0 11.5 5.1 11.5 11.5-.1 6.4-5.2 11.5-11.5 11.5zm0-18c-3.6 0-6.5 2.9-6.5 6.5s2.9 6.5 6.5 6.5 6.5-2.9 6.5-6.5-2.9-6.5-6.5-6.5z"/></g><g id="XMLID_780_"><path id="XMLID_891_" class="st0" d="M345.4 548.7c-6.3 0-11.5-5.1-11.5-11.5 0-6.3 5.1-11.5 11.5-11.5s11.5 5.1 11.5 11.5c-.1 6.4-5.2 11.5-11.5 11.5zm0-18c-3.6 0-6.5 2.9-6.5 6.5s2.9 6.5 6.5 6.5 6.5-2.9 6.5-6.5-2.9-6.5-6.5-6.5z"/></g><g id="XMLID_779_"><path id="XMLID_890_" class="st0" d="M244.7 559.9H14.2c-1.4 0-2.5-1.1-2.5-2.5s1.1-2.5 2.5-2.5h230.5c1.4 0 2.5 1.1 2.5 2.5s-1.2 2.5-2.5 2.5z"/></g><g id="XMLID_777_"><path id="XMLID_889_" class="st0" d="M244.7 573.5H14.2c-1.4 0-2.5-1.1-2.5-2.5s1.1-2.5 2.5-2.5h230.5c1.4 0 2.5 1.1 2.5 2.5s-1.2 2.5-2.5 2.5z"/></g><g id="XMLID_776_"><path id="XMLID_886_" class="st0" d="M227.7 585.5H29.6v-65.7h198.1v65.7zm-193.3-4.9h188.3v-55.9H34.4v55.9z"/></g><g id="XMLID_775_"><path id="XMLID_885_" class="st0" d="M56 633.4h141.6v4.9H56z"/></g><g id="XMLID_773_"><path id="XMLID_884_" class="st0" d="M361.8 647.4h-466.2v-14h37.5v4.9h-32.6v4.2h456.4v-4.2h-35.2v-4.9h40.1z"/></g><g id="XMLID_772_"><path id="XMLID_883_" class="st0" d="M257.5 643.3c-40.5 0-73.5-6.6-94.2-12.2-19.1-5.1-31.1-10.3-34.7-11.9-7.2 3.6-48.1 22.1-131.2 23.5-40.4.7-70.3-3.2-88.7-11.5-14.3-6.5-16.5-13.4-16.6-14.2-.2-.8 0-1.7.7-2.3s1.5-.8 2.4-.6c.6.2 62.1 15.8 135.1-33.8l2.8 4.1C-28.2 626.1-82 622.7-99.8 620c7.2 6.7 29.7 18.9 97.3 17.8 46.4-.8 79.3-7.1 98.7-12.3 21-5.6 31.2-11.1 31.3-11.2.7-.4 1.5-.4 2.2-.1.1.1 13 6.1 35.1 12.1 20.5 5.5 53.2 12 93.5 12 67.1-.1 90.7-11.7 98.8-18.2-18.6 2.7-72.4 5.4-133.8-37.7l2.8-4c73.8 51.8 135.9 35.9 136.5 35.7.9-.2 1.8 0 2.4.7.6.6.8 1.6.6 2.4-.8 2.7-10.7 25.9-107.3 26.1h-.8z"/></g><g id="XMLID_771_"><path id="XMLID_882_" class="st0" d="M126.1 583.3h4.9v33.1h-4.9z"/></g><g id="XMLID_769_"><path id="XMLID_879_" class="st0" d="M-89.7 671.4c-6.3 0-11.5-5.1-11.5-11.5 0-6.3 5.1-11.5 11.5-11.5 6.3 0 11.5 5.1 11.5 11.5-.1 6.3-5.2 11.5-11.5 11.5zm0-18c-3.6 0-6.5 2.9-6.5 6.5s2.9 6.5 6.5 6.5 6.5-2.9 6.5-6.5-2.9-6.5-6.5-6.5z"/></g><g id="XMLID_768_"><path id="XMLID_876_" class="st0" d="M345.4 671.4c-6.3 0-11.5-5.1-11.5-11.5 0-6.3 5.1-11.5 11.5-11.5s11.5 5.1 11.5 11.5c-.1 6.3-5.2 11.5-11.5 11.5zm0-18c-3.6 0-6.5 2.9-6.5 6.5s2.9 6.5 6.5 6.5 6.5-2.9 6.5-6.5-2.9-6.5-6.5-6.5z"/></g><g id="XMLID_767_"><path id="XMLID_875_" class="st0" d="M244.7 682.6H14.2c-1.4 0-2.5-1.1-2.5-2.5s1.1-2.5 2.5-2.5h230.5c1.4 0 2.5 1.1 2.5 2.5s-1.2 2.5-2.5 2.5z"/></g><g id="XMLID_765_"><path id="XMLID_874_" class="st0" d="M244.7 696.2H14.2c-1.4 0-2.5-1.1-2.5-2.5s1.1-2.5 2.5-2.5h230.5c1.4 0 2.5 1.1 2.5 2.5s-1.2 2.5-2.5 2.5z"/></g><g id="XMLID_764_"><path id="XMLID_871_" class="st0" d="M227.7 708.2H29.6v-65.7h198.1v65.7zm-193.3-4.9h188.3v-55.9H34.4v55.9z"/></g><g id="XMLID_763_"><path id="XMLID_870_" class="st0" d="M56 754.4h141.6v4.9H56z"/></g><g id="XMLID_761_"><path id="XMLID_869_" class="st0" d="M361.8 768.4h-466.2v-14h37.5v4.9h-32.6v4.2h456.4v-4.2h-35.2v-4.9h40.1z"/></g><g id="XMLID_760_"><path id="XMLID_867_" class="st0" d="M257.5 764.3c-40.5 0-73.5-6.6-94.2-12.2-19.1-5.1-31.1-10.3-34.7-11.9-7.2 3.6-48.1 22.1-131.2 23.5-40.4.7-70.3-3.2-88.7-11.5-14.3-6.5-16.5-13.4-16.6-14.2-.2-.8 0-1.7.7-2.3.6-.6 1.5-.8 2.4-.6.6.2 62.1 15.8 135.1-33.8l2.8 4.1C-28.2 747.1-82 743.7-99.8 741c7.2 6.7 29.7 18.9 97.3 17.8 46.4-.8 79.3-7.1 98.7-12.3 21-5.6 31.2-11.1 31.3-11.2.7-.4 1.5-.4 2.2-.1.1.1 13 6.1 35.1 12.1 20.5 5.5 53.2 12 93.5 12 67.1-.1 90.7-11.7 98.8-18.2-18.6 2.7-72.4 5.4-133.8-37.7l2.8-4c73.8 51.9 135.9 35.9 136.5 35.7.9-.2 1.8 0 2.4.7.6.6.8 1.6.6 2.4-.8 2.7-10.7 25.9-107.3 26.1h-.8z"/></g><g id="XMLID_759_"><path id="XMLID_865_" class="st0" d="M126.1 704.4h4.9v33.1h-4.9z"/></g><g id="XMLID_757_"><path id="XMLID_859_" class="st0" d="M-89.7 792.4c-6.3 0-11.5-5.1-11.5-11.5 0-6.3 5.1-11.5 11.5-11.5 6.3 0 11.5 5.1 11.5 11.5-.1 6.4-5.2 11.5-11.5 11.5zm0-18c-3.6 0-6.5 2.9-6.5 6.5s2.9 6.5 6.5 6.5 6.5-2.9 6.5-6.5-2.9-6.5-6.5-6.5z"/></g><g id="XMLID_756_"><path id="XMLID_852_" class="st0" d="M345.4 792.4c-6.3 0-11.5-5.1-11.5-11.5 0-6.3 5.1-11.5 11.5-11.5s11.5 5.1 11.5 11.5c-.1 6.4-5.2 11.5-11.5 11.5zm0-18c-3.6 0-6.5 2.9-6.5 6.5s2.9 6.5 6.5 6.5 6.5-2.9 6.5-6.5-2.9-6.5-6.5-6.5z"/></g><g id="XMLID_755_"><path id="XMLID_850_" class="st0" d="M244.7 792.2H14.2c-1.4 0-2.5-1.1-2.5-2.5s1.1-2.5 2.5-2.5h230.5c1.4 0 2.5 1.1 2.5 2.5s-1.2 2.5-2.5 2.5z"/></g><g id="XMLID_753_"><path id="XMLID_844_" class="st0" d="M227 802H30.1v-37.9H227V802zm-193.2-3.7h189.5v-30.5H33.8v30.5z"/></g><g id="XMLID_752_"><path id="XMLID_838_" class="st0" d="M324.3 829.5H-66.5V798h390.8v31.5zm-386.5-4.4h382v-22.7h-382v22.7z"/></g><g id="XMLID_751_"><path id="XMLID_748_" class="st0" d="M-80.8 800.2h417.2"/><path id="XMLID_833_" class="st0" d="M336.4 802.4H-80.7c-1.2 0-2.2-1-2.2-2.2s1-2.2 2.2-2.2h417.1c1.2 0 2.2 1 2.2 2.2s-1 2.2-2.2 2.2z"/></g></g></svg>