<svg version="1.1" id="Calque_1" xmlns="http://www.w3.org/2000/svg" x="0" y="0" viewBox="0 0 467 50.4" xml:space="preserve"><style type="text/css">.st0{fill:none}.st1{fill:#c00418}</style><path class="st0" d="M65.5 11.1c0-8 .5-10.1-4.6-10.5h-.3c-4.8.4-4.4 2.6-4.4 10.5v26.1c0 8.1-.5 10.2 4.7 10.6 5-.4 4.5-2.6 4.5-10.6V11.1z"/><path class="st1" d="M110.9 18.6v-7.5c0-9.1-.6-10.5 7-10.5V-.5H96.7V.6c7.5 0 7 1.5 7 10.5v6.7c-10.2-.9-20.5-1.2-30.9-.9v-5.8C72.8 2 72.2.6 79.7.6V-.5H42.1V.6c1.9 0 3.3.1 4.3.4 3.1.8 2.8 3.3 2.8 10.2v7.4c-10.4 1.1-20.7 2.8-31 4.9V11.1c0-9.1-.6-10.5 7-10.5V-.5H3.9V.6c1.6 0 2.9.1 3.9.3 3.5.7 3.2 3.2 3.2 10.3v26.2c0 9.1.5 10.6-7 10.6v1h21.2v-1.1c-7.6 0-7-1.5-7-10.6V25.8c10.4-1.8 20.7-3.2 31-4.2v15.6c0 9.1.5 10.6-7 10.6V49h37.5v-1.1c-7.6 0-6.9-1.5-6.9-10.6V20.4c10.4-.1 20.8.2 30.9 1.3v15.6c0 9.1.5 10.6-7 10.6V49h21.2v-1.1c-7.6 0-7-1.5-7-10.6V22.5c15.9 1.7 36.1 5.5 55 11.3-.3-.9-.6-1.9-.8-2.9-17.9-6.2-37.1-10.2-54.2-12.3zM61 47.8c-5.2-.4-4.7-2.5-4.7-10.6V11.1c0-7.9-.4-10 4.4-10.5h.3c5 .4 4.6 2.5 4.6 10.5v26.2c-.1 8 .4 10.1-4.6 10.5z"/><g><path d="M150.1 34.7c0 1.5-.1 3.1-.3 4.9-.2 1.8-.8 3.5-1.7 5.1-.9 1.6-2.2 2.9-4 4-1.8 1.1-4.3 1.6-7.5 1.6-3.6 0-6.5-.9-8.6-2.7-2.1-1.8-3.5-4.3-4.2-7.3l4.6-.8c1.1 4.5 3.8 6.7 8.2 6.7 1.6 0 3-.3 4.1-.8 1.1-.5 2-1.3 2.7-2.2.7-.9 1.2-2 1.5-3.3.3-1.3.5-2.6.5-4.1V0h4.6v34.7zM164.5 24.6c0-3.7.6-7.2 1.9-10.3 1.2-3.1 3-5.9 5.2-8.2s4.9-4.1 8-5.4c3.1-1.3 6.6-1.9 10.3-1.9 3.7 0 7.2.6 10.3 1.9 3.1 1.3 5.8 3.1 8 5.4s4 5 5.2 8.2c1.2 3.1 1.9 6.6 1.9 10.3s-.6 7.2-1.9 10.4c-1.2 3.2-3 5.9-5.2 8.2s-4.9 4.1-8 5.3c-3.1 1.3-6.6 1.9-10.3 1.9-3.7 0-7.2-.6-10.3-1.9-3.1-1.3-5.8-3.1-8-5.3s-4-5-5.2-8.2c-1.3-3.2-1.9-6.7-1.9-10.4zm4.6 0c0 3.1.5 5.9 1.5 8.5s2.4 4.9 4.2 6.9c1.8 1.9 4 3.5 6.6 4.6 2.6 1.1 5.5 1.7 8.6 1.7s6.1-.6 8.6-1.7c2.6-1.1 4.8-2.6 6.6-4.6 1.8-1.9 3.2-4.2 4.2-6.9s1.5-5.5 1.5-8.5c0-3.1-.5-5.9-1.5-8.5-1-2.6-2.4-4.9-4.2-6.9-1.8-1.9-4-3.5-6.6-4.6-2.6-1.1-5.4-1.7-8.6-1.7s-6.1.6-8.6 1.7c-2.6 1.1-4.8 2.6-6.6 4.6-1.8 1.9-3.2 4.2-4.2 6.9-1 2.6-1.5 5.4-1.5 8.5zM264.7 30.3c0 2.6-.3 5.2-.9 7.6-.6 2.4-1.6 4.5-3 6.4s-3.3 3.3-5.6 4.4c-2.3 1.1-5.1 1.7-8.4 1.7-3.3 0-6.1-.6-8.4-1.7-2.3-1.1-4.1-2.6-5.6-4.4-1.4-1.9-2.4-4-3-6.4-.6-2.4-.9-4.9-.9-7.6V0h4.6v29.2c0 1.8.2 3.6.5 5.6s1 3.8 1.9 5.6c.9 1.7 2.3 3.1 4 4.2 1.7 1.1 4 1.7 6.9 1.7 2.9 0 5.2-.6 6.9-1.7 1.7-1.1 3.1-2.5 4-4.2.9-1.7 1.6-3.6 1.9-5.6.3-2 .5-3.9.5-5.6V0h4.6v30.3zM281.4 0h12.9c.6 0 1.5 0 2.6.1 1.1 0 2.3.2 3.6.4 1.3.2 2.6.6 4 1.1 1.3.5 2.5 1.2 3.6 2.2 1.1 1 1.9 2.2 2.6 3.7.7 1.5 1 3.3 1 5.4 0 2.4-.4 4.3-1.2 5.8-.8 1.5-1.8 2.8-3.1 3.7-1.2.9-2.6 1.7-4.1 2.1-1.5.5-2.9.8-4.2 1l14.3 23.6h-5.2l-13.8-23.3H286v23.3h-4.6V0zm4.6 21.7h9.7c2.4 0 4.4-.3 5.9-.9 1.5-.6 2.7-1.3 3.5-2.2.8-.9 1.4-1.8 1.7-2.8.3-1 .5-1.9.5-2.8 0-.8-.1-1.8-.5-2.8-.3-1-.9-2-1.7-2.8-.8-.9-2-1.6-3.5-2.2-1.5-.6-3.5-.9-5.9-.9H286v17.4zM326.7 0h5.9l29.9 43h.1V0h4.6v49.1h-5.9l-29.9-43h-.1v43h-4.6V0zM399.9 0h4.7l20.7 49.1h-5.1L414.9 36h-26l-5.6 13.1h-4.8L399.9 0zm2.2 5l-11.5 26.9h22.6L402.1 5zM436.6 0h4.6v45h22.9v4.2h-27.5V0z"/></g></svg>