<svg version="1.1" id="Calque_1" xmlns="http://www.w3.org/2000/svg" x="0" y="0" viewBox="0 0 464.4 51.6" xml:space="preserve"><style type="text/css">.st0{fill:none}.st1{fill:#c00418}.st2{fill:#fff}</style><path class="st0" d="M63.7 12.4c0-8 .5-10.1-4.6-10.5h-.3c-4.8.4-4.4 2.6-4.4 10.5v26.1c0 8.1-.5 10.2 4.7 10.6 5-.4 4.5-2.6 4.5-10.6V12.4z"/><path class="st1" d="M109.1 19.9v-7.5c0-9.1-.6-10.5 7-10.5V.7H94.9v1.1c7.5 0 7 1.5 7 10.5V19c-10.2-.9-20.5-1.2-30.9-.9v-5.8c0-9.1-.6-10.5 6.9-10.5V.7H40.3v1.1c1.9 0 3.3.1 4.3.4 3.1.8 2.8 3.3 2.8 10.2v7.4c-10.4 1.1-20.7 2.8-31 4.9V12.4c0-9.1-.6-10.5 7-10.5V.7H2.1v1.1c1.6 0 2.9.1 3.9.3 3.5.7 3.2 3.2 3.2 10.3v26.2c0 9.1.5 10.6-7 10.6v1.1h21.2v-1.1c-7.6 0-7-1.5-7-10.6V27c10.4-1.8 20.7-3.2 31-4.2v15.6c0 9.1.5 10.6-7 10.6v1.1H78V49c-7.6 0-6.9-1.5-6.9-10.6V21.6c10.4-.1 20.8.2 30.9 1.3v15.6c0 9.1.5 10.6-7 10.6v1.1h21.2v-1.1c-7.6 0-7-1.5-7-10.6V23.7c15.9 1.7 36.1 5.5 55 11.3-.3-.9-.6-1.9-.8-2.9-18-6.2-37.3-10.1-54.3-12.2zM59.2 49.1c-5.2-.4-4.7-2.5-4.7-10.6V12.4c0-7.9-.4-10 4.4-10.5h.3c5 .4 4.6 2.5 4.6 10.5v26.2c-.1 7.9.4 10.1-4.6 10.5z"/><g><path class="st2" d="M148.2 36c0 1.5-.1 3.1-.3 4.9-.2 1.8-.8 3.5-1.7 5.1-.9 1.6-2.2 2.9-4 4-1.8 1.1-4.3 1.6-7.5 1.6-3.6 0-6.5-.9-8.6-2.7-2.1-1.8-3.5-4.3-4.2-7.3l4.6-.8c1.1 4.5 3.8 6.7 8.2 6.7 1.6 0 3-.3 4.1-.8 1.1-.5 2-1.3 2.7-2.2.7-.9 1.2-2 1.5-3.3s.5-2.6.5-4.1V1.2h4.6V36zM162.7 25.8c0-3.7.6-7.2 1.9-10.3 1.2-3.1 3-5.9 5.2-8.2s4.9-4.1 8-5.4C180.9.6 184.4 0 188.1 0s7.2.6 10.3 1.9c3.1 1.3 5.8 3.1 8 5.4 2.2 2.3 4 5 5.2 8.2 1.2 3.1 1.9 6.6 1.9 10.3s-.6 7.2-1.9 10.4c-1.2 3.2-3 5.9-5.2 8.2-2.2 2.3-4.9 4.1-8 5.3-3.1 1.3-6.6 1.9-10.3 1.9s-7.2-.6-10.3-1.9c-3.1-1.3-5.8-3.1-8-5.3s-4-5-5.2-8.2c-1.3-3.2-1.9-6.6-1.9-10.4zm4.6 0c0 3.1.5 5.9 1.5 8.5s2.4 4.9 4.2 6.9c1.8 1.9 4 3.5 6.6 4.6 2.6 1.1 5.5 1.7 8.6 1.7s6.1-.6 8.6-1.7c2.6-1.1 4.8-2.6 6.6-4.6 1.8-1.9 3.2-4.2 4.2-6.9s1.5-5.5 1.5-8.5c0-3.1-.5-5.9-1.5-8.5-1-2.6-2.4-4.9-4.2-6.9-1.8-1.9-4-3.5-6.6-4.6-2.6-1.1-5.4-1.7-8.6-1.7s-6.1.6-8.6 1.7c-2.6 1.1-4.8 2.6-6.6 4.6-1.8 1.9-3.2 4.2-4.2 6.9-1 2.6-1.5 5.5-1.5 8.5zM262.9 31.6c0 2.6-.3 5.2-.9 7.6-.6 2.4-1.6 4.5-3 6.4-1.4 1.9-3.3 3.3-5.6 4.4-2.3 1.1-5.1 1.7-8.4 1.7-3.3 0-6.1-.6-8.4-1.7-2.3-1.1-4.1-2.6-5.6-4.4-1.4-1.9-2.4-4-3-6.4-.6-2.4-.9-4.9-.9-7.6V1.2h4.6v29.2c0 1.8.2 3.6.5 5.6s1 3.8 1.9 5.6c.9 1.7 2.3 3.1 4 4.2 1.7 1.1 4 1.7 6.9 1.7 2.9 0 5.2-.6 6.9-1.7 1.7-1.1 3.1-2.5 4-4.2.9-1.7 1.6-3.6 1.9-5.6s.5-3.9.5-5.6V1.2h4.6v30.4zM279.6 1.2h12.9c.6 0 1.5 0 2.6.1 1.1 0 2.3.2 3.6.4 1.3.2 2.6.6 4 1.1 1.3.5 2.5 1.2 3.6 2.2 1.1 1 1.9 2.2 2.6 3.7.7 1.5 1 3.3 1 5.4 0 2.4-.4 4.3-1.2 5.8-.8 1.5-1.8 2.8-3.1 3.7-1.2.9-2.6 1.7-4.1 2.1-1.5.5-2.9.8-4.2 1l14.3 23.6h-5.2L292.6 27h-8.5v23.3h-4.6V1.2zm4.6 21.7h9.7c2.4 0 4.4-.3 5.9-.9 1.5-.6 2.7-1.3 3.5-2.2.8-.9 1.4-1.8 1.7-2.8.3-1 .5-1.9.5-2.8 0-.8-.1-1.8-.5-2.8-.3-1-.9-2-1.7-2.8-.8-.9-2-1.6-3.5-2.2-1.5-.6-3.5-.9-5.9-.9h-9.7v17.4zM324.9 1.2h5.9l29.9 43h.1v-43h4.6v49.1h-5.9l-29.9-43h-.1v43h-4.6V1.2zM398.1 1.2h4.7l20.7 49.1h-5.1l-5.3-13.1h-26l-5.6 13.1h-4.8l21.4-49.1zm2.2 5l-11.5 26.9h22.6L400.3 6.2zM434.8 1.2h4.6v45h22.9v4.2h-27.5V1.2z"/></g></svg>