<svg version="1.1" id="Calque_1" xmlns="http://www.w3.org/2000/svg" x="0" y="0" viewBox="0 0 162 49.5" xml:space="preserve"><style type="text/css">.st0{fill:none}.st1{fill:#c00418}</style><path class="st0" d="M61.6 11.6c0-8 .5-10.1-4.6-10.5h-.3c-4.8.4-4.4 2.6-4.4 10.5v26.1c0 8.1-.5 10.2 4.7 10.6 5-.4 4.5-2.6 4.5-10.6V11.6z"/><path class="st1" d="M107 19.1v-7.5c0-9.1-.6-10.5 7-10.5V0H92.8v1.1c7.5 0 7 1.5 7 10.5v6.7c-10.2-.9-20.5-1.2-30.9-.9v-5.8c0-9.1-.6-10.5 6.9-10.5V0H38.2v1.1c1.9 0 3.3.1 4.3.4 3.1.8 2.8 3.3 2.8 10.2V19c-10.4 1.1-20.7 2.8-31 4.9V11.6c0-9.1-.6-10.5 7-10.5V0H0v1.1c1.6 0 2.9.1 3.9.3C7.3 2.1 7 4.5 7 11.6v26.2c0 9.1.5 10.6-7 10.6v1.1h21.2v-1.1c-7.6 0-7-1.5-7-10.6V26.3c10.4-1.8 20.7-3.2 31-4.2v15.6c0 9.1.5 10.6-7 10.6v1.1H75.8v-1.1c-7.6 0-6.9-1.5-6.9-10.6V20.9c10.4-.1 20.8.2 30.9 1.3v15.6c0 9.1.5 10.6-7 10.6v1.1H114v-1.1c-7.6 0-7-1.5-7-10.6V23c15.9 1.7 36.1 5.5 55 11.3-.3-.9-.6-1.9-.8-2.9-17.9-6.2-37.1-10.2-54.2-12.3zM57.1 48.3c-5.2-.4-4.7-2.5-4.7-10.6V11.6c0-7.9-.4-10 4.4-10.5h.3c5 .4 4.6 2.5 4.6 10.5v26.2c-.1 8 .4 10.1-4.6 10.5z"/></svg>