<?xml version="1.0" standalone="no"?>
<!DOCTYPE svg PUBLIC "-//W3C//DTD SVG 1.1//EN" "http://www.w3.org/Graphics/SVG/1.1/DTD/svg11.dtd" >
<svg>
<metadata>
Created by FontForge 20090622 at Wed Dec 16 11:57:38 2015
 By deploy user
&#194;&#169; 2010 Klim Type Foundry. All rights reserved.
</metadata>
<defs>
<font id="TiemposHeadlineMedium-Regular" horiz-adv-x="500" >
  <font-face 
    font-family="Tiempos Headline Medium"
    font-weight="600"
    font-stretch="normal"
    units-per-em="1000"
    panose-1="2 2 6 3 6 3 3 6 4 3"
    ascent="783"
    descent="-217"
    x-height="530"
    cap-height="702"
    bbox="-101 -236 1253 1040"
    underline-thickness="30"
    underline-position="-70"
    unicode-range="U+0020-U+FB04"
  />
<missing-glyph horiz-adv-x="960" 
d="M800 115v550l-275 -275zM160 665v-550l275 275zM480 435l279 279h-558zM201 66h558l-279 279zM90 780h780v-780h-780v780z" />
    <glyph glyph-name="ff" unicode="ff" horiz-adv-x="667" 
d="M404 577q0 47 14 86q-16 31 -41.5 50.5t-61.5 19.5q-92 0 -92 -130v-73h181v47zM84 552q0 54 17.5 94t48 67t71 40.5t87.5 13.5q46 0 82 -11.5t64 -32.5q28 30 68 45t89 15q66 0 98.5 -22t32.5 -63q0 -40 -34 -56h-73q2 8 3 18t1 22q0 28 -8.5 47t-33.5 19q-54 0 -54 -88
v-130h123v-46h-123v-399q0 -15 4.5 -24.5t14.5 -15t26 -8t39 -4.5v-33h-284v33q35 2 48 10t13 34v407h-181v-407q0 -26 13 -34t48 -10v-33h-262v33q35 2 48.5 10t13.5 34v407h-73v27l73 24v17z" />
    <glyph glyph-name="fi" unicode="fi" horiz-adv-x="621" 
d="M543 77q0 -26 13.5 -34t48.5 -10v-33h-262v33q35 2 48 10t13 34v407h-181v-407q0 -26 13 -34t48 -10v-33h-262v33q35 2 48.5 10t13.5 34v407h-73v27l73 24v24q0 57 18.5 99t50 70t74.5 41.5t93 13.5q75 0 116.5 -22.5t41.5 -66.5q0 -20 -10 -34t-25 -22h-83q4 16 4 39
q0 28 -12.5 49.5t-47.5 21.5q-41 0 -61 -34.5t-20 -99.5v-84h253l38 10h29v-463z" />
    <glyph glyph-name="fl" unicode="fl" horiz-adv-x="621" 
d="M543 77q0 -26 13.5 -34t48.5 -10v-33h-262v33q35 2 48 10t13 34v593q-13 32 -36.5 55.5t-63.5 23.5q-81 0 -81 -121v-98h110v-46h-110v-407q0 -26 13 -34t48 -10v-33h-262v33q35 2 48.5 10t13.5 34v407h-73v27l73 24v42q0 52 16 90.5t44 64t67 38.5t85 13q39 0 69.5 -8
t54.5 -22l101 30h22v-706z" />
    <glyph glyph-name="ffi" unicode="ffi" horiz-adv-x="941" 
d="M404 559q0 54 17 96q-15 34 -41.5 56t-64.5 22q-92 0 -92 -130v-73h181v29zM84 552q0 54 17.5 94t48 67t71 40.5t87.5 13.5q49 0 86.5 -13t66.5 -36q32 33 78.5 49t100.5 16q75 0 116.5 -22.5t41.5 -66.5q0 -20 -10 -34t-25 -22h-83q4 16 4 39q0 28 -12.5 49.5
t-47.5 21.5q-41 0 -61 -34.5t-20 -99.5v-84h253l38 10h29v-463q0 -26 13.5 -34t48.5 -10v-33h-262v33q35 2 48 10t13 34v407h-181v-407q0 -26 13.5 -34t48.5 -10v-33h-262v33q35 2 48 10t13 34v407h-181v-407q0 -26 13 -34t48 -10v-33h-262v33q35 2 48.5 10t13.5 34v407h-73
v27l73 24v17z" />
    <glyph glyph-name="ffl" unicode="ffl" horiz-adv-x="941" 
d="M404 577q0 48 14 85q-16 32 -41.5 51.5t-61.5 19.5q-92 0 -92 -130v-73h181v47zM308 767q46 0 82 -11.5t65 -32.5q29 30 69.5 45t91.5 15q39 0 69.5 -8t54.5 -22l101 30h22v-706q0 -26 13.5 -34t48.5 -10v-33h-262v33q35 2 48 10t13 34v593q-13 32 -36.5 55.5t-63.5 23.5
q-81 0 -81 -121v-98h110v-46h-110v-407q0 -26 13 -34t48 -10v-33h-261v33q35 2 48 10t13 34v407h-181v-407q0 -26 13 -34t48 -10v-33h-262v33q35 2 48.5 10t13.5 34v407h-73v27l73 24v17q0 54 17.5 94t48 67t71 40.5t87.5 13.5z" />
    <glyph glyph-name=".notdef" horiz-adv-x="960" 
d="M800 115v550l-275 -275zM160 665v-550l275 275zM480 435l279 279h-558zM201 66h558l-279 279zM90 780h780v-780h-780v780z" />
    <glyph glyph-name=".null" horiz-adv-x="0" 
 />
    <glyph glyph-name="nonmarkingreturn" horiz-adv-x="333" 
 />
    <glyph glyph-name="space" unicode=" " horiz-adv-x="191" 
 />
    <glyph glyph-name="exclam" unicode="!" horiz-adv-x="266" 
d="M114 219l-67 483h172l-67 -483h-38zM50 73q0 18 6.5 33.5t18 27t26.5 18t32 6.5t32 -6.5t26.5 -18t18 -27t6.5 -33.5q0 -34 -24 -58.5t-59 -24.5q-34 0 -58.5 24.5t-24.5 58.5z" />
    <glyph glyph-name="quotedbl" unicode="&#x22;" horiz-adv-x="313" 
d="M226 473l-36 134l-12 49q-6 27 -6 45q0 26 14.5 45t45.5 19q30 0 44.5 -19t14.5 -45q0 -18 -6 -45t-12 -49l-36 -134h-11zM75 473l-35 134q-6 22 -12 49t-6 45q0 26 14.5 45t44.5 19q31 0 45 -19t14 -45q0 -18 -6 -45t-12 -49l-35 -134h-12z" />
    <glyph glyph-name="numbersign" unicode="#" horiz-adv-x="536" 
d="M172 270h140l55 176h-140zM346 232l-76 -241l-42 13l72 228h-140l-76 -241l-43 13l72 228h-91v38h103l56 176h-107v39h120l72 228l42 -13l-68 -215h140l72 228l42 -13l-68 -215h88v-39h-101l-55 -176h104v-38h-116z" />
    <glyph glyph-name="dollar" unicode="$" horiz-adv-x="545" 
d="M150 565q0 -25 6 -43t19.5 -32.5t35 -27t52.5 -24.5l40 230q-16 4 -37 4q-54 0 -85 -29.5t-31 -77.5zM391 143q0 25 -6.5 44t-21 34.5t-37 28.5t-55.5 27l-43 -245q8 -1 15 -1.5t15 -0.5q61 0 97 30.5t36 82.5zM258 -10q-10 0 -19 0.5t-18 1.5l-18 -105h-35l19 109
q-48 7 -87 23t-64 37l-9 171h42q14 -69 45.5 -117.5t80.5 -68.5l43 249q-6 1 -11 4q-45 15 -80.5 33.5t-61 43t-39 57.5t-13.5 77q0 46 16.5 84t47.5 65.5t73.5 42.5t95.5 15q11 0 22 -0.5t22 -1.5l18 99h36l-18 -104q76 -15 128 -52v-149h-37q-11 57 -35.5 96t-64.5 57
l-40 -231q50 -18 90 -38t67.5 -45.5t42.5 -59.5t15 -81q0 -53 -20 -92.5t-54.5 -66t-81 -40t-98.5 -13.5z" />
    <glyph glyph-name="percent" unicode="%" horiz-adv-x="767" 
d="M643 160q0 28 -4 53.5t-13 45t-23.5 30.5t-35.5 11t-35 -11t-23 -30.5t-13 -45t-4 -53.5q0 -29 4 -54.5t13 -44t23 -29.5t35 -11t35.5 11t23.5 29.5t13 44t4 54.5zM735 160q0 -41 -13.5 -72.5t-37 -53.5t-54 -33t-63.5 -11t-63 11t-53.5 33t-37 53.5t-13.5 72.5
t13.5 72.5t37 53.5t53.5 33t63 11t63.5 -11t54 -33t37 -53.5t13.5 -72.5zM580 712h46l-439 -722h-46zM125 542q0 -29 4 -54t13 -44.5t23 -30.5t35 -11t35 11t23 30.5t13 44.5t4 54t-4 54.5t-13 44t-23 29.5t-35 11t-35 -11t-23 -29.5t-13 -44t-4 -54.5zM32 542
q0 41 13.5 72.5t37 53.5t54 33t63.5 11t63.5 -11t54 -33t37 -53.5t13.5 -72.5t-13.5 -72.5t-37 -53.5t-54 -33t-63.5 -11t-63.5 11t-54 33t-37 53.5t-13.5 72.5z" />
    <glyph glyph-name="ampersand" unicode="&#x26;" horiz-adv-x="701" 
d="M218 579q0 -27 8 -48.5t20 -40t26 -34.5l28 -30l9 -11q49 26 66.5 64t17.5 89q0 21 -5 40.5t-16 34.5t-27.5 24t-40.5 9q-40 0 -63 -26t-23 -71zM306 53q32 0 61 8.5t55 24.5l-15 17l-216 243q-31 -22 -43 -55.5t-12 -70.5q0 -77 46.5 -122t123.5 -45zM10 181
q0 74 43 119.5t117 69.5v1q-11 12 -23 28.5t-22 37t-16.5 44t-6.5 50.5q0 42 15 76t42 57t64.5 35.5t83.5 12.5q44 0 80 -11.5t61 -31.5t38.5 -48t13.5 -61q0 -65 -45.5 -105t-125.5 -63l183 -207q13 25 20 53t7 57q0 35 -20.5 46t-59.5 12v35h229v-35q-25 0 -43 -3.5
t-30 -11.5t-19 -21.5t-11 -35.5q-14 -68 -47 -126l48 -54q28 -33 51.5 -48.5t55.5 -17.5v-35h-175q-20 13 -36 26.5t-32 29.5q-42 -31 -92.5 -48.5t-110.5 -17.5q-46 0 -89 12t-76 35.5t-52.5 59.5t-19.5 84z" />
    <glyph glyph-name="quotesingle" unicode="'" horiz-adv-x="162" 
d="M75 473l-35 134q-6 22 -12 49t-6 45q0 26 14.5 45t44.5 19q31 0 45 -19t14 -45q0 -18 -6 -45t-12 -49l-35 -134h-12z" />
    <glyph glyph-name="parenleft" unicode="(" horiz-adv-x="355" 
d="M60 314q0 128 57.5 245t164.5 211h47q-45 -51 -75.5 -106.5t-49 -113.5t-26.5 -117.5t-8 -118.5t8 -118.5t26.5 -117.5t49 -113.5t75.5 -106.5h-47q-107 94 -164.5 211t-57.5 245z" />
    <glyph glyph-name="parenright" unicode=")" horiz-adv-x="355" 
d="M295 314q0 -128 -57.5 -245t-164.5 -211h-47q45 51 75.5 106.5t48.5 113.5t26 117.5t8 118.5t-8 118.5t-26 117.5t-48.5 113.5t-75.5 106.5h47q107 -94 164.5 -211t57.5 -245z" />
    <glyph glyph-name="asterisk" unicode="*" horiz-adv-x="423" 
d="M223 574l127 -41q26 -8 33.5 -24t-1.5 -33q-10 -17 -28 -18.5t-38 17.5l-99 89l29 -130q6 -26 -4.5 -41t-29.5 -15q-20 0 -30.5 15t-3.5 41l28 130l-99 -89q-19 -19 -37.5 -17.5t-28.5 18.5q-9 17 -1.5 33t33.5 24l126 41l-126 41q-26 8 -33.5 24.5t1.5 33.5
q10 16 28.5 17.5t37.5 -16.5l99 -90l-28 131q-7 26 3.5 40.5t30.5 14.5q19 0 29.5 -14.5t4.5 -40.5l-29 -131l99 90q20 18 38 16.5t28 -17.5q9 -17 1.5 -33.5t-33.5 -24.5z" />
    <glyph glyph-name="plus" unicode="+" horiz-adv-x="569" 
d="M314 590v-190h191v-60h-191v-190h-60v190h-190v60h190v190h60z" />
    <glyph glyph-name="comma" unicode="," horiz-adv-x="233" 
d="M97 3q-26 5 -43 22.5t-17 49.5q0 35 23 55.5t57 20.5q41 0 64 -29t23 -75q0 -72 -44.5 -116t-129.5 -49v32q45 8 72.5 28.5t32.5 60.5h-38z" />
    <glyph glyph-name="hyphen" unicode="-" horiz-adv-x="320" 
d="M30 273v63h260v-63h-260z" />
    <glyph glyph-name="period" unicode="." horiz-adv-x="233" 
d="M30 77q0 37 25.5 62t61.5 25t61 -25t25 -62q0 -38 -25 -62.5t-61 -24.5t-61.5 24.5t-25.5 62.5z" />
    <glyph glyph-name="slash" unicode="/" horiz-adv-x="369" 
d="M63 -141h-59l288 911h59z" />
    <glyph glyph-name="zero" unicode="0" horiz-adv-x="636" 
d="M318 -10q-65 0 -118.5 26t-91 73.5t-58 114t-20.5 147.5t20.5 147.5t58 114t91 73.5t118.5 26t118.5 -26t91.5 -73.5t58.5 -114t20.5 -147.5t-20.5 -147.5t-58.5 -114t-91.5 -73.5t-118.5 -26zM318 26q39 0 64.5 27.5t40.5 72.5t20.5 103.5t5.5 121.5t-5.5 121.5
t-20.5 103.5t-40.5 72.5t-64.5 27.5t-64.5 -27.5t-40.5 -72.5t-20.5 -103.5t-5.5 -121.5t5.5 -121.5t20.5 -103.5t40.5 -72.5t64.5 -27.5z" />
    <glyph glyph-name="one" unicode="1" horiz-adv-x="396" 
d="M25 0v35q37 2 58.5 5t32.5 11t13.5 21.5t2.5 36.5v450h-108v32l43 8q34 6 60.5 14.5t48 22t39 31.5t34.5 44h31v-602q0 -23 3 -36.5t13.5 -21t30.5 -11t55 -5.5v-35h-357z" />
    <glyph glyph-name="two" unicode="2" horiz-adv-x="533" 
d="M325 122q28 0 48.5 2.5t37 12.5t32 30t34.5 56h28l-32 -223h-469v27l184 186q40 40 67.5 74t44.5 65t25 61.5t8 64.5q0 60 -32 95.5t-95 35.5q-50 0 -88 -23t-64 -56l-25 16q17 32 39.5 62t52.5 53t68 37t86 14q94 0 147 -49t53 -134q0 -58 -32 -111.5t-80.5 -104
t-106.5 -98.5l-112 -93h181z" />
    <glyph glyph-name="three" unicode="3" horiz-adv-x="520" 
d="M286 402q47 -3 86 -18.5t66.5 -41t43 -60t15.5 -74.5q0 -53 -21 -93.5t-56 -68.5t-81.5 -42t-97.5 -14q-58 0 -102 11.5t-74 31t-45 45.5t-15 54q0 29 14 49t31 28h88q-5 -12 -7 -25.5t-2 -32.5q0 -55 30 -90.5t84 -35.5q57 0 86.5 40.5t29.5 105.5q0 78 -49 121.5
t-130 43.5h-27l-8 26q40 14 72 29t53.5 33t33 40.5t11.5 52.5q0 45 -26 72.5t-78 27.5q-46 0 -80 -19.5t-61 -54.5l-21 17q31 66 86.5 109t141.5 43q79 0 127 -39.5t48 -108.5q0 -37 -16 -65t-40 -47.5t-53.5 -31.5t-56.5 -18z" />
    <glyph glyph-name="four" unicode="4" horiz-adv-x="605" 
d="M322 190h-314v27l357 485h100v-468h118v-44h-118v-89q0 -21 3 -33.5t12 -19.5t25 -10.5t43 -6.5v-31h-310v31q27 3 43.5 6.5t25.5 10.5t12 19.5t3 33.5v89zM322 234v335l-249 -335h249z" />
    <glyph glyph-name="five" unicode="5" horiz-adv-x="512" 
d="M144 575l-19 -116q83 0 150 -14t114 -43.5t72.5 -75.5t25.5 -110q0 -53 -18.5 -94.5t-51.5 -71t-78 -45t-98 -15.5q-57 0 -100 11t-72 30.5t-44 44.5t-15 54q0 28 14 48.5t33 30.5h85q-3 -12 -5.5 -26.5t-2.5 -31.5q0 -58 27.5 -92t84.5 -34t91.5 35.5t34.5 97.5
q0 89 -78 133.5t-230 45.5l60 365h252q13 0 22 1t16 5.5t13 13t14 23.5h30l-27 -170h-300z" />
    <glyph glyph-name="six" unicode="6" horiz-adv-x="582" 
d="M273 385q-27 0 -51 -7t-41 -17q-3 -30 -3 -62q0 -61 8.5 -111t25.5 -86t41.5 -55.5t56.5 -19.5q56 0 84 46.5t28 120.5q0 41 -9 76t-28 60.5t-47 40t-65 14.5zM465 687q-131 -31 -198 -110t-83 -191q25 23 68 43t102 20q43 0 80 -14t64 -41t42 -65.5t15 -87.5
q0 -58 -19.5 -104.5t-53 -79t-79.5 -50t-99 -17.5q-65 0 -116 23t-86 63.5t-53 96t-18 121.5q0 81 28 153t81.5 127.5t130.5 91.5t176 45z" />
    <glyph glyph-name="seven" unicode="7" horiz-adv-x="498" 
d="M141 564q-36 0 -55.5 -20.5t-38.5 -68.5h-35l44 227h439v-34l-284 -668h-106l304 564h-268z" />
    <glyph glyph-name="eight" unicode="8" horiz-adv-x="561" 
d="M330 418q32 23 50.5 53.5t18.5 77.5q0 56 -31 92t-90 36q-52 0 -83 -29.5t-31 -77.5q0 -23 6 -40t17.5 -29.5t27.5 -23t37 -20.5zM208 316q-40 -28 -55.5 -62.5t-15.5 -76.5q0 -68 38.5 -110t104.5 -42q62 0 99 31t37 91q0 45 -25.5 70.5t-67.5 44.5zM501 548
q0 -30 -12.5 -54t-33.5 -42t-47.5 -29.5t-54.5 -16.5l35 -16q70 -32 107.5 -77.5t37.5 -115.5q0 -46 -17 -84t-49.5 -65.5t-80 -42.5t-107.5 -15q-57 0 -103.5 12.5t-80 35.5t-51.5 55.5t-18 73.5q0 32 12.5 58t34.5 46t50.5 33.5t61.5 21.5l-20 10q-49 23 -82.5 66.5
t-33.5 112.5q0 43 16.5 79t46.5 62.5t72.5 41t94.5 14.5q104 0 163 -44t59 -120z" />
    <glyph glyph-name="nine" unicode="9" horiz-adv-x="582" 
d="M309 317q26 0 50 6.5t42 16.5q3 30 3 63q0 61 -8.5 111t-25.5 86t-41.5 55.5t-56.5 19.5q-56 0 -84 -46.5t-28 -120.5q0 -41 9 -76t28 -60.5t46.5 -40t65.5 -14.5zM117 15q66 15 115 43t83 66.5t54.5 86.5t28.5 104q-26 -22 -68.5 -42t-101.5 -20q-43 0 -80 14t-64 41
t-42 65.5t-15 87.5q0 58 19 104.5t53 79t80 50t99 17.5q65 0 116 -23t86 -63.5t53 -96t18 -121.5q0 -81 -28 -153t-81.5 -127.5t-130.5 -91.5t-176 -45z" />
    <glyph glyph-name="colon" unicode=":" horiz-adv-x="233" 
d="M30 402q0 37 25.5 62t61.5 25t61 -25t25 -62q0 -38 -25 -62.5t-61 -24.5t-61.5 24.5t-25.5 62.5zM30 77q0 37 25.5 62t61.5 25t61 -25t25 -62q0 -38 -25 -62.5t-61 -24.5t-61.5 24.5t-25.5 62.5z" />
    <glyph glyph-name="semicolon" unicode=";" horiz-adv-x="233" 
d="M30 402q0 37 25.5 62t61.5 25t61 -25t25 -62q0 -38 -25 -62.5t-61 -24.5t-61.5 24.5t-25.5 62.5zM97 3q-26 5 -43 22.5t-17 49.5q0 35 23 55.5t57 20.5q41 0 64 -29t23 -75q0 -72 -44.5 -116t-129.5 -49v32q45 8 72.5 28.5t32.5 60.5h-38z" />
    <glyph glyph-name="less" unicode="&#x3c;" horiz-adv-x="419" 
d="M42 373l313 192v-72l-210 -124l210 -125v-71l-313 191v9z" />
    <glyph glyph-name="equal" unicode="=" horiz-adv-x="579" 
d="M69 471h441v-60h-441v60zM69 328h441v-58h-441v58z" />
    <glyph glyph-name="greater" unicode="&#x3e;" horiz-adv-x="419" 
d="M378 364l-314 -191v71l210 125l-210 124v72l314 -192v-9z" />
    <glyph glyph-name="question" unicode="?" horiz-adv-x="446" 
d="M125 73q0 18 6.5 33.5t17.5 27t26.5 18t32.5 6.5t32 -6.5t26.5 -18t18 -27t6.5 -33.5q0 -34 -24 -58.5t-59 -24.5t-59 24.5t-24 58.5zM312 586q0 44 -22.5 69.5t-64.5 25.5q-23 0 -39.5 -8.5t-27 -23t-15.5 -33.5t-5 -39q0 -9 1 -27t2 -24h-92q-31 20 -31 57
q0 29 15.5 52.5t42.5 40.5t64.5 26.5t82.5 9.5q96 0 151.5 -42.5t55.5 -126.5q0 -32 -10.5 -58t-29 -48.5t-44 -43t-55.5 -40.5q-21 -14 -35.5 -26.5t-24 -26t-14 -29.5t-4.5 -36v-23h-17q-22 14 -39 41.5t-17 62.5q0 39 19.5 70.5t60.5 63.5l36 28q17 14 29.5 30t19.5 35
t7 43z" />
    <glyph glyph-name="at" unicode="@" horiz-adv-x="867" 
d="M363 146q22 0 46 23t47 62t43.5 91t34.5 111q-8 17 -23 25.5t-32 8.5q-33 0 -61.5 -25t-49.5 -63t-32.5 -83.5t-11.5 -85.5q0 -28 9.5 -46t29.5 -18zM597 76q-39 0 -63 14t-35.5 38t-12.5 56t7 67q-19 -38 -39 -70t-41.5 -55.5t-46 -36.5t-51.5 -13q-43 0 -70.5 33.5
t-27.5 94.5q0 53 20.5 105.5t55 94.5t80 68t96.5 26q32 0 56 -11t38 -27l70 35h27l-30 -89l-53 -202q-5 -18 -6.5 -35t1.5 -30.5t11.5 -22t25.5 -8.5q35 0 63 22t47.5 58.5t29.5 85t10 101.5q0 59 -18 110t-53 89t-86.5 60t-119.5 22q-85 0 -153.5 -34.5t-116.5 -93
t-74 -134.5t-26 -159q0 -76 24 -135t66.5 -99.5t101.5 -61.5t128 -21q42 0 77.5 4.5t68 13.5t63 23t63.5 33l11 -17q-54 -45 -130 -73t-167 -28q-83 0 -153.5 24t-121.5 70t-80 113t-29 153q0 90 33 172.5t92.5 145.5t141.5 100.5t181 37.5q83 0 148 -24t110 -66t69 -100
t24 -125q0 -65 -19 -119.5t-51 -94.5t-75 -62.5t-91 -22.5z" />
    <glyph glyph-name="A" unicode="A" horiz-adv-x="728" 
d="M193 274h236l-120 301zM446 231h-269l-43 -112q-9 -23 -9 -39q0 -24 20 -33.5t66 -11.5v-35h-206v35q21 3 36 10t23 27l218 560l-31 75h156l257 -635q8 -20 23.5 -27t35.5 -10v-35h-306v35q45 2 64.5 11t19.5 33q0 16 -9 39z" />
    <glyph glyph-name="B" unicode="B" horiz-adv-x="662" 
d="M27 0v35q26 3 42 6.5t24.5 10.5t11 19t2.5 33v494q0 21 -2.5 33t-11 19t-24.5 10.5t-42 6.5v35h323q116 0 178.5 -43.5t62.5 -130.5q0 -38 -16 -67t-42.5 -49t-60 -32t-69.5 -16q50 -2 92 -14t72 -34.5t47 -54.5t17 -72q0 -91 -67 -140t-198 -49h-339zM254 662v-278h49
q145 0 145 142q0 67 -38 101.5t-108 34.5h-48zM254 340v-232q0 -41 19 -54.5t64 -13.5h10q68 0 103 38t35 113q0 67 -39 108t-123 41h-69z" />
    <glyph glyph-name="C" unicode="C" horiz-adv-x="656" 
d="M383 712q67 0 122.5 -15.5t98.5 -43.5l1 -161h-38q-18 88 -62.5 133t-117.5 45q-52 0 -90 -24t-63 -66t-37 -98t-12 -120q0 -70 13.5 -130t40.5 -104.5t66.5 -69.5t90.5 -25q71 0 119 47.5t74 157.5h40l-15 -188q-45 -29 -102.5 -44.5t-128.5 -15.5q-82 0 -147.5 24.5
t-111 69.5t-70 108.5t-24.5 141.5q0 87 27.5 157t75 119t112 75.5t138.5 26.5z" />
    <glyph glyph-name="D" unicode="D" horiz-adv-x="749" 
d="M27 0v35q26 3 42 6.5t24.5 10.5t11 19t2.5 33v494q0 21 -2.5 33t-11 19t-24.5 10.5t-42 6.5v35h307q99 0 172 -26.5t120 -72.5t70 -107.5t23 -130.5q0 -87 -27 -154.5t-76 -114.5t-116 -71.5t-147 -24.5h-326zM254 662v-551q0 -44 19 -57.5t59 -13.5h18q47 0 86.5 20.5
t68 59.5t44 95.5t15.5 128.5q0 67 -15 125t-46.5 101t-80 67.5t-114.5 24.5h-54z" />
    <glyph glyph-name="E" unicode="E" horiz-adv-x="635" 
d="M27 35q26 3 42 6.5t24.5 10.5t11 19t2.5 33v494q0 21 -2.5 33t-11 19t-24.5 10.5t-42 6.5v35h549l5 -180h-29q-18 41 -34 68t-33.5 43t-39 22.5t-51.5 6.5h-140v-278h127q33 0 47 22t22 70h35v-227h-35q-8 48 -22 69.5t-47 21.5h-127v-232q0 -41 21 -54.5t68 -13.5h62
q30 0 52 8.5t41 27t38.5 49t44.5 75.5h35l-31 -200h-558v35z" />
    <glyph glyph-name="F" unicode="F" horiz-adv-x="589" 
d="M254 111q0 -21 5.5 -34.5t19.5 -22t37 -12.5t58 -6v-36h-347v35q26 3 42 6.5t24.5 10.5t11 19t2.5 33v494q0 21 -2.5 33t-11 19t-24.5 10.5t-42 6.5v35h535l5 -186h-28q-17 42 -33 70t-34 45t-40 24t-52 7h-126v-286h112q33 0 46.5 22.5t20.5 70.5h35v-231h-35
q-7 48 -20.5 70.5t-46.5 22.5h-112v-220z" />
    <glyph glyph-name="G" unicode="G" horiz-adv-x="720" 
d="M493 225q0 21 -2.5 33t-11 19.5t-24 11t-42.5 6.5v34h298v-34q-26 -3 -42 -6.5t-24.5 -11t-11 -19.5t-2.5 -33v-166q-49 -32 -113 -50.5t-142 -18.5q-83 0 -147.5 26.5t-108.5 73t-67 109t-23 135.5q0 87 27.5 157t76 119t114 75.5t141.5 26.5q134 0 223 -58l1 -162h-38
q-18 88 -62.5 133.5t-119.5 45.5q-54 0 -93.5 -24.5t-65 -66.5t-37.5 -98.5t-12 -120.5q0 -65 12.5 -124.5t38.5 -105t65 -72.5t93 -27q29 0 54 5.5t45 21.5v166z" />
    <glyph glyph-name="H" unicode="H" horiz-adv-x="808" 
d="M254 383h301v215q0 21 -2.5 33t-11 19t-24.5 10.5t-42 6.5v35h306v-35q-26 -3 -42 -6.5t-24.5 -10.5t-11 -19t-2.5 -33v-494q0 -21 2.5 -33t11 -19t24.5 -10.5t42 -6.5v-35h-306v35q26 3 42 6.5t24.5 10.5t11 19t2.5 33v231h-301v-231q0 -21 2.5 -33t11 -19t24.5 -10.5
t42 -6.5v-35h-307v35q26 3 42 6.5t24.5 10.5t11 19t2.5 33v494q0 21 -2.5 33t-11 19t-24.5 10.5t-42 6.5v35h307v-35q-26 -3 -42 -6.5t-24.5 -10.5t-11 -19t-2.5 -33v-215z" />
    <glyph glyph-name="I" unicode="I" horiz-adv-x="361" 
d="M254 104q0 -21 2.5 -33t11 -19t24.5 -10.5t42 -6.5v-35h-307v35q26 3 42 6.5t24.5 10.5t11 19t2.5 33v494q0 21 -2.5 33t-11 19t-24.5 10.5t-42 6.5v35h307v-35q-26 -3 -42 -6.5t-24.5 -10.5t-11 -19t-2.5 -33v-494z" />
    <glyph glyph-name="J" unicode="J" horiz-adv-x="532" 
d="M289 598q0 21 -2.5 33t-11 19t-24.5 10.5t-42 6.5v35h306v-35q-26 -3 -42 -6.5t-24.5 -10.5t-11 -19t-2.5 -33v-385q0 -114 -62 -168.5t-172 -54.5q-97 0 -152 35.5t-55 102.5q0 26 11 46t29 31h97l-4 -31q-2 -15 -2 -32q0 -54 20 -85t61 -31q44 0 63.5 34.5t19.5 106.5
v431z" />
    <glyph glyph-name="K" unicode="K" horiz-adv-x="716" 
d="M254 104q0 -21 2.5 -33t11 -19t24.5 -10.5t42 -6.5v-35h-307v35q26 3 42 6.5t24.5 10.5t11 19t2.5 33v494q0 21 -2.5 33t-11 19t-24.5 10.5t-42 6.5v35h307v-35q-26 -3 -42 -6.5t-24.5 -10.5t-11 -19t-2.5 -33v-494zM607 107q15 -20 26.5 -33.5t23.5 -21.5t26 -12t33 -5
v-35h-191q-22 18 -44.5 45t-42.5 56l-173 244l244 254q11 11 18 21t7 21q0 13 -15 18.5t-59 7.5v35h224v-35q-32 -2 -50 -11.5t-40 -32.5l-203 -214z" />
    <glyph glyph-name="L" unicode="L" horiz-adv-x="614" 
d="M254 108q0 -41 20 -54.5t67 -13.5h43q28 0 50 9.5t42.5 30.5t41.5 55t48 82h35l-35 -217h-539v35q26 3 42 6.5t24.5 10.5t11 19t2.5 33v494q0 21 -2.5 33t-11 19t-24.5 10.5t-42 6.5v35h307v-35q-26 -3 -42 -6.5t-24.5 -10.5t-11 -19t-2.5 -33v-490z" />
    <glyph glyph-name="M" unicode="M" horiz-adv-x="937" 
d="M643 537l-192 -537h-50l-202 537l-51 -414q-1 -5 -1.5 -13.5t-0.5 -10.5q0 -18 4.5 -30t15.5 -18.5t29.5 -10t45.5 -5.5v-35h-231v35q21 1 36 4t25 10t15 18t7 28l62 499q0 40 -17.5 55.5t-67.5 17.5v35h226q2 -17 6 -30.5t10 -30.5l163 -436l152 437q6 17 10 30t6 30
h223v-35q-48 -2 -66 -17.5t-18 -55.5l62 -499q5 -36 22.5 -47t59.5 -13v-35h-325v35q26 2 44 5.5t29 10t16 18.5t5 30q0 2 -0.5 10.5t-1.5 13.5z" />
    <glyph glyph-name="N" unicode="N" horiz-adv-x="747" 
d="M596 597q0 20 -4 32.5t-15 20t-30.5 11t-50.5 6.5v35h233v-35q-26 -3 -42 -6.5t-24.5 -11t-11 -20t-2.5 -32.5v-599h-49l-438 553v-446q0 -20 4 -32.5t15 -20t30 -11t50 -6.5v-35h-233v35q27 3 42.5 6.5t24 11t11 20t2.5 32.5v500q-11 16 -20 27.5t-18 19t-19 11t-24 4.5
v35h205l364 -463v358z" />
    <glyph glyph-name="O" unicode="O" horiz-adv-x="722" 
d="M355 -10q-80 0 -140.5 28.5t-101.5 76t-62 110.5t-21 132q0 86 25.5 155.5t71 118t107 75t133.5 26.5q79 0 139.5 -28.5t102 -76t62.5 -110.5t21 -132q0 -86 -25.5 -155.5t-71 -118t-107 -75t-133.5 -26.5zM365 31q44 0 76 26.5t53 70t31 100t10 117.5q0 63 -10.5 121.5
t-32 104t-55.5 73t-81 27.5q-44 0 -76 -26.5t-53 -70t-31 -100t-10 -117.5q0 -63 10.5 -121.5t32 -104t55.5 -73t81 -27.5z" />
    <glyph glyph-name="P" unicode="P" horiz-adv-x="626" 
d="M254 322h43q84 0 123 44.5t39 124.5q0 75 -40.5 123t-121.5 48h-43v-340zM254 111q0 -21 5.5 -34.5t19.5 -22t37 -12.5t58 -6v-36h-347v35q26 3 42 6.5t24.5 10.5t11 19t2.5 33v494q0 21 -2.5 33t-11 19t-24.5 10.5t-42 6.5v35h306q70 0 122 -16.5t86.5 -45t51 -66
t16.5 -80.5q0 -98 -69 -156.5t-209 -58.5h-77v-168z" />
    <glyph glyph-name="Q" unicode="Q" horiz-adv-x="722" 
d="M365 31q44 0 76 26.5t53 70t31 100t10 117.5q0 63 -10.5 121.5t-32 104t-55.5 73t-81 27.5q-44 0 -76 -26.5t-53 -70t-31 -100t-10 -117.5q0 -63 10.5 -121.5t32 -104t55.5 -73t81 -27.5zM318 -8q-71 6 -124.5 36.5t-90 77.5t-55 106.5t-18.5 124.5q0 86 25.5 155.5
t71 118t107 75t133.5 26.5q79 0 139.5 -28.5t102 -76t62.5 -110.5t21 -132q0 -74 -19 -135t-53 -108t-81 -78.5t-104 -44.5l71 -61q31 -27 62 -47.5t75 -22.5v-14q-18 -13 -44 -24.5t-65 -11.5q-42 0 -83 22t-79 75z" />
    <glyph glyph-name="R" unicode="R" horiz-adv-x="718" 
d="M254 104q0 -21 2.5 -33t11 -19t24.5 -10.5t42 -6.5v-35h-307v35q26 3 42 6.5t24.5 10.5t11 19t2.5 33v494q0 21 -2.5 33t-11 19t-24.5 10.5t-42 6.5v35h319q125 0 193.5 -53.5t68.5 -141.5q0 -41 -15 -72.5t-38.5 -54t-52.5 -37t-57 -21.5l151 -205q17 -23 31 -38.5
t27.5 -25t28.5 -14t35 -4.5v-35h-190q-22 16 -41.5 40t-42.5 58l-138 202h-52v-196zM254 661v-319h48q79 0 118 43t39 121q0 34 -10 62.5t-30 49t-49.5 32t-69.5 11.5h-46z" />
    <glyph glyph-name="S" unicode="S" horiz-adv-x="550" 
d="M261 -10q-72 0 -130 19t-92 47l-9 171h42q18 -90 65.5 -143.5t123.5 -53.5q61 0 96.5 30.5t35.5 82.5q0 28 -8.5 48.5t-28 37.5t-50.5 31.5t-76 31.5q-44 15 -80 34t-61.5 44t-39 58t-13.5 77q0 46 16.5 84t47.5 65.5t73.5 42.5t95.5 15q63 0 117 -16t91 -43v-149h-37
q-14 80 -56.5 124t-114.5 44q-53 0 -83.5 -29t-30.5 -77q0 -26 7.5 -45.5t25 -35t45 -29t67.5 -28.5q50 -18 90 -38t67.5 -46t42.5 -60.5t15 -81.5q0 -53 -20 -92.5t-54.5 -66t-81 -40t-98.5 -13.5z" />
    <glyph glyph-name="T" unicode="T" horiz-adv-x="675" 
d="M646 702l15 -231h-32q-24 56 -42 93.5t-35.5 60t-38 32t-49.5 9.5h-53v-565q0 -21 4.5 -32.5t15 -18t27.5 -9.5t43 -6v-35h-326v35q25 3 42.5 6t28 9.5t15 18t4.5 32.5v565h-53q-29 0 -49.5 -9.5t-38 -32t-36 -60t-42.5 -93.5h-32l15 231h617z" />
    <glyph glyph-name="U" unicode="U" horiz-adv-x="733" 
d="M238 254q0 -92 40 -144t123 -52q41 0 75.5 11.5t59 35.5t38 62.5t13.5 92.5v337q0 20 -3.5 32.5t-13.5 20t-28.5 11t-49.5 6.5v35h229v-35q-26 -3 -42 -6.5t-24.5 -11t-11 -20t-2.5 -32.5v-355q0 -65 -21 -112t-57 -78.5t-84.5 -46.5t-103.5 -15q-133 0 -208 62.5
t-75 191.5v354q0 21 -2.5 33t-11 19t-24.5 10.5t-42 6.5v35h306v-35q-26 -3 -42 -6.5t-24.5 -10.5t-11 -19t-2.5 -33v-344z" />
    <glyph glyph-name="V" unicode="V" horiz-adv-x="710" 
d="M573 583q10 25 10 40q0 23 -17 32.5t-64 11.5v35h203v-35q-22 -3 -36.5 -10t-22.5 -27l-257 -636h-38l-287 636q-10 21 -24 27.5t-35 9.5v35h308v-35q-48 -2 -65 -11t-17 -32q0 -16 11 -41l178 -395z" />
    <glyph glyph-name="W" unicode="W" horiz-adv-x="964" 
d="M494 400l-148 -406h-48l-234 636q-7 19 -23 26.5t-36 10.5v35h293v-35q-40 -2 -56 -11t-16 -29q0 -11 3.5 -22.5t8.5 -25.5l137 -383l97 269l-55 165q-7 20 -20.5 27t-34.5 10v35h288v-35q-45 -1 -62.5 -10.5t-17.5 -32.5q0 -11 3 -22.5t8 -28.5l122 -372l126 374
q5 14 8.5 25t3.5 22q0 22 -17.5 32.5t-62.5 12.5v35h198v-35q-20 -3 -35.5 -10t-22.5 -27l-222 -636h-48z" />
    <glyph glyph-name="X" unicode="X" horiz-adv-x="713" 
d="M315 302l-144 -192q-18 -25 -18 -41q0 -17 22 -25t60 -9v-35h-230v35q29 2 46 10.5t34 31.5l204 264l-189 284q-14 22 -33 31t-43 11v35h316v-35q-36 0 -53.5 -5t-17.5 -22q0 -18 24 -52l100 -151l116 155q19 26 19 44q0 17 -19 24t-54 7v35h219v-35q-29 -2 -47.5 -11.5
t-33.5 -30.5l-174 -229l210 -315q16 -24 34.5 -34t44.5 -12v-35h-323v35q38 0 58 5.5t20 25.5q0 9 -5 19.5t-16 26.5z" />
    <glyph glyph-name="Y" unicode="Y" horiz-adv-x="666" 
d="M407 101q0 -21 4.5 -32.5t15 -18t27.5 -9.5t42 -6v-35h-321v35q25 3 42.5 6t28 9.5t15 18t4.5 32.5v169l-201 360q-11 20 -24.5 27t-34.5 10v35h301v-35q-46 -2 -62 -9t-16 -27q0 -14 6 -26l15 -29l139 -243l130 241q7 14 14 29.5t7 27.5q0 20 -18 27t-61 9v35h201v-35
q-21 -3 -35 -10.5t-24 -26.5l-195 -358v-171z" />
    <glyph glyph-name="Z" unicode="Z" horiz-adv-x="607" 
d="M365 40q31 0 54 8t43.5 28.5t42 54t50.5 84.5h34l-35 -215h-536v26l378 636h-166q-32 0 -53 -8t-37.5 -27t-31.5 -50l-34 -76h-33l8 201h521v-26l-376 -636h171z" />
    <glyph glyph-name="bracketleft" unicode="[" horiz-adv-x="325" 
d="M177 -48q0 -20 6 -31t18.5 -17t33.5 -8t51 -4v-33h-201v911h201v-33q-30 -2 -51 -4t-33.5 -8t-18.5 -17.5t-6 -30.5v-725z" />
    <glyph glyph-name="backslash" unicode="\" horiz-adv-x="369" 
d="M18 770h60l288 -911h-59z" />
    <glyph glyph-name="bracketright" unicode="]" horiz-adv-x="325" 
d="M147 677q0 19 -5.5 30.5t-18.5 17.5t-33.5 8t-50.5 4v33h201v-911h-201v33q30 2 50.5 4t33.5 8t18.5 17t5.5 31v725z" />
    <glyph glyph-name="asciicircum" unicode="^" horiz-adv-x="465" 
d="M430 480h-60l-137 245l-138 -245h-59l165 290h64z" />
    <glyph glyph-name="underscore" unicode="_" horiz-adv-x="403" 
d="M20 -124v58h363v-58h-363z" />
    <glyph glyph-name="grave" unicode="`" 
d="M287 763l55 -166h-35l-161 159v7h141z" />
    <glyph glyph-name="a" unicode="a" horiz-adv-x="524" 
d="M449 111q0 -26 6.5 -41t26.5 -15q11 0 21.5 3t18.5 7l6 -22q-45 -53 -114 -53q-41 0 -66.5 23t-33.5 65q-12 -16 -28 -31.5t-35.5 -27.5t-42.5 -19.5t-50 -7.5q-61 0 -98 34.5t-37 94.5q0 32 11 55.5t29.5 40.5t43.5 29.5t53 23.5l151 55v85q0 43 -16 70.5t-55 27.5
q-36 0 -51.5 -24t-15.5 -60q0 -15 2 -30t6 -32l-83 -11q-20 7 -32 22.5t-12 40.5q0 31 15 54.5t41.5 39.5t62.5 24t78 8q97 0 147.5 -38t50.5 -126v-265zM234 70q22 0 39 8t38 24v187l-86 -35q-32 -12 -50 -32.5t-18 -62.5q0 -39 18.5 -64t58.5 -25z" />
    <glyph glyph-name="b" unicode="b" horiz-adv-x="589" 
d="M290 27q32 0 57 17t42.5 47t27 70.5t9.5 86.5t-8.5 84.5t-26 66t-43.5 42.5t-61 15q-25 0 -48 -9.5t-40 -25.5v-279q0 -115 91 -115zM0 714v21l177 48h22v-337q25 38 66.5 66t101.5 28q92 0 145.5 -63.5t53.5 -179.5q0 -74 -21.5 -131t-58.5 -96t-87 -59.5t-108 -20.5
q-66 0 -127 17.5t-104 52.5v623z" />
    <glyph glyph-name="c" unicode="c" horiz-adv-x="472" 
d="M144 305q0 -49 11 -89t31.5 -68t50.5 -43.5t68 -15.5q48 0 81.5 18.5t58.5 55.5l17 -10q-23 -82 -76.5 -122.5t-130.5 -40.5q-50 0 -93 18t-74 51.5t-48.5 81t-17.5 106.5q0 63 18 116.5t52 92.5t82 61.5t107 22.5q74 0 120 -29.5t46 -87.5q0 -24 -11 -41.5t-27 -25.5
h-76q2 12 3 23.5t1 25.5q0 40 -15.5 68.5t-57.5 28.5q-29 0 -51 -15t-37.5 -41.5t-23.5 -62.5t-8 -78z" />
    <glyph glyph-name="d" unicode="d" horiz-adv-x="601" 
d="M325 714v21l177 48h22v-677q0 -13 1 -21.5t5 -14t12 -8.5t22 -4l25 -2v-30l-182 -36h-26l4 93q-30 -43 -69 -68t-92 -25q-45 0 -82.5 17.5t-64 50.5t-41 79t-14.5 103q0 71 19.5 126.5t54 93.5t81 58t100.5 20q70 0 108 -35v180zM292 495q-63 0 -98 -56.5t-35 -150.5
q0 -46 9 -85t27 -67.5t44.5 -44.5t60.5 -16q50 0 85 32v264q0 59 -24 91.5t-69 32.5z" />
    <glyph glyph-name="e" unicode="e" horiz-adv-x="495" 
d="M260 503q-50 0 -77 -44.5t-33 -113.5h200q0 71 -20.5 114.5t-69.5 43.5zM270 540q50 0 88.5 -16t64 -43.5t38.5 -66t13 -83.5v-23h-326q-2 -53 10 -94t34.5 -70t53.5 -44t68 -15q51 0 86.5 21t62.5 60l16 -9q-20 -75 -73.5 -121t-140.5 -46q-54 0 -99 19t-76.5 53.5
t-49 82.5t-17.5 106q0 64 19.5 117t53 91.5t78.5 59.5t96 21z" />
    <glyph glyph-name="f" unicode="f" horiz-adv-x="347" 
d="M223 85q0 -15 4.5 -24.5t14.5 -15t26 -8t39 -4.5v-33h-285v33q35 2 48.5 10t13.5 34v407h-73v27l73 24v42q0 52 15.5 91t43.5 64.5t65.5 38t82.5 12.5q66 0 98.5 -22t32.5 -63q0 -40 -34 -56h-73q2 8 3 18t1 22q0 28 -8.5 47t-33.5 19q-54 0 -54 -88v-130h123v-46h-123
v-399z" />
    <glyph glyph-name="g" unicode="g" horiz-adv-x="526" 
d="M252 222q42 0 59.5 37.5t17.5 97.5q0 30 -5 57t-15.5 47.5t-26.5 32.5t-38 12q-42 0 -60.5 -37t-18.5 -96q0 -31 5.5 -58.5t16 -48t27 -32.5t38.5 -12zM109 -16q-19 -22 -19 -59q0 -51 41 -80t112 -29q37 0 70.5 6.5t59 19.5t41 33.5t15.5 48.5q0 33 -21 46.5t-58 13.5
h-241zM246 189q-26 0 -52 4t-49 12q-14 -14 -24 -29t-10 -31q0 -34 35 -34h206q88 0 132 -35.5t44 -101.5q0 -47 -22.5 -83.5t-61.5 -61.5t-92.5 -38t-115.5 -13q-110 0 -173.5 32t-63.5 93q0 38 29 60.5t65 33.5q-29 11 -45.5 35.5t-16.5 55.5q0 22 8 40.5t21 34t30 28
t34 23.5q-40 20 -66 54.5t-26 88.5q0 43 16.5 77t45.5 57.5t69 36t87 12.5q28 0 49 -4.5t40 -9.5l169 4v-58h-41l-70 3q26 -17 44.5 -47t18.5 -68q0 -40 -16 -71.5t-44.5 -53.5t-67.5 -34t-86 -12z" />
    <glyph glyph-name="h" unicode="h" horiz-adv-x="619" 
d="M80 683l-60 31v21l177 48h22v-341q16 19 35 36.5t41.5 31t49 22t58.5 8.5q71 0 107.5 -41t36.5 -123v-299q0 -26 13.5 -34t48.5 -10v-33h-262v33q35 2 48 10t13 34v292q0 44 -18 65.5t-60 21.5q-31 0 -59 -12t-52 -29v-338q0 -26 13 -34t48 -10v-33h-262v33q35 2 48.5 10
t13.5 34v606z" />
    <glyph glyph-name="i" unicode="i" horiz-adv-x="300" 
d="M151 600q-36 0 -58.5 23.5t-22.5 55.5t22.5 55.5t58.5 23.5q37 0 59.5 -23.5t22.5 -55.5t-22.5 -55.5t-59.5 -23.5zM222 77q0 -26 14 -34t49 -10v-33h-264v33q35 2 49 10t14 34v354l-60 35v19l176 55h22v-463z" />
    <glyph glyph-name="j" unicode="j" horiz-adv-x="273" 
d="M137 600q-36 0 -58.5 23.5t-22.5 55.5t22.5 55.5t58.5 23.5q37 0 59.5 -23.5t22.5 -55.5t-22.5 -55.5t-59.5 -23.5zM11 466v19l176 55h22v-445q0 -38 -3 -65.5t-9 -48.5t-15 -37.5t-21 -33.5q-31 -39 -66.5 -68.5t-82.5 -59.5l-15 16l41 68q24 40 28.5 86t4.5 106v373z
" />
    <glyph glyph-name="k" unicode="k" horiz-adv-x="586" 
d="M81 683l-60 31v21l177 48h22v-706q0 -26 13.5 -34t48.5 -10v-33h-263v33q35 2 48.5 10t13.5 34v606zM386 427q29 25 29 42q0 14 -14.5 18.5t-49.5 9.5v33h213v-33q-27 -5 -45 -12.5t-36 -24.5l-133 -123l236 -314v-23h-148l-209 284z" />
    <glyph glyph-name="l" unicode="l" horiz-adv-x="297" 
d="M220 77q0 -26 13.5 -34t48.5 -10v-33h-263v33q35 2 48.5 10t13.5 34v606l-60 31v21l177 48h22v-706z" />
    <glyph glyph-name="m" unicode="m" horiz-adv-x="923" 
d="M712 370q0 43 -16.5 64.5t-55.5 21.5q-30 0 -55 -12.5t-48 -29.5v-337q0 -26 12 -34t47 -10v-33h-258v33q35 2 47.5 10t12.5 34v293q0 43 -16.5 64.5t-55.5 21.5q-30 0 -55 -12t-49 -29v-338q0 -26 12.5 -34t47.5 -10v-33h-261v33q35 2 49 10t14 34v354l-60 35v19l179 55
h23l-4 -99q32 41 74 70t105 29q55 0 87.5 -24t42.5 -77q16 20 35 38t41.5 32t49 22.5t57.5 8.5q137 0 137 -161v-302q0 -26 13.5 -34t48.5 -10v-33h-260v33q35 2 47 10t12 34v293z" />
    <glyph glyph-name="n" unicode="n" horiz-adv-x="623" 
d="M411 369q0 44 -17.5 65.5t-59.5 21.5q-32 0 -60 -12t-52 -29v-338q0 -26 13 -34t48 -10v-33h-262v33q35 2 49 10t14 34v354l-60 35v19l179 55h23l-4 -98q16 19 35 36.5t41.5 31t49.5 22t59 8.5q143 0 143 -163v-300q0 -26 13.5 -34t48.5 -10v-33h-262v33q35 2 48 10
t13 34v292z" />
    <glyph glyph-name="o" unicode="o" horiz-adv-x="561" 
d="M279 -10q-57 0 -104.5 18.5t-81.5 53t-52.5 83t-18.5 108.5q0 64 19.5 116.5t54.5 90.5t82.5 59t103.5 21q57 0 104.5 -19t81.5 -53.5t52.5 -83.5t18.5 -108q0 -64 -19.5 -116.5t-54.5 -90t-82.5 -58.5t-103.5 -21zM284 26q28 0 48 15.5t33 43.5t19.5 68t6.5 89
q0 55 -6.5 103t-20.5 83t-35.5 55t-51.5 20q-56 0 -82 -58.5t-26 -156.5q0 -56 6.5 -103.5t21 -83t36 -55.5t51.5 -20z" />
    <glyph glyph-name="p" unicode="p" horiz-adv-x="604" 
d="M75 431l-60 35v19l179 55h24l-4 -94q25 38 66.5 66t101.5 28q92 0 145.5 -63.5t53.5 -179.5q0 -74 -21 -131t-57 -96t-84.5 -59.5t-104.5 -20.5q-31 0 -57 7t-43 21v-150q0 -14 4 -22.5t13.5 -13.5t25 -7t39.5 -4v-33h-283v33q35 2 48.5 10t13.5 34v566zM305 28
q32 0 57 17t42.5 47t27 70t9.5 86t-8.5 84.5t-26 66t-43.5 42.5t-61 15q-25 0 -48 -9.5t-40 -25.5v-278q0 -115 91 -115z" />
    <glyph glyph-name="q" unicode="q" horiz-adv-x="586" 
d="M385 83q-27 -38 -65.5 -65.5t-95.5 -27.5q-45 0 -82.5 17.5t-64 50.5t-41 79t-14.5 103q0 71 20 126.5t54.5 94t82 59t102.5 20.5q52 0 92 -16.5t67 -45.5l62 60h27l-5 -112v-561q0 -26 13.5 -34t48.5 -10v-33h-284v33q24 2 40 4t25.5 7t13.5 13.5t4 22.5v215zM292 502
q-32 0 -56.5 -15t-41.5 -43t-26 -66.5t-9 -84.5t9 -86t27 -69t44.5 -46t60.5 -17q50 0 85 32v270q0 60 -25.5 92.5t-67.5 32.5z" />
    <glyph glyph-name="r" unicode="r" horiz-adv-x="411" 
d="M222 85q0 -15 4.5 -24.5t14.5 -15t26.5 -8t39.5 -4.5v-33h-286v33q35 2 49 10t14 34v354l-60 35v19l179 55h23l-4 -148q18 41 33.5 69t31 45.5t33 25.5t39.5 8q30 0 44 -17v-108h-19q-23 0 -44 -1.5t-41 -6.5t-39 -16t-38 -30v-276z" />
    <glyph glyph-name="s" unicode="s" horiz-adv-x="455" 
d="M220 -10q-57 0 -103 13.5t-77 36.5l-6 137h37q8 -33 22 -60.5t32.5 -48t42.5 -32t53 -11.5q41 0 68 19.5t27 61.5q0 40 -28.5 61t-87.5 42q-40 14 -70.5 29.5t-50.5 35.5t-30.5 46t-10.5 61q0 37 13.5 67t38 50t59 31t75.5 11q49 0 90 -12t73 -32v-121h-34q-12 54 -44 92
t-85 38q-38 0 -59.5 -20.5t-21.5 -52.5q0 -35 25 -55t83 -41q41 -14 73 -30t54 -36t33.5 -47t11.5 -64q0 -81 -55 -125t-148 -44z" />
    <glyph glyph-name="t" unicode="t" horiz-adv-x="360" 
d="M203 530h130v-46h-130v-331q0 -46 17.5 -66.5t52.5 -20.5q21 0 38.5 7t36.5 21l12 -18q-24 -38 -62 -62t-92 -24q-31 0 -57 8.5t-45 27t-29.5 48t-10.5 71.5v339h-62v23q52 23 95.5 63t75.5 90h30v-130z" />
    <glyph glyph-name="u" unicode="u" horiz-adv-x="601" 
d="M524 106q0 -13 1 -21.5t5 -14t12 -8.5t22 -4l25 -2v-30l-182 -36h-25l3 96q-16 -18 -34 -35t-39 -30.5t-46 -22t-55 -8.5q-66 0 -105.5 38.5t-39.5 123.5v260q0 25 -8.5 38t-37.5 18l-16 3v30l184 38h22l-5 -119v-250q0 -46 18 -71.5t60 -25.5q30 0 54 11t48 27v301
q0 25 -8.5 38t-37.5 18l-15 3v30l182 38h22l-4 -117v-316z" />
    <glyph glyph-name="v" unicode="v" horiz-adv-x="565" 
d="M560 497q-27 -8 -35.5 -15t-15.5 -23l-198 -466h-37l-218 466q-4 8 -7.5 13.5t-8.5 9.5t-13.5 7.5t-21.5 7.5v33h272v-33q-38 -5 -52.5 -11t-14.5 -23q0 -6 1.5 -12t4.5 -16l120 -277l112 278q4 10 5.5 15.5t1.5 11.5q0 17 -14.5 23t-53.5 11v33h173v-33z" />
    <glyph glyph-name="w" unicode="w" horiz-adv-x="837" 
d="M722 436q5 17 5 27q0 18 -15.5 24t-46.5 10v33h167v-33q-26 -8 -35 -15t-16 -23l-189 -466h-43l-120 323l-133 -323h-42l-198 466q-7 16 -15.5 23t-35.5 15v33h261v-33q-29 -4 -43 -10t-14 -23q0 -6 1 -13t5 -15l106 -275l86 214l-31 84q-6 16 -15.5 23.5t-33.5 14.5v33
h254v-33q-32 -5 -48 -10t-16 -25q0 -11 4 -26l96 -268z" />
    <glyph glyph-name="x" unicode="x" horiz-adv-x="573" 
d="M246 228l-101 -134q-13 -17 -13 -31t16 -21t45 -9v-33h-188v33q48 12 68 39l147 193l-138 194q-10 14 -21 22.5t-36 15.5v33h260v-33q-26 -2 -39 -7.5t-13 -18.5q0 -12 15 -34l76 -107l80 105q16 24 16 35q0 22 -52 27v33h175v-33q-48 -12 -68 -40l-125 -163l159 -223
q10 -15 22 -23.5t37 -14.5v-33h-266v33q29 2 43.5 6.5t14.5 17.5q0 11 -17 36z" />
    <glyph glyph-name="y" unicode="y" horiz-adv-x="563" 
d="M447 435q7 17 7 28q0 17 -14.5 23t-53.5 11v33h172v-33q-26 -8 -35 -15t-16 -23l-220 -554q-25 -61 -54 -93t-78 -32q-26 0 -47.5 12t-29.5 34v51q16 -4 31 -6.5t37 -2.5q41 0 66.5 14t41.5 56l17 43l-215 478q-7 16 -15.5 23t-35.5 15v33h272v-33q-38 -5 -53 -11
t-15 -23q0 -10 6 -28l120 -296z" />
    <glyph glyph-name="z" unicode="z" horiz-adv-x="508" 
d="M25 23l293 466h-119q-42 0 -69 -33.5t-56 -111.5h-32l16 217h29l15 -33h375v-25l-286 -464h128q22 0 40 8t33.5 26t30.5 47t31 71h31l-19 -191h-441v23z" />
    <glyph glyph-name="braceleft" unicode="{" horiz-adv-x="354" 
d="M50 322q36 8 59.5 30t23.5 70v220q0 60 46.5 94t138.5 34v-25q-40 -5 -64.5 -26t-24.5 -72v-216q0 -54 -28.5 -78.5t-80.5 -37.5q26 -7 46 -15.5t34 -22t21.5 -33t7.5 -46.5v-215q0 -51 24.5 -72t64.5 -26v-25q-92 0 -138.5 34t-46.5 94v219q0 48 -23.5 70t-59.5 30v15z
" />
    <glyph glyph-name="bar" unicode="|" horiz-adv-x="211" 
d="M133 -141h-56v911h56v-911z" />
    <glyph glyph-name="braceright" unicode="}" horiz-adv-x="359" 
d="M309 307q-36 -8 -59.5 -30t-23.5 -70v-219q0 -60 -47 -94t-138 -34v25q40 5 64 26t24 72v215q0 27 7.5 46.5t21.5 33t34.5 22t46.5 15.5q-52 13 -81 37.5t-29 78.5v216q0 51 -24 72t-64 26v25q91 0 138 -34t47 -94v-220q0 -48 23.5 -70t59.5 -30v-15z" />
    <glyph glyph-name="asciitilde" unicode="~" horiz-adv-x="472" 
d="M442 370q-22 -71 -51.5 -106.5t-79.5 -35.5q-23 0 -45 11t-43 24.5t-41 24.5t-41 11q-29 0 -47.5 -18t-35.5 -47l-28 10q22 71 52 107t80 36q23 0 45 -11.5t43 -25t41 -24.5t41 -11q28 0 46.5 18t35.5 48z" />
    <glyph glyph-name="uni00A0" unicode="&#xa0;" horiz-adv-x="191" 
 />
    <glyph glyph-name="exclamdown" unicode="&#xa1;" horiz-adv-x="266" 
d="M152 374l67 -483h-172l67 483h38zM50 520q0 34 24.5 58.5t58.5 24.5q35 0 59 -24.5t24 -58.5q0 -18 -6.5 -33.5t-18 -27t-26.5 -18t-32 -6.5t-32 6.5t-26.5 18t-18 27t-6.5 33.5z" />
    <glyph glyph-name="cent" unicode="&#xa2;" horiz-adv-x="525" 
d="M153 310q0 -69 19.5 -118t56.5 -76l77 399q-4 1 -14 1q-32 0 -57.5 -15.5t-43.5 -43.5t-28 -65.5t-10 -81.5zM206 -1q-79 21 -126.5 88t-47.5 167q0 64 19.5 119t55 95t86 62.5t113.5 22.5h8l20 104h35l-21 -107q61 -8 100 -36.5t39 -79.5q0 -25 -12 -42.5t-29 -25.5h-69
q4 23 4 52t-9 53t-33 35l-79 -408q29 -13 68 -13q53 0 89 21.5t63 60.5l17 -10q-24 -85 -81.5 -126t-138.5 -41q-20 0 -38 3l-20 -105h-34z" />
    <glyph glyph-name="sterling" unicode="&#xa3;" horiz-adv-x="658" 
d="M103 34q27 0 47 22.5t25 72.5q-16 8 -32 13.5t-33 5.5q-26 0 -42.5 -15.5t-16.5 -45.5q0 -26 14.5 -39.5t37.5 -13.5zM101 387h100l7 64q12 135 75.5 198t171.5 63q35 0 65 -7t52.5 -20.5t35.5 -34t13 -48.5q0 -26 -14 -45t-32 -27h-79q4 14 6.5 31t2.5 37q0 16 -2 31.5
t-7.5 27t-16 18.5t-26.5 7q-21 0 -36 -12t-26 -33t-18 -49.5t-11 -61.5l-20 -139h162v-37h-167l-9 -69q-5 -41 -14 -78.5t-19 -58.5q40 -20 94.5 -32.5t103.5 -12.5q45 0 72.5 18t27.5 61q0 9 -1.5 16.5t-3.5 15.5l19 5q8 -11 19.5 -34t11.5 -55q0 -66 -40 -101t-110 -35
q-35 0 -68 8t-62 21t-53.5 29t-42.5 32q-21 -40 -58 -65t-90 -25q-49 0 -76.5 27.5t-27.5 69.5q0 48 31.5 73.5t74.5 25.5q15 0 32 -2.5t32 -7.5l17 174h-96v37z" />
    <glyph glyph-name="currency" unicode="&#xa4;" horiz-adv-x="582" 
d="M145 345q0 -34 11 -62.5t30.5 -49t46.5 -32t58 -11.5t57.5 11.5t46 32t30.5 49t11 62.5t-11 62.5t-30.5 49t-46 32t-57.5 11.5t-58 -11.5t-46.5 -32t-30.5 -49t-11 -62.5zM95 572l72 -75q25 21 57 33t67 12t66.5 -12t56.5 -33l73 75l28 -28l-74 -74q20 -26 31 -57.5
t11 -67.5q0 -37 -11 -68.5t-31 -56.5l74 -74l-28 -28l-73 74q-25 -21 -56.5 -32.5t-66.5 -11.5t-67 11.5t-57 32.5l-72 -74l-28 28l74 74q-42 51 -42 125q0 72 42 125l-74 74z" />
    <glyph glyph-name="yen" unicode="&#xa5;" horiz-adv-x="658" 
d="M403 244h165v-38h-165v-105q0 -21 4.5 -32.5t15 -18t27.5 -9.5t42 -6v-35h-321v35q25 3 42.5 6t28 9.5t15 18t4.5 32.5v105h-168v38h168v33l-27 48h-141v38h120l-149 267q-11 20 -24.5 27t-34.5 10v35h302v-35q-46 -2 -62 -9.5t-16 -27.5q0 -14 5.5 -25.5t14.5 -28.5
l132 -240l128 238q7 14 12 28t5 29q0 20 -17 27t-61 9v35h205v-35q-21 -3 -35 -10.5t-24 -26.5l-145 -267h119v-38h-140l-25 -47v-34z" />
    <glyph glyph-name="brokenbar" unicode="&#xa6;" horiz-adv-x="211" 
d="M133 -141h-56v376h56v-376zM133 394h-56v376h56v-376z" />
    <glyph glyph-name="section" unicode="&#xa7;" horiz-adv-x="524" 
d="M233 -202q-75 0 -115 29t-40 74q0 23 12.5 36t28.5 19h74v-31q0 -16 2.5 -33t10.5 -31.5t22 -24t38 -9.5q36 0 52 21.5t16 49.5q0 29 -15 61t-38 65.5t-51 68.5l-54 72q-53 73 -88.5 147.5t-35.5 160.5q0 54 19 98t51.5 75.5t76 48.5t92.5 17q75 0 115 -29t40 -74
q0 -23 -12.5 -36t-27.5 -19h-75v30q0 16 -2.5 33.5t-10.5 31.5t-22 23.5t-38 9.5q-36 0 -51.5 -21t-15.5 -50t15 -61t38 -65.5t51 -68.5l53 -71q26 -36 49 -72.5t39.5 -74.5t26 -78t9.5 -83q0 -54 -19 -98t-51.5 -75.5t-76 -48.5t-92.5 -17zM153 630q-31 -30 -46.5 -67.5
t-15.5 -89.5q0 -40 9 -76.5t24.5 -72t36.5 -69t46 -67.5q22 -31 51 -68t54.5 -76.5t42.5 -81t16 -82.5q31 30 46.5 67.5t15.5 89.5q0 79 -33 147.5t-83 137.5q-22 31 -51 67.5t-54.5 76t-42.5 81.5t-16 83z" />
    <glyph glyph-name="dieresis" unicode="&#xa8;" 
d="M276 679q0 30 21.5 51.5t50.5 21.5q32 0 53 -21.5t21 -51.5t-21 -51.5t-53 -21.5q-29 0 -50.5 21.5t-21.5 51.5zM82 679q0 30 21.5 51.5t51.5 21.5q31 0 52.5 -21.5t21.5 -51.5t-21.5 -51.5t-52.5 -21.5q-30 0 -51.5 21.5t-21.5 51.5z" />
    <glyph glyph-name="copyright" unicode="&#xa9;" horiz-adv-x="788" 
d="M415 174q46 0 70.5 30.5t41.5 84.5h29l-9 -111q-28 -16 -61 -26t-77 -10q-48 0 -86.5 15t-65.5 42t-41.5 64t-14.5 81q0 51 16.5 92t45 69.5t67 43.5t81.5 15q45 0 78 -12t55 -29v-100h-28q-10 48 -33 78.5t-67 30.5q-29 0 -50.5 -14.5t-35.5 -38.5t-21 -55.5t-7 -65.5
q0 -82 29.5 -133t83.5 -51zM36 351q0 75 26.5 140.5t74 114.5t113.5 77.5t144 28.5t144 -28.5t113.5 -77.5t74 -114.5t26.5 -140.5t-26.5 -140.5t-74 -114.5t-113.5 -77.5t-144 -28.5t-144 28.5t-113.5 77.5t-74 114.5t-26.5 140.5zM66 351q0 -69 24 -129.5t67.5 -105.5
t104 -71.5t132.5 -26.5t132 26.5t103.5 71.5t68 105.5t24.5 129.5t-24.5 129.5t-68 105.5t-103.5 71.5t-132 26.5t-132.5 -26.5t-104 -71.5t-67.5 -105.5t-24 -129.5z" />
    <glyph glyph-name="ordfeminine" unicode="&#xaa;" horiz-adv-x="383" 
d="M310 439q0 -40 24 -40q14 0 30 7l4 -15q-14 -17 -34 -27t-43 -10q-28 0 -46.5 16.5t-23.5 44.5q-17 -24 -43.5 -41.5t-61.5 -17.5q-38 0 -62 22.5t-24 60.5q0 21 7 36.5t19.5 27t29 19.5t34.5 14l99 34v42q0 36 -10.5 56t-36.5 20q-21 0 -31 -14t-10 -37q0 -20 6 -42
l-61 -8q-28 10 -28 42q0 41 37.5 62t94.5 21q66 0 98 -26.5t32 -89.5v-157zM165 410q15 0 27 5.5t27 16.5v113l-52 -22q-24 -10 -34.5 -24.5t-10.5 -37.5q0 -24 11.5 -37.5t31.5 -13.5z" />
    <glyph glyph-name="guillemotleft" unicode="&#xab;" horiz-adv-x="458" 
d="M204 278l188 196h38l-107 -199l107 -199h-38l-188 196v6zM29 278l188 196h38l-107 -199l107 -199h-38l-188 196v6z" />
    <glyph glyph-name="registered" unicode="&#xae;" horiz-adv-x="515" 
d="M30 484q0 47 17 88.5t47 72.5t71.5 49t91.5 18t92 -18t72 -49t47 -72.5t17 -88.5t-17 -88.5t-47 -72t-72 -48.5t-92 -18t-91.5 18t-71.5 48.5t-47 72t-17 88.5zM58 484q0 -41 15 -77.5t41 -64t62.5 -43.5t80.5 -16t80.5 16t63 43.5t41.5 64t15 77.5t-15 78t-41.5 64.5
t-63 43.5t-80.5 16t-80.5 -16t-62.5 -43.5t-41 -64.5t-15 -78zM261 607q49 0 72 -20t23 -49q0 -27 -18 -43.5t-39 -21.5l43 -58q9 -13 17.5 -20t24.5 -8v-16h-64q-8 5 -17.5 15t-17.5 23l-39 58h-15v-55q0 -15 5.5 -20t21.5 -5v-16h-108v16q17 0 22.5 5t5.5 20v153
q0 16 -5.5 19.5t-22.5 5.5v17h111zM231 586v-100h18q50 0 50 52q0 23 -13 35.5t-37 12.5h-18z" />
    <glyph glyph-name="macron" unicode="&#xaf;" 
d="M115 692h269v-68h-269v68z" />
    <glyph glyph-name="degree" unicode="&#xb0;" horiz-adv-x="280" 
d="M20 593q0 25 9.5 47t25.5 38t38 25t47 9t47 -9t38 -25t25.5 -38t9.5 -47t-9.5 -46.5t-25.5 -37.5t-38 -25t-47 -9t-47 9t-38 25t-25.5 37.5t-9.5 46.5zM65 593q0 -35 20 -57.5t55 -22.5t55 22.5t20 57.5t-20 57.5t-55 22.5t-55 -22.5t-20 -57.5z" />
    <glyph glyph-name="plusminus" unicode="&#xb1;" horiz-adv-x="569" 
d="M65 200h439v-59h-439v59zM313 605v-146h191v-58h-191v-145h-58v145h-190v58h190v146h58z" />
    <glyph glyph-name="twosuperior" unicode="&#xb2;" horiz-adv-x="381" 
d="M241 386q15 0 24.5 1.5t17.5 7t15.5 15t17.5 26.5h18l-12 -131h-292v20l109 103q44 43 62.5 75t18.5 68q0 34 -18 52.5t-52 18.5q-32 0 -55.5 -15t-38.5 -32l-17 14q10 19 24.5 37.5t34 32.5t43.5 22.5t53 8.5q57 0 88 -30t31 -84q0 -32 -14 -58t-38.5 -51t-56.5 -49
l-69 -52h106z" />
    <glyph glyph-name="threesuperior" unicode="&#xb3;" horiz-adv-x="373" 
d="M207 528q57 -3 91.5 -32.5t34.5 -77.5q0 -29 -12.5 -51t-34.5 -37t-50.5 -22.5t-60.5 -7.5q-70 0 -104 25t-34 59q0 17 8 28t18 16h57q-4 -13 -4 -27q0 -36 16 -56t48 -20q30 0 47.5 20.5t17.5 60.5q0 43 -25 64.5t-73 21.5h-15l-5 19q47 17 69 35.5t22 46.5
q0 23 -14.5 39t-45.5 16q-29 0 -49.5 -14.5t-32.5 -34.5l-22 14q19 41 55.5 70t93.5 29q52 0 79 -24.5t27 -63.5q0 -21 -9 -37t-23.5 -27.5t-33 -19.5t-36.5 -12z" />
    <glyph glyph-name="acute" unicode="&#xb4;" 
d="M342 763v-7l-161 -159h-35l55 166h141z" />
    <glyph glyph-name="mu" unicode="&#xb5;" horiz-adv-x="601" 
d="M207 -173v-14l-141 -10v609q0 25 -8.5 38t-37.5 18l-16 3v30l184 38h22l-5 -119v-250q0 -46 18 -71.5t60 -25.5q30 0 54 11t48 27v301q0 25 -8.5 38t-37.5 18l-15 3v30l182 38h22l-4 -117v-316q0 -13 1 -21.5t5 -14t12 -8.5t22 -4l25 -2v-30l-182 -36h-25l3 96
q-28 -42 -65.5 -69t-84.5 -27q-27 0 -41 17z" />
    <glyph glyph-name="paragraph" unicode="&#xb6;" horiz-adv-x="613" 
d="M319 666q-36 -2 -62 -20.5t-42 -47.5t-23.5 -65t-7.5 -73t7.5 -74t23.5 -67.5t42 -50.5t62 -21v419zM319 211q-67 0 -117.5 20t-84.5 53.5t-51 79t-17 96.5t17 95t51 77t84.5 51.5t117.5 18.5h269v-35q-27 0 -46 -3t-31.5 -11t-18.5 -22t-6 -37v-791h-43v862h-82v-862
h-42v408z" />
    <glyph glyph-name="periodcentered" unicode="&#xb7;" horiz-adv-x="235" 
d="M30 303q0 38 25.5 63t61.5 25q37 0 62.5 -25t25.5 -63t-25.5 -62.5t-62.5 -24.5q-36 0 -61.5 24.5t-25.5 62.5z" />
    <glyph glyph-name="cedilla" unicode="&#xb8;" 
d="M150 -195q54 0 82.5 14.5t28.5 35.5q0 22 -21.5 30t-61.5 10l46 113h32l-21 -52q47 0 75 -20t28 -58q0 -27 -14 -46.5t-39 -32.5t-58 -19t-70 -6z" />
    <glyph glyph-name="onesuperior" unicode="&#xb9;" horiz-adv-x="333" 
d="M214 712v-335q0 -13 3.5 -20.5t12.5 -11.5t23.5 -6t36.5 -3v-29h-250v29q24 1 39 3t23.5 6t11.5 11.5t3 20.5v232h-77v24l25 5q46 8 72.5 25.5t50.5 48.5h26z" />
    <glyph glyph-name="ordmasculine" unicode="&#xba;" horiz-adv-x="396" 
d="M195 354q-38 0 -68.5 12.5t-52.5 35t-34 54.5t-12 70q0 42 13 76.5t36 59t54.5 37.5t69.5 13q37 0 68 -12.5t53 -35t34 -54t12 -69.5q0 -43 -13 -77.5t-36 -59t-55 -37.5t-69 -13zM201 383q35 0 52 38t17 101q0 33 -4.5 62.5t-13.5 51t-23.5 34.5t-33.5 13
q-35 0 -52 -37.5t-17 -101.5q0 -33 4.5 -62.5t14 -51.5t23.5 -34.5t33 -12.5z" />
    <glyph glyph-name="guillemotright" unicode="&#xbb;" horiz-adv-x="458" 
d="M255 272l-189 -196h-37l107 199l-107 199h37l189 -196v-6zM430 272l-189 -196h-37l107 199l-107 199h37l189 -196v-6z" />
    <glyph glyph-name="onequarter" unicode="&#xbc;" horiz-adv-x="777" 
d="M502 0v28q36 3 47.5 9t11.5 32v37h-191v24l216 270h71v-261h79v-33h-79v-37q0 -26 12 -32t47 -9v-28h-214zM587 712h46l-438 -722h-46zM214 712v-335q0 -13 3.5 -20.5t12.5 -11.5t23.5 -6t36.5 -3v-29h-250v29q24 1 39 3t23.5 6t11.5 11.5t3 20.5v232h-77v24l25 5
q45 9 72 26t51 48h26zM561 139v174l-141 -174h141z" />
    <glyph glyph-name="onehalf" unicode="&#xbd;" horiz-adv-x="794" 
d="M654 80q15 0 24.5 2t17.5 7t15.5 15t17.5 26h18l-12 -130h-292v19l109 104q44 43 62.5 75t18.5 67q0 34 -18 52.5t-52 18.5q-32 0 -55.5 -14.5t-38.5 -31.5l-16 14q20 39 58.5 69.5t95.5 30.5t88 -29.5t31 -83.5q0 -32 -14 -58.5t-38 -51t-56 -49.5l-70 -52h106zM587 712
h46l-438 -722h-46zM214 712v-335q0 -13 3.5 -20.5t12.5 -11.5t23.5 -6t36.5 -3v-29h-250v29q24 1 39 3t23.5 6t11.5 11.5t3 20.5v232h-77v24l25 5q46 8 72.5 25.5t50.5 48.5h26z" />
    <glyph glyph-name="threequarters" unicode="&#xbe;" horiz-adv-x="792" 
d="M517 0v28q36 3 47.5 9t11.5 32v37h-191v24l216 270h71v-261h79v-33h-79v-37q0 -26 12 -32t47 -9v-28h-214zM602 712h46l-438 -722h-46zM576 139v174l-141 -174h141zM207 530q59 -2 92.5 -32t33.5 -78q0 -29 -12.5 -51.5t-34.5 -37.5t-50.5 -23t-60.5 -8q-70 0 -104 25
t-34 59q0 17 8 28t18 16h57q-4 -13 -4 -27q0 -36 16 -56t48 -20q30 0 47.5 20.5t17.5 60.5q0 43 -25 64.5t-73 21.5h-15l-5 19q47 17 69 35.5t22 46.5q0 23 -14.5 39t-45.5 16q-29 0 -49.5 -14.5t-32.5 -34.5l-22 14q19 41 55.5 70t93.5 29q52 0 79 -24.5t27 -63.5
q0 -21 -9 -36.5t-23.5 -26.5t-33 -19t-36.5 -12z" />
    <glyph glyph-name="questiondown" unicode="&#xbf;" horiz-adv-x="446" 
d="M328 520q0 -18 -6.5 -33.5t-18 -27t-26.5 -18t-32 -6.5t-32.5 6.5t-26.5 18t-17.5 27t-6.5 33.5q0 34 24 58.5t59 24.5t59 -24.5t24 -58.5zM141 7q0 -44 22.5 -69.5t64.5 -25.5q23 0 39.5 8.5t27 23t15.5 33.5t5 39q0 9 -1 27t-2 24h92q31 -20 31 -57q0 -29 -15.5 -52.5
t-42.5 -40.5t-64.5 -26.5t-82.5 -9.5q-96 0 -151.5 42.5t-55.5 126.5q0 31 10.5 57.5t29 49t44 43t55.5 40.5q21 14 35.5 26.5t24 26t14 29.5t4.5 36v23h17q22 -14 39 -41.5t17 -62.5q0 -39 -19.5 -70.5t-60.5 -63.5l-36 -29q-17 -14 -29.5 -29.5t-19.5 -34.5t-7 -43z" />
    <glyph glyph-name="Agrave" unicode="&#xc0;" horiz-adv-x="728" 
d="M327 896l52 -149h-37l-159 142v7h144zM193 274h236l-120 301zM446 231h-269l-43 -112q-9 -23 -9 -39q0 -24 20 -33.5t66 -11.5v-35h-206v35q21 3 36 10t23 27l218 560l-31 75h156l257 -635q8 -20 23.5 -27t35.5 -10v-35h-306v35q45 2 64.5 11t19.5 33q0 16 -9 39z" />
    <glyph glyph-name="Aacute" unicode="&#xc1;" horiz-adv-x="728" 
d="M497 896v-7l-159 -142h-37l52 149h144zM193 274h236l-120 301zM446 231h-269l-43 -112q-9 -23 -9 -39q0 -24 20 -33.5t66 -11.5v-35h-206v35q21 3 36 10t23 27l218 560l-31 75h156l257 -635q8 -20 23.5 -27t35.5 -10v-35h-306v35q45 2 64.5 11t19.5 33q0 16 -9 39z" />
    <glyph glyph-name="Acircumflex" unicode="&#xc2;" horiz-adv-x="728" 
d="M517 747h-40l-133 82l-133 -82h-40l125 156h96zM193 274h236l-120 301zM446 231h-269l-43 -112q-9 -23 -9 -39q0 -24 20 -33.5t66 -11.5v-35h-206v35q21 3 36 10t23 27l218 560l-31 75h156l257 -635q8 -20 23.5 -27t35.5 -10v-35h-306v35q45 2 64.5 11t19.5 33
q0 16 -9 39z" />
    <glyph glyph-name="Atilde" unicode="&#xc3;" horiz-adv-x="728" 
d="M410 747q-22 0 -40.5 9t-35 20.5t-32.5 20.5t-32 9q-22 0 -38 -14t-32 -42l-27 15q26 66 50.5 96t62.5 30q22 0 40.5 -9.5t34.5 -20.5l32 -21q16 -9 33 -9q22 0 38 14.5t32 42.5l27 -16q-26 -65 -50.5 -95t-62.5 -30zM193 274h236l-120 301zM446 231h-269l-43 -112
q-9 -23 -9 -39q0 -24 20 -33.5t66 -11.5v-35h-206v35q21 3 36 10t23 27l218 560l-31 75h156l257 -635q8 -20 23.5 -27t35.5 -10v-35h-306v35q45 2 64.5 11t19.5 33q0 16 -9 39z" />
    <glyph glyph-name="Adieresis" unicode="&#xc4;" horiz-adv-x="728" 
d="M172 822q0 30 21 51.5t51 21.5q31 0 52.5 -21.5t21.5 -51.5q0 -29 -21.5 -51t-52.5 -22q-30 0 -51 22t-21 51zM371 822q0 30 21 51.5t51 21.5q32 0 53 -21.5t21 -51.5q0 -29 -21 -51t-53 -22q-30 0 -51 22t-21 51zM193 274h236l-120 301zM446 231h-269l-43 -112
q-9 -23 -9 -39q0 -24 20 -33.5t66 -11.5v-35h-206v35q21 3 36 10t23 27l218 560l-31 75h156l257 -635q8 -20 23.5 -27t35.5 -10v-35h-306v35q45 2 64.5 11t19.5 33q0 16 -9 39z" />
    <glyph glyph-name="Aring" unicode="&#xc5;" horiz-adv-x="728" 
d="M286 824q0 -23 13 -38.5t39 -15.5q25 0 38.5 15.5t13.5 38.5t-13.5 38.5t-38.5 15.5q-26 0 -39 -15.5t-13 -38.5zM242 824q0 40 27 67t69 27t68 -27t26 -67t-26 -67t-68 -27t-69 27t-27 67zM193 274h236l-120 301zM446 231h-269l-43 -112q-9 -23 -9 -39q0 -24 20 -33.5
t66 -11.5v-35h-206v35q21 3 36 10t23 27l218 560l-31 75h156l257 -635q8 -20 23.5 -27t35.5 -10v-35h-306v35q45 2 64.5 11t19.5 33q0 16 -9 39z" />
    <glyph glyph-name="AE" unicode="&#xc6;" horiz-adv-x="1021" 
d="M261 290h232v361zM423 630q-10 19 -36 27t-64 10v35h639l5 -180h-30q-18 41 -33.5 68t-33 43t-39.5 22.5t-52 6.5h-140v-278h127q34 0 48 22t21 70h36v-227h-36q-7 48 -21 69.5t-48 21.5h-127v-232q0 -41 21.5 -54.5t67.5 -13.5h63q30 0 52 8.5t41 27t38.5 49t44.5 75.5
h35l-31 -200h-558v35q26 3 42 6.5t24.5 10.5t11 19t2.5 33v143h-260l-82 -128q-8 -12 -12 -22t-4 -19q0 -20 22 -31t71 -12v-35h-223v35q21 3 33.5 11t25.5 26z" />
    <glyph glyph-name="Ccedilla" unicode="&#xc7;" horiz-adv-x="656" 
d="M274 -195q54 0 82.5 14.5t28.5 35.5q0 22 -21.5 30t-61.5 10l39 97q-72 6 -130 33t-98 71.5t-61.5 104.5t-21.5 133q0 87 27.5 157t75 119t112 75.5t138.5 26.5q67 0 122.5 -15.5t98.5 -43.5l1 -161h-38q-18 88 -62.5 133t-117.5 45q-52 0 -90 -24t-63 -66t-37 -98
t-12 -120q0 -70 13.5 -130t40.5 -104.5t66.5 -69.5t90.5 -25q71 0 119 47.5t74 157.5h40l-15 -188q-45 -29 -102.5 -44.5t-128.5 -15.5q-3 0 -5.5 0.5t-4.5 0.5l-14 -35q47 0 75 -20t28 -58q0 -27 -14 -46.5t-39 -32.5t-58 -19t-70 -6z" />
    <glyph glyph-name="Egrave" unicode="&#xc8;" horiz-adv-x="635" 
d="M27 35q26 3 42 6.5t24.5 10.5t11 19t2.5 33v494q0 21 -2.5 33t-11 19t-24.5 10.5t-42 6.5v35h549l5 -180h-29q-18 41 -34 68t-33.5 43t-39 22.5t-51.5 6.5h-140v-278h127q33 0 47 22t22 70h35v-227h-35q-8 48 -22 69.5t-47 21.5h-127v-232q0 -41 21 -54.5t68 -13.5h62
q30 0 52 8.5t41 27t38.5 49t44.5 75.5h35l-31 -200h-558v35zM331 896l52 -149h-37l-159 142v7h144z" />
    <glyph glyph-name="Eacute" unicode="&#xc9;" horiz-adv-x="635" 
d="M27 35q26 3 42 6.5t24.5 10.5t11 19t2.5 33v494q0 21 -2.5 33t-11 19t-24.5 10.5t-42 6.5v35h549l5 -180h-29q-18 41 -34 68t-33.5 43t-39 22.5t-51.5 6.5h-140v-278h127q33 0 47 22t22 70h35v-227h-35q-8 48 -22 69.5t-47 21.5h-127v-232q0 -41 21 -54.5t68 -13.5h62
q30 0 52 8.5t41 27t38.5 49t44.5 75.5h35l-31 -200h-558v35zM489 896v-7l-159 -142h-37l52 149h144z" />
    <glyph glyph-name="Ecircumflex" unicode="&#xca;" horiz-adv-x="635" 
d="M509 747h-40l-133 82l-133 -82h-40l125 156h96zM27 35q26 3 42 6.5t24.5 10.5t11 19t2.5 33v494q0 21 -2.5 33t-11 19t-24.5 10.5t-42 6.5v35h549l5 -180h-29q-18 41 -34 68t-33.5 43t-39 22.5t-51.5 6.5h-140v-278h127q33 0 47 22t22 70h35v-227h-35q-8 48 -22 69.5
t-47 21.5h-127v-232q0 -41 21 -54.5t68 -13.5h62q30 0 52 8.5t41 27t38.5 49t44.5 75.5h35l-31 -200h-558v35z" />
    <glyph glyph-name="Edieresis" unicode="&#xcb;" horiz-adv-x="635" 
d="M27 35q26 3 42 6.5t24.5 10.5t11 19t2.5 33v494q0 21 -2.5 33t-11 19t-24.5 10.5t-42 6.5v35h549l5 -180h-29q-18 41 -34 68t-33.5 43t-39 22.5t-51.5 6.5h-140v-278h127q33 0 47 22t22 70h35v-227h-35q-8 48 -22 69.5t-47 21.5h-127v-232q0 -41 21 -54.5t68 -13.5h62
q30 0 52 8.5t41 27t38.5 49t44.5 75.5h35l-31 -200h-558v35zM363 822q0 30 21 51.5t51 21.5q32 0 53 -21.5t21 -51.5q0 -29 -21 -51t-53 -22q-30 0 -51 22t-21 51zM164 822q0 30 21 51.5t51 21.5q31 0 52.5 -21.5t21.5 -51.5q0 -29 -21.5 -51t-52.5 -22q-30 0 -51 22t-21 51
z" />
    <glyph glyph-name="Igrave" unicode="&#xcc;" horiz-adv-x="361" 
d="M174 896l52 -149h-37l-159 142v7h144zM254 104q0 -21 2.5 -33t11 -19t24.5 -10.5t42 -6.5v-35h-307v35q26 3 42 6.5t24.5 10.5t11 19t2.5 33v494q0 21 -2.5 33t-11 19t-24.5 10.5t-42 6.5v35h307v-35q-26 -3 -42 -6.5t-24.5 -10.5t-11 -19t-2.5 -33v-494z" />
    <glyph glyph-name="Iacute" unicode="&#xcd;" horiz-adv-x="361" 
d="M333 896v-7l-159 -142h-37l52 149h144zM254 104q0 -21 2.5 -33t11 -19t24.5 -10.5t42 -6.5v-35h-307v35q26 3 42 6.5t24.5 10.5t11 19t2.5 33v494q0 21 -2.5 33t-11 19t-24.5 10.5t-42 6.5v35h307v-35q-26 -3 -42 -6.5t-24.5 -10.5t-11 -19t-2.5 -33v-494z" />
    <glyph glyph-name="Icircumflex" unicode="&#xce;" horiz-adv-x="361" 
d="M345 747h-38l-126 82l-126 -82h-38l118 156h91zM254 104q0 -21 2.5 -33t11 -19t24.5 -10.5t42 -6.5v-35h-307v35q26 3 42 6.5t24.5 10.5t11 19t2.5 33v494q0 21 -2.5 33t-11 19t-24.5 10.5t-42 6.5v35h307v-35q-26 -3 -42 -6.5t-24.5 -10.5t-11 -19t-2.5 -33v-494z" />
    <glyph glyph-name="Idieresis" unicode="&#xcf;" horiz-adv-x="361" 
d="M207 822q0 30 21 51.5t51 21.5q32 0 53 -21.5t21 -51.5q0 -29 -21 -51t-53 -22q-30 0 -51 22t-21 51zM8 822q0 30 21 51.5t51 21.5q31 0 52.5 -21.5t21.5 -51.5q0 -29 -21.5 -51t-52.5 -22q-30 0 -51 22t-21 51zM254 104q0 -21 2.5 -33t11 -19t24.5 -10.5t42 -6.5v-35
h-307v35q26 3 42 6.5t24.5 10.5t11 19t2.5 33v494q0 21 -2.5 33t-11 19t-24.5 10.5t-42 6.5v35h307v-35q-26 -3 -42 -6.5t-24.5 -10.5t-11 -19t-2.5 -33v-494z" />
    <glyph glyph-name="Eth" unicode="&#xd0;" horiz-adv-x="759" 
d="M264 662v-279h136v-48h-136v-224q0 -44 19 -57.5t59 -13.5h18q47 0 86.5 20.5t68 59.5t44 95.5t15.5 128.5q0 67 -15 125t-46.5 101t-80 67.5t-114.5 24.5h-54zM37 383h80v215q0 21 -2.5 33t-11 19t-24.5 10.5t-42 6.5v35h307q99 0 172 -26.5t120 -72.5t70 -107.5
t23 -130.5q0 -87 -27 -154.5t-76 -114.5t-116 -71.5t-147 -24.5h-326v35q26 3 42 6.5t24.5 10.5t11 19t2.5 33v231h-80v48z" />
    <glyph glyph-name="Ntilde" unicode="&#xd1;" horiz-adv-x="747" 
d="M596 597q0 20 -4 32.5t-15 20t-30.5 11t-50.5 6.5v35h233v-35q-26 -3 -42 -6.5t-24.5 -11t-11 -20t-2.5 -32.5v-599h-49l-438 553v-446q0 -20 4 -32.5t15 -20t30 -11t50 -6.5v-35h-233v35q27 3 42.5 6.5t24 11t11 20t2.5 32.5v500q-11 16 -20 27.5t-18 19t-19 11t-24 4.5
v35h205l364 -463v358zM455 747q-22 0 -40.5 9t-35 20.5t-32.5 20.5t-32 9q-22 0 -38 -14t-32 -42l-27 15q26 66 50.5 96t62.5 30q22 0 40.5 -9.5t34.5 -20.5l32 -21q16 -9 33 -9q22 0 38 14.5t32 42.5l27 -16q-26 -65 -50.5 -95t-62.5 -30z" />
    <glyph glyph-name="Ograve" unicode="&#xd2;" horiz-adv-x="722" 
d="M355 -10q-80 0 -140.5 28.5t-101.5 76t-62 110.5t-21 132q0 86 25.5 155.5t71 118t107 75t133.5 26.5q79 0 139.5 -28.5t102 -76t62.5 -110.5t21 -132q0 -86 -25.5 -155.5t-71 -118t-107 -75t-133.5 -26.5zM365 31q44 0 76 26.5t53 70t31 100t10 117.5q0 63 -10.5 121.5
t-32 104t-55.5 73t-81 27.5q-44 0 -76 -26.5t-53 -70t-31 -100t-10 -117.5q0 -63 10.5 -121.5t32 -104t55.5 -73t81 -27.5zM357 896l52 -149h-37l-159 142v7h144z" />
    <glyph glyph-name="Oacute" unicode="&#xd3;" horiz-adv-x="722" 
d="M355 -10q-80 0 -140.5 28.5t-101.5 76t-62 110.5t-21 132q0 86 25.5 155.5t71 118t107 75t133.5 26.5q79 0 139.5 -28.5t102 -76t62.5 -110.5t21 -132q0 -86 -25.5 -155.5t-71 -118t-107 -75t-133.5 -26.5zM365 31q44 0 76 26.5t53 70t31 100t10 117.5q0 63 -10.5 121.5
t-32 104t-55.5 73t-81 27.5q-44 0 -76 -26.5t-53 -70t-31 -100t-10 -117.5q0 -63 10.5 -121.5t32 -104t55.5 -73t81 -27.5zM516 896v-7l-159 -142h-37l52 149h144z" />
    <glyph glyph-name="Ocircumflex" unicode="&#xd4;" horiz-adv-x="722" 
d="M536 747h-40l-133 82l-133 -82h-40l125 156h96zM355 -10q-80 0 -140.5 28.5t-101.5 76t-62 110.5t-21 132q0 86 25.5 155.5t71 118t107 75t133.5 26.5q79 0 139.5 -28.5t102 -76t62.5 -110.5t21 -132q0 -86 -25.5 -155.5t-71 -118t-107 -75t-133.5 -26.5zM365 31
q44 0 76 26.5t53 70t31 100t10 117.5q0 63 -10.5 121.5t-32 104t-55.5 73t-81 27.5q-44 0 -76 -26.5t-53 -70t-31 -100t-10 -117.5q0 -63 10.5 -121.5t32 -104t55.5 -73t81 -27.5z" />
    <glyph glyph-name="Otilde" unicode="&#xd5;" horiz-adv-x="722" 
d="M355 -10q-80 0 -140.5 28.5t-101.5 76t-62 110.5t-21 132q0 86 25.5 155.5t71 118t107 75t133.5 26.5q79 0 139.5 -28.5t102 -76t62.5 -110.5t21 -132q0 -86 -25.5 -155.5t-71 -118t-107 -75t-133.5 -26.5zM365 31q44 0 76 26.5t53 70t31 100t10 117.5q0 63 -10.5 121.5
t-32 104t-55.5 73t-81 27.5q-44 0 -76 -26.5t-53 -70t-31 -100t-10 -117.5q0 -63 10.5 -121.5t32 -104t55.5 -73t81 -27.5zM436 747q-22 0 -40.5 9t-35 20.5t-32.5 20.5t-32 9q-22 0 -38 -14t-32 -42l-27 15q26 66 50.5 96t62.5 30q22 0 40.5 -9.5t34.5 -20.5l32 -21
q16 -9 33 -9q22 0 38 14.5t32 42.5l27 -16q-26 -65 -50.5 -95t-62.5 -30z" />
    <glyph glyph-name="Odieresis" unicode="&#xd6;" horiz-adv-x="722" 
d="M355 -10q-80 0 -140.5 28.5t-101.5 76t-62 110.5t-21 132q0 86 25.5 155.5t71 118t107 75t133.5 26.5q79 0 139.5 -28.5t102 -76t62.5 -110.5t21 -132q0 -86 -25.5 -155.5t-71 -118t-107 -75t-133.5 -26.5zM365 31q44 0 76 26.5t53 70t31 100t10 117.5q0 63 -10.5 121.5
t-32 104t-55.5 73t-81 27.5q-44 0 -76 -26.5t-53 -70t-31 -100t-10 -117.5q0 -63 10.5 -121.5t32 -104t55.5 -73t81 -27.5zM390 822q0 30 21 51.5t51 21.5q32 0 53 -21.5t21 -51.5q0 -29 -21 -51t-53 -22q-30 0 -51 22t-21 51zM191 822q0 30 21 51.5t51 21.5
q31 0 52.5 -21.5t21.5 -51.5q0 -29 -21.5 -51t-52.5 -22q-30 0 -51 22t-21 51z" />
    <glyph glyph-name="multiply" unicode="&#xd7;" horiz-adv-x="493" 
d="M66 506l40 40l140 -141l140 141l41 -40l-140 -140l140 -140l-41 -41l-140 141l-140 -141l-40 41l140 140z" />
    <glyph glyph-name="Oslash" unicode="&#xd8;" horiz-adv-x="722" 
d="M365 31q44 0 76 26.5t53 70t31 100t10 117.5q0 95 -23 175l-279 -399q22 -42 54.5 -66t77.5 -24zM186 357q0 -52 7 -101t21 -91l281 401q-22 48 -56.5 76.5t-82.5 28.5q-44 0 -76 -26.5t-53 -70t-31 -100t-10 -117.5zM355 -10q-54 0 -98.5 13t-80.5 36l-67 -95l-33 23
l67 97q-56 49 -84.5 120.5t-28.5 152.5q0 86 25.5 155.5t71 118t107 75t133.5 26.5q57 0 104 -15.5t85 -42.5l63 90l33 -24l-64 -91q51 -49 77.5 -117.5t26.5 -146.5q0 -86 -25.5 -155.5t-71 -118t-107 -75t-133.5 -26.5z" />
    <glyph glyph-name="Ugrave" unicode="&#xd9;" horiz-adv-x="733" 
d="M238 254q0 -92 40 -144t123 -52q41 0 75.5 11.5t59 35.5t38 62.5t13.5 92.5v337q0 20 -3.5 32.5t-13.5 20t-28.5 11t-49.5 6.5v35h229v-35q-26 -3 -42 -6.5t-24.5 -11t-11 -20t-2.5 -32.5v-355q0 -65 -21 -112t-57 -78.5t-84.5 -46.5t-103.5 -15q-133 0 -208 62.5
t-75 191.5v354q0 21 -2.5 33t-11 19t-24.5 10.5t-42 6.5v35h306v-35q-26 -3 -42 -6.5t-24.5 -10.5t-11 -19t-2.5 -33v-344zM391 896l52 -149h-37l-159 142v7h144z" />
    <glyph glyph-name="Uacute" unicode="&#xda;" horiz-adv-x="733" 
d="M238 254q0 -92 40 -144t123 -52q41 0 75.5 11.5t59 35.5t38 62.5t13.5 92.5v337q0 20 -3.5 32.5t-13.5 20t-28.5 11t-49.5 6.5v35h229v-35q-26 -3 -42 -6.5t-24.5 -11t-11 -20t-2.5 -32.5v-355q0 -65 -21 -112t-57 -78.5t-84.5 -46.5t-103.5 -15q-133 0 -208 62.5
t-75 191.5v354q0 21 -2.5 33t-11 19t-24.5 10.5t-42 6.5v35h306v-35q-26 -3 -42 -6.5t-24.5 -10.5t-11 -19t-2.5 -33v-344zM550 896v-7l-159 -142h-37l52 149h144z" />
    <glyph glyph-name="Ucircumflex" unicode="&#xdb;" horiz-adv-x="733" 
d="M570 747h-40l-133 82l-133 -82h-40l125 156h96zM238 254q0 -92 40 -144t123 -52q41 0 75.5 11.5t59 35.5t38 62.5t13.5 92.5v337q0 20 -3.5 32.5t-13.5 20t-28.5 11t-49.5 6.5v35h229v-35q-26 -3 -42 -6.5t-24.5 -11t-11 -20t-2.5 -32.5v-355q0 -65 -21 -112t-57 -78.5
t-84.5 -46.5t-103.5 -15q-133 0 -208 62.5t-75 191.5v354q0 21 -2.5 33t-11 19t-24.5 10.5t-42 6.5v35h306v-35q-26 -3 -42 -6.5t-24.5 -10.5t-11 -19t-2.5 -33v-344z" />
    <glyph glyph-name="Udieresis" unicode="&#xdc;" horiz-adv-x="733" 
d="M238 254q0 -92 40 -144t123 -52q41 0 75.5 11.5t59 35.5t38 62.5t13.5 92.5v337q0 20 -3.5 32.5t-13.5 20t-28.5 11t-49.5 6.5v35h229v-35q-26 -3 -42 -6.5t-24.5 -11t-11 -20t-2.5 -32.5v-355q0 -65 -21 -112t-57 -78.5t-84.5 -46.5t-103.5 -15q-133 0 -208 62.5
t-75 191.5v354q0 21 -2.5 33t-11 19t-24.5 10.5t-42 6.5v35h306v-35q-26 -3 -42 -6.5t-24.5 -10.5t-11 -19t-2.5 -33v-344zM424 822q0 30 21 51.5t51 21.5q32 0 53 -21.5t21 -51.5q0 -29 -21 -51t-53 -22q-30 0 -51 22t-21 51zM225 822q0 30 21 51.5t51 21.5
q31 0 52.5 -21.5t21.5 -51.5q0 -29 -21.5 -51t-52.5 -22q-30 0 -51 22t-21 51z" />
    <glyph glyph-name="Yacute" unicode="&#xdd;" horiz-adv-x="666" 
d="M515 896v-7l-159 -142h-37l52 149h144zM407 101q0 -21 4.5 -32.5t15 -18t27.5 -9.5t42 -6v-35h-321v35q25 3 42.5 6t28 9.5t15 18t4.5 32.5v169l-201 360q-11 20 -24.5 27t-34.5 10v35h301v-35q-46 -2 -62 -9t-16 -27q0 -14 6 -26l15 -29l139 -243l130 241q7 14 14 29.5
t7 27.5q0 20 -18 27t-61 9v35h201v-35q-21 -3 -35 -10.5t-24 -26.5l-195 -358v-171z" />
    <glyph glyph-name="Thorn" unicode="&#xde;" horiz-adv-x="626" 
d="M254 189h43q84 0 123 44.5t39 124.5q0 75 -40.5 123t-121.5 48h-43v-340zM254 569h79q70 0 122 -16.5t86.5 -45t51 -66t16.5 -80.5q0 -98 -69 -156.5t-209 -58.5h-77v-35q0 -21 5.5 -34.5t19.5 -22t37 -12.5t58 -6v-36h-347v35q26 3 42 6.5t24.5 10.5t11 19t2.5 33v494
q0 21 -2.5 33t-11 19t-24.5 10.5t-42 6.5v35h307v-35q-26 -3 -42 -6.5t-24.5 -10.5t-11 -19t-2.5 -33v-29z" />
    <glyph glyph-name="germandbls" unicode="&#xdf;" horiz-adv-x="668" 
d="M334 783q47 0 84.5 -11t64 -30.5t41 -46.5t14.5 -59q0 -29 -10.5 -50.5t-26 -38.5t-33.5 -30l-34 -26q-16 -12 -26.5 -24.5t-10.5 -28.5q0 -12 8.5 -22.5t23.5 -21t36 -21.5l46 -27q29 -17 53.5 -34.5t42 -39t27.5 -48t10 -62.5q0 -39 -15 -71t-41.5 -54.5t-61.5 -34.5
t-75 -12q-51 0 -91 14t-69 39l-6 131h38q7 -31 18.5 -58t28 -47t37.5 -31.5t47 -11.5q41 0 63.5 22t22.5 60q0 22 -7.5 39t-22 31.5t-35.5 28.5t-49 30q-57 32 -83.5 62.5t-26.5 75.5q0 24 9.5 44t23 38t30 36t30 39t23 46.5t9.5 58.5q0 51 -25 82.5t-79 31.5q-58 0 -86 -44
t-28 -124v-583h-201v33q35 2 48.5 10t13.5 34v407h-73v27l74 24v22q3 57 23 99t53.5 70.5t77.5 42.5t95 14z" />
    <glyph glyph-name="agrave" unicode="&#xe0;" horiz-adv-x="524" 
d="M249 763l55 -166h-35l-161 159v7h141zM449 111q0 -26 6.5 -41t26.5 -15q11 0 21.5 3t18.5 7l6 -22q-45 -53 -114 -53q-41 0 -66.5 23t-33.5 65q-12 -16 -28 -31.5t-35.5 -27.5t-42.5 -19.5t-50 -7.5q-61 0 -98 34.5t-37 94.5q0 32 11 55.5t29.5 40.5t43.5 29.5t53 23.5
l151 55v85q0 43 -16 70.5t-55 27.5q-36 0 -51.5 -24t-15.5 -60q0 -15 2 -30t6 -32l-83 -11q-20 7 -32 22.5t-12 40.5q0 31 15 54.5t41.5 39.5t62.5 24t78 8q97 0 147.5 -38t50.5 -126v-265zM234 70q22 0 39 8t38 24v187l-86 -35q-32 -12 -50 -32.5t-18 -62.5q0 -39 18.5 -64
t58.5 -25z" />
    <glyph glyph-name="aacute" unicode="&#xe1;" horiz-adv-x="524" 
d="M409 763v-7l-161 -159h-35l55 166h141zM449 111q0 -26 6.5 -41t26.5 -15q11 0 21.5 3t18.5 7l6 -22q-45 -53 -114 -53q-41 0 -66.5 23t-33.5 65q-12 -16 -28 -31.5t-35.5 -27.5t-42.5 -19.5t-50 -7.5q-61 0 -98 34.5t-37 94.5q0 32 11 55.5t29.5 40.5t43.5 29.5t53 23.5
l151 55v85q0 43 -16 70.5t-55 27.5q-36 0 -51.5 -24t-15.5 -60q0 -15 2 -30t6 -32l-83 -11q-20 7 -32 22.5t-12 40.5q0 31 15 54.5t41.5 39.5t62.5 24t78 8q97 0 147.5 -38t50.5 -126v-265zM234 70q22 0 39 8t38 24v187l-86 -35q-32 -12 -50 -32.5t-18 -62.5q0 -39 18.5 -64
t58.5 -25z" />
    <glyph glyph-name="acircumflex" unicode="&#xe2;" horiz-adv-x="524" 
d="M419 594h-43l-119 96l-119 -96h-43l114 171h96zM449 111q0 -26 6.5 -41t26.5 -15q11 0 21.5 3t18.5 7l6 -22q-45 -53 -114 -53q-41 0 -66.5 23t-33.5 65q-12 -16 -28 -31.5t-35.5 -27.5t-42.5 -19.5t-50 -7.5q-61 0 -98 34.5t-37 94.5q0 32 11 55.5t29.5 40.5t43.5 29.5
t53 23.5l151 55v85q0 43 -16 70.5t-55 27.5q-36 0 -51.5 -24t-15.5 -60q0 -15 2 -30t6 -32l-83 -11q-20 7 -32 22.5t-12 40.5q0 31 15 54.5t41.5 39.5t62.5 24t78 8q97 0 147.5 -38t50.5 -126v-265zM234 70q22 0 39 8t38 24v187l-86 -35q-32 -12 -50 -32.5t-18 -62.5
q0 -39 18.5 -64t58.5 -25z" />
    <glyph glyph-name="atilde" unicode="&#xe3;" horiz-adv-x="524" 
d="M318 601q-22 0 -39.5 9.5t-33 20.5t-30.5 20.5t-32 9.5q-21 0 -36 -14.5t-30 -41.5l-28 15q13 32 25 55.5t24.5 39t27 23t33.5 7.5q22 0 39.5 -9t33.5 -20.5t30.5 -20.5t31.5 -9q22 0 36.5 14t30.5 42l27 -15q-26 -65 -49 -95.5t-61 -30.5zM449 111q0 -26 6.5 -41
t26.5 -15q11 0 21.5 3t18.5 7l6 -22q-45 -53 -114 -53q-41 0 -66.5 23t-33.5 65q-12 -16 -28 -31.5t-35.5 -27.5t-42.5 -19.5t-50 -7.5q-61 0 -98 34.5t-37 94.5q0 32 11 55.5t29.5 40.5t43.5 29.5t53 23.5l151 55v85q0 43 -16 70.5t-55 27.5q-36 0 -51.5 -24t-15.5 -60
q0 -15 2 -30t6 -32l-83 -11q-20 7 -32 22.5t-12 40.5q0 31 15 54.5t41.5 39.5t62.5 24t78 8q97 0 147.5 -38t50.5 -126v-265zM234 70q22 0 39 8t38 24v187l-86 -35q-32 -12 -50 -32.5t-18 -62.5q0 -39 18.5 -64t58.5 -25z" />
    <glyph glyph-name="adieresis" unicode="&#xe4;" horiz-adv-x="524" 
d="M281 679q0 30 21.5 51.5t50.5 21.5q32 0 53 -21.5t21 -51.5t-21 -51.5t-53 -21.5q-29 0 -50.5 21.5t-21.5 51.5zM87 679q0 30 21.5 51.5t51.5 21.5q31 0 52.5 -21.5t21.5 -51.5t-21.5 -51.5t-52.5 -21.5q-30 0 -51.5 21.5t-21.5 51.5zM449 111q0 -26 6.5 -41t26.5 -15
q11 0 21.5 3t18.5 7l6 -22q-45 -53 -114 -53q-41 0 -66.5 23t-33.5 65q-12 -16 -28 -31.5t-35.5 -27.5t-42.5 -19.5t-50 -7.5q-61 0 -98 34.5t-37 94.5q0 32 11 55.5t29.5 40.5t43.5 29.5t53 23.5l151 55v85q0 43 -16 70.5t-55 27.5q-36 0 -51.5 -24t-15.5 -60q0 -15 2 -30
t6 -32l-83 -11q-20 7 -32 22.5t-12 40.5q0 31 15 54.5t41.5 39.5t62.5 24t78 8q97 0 147.5 -38t50.5 -126v-265zM234 70q22 0 39 8t38 24v187l-86 -35q-32 -12 -50 -32.5t-18 -62.5q0 -39 18.5 -64t58.5 -25z" />
    <glyph glyph-name="aring" unicode="&#xe5;" horiz-adv-x="524" 
d="M161 665q0 41 27 67.5t69 26.5t68 -26.5t26 -67.5q0 -39 -26 -66t-68 -27t-69 27t-27 66zM205 665q0 -23 13 -38.5t39 -15.5q25 0 38.5 15.5t13.5 38.5q0 24 -13.5 39.5t-38.5 15.5q-26 0 -39 -15.5t-13 -39.5zM449 111q0 -26 6.5 -41t26.5 -15q11 0 21.5 3t18.5 7l6 -22
q-45 -53 -114 -53q-41 0 -66.5 23t-33.5 65q-12 -16 -28 -31.5t-35.5 -27.5t-42.5 -19.5t-50 -7.5q-61 0 -98 34.5t-37 94.5q0 32 11 55.5t29.5 40.5t43.5 29.5t53 23.5l151 55v85q0 43 -16 70.5t-55 27.5q-36 0 -51.5 -24t-15.5 -60q0 -15 2 -30t6 -32l-83 -11
q-20 7 -32 22.5t-12 40.5q0 31 15 54.5t41.5 39.5t62.5 24t78 8q97 0 147.5 -38t50.5 -126v-265zM234 70q22 0 39 8t38 24v187l-86 -35q-32 -12 -50 -32.5t-18 -62.5q0 -39 18.5 -64t58.5 -25z" />
    <glyph glyph-name="ae" unicode="&#xe6;" horiz-adv-x="763" 
d="M528 503q-25 0 -43 -12t-30.5 -33.5t-20 -51t-10.5 -63.5h194q0 35 -5 64.5t-15.5 50.5t-28 33t-41.5 12zM240 70q20 0 43.5 8.5t47.5 25.5q-34 62 -34 147v16q0 7 1 15l-68 -26q-35 -14 -54 -34.5t-19 -62.5q0 -39 19 -64t64 -25zM540 540q49 0 87 -16.5t63.5 -45
t38.5 -67t13 -83.5v-22h-320q-2 -52 9.5 -93t33 -69.5t52 -43.5t68.5 -15q49 0 84 21t62 60l16 -9q-19 -75 -73 -121t-141 -46q-63 0 -110.5 24.5t-78.5 68.5q-31 -37 -74 -64t-109 -27q-63 0 -100.5 34.5t-37.5 94.5q0 32 11 55.5t29.5 40.5t43.5 29.5t53 23.5l143 50
q5 25 12 47q0 31 -5 56.5t-14.5 44.5t-24.5 29.5t-36 10.5q-32 0 -47 -24t-15 -60q0 -15 2 -30t6 -32l-83 -11q-20 7 -32 22.5t-12 40.5q0 31 15 54.5t41 39.5t60.5 24t73.5 8q49 0 85.5 -14.5t57.5 -44.5q31 29 69.5 44t83.5 15z" />
    <glyph glyph-name="ccedilla" unicode="&#xe7;" horiz-adv-x="472" 
d="M142 -195q54 0 82.5 14.5t28.5 35.5q0 22 -21.5 30t-61.5 10l40 99q-42 7 -76.5 28t-59 53.5t-38.5 76t-14 95.5q0 63 18 116.5t52 92.5t82 61.5t107 22.5q74 0 120 -29.5t46 -87.5q0 -24 -11 -41.5t-27 -25.5h-76q2 12 3 23.5t1 25.5q0 40 -15.5 68.5t-57.5 28.5
q-29 0 -51 -15t-37.5 -41.5t-23.5 -62.5t-8 -78q0 -49 11 -89t31.5 -68t50.5 -43.5t68 -15.5q48 0 81.5 18.5t58.5 55.5l17 -10q-23 -82 -76.5 -122.5t-130.5 -40.5h-14l-14 -34q47 0 75 -20t28 -58q0 -27 -14 -46.5t-39 -32.5t-58 -19t-70 -6z" />
    <glyph glyph-name="egrave" unicode="&#xe8;" horiz-adv-x="495" 
d="M269 763l55 -166h-35l-161 159v7h141zM260 503q-50 0 -77 -44.5t-33 -113.5h200q0 71 -20.5 114.5t-69.5 43.5zM270 540q50 0 88.5 -16t64 -43.5t38.5 -66t13 -83.5v-23h-326q-2 -53 10 -94t34.5 -70t53.5 -44t68 -15q51 0 86.5 21t62.5 60l16 -9q-20 -75 -73.5 -121
t-140.5 -46q-54 0 -99 19t-76.5 53.5t-49 82.5t-17.5 106q0 64 19.5 117t53 91.5t78.5 59.5t96 21z" />
    <glyph glyph-name="eacute" unicode="&#xe9;" horiz-adv-x="495" 
d="M260 503q-50 0 -77 -44.5t-33 -113.5h200q0 71 -20.5 114.5t-69.5 43.5zM270 540q50 0 88.5 -16t64 -43.5t38.5 -66t13 -83.5v-23h-326q-2 -53 10 -94t34.5 -70t53.5 -44t68 -15q51 0 86.5 21t62.5 60l16 -9q-20 -75 -73.5 -121t-140.5 -46q-54 0 -99 19t-76.5 53.5
t-49 82.5t-17.5 106q0 64 19.5 117t53 91.5t78.5 59.5t96 21zM428 763v-7l-161 -159h-35l55 166h141z" />
    <glyph glyph-name="ecircumflex" unicode="&#xea;" horiz-adv-x="495" 
d="M260 503q-50 0 -77 -44.5t-33 -113.5h200q0 71 -20.5 114.5t-69.5 43.5zM270 540q50 0 88.5 -16t64 -43.5t38.5 -66t13 -83.5v-23h-326q-2 -53 10 -94t34.5 -70t53.5 -44t68 -15q51 0 86.5 21t62.5 60l16 -9q-20 -75 -73.5 -121t-140.5 -46q-54 0 -99 19t-76.5 53.5
t-49 82.5t-17.5 106q0 64 19.5 117t53 91.5t78.5 59.5t96 21zM435 594h-43l-119 96l-119 -96h-43l114 171h96z" />
    <glyph glyph-name="edieresis" unicode="&#xeb;" horiz-adv-x="495" 
d="M260 503q-50 0 -77 -44.5t-33 -113.5h200q0 71 -20.5 114.5t-69.5 43.5zM270 540q50 0 88.5 -16t64 -43.5t38.5 -66t13 -83.5v-23h-326q-2 -53 10 -94t34.5 -70t53.5 -44t68 -15q51 0 86.5 21t62.5 60l16 -9q-20 -75 -73.5 -121t-140.5 -46q-54 0 -99 19t-76.5 53.5
t-49 82.5t-17.5 106q0 64 19.5 117t53 91.5t78.5 59.5t96 21zM297 679q0 30 21.5 51.5t50.5 21.5q32 0 53 -21.5t21 -51.5t-21 -51.5t-53 -21.5q-29 0 -50.5 21.5t-21.5 51.5zM103 679q0 30 21.5 51.5t51.5 21.5q31 0 52.5 -21.5t21.5 -51.5t-21.5 -51.5t-52.5 -21.5
q-30 0 -51.5 21.5t-21.5 51.5z" />
    <glyph glyph-name="igrave" unicode="&#xec;" horiz-adv-x="300" 
d="M148 763l55 -166h-35l-161 159v7h141zM222 77q0 -26 14 -34t49 -10v-33h-264v33q35 2 49 10t14 34v354l-60 35v19l176 55h22v-463z" />
    <glyph glyph-name="iacute" unicode="&#xed;" horiz-adv-x="300" 
d="M222 77q0 -26 14 -34t49 -10v-33h-264v33q35 2 49 10t14 34v354l-60 35v19l176 55h22v-463zM307 763v-7l-161 -159h-35l55 166h141z" />
    <glyph glyph-name="icircumflex" unicode="&#xee;" horiz-adv-x="300" 
d="M222 77q0 -26 14 -34t49 -10v-33h-264v33q35 2 49 10t14 34v354l-60 35v19l176 55h22v-463zM297 594h-39l-107 96l-108 -96h-39l103 171h87z" />
    <glyph glyph-name="idieresis" unicode="&#xef;" horiz-adv-x="300" 
d="M222 77q0 -26 14 -34t49 -10v-33h-264v33q35 2 49 10t14 34v354l-60 35v19l176 55h22v-463zM171 679q0 30 21.5 51.5t51.5 21.5q31 0 52.5 -21.5t21.5 -51.5t-21.5 -51.5t-52.5 -21.5q-30 0 -51.5 21.5t-21.5 51.5zM-16 679q0 30 21 51.5t52 21.5t52 -21.5t21 -51.5
t-21 -51.5t-52 -21.5t-52 21.5t-21 51.5z" />
    <glyph glyph-name="eth" unicode="&#xf0;" horiz-adv-x="560" 
d="M284 26q28 0 48 15.5t33.5 43.5t20 68t6.5 89q0 55 -6.5 103t-20.5 83t-35.5 55t-51.5 20q-56 0 -82 -58.5t-26 -156.5q0 -56 6.5 -103.5t20.5 -83t35.5 -55.5t51.5 -20zM106 622l151 52q-29 27 -65.5 48t-80.5 35l16 28q60 -13 111.5 -34.5t93.5 -50.5l115 40l12 -36
l-90 -31q85 -70 127 -164t42 -195q0 -73 -18 -133t-51 -102.5t-81 -65.5t-108 -23q-58 0 -105.5 20t-81.5 55.5t-52.5 84.5t-18.5 108q0 65 20.5 117t54.5 88.5t79 56t93 19.5q37 0 63.5 -14t43.5 -37q-13 39 -35 79.5t-55 77.5l-168 -58z" />
    <glyph glyph-name="ntilde" unicode="&#xf1;" horiz-adv-x="623" 
d="M387 601q-22 0 -39.5 9.5t-33 20.5t-30.5 20.5t-32 9.5q-21 0 -36 -14.5t-30 -41.5l-28 15q13 32 25 55.5t24.5 39t27 23t33.5 7.5q22 0 39.5 -9t33.5 -20.5t30.5 -20.5t31.5 -9q22 0 36.5 14t30.5 42l27 -15q-26 -65 -49 -95.5t-61 -30.5zM411 369q0 44 -17.5 65.5
t-59.5 21.5q-32 0 -60 -12t-52 -29v-338q0 -26 13 -34t48 -10v-33h-262v33q35 2 49 10t14 34v354l-60 35v19l179 55h23l-4 -98q16 19 35 36.5t41.5 31t49.5 22t59 8.5q143 0 143 -163v-300q0 -26 13.5 -34t48.5 -10v-33h-262v33q35 2 48 10t13 34v292z" />
    <glyph glyph-name="ograve" unicode="&#xf2;" horiz-adv-x="561" 
d="M275 763l55 -166h-35l-161 159v7h141zM279 -10q-57 0 -104.5 18.5t-81.5 53t-52.5 83t-18.5 108.5q0 64 19.5 116.5t54.5 90.5t82.5 59t103.5 21q57 0 104.5 -19t81.5 -53.5t52.5 -83.5t18.5 -108q0 -64 -19.5 -116.5t-54.5 -90t-82.5 -58.5t-103.5 -21zM284 26
q28 0 48 15.5t33 43.5t19.5 68t6.5 89q0 55 -6.5 103t-20.5 83t-35.5 55t-51.5 20q-56 0 -82 -58.5t-26 -156.5q0 -56 6.5 -103.5t21 -83t36 -55.5t51.5 -20z" />
    <glyph glyph-name="oacute" unicode="&#xf3;" horiz-adv-x="561" 
d="M279 -10q-57 0 -104.5 18.5t-81.5 53t-52.5 83t-18.5 108.5q0 64 19.5 116.5t54.5 90.5t82.5 59t103.5 21q57 0 104.5 -19t81.5 -53.5t52.5 -83.5t18.5 -108q0 -64 -19.5 -116.5t-54.5 -90t-82.5 -58.5t-103.5 -21zM284 26q28 0 48 15.5t33 43.5t19.5 68t6.5 89
q0 55 -6.5 103t-20.5 83t-35.5 55t-51.5 20q-56 0 -82 -58.5t-26 -156.5q0 -56 6.5 -103.5t21 -83t36 -55.5t51.5 -20zM434 763v-7l-161 -159h-35l55 166h141z" />
    <glyph glyph-name="ocircumflex" unicode="&#xf4;" horiz-adv-x="561" 
d="M279 -10q-57 0 -104.5 18.5t-81.5 53t-52.5 83t-18.5 108.5q0 64 19.5 116.5t54.5 90.5t82.5 59t103.5 21q57 0 104.5 -19t81.5 -53.5t52.5 -83.5t18.5 -108q0 -64 -19.5 -116.5t-54.5 -90t-82.5 -58.5t-103.5 -21zM284 26q28 0 48 15.5t33 43.5t19.5 68t6.5 89
q0 55 -6.5 103t-20.5 83t-35.5 55t-51.5 20q-56 0 -82 -58.5t-26 -156.5q0 -56 6.5 -103.5t21 -83t36 -55.5t51.5 -20zM444 594h-43l-119 96l-119 -96h-43l114 171h96z" />
    <glyph glyph-name="otilde" unicode="&#xf5;" horiz-adv-x="561" 
d="M347 601q-22 0 -39.5 9.5t-33 20.5t-30.5 20.5t-32 9.5q-21 0 -36 -14.5t-30 -41.5l-28 15q13 32 25 55.5t24.5 39t27 23t33.5 7.5q22 0 39.5 -9t33.5 -20.5t30.5 -20.5t31.5 -9q22 0 36.5 14t30.5 42l27 -15q-26 -65 -49 -95.5t-61 -30.5zM279 -10q-57 0 -104.5 18.5
t-81.5 53t-52.5 83t-18.5 108.5q0 64 19.5 116.5t54.5 90.5t82.5 59t103.5 21q57 0 104.5 -19t81.5 -53.5t52.5 -83.5t18.5 -108q0 -64 -19.5 -116.5t-54.5 -90t-82.5 -58.5t-103.5 -21zM284 26q28 0 48 15.5t33 43.5t19.5 68t6.5 89q0 55 -6.5 103t-20.5 83t-35.5 55
t-51.5 20q-56 0 -82 -58.5t-26 -156.5q0 -56 6.5 -103.5t21 -83t36 -55.5t51.5 -20z" />
    <glyph glyph-name="odieresis" unicode="&#xf6;" horiz-adv-x="561" 
d="M279 -10q-57 0 -104.5 18.5t-81.5 53t-52.5 83t-18.5 108.5q0 64 19.5 116.5t54.5 90.5t82.5 59t103.5 21q57 0 104.5 -19t81.5 -53.5t52.5 -83.5t18.5 -108q0 -64 -19.5 -116.5t-54.5 -90t-82.5 -58.5t-103.5 -21zM284 26q28 0 48 15.5t33 43.5t19.5 68t6.5 89
q0 55 -6.5 103t-20.5 83t-35.5 55t-51.5 20q-56 0 -82 -58.5t-26 -156.5q0 -56 6.5 -103.5t21 -83t36 -55.5t51.5 -20zM306 679q0 30 21.5 51.5t50.5 21.5q32 0 53 -21.5t21 -51.5t-21 -51.5t-53 -21.5q-29 0 -50.5 21.5t-21.5 51.5zM112 679q0 30 21.5 51.5t51.5 21.5
q31 0 52.5 -21.5t21.5 -51.5t-21.5 -51.5t-52.5 -21.5q-30 0 -51.5 21.5t-21.5 51.5z" />
    <glyph glyph-name="divide" unicode="&#xf7;" horiz-adv-x="569" 
d="M228 538q0 23 16.5 39t39.5 16t39.5 -16t16.5 -39t-16.5 -39.5t-39.5 -16.5t-39.5 16.5t-16.5 39.5zM228 203q0 23 16.5 39.5t39.5 16.5t39.5 -16.5t16.5 -39.5t-16.5 -39.5t-39.5 -16.5t-39.5 16.5t-16.5 39.5zM64 400h441v-60h-441v60z" />
    <glyph glyph-name="oslash" unicode="&#xf8;" horiz-adv-x="561" 
d="M284 26q28 0 48 15.5t33 43.5t19.5 68t6.5 89q0 76 -12 135l-185 -271q14 -38 36 -59t54 -21zM169 288q0 -79 13 -137l184 271q-14 38 -36 59.5t-53 21.5q-56 0 -82 -58.5t-26 -156.5zM279 -10q-81 0 -140 35l-52 -77l-30 20l53 78q-42 35 -65 87.5t-23 119.5
q0 64 19.5 116.5t54.5 90.5t82.5 59t103.5 21q40 0 75 -9.5t64 -26.5l53 77l30 -20l-53 -78q42 -35 65 -88t23 -119q0 -64 -19.5 -116.5t-54.5 -90t-82.5 -58.5t-103.5 -21z" />
    <glyph glyph-name="ugrave" unicode="&#xf9;" horiz-adv-x="601" 
d="M292 763l55 -166h-35l-161 159v7h141zM524 106q0 -13 1 -21.5t5 -14t12 -8.5t22 -4l25 -2v-30l-182 -36h-25l3 96q-16 -18 -34 -35t-39 -30.5t-46 -22t-55 -8.5q-66 0 -105.5 38.5t-39.5 123.5v260q0 25 -8.5 38t-37.5 18l-16 3v30l184 38h22l-5 -119v-250
q0 -46 18 -71.5t60 -25.5q30 0 54 11t48 27v301q0 25 -8.5 38t-37.5 18l-15 3v30l182 38h22l-4 -117v-316z" />
    <glyph glyph-name="uacute" unicode="&#xfa;" horiz-adv-x="601" 
d="M524 106q0 -13 1 -21.5t5 -14t12 -8.5t22 -4l25 -2v-30l-182 -36h-25l3 96q-16 -18 -34 -35t-39 -30.5t-46 -22t-55 -8.5q-66 0 -105.5 38.5t-39.5 123.5v260q0 25 -8.5 38t-37.5 18l-16 3v30l184 38h22l-5 -119v-250q0 -46 18 -71.5t60 -25.5q30 0 54 11t48 27v301
q0 25 -8.5 38t-37.5 18l-15 3v30l182 38h22l-4 -117v-316zM451 763v-7l-161 -159h-35l55 166h141z" />
    <glyph glyph-name="ucircumflex" unicode="&#xfb;" horiz-adv-x="601" 
d="M524 106q0 -13 1 -21.5t5 -14t12 -8.5t22 -4l25 -2v-30l-182 -36h-25l3 96q-16 -18 -34 -35t-39 -30.5t-46 -22t-55 -8.5q-66 0 -105.5 38.5t-39.5 123.5v260q0 25 -8.5 38t-37.5 18l-16 3v30l184 38h22l-5 -119v-250q0 -46 18 -71.5t60 -25.5q30 0 54 11t48 27v301
q0 25 -8.5 38t-37.5 18l-15 3v30l182 38h22l-4 -117v-316zM461 594h-43l-119 96l-119 -96h-43l114 171h96z" />
    <glyph glyph-name="udieresis" unicode="&#xfc;" horiz-adv-x="601" 
d="M524 106q0 -13 1 -21.5t5 -14t12 -8.5t22 -4l25 -2v-30l-182 -36h-25l3 96q-16 -18 -34 -35t-39 -30.5t-46 -22t-55 -8.5q-66 0 -105.5 38.5t-39.5 123.5v260q0 25 -8.5 38t-37.5 18l-16 3v30l184 38h22l-5 -119v-250q0 -46 18 -71.5t60 -25.5q30 0 54 11t48 27v301
q0 25 -8.5 38t-37.5 18l-15 3v30l182 38h22l-4 -117v-316zM323 679q0 30 21.5 51.5t50.5 21.5q32 0 53 -21.5t21 -51.5t-21 -51.5t-53 -21.5q-29 0 -50.5 21.5t-21.5 51.5zM129 679q0 30 21.5 51.5t51.5 21.5q31 0 52.5 -21.5t21.5 -51.5t-21.5 -51.5t-52.5 -21.5
q-30 0 -51.5 21.5t-21.5 51.5z" />
    <glyph glyph-name="yacute" unicode="&#xfd;" horiz-adv-x="563" 
d="M466 763v-7l-161 -159h-35l55 166h141zM447 435q7 17 7 28q0 17 -14.5 23t-53.5 11v33h172v-33q-26 -8 -35 -15t-16 -23l-220 -554q-25 -61 -54 -93t-78 -32q-26 0 -47.5 12t-29.5 34v51q16 -4 31 -6.5t37 -2.5q41 0 66.5 14t41.5 56l17 43l-215 478q-7 16 -15.5 23
t-35.5 15v33h272v-33q-38 -5 -53 -11t-15 -23q0 -10 6 -28l120 -296z" />
    <glyph glyph-name="thorn" unicode="&#xfe;" horiz-adv-x="597" 
d="M68 683l-60 31v21l178 48h21v-337q26 38 67 66t101 28q92 0 146 -63.5t54 -179.5q0 -74 -21 -131t-57 -96t-85 -59.5t-105 -20.5q-30 0 -56.5 7t-43.5 21v-150q0 -14 4 -22.5t13.5 -13.5t25.5 -7t40 -4v-33h-284v33q35 2 48.5 10t13.5 34v818zM434 248q0 46 -8.5 84.5
t-25.5 66t-43 42.5t-61 15q-25 0 -48.5 -9.5t-40.5 -25.5v-278q0 -115 92 -115q32 0 57 17t42.5 47t26.5 70t9 86z" />
    <glyph glyph-name="ydieresis" unicode="&#xff;" horiz-adv-x="563" 
d="M337 679q0 30 21.5 51.5t50.5 21.5q32 0 53 -21.5t21 -51.5t-21 -51.5t-53 -21.5q-29 0 -50.5 21.5t-21.5 51.5zM143 679q0 30 21.5 51.5t51.5 21.5q31 0 52.5 -21.5t21.5 -51.5t-21.5 -51.5t-52.5 -21.5q-30 0 -51.5 21.5t-21.5 51.5zM447 435q7 17 7 28q0 17 -14.5 23
t-53.5 11v33h172v-33q-26 -8 -35 -15t-16 -23l-220 -554q-25 -61 -54 -93t-78 -32q-26 0 -47.5 12t-29.5 34v51q16 -4 31 -6.5t37 -2.5q41 0 66.5 14t41.5 56l17 43l-215 478q-7 16 -15.5 23t-35.5 15v33h272v-33q-38 -5 -53 -11t-15 -23q0 -10 6 -28l120 -296z" />
    <glyph glyph-name="Amacron" unicode="&#x100;" horiz-adv-x="728" 
d="M200 830h287v-68h-287v68zM193 274h236l-120 301zM446 231h-269l-43 -112q-9 -23 -9 -39q0 -24 20 -33.5t66 -11.5v-35h-206v35q21 3 36 10t23 27l218 560l-31 75h156l257 -635q8 -20 23.5 -27t35.5 -10v-35h-306v35q45 2 64.5 11t19.5 33q0 16 -9 39z" />
    <glyph glyph-name="amacron" unicode="&#x101;" horiz-adv-x="524" 
d="M122 692h269v-68h-269v68zM449 111q0 -26 6.5 -41t26.5 -15q11 0 21.5 3t18.5 7l6 -22q-45 -53 -114 -53q-41 0 -66.5 23t-33.5 65q-12 -16 -28 -31.5t-35.5 -27.5t-42.5 -19.5t-50 -7.5q-61 0 -98 34.5t-37 94.5q0 32 11 55.5t29.5 40.5t43.5 29.5t53 23.5l151 55v85
q0 43 -16 70.5t-55 27.5q-36 0 -51.5 -24t-15.5 -60q0 -15 2 -30t6 -32l-83 -11q-20 7 -32 22.5t-12 40.5q0 31 15 54.5t41.5 39.5t62.5 24t78 8q97 0 147.5 -38t50.5 -126v-265zM234 70q22 0 39 8t38 24v187l-86 -35q-32 -12 -50 -32.5t-18 -62.5q0 -39 18.5 -64t58.5 -25z
" />
    <glyph glyph-name="Abreve" unicode="&#x102;" horiz-adv-x="728" 
d="M344 744q-68 0 -106.5 39.5t-38.5 116.5h37q7 -46 37.5 -62.5t70.5 -16.5q39 0 69.5 16.5t38.5 62.5h37q0 -77 -39 -116.5t-106 -39.5zM193 274h236l-120 301zM446 231h-269l-43 -112q-9 -23 -9 -39q0 -24 20 -33.5t66 -11.5v-35h-206v35q21 3 36 10t23 27l218 560
l-31 75h156l257 -635q8 -20 23.5 -27t35.5 -10v-35h-306v35q45 2 64.5 11t19.5 33q0 16 -9 39z" />
    <glyph glyph-name="abreve" unicode="&#x103;" horiz-adv-x="524" 
d="M256 597q-66 0 -100.5 41.5t-34.5 121.5h38q5 -48 31.5 -66.5t65.5 -18.5q40 0 66.5 18.5t31.5 66.5h38q0 -80 -35 -121.5t-101 -41.5zM449 111q0 -26 6.5 -41t26.5 -15q11 0 21.5 3t18.5 7l6 -22q-45 -53 -114 -53q-41 0 -66.5 23t-33.5 65q-12 -16 -28 -31.5
t-35.5 -27.5t-42.5 -19.5t-50 -7.5q-61 0 -98 34.5t-37 94.5q0 32 11 55.5t29.5 40.5t43.5 29.5t53 23.5l151 55v85q0 43 -16 70.5t-55 27.5q-36 0 -51.5 -24t-15.5 -60q0 -15 2 -30t6 -32l-83 -11q-20 7 -32 22.5t-12 40.5q0 31 15 54.5t41.5 39.5t62.5 24t78 8
q97 0 147.5 -38t50.5 -126v-265zM234 70q22 0 39 8t38 24v187l-86 -35q-32 -12 -50 -32.5t-18 -62.5q0 -39 18.5 -64t58.5 -25z" />
    <glyph glyph-name="Aogonek" unicode="&#x104;" horiz-adv-x="728" 
d="M428 20q38 11 56 22t18 35q0 16 -9 39l-47 115h-269l-43 -112q-9 -23 -9 -39q0 -24 20 -33.5t66 -11.5v-35h-206v35q21 3 36 10t23 27l218 560l-31 75h156l257 -635q8 -20 23.5 -27t35.5 -10v-35h-268q-45 -9 -70 -36t-25 -65q0 -24 12.5 -38.5t36.5 -14.5q21 0 37 6.5
t36 22.5l13 -15q-25 -31 -55.5 -52t-72.5 -21q-39 0 -65 23.5t-26 65.5q0 29 12 51.5t32.5 40t48 30.5t59.5 22zM193 274h236l-120 301z" />
    <glyph glyph-name="aogonek" unicode="&#x105;" horiz-adv-x="524" 
d="M234 70q22 0 39 8t38 24v187l-86 -35q-32 -12 -50 -32.5t-18 -62.5q0 -39 18.5 -64t58.5 -25zM449 111q0 -26 6.5 -41t26.5 -15q11 0 21.5 3t18.5 7l6 -22q-20 -17 -47 -30.5t-51 -28.5t-41 -35.5t-17 -51.5q0 -23 11.5 -37t36.5 -14q22 0 38 6.5t36 22.5l13 -15
q-25 -31 -56 -52t-74 -21q-39 0 -64.5 22.5t-25.5 59.5q0 43 30 71.5t75 51.5q-29 7 -50.5 29.5t-27.5 56.5q-12 -16 -28 -31.5t-35.5 -27.5t-42.5 -19.5t-50 -7.5q-61 0 -98 34.5t-37 94.5q0 32 11 55.5t29.5 40.5t43.5 29.5t53 23.5l151 55v85q0 43 -16 70.5t-55 27.5
q-36 0 -51.5 -24t-15.5 -60q0 -15 2 -30t6 -32l-83 -11q-20 7 -32 22.5t-12 40.5q0 31 15 54.5t41.5 39.5t62.5 24t78 8q97 0 147.5 -38t50.5 -126v-265z" />
    <glyph glyph-name="Cacute" unicode="&#x106;" horiz-adv-x="656" 
d="M544 896v-7l-159 -142h-37l52 149h144zM383 712q67 0 122.5 -15.5t98.5 -43.5l1 -161h-38q-18 88 -62.5 133t-117.5 45q-52 0 -90 -24t-63 -66t-37 -98t-12 -120q0 -70 13.5 -130t40.5 -104.5t66.5 -69.5t90.5 -25q71 0 119 47.5t74 157.5h40l-15 -188
q-45 -29 -102.5 -44.5t-128.5 -15.5q-82 0 -147.5 24.5t-111 69.5t-70 108.5t-24.5 141.5q0 87 27.5 157t75 119t112 75.5t138.5 26.5z" />
    <glyph glyph-name="cacute" unicode="&#x107;" horiz-adv-x="472" 
d="M144 305q0 -49 11 -89t31.5 -68t50.5 -43.5t68 -15.5q48 0 81.5 18.5t58.5 55.5l17 -10q-23 -82 -76.5 -122.5t-130.5 -40.5q-50 0 -93 18t-74 51.5t-48.5 81t-17.5 106.5q0 63 18 116.5t52 92.5t82 61.5t107 22.5q74 0 120 -29.5t46 -87.5q0 -24 -11 -41.5t-27 -25.5
h-76q2 12 3 23.5t1 25.5q0 40 -15.5 68.5t-57.5 28.5q-29 0 -51 -15t-37.5 -41.5t-23.5 -62.5t-8 -78zM429 763v-7l-161 -159h-35l55 166h141z" />
    <glyph glyph-name="Ccircumflex" unicode="&#x108;" horiz-adv-x="656" 
d="M564 747h-40l-133 82l-133 -82h-40l125 156h96zM383 712q67 0 122.5 -15.5t98.5 -43.5l1 -161h-38q-18 88 -62.5 133t-117.5 45q-52 0 -90 -24t-63 -66t-37 -98t-12 -120q0 -70 13.5 -130t40.5 -104.5t66.5 -69.5t90.5 -25q71 0 119 47.5t74 157.5h40l-15 -188
q-45 -29 -102.5 -44.5t-128.5 -15.5q-82 0 -147.5 24.5t-111 69.5t-70 108.5t-24.5 141.5q0 87 27.5 157t75 119t112 75.5t138.5 26.5z" />
    <glyph glyph-name="ccircumflex" unicode="&#x109;" horiz-adv-x="472" 
d="M144 305q0 -49 11 -89t31.5 -68t50.5 -43.5t68 -15.5q48 0 81.5 18.5t58.5 55.5l17 -10q-23 -82 -76.5 -122.5t-130.5 -40.5q-50 0 -93 18t-74 51.5t-48.5 81t-17.5 106.5q0 63 18 116.5t52 92.5t82 61.5t107 22.5q74 0 120 -29.5t46 -87.5q0 -24 -11 -41.5t-27 -25.5
h-76q2 12 3 23.5t1 25.5q0 40 -15.5 68.5t-57.5 28.5q-29 0 -51 -15t-37.5 -41.5t-23.5 -62.5t-8 -78zM435 594h-43l-119 96l-119 -96h-43l114 171h96z" />
    <glyph glyph-name="Cdotaccent" unicode="&#x10a;" horiz-adv-x="656" 
d="M383 712q67 0 122.5 -15.5t98.5 -43.5l1 -161h-38q-18 88 -62.5 133t-117.5 45q-52 0 -90 -24t-63 -66t-37 -98t-12 -120q0 -70 13.5 -130t40.5 -104.5t66.5 -69.5t90.5 -25q71 0 119 47.5t74 157.5h40l-15 -188q-45 -29 -102.5 -44.5t-128.5 -15.5q-82 0 -147.5 24.5
t-111 69.5t-70 108.5t-24.5 141.5q0 87 27.5 157t75 119t112 75.5t138.5 26.5zM391 749q-37 0 -59 23t-22 55t22 55.5t59 23.5q36 0 59 -23.5t23 -55.5t-23 -55t-59 -23z" />
    <glyph glyph-name="cdotaccent" unicode="&#x10b;" horiz-adv-x="472" 
d="M275 602q-37 0 -59 23.5t-22 55.5t22 55.5t59 23.5q36 0 59 -23.5t23 -55.5t-23 -55.5t-59 -23.5zM144 305q0 -49 11 -89t31.5 -68t50.5 -43.5t68 -15.5q48 0 81.5 18.5t58.5 55.5l17 -10q-23 -82 -76.5 -122.5t-130.5 -40.5q-50 0 -93 18t-74 51.5t-48.5 81t-17.5 106.5
q0 63 18 116.5t52 92.5t82 61.5t107 22.5q74 0 120 -29.5t46 -87.5q0 -24 -11 -41.5t-27 -25.5h-76q2 12 3 23.5t1 25.5q0 40 -15.5 68.5t-57.5 28.5q-29 0 -51 -15t-37.5 -41.5t-23.5 -62.5t-8 -78z" />
    <glyph glyph-name="Ccaron" unicode="&#x10c;" horiz-adv-x="656" 
d="M439 747h-96l-125 156h40l133 -82l133 82h40zM383 712q67 0 122.5 -15.5t98.5 -43.5l1 -161h-38q-18 88 -62.5 133t-117.5 45q-52 0 -90 -24t-63 -66t-37 -98t-12 -120q0 -70 13.5 -130t40.5 -104.5t66.5 -69.5t90.5 -25q71 0 119 47.5t74 157.5h40l-15 -188
q-45 -29 -102.5 -44.5t-128.5 -15.5q-82 0 -147.5 24.5t-111 69.5t-70 108.5t-24.5 141.5q0 87 27.5 157t75 119t112 75.5t138.5 26.5z" />
    <glyph glyph-name="ccaron" unicode="&#x10d;" horiz-adv-x="472" 
d="M144 305q0 -49 11 -89t31.5 -68t50.5 -43.5t68 -15.5q48 0 81.5 18.5t58.5 55.5l17 -10q-23 -82 -76.5 -122.5t-130.5 -40.5q-50 0 -93 18t-74 51.5t-48.5 81t-17.5 106.5q0 63 18 116.5t52 92.5t82 61.5t107 22.5q74 0 120 -29.5t46 -87.5q0 -24 -11 -41.5t-27 -25.5
h-76q2 12 3 23.5t1 25.5q0 40 -15.5 68.5t-57.5 28.5q-29 0 -51 -15t-37.5 -41.5t-23.5 -62.5t-8 -78zM324 597h-96l-114 171h43l119 -96l119 96h43z" />
    <glyph glyph-name="Dcaron" unicode="&#x10e;" horiz-adv-x="749" 
d="M27 0v35q26 3 42 6.5t24.5 10.5t11 19t2.5 33v494q0 21 -2.5 33t-11 19t-24.5 10.5t-42 6.5v35h307q99 0 172 -26.5t120 -72.5t70 -107.5t23 -130.5q0 -87 -27 -154.5t-76 -114.5t-116 -71.5t-147 -24.5h-326zM254 662v-551q0 -44 19 -57.5t59 -13.5h18q47 0 86.5 20.5
t68 59.5t44 95.5t15.5 128.5q0 67 -15 125t-46.5 101t-80 67.5t-114.5 24.5h-54zM394 747h-96l-125 156h40l133 -82l133 82h40z" />
    <glyph glyph-name="dcaron" unicode="&#x10f;" horiz-adv-x="601" 
d="M325 714v21l177 48h22v-677q0 -13 1 -21.5t5 -14t12 -8.5t22 -4l25 -2v-30l-182 -36h-26l4 93q-30 -43 -69 -68t-92 -25q-45 0 -82.5 17.5t-64 50.5t-41 79t-14.5 103q0 71 19.5 126.5t54 93.5t81 58t100.5 20q70 0 108 -35v180zM292 495q-63 0 -98 -56.5t-35 -150.5
q0 -46 9 -85t27 -67.5t44.5 -44.5t60.5 -16q50 0 85 32v264q0 59 -24 91.5t-69 32.5zM590 578h-26l16 205h121v-8z" />
    <glyph glyph-name="Dcroat" unicode="&#x110;" horiz-adv-x="759" 
d="M264 662v-279h136v-48h-136v-224q0 -44 19 -57.5t59 -13.5h18q47 0 86.5 20.5t68 59.5t44 95.5t15.5 128.5q0 67 -15 125t-46.5 101t-80 67.5t-114.5 24.5h-54zM37 383h80v215q0 21 -2.5 33t-11 19t-24.5 10.5t-42 6.5v35h307q99 0 172 -26.5t120 -72.5t70 -107.5
t23 -130.5q0 -87 -27 -154.5t-76 -114.5t-116 -71.5t-147 -24.5h-326v35q26 3 42 6.5t24.5 10.5t11 19t2.5 33v231h-80v48z" />
    <glyph glyph-name="dcroat" unicode="&#x111;" horiz-adv-x="601" 
d="M292 495q-63 0 -98 -56.5t-35 -150.5q0 -46 9 -85t27 -67.5t44.5 -44.5t60.5 -16q50 0 85 32v264q0 59 -24 91.5t-69 32.5zM325 714v21l177 48h22v-149h65v-42h-65v-486q0 -13 1 -21.5t5 -14t12 -8.5t22 -4l25 -2v-30l-182 -36h-26l4 93q-30 -43 -69 -68t-92 -25
q-45 0 -82.5 17.5t-64 50.5t-41 79t-14.5 103q0 71 19.5 126.5t54 93.5t81 58t100.5 20q70 0 108 -35v89h-123v42h123v49z" />
    <glyph glyph-name="Emacron" unicode="&#x112;" horiz-adv-x="635" 
d="M27 35q26 3 42 6.5t24.5 10.5t11 19t2.5 33v494q0 21 -2.5 33t-11 19t-24.5 10.5t-42 6.5v35h549l5 -180h-29q-18 41 -34 68t-33.5 43t-39 22.5t-51.5 6.5h-140v-278h127q33 0 47 22t22 70h35v-227h-35q-8 48 -22 69.5t-47 21.5h-127v-232q0 -41 21 -54.5t68 -13.5h62
q30 0 52 8.5t41 27t38.5 49t44.5 75.5h35l-31 -200h-558v35zM192 830h287v-68h-287v68z" />
    <glyph glyph-name="emacron" unicode="&#x113;" horiz-adv-x="495" 
d="M136 692h269v-68h-269v68zM260 503q-50 0 -77 -44.5t-33 -113.5h200q0 71 -20.5 114.5t-69.5 43.5zM270 540q50 0 88.5 -16t64 -43.5t38.5 -66t13 -83.5v-23h-326q-2 -53 10 -94t34.5 -70t53.5 -44t68 -15q51 0 86.5 21t62.5 60l16 -9q-20 -75 -73.5 -121t-140.5 -46
q-54 0 -99 19t-76.5 53.5t-49 82.5t-17.5 106q0 64 19.5 117t53 91.5t78.5 59.5t96 21z" />
    <glyph glyph-name="Ebreve" unicode="&#x114;" horiz-adv-x="635" 
d="M27 35q26 3 42 6.5t24.5 10.5t11 19t2.5 33v494q0 21 -2.5 33t-11 19t-24.5 10.5t-42 6.5v35h549l5 -180h-29q-18 41 -34 68t-33.5 43t-39 22.5t-51.5 6.5h-140v-278h127q33 0 47 22t22 70h35v-227h-35q-8 48 -22 69.5t-47 21.5h-127v-232q0 -41 21 -54.5t68 -13.5h62
q30 0 52 8.5t41 27t38.5 49t44.5 75.5h35l-31 -200h-558v35zM337 744q-68 0 -106.5 39.5t-38.5 116.5h37q7 -46 37.5 -62.5t70.5 -16.5q39 0 69.5 16.5t38.5 62.5h37q0 -77 -39 -116.5t-106 -39.5z" />
    <glyph glyph-name="ebreve" unicode="&#x115;" horiz-adv-x="495" 
d="M276 597q-66 0 -100.5 41.5t-34.5 121.5h38q5 -48 31.5 -66.5t65.5 -18.5q40 0 66.5 18.5t31.5 66.5h38q0 -80 -35 -121.5t-101 -41.5zM260 503q-50 0 -77 -44.5t-33 -113.5h200q0 71 -20.5 114.5t-69.5 43.5zM270 540q50 0 88.5 -16t64 -43.5t38.5 -66t13 -83.5v-23
h-326q-2 -53 10 -94t34.5 -70t53.5 -44t68 -15q51 0 86.5 21t62.5 60l16 -9q-20 -75 -73.5 -121t-140.5 -46q-54 0 -99 19t-76.5 53.5t-49 82.5t-17.5 106q0 64 19.5 117t53 91.5t78.5 59.5t96 21z" />
    <glyph glyph-name="Edotaccent" unicode="&#x116;" horiz-adv-x="635" 
d="M27 35q26 3 42 6.5t24.5 10.5t11 19t2.5 33v494q0 21 -2.5 33t-11 19t-24.5 10.5t-42 6.5v35h549l5 -180h-29q-18 41 -34 68t-33.5 43t-39 22.5t-51.5 6.5h-140v-278h127q33 0 47 22t22 70h35v-227h-35q-8 48 -22 69.5t-47 21.5h-127v-232q0 -41 21 -54.5t68 -13.5h62
q30 0 52 8.5t41 27t38.5 49t44.5 75.5h35l-31 -200h-558v35zM337 749q-37 0 -59 23t-22 55t22 55.5t59 23.5q36 0 59 -23.5t23 -55.5t-23 -55t-59 -23z" />
    <glyph glyph-name="edotaccent" unicode="&#x117;" horiz-adv-x="495" 
d="M272 602q-37 0 -59 23.5t-22 55.5t22 55.5t59 23.5q36 0 59 -23.5t23 -55.5t-23 -55.5t-59 -23.5zM260 503q-50 0 -77 -44.5t-33 -113.5h200q0 71 -20.5 114.5t-69.5 43.5zM270 540q50 0 88.5 -16t64 -43.5t38.5 -66t13 -83.5v-23h-326q-2 -53 10 -94t34.5 -70t53.5 -44
t68 -15q51 0 86.5 21t62.5 60l16 -9q-20 -75 -73.5 -121t-140.5 -46q-54 0 -99 19t-76.5 53.5t-49 82.5t-17.5 106q0 64 19.5 117t53 91.5t78.5 59.5t96 21z" />
    <glyph glyph-name="Eogonek" unicode="&#x118;" horiz-adv-x="635" 
d="M27 35q26 3 42 6.5t24.5 10.5t11 19t2.5 33v494q0 21 -2.5 33t-11 19t-24.5 10.5t-42 6.5v35h549l5 -180h-29q-18 41 -34 68t-33.5 43t-39 22.5t-51.5 6.5h-140v-278h127q33 0 47 22t22 70h35v-227h-35q-8 48 -22 69.5t-47 21.5h-127v-232q0 -41 21 -54.5t68 -13.5h62
q30 0 52 8.5t41 27t38.5 49t44.5 75.5h35l-31 -200h-100q-38 -20 -59 -45.5t-21 -57.5q0 -23 11.5 -37t36.5 -14q22 0 38 6.5t36 22.5l13 -15q-25 -31 -55.5 -52t-74.5 -21q-39 0 -64.5 22.5t-25.5 59.5q0 23 9 42.5t25 35t37 29t45 24.5h-409v35z" />
    <glyph glyph-name="eogonek" unicode="&#x119;" horiz-adv-x="495" 
d="M260 503q-50 0 -77 -44.5t-33 -113.5h200q0 71 -20.5 114.5t-69.5 43.5zM271 540q50 0 88 -16t63.5 -43.5t38.5 -66t13 -83.5v-23h-326q-2 -53 10 -94t34.5 -70t53.5 -44t68 -15q51 0 86.5 21t62.5 60l16 -9q-29 -108 -127 -152q-90 -38 -90 -104q0 -26 12 -40.5
t36 -14.5q22 0 38 6.5t36 22.5l13 -15q-25 -31 -55.5 -52t-74.5 -21q-38 0 -64 22.5t-26 59.5q0 42 28.5 71t71.5 50h-12q-54 0 -99 19t-76.5 53.5t-49 82.5t-17.5 106q0 64 19.5 117t53 91.5t78.5 59.5t97 21z" />
    <glyph glyph-name="Ecaron" unicode="&#x11a;" horiz-adv-x="635" 
d="M27 35q26 3 42 6.5t24.5 10.5t11 19t2.5 33v494q0 21 -2.5 33t-11 19t-24.5 10.5t-42 6.5v35h549l5 -180h-29q-18 41 -34 68t-33.5 43t-39 22.5t-51.5 6.5h-140v-278h127q33 0 47 22t22 70h35v-227h-35q-8 48 -22 69.5t-47 21.5h-127v-232q0 -41 21 -54.5t68 -13.5h62
q30 0 52 8.5t41 27t38.5 49t44.5 75.5h35l-31 -200h-558v35zM384 747h-96l-125 156h40l133 -82l133 82h40z" />
    <glyph glyph-name="ecaron" unicode="&#x11b;" horiz-adv-x="495" 
d="M260 503q-50 0 -77 -44.5t-33 -113.5h200q0 71 -20.5 114.5t-69.5 43.5zM270 540q50 0 88.5 -16t64 -43.5t38.5 -66t13 -83.5v-23h-326q-2 -53 10 -94t34.5 -70t53.5 -44t68 -15q51 0 86.5 21t62.5 60l16 -9q-20 -75 -73.5 -121t-140.5 -46q-54 0 -99 19t-76.5 53.5
t-49 82.5t-17.5 106q0 64 19.5 117t53 91.5t78.5 59.5t96 21zM318 597h-96l-114 171h43l119 -96l119 96h43z" />
    <glyph glyph-name="Gcircumflex" unicode="&#x11c;" horiz-adv-x="720" 
d="M568 747h-40l-133 82l-133 -82h-40l125 156h96zM493 225q0 21 -2.5 33t-11 19.5t-24 11t-42.5 6.5v34h298v-34q-26 -3 -42 -6.5t-24.5 -11t-11 -19.5t-2.5 -33v-166q-49 -32 -113 -50.5t-142 -18.5q-83 0 -147.5 26.5t-108.5 73t-67 109t-23 135.5q0 87 27.5 157t76 119
t114 75.5t141.5 26.5q134 0 223 -58l1 -162h-38q-18 88 -62.5 133.5t-119.5 45.5q-54 0 -93.5 -24.5t-65 -66.5t-37.5 -98.5t-12 -120.5q0 -65 12.5 -124.5t38.5 -105t65 -72.5t93 -27q29 0 54 5.5t45 21.5v166z" />
    <glyph glyph-name="gcircumflex" unicode="&#x11d;" horiz-adv-x="526" 
d="M425 594h-43l-119 96l-119 -96h-43l114 171h96zM252 222q42 0 59.5 37.5t17.5 97.5q0 30 -5 57t-15.5 47.5t-26.5 32.5t-38 12q-42 0 -60.5 -37t-18.5 -96q0 -31 5.5 -58.5t16 -48t27 -32.5t38.5 -12zM109 -16q-19 -22 -19 -59q0 -51 41 -80t112 -29q37 0 70.5 6.5
t59 19.5t41 33.5t15.5 48.5q0 33 -21 46.5t-58 13.5h-241zM246 189q-26 0 -52 4t-49 12q-14 -14 -24 -29t-10 -31q0 -34 35 -34h206q88 0 132 -35.5t44 -101.5q0 -47 -22.5 -83.5t-61.5 -61.5t-92.5 -38t-115.5 -13q-110 0 -173.5 32t-63.5 93q0 38 29 60.5t65 33.5
q-29 11 -45.5 35.5t-16.5 55.5q0 22 8 40.5t21 34t30 28t34 23.5q-40 20 -66 54.5t-26 88.5q0 43 16.5 77t45.5 57.5t69 36t87 12.5q28 0 49 -4.5t40 -9.5l169 4v-58h-41l-70 3q26 -17 44.5 -47t18.5 -68q0 -40 -16 -71.5t-44.5 -53.5t-67.5 -34t-86 -12z" />
    <glyph glyph-name="Gbreve" unicode="&#x11e;" horiz-adv-x="720" 
d="M493 225q0 21 -2.5 33t-11 19.5t-24 11t-42.5 6.5v34h298v-34q-26 -3 -42 -6.5t-24.5 -11t-11 -19.5t-2.5 -33v-166q-49 -32 -113 -50.5t-142 -18.5q-83 0 -147.5 26.5t-108.5 73t-67 109t-23 135.5q0 87 27.5 157t76 119t114 75.5t141.5 26.5q134 0 223 -58l1 -162h-38
q-18 88 -62.5 133.5t-119.5 45.5q-54 0 -93.5 -24.5t-65 -66.5t-37.5 -98.5t-12 -120.5q0 -65 12.5 -124.5t38.5 -105t65 -72.5t93 -27q29 0 54 5.5t45 21.5v166zM395 744q-68 0 -106.5 39.5t-38.5 116.5h37q7 -46 37.5 -62.5t70.5 -16.5q39 0 69.5 16.5t38.5 62.5h37
q0 -77 -39 -116.5t-106 -39.5z" />
    <glyph glyph-name="gbreve" unicode="&#x11f;" horiz-adv-x="526" 
d="M263 597q-66 0 -100.5 41.5t-34.5 121.5h38q5 -48 31.5 -66.5t65.5 -18.5q40 0 66.5 18.5t31.5 66.5h38q0 -80 -35 -121.5t-101 -41.5zM252 222q42 0 59.5 37.5t17.5 97.5q0 30 -5 57t-15.5 47.5t-26.5 32.5t-38 12q-42 0 -60.5 -37t-18.5 -96q0 -31 5.5 -58.5t16 -48
t27 -32.5t38.5 -12zM109 -16q-19 -22 -19 -59q0 -51 41 -80t112 -29q37 0 70.5 6.5t59 19.5t41 33.5t15.5 48.5q0 33 -21 46.5t-58 13.5h-241zM246 189q-26 0 -52 4t-49 12q-14 -14 -24 -29t-10 -31q0 -34 35 -34h206q88 0 132 -35.5t44 -101.5q0 -47 -22.5 -83.5
t-61.5 -61.5t-92.5 -38t-115.5 -13q-110 0 -173.5 32t-63.5 93q0 38 29 60.5t65 33.5q-29 11 -45.5 35.5t-16.5 55.5q0 22 8 40.5t21 34t30 28t34 23.5q-40 20 -66 54.5t-26 88.5q0 43 16.5 77t45.5 57.5t69 36t87 12.5q28 0 49 -4.5t40 -9.5l169 4v-58h-41l-70 3
q26 -17 44.5 -47t18.5 -68q0 -40 -16 -71.5t-44.5 -53.5t-67.5 -34t-86 -12z" />
    <glyph glyph-name="Gdotaccent" unicode="&#x120;" horiz-adv-x="720" 
d="M493 225q0 21 -2.5 33t-11 19.5t-24 11t-42.5 6.5v34h298v-34q-26 -3 -42 -6.5t-24.5 -11t-11 -19.5t-2.5 -33v-166q-49 -32 -113 -50.5t-142 -18.5q-83 0 -147.5 26.5t-108.5 73t-67 109t-23 135.5q0 87 27.5 157t76 119t114 75.5t141.5 26.5q134 0 223 -58l1 -162h-38
q-18 88 -62.5 133.5t-119.5 45.5q-54 0 -93.5 -24.5t-65 -66.5t-37.5 -98.5t-12 -120.5q0 -65 12.5 -124.5t38.5 -105t65 -72.5t93 -27q29 0 54 5.5t45 21.5v166zM395 749q-37 0 -59 23t-22 55t22 55.5t59 23.5q36 0 59 -23.5t23 -55.5t-23 -55t-59 -23z" />
    <glyph glyph-name="gdotaccent" unicode="&#x121;" horiz-adv-x="526" 
d="M263 602q-37 0 -59 23.5t-22 55.5t22 55.5t59 23.5q36 0 59 -23.5t23 -55.5t-23 -55.5t-59 -23.5zM252 222q42 0 59.5 37.5t17.5 97.5q0 30 -5 57t-15.5 47.5t-26.5 32.5t-38 12q-42 0 -60.5 -37t-18.5 -96q0 -31 5.5 -58.5t16 -48t27 -32.5t38.5 -12zM109 -16
q-19 -22 -19 -59q0 -51 41 -80t112 -29q37 0 70.5 6.5t59 19.5t41 33.5t15.5 48.5q0 33 -21 46.5t-58 13.5h-241zM246 189q-26 0 -52 4t-49 12q-14 -14 -24 -29t-10 -31q0 -34 35 -34h206q88 0 132 -35.5t44 -101.5q0 -47 -22.5 -83.5t-61.5 -61.5t-92.5 -38t-115.5 -13
q-110 0 -173.5 32t-63.5 93q0 38 29 60.5t65 33.5q-29 11 -45.5 35.5t-16.5 55.5q0 22 8 40.5t21 34t30 28t34 23.5q-40 20 -66 54.5t-26 88.5q0 43 16.5 77t45.5 57.5t69 36t87 12.5q28 0 49 -4.5t40 -9.5l169 4v-58h-41l-70 3q26 -17 44.5 -47t18.5 -68q0 -40 -16 -71.5
t-44.5 -53.5t-67.5 -34t-86 -12z" />
    <glyph glyph-name="Gcommaaccent" unicode="&#x122;" horiz-adv-x="720" 
d="M493 225q0 21 -2.5 33t-11 19.5t-24 11t-42.5 6.5v34h298v-34q-26 -3 -42 -6.5t-24.5 -11t-11 -19.5t-2.5 -33v-166q-49 -32 -113 -50.5t-142 -18.5q-83 0 -147.5 26.5t-108.5 73t-67 109t-23 135.5q0 87 27.5 157t76 119t114 75.5t141.5 26.5q134 0 223 -58l1 -162h-38
q-18 88 -62.5 133.5t-119.5 45.5q-54 0 -93.5 -24.5t-65 -66.5t-37.5 -98.5t-12 -120.5q0 -65 12.5 -124.5t38.5 -105t65 -72.5t93 -27q29 0 54 5.5t45 21.5v166zM362 -152q-44 11 -44 54q0 25 19.5 41t51.5 16q39 0 61 -24t22 -60q0 -48 -34.5 -79.5t-110.5 -31.5v30
q43 0 64 16.5t22 37.5h-51z" />
    <glyph glyph-name="gcommaaccent" unicode="&#x123;" horiz-adv-x="526" 
d="M295 711q45 -11 45 -54q0 -26 -19.5 -42t-51.5 -16q-39 0 -61 24.5t-22 60.5q0 48 34.5 79t110.5 31v-29q-43 0 -64 -16.5t-22 -37.5h50zM252 222q42 0 59.5 37.5t17.5 97.5q0 30 -5 57t-15.5 47.5t-26.5 32.5t-38 12q-42 0 -60.5 -37t-18.5 -96q0 -31 5.5 -58.5t16 -48
t27 -32.5t38.5 -12zM109 -16q-19 -22 -19 -59q0 -51 41 -80t112 -29q37 0 70.5 6.5t59 19.5t41 33.5t15.5 48.5q0 33 -21 46.5t-58 13.5h-241zM246 189q-26 0 -52 4t-49 12q-14 -14 -24 -29t-10 -31q0 -34 35 -34h206q88 0 132 -35.5t44 -101.5q0 -47 -22.5 -83.5
t-61.5 -61.5t-92.5 -38t-115.5 -13q-110 0 -173.5 32t-63.5 93q0 38 29 60.5t65 33.5q-29 11 -45.5 35.5t-16.5 55.5q0 22 8 40.5t21 34t30 28t34 23.5q-40 20 -66 54.5t-26 88.5q0 43 16.5 77t45.5 57.5t69 36t87 12.5q28 0 49 -4.5t40 -9.5l169 4v-58h-41l-70 3
q26 -17 44.5 -47t18.5 -68q0 -40 -16 -71.5t-44.5 -53.5t-67.5 -34t-86 -12z" />
    <glyph glyph-name="Hcircumflex" unicode="&#x124;" horiz-adv-x="808" 
d="M577 747h-40l-133 82l-133 -82h-40l125 156h96zM254 383h301v215q0 21 -2.5 33t-11 19t-24.5 10.5t-42 6.5v35h306v-35q-26 -3 -42 -6.5t-24.5 -10.5t-11 -19t-2.5 -33v-494q0 -21 2.5 -33t11 -19t24.5 -10.5t42 -6.5v-35h-306v35q26 3 42 6.5t24.5 10.5t11 19t2.5 33
v231h-301v-231q0 -21 2.5 -33t11 -19t24.5 -10.5t42 -6.5v-35h-307v35q26 3 42 6.5t24.5 10.5t11 19t2.5 33v494q0 21 -2.5 33t-11 19t-24.5 10.5t-42 6.5v35h307v-35q-26 -3 -42 -6.5t-24.5 -10.5t-11 -19t-2.5 -33v-215z" />
    <glyph glyph-name="hcircumflex" unicode="&#x125;" horiz-adv-x="619" 
d="M480 803h-40l-133 82l-133 -82h-40l125 156h96zM80 683l-60 31v21l177 48h22v-341q16 19 35 36.5t41.5 31t49 22t58.5 8.5q71 0 107.5 -41t36.5 -123v-299q0 -26 13.5 -34t48.5 -10v-33h-262v33q35 2 48 10t13 34v292q0 44 -18 65.5t-60 21.5q-31 0 -59 -12t-52 -29v-338
q0 -26 13 -34t48 -10v-33h-262v33q35 2 48.5 10t13.5 34v606z" />
    <glyph glyph-name="Hbar" unicode="&#x126;" horiz-adv-x="828" 
d="M565 383v112h-301v-112h301zM264 543h301v55q0 21 -2.5 33t-11 19t-24.5 10.5t-42 6.5v35h306v-35q-26 -3 -42 -6.5t-24.5 -10.5t-11 -19t-2.5 -33v-55h80v-48h-80v-391q0 -21 2.5 -33t11 -19t24.5 -10.5t42 -6.5v-35h-306v35q26 3 42 6.5t24.5 10.5t11 19t2.5 33v231
h-301v-231q0 -21 2.5 -33t11 -19t24.5 -10.5t42 -6.5v-35h-307v35q26 3 42 6.5t24.5 10.5t11 19t2.5 33v391h-79v48h79v55q0 21 -2.5 33t-11 19t-24.5 10.5t-42 6.5v35h307v-35q-26 -3 -42 -6.5t-24.5 -10.5t-11 -19t-2.5 -33v-55z" />
    <glyph glyph-name="hbar" unicode="&#x127;" horiz-adv-x="619" 
d="M80 592h-60v42h60v49l-60 31v21l177 48h22v-149h128v-42h-128v-150q16 19 35 36.5t41.5 31t49 22t58.5 8.5q71 0 107.5 -41t36.5 -123v-299q0 -26 13.5 -34t48.5 -10v-33h-262v33q35 2 48 10t13 34v292q0 44 -18 65.5t-60 21.5q-31 0 -59 -12t-52 -29v-338q0 -26 13 -34
t48 -10v-33h-262v33q35 2 48.5 10t13.5 34v515z" />
    <glyph glyph-name="Itilde" unicode="&#x128;" horiz-adv-x="361" 
d="M247 746q-21 0 -38.5 9t-33 20.5t-30.5 20.5t-31 9q-20 0 -35.5 -14t-30.5 -42l-26 15q25 66 48.5 96.5t58.5 30.5q21 0 38.5 -9.5t33 -20.5t30.5 -20.5t31 -9.5q20 0 35.5 14.5t30.5 42.5l26 -16q-25 -66 -48 -96t-59 -30zM254 104q0 -21 2.5 -33t11 -19t24.5 -10.5
t42 -6.5v-35h-307v35q26 3 42 6.5t24.5 10.5t11 19t2.5 33v494q0 21 -2.5 33t-11 19t-24.5 10.5t-42 6.5v35h307v-35q-26 -3 -42 -6.5t-24.5 -10.5t-11 -19t-2.5 -33v-494z" />
    <glyph glyph-name="itilde" unicode="&#x129;" horiz-adv-x="300" 
d="M222 77q0 -26 14 -34t49 -10v-33h-264v33q35 2 49 10t14 34v354l-60 35v19l176 55h22v-463zM205 602q-18 0 -33.5 9t-30 20t-28 20t-28.5 9q-21 0 -34 -13.5t-29 -41.5l-28 15q24 65 45 95t58 30q19 0 35 -9t30 -19.5t27.5 -19.5t27.5 -9q21 0 34 13.5t29 40.5l28 -14
q-24 -66 -45 -96t-58 -30z" />
    <glyph glyph-name="Imacron" unicode="&#x12a;" horiz-adv-x="361" 
d="M36 830h287v-68h-287v68zM254 104q0 -21 2.5 -33t11 -19t24.5 -10.5t42 -6.5v-35h-307v35q26 3 42 6.5t24.5 10.5t11 19t2.5 33v494q0 21 -2.5 33t-11 19t-24.5 10.5t-42 6.5v35h307v-35q-26 -3 -42 -6.5t-24.5 -10.5t-11 -19t-2.5 -33v-494z" />
    <glyph glyph-name="imacron" unicode="&#x12b;" horiz-adv-x="300" 
d="M30 692h242v-67h-242v67zM222 77q0 -26 14 -34t49 -10v-33h-264v33q35 2 49 10t14 34v354l-60 35v19l176 55h22v-463z" />
    <glyph glyph-name="Ibreve" unicode="&#x12c;" horiz-adv-x="361" 
d="M181 744q-64 0 -101 39.5t-37 116.5h36q3 -23 12.5 -38t23 -24t30.5 -13t36 -4q37 0 66 16.5t36 62.5h36q0 -77 -37.5 -116.5t-100.5 -39.5zM254 104q0 -21 2.5 -33t11 -19t24.5 -10.5t42 -6.5v-35h-307v35q26 3 42 6.5t24.5 10.5t11 19t2.5 33v494q0 21 -2.5 33t-11 19
t-24.5 10.5t-42 6.5v35h307v-35q-26 -3 -42 -6.5t-24.5 -10.5t-11 -19t-2.5 -33v-494z" />
    <glyph glyph-name="ibreve" unicode="&#x12d;" horiz-adv-x="300" 
d="M154 597q-63 0 -95.5 41.5t-32.5 121.5h36q5 -48 30 -66.5t62 -18.5q38 0 63.5 18.5t29.5 66.5h36q0 -80 -33 -121.5t-96 -41.5zM222 77q0 -26 14 -34t49 -10v-33h-264v33q35 2 49 10t14 34v354l-60 35v19l176 55h22v-463z" />
    <glyph glyph-name="Iogonek" unicode="&#x12e;" horiz-adv-x="361" 
d="M254 104q0 -21 2.5 -33t11 -19t24.5 -10.5t42 -6.5v-35h-98q-38 -20 -59 -45.5t-21 -57.5q0 -23 11.5 -37t36.5 -14q22 0 38 6.5t36 22.5l13 -15q-25 -31 -55.5 -52t-74.5 -21q-39 0 -64.5 22.5t-25.5 59.5q0 23 9 42.5t25 35t37 29t45 24.5h-160v35q26 3 42 6.5
t24.5 10.5t11 19t2.5 33v494q0 21 -2.5 33t-11 19t-24.5 10.5t-42 6.5v35h307v-35q-26 -3 -42 -6.5t-24.5 -10.5t-11 -19t-2.5 -33v-494z" />
    <glyph glyph-name="iogonek" unicode="&#x12f;" horiz-adv-x="300" 
d="M151 600q-36 0 -58.5 23.5t-22.5 55.5t22.5 55.5t58.5 23.5q37 0 59.5 -23.5t22.5 -55.5t-22.5 -55.5t-59.5 -23.5zM222 77q0 -26 14 -34t49 -10v-33h-81q-38 -20 -59 -45.5t-21 -57.5q0 -23 11.5 -37t36.5 -14q22 0 38 6.5t36 22.5l13 -15q-25 -31 -55.5 -52t-74.5 -21
q-39 0 -64.5 22.5t-25.5 59.5q0 23 9 42.5t25 35t37 29t45 24.5h-134v33q35 2 49 10t14 34v354l-60 35v19l176 55h22v-463z" />
    <glyph glyph-name="Idotaccent" unicode="&#x130;" horiz-adv-x="361" 
d="M180 749q-37 0 -59 23t-22 55t22 55.5t59 23.5q36 0 59 -23.5t23 -55.5t-23 -55t-59 -23zM254 104q0 -21 2.5 -33t11 -19t24.5 -10.5t42 -6.5v-35h-307v35q26 3 42 6.5t24.5 10.5t11 19t2.5 33v494q0 21 -2.5 33t-11 19t-24.5 10.5t-42 6.5v35h307v-35q-26 -3 -42 -6.5
t-24.5 -10.5t-11 -19t-2.5 -33v-494z" />
    <glyph glyph-name="dotlessi" unicode="&#x131;" horiz-adv-x="300" 
d="M222 77q0 -26 14 -34t49 -10v-33h-264v33q35 2 49 10t14 34v354l-60 35v19l176 55h22v-463z" />
    <glyph glyph-name="IJ" unicode="&#x132;" horiz-adv-x="885" 
d="M642 598q0 21 -2.5 33t-11 19t-24.5 10.5t-42 6.5v35h306v-35q-26 -3 -42 -6.5t-24.5 -10.5t-11 -19t-2.5 -33v-385q0 -114 -62 -168.5t-172 -54.5q-97 0 -152 35.5t-55 102.5q0 26 11 46t29 31h97l-4 -31q-2 -15 -2 -32q0 -54 20 -85t61 -31q44 0 63.5 34.5t19.5 106.5
v431zM254 104q0 -21 2.5 -33t11 -19t24.5 -10.5t42 -6.5v-35h-307v35q26 3 42 6.5t24.5 10.5t11 19t2.5 33v494q0 21 -2.5 33t-11 19t-24.5 10.5t-42 6.5v35h307v-35q-26 -3 -42 -6.5t-24.5 -10.5t-11 -19t-2.5 -33v-494z" />
    <glyph glyph-name="ij" unicode="&#x133;" horiz-adv-x="573" 
d="M437 600q-36 0 -58.5 23.5t-22.5 55.5t22.5 55.5t58.5 23.5q37 0 59.5 -23.5t22.5 -55.5t-22.5 -55.5t-59.5 -23.5zM311 466v19l176 55h22v-445q0 -38 -3 -65.5t-9 -48.5t-15 -37.5t-21 -33.5q-31 -39 -66.5 -68.5t-82.5 -59.5l-15 16l41 68q24 40 28.5 86t4.5 106v373z
M151 600q-36 0 -58.5 23.5t-22.5 55.5t22.5 55.5t58.5 23.5q37 0 59.5 -23.5t22.5 -55.5t-22.5 -55.5t-59.5 -23.5zM222 77q0 -26 14 -34t49 -10v-33h-264v33q35 2 49 10t14 34v354l-60 35v19l176 55h22v-463z" />
    <glyph glyph-name="Jcircumflex" unicode="&#x134;" horiz-adv-x="532" 
d="M535 747h-40l-133 82l-133 -82h-40l125 156h96zM289 598q0 21 -2.5 33t-11 19t-24.5 10.5t-42 6.5v35h306v-35q-26 -3 -42 -6.5t-24.5 -10.5t-11 -19t-2.5 -33v-385q0 -114 -62 -168.5t-172 -54.5q-97 0 -152 35.5t-55 102.5q0 26 11 46t29 31h97l-4 -31q-2 -15 -2 -32
q0 -54 20 -85t61 -31q44 0 63.5 34.5t19.5 106.5v431z" />
    <glyph glyph-name="jcircumflex" unicode="&#x135;" horiz-adv-x="273" 
d="M281 594h-39l-107 96l-108 -96h-39l103 171h87zM11 466v19l176 55h22v-445q0 -38 -3 -65.5t-9 -48.5t-15 -37.5t-21 -33.5q-31 -39 -66.5 -68.5t-82.5 -59.5l-15 16l41 68q24 40 28.5 86t4.5 106v373z" />
    <glyph glyph-name="Kcommaaccent" unicode="&#x136;" horiz-adv-x="716" 
d="M254 104q0 -21 2.5 -33t11 -19t24.5 -10.5t42 -6.5v-35h-307v35q26 3 42 6.5t24.5 10.5t11 19t2.5 33v494q0 21 -2.5 33t-11 19t-24.5 10.5t-42 6.5v35h307v-35q-26 -3 -42 -6.5t-24.5 -10.5t-11 -19t-2.5 -33v-494zM607 107q15 -20 26.5 -33.5t23.5 -21.5t26 -12t33 -5
v-35h-191q-22 18 -44.5 45t-42.5 56l-173 244l244 254q11 11 18 21t7 21q0 13 -15 18.5t-59 7.5v35h224v-35q-32 -2 -50 -11.5t-40 -32.5l-203 -214zM339 -152q-44 11 -44 54q0 25 19.5 41t51.5 16q39 0 61 -24t22 -60q0 -48 -34.5 -79.5t-110.5 -31.5v30q43 0 64 16.5
t22 37.5h-51z" />
    <glyph glyph-name="kcommaaccent" unicode="&#x137;" horiz-adv-x="586" 
d="M81 683l-60 31v21l177 48h22v-706q0 -26 13.5 -34t48.5 -10v-33h-263v33q35 2 48.5 10t13.5 34v606zM386 427q29 25 29 42q0 14 -14.5 18.5t-49.5 9.5v33h213v-33q-27 -5 -45 -12.5t-36 -24.5l-133 -123l236 -314v-23h-148l-209 284zM278 -152q-44 11 -44 54
q0 25 19.5 41t51.5 16q39 0 61 -24t22 -60q0 -48 -34.5 -79.5t-110.5 -31.5v30q43 0 64 16.5t22 37.5h-51z" />
    <glyph glyph-name="kgreenlandic" unicode="&#x138;" horiz-adv-x="589" 
d="M84 431l-60 35v19l177 55h21v-463q0 -26 14 -34t49 -10v-33h-264v33q35 2 49 10t14 34v354zM389 427q14 13 21.5 22.5t7.5 19.5q0 14 -14.5 18.5t-49.5 9.5v33h213v-33q-27 -5 -45 -12.5t-36 -24.5l-133 -123l236 -314v-23h-148l-209 284z" />
    <glyph glyph-name="Lacute" unicode="&#x139;" horiz-adv-x="614" 
d="M254 108q0 -41 20 -54.5t67 -13.5h43q28 0 50 9.5t42.5 30.5t41.5 55t48 82h35l-35 -217h-539v35q26 3 42 6.5t24.5 10.5t11 19t2.5 33v494q0 21 -2.5 33t-11 19t-24.5 10.5t-42 6.5v35h307v-35q-26 -3 -42 -6.5t-24.5 -10.5t-11 -19t-2.5 -33v-490zM365 896v-7
l-159 -142h-37l52 149h144z" />
    <glyph glyph-name="lacute" unicode="&#x13a;" horiz-adv-x="297" 
d="M220 77q0 -26 13.5 -34t48.5 -10v-33h-263v33q35 2 48.5 10t13.5 34v606l-60 31v21l177 48h22v-706zM303 947v-7l-159 -142h-37l52 149h144z" />
    <glyph glyph-name="Lcommaaccent" unicode="&#x13b;" horiz-adv-x="614" 
d="M254 108q0 -41 20 -54.5t67 -13.5h43q28 0 50 9.5t42.5 30.5t41.5 55t48 82h35l-35 -217h-539v35q26 3 42 6.5t24.5 10.5t11 19t2.5 33v494q0 21 -2.5 33t-11 19t-24.5 10.5t-42 6.5v35h307v-35q-26 -3 -42 -6.5t-24.5 -10.5t-11 -19t-2.5 -33v-490zM281 -152
q-44 11 -44 54q0 25 19.5 41t51.5 16q39 0 61 -24t22 -60q0 -48 -34.5 -79.5t-110.5 -31.5v30q43 0 64 16.5t22 37.5h-51z" />
    <glyph glyph-name="lcommaaccent" unicode="&#x13c;" horiz-adv-x="297" 
d="M220 77q0 -26 13.5 -34t48.5 -10v-33h-263v33q35 2 48.5 10t13.5 34v606l-60 31v21l177 48h22v-706zM118 -152q-44 11 -44 54q0 25 19.5 41t51.5 16q39 0 61 -24t22 -60q0 -48 -34.5 -79.5t-110.5 -31.5v30q43 0 64 16.5t22 37.5h-51z" />
    <glyph glyph-name="Lcaron" unicode="&#x13d;" horiz-adv-x="614" 
d="M254 108q0 -41 20 -54.5t67 -13.5h43q28 0 50 9.5t42.5 30.5t41.5 55t48 82h35l-35 -217h-539v35q26 3 42 6.5t24.5 10.5t11 19t2.5 33v494q0 21 -2.5 33t-11 19t-24.5 10.5t-42 6.5v35h307v-35q-26 -3 -42 -6.5t-24.5 -10.5t-11 -19t-2.5 -33v-490zM428 497h-26l16 205
h121v-8z" />
    <glyph glyph-name="lcaron" unicode="&#x13e;" horiz-adv-x="297" 
d="M220 77q0 -26 13.5 -34t48.5 -10v-33h-263v33q35 2 48.5 10t13.5 34v606l-60 31v21l177 48h22v-706zM285 577h-26l16 205h121v-8z" />
    <glyph glyph-name="Ldot" unicode="&#x13f;" horiz-adv-x="614" 
d="M421 397q0 36 25 60.5t60 24.5t59.5 -24.5t24.5 -60.5q0 -37 -24.5 -61t-59.5 -24t-60 24t-25 61zM254 108q0 -41 20 -54.5t67 -13.5h43q28 0 50 9.5t42.5 30.5t41.5 55t48 82h35l-35 -217h-539v35q26 3 42 6.5t24.5 10.5t11 19t2.5 33v494q0 21 -2.5 33t-11 19
t-24.5 10.5t-42 6.5v35h307v-35q-26 -3 -42 -6.5t-24.5 -10.5t-11 -19t-2.5 -33v-490z" />
    <glyph glyph-name="ldot" unicode="&#x140;" horiz-adv-x="384" 
d="M259 379q0 35 24 58.5t58 23.5t57.5 -23.5t23.5 -58.5t-23.5 -58t-57.5 -23t-58 23t-24 58zM220 77q0 -26 13.5 -34t48.5 -10v-33h-263v33q35 2 48.5 10t13.5 34v606l-60 31v21l177 48h22v-706z" />
    <glyph glyph-name="Lslash" unicode="&#x141;" horiz-adv-x="614" 
d="M254 382l147 59v-49l-147 -59v-225q0 -41 20 -54.5t67 -13.5h43q28 0 50 9.5t42.5 30.5t41.5 55t48 82h35l-35 -217h-539v35q26 3 42 6.5t24.5 10.5t11 19t2.5 33v180l-73 -30v49l73 29v266q0 21 -2.5 33t-11 19t-24.5 10.5t-42 6.5v35h307v-35q-26 -3 -42 -6.5
t-24.5 -10.5t-11 -19t-2.5 -33v-216z" />
    <glyph glyph-name="lslash" unicode="&#x142;" horiz-adv-x="315" 
d="M226 482l82 46v-49l-82 -47v-355q0 -26 13.5 -34t48.5 -10v-33h-263v33q35 2 48.5 10t13.5 34v295l-77 -41v48l77 43v261l-60 31v21l177 48h22v-301z" />
    <glyph glyph-name="Nacute" unicode="&#x143;" horiz-adv-x="747" 
d="M596 597q0 20 -4 32.5t-15 20t-30.5 11t-50.5 6.5v35h233v-35q-26 -3 -42 -6.5t-24.5 -11t-11 -20t-2.5 -32.5v-599h-49l-438 553v-446q0 -20 4 -32.5t15 -20t30 -11t50 -6.5v-35h-233v35q27 3 42.5 6.5t24 11t11 20t2.5 32.5v500q-11 16 -20 27.5t-18 19t-19 11t-24 4.5
v35h205l364 -463v358zM536 896v-7l-159 -142h-37l52 149h144z" />
    <glyph glyph-name="nacute" unicode="&#x144;" horiz-adv-x="623" 
d="M411 369q0 44 -17.5 65.5t-59.5 21.5q-32 0 -60 -12t-52 -29v-338q0 -26 13 -34t48 -10v-33h-262v33q35 2 49 10t14 34v354l-60 35v19l179 55h23l-4 -98q16 19 35 36.5t41.5 31t49.5 22t59 8.5q143 0 143 -163v-300q0 -26 13.5 -34t48.5 -10v-33h-262v33q35 2 48 10
t13 34v292zM476 763v-7l-161 -159h-35l55 166h141z" />
    <glyph glyph-name="Ncommaaccent" unicode="&#x145;" horiz-adv-x="747" 
d="M596 597q0 20 -4 32.5t-15 20t-30.5 11t-50.5 6.5v35h233v-35q-26 -3 -42 -6.5t-24.5 -11t-11 -20t-2.5 -32.5v-599h-49l-438 553v-446q0 -20 4 -32.5t15 -20t30 -11t50 -6.5v-35h-233v35q27 3 42.5 6.5t24 11t11 20t2.5 32.5v500q-11 16 -20 27.5t-18 19t-19 11t-24 4.5
v35h205l364 -463v358zM357 -152q-44 11 -44 54q0 25 19.5 41t51.5 16q39 0 61 -24t22 -60q0 -48 -34.5 -79.5t-110.5 -31.5v30q43 0 64 16.5t22 37.5h-51z" />
    <glyph glyph-name="ncommaaccent" unicode="&#x146;" horiz-adv-x="623" 
d="M411 369q0 44 -17.5 65.5t-59.5 21.5q-32 0 -60 -12t-52 -29v-338q0 -26 13 -34t48 -10v-33h-262v33q35 2 49 10t14 34v354l-60 35v19l179 55h23l-4 -98q16 19 35 36.5t41.5 31t49.5 22t59 8.5q143 0 143 -163v-300q0 -26 13.5 -34t48.5 -10v-33h-262v33q35 2 48 10
t13 34v292zM291 -152q-44 11 -44 54q0 25 19.5 41t51.5 16q39 0 61 -24t22 -60q0 -48 -34.5 -79.5t-110.5 -31.5v30q43 0 64 16.5t22 37.5h-51z" />
    <glyph glyph-name="Ncaron" unicode="&#x147;" horiz-adv-x="747" 
d="M596 597q0 20 -4 32.5t-15 20t-30.5 11t-50.5 6.5v35h233v-35q-26 -3 -42 -6.5t-24.5 -11t-11 -20t-2.5 -32.5v-599h-49l-438 553v-446q0 -20 4 -32.5t15 -20t30 -11t50 -6.5v-35h-233v35q27 3 42.5 6.5t24 11t11 20t2.5 32.5v500q-11 16 -20 27.5t-18 19t-19 11t-24 4.5
v35h205l364 -463v358zM437 747h-96l-125 156h40l133 -82l133 82h40z" />
    <glyph glyph-name="ncaron" unicode="&#x148;" horiz-adv-x="623" 
d="M411 369q0 44 -17.5 65.5t-59.5 21.5q-32 0 -60 -12t-52 -29v-338q0 -26 13 -34t48 -10v-33h-262v33q35 2 49 10t14 34v354l-60 35v19l179 55h23l-4 -98q16 19 35 36.5t41.5 31t49.5 22t59 8.5q143 0 143 -163v-300q0 -26 13.5 -34t48.5 -10v-33h-262v33q35 2 48 10
t13 34v292zM372 597h-96l-114 171h43l119 -96l119 96h43z" />
    <glyph glyph-name="Eng" unicode="&#x14a;" horiz-adv-x="747" 
d="M162 551v-446q0 -20 4 -32.5t15 -20t30 -11t50 -6.5v-35h-233v35q27 3 42.5 6.5t24 11t11 20t2.5 32.5v500q-11 16 -20 27.5t-18 19t-19 11t-24 4.5v35h206l363 -462v357q0 20 -4 32.5t-15 20t-30.5 11t-50.5 6.5v35h233v-35q-26 -3 -42 -6.5t-24.5 -11t-11 -20
t-2.5 -32.5v-502q0 -37 -2.5 -63.5t-7.5 -47.5t-13.5 -38t-21.5 -34q-15 -20 -29.5 -35.5t-30.5 -29t-34.5 -26t-41.5 -26.5l-16 16l32 45q34 50 45.5 102.5t11.5 113.5z" />
    <glyph glyph-name="eng" unicode="&#x14b;" horiz-adv-x="614" 
d="M411 369q0 44 -17.5 65.5t-59.5 21.5q-32 0 -60 -12t-52 -29v-338q0 -26 13 -34t48 -10v-33h-262v33q35 2 49 10t14 34v354l-60 35v19l179 55h23l-4 -98q16 19 35 36.5t41.5 31t49.5 22t59 8.5q143 0 143 -163v-282q0 -38 -3 -65.5t-9 -48.5t-15 -37.5t-22 -33.5
q-30 -39 -66 -68.5t-82 -59.5l-16 16l41 68q24 40 28.5 86t4.5 106v311z" />
    <glyph glyph-name="Omacron" unicode="&#x14c;" horiz-adv-x="722" 
d="M355 -10q-80 0 -140.5 28.5t-101.5 76t-62 110.5t-21 132q0 86 25.5 155.5t71 118t107 75t133.5 26.5q79 0 139.5 -28.5t102 -76t62.5 -110.5t21 -132q0 -86 -25.5 -155.5t-71 -118t-107 -75t-133.5 -26.5zM365 31q44 0 76 26.5t53 70t31 100t10 117.5q0 63 -10.5 121.5
t-32 104t-55.5 73t-81 27.5q-44 0 -76 -26.5t-53 -70t-31 -100t-10 -117.5q0 -63 10.5 -121.5t32 -104t55.5 -73t81 -27.5zM219 830h287v-68h-287v68z" />
    <glyph glyph-name="omacron" unicode="&#x14d;" horiz-adv-x="561" 
d="M279 -10q-57 0 -104.5 18.5t-81.5 53t-52.5 83t-18.5 108.5q0 64 19.5 116.5t54.5 90.5t82.5 59t103.5 21q57 0 104.5 -19t81.5 -53.5t52.5 -83.5t18.5 -108q0 -64 -19.5 -116.5t-54.5 -90t-82.5 -58.5t-103.5 -21zM284 26q28 0 48 15.5t33 43.5t19.5 68t6.5 89
q0 55 -6.5 103t-20.5 83t-35.5 55t-51.5 20q-56 0 -82 -58.5t-26 -156.5q0 -56 6.5 -103.5t21 -83t36 -55.5t51.5 -20zM148 692h269v-68h-269v68z" />
    <glyph glyph-name="Obreve" unicode="&#x14e;" horiz-adv-x="722" 
d="M355 -10q-80 0 -140.5 28.5t-101.5 76t-62 110.5t-21 132q0 86 25.5 155.5t71 118t107 75t133.5 26.5q79 0 139.5 -28.5t102 -76t62.5 -110.5t21 -132q0 -86 -25.5 -155.5t-71 -118t-107 -75t-133.5 -26.5zM365 31q44 0 76 26.5t53 70t31 100t10 117.5q0 63 -10.5 121.5
t-32 104t-55.5 73t-81 27.5q-44 0 -76 -26.5t-53 -70t-31 -100t-10 -117.5q0 -63 10.5 -121.5t32 -104t55.5 -73t81 -27.5zM363 744q-68 0 -106.5 39.5t-38.5 116.5h37q7 -46 37.5 -62.5t70.5 -16.5q39 0 69.5 16.5t38.5 62.5h37q0 -77 -39 -116.5t-106 -39.5z" />
    <glyph glyph-name="obreve" unicode="&#x14f;" horiz-adv-x="561" 
d="M282 597q-66 0 -100.5 41.5t-34.5 121.5h38q5 -48 31.5 -66.5t65.5 -18.5q40 0 66.5 18.5t31.5 66.5h38q0 -80 -35 -121.5t-101 -41.5zM279 -10q-57 0 -104.5 18.5t-81.5 53t-52.5 83t-18.5 108.5q0 64 19.5 116.5t54.5 90.5t82.5 59t103.5 21q57 0 104.5 -19t81.5 -53.5
t52.5 -83.5t18.5 -108q0 -64 -19.5 -116.5t-54.5 -90t-82.5 -58.5t-103.5 -21zM284 26q28 0 48 15.5t33 43.5t19.5 68t6.5 89q0 55 -6.5 103t-20.5 83t-35.5 55t-51.5 20q-56 0 -82 -58.5t-26 -156.5q0 -56 6.5 -103.5t21 -83t36 -55.5t51.5 -20z" />
    <glyph glyph-name="Ohungarumlaut" unicode="&#x150;" horiz-adv-x="722" 
d="M600 896v-7l-143 -142h-36l55 149h124zM438 896v-7l-142 -142h-37l55 149h124zM355 -10q-80 0 -140.5 28.5t-101.5 76t-62 110.5t-21 132q0 86 25.5 155.5t71 118t107 75t133.5 26.5q79 0 139.5 -28.5t102 -76t62.5 -110.5t21 -132q0 -86 -25.5 -155.5t-71 -118t-107 -75
t-133.5 -26.5zM365 31q44 0 76 26.5t53 70t31 100t10 117.5q0 63 -10.5 121.5t-32 104t-55.5 73t-81 27.5q-44 0 -76 -26.5t-53 -70t-31 -100t-10 -117.5q0 -63 10.5 -121.5t32 -104t55.5 -73t81 -27.5z" />
    <glyph glyph-name="ohungarumlaut" unicode="&#x151;" horiz-adv-x="561" 
d="M279 -10q-57 0 -104.5 18.5t-81.5 53t-52.5 83t-18.5 108.5q0 64 19.5 116.5t54.5 90.5t82.5 59t103.5 21q57 0 104.5 -19t81.5 -53.5t52.5 -83.5t18.5 -108q0 -64 -19.5 -116.5t-54.5 -90t-82.5 -58.5t-103.5 -21zM284 26q28 0 48 15.5t33 43.5t19.5 68t6.5 89
q0 55 -6.5 103t-20.5 83t-35.5 55t-51.5 20q-56 0 -82 -58.5t-26 -156.5q0 -56 6.5 -103.5t21 -83t36 -55.5t51.5 -20zM511 763v-7l-144 -159h-35l55 166h124zM349 763v-7l-144 -159h-35l55 166h124z" />
    <glyph glyph-name="OE" unicode="&#x152;" horiz-adv-x="1020" 
d="M432 0q-103 0 -178.5 26.5t-125 72.5t-74 107.5t-24.5 130.5q0 87 29.5 154.5t82 114.5t125.5 71.5t159 24.5h540v-180h-29q-18 41 -34 68t-33.5 43t-39 22.5t-51.5 6.5h-140v-278h127q34 0 47.5 22t21.5 70h35v-227h-35q-8 48 -21.5 69.5t-47.5 21.5h-127v-232
q0 -41 21 -54.5t68 -13.5h63q30 0 52 8.5t41 27t38.5 49t44.5 75.5h34l-31 -200h-538zM436 662q-56 0 -102.5 -20.5t-79.5 -59.5t-51 -95.5t-18 -128.5q0 -67 16.5 -125t50 -101t85 -67.5t120.5 -24.5h35v622h-56z" />
    <glyph glyph-name="oe" unicode="&#x153;" horiz-adv-x="863" 
d="M628 503q-50 0 -77 -44.5t-33 -113.5h200q0 71 -20.5 114.5t-69.5 43.5zM284 26q28 0 48 15.5t33.5 43.5t20 68t6.5 89q0 55 -6.5 103t-20.5 83t-35.5 55t-51.5 20q-56 0 -82 -58.5t-26 -156.5q0 -56 6.5 -103.5t20.5 -83t35.5 -55.5t51.5 -20zM283 540q57 0 105 -24
t80 -64q32 39 76 63.5t96 24.5q49 0 87 -16t63.5 -43.5t38.5 -66t13 -83.5v-23h-326q-2 -53 10.5 -94t35 -70t53.5 -44t67 -15q51 0 86.5 21t62.5 60l16 -9q-19 -75 -73 -121t-141 -46q-54 0 -99.5 23t-76.5 61q-33 -38 -79.5 -61t-98.5 -23q-57 0 -104.5 18.5t-81 53
t-52 83t-18.5 108.5q0 64 19.5 116.5t54.5 90.5t82.5 59t103.5 21z" />
    <glyph glyph-name="Racute" unicode="&#x154;" horiz-adv-x="718" 
d="M489 896v-7l-159 -142h-37l52 149h144zM254 104q0 -21 2.5 -33t11 -19t24.5 -10.5t42 -6.5v-35h-307v35q26 3 42 6.5t24.5 10.5t11 19t2.5 33v494q0 21 -2.5 33t-11 19t-24.5 10.5t-42 6.5v35h319q125 0 193.5 -53.5t68.5 -141.5q0 -41 -15 -72.5t-38.5 -54t-52.5 -37
t-57 -21.5l151 -205q17 -23 31 -38.5t27.5 -25t28.5 -14t35 -4.5v-35h-190q-22 16 -41.5 40t-42.5 58l-138 202h-52v-196zM254 661v-319h48q79 0 118 43t39 121q0 34 -10 62.5t-30 49t-49.5 32t-69.5 11.5h-46z" />
    <glyph glyph-name="racute" unicode="&#x155;" horiz-adv-x="411" 
d="M222 85q0 -15 4.5 -24.5t14.5 -15t26.5 -8t39.5 -4.5v-33h-286v33q35 2 49 10t14 34v354l-60 35v19l179 55h23l-4 -148q18 41 33.5 69t31 45.5t33 25.5t39.5 8q30 0 44 -17v-108h-19q-23 0 -44 -1.5t-41 -6.5t-39 -16t-38 -30v-276zM397 763v-7l-161 -159h-35l55 166h141
z" />
    <glyph glyph-name="Rcommaaccent" unicode="&#x156;" horiz-adv-x="718" 
d="M254 104q0 -21 2.5 -33t11 -19t24.5 -10.5t42 -6.5v-35h-307v35q26 3 42 6.5t24.5 10.5t11 19t2.5 33v494q0 21 -2.5 33t-11 19t-24.5 10.5t-42 6.5v35h319q125 0 193.5 -53.5t68.5 -141.5q0 -41 -15 -72.5t-38.5 -54t-52.5 -37t-57 -21.5l151 -205q17 -23 31 -38.5
t27.5 -25t28.5 -14t35 -4.5v-35h-190q-22 16 -41.5 40t-42.5 58l-138 202h-52v-196zM254 661v-319h48q79 0 118 43t39 121q0 34 -10 62.5t-30 49t-49.5 32t-69.5 11.5h-46zM340 -152q-44 11 -44 54q0 25 19.5 41t51.5 16q39 0 61 -24t22 -60q0 -48 -34.5 -79.5t-110.5 -31.5
v30q43 0 64 16.5t22 37.5h-51z" />
    <glyph glyph-name="rcommaaccent" unicode="&#x157;" horiz-adv-x="411" 
d="M222 85q0 -15 4.5 -24.5t14.5 -15t26.5 -8t39.5 -4.5v-33h-286v33q35 2 49 10t14 34v354l-60 35v19l179 55h23l-4 -148q18 41 33.5 69t31 45.5t33 25.5t39.5 8q30 0 44 -17v-108h-19q-23 0 -44 -1.5t-41 -6.5t-39 -16t-38 -30v-276zM129 -152q-44 11 -44 54q0 25 19.5 41
t51.5 16q39 0 61 -24t22 -60q0 -48 -34.5 -79.5t-110.5 -31.5v30q43 0 64 16.5t22 37.5h-51z" />
    <glyph glyph-name="Rcaron" unicode="&#x158;" horiz-adv-x="718" 
d="M254 104q0 -21 2.5 -33t11 -19t24.5 -10.5t42 -6.5v-35h-307v35q26 3 42 6.5t24.5 10.5t11 19t2.5 33v494q0 21 -2.5 33t-11 19t-24.5 10.5t-42 6.5v35h319q125 0 193.5 -53.5t68.5 -141.5q0 -41 -15 -72.5t-38.5 -54t-52.5 -37t-57 -21.5l151 -205q17 -23 31 -38.5
t27.5 -25t28.5 -14t35 -4.5v-35h-190q-22 16 -41.5 40t-42.5 58l-138 202h-52v-196zM254 661v-319h48q79 0 118 43t39 121q0 34 -10 62.5t-30 49t-49.5 32t-69.5 11.5h-46zM384 747h-96l-125 156h40l133 -82l133 82h40z" />
    <glyph glyph-name="rcaron" unicode="&#x159;" horiz-adv-x="411" 
d="M222 85q0 -15 4.5 -24.5t14.5 -15t26.5 -8t39.5 -4.5v-33h-286v33q35 2 49 10t14 34v354l-60 35v19l179 55h23l-4 -148q18 41 33.5 69t31 45.5t33 25.5t39.5 8q30 0 44 -17v-108h-19q-23 0 -44 -1.5t-41 -6.5t-39 -16t-38 -30v-276zM293 597h-96l-114 171h43l119 -96
l119 96h43z" />
    <glyph glyph-name="Sacute" unicode="&#x15a;" horiz-adv-x="550" 
d="M440 896v-7l-159 -142h-37l52 149h144zM261 -10q-72 0 -130 19t-92 47l-9 171h42q18 -90 65.5 -143.5t123.5 -53.5q61 0 96.5 30.5t35.5 82.5q0 28 -8.5 48.5t-28 37.5t-50.5 31.5t-76 31.5q-44 15 -80 34t-61.5 44t-39 58t-13.5 77q0 46 16.5 84t47.5 65.5t73.5 42.5
t95.5 15q63 0 117 -16t91 -43v-149h-37q-14 80 -56.5 124t-114.5 44q-53 0 -83.5 -29t-30.5 -77q0 -26 7.5 -45.5t25 -35t45 -29t67.5 -28.5q50 -18 90 -38t67.5 -46t42.5 -60.5t15 -81.5q0 -53 -20 -92.5t-54.5 -66t-81 -40t-98.5 -13.5z" />
    <glyph glyph-name="sacute" unicode="&#x15b;" horiz-adv-x="455" 
d="M220 -10q-57 0 -103 13.5t-77 36.5l-6 137h37q8 -33 22 -60.5t32.5 -48t42.5 -32t53 -11.5q41 0 68 19.5t27 61.5q0 40 -28.5 61t-87.5 42q-40 14 -70.5 29.5t-50.5 35.5t-30.5 46t-10.5 61q0 37 13.5 67t38 50t59 31t75.5 11q49 0 90 -12t73 -32v-121h-34q-12 54 -44 92
t-85 38q-38 0 -59.5 -20.5t-21.5 -52.5q0 -35 25 -55t83 -41q41 -14 73 -30t54 -36t33.5 -47t11.5 -64q0 -81 -55 -125t-148 -44zM387 763v-7l-161 -159h-35l55 166h141z" />
    <glyph glyph-name="Scircumflex" unicode="&#x15c;" horiz-adv-x="550" 
d="M456 747h-40l-133 82l-133 -82h-40l125 156h96zM261 -10q-72 0 -130 19t-92 47l-9 171h42q18 -90 65.5 -143.5t123.5 -53.5q61 0 96.5 30.5t35.5 82.5q0 28 -8.5 48.5t-28 37.5t-50.5 31.5t-76 31.5q-44 15 -80 34t-61.5 44t-39 58t-13.5 77q0 46 16.5 84t47.5 65.5
t73.5 42.5t95.5 15q63 0 117 -16t91 -43v-149h-37q-14 80 -56.5 124t-114.5 44q-53 0 -83.5 -29t-30.5 -77q0 -26 7.5 -45.5t25 -35t45 -29t67.5 -28.5q50 -18 90 -38t67.5 -46t42.5 -60.5t15 -81.5q0 -53 -20 -92.5t-54.5 -66t-81 -40t-98.5 -13.5z" />
    <glyph glyph-name="scircumflex" unicode="&#x15d;" horiz-adv-x="455" 
d="M220 -10q-57 0 -103 13.5t-77 36.5l-6 137h37q8 -33 22 -60.5t32.5 -48t42.5 -32t53 -11.5q41 0 68 19.5t27 61.5q0 40 -28.5 61t-87.5 42q-40 14 -70.5 29.5t-50.5 35.5t-30.5 46t-10.5 61q0 37 13.5 67t38 50t59 31t75.5 11q49 0 90 -12t73 -32v-121h-34q-12 54 -44 92
t-85 38q-38 0 -59.5 -20.5t-21.5 -52.5q0 -35 25 -55t83 -41q41 -14 73 -30t54 -36t33.5 -47t11.5 -64q0 -81 -55 -125t-148 -44zM397 594h-43l-119 96l-119 -96h-43l114 171h96z" />
    <glyph glyph-name="Scedilla" unicode="&#x15e;" horiz-adv-x="550" 
d="M163 -195q54 0 82.5 14.5t28.5 35.5q0 22 -21.5 30t-61.5 10l39 96q-62 5 -111.5 22.5t-79.5 42.5l-9 171h42q18 -90 65.5 -143.5t123.5 -53.5q61 0 96.5 30.5t35.5 82.5q0 28 -8.5 48.5t-28 37.5t-50.5 31.5t-76 31.5q-44 15 -80 34t-61.5 44t-39 58t-13.5 77
q0 46 16.5 84t47.5 65.5t73.5 42.5t95.5 15q63 0 117 -16t91 -43v-149h-37q-14 80 -56.5 124t-114.5 44q-53 0 -83.5 -29t-30.5 -77q0 -26 7.5 -45.5t25 -35t45 -29t67.5 -28.5q50 -18 90 -38t67.5 -46t42.5 -60.5t15 -81.5q0 -53 -20 -92.5t-54.5 -66t-81 -40t-98.5 -13.5
l-13 -34q47 0 75 -20t28 -58q0 -27 -14 -46.5t-39 -32.5t-58 -19t-70 -6z" />
    <glyph glyph-name="scedilla" unicode="&#x15f;" horiz-adv-x="455" 
d="M116 -195q54 0 82.5 14.5t28.5 35.5q0 22 -21.5 30t-61.5 10l39 97q-90 9 -143 48l-6 137h37q8 -33 22 -60.5t32.5 -48t42.5 -32t53 -11.5q41 0 68 19.5t27 61.5q0 40 -28.5 61t-87.5 42q-40 14 -70.5 29.5t-50.5 35.5t-30.5 46t-10.5 61q0 37 13.5 67t38 50t59 31
t75.5 11q49 0 90 -12t73 -32v-121h-34q-12 54 -44 92t-85 38q-38 0 -59.5 -20.5t-21.5 -52.5q0 -35 25 -55t83 -41q41 -14 73 -30t54 -36t33.5 -47t11.5 -64q0 -81 -55 -125t-148 -44h-6l-13 -34q47 0 75 -20t28 -58q0 -27 -14 -46.5t-39 -32.5t-58 -19t-70 -6z" />
    <glyph glyph-name="Scaron" unicode="&#x160;" horiz-adv-x="550" 
d="M331 747h-96l-125 156h40l133 -82l133 82h40zM261 -10q-72 0 -130 19t-92 47l-9 171h42q18 -90 65.5 -143.5t123.5 -53.5q61 0 96.5 30.5t35.5 82.5q0 28 -8.5 48.5t-28 37.5t-50.5 31.5t-76 31.5q-44 15 -80 34t-61.5 44t-39 58t-13.5 77q0 46 16.5 84t47.5 65.5
t73.5 42.5t95.5 15q63 0 117 -16t91 -43v-149h-37q-14 80 -56.5 124t-114.5 44q-53 0 -83.5 -29t-30.5 -77q0 -26 7.5 -45.5t25 -35t45 -29t67.5 -28.5q50 -18 90 -38t67.5 -46t42.5 -60.5t15 -81.5q0 -53 -20 -92.5t-54.5 -66t-81 -40t-98.5 -13.5z" />
    <glyph glyph-name="scaron" unicode="&#x161;" horiz-adv-x="455" 
d="M220 -10q-57 0 -103 13.5t-77 36.5l-6 137h37q8 -33 22 -60.5t32.5 -48t42.5 -32t53 -11.5q41 0 68 19.5t27 61.5q0 40 -28.5 61t-87.5 42q-40 14 -70.5 29.5t-50.5 35.5t-30.5 46t-10.5 61q0 37 13.5 67t38 50t59 31t75.5 11q49 0 90 -12t73 -32v-121h-34q-12 54 -44 92
t-85 38q-38 0 -59.5 -20.5t-21.5 -52.5q0 -35 25 -55t83 -41q41 -14 73 -30t54 -36t33.5 -47t11.5 -64q0 -81 -55 -125t-148 -44zM283 597h-96l-114 171h43l119 -96l119 96h43z" />
    <glyph glyph-name="Tcedilla" unicode="&#x162;" horiz-adv-x="675" 
d="M646 702l15 -231h-32q-24 56 -42 93.5t-35.5 60t-38 32t-49.5 9.5h-53v-565q0 -21 4.5 -32.5t15 -18t27.5 -9.5t43 -6v-35h-326v35q25 3 42.5 6t28 9.5t15 18t4.5 32.5v565h-53q-29 0 -49.5 -9.5t-38 -32t-36 -60t-42.5 -93.5h-32l15 231h617zM305 -152q-44 11 -44 54
q0 25 19.5 41t51.5 16q39 0 61 -24t22 -60q0 -48 -34.5 -79.5t-110.5 -31.5v30q43 0 64 16.5t22 37.5h-51z" />
    <glyph glyph-name="tcedilla" unicode="&#x163;" horiz-adv-x="360" 
d="M203 530h130v-46h-130v-331q0 -46 17.5 -66.5t52.5 -20.5q21 0 38.5 7t36.5 21l12 -18q-24 -38 -62 -62t-92 -24q-31 0 -57 8.5t-45 27t-29.5 48t-10.5 71.5v339h-62v23q52 23 95.5 63t75.5 90h30v-130zM150 -152q-44 11 -44 54q0 25 19.5 41t51.5 16q39 0 61 -24t22 -60
q0 -48 -34.5 -79.5t-110.5 -31.5v30q43 0 64 16.5t22 37.5h-51z" />
    <glyph glyph-name="Tcaron" unicode="&#x164;" horiz-adv-x="675" 
d="M646 702l15 -231h-32q-24 56 -42 93.5t-35.5 60t-38 32t-49.5 9.5h-53v-565q0 -21 4.5 -32.5t15 -18t27.5 -9.5t43 -6v-35h-326v35q25 3 42.5 6t28 9.5t15 18t4.5 32.5v565h-53q-29 0 -49.5 -9.5t-38 -32t-36 -60t-42.5 -93.5h-32l15 231h617zM385 747h-96l-125 156h40
l133 -82l133 82h40z" />
    <glyph glyph-name="tcaron" unicode="&#x165;" horiz-adv-x="360" 
d="M203 530h130v-46h-130v-331q0 -46 17.5 -66.5t52.5 -20.5q21 0 38.5 7t36.5 21l12 -18q-24 -38 -62 -62t-92 -24q-31 0 -57 8.5t-45 27t-29.5 48t-10.5 71.5v339h-62v23q52 23 95.5 63t75.5 90h30v-130zM272 578h-26l16 205h121v-8z" />
    <glyph glyph-name="Tbar" unicode="&#x166;" horiz-adv-x="675" 
d="M646 702l15 -231h-32q-24 56 -42 93.5t-35.5 60t-38 32t-49.5 9.5h-53v-283h113v-48h-113v-234q0 -21 4.5 -32.5t15 -18t27.5 -9.5t43 -6v-35h-326v35q25 3 42.5 6t28 9.5t15 18t4.5 32.5v234h-113v48h113v283h-53q-29 0 -49.5 -9.5t-38 -32t-36 -60t-42.5 -93.5h-32
l15 231h617z" />
    <glyph glyph-name="tbar" unicode="&#x167;" horiz-adv-x="374" 
d="M209 530h130v-46h-130v-109h130v-44h-130v-178q0 -46 17.5 -66.5t52.5 -20.5q21 0 38.5 7t36.5 21l12 -18q-24 -38 -62 -62t-92 -24q-31 0 -57 8.5t-45 27t-29.5 48t-10.5 71.5v186h-62v44h62v109h-62v23q52 23 95.5 63t75.5 90h30v-130z" />
    <glyph glyph-name="Utilde" unicode="&#x168;" horiz-adv-x="733" 
d="M238 254q0 -92 40 -144t123 -52q41 0 75.5 11.5t59 35.5t38 62.5t13.5 92.5v337q0 20 -3.5 32.5t-13.5 20t-28.5 11t-49.5 6.5v35h229v-35q-26 -3 -42 -6.5t-24.5 -11t-11 -20t-2.5 -32.5v-355q0 -65 -21 -112t-57 -78.5t-84.5 -46.5t-103.5 -15q-133 0 -208 62.5
t-75 191.5v354q0 21 -2.5 33t-11 19t-24.5 10.5t-42 6.5v35h306v-35q-26 -3 -42 -6.5t-24.5 -10.5t-11 -19t-2.5 -33v-344zM463 747q-22 0 -40.5 9t-35 20.5t-32.5 20.5t-32 9q-22 0 -38 -14t-32 -42l-27 15q26 66 50.5 96t62.5 30q22 0 40.5 -9.5t35.5 -20.5l32 -21
q15 -9 32 -9q22 0 38 14.5t32 42.5l27 -16q-26 -65 -50.5 -95t-62.5 -30z" />
    <glyph glyph-name="utilde" unicode="&#x169;" horiz-adv-x="601" 
d="M361 601q-22 0 -39.5 9.5t-33 20.5t-30.5 20.5t-32 9.5q-21 0 -36 -14.5t-30 -41.5l-28 15q13 32 25 55.5t24.5 39t27 23t33.5 7.5q22 0 39.5 -9t33.5 -20.5t30.5 -20.5t31.5 -9q22 0 36.5 14t30.5 42l27 -15q-26 -65 -49 -95.5t-61 -30.5zM524 106q0 -13 1 -21.5t5 -14
t12 -8.5t22 -4l25 -2v-30l-182 -36h-25l3 96q-16 -18 -34 -35t-39 -30.5t-46 -22t-55 -8.5q-66 0 -105.5 38.5t-39.5 123.5v260q0 25 -8.5 38t-37.5 18l-16 3v30l184 38h22l-5 -119v-250q0 -46 18 -71.5t60 -25.5q30 0 54 11t48 27v301q0 25 -8.5 38t-37.5 18l-15 3v30
l182 38h22l-4 -117v-316z" />
    <glyph glyph-name="Umacron" unicode="&#x16a;" horiz-adv-x="733" 
d="M238 254q0 -92 40 -144t123 -52q41 0 75.5 11.5t59 35.5t38 62.5t13.5 92.5v337q0 20 -3.5 32.5t-13.5 20t-28.5 11t-49.5 6.5v35h229v-35q-26 -3 -42 -6.5t-24.5 -11t-11 -20t-2.5 -32.5v-355q0 -65 -21 -112t-57 -78.5t-84.5 -46.5t-103.5 -15q-133 0 -208 62.5
t-75 191.5v354q0 21 -2.5 33t-11 19t-24.5 10.5t-42 6.5v35h306v-35q-26 -3 -42 -6.5t-24.5 -10.5t-11 -19t-2.5 -33v-344zM253 830h287v-68h-287v68z" />
    <glyph glyph-name="umacron" unicode="&#x16b;" horiz-adv-x="601" 
d="M165 692h269v-68h-269v68zM524 106q0 -13 1 -21.5t5 -14t12 -8.5t22 -4l25 -2v-30l-182 -36h-25l3 96q-16 -18 -34 -35t-39 -30.5t-46 -22t-55 -8.5q-66 0 -105.5 38.5t-39.5 123.5v260q0 25 -8.5 38t-37.5 18l-16 3v30l184 38h22l-5 -119v-250q0 -46 18 -71.5t60 -25.5
q30 0 54 11t48 27v301q0 25 -8.5 38t-37.5 18l-15 3v30l182 38h22l-4 -117v-316z" />
    <glyph glyph-name="Ubreve" unicode="&#x16c;" horiz-adv-x="733" 
d="M238 254q0 -92 40 -144t123 -52q41 0 75.5 11.5t59 35.5t38 62.5t13.5 92.5v337q0 20 -3.5 32.5t-13.5 20t-28.5 11t-49.5 6.5v35h229v-35q-26 -3 -42 -6.5t-24.5 -11t-11 -20t-2.5 -32.5v-355q0 -65 -21 -112t-57 -78.5t-84.5 -46.5t-103.5 -15q-133 0 -208 62.5
t-75 191.5v354q0 21 -2.5 33t-11 19t-24.5 10.5t-42 6.5v35h306v-35q-26 -3 -42 -6.5t-24.5 -10.5t-11 -19t-2.5 -33v-344zM397 744q-68 0 -106.5 39.5t-38.5 116.5h37q7 -46 37.5 -62.5t70.5 -16.5q39 0 69.5 16.5t38.5 62.5h37q0 -77 -39 -116.5t-106 -39.5z" />
    <glyph glyph-name="ubreve" unicode="&#x16d;" horiz-adv-x="601" 
d="M299 597q-66 0 -100.5 41.5t-34.5 121.5h38q5 -48 31.5 -66.5t65.5 -18.5q40 0 66.5 18.5t31.5 66.5h38q0 -80 -35 -121.5t-101 -41.5zM524 106q0 -13 1 -21.5t5 -14t12 -8.5t22 -4l25 -2v-30l-182 -36h-25l3 96q-16 -18 -34 -35t-39 -30.5t-46 -22t-55 -8.5
q-66 0 -105.5 38.5t-39.5 123.5v260q0 25 -8.5 38t-37.5 18l-16 3v30l184 38h22l-5 -119v-250q0 -46 18 -71.5t60 -25.5q30 0 54 11t48 27v301q0 25 -8.5 38t-37.5 18l-15 3v30l182 38h22l-4 -117v-316z" />
    <glyph glyph-name="Uring" unicode="&#x16e;" horiz-adv-x="733" 
d="M302 824q0 40 27 67t69 27t68 -27t26 -67t-26 -67t-68 -27t-69 27t-27 67zM346 824q0 -23 13 -38.5t39 -15.5q25 0 38.5 15.5t13.5 38.5t-13.5 38.5t-38.5 15.5q-26 0 -39 -15.5t-13 -38.5zM238 254q0 -92 40 -144t123 -52q41 0 75.5 11.5t59 35.5t38 62.5t13.5 92.5v337
q0 20 -3.5 32.5t-13.5 20t-28.5 11t-49.5 6.5v35h229v-35q-26 -3 -42 -6.5t-24.5 -11t-11 -20t-2.5 -32.5v-355q0 -65 -21 -112t-57 -78.5t-84.5 -46.5t-103.5 -15q-133 0 -208 62.5t-75 191.5v354q0 21 -2.5 33t-11 19t-24.5 10.5t-42 6.5v35h306v-35q-26 -3 -42 -6.5
t-24.5 -10.5t-11 -19t-2.5 -33v-344z" />
    <glyph glyph-name="uring" unicode="&#x16f;" horiz-adv-x="601" 
d="M524 106q0 -13 1 -21.5t5 -14t12 -8.5t22 -4l25 -2v-30l-182 -36h-25l3 96q-16 -18 -34 -35t-39 -30.5t-46 -22t-55 -8.5q-66 0 -105.5 38.5t-39.5 123.5v260q0 25 -8.5 38t-37.5 18l-16 3v30l184 38h22l-5 -119v-250q0 -46 18 -71.5t60 -25.5q30 0 54 11t48 27v301
q0 25 -8.5 38t-37.5 18l-15 3v30l182 38h22l-4 -117v-316zM204 665q0 41 27 67.5t69 26.5t68 -26.5t26 -67.5q0 -39 -26 -66t-68 -27t-69 27t-27 66zM248 665q0 -23 13 -38.5t39 -15.5q25 0 38.5 15.5t13.5 38.5q0 24 -13.5 39.5t-38.5 15.5q-26 0 -39 -15.5t-13 -39.5z" />
    <glyph glyph-name="Uhungarumlaut" unicode="&#x170;" horiz-adv-x="733" 
d="M635 896v-7l-143 -142h-36l55 149h124zM473 896v-7l-142 -142h-37l55 149h124zM238 254q0 -92 40 -144t123 -52q41 0 75.5 11.5t59 35.5t38 62.5t13.5 92.5v337q0 20 -3.5 32.5t-13.5 20t-28.5 11t-49.5 6.5v35h229v-35q-26 -3 -42 -6.5t-24.5 -11t-11 -20t-2.5 -32.5
v-355q0 -65 -21 -112t-57 -78.5t-84.5 -46.5t-103.5 -15q-133 0 -208 62.5t-75 191.5v354q0 21 -2.5 33t-11 19t-24.5 10.5t-42 6.5v35h306v-35q-26 -3 -42 -6.5t-24.5 -10.5t-11 -19t-2.5 -33v-344z" />
    <glyph glyph-name="uhungarumlaut" unicode="&#x171;" horiz-adv-x="601" 
d="M528 763v-7l-144 -159h-35l55 166h124zM366 763v-7l-144 -159h-35l55 166h124zM524 106q0 -13 1 -21.5t5 -14t12 -8.5t22 -4l25 -2v-30l-182 -36h-25l3 96q-16 -18 -34 -35t-39 -30.5t-46 -22t-55 -8.5q-66 0 -105.5 38.5t-39.5 123.5v260q0 25 -8.5 38t-37.5 18l-16 3
v30l184 38h22l-5 -119v-250q0 -46 18 -71.5t60 -25.5q30 0 54 11t48 27v301q0 25 -8.5 38t-37.5 18l-15 3v30l182 38h22l-4 -117v-316z" />
    <glyph glyph-name="Uogonek" unicode="&#x172;" horiz-adv-x="733" 
d="M238 254q0 -92 40 -144t123 -52q41 0 75.5 11.5t59 35.5t38 62.5t13.5 92.5v337q0 20 -3.5 32.5t-13.5 20t-28.5 11t-49.5 6.5v35h229v-35q-26 -3 -42 -6.5t-24.5 -11t-11 -20t-2.5 -32.5v-355q0 -49 -12 -88t-34 -68.5t-52.5 -50t-67.5 -31.5q-42 -21 -64.5 -47
t-22.5 -60q0 -23 11.5 -37t36.5 -14q22 0 38 6.5t36 22.5l13 -15q-25 -31 -55.5 -52t-74.5 -21q-39 0 -64.5 22.5t-25.5 59.5q0 42 27.5 71t69.5 51q-6 0 -12.5 -0.5t-12.5 -0.5q-133 0 -208 62.5t-75 191.5v354q0 21 -2.5 33t-11 19t-24.5 10.5t-42 6.5v35h306v-35
q-26 -3 -42 -6.5t-24.5 -10.5t-11 -19t-2.5 -33v-344z" />
    <glyph glyph-name="uogonek" unicode="&#x173;" horiz-adv-x="601" 
d="M524 106q0 -13 1 -21.5t5 -14t12 -8.5t22 -4l25 -2v-30q-65 -12 -108 -25t-68.5 -28.5t-35.5 -34t-10 -42.5q0 -22 11.5 -36t36.5 -14q22 0 38 6.5t36 22.5l13 -15q-25 -31 -55.5 -52t-73.5 -21q-40 0 -65.5 23t-25.5 61q0 42 27 68.5t73 49.5l3 97q-16 -18 -34 -35
t-39 -30.5t-46 -22t-55 -8.5q-66 0 -105.5 38.5t-39.5 123.5v260q0 25 -8.5 38t-37.5 18l-16 3v30l184 38h22l-5 -119v-250q0 -46 18 -71.5t60 -25.5q30 0 54 11t48 27v301q0 25 -8.5 38t-37.5 18l-15 3v30l182 38h22l-4 -117v-316z" />
    <glyph glyph-name="Wcircumflex" unicode="&#x174;" horiz-adv-x="964" 
d="M679 747h-40l-133 82l-133 -82h-40l125 156h96zM494 400l-148 -406h-48l-234 636q-7 19 -23 26.5t-36 10.5v35h293v-35q-40 -2 -56 -11t-16 -29q0 -11 3.5 -22.5t8.5 -25.5l137 -383l97 269l-55 165q-7 20 -20.5 27t-34.5 10v35h288v-35q-45 -1 -62.5 -10.5t-17.5 -32.5
q0 -11 3 -22.5t8 -28.5l122 -372l126 374q5 14 8.5 25t3.5 22q0 22 -17.5 32.5t-62.5 12.5v35h198v-35q-20 -3 -35.5 -10t-22.5 -27l-222 -636h-48z" />
    <glyph glyph-name="wcircumflex" unicode="&#x175;" horiz-adv-x="837" 
d="M722 436q5 17 5 27q0 18 -15.5 24t-46.5 10v33h167v-33q-26 -8 -35 -15t-16 -23l-189 -466h-43l-120 323l-133 -323h-42l-198 466q-7 16 -15.5 23t-35.5 15v33h261v-33q-29 -4 -43 -10t-14 -23q0 -6 1 -13t5 -15l106 -275l86 214l-31 84q-6 16 -15.5 23.5t-33.5 14.5v33
h254v-33q-32 -5 -48 -10t-16 -25q0 -11 4 -26l96 -268zM597 594h-43l-119 96l-119 -96h-43l114 171h96z" />
    <glyph glyph-name="Ycircumflex" unicode="&#x176;" horiz-adv-x="666" 
d="M535 747h-40l-133 82l-133 -82h-40l125 156h96zM407 101q0 -21 4.5 -32.5t15 -18t27.5 -9.5t42 -6v-35h-321v35q25 3 42.5 6t28 9.5t15 18t4.5 32.5v169l-201 360q-11 20 -24.5 27t-34.5 10v35h301v-35q-46 -2 -62 -9t-16 -27q0 -14 6 -26l15 -29l139 -243l130 241
q7 14 14 29.5t7 27.5q0 20 -18 27t-61 9v35h201v-35q-21 -3 -35 -10.5t-24 -26.5l-195 -358v-171z" />
    <glyph glyph-name="ycircumflex" unicode="&#x177;" horiz-adv-x="563" 
d="M475 594h-43l-119 96l-119 -96h-43l114 171h96zM447 435q7 17 7 28q0 17 -14.5 23t-53.5 11v33h172v-33q-26 -8 -35 -15t-16 -23l-220 -554q-25 -61 -54 -93t-78 -32q-26 0 -47.5 12t-29.5 34v51q16 -4 31 -6.5t37 -2.5q41 0 66.5 14t41.5 56l17 43l-215 478
q-7 16 -15.5 23t-35.5 15v33h272v-33q-38 -5 -53 -11t-15 -23q0 -10 6 -28l120 -296z" />
    <glyph glyph-name="Ydieresis" unicode="&#x178;" horiz-adv-x="666" 
d="M389 822q0 30 21 51.5t51 21.5q32 0 53 -21.5t21 -51.5q0 -29 -21 -51t-53 -22q-30 0 -51 22t-21 51zM190 822q0 30 21 51.5t51 21.5q31 0 52.5 -21.5t21.5 -51.5q0 -29 -21.5 -51t-52.5 -22q-30 0 -51 22t-21 51zM407 101q0 -21 4.5 -32.5t15 -18t27.5 -9.5t42 -6v-35
h-321v35q25 3 42.5 6t28 9.5t15 18t4.5 32.5v169l-201 360q-11 20 -24.5 27t-34.5 10v35h301v-35q-46 -2 -62 -9t-16 -27q0 -14 6 -26l15 -29l139 -243l130 241q7 14 14 29.5t7 27.5q0 20 -18 27t-61 9v35h201v-35q-21 -3 -35 -10.5t-24 -26.5l-195 -358v-171z" />
    <glyph glyph-name="Zacute" unicode="&#x179;" horiz-adv-x="607" 
d="M461 896v-7l-159 -142h-37l52 149h144zM365 40q31 0 54 8t43.5 28.5t42 54t50.5 84.5h34l-35 -215h-536v26l378 636h-166q-32 0 -53 -8t-37.5 -27t-31.5 -50l-34 -76h-33l8 201h521v-26l-376 -636h171z" />
    <glyph glyph-name="zacute" unicode="&#x17a;" horiz-adv-x="508" 
d="M25 23l293 466h-119q-42 0 -69 -33.5t-56 -111.5h-32l16 217h29l15 -33h375v-25l-286 -464h128q22 0 40 8t33.5 26t30.5 47t31 71h31l-19 -191h-441v23zM424 763v-7l-161 -159h-35l55 166h141z" />
    <glyph glyph-name="Zdotaccent" unicode="&#x17b;" horiz-adv-x="607" 
d="M365 40q31 0 54 8t43.5 28.5t42 54t50.5 84.5h34l-35 -215h-536v26l378 636h-166q-32 0 -53 -8t-37.5 -27t-31.5 -50l-34 -76h-33l8 201h521v-26l-376 -636h171zM308 749q-37 0 -59 23t-22 55t22 55.5t59 23.5q36 0 59 -23.5t23 -55.5t-23 -55t-59 -23z" />
    <glyph glyph-name="zdotaccent" unicode="&#x17c;" horiz-adv-x="508" 
d="M272 602q-37 0 -59 23.5t-22 55.5t22 55.5t59 23.5q36 0 59 -23.5t23 -55.5t-23 -55.5t-59 -23.5zM25 23l293 466h-119q-42 0 -69 -33.5t-56 -111.5h-32l16 217h29l15 -33h375v-25l-286 -464h128q22 0 40 8t33.5 26t30.5 47t31 71h31l-19 -191h-441v23z" />
    <glyph glyph-name="Zcaron" unicode="&#x17d;" horiz-adv-x="607" 
d="M365 40q31 0 54 8t43.5 28.5t42 54t50.5 84.5h34l-35 -215h-536v26l378 636h-166q-32 0 -53 -8t-37.5 -27t-31.5 -50l-34 -76h-33l8 201h521v-26l-376 -636h171zM356 747h-96l-125 156h40l133 -82l133 82h40z" />
    <glyph glyph-name="zcaron" unicode="&#x17e;" horiz-adv-x="508" 
d="M25 23l293 466h-119q-42 0 -69 -33.5t-56 -111.5h-32l16 217h29l15 -33h375v-25l-286 -464h128q22 0 40 8t33.5 26t30.5 47t31 71h31l-19 -191h-441v23zM320 597h-96l-114 171h43l119 -96l119 96h43z" />
    <glyph glyph-name="florin" unicode="&#x192;" horiz-adv-x="523" 
d="M80 369h91l7 51q17 143 69.5 217.5t152.5 74.5q54 0 85.5 -20.5t31.5 -60.5q0 -24 -13.5 -39.5t-36.5 -22.5h-36q0 20 -1.5 40.5t-6 37t-13.5 26.5t-25 10q-43 0 -52 -75l-30 -239h111l-4 -35h-112l-25 -206q-17 -143 -69.5 -217.5t-152.5 -74.5q-54 0 -85.5 20.5
t-31.5 60.5q0 24 13.5 39.5t36.5 22.5h36q0 -20 1.5 -40.5t6 -37t13.5 -26.5t25 -10q43 0 52 75l49 394h-91z" />
    <glyph glyph-name="Aringacute" unicode="&#x1fa;" horiz-adv-x="728" 
d="M282 815q0 -22 14.5 -36t40.5 -14t40.5 14t14.5 36t-14.5 36t-40.5 14t-40.5 -14t-14.5 -36zM491 1040v-7l-149 -113h-37l43 120h143zM240 815q0 37 27.5 61.5t69.5 24.5t69.5 -24.5t27.5 -61.5t-27.5 -61.5t-69.5 -24.5t-69.5 24.5t-27.5 61.5zM193 274h236l-120 301z
M446 231h-269l-43 -112q-9 -23 -9 -39q0 -24 20 -33.5t66 -11.5v-35h-206v35q21 3 36 10t23 27l218 560l-31 75h156l257 -635q8 -20 23.5 -27t35.5 -10v-35h-306v35q45 2 64.5 11t19.5 33q0 16 -9 39z" />
    <glyph glyph-name="aringacute" unicode="&#x1fb;" horiz-adv-x="524" 
d="M449 111q0 -26 6.5 -41t26.5 -15q11 0 21.5 3t18.5 7l6 -22q-45 -53 -114 -53q-41 0 -66.5 23t-33.5 65q-12 -16 -28 -31.5t-35.5 -27.5t-42.5 -19.5t-50 -7.5q-61 0 -98 34.5t-37 94.5q0 32 11 55.5t29.5 40.5t43.5 29.5t53 23.5l151 55v85q0 43 -16 70.5t-55 27.5
q-36 0 -51.5 -24t-15.5 -60q0 -15 2 -30t6 -32l-83 -11q-20 7 -32 22.5t-12 40.5q0 31 15 54.5t41.5 39.5t62.5 24t78 8q97 0 147.5 -38t50.5 -126v-265zM234 70q22 0 39 8t38 24v187l-86 -35q-32 -12 -50 -32.5t-18 -62.5q0 -39 18.5 -64t58.5 -25zM203 645q0 -22 14.5 -36
t40.5 -14t40 14t14 36t-14 36t-40 14t-40.5 -14t-14.5 -36zM411 872v-7l-150 -113h-37l43 120h144zM160 645q0 37 27.5 61.5t70.5 24.5q42 0 69.5 -24.5t27.5 -61.5t-27.5 -61.5t-69.5 -24.5q-43 0 -70.5 24.5t-27.5 61.5z" />
    <glyph glyph-name="AEacute" unicode="&#x1fc;" horiz-adv-x="1021" 
d="M794 896v-7l-159 -142h-37l52 149h144zM261 290h232v361zM423 630q-10 19 -36 27t-64 10v35h639l5 -180h-30q-18 41 -33.5 68t-33 43t-39.5 22.5t-52 6.5h-140v-278h127q34 0 48 22t21 70h36v-227h-36q-7 48 -21 69.5t-48 21.5h-127v-232q0 -41 21.5 -54.5t67.5 -13.5h63
q30 0 52 8.5t41 27t38.5 49t44.5 75.5h35l-31 -200h-558v35q26 3 42 6.5t24.5 10.5t11 19t2.5 33v143h-260l-82 -128q-8 -12 -12 -22t-4 -19q0 -20 22 -31t71 -12v-35h-223v35q21 3 33.5 11t25.5 26z" />
    <glyph glyph-name="aeacute" unicode="&#x1fd;" horiz-adv-x="763" 
d="M557 763v-7l-161 -159h-35l55 166h141zM528 503q-25 0 -43 -12t-30.5 -33.5t-20 -51t-10.5 -63.5h194q0 35 -5 64.5t-15.5 50.5t-28 33t-41.5 12zM240 70q20 0 43.5 8.5t47.5 25.5q-34 62 -34 147v16q0 7 1 15l-68 -26q-35 -14 -54 -34.5t-19 -62.5q0 -39 19 -64t64 -25z
M540 540q49 0 87 -16.5t63.5 -45t38.5 -67t13 -83.5v-22h-320q-2 -52 9.5 -93t33 -69.5t52 -43.5t68.5 -15q49 0 84 21t62 60l16 -9q-19 -75 -73 -121t-141 -46q-63 0 -110.5 24.5t-78.5 68.5q-31 -37 -74 -64t-109 -27q-63 0 -100.5 34.5t-37.5 94.5q0 32 11 55.5
t29.5 40.5t43.5 29.5t53 23.5l143 50q5 25 12 47q0 31 -5 56.5t-14.5 44.5t-24.5 29.5t-36 10.5q-32 0 -47 -24t-15 -60q0 -15 2 -30t6 -32l-83 -11q-20 7 -32 22.5t-12 40.5q0 31 15 54.5t41 39.5t60.5 24t73.5 8q49 0 85.5 -14.5t57.5 -44.5q31 29 69.5 44t83.5 15z" />
    <glyph glyph-name="Oslashacute" unicode="&#x1fe;" horiz-adv-x="722" 
d="M518 896v-7l-159 -142h-37l52 149h144zM365 31q44 0 76 26.5t53 70t31 100t10 117.5q0 95 -23 175l-279 -399q22 -42 54.5 -66t77.5 -24zM186 357q0 -52 7 -101t21 -91l281 401q-22 48 -56.5 76.5t-82.5 28.5q-44 0 -76 -26.5t-53 -70t-31 -100t-10 -117.5zM355 -10
q-54 0 -98.5 13t-80.5 36l-67 -95l-33 23l67 97q-56 49 -84.5 120.5t-28.5 152.5q0 86 25.5 155.5t71 118t107 75t133.5 26.5q57 0 104 -15.5t85 -42.5l63 90l33 -24l-64 -91q51 -49 77.5 -117.5t26.5 -146.5q0 -86 -25.5 -155.5t-71 -118t-107 -75t-133.5 -26.5z" />
    <glyph glyph-name="oslashacute" unicode="&#x1ff;" horiz-adv-x="561" 
d="M433 763v-7l-161 -159h-35l55 166h141zM284 26q28 0 48 15.5t33 43.5t19.5 68t6.5 89q0 76 -12 135l-185 -271q14 -38 36 -59t54 -21zM169 288q0 -79 13 -137l184 271q-14 38 -36 59.5t-53 21.5q-56 0 -82 -58.5t-26 -156.5zM279 -10q-81 0 -140 35l-52 -77l-30 20l53 78
q-42 35 -65 87.5t-23 119.5q0 64 19.5 116.5t54.5 90.5t82.5 59t103.5 21q40 0 75 -9.5t64 -26.5l53 77l30 -20l-53 -78q42 -35 65 -88t23 -119q0 -64 -19.5 -116.5t-54.5 -90t-82.5 -58.5t-103.5 -21z" />
    <glyph glyph-name="Scommaaccent" unicode="&#x218;" horiz-adv-x="550" 
d="M261 -10q-72 0 -130 19t-92 47l-9 171h42q18 -90 65.5 -143.5t123.5 -53.5q61 0 96.5 30.5t35.5 82.5q0 28 -8.5 48.5t-28 37.5t-50.5 31.5t-76 31.5q-44 15 -80 34t-61.5 44t-39 58t-13.5 77q0 46 16.5 84t47.5 65.5t73.5 42.5t95.5 15q63 0 117 -16t91 -43v-149h-37
q-14 80 -56.5 124t-114.5 44q-53 0 -83.5 -29t-30.5 -77q0 -26 7.5 -45.5t25 -35t45 -29t67.5 -28.5q50 -18 90 -38t67.5 -46t42.5 -60.5t15 -81.5q0 -53 -20 -92.5t-54.5 -66t-81 -40t-98.5 -13.5zM238 -152q-44 11 -44 54q0 25 19.5 41t51.5 16q39 0 61 -24t22 -60
q0 -48 -34.5 -79.5t-110.5 -31.5v30q43 0 64 16.5t22 37.5h-51z" />
    <glyph glyph-name="scommaaccent" unicode="&#x219;" horiz-adv-x="455" 
d="M220 -10q-57 0 -103 13.5t-77 36.5l-6 137h37q8 -33 22 -60.5t32.5 -48t42.5 -32t53 -11.5q41 0 68 19.5t27 61.5q0 40 -28.5 61t-87.5 42q-40 14 -70.5 29.5t-50.5 35.5t-30.5 46t-10.5 61q0 37 13.5 67t38 50t59 31t75.5 11q49 0 90 -12t73 -32v-121h-34q-12 54 -44 92
t-85 38q-38 0 -59.5 -20.5t-21.5 -52.5q0 -35 25 -55t83 -41q41 -14 73 -30t54 -36t33.5 -47t11.5 -64q0 -81 -55 -125t-148 -44zM197 -152q-44 11 -44 54q0 25 19.5 41t51.5 16q39 0 61 -24t22 -60q0 -48 -34.5 -79.5t-110.5 -31.5v30q43 0 64 16.5t22 37.5h-51z" />
    <glyph glyph-name="uni0237" unicode="&#x237;" horiz-adv-x="273" 
d="M11 466v19l176 55h22v-445q0 -38 -3 -65.5t-9 -48.5t-15 -37.5t-21 -33.5q-31 -39 -66.5 -68.5t-82.5 -59.5l-15 16l41 68q24 40 28.5 86t4.5 106v373z" />
    <glyph glyph-name="circumflex" unicode="&#x2c6;" 
d="M412 594h-43l-119 96l-119 -96h-43l114 171h96z" />
    <glyph glyph-name="caron" unicode="&#x2c7;" 
d="M298 597h-96l-114 171h43l119 -96l119 96h43z" />
    <glyph glyph-name="breve" unicode="&#x2d8;" 
d="M253 597q-66 0 -100.5 41.5t-34.5 121.5h38q5 -48 31.5 -66.5t65.5 -18.5q40 0 66.5 18.5t31.5 66.5h38q0 -80 -35 -121.5t-101 -41.5z" />
    <glyph glyph-name="dotaccent" unicode="&#x2d9;" 
d="M250 602q-37 0 -59 23.5t-22 55.5t22 55.5t59 23.5q36 0 59 -23.5t23 -55.5t-23 -55.5t-59 -23.5z" />
    <glyph glyph-name="ring" unicode="&#x2da;" 
d="M159 665q0 41 27 67.5t69 26.5t68 -26.5t26 -67.5q0 -39 -26 -66t-68 -27t-69 27t-27 66zM203 665q0 -23 13 -38.5t39 -15.5q25 0 38.5 15.5t13.5 38.5q0 24 -13.5 39.5t-38.5 15.5q-26 0 -39 -15.5t-13 -39.5z" />
    <glyph glyph-name="ogonek" unicode="&#x2db;" 
d="M333 13q-51 -23 -79 -50.5t-28 -65.5q0 -23 11.5 -37t36.5 -14q22 0 38 6.5t36 22.5l13 -15q-25 -31 -55.5 -52t-74.5 -21q-39 0 -64.5 22.5t-25.5 59.5q0 31 16 55t42 43t59 33.5t68 27.5z" />
    <glyph glyph-name="tilde" unicode="&#x2dc;" 
d="M312 601q-22 0 -39.5 9.5t-33 20.5t-30.5 20.5t-32 9.5q-21 0 -36 -14.5t-30 -41.5l-28 15q13 32 25 55.5t24.5 39t27 23t33.5 7.5q22 0 39.5 -9t33.5 -20.5t30.5 -20.5t31.5 -9q22 0 36.5 14t30.5 42l27 -15q-26 -65 -49 -95.5t-61 -30.5z" />
    <glyph glyph-name="hungarumlaut" unicode="&#x2dd;" 
d="M426 763v-7l-144 -159h-35l55 166h124zM264 763v-7l-144 -159h-35l55 166h124z" />
    <glyph glyph-name="pi" unicode="&#x3c0;" horiz-adv-x="590" 
d="M372 442h-162q0 -77 -2 -137t-6.5 -111.5t-12.5 -98t-19 -95.5h-139v26q19 34 38.5 76.5t35.5 94.5t26 113t10 132h-117v96h533l-17 -96h-80v-323q0 -35 15 -49t37 -14q25 0 46 6l5 -19q-26 -25 -56 -39t-62 -14q-49 0 -78.5 27t-29.5 87q0 14 1 27t3 34z" />
    <glyph glyph-name="Wgrave" unicode="&#x1e80;" horiz-adv-x="964" 
d="M500 896l52 -149h-37l-159 142v7h144zM494 400l-148 -406h-48l-234 636q-7 19 -23 26.5t-36 10.5v35h293v-35q-40 -2 -56 -11t-16 -29q0 -11 3.5 -22.5t8.5 -25.5l137 -383l97 269l-55 165q-7 20 -20.5 27t-34.5 10v35h288v-35q-45 -1 -62.5 -10.5t-17.5 -32.5
q0 -11 3 -22.5t8 -28.5l122 -372l126 374q5 14 8.5 25t3.5 22q0 22 -17.5 32.5t-62.5 12.5v35h198v-35q-20 -3 -35.5 -10t-22.5 -27l-222 -636h-48z" />
    <glyph glyph-name="wgrave" unicode="&#x1e81;" horiz-adv-x="837" 
d="M428 763l55 -166h-35l-161 159v7h141zM722 436q5 17 5 27q0 18 -15.5 24t-46.5 10v33h167v-33q-26 -8 -35 -15t-16 -23l-189 -466h-43l-120 323l-133 -323h-42l-198 466q-7 16 -15.5 23t-35.5 15v33h261v-33q-29 -4 -43 -10t-14 -23q0 -6 1 -13t5 -15l106 -275l86 214
l-31 84q-6 16 -15.5 23.5t-33.5 14.5v33h254v-33q-32 -5 -48 -10t-16 -25q0 -11 4 -26l96 -268z" />
    <glyph glyph-name="Wacute" unicode="&#x1e82;" horiz-adv-x="964" 
d="M659 896v-7l-159 -142h-37l52 149h144zM494 400l-148 -406h-48l-234 636q-7 19 -23 26.5t-36 10.5v35h293v-35q-40 -2 -56 -11t-16 -29q0 -11 3.5 -22.5t8.5 -25.5l137 -383l97 269l-55 165q-7 20 -20.5 27t-34.5 10v35h288v-35q-45 -1 -62.5 -10.5t-17.5 -32.5
q0 -11 3 -22.5t8 -28.5l122 -372l126 374q5 14 8.5 25t3.5 22q0 22 -17.5 32.5t-62.5 12.5v35h198v-35q-20 -3 -35.5 -10t-22.5 -27l-222 -636h-48z" />
    <glyph glyph-name="wacute" unicode="&#x1e83;" horiz-adv-x="837" 
d="M722 436q5 17 5 27q0 18 -15.5 24t-46.5 10v33h167v-33q-26 -8 -35 -15t-16 -23l-189 -466h-43l-120 323l-133 -323h-42l-198 466q-7 16 -15.5 23t-35.5 15v33h261v-33q-29 -4 -43 -10t-14 -23q0 -6 1 -13t5 -15l106 -275l86 214l-31 84q-6 16 -15.5 23.5t-33.5 14.5v33
h254v-33q-32 -5 -48 -10t-16 -25q0 -11 4 -26l96 -268zM587 763v-7l-161 -159h-35l55 166h141z" />
    <glyph glyph-name="Wdieresis" unicode="&#x1e84;" horiz-adv-x="964" 
d="M334 822q0 30 21 51.5t51 21.5q31 0 52.5 -21.5t21.5 -51.5q0 -29 -21.5 -51t-52.5 -22q-30 0 -51 22t-21 51zM533 822q0 30 21 51.5t51 21.5q32 0 53 -21.5t21 -51.5q0 -29 -21 -51t-53 -22q-30 0 -51 22t-21 51zM494 400l-148 -406h-48l-234 636q-7 19 -23 26.5
t-36 10.5v35h293v-35q-40 -2 -56 -11t-16 -29q0 -11 3.5 -22.5t8.5 -25.5l137 -383l97 269l-55 165q-7 20 -20.5 27t-34.5 10v35h288v-35q-45 -1 -62.5 -10.5t-17.5 -32.5q0 -11 3 -22.5t8 -28.5l122 -372l126 374q5 14 8.5 25t3.5 22q0 22 -17.5 32.5t-62.5 12.5v35h198
v-35q-20 -3 -35.5 -10t-22.5 -27l-222 -636h-48z" />
    <glyph glyph-name="wdieresis" unicode="&#x1e85;" horiz-adv-x="837" 
d="M722 436q5 17 5 27q0 18 -15.5 24t-46.5 10v33h167v-33q-26 -8 -35 -15t-16 -23l-189 -466h-43l-120 323l-133 -323h-42l-198 466q-7 16 -15.5 23t-35.5 15v33h261v-33q-29 -4 -43 -10t-14 -23q0 -6 1 -13t5 -15l106 -275l86 214l-31 84q-6 16 -15.5 23.5t-33.5 14.5v33
h254v-33q-32 -5 -48 -10t-16 -25q0 -11 4 -26l96 -268zM459 679q0 30 21.5 51.5t50.5 21.5q32 0 53 -21.5t21 -51.5t-21 -51.5t-53 -21.5q-29 0 -50.5 21.5t-21.5 51.5zM265 679q0 30 21.5 51.5t51.5 21.5q31 0 52.5 -21.5t21.5 -51.5t-21.5 -51.5t-52.5 -21.5
q-30 0 -51.5 21.5t-21.5 51.5z" />
    <glyph glyph-name="Ygrave" unicode="&#x1ef2;" horiz-adv-x="666" 
d="M356 896l52 -149h-37l-159 142v7h144zM407 101q0 -21 4.5 -32.5t15 -18t27.5 -9.5t42 -6v-35h-321v35q25 3 42.5 6t28 9.5t15 18t4.5 32.5v169l-201 360q-11 20 -24.5 27t-34.5 10v35h301v-35q-46 -2 -62 -9t-16 -27q0 -14 6 -26l15 -29l139 -243l130 241q7 14 14 29.5
t7 27.5q0 20 -18 27t-61 9v35h201v-35q-21 -3 -35 -10.5t-24 -26.5l-195 -358v-171z" />
    <glyph glyph-name="ygrave" unicode="&#x1ef3;" horiz-adv-x="563" 
d="M306 763l55 -166h-35l-161 159v7h141zM447 435q7 17 7 28q0 17 -14.5 23t-53.5 11v33h172v-33q-26 -8 -35 -15t-16 -23l-220 -554q-25 -61 -54 -93t-78 -32q-26 0 -47.5 12t-29.5 34v51q16 -4 31 -6.5t37 -2.5q41 0 66.5 14t41.5 56l17 43l-215 478q-7 16 -15.5 23
t-35.5 15v33h272v-33q-38 -5 -53 -11t-15 -23q0 -10 6 -28l120 -296z" />
    <glyph glyph-name="endash" unicode="&#x2013;" horiz-adv-x="540" 
d="M30 278v48h480v-48h-480z" />
    <glyph glyph-name="emdash" unicode="&#x2014;" horiz-adv-x="960" 
d="M930 278h-900v48h900v-48z" />
    <glyph glyph-name="quoteleft" unicode="&#x2018;" horiz-adv-x="240" 
d="M148 641q25 -5 42 -22.5t17 -49.5q0 -35 -23 -55.5t-57 -20.5q-41 0 -64 29t-23 75q0 69 43.5 111t126.5 47v-33q-45 -6 -71 -25.5t-30 -55.5h39z" />
    <glyph glyph-name="quoteright" unicode="&#x2019;" horiz-adv-x="240" 
d="M96 602q-25 5 -42 22.5t-17 49.5q0 35 23 55.5t57 20.5q41 0 64 -29t23 -75q0 -69 -43.5 -111t-126.5 -47v32q45 7 71 26.5t30 55.5h-39z" />
    <glyph glyph-name="quotesinglbase" unicode="&#x201a;" horiz-adv-x="240" 
d="M96 0q-25 6 -42 23t-17 49q0 35 23 55.5t57 20.5q41 0 64 -29t23 -75q0 -69 -43.5 -111t-126.5 -47v33q45 7 71 26.5t30 54.5h-39z" />
    <glyph glyph-name="quotedblleft" unicode="&#x201c;" horiz-adv-x="434" 
d="M148 641q25 -5 42 -22.5t17 -49.5q0 -35 -23 -55.5t-57 -20.5q-41 0 -64 29t-23 75q0 69 43.5 111t126.5 47v-33q-45 -6 -71 -25.5t-30 -55.5h39zM341 641q26 -5 43 -22.5t17 -49.5q0 -35 -23 -55.5t-57 -20.5q-41 0 -64 29t-23 75q0 69 43 111t126 47v-33
q-45 -6 -70.5 -25.5t-29.5 -55.5h38z" />
    <glyph glyph-name="quotedblright" unicode="&#x201d;" horiz-adv-x="434" 
d="M290 602q-26 5 -43 22.5t-17 49.5q0 35 23.5 55.5t56.5 20.5q42 0 65 -29t23 -75q0 -69 -43.5 -111t-126.5 -47v32q45 7 70.5 26.5t30.5 55.5h-39zM96 602q-25 5 -42 22.5t-17 49.5q0 35 23 55.5t57 20.5q41 0 64 -29t23 -75q0 -69 -43.5 -111t-126.5 -47v32
q45 7 71 26.5t30 55.5h-39z" />
    <glyph glyph-name="quotedblbase" unicode="&#x201e;" horiz-adv-x="434" 
d="M290 0q-26 6 -43 23t-17 49q0 35 23.5 55.5t56.5 20.5q42 0 65 -29t23 -75q0 -69 -43.5 -111t-126.5 -47v33q45 7 70.5 26.5t30.5 54.5h-39zM96 0q-25 6 -42 23t-17 49q0 35 23 55.5t57 20.5q41 0 64 -29t23 -75q0 -69 -43.5 -111t-126.5 -47v33q45 7 71 26.5t30 54.5
h-39z" />
    <glyph glyph-name="dagger" unicode="&#x2020;" horiz-adv-x="365" 
d="M192 587q0 -32 14.5 -57t33.5 -36v-8q-9 -14 -18 -45t-15.5 -73t-11.5 -92.5t-6 -103.5h-13q-2 53 -6.5 103.5t-11 92.5t-15.5 73t-18 45v8q19 11 34 36t15 57q-18 0 -32 -5.5t-27 -11.5l-26 -12q-13 -5 -27 -5q-18 0 -30 11t-12 31t12 31.5t30 11.5q14 0 27 -6l26 -11
q13 -6 27 -11.5t32 -5.5q0 18 -5.5 32t-11.5 27l-12 26q-5 13 -5 27q0 18 11.5 30t31.5 12t31 -12t11 -30q0 -14 -5 -27t-11.5 -26t-11.5 -27t-5 -32q18 0 32 5.5t27 11.5l25 11q13 6 28 6q18 0 29.5 -11.5t11.5 -31.5t-11.5 -31t-29.5 -11q-15 0 -28 5l-25 12
q-13 6 -27 11.5t-32 5.5z" />
    <glyph glyph-name="daggerdbl" unicode="&#x2021;" horiz-adv-x="374" 
d="M179 466q0 17 -13.5 33t-36.5 20v8q20 11 34.5 28.5t14.5 49.5q-18 0 -32 -5.5t-27 -11.5l-26 -11q-13 -6 -27 -6q-18 0 -30 11.5t-12 31.5t12 31t30 11q14 0 27 -6l26 -11q13 -6 27 -11.5t32 -5.5q0 18 -5.5 29.5t-11.5 21t-11.5 19.5t-5.5 24q0 18 11.5 30t31.5 12
t31.5 -12t11.5 -30q0 -14 -5.5 -24t-11.5 -19.5t-11.5 -21t-5.5 -29.5q18 0 32 5.5t27 11.5l26 11q13 6 27 6q18 0 30 -11t12 -31t-12 -31.5t-30 -11.5q-14 0 -27 6l-26 11q-13 6 -27 11.5t-32 5.5q0 -32 14.5 -49.5t33.5 -28.5v-8q-23 -4 -36 -20t-13 -33q0 -18 13 -34
t36 -19v-9q-19 -11 -33.5 -28.5t-14.5 -49.5q18 0 32 5.5t27 11.5l26 11q13 6 27 6q18 0 30 -11t12 -31t-12 -31.5t-30 -11.5q-14 0 -27 6l-26 11q-13 6 -27 11.5t-32 5.5q0 -18 5.5 -29.5t11.5 -21t11.5 -19.5t5.5 -24q0 -18 -11.5 -30t-31.5 -12t-31.5 12t-11.5 30
q0 14 5.5 24t11.5 19.5t11.5 21t5.5 29.5q-18 0 -32 -5.5t-27 -11.5l-26 -11q-13 -6 -27 -6q-18 0 -30 11.5t-12 31.5t12 31t30 11q14 0 27 -6l26 -11q13 -6 27 -11.5t32 -5.5q0 32 -14.5 49.5t-34.5 28.5v9q23 3 36.5 19t13.5 34z" />
    <glyph glyph-name="bullet" unicode="&#x2022;" horiz-adv-x="337" 
d="M30 304q0 29 11 54.5t30 44.5t44 30t53 11q29 0 54.5 -11t44 -30t29.5 -44.5t11 -54.5t-11 -54t-29.5 -44t-44 -30t-54.5 -11q-28 0 -53 11t-44 30t-30 44t-11 54z" />
    <glyph glyph-name="ellipsis" unicode="&#x2026;" horiz-adv-x="700" 
d="M497 77q0 37 25 62t61 25t61.5 -25t25.5 -62q0 -38 -25.5 -62.5t-61.5 -24.5t-61 24.5t-25 62.5zM263 77q0 37 25.5 62t61.5 25t61.5 -25t25.5 -62q0 -38 -25.5 -62.5t-61.5 -24.5t-61.5 24.5t-25.5 62.5zM30 77q0 37 25.5 62t61.5 25t61 -25t25 -62q0 -38 -25 -62.5
t-61 -24.5t-61.5 24.5t-25.5 62.5z" />
    <glyph glyph-name="perthousand" unicode="&#x2030;" horiz-adv-x="1136" 
d="M1104 160q0 -41 -14 -72.5t-37 -53.5t-54 -33t-64 -11t-63 11t-53.5 33t-37 53.5t-13.5 72.5t13.5 72.5t37 53.5t53.5 33t63 11t64 -11t54 -33t37 -53.5t14 -72.5zM1011 160q0 28 -4 53.5t-13 45t-23.5 30.5t-35.5 11q-20 0 -34 -11t-23 -30.5t-13 -45t-4 -53.5
q0 -29 4 -54.5t13 -44t23 -29.5t34 -11q21 0 35.5 11t23.5 29.5t13 44t4 54.5zM125 542q0 -29 4 -54t13 -44.5t23 -30.5t35 -11t35 11t23 30.5t13 44.5t4 54t-4 54.5t-13 44t-23 29.5t-35 11t-35 -11t-23 -29.5t-13 -44t-4 -54.5zM643 160q0 28 -4 53.5t-13 45t-23.5 30.5
t-35.5 11t-35 -11t-23 -30.5t-13 -45t-4 -53.5q0 -29 4 -54.5t13 -44t23 -29.5t35 -11t35.5 11t23.5 29.5t13 44t4 54.5zM32 542q0 41 13.5 72.5t37 53.5t54 33t63.5 11t63.5 -11t54 -33t37 -53.5t13.5 -72.5t-13.5 -72.5t-37 -53.5t-54 -33t-63.5 -11t-63.5 11t-54 33
t-37 53.5t-13.5 72.5zM580 712h46l-439 -722h-46zM735 160q0 -41 -13.5 -72.5t-37 -53.5t-54 -33t-63.5 -11t-63 11t-53.5 33t-37 53.5t-13.5 72.5t13.5 72.5t37 53.5t53.5 33t63 11t63.5 -11t54 -33t37 -53.5t13.5 -72.5z" />
    <glyph glyph-name="guilsinglleft" unicode="&#x2039;" horiz-adv-x="283" 
d="M29 278l188 196h38l-107 -199l107 -199h-38l-188 196v6z" />
    <glyph glyph-name="guilsinglright" unicode="&#x203a;" horiz-adv-x="283" 
d="M255 272l-189 -196h-37l107 199l-107 199h37l189 -196v-6z" />
    <glyph glyph-name="fraction" unicode="&#x2044;" horiz-adv-x="283" 
d="M337 712h47l-439 -722h-46z" />
    <glyph glyph-name="Euro" unicode="&#x20ac;" horiz-adv-x="658" 
d="M16 433h89q11 64 38 116t66 88t89 55.5t108 19.5q67 0 114 -16t84 -45v-159h-38q-8 39 -20 72.5t-30.5 58t-44 38t-59.5 13.5q-37 0 -65.5 -20t-48.5 -53t-32 -76.5t-17 -91.5h229l-12 -38h-219q-1 -8 -1 -16v-15v-25q0 -12 1 -23h196l-12 -38h-182q5 -53 16.5 -98.5
t32 -78.5t50.5 -52t71 -19q36 0 62.5 13t47 38t36.5 61t30 82h37l-16 -180q-43 -26 -94.5 -40t-109.5 -14q-69 0 -124 20.5t-94 58t-63 91t-31 118.5h-84v38h81v23q0 29 3 56h-84v38z" />
    <glyph glyph-name="uni2117" unicode="&#x2117;" horiz-adv-x="788" 
d="M36 351q0 75 26.5 140.5t74 114.5t113.5 77.5t144 28.5t144 -28.5t113.5 -77.5t74 -114.5t26.5 -140.5t-26.5 -140.5t-74 -114.5t-113.5 -77.5t-144 -28.5t-144 28.5t-113.5 77.5t-74 114.5t-26.5 140.5zM66 351q0 -69 24 -129.5t67.5 -105.5t104 -71.5t132.5 -26.5
t132 26.5t103.5 71.5t68 105.5t24.5 129.5t-24.5 129.5t-68 105.5t-103.5 71.5t-132 26.5t-132.5 -26.5t-104 -71.5t-67.5 -105.5t-24 -129.5zM374 341h31q44 0 65 25t21 67q0 36 -22 62t-67 26h-28v-180zM374 313v-95q0 -24 14.5 -30.5t49.5 -8.5v-25h-201v25q29 1 38.5 8
t9.5 31v269q0 24 -9.5 31t-38.5 8v25h187q40 0 69 -9.5t48 -26t28 -37.5t9 -44q0 -54 -37 -87.5t-117 -33.5h-50z" />
    <glyph glyph-name="trademark" unicode="&#x2122;" horiz-adv-x="857" 
d="M658 671q2 8 4 15t3 16h113v-24q-24 -2 -32 -12t-8 -27l29 -219q2 -15 11.5 -20t29.5 -7v-23h-164v23q26 2 36 7t10 21q0 4 -1 14.5t-3 21.5l-21 154l-88 -243h-27l-95 243l-20 -154q-2 -11 -2.5 -22t-0.5 -14q0 -16 9.5 -21t35.5 -7v-23h-118v23q20 2 28.5 7.5
t10.5 19.5l30 219q-1 17 -9 27t-31 12v24h117q3 -17 8 -30l74 -191zM355 596h-21q-17 38 -32.5 60t-47.5 22h-18v-253q0 -19 12 -24.5t35 -7.5v-23h-174v23q23 2 34.5 7.5t11.5 24.5v253h-18q-32 0 -47.5 -22t-31.5 -60h-22l7 106h305z" />
    <glyph glyph-name="Omega" unicode="&#x2126;" horiz-adv-x="713" 
d="M356 678q-44 0 -72.5 -24t-45.5 -63.5t-24 -89t-7 -100.5q0 -111 30.5 -190.5t81.5 -132.5v-78h-254l-25 184h26q18 -33 30.5 -52.5t27.5 -29t35.5 -12.5t54.5 -3h65q-39 16 -78 46t-69.5 71t-49.5 91t-19 106q0 66 20 123t58 99t92.5 65.5t122.5 23.5q69 0 123.5 -23.5
t92.5 -65.5t58 -99t20 -123q0 -56 -19 -106t-49.5 -91t-69.5 -71t-78 -46h65q34 0 54.5 3t35 12.5t27 29t30.5 52.5h27l-25 -184h-254v78q50 53 81 132.5t31 190.5q0 51 -7 100.5t-24 89t-46 63.5t-73 24z" />
    <glyph glyph-name="uni2153" unicode="&#x2153;" horiz-adv-x="780" 
d="M614 222q59 -3 92.5 -32.5t33.5 -78.5q0 -29 -12.5 -51.5t-34.5 -37.5t-50.5 -23t-60.5 -8q-70 0 -104 25.5t-34 59.5q0 17 8.5 28t18.5 16h56q-4 -15 -4 -27q0 -36 16 -56t48 -20q30 0 46.5 21t16.5 59q0 87 -97 87h-14l-5 19q46 16 67 35t21 48q0 22 -13.5 37.5
t-43.5 15.5q-29 0 -49.5 -14.5t-32.5 -34.5l-22 15q18 40 55 69t94 29q52 0 79 -24t27 -63q0 -21 -9 -37t-23.5 -27t-33 -18.5t-36.5 -11.5zM587 712h46l-438 -722h-46zM214 712v-335q0 -13 3.5 -20.5t12.5 -11.5t23.5 -6t36.5 -3v-29h-250v29q24 1 39 3t23.5 6t11.5 11.5
t3 20.5v232h-77v24l25 5q45 9 72 26t51 48h26z" />
    <glyph glyph-name="uni2154" unicode="&#x2154;" horiz-adv-x="822" 
d="M241 386q15 0 24.5 1.5t17.5 7t15.5 15t17.5 26.5h18l-12 -131h-292v20l109 103q44 43 62.5 75t18.5 68q0 34 -18 52.5t-52 18.5q-32 0 -55.5 -15t-38.5 -32l-17 14q10 19 24.5 37.5t34 32.5t43.5 22.5t53 8.5q57 0 88 -30t31 -84q0 -32 -14 -58t-38.5 -51t-56.5 -49
l-69 -52h106zM656 222q59 -3 92.5 -32.5t33.5 -78.5q0 -29 -13 -51.5t-34.5 -37.5t-50.5 -23t-61 -8q-69 0 -103 25.5t-34 59.5q0 17 8 28t18 16h57q-5 -14 -5 -27q0 -36 16.5 -56t48.5 -20q30 0 46.5 21t16.5 59q0 87 -97 87h-14l-5 19q46 16 67 35t21 48q0 22 -13.5 37.5
t-43.5 15.5q-29 0 -49.5 -14.5t-33.5 -34.5l-22 15q19 40 56 69t94 29q52 0 79 -24t27 -63q0 -21 -9 -37t-23.5 -27t-33 -18.5t-36.5 -11.5zM628 712h47l-439 -722h-46z" />
    <glyph glyph-name="uni215B" unicode="&#x215b;" horiz-adv-x="810" 
d="M647 236q19 14 26.5 32.5t7.5 38.5q0 32 -18.5 51t-50.5 19q-30 0 -46.5 -16.5t-16.5 -39.5q0 -22 12.5 -37t34.5 -26zM568 174q-20 -14 -28.5 -33t-8.5 -42q0 -36 24 -58t61 -22q33 0 53.5 16t20.5 42t-15.5 40t-38.5 25zM752 312q0 -17 -7.5 -31.5t-20 -25t-28 -17.5
t-31.5 -10q102 -41 102 -118q0 -30 -12.5 -52.5t-33.5 -37.5t-49 -22.5t-58 -7.5q-33 0 -61.5 7t-49.5 19.5t-33 31.5t-12 43q0 36 27 59t66 31q-37 17 -58 43t-21 62q0 54 39 86.5t102 32.5t101 -25t38 -68zM587 712h46l-438 -722h-46zM216 712v-335q0 -26 16.5 -32
t60.5 -9v-29h-253v29q24 1 39 3t23.5 6t11.5 11.5t3 20.5v232h-77v24l25 5q45 9 72 26t51 48h28z" />
    <glyph glyph-name="uni215C" unicode="&#x215c;" horiz-adv-x="825" 
d="M207 530q59 -2 92.5 -32t33.5 -78q0 -29 -12.5 -51.5t-34.5 -37.5t-50.5 -23t-60.5 -8q-70 0 -104 25t-34 59q0 17 8 28t18 16h57q-4 -13 -4 -27q0 -36 16 -56t48 -20q30 0 47.5 20.5t17.5 60.5q0 43 -25 64.5t-73 21.5h-15l-5 19q47 17 69 35.5t22 46.5q0 23 -14.5 39
t-45.5 16q-29 0 -49.5 -14.5t-32.5 -34.5l-22 14q19 41 55.5 70t93.5 29q52 0 79 -24.5t27 -63.5q0 -21 -9 -36.5t-23.5 -26.5t-33 -19t-36.5 -12zM602 712h46l-438 -722h-46zM662 236q19 14 26.5 32.5t7.5 38.5q0 32 -18.5 51t-50.5 19q-30 0 -46.5 -16.5t-16.5 -39.5
q0 -22 12.5 -37t34.5 -26zM583 174q-20 -14 -28.5 -33t-8.5 -42q0 -36 24 -58t61 -22q33 0 53.5 16t20.5 42t-15.5 40t-38.5 25zM767 312q0 -17 -7.5 -31.5t-20 -25t-28 -17.5t-31.5 -10q102 -41 102 -118q0 -30 -12.5 -52.5t-33.5 -37.5t-49 -22.5t-58 -7.5q-33 0 -61.5 7
t-49.5 19.5t-33 31.5t-12 43q0 36 27 59t66 31q-37 17 -58 43t-21 62q0 54 39 86.5t102 32.5t101 -25t38 -68z" />
    <glyph glyph-name="uni215D" unicode="&#x215d;" horiz-adv-x="819" 
d="M656 236q19 14 26.5 32.5t7.5 38.5q0 32 -18.5 51t-50.5 19q-30 0 -46 -16.5t-16 -39.5q0 -22 12.5 -37t34.5 -26zM577 174q-19 -14 -27.5 -33t-8.5 -42q0 -36 24 -58t60 -22q34 0 54 16t20 42t-15 40t-38 25zM761 312q0 -17 -7.5 -31.5t-20 -25t-28 -17.5t-31.5 -10
q102 -41 102 -118q0 -30 -12.5 -52.5t-33.5 -37.5t-48.5 -22.5t-57.5 -7.5q-33 0 -61.5 7t-49.5 19.5t-33 31.5t-12 43q0 36 27 59t65 31q-36 17 -57 43t-21 62q0 54 39 86.5t102 32.5t100.5 -25t37.5 -68zM297 616h-172l-9 -50q45 -1 83 -9t65.5 -24.5t43 -42.5t15.5 -63
q0 -60 -40 -94t-103 -34q-68 0 -104.5 24.5t-36.5 59.5q0 17 9 28.5t20 16.5h54q-5 -13 -5 -27q0 -32 15.5 -54t52.5 -22q33 0 50 19.5t17 51.5q0 97 -178 98l36 208h140q20 0 28 4t16 19h24zM596 712h47l-439 -722h-46z" />
    <glyph glyph-name="uni215E" unicode="&#x215e;" horiz-adv-x="756" 
d="M594 236q18 14 25.5 32.5t7.5 38.5q0 32 -18.5 51t-50.5 19q-29 0 -45.5 -16.5t-16.5 -39.5q0 -22 12.5 -37t34.5 -26zM514 174q-19 -14 -27.5 -33t-8.5 -42q0 -36 24 -58t60 -22q34 0 54 16t20 42t-15 40t-38 25zM698 312q0 -17 -7.5 -31.5t-20 -25t-28 -17.5t-31.5 -10
q102 -41 102 -118q0 -30 -12.5 -52.5t-33.5 -37.5t-48.5 -22.5t-57.5 -7.5q-33 0 -61.5 7t-49.5 19.5t-33 31.5t-12 43q0 36 27 59t65 31q-36 17 -57 43t-21 62q0 54 39 86.5t102 32.5t100.5 -25t37.5 -68zM533 712h47l-439 -722h-46zM127 610q-22 0 -35.5 -15t-24.5 -47
h-31l30 154h290v-21l-196 -380h-68l189 309h-154z" />
    <glyph glyph-name="partialdiff" unicode="&#x2202;" horiz-adv-x="560" 
d="M284 26q28 0 48 15.5t33 43.5t19.5 68t6.5 89q0 55 -6.5 103t-20.5 83t-35.5 55t-51.5 20q-56 0 -82 -58.5t-26 -156.5q0 -56 6.5 -103.5t21 -83t36 -55.5t51.5 -20zM268 539q37 0 63.5 -14t43.5 -37q-12 39 -34 80t-55 77t-76.5 65.5t-99.5 46.5l16 28q107 -22 185 -69
t128.5 -110t74.5 -138t24 -154q0 -73 -18 -133t-51 -102.5t-81 -65.5t-108 -23q-59 0 -106.5 20t-81 55.5t-52 84.5t-18.5 108q0 65 20.5 117t54.5 88.5t78.5 56t92.5 19.5z" />
    <glyph glyph-name="Delta" unicode="&#x2206;" horiz-adv-x="647" 
d="M69 44h410l-204 490zM14 0v35l284 667h46l289 -667v-35h-619z" />
    <glyph glyph-name="product" unicode="&#x220f;" horiz-adv-x="771" 
d="M249 662v-755q0 -21 2.5 -33t11 -19t24.5 -10.5t42 -6.5v-35h-306v35q26 3 42 6.5t24.5 10.5t11 19t2.5 33v691q0 21 -2.5 33t-11 19t-24.5 10.5t-42 6.5v35h726v-35q-27 -3 -42.5 -6.5t-24 -10.5t-11 -19t-2.5 -33v-691q0 -21 2.5 -33t11 -19t24 -10.5t42.5 -6.5v-35
h-307v35q26 3 42 6.5t24.5 10.5t11 19t2.5 33v755h-273z" />
    <glyph glyph-name="summation" unicode="&#x2211;" horiz-adv-x="569" 
d="M346 -80q34 0 58 2.5t43.5 12.5t37 30.5t39.5 57.5h31l-37 -220h-514v37l289 384l-277 435v43h512v-178h-28q-15 34 -29 60.5t-30.5 43.5t-38.5 26t-55 9h-174l229 -358v-9l-287 -376h231z" />
    <glyph glyph-name="minus" unicode="&#x2212;" horiz-adv-x="569" 
d="M64 400h441v-60h-441v60z" />
    <glyph glyph-name="radical" unicode="&#x221a;" horiz-adv-x="584" 
d="M526 712h49l-269 -712h-61l-137 445q-9 30 -21.5 41.5t-40.5 13.5l-26 1v37h211l98 -353z" />
    <glyph glyph-name="infinity" unicode="&#x221e;" horiz-adv-x="745" 
d="M402 350l44 -51q23 -26 48 -41t57 -15q42 0 71 28t29 79t-29 79t-71 28q-32 0 -57 -15t-48 -41zM337 267q-28 -32 -61.5 -51.5t-81.5 -19.5q-30 0 -57.5 10.5t-48.5 30t-33 48t-12 65.5t12 65.5t33 48.5t48.5 30.5t57.5 10.5q48 0 81.5 -20t61.5 -52l35 -42l36 42
q28 32 61.5 52t81.5 20q30 0 57.5 -10.5t48.5 -30.5t33 -48.5t12 -65.5t-12 -65.5t-33 -48t-48.5 -30t-57.5 -10.5q-48 0 -81.5 19.5t-61.5 51.5l-36 42zM302 401q-23 26 -48 41t-57 15q-42 0 -71 -28t-29 -79t29 -79t71 -28q32 0 57 15t48 41l43 51z" />
    <glyph glyph-name="integral" unicode="&#x222b;" horiz-adv-x="419" 
d="M242 22q0 -113 -51.5 -165.5t-135.5 -52.5q-58 0 -93.5 22t-35.5 64q0 20 9.5 34t23.5 23h68v-50q0 -26 7 -44t30 -18q28 0 36.5 26.5t8.5 64.5v568q0 113 51.5 165.5t135.5 52.5q58 0 93.5 -22t35.5 -64q0 -20 -9.5 -34t-23.5 -23h-68v50q0 26 -7 44t-30 18
q-14 0 -23 -7t-14 -19.5t-6.5 -29t-1.5 -35.5v-568z" />
    <glyph glyph-name="approxequal" unicode="&#x2248;" horiz-adv-x="579" 
d="M69 312q33 22 63 31t56 9q29 0 53.5 -6t48 -13t47.5 -13t52 -6t58 8.5t63 30.5v-61q-33 -22 -63 -30.5t-58 -8.5t-52 6t-47.5 13t-48 13t-53.5 6q-26 0 -56 -9t-63 -30v60zM69 453q33 22 63 31.5t56 9.5q29 0 53.5 -6.5t48 -14t47.5 -13.5t52 -6t58 9t63 32v-61
q-33 -23 -63 -32t-58 -9t-52 6t-47.5 13.5t-48 14t-53.5 6.5q-26 0 -56 -9.5t-63 -31.5v61z" />
    <glyph glyph-name="notequal" unicode="&#x2260;" horiz-adv-x="579" 
d="M69 471h264l79 106h65l-79 -106h112v-58h-155l-64 -86h219v-57h-262l-79 -107h-65l79 107h-114v57h157l64 86h-221v58z" />
    <glyph glyph-name="lessequal" unicode="&#x2264;" horiz-adv-x="439" 
d="M52 197h313v-60h-313v60zM52 409l313 168v-67l-201 -105l201 -106v-67l-313 168v9z" />
    <glyph glyph-name="greaterequal" unicode="&#x2265;" horiz-adv-x="439" 
d="M388 137h-314v60h314v-60zM388 400l-314 -168v67l202 106l-202 105v67l314 -168v-9z" />
    <glyph glyph-name="lozenge" unicode="&#x25ca;" horiz-adv-x="547" 
d="M273 662l-179 -311l179 -311l179 311zM235 702h76l203 -351l-203 -351h-76l-202 351z" />
    <glyph glyph-name="i.dot" horiz-adv-x="300" 
d="M155 602q-37 0 -59 23.5t-22 55.5t22 55.5t59 23.5q36 0 59 -23.5t23 -55.5t-23 -55.5t-59 -23.5zM222 77q0 -26 14 -34t49 -10v-33h-264v33q35 2 49 10t14 34v354l-60 35v19l176 55h22v-463z" />
    <glyph glyph-name="space_uni0326" 
d="M213 -152q-44 11 -44 54q0 25 19.5 41t51.5 16q39 0 61 -24t22 -60q0 -48 -34.5 -79.5t-110.5 -31.5v30q43 0 64 16.5t22 37.5h-51z" />
    <glyph glyph-name="space_uni0326.alt" 
d="M278 711q45 -11 45 -54q0 -26 -19.5 -42t-51.5 -16q-39 0 -61 24.5t-22 60.5q0 48 34.5 79t110.5 31v-29q-43 0 -64 -16.5t-22 -37.5h50z" />
    <glyph glyph-name="space_dotbelowcomb" 
d="M250 -191q-35 0 -57.5 23t-22.5 54q0 32 22.5 55t57.5 23q36 0 58 -23t22 -55q0 -31 -22 -54t-58 -23z" />
    <glyph glyph-name="f_b" horiz-adv-x="933" 
d="M635 27q32 0 57 17t42.5 47t26.5 70.5t9 86.5t-8.5 84.5t-26 66t-43.5 42.5t-61 15q-25 0 -48 -9.5t-40 -25.5v-279q0 -115 92 -115zM404 670q-13 32 -36.5 55.5t-63.5 23.5q-81 0 -81 -121v-98h110v-46h-110v-407q0 -26 13 -34t48 -10v-33h-262v33q35 2 48.5 10t13.5 34
v407h-73v27l73 24v42q0 52 16 90.5t44 64t67 38.5t85 13q39 0 69.5 -8t54.5 -22l101 30h22v-337q25 38 66.5 66t101.5 28q92 0 145.5 -63.5t53.5 -179.5q0 -74 -21.5 -131t-58.5 -96t-87 -59.5t-108 -20.5q-66 0 -127 17.5t-104 52.5v610z" />
    <glyph glyph-name="f_f_b" horiz-adv-x="1253" 
d="M404 577q0 48 14 85q-16 32 -41.5 51.5t-61.5 19.5q-92 0 -92 -130v-73h181v47zM955 27q32 0 57 17t42.5 47t26.5 70.5t9 86.5t-8.5 84.5t-26 66t-43.5 42.5t-61 15q-25 0 -48 -9.5t-40 -25.5v-279q0 -115 92 -115zM724 670q-13 32 -36.5 55.5t-63.5 23.5q-81 0 -81 -121
v-98h110v-46h-110v-407q0 -26 13 -34t48 -10v-33h-261v33q35 2 48 10t13 34v407h-181v-407q0 -26 13 -34t48 -10v-33h-262v33q35 2 48.5 10t13.5 34v407h-73v27l73 24v17q0 54 17.5 94t48 67t71 40.5t87.5 13.5q46 0 82 -11.5t65 -32.5q29 30 69.5 45t91.5 15q39 0 69.5 -8
t54.5 -22l101 30h22v-337q25 38 66.5 66t101.5 28q92 0 145.5 -63.5t53.5 -179.5q0 -74 -21.5 -131t-58.5 -96t-87 -59.5t-108 -20.5q-66 0 -127 17.5t-104 52.5v610z" />
    <glyph glyph-name="f_h" horiz-adv-x="943" 
d="M404 670q-13 32 -36.5 55.5t-63.5 23.5q-81 0 -81 -121v-98h106v-46h-106v-407q0 -26 13 -34t48 -10v-33h-262v33q35 2 48.5 10t13.5 34v407h-73v27l73 24v42q0 52 16 90.5t44 64t67 38.5t85 13q39 0 69.5 -8t54.5 -22l101 30h22v-341q16 19 35 36.5t41.5 31t49 22
t58.5 8.5q143 0 143 -164v-299q0 -26 14 -34t49 -10v-33h-262v33q35 2 48 10t13 34v292q0 44 -18 65.5t-60 21.5q-31 0 -59 -12t-52 -29v-338q0 -26 13 -34t48 -10v-33h-262v33q35 2 48.5 10t13.5 34v593z" />
    <glyph glyph-name="f_f_h" horiz-adv-x="1263" 
d="M404 577q0 48 14 85q-16 32 -41.5 51.5t-61.5 19.5q-92 0 -92 -130v-73h181v47zM724 670q-13 32 -36.5 55.5t-63.5 23.5q-81 0 -81 -121v-98h110v-46h-110v-407q0 -26 13 -34t48 -10v-33h-261v33q35 2 48 10t13 34v407h-181v-407q0 -26 13 -34t48 -10v-33h-262v33
q35 2 48.5 10t13.5 34v407h-73v27l73 24v17q0 54 17.5 94t48 67t71 40.5t87.5 13.5q46 0 82 -11.5t65 -32.5q29 30 69.5 45t91.5 15q39 0 69.5 -8t54.5 -22l101 30h22v-341q16 19 35 36.5t41.5 31t49 22t58.5 8.5q143 0 143 -164v-299q0 -26 14 -34t49 -10v-33h-262v33
q35 2 48 10t13 34v292q0 44 -18 65.5t-60 21.5q-31 0 -59 -12t-52 -29v-338q0 -26 13 -34t48 -10v-33h-262v33q35 2 48.5 10t13.5 34v593z" />
    <glyph glyph-name="f_idieresis" horiz-adv-x="621" 
d="M494 679q0 30 21.5 51.5t51.5 21.5q31 0 52.5 -21.5t21.5 -51.5t-21.5 -51.5t-52.5 -21.5q-30 0 -51.5 21.5t-21.5 51.5zM543 77q0 -26 13.5 -34t48.5 -10v-33h-262v33q35 2 48 10t13 34v407h-181v-407q0 -26 13 -34t48 -10v-33h-262v33q35 2 48.5 10t13.5 34v407h-73v27
l73 24v24q0 56 17.5 98t48 70t72 42t89.5 14q72 0 110 -28t38 -74q0 -21 -10.5 -38t-25.5 -25h-81l4 20q3 12 3 27q0 35 -11 59t-43 24q-37 0 -54.5 -35.5t-17.5 -98.5v-84h253l38 10h29v-463z" />
    <glyph glyph-name="f_f_idieresis" horiz-adv-x="941" 
d="M814 679q0 30 21.5 51.5t51.5 21.5q31 0 52.5 -21.5t21.5 -51.5t-21.5 -51.5t-52.5 -21.5q-30 0 -51.5 21.5t-21.5 51.5zM404 559q0 54 17 97q-16 34 -42 55.5t-64 21.5q-92 0 -92 -130v-73h181v29zM308 767q48 0 86 -13t67 -36q31 32 74.5 48.5t95.5 16.5q72 0 110 -28
t38 -74q0 -21 -10.5 -38t-25.5 -25h-81l4 20q3 12 3 27q0 35 -11 59t-43 24q-37 0 -54.5 -35.5t-17.5 -98.5v-84h253l38 10h29v-463q0 -26 13.5 -34t48.5 -10v-33h-262v33q35 2 48 10t13 34v407h-181v-407q0 -26 13.5 -34t48.5 -10v-33h-262v33q35 2 48 10t13 34v407h-181
v-407q0 -26 13 -34t48 -10v-33h-262v33q35 2 48.5 10t13.5 34v407h-73v27l73 24v17q0 54 17.5 94t48 67t71 40.5t87.5 13.5z" />
    <glyph glyph-name="f_j" horiz-adv-x="607" 
d="M223 484v-407q0 -26 13 -34t48 -10v-33h-262v33q35 2 48.5 10t13.5 34v407h-73v27l73 24v24q0 57 18.5 99t50 70t74.5 41.5t93 13.5q75 0 116.5 -22.5t41.5 -66.5q0 -20 -10 -34t-25 -22h-83q4 16 4 39q0 28 -12.5 49.5t-47.5 21.5q-41 0 -61 -34.5t-20 -99.5v-84h253
l38 10h29v-445q0 -38 -3 -65.5t-9 -48.5t-15 -37.5t-22 -33.5q-30 -39 -66 -68.5t-82 -59.5l-16 16l41 68q24 40 28.5 86t4.5 106v426h-181z" />
    <glyph glyph-name="f_f_j" horiz-adv-x="927" 
d="M404 559q0 54 17 96q-15 34 -41.5 56t-64.5 22q-92 0 -92 -130v-73h181v29zM543 484v-407q0 -26 13.5 -34t48.5 -10v-33h-262v33q35 2 48 10t13 34v407h-181v-407q0 -26 13 -34t48 -10v-33h-262v33q35 2 48.5 10t13.5 34v407h-73v27l73 24v17q0 54 17.5 94t48 67t71 40.5
t87.5 13.5q49 0 86.5 -13t66.5 -36q32 33 78.5 49t100.5 16q75 0 116.5 -22.5t41.5 -66.5q0 -20 -10 -34t-25 -22h-83q4 16 4 39q0 28 -12.5 49.5t-47.5 21.5q-41 0 -61 -34.5t-20 -99.5v-84h253l38 10h29v-445q0 -38 -3 -65.5t-9 -48.5t-15 -37.5t-22 -33.5
q-30 -39 -66 -68.5t-82 -59.5l-16 16l41 68q24 40 28.5 86t4.5 106v426h-181z" />
    <glyph glyph-name="f_k" horiz-adv-x="909" 
d="M404 670q-13 32 -36.5 55.5t-63.5 23.5q-81 0 -81 -121v-98h110v-46h-110v-407q0 -26 13 -34t48 -10v-33h-262v33q35 2 48.5 10t13.5 34v407h-73v27l73 24v42q0 52 16 90.5t44 64t67 38.5t85 13q39 0 69.5 -8t54.5 -22l101 30h22v-706q0 -26 13.5 -34t48.5 -10v-33h-263
v33q35 2 48.5 10t13.5 34v593zM710 427q28 25 28 42q0 14 -14 18.5t-49 9.5v33h212v-33q-27 -5 -45 -12.5t-36 -24.5l-132 -123l235 -314v-23h-147l-210 284z" />
    <glyph glyph-name="f_f_k" horiz-adv-x="1229" 
d="M404 577q0 48 14 85q-16 32 -41.5 51.5t-61.5 19.5q-92 0 -92 -130v-73h181v47zM1030 427q28 25 28 42q0 14 -14 18.5t-49 9.5v33h212v-33q-27 -5 -45 -12.5t-36 -24.5l-132 -123l235 -314v-23h-147l-210 284zM724 670q-13 32 -36.5 55.5t-63.5 23.5q-81 0 -81 -121v-98
h110v-46h-110v-407q0 -26 13 -34t48 -10v-33h-261v33q35 2 48 10t13 34v407h-181v-407q0 -26 13 -34t48 -10v-33h-262v33q35 2 48.5 10t13.5 34v407h-73v27l73 24v17q0 54 17.5 94t48 67t71 40.5t87.5 13.5q46 0 82 -11.5t65 -32.5q29 30 69.5 45t91.5 15q39 0 69.5 -8
t54.5 -22l101 30h22v-706q0 -26 13.5 -34t48.5 -10v-33h-263v33q35 2 48.5 10t13.5 34v593z" />
    <glyph glyph-name="caron.Slovak" 
d="M218 578h-26l16 205h121v-8z" />
    <glyph glyph-name="cedilla.alt" 
d="M150 -195q54 0 82.5 14.5t28.5 35.5q0 22 -21.5 30t-61.5 10l25 61h26q51 0 80 -20t29 -58q0 -27 -14 -46.5t-39 -32.5t-58 -19t-70 -6z" />
    <glyph glyph-name="grave.cap" 
d="M290 896l52 -149h-37l-159 142v7h144z" />
    <glyph glyph-name="acute.cap" 
d="M342 896v-7l-159 -142h-37l52 149h144z" />
    <glyph glyph-name="circumflex.cap" 
d="M423 747h-40l-133 82l-133 -82h-40l125 156h96z" />
    <glyph glyph-name="tilde.cap" 
d="M309 747q-22 0 -40.5 9t-35 20.5t-32.5 20.5t-32 9q-22 0 -38 -14t-32 -42l-27 15q26 66 50.5 96t62.5 30q22 0 40.5 -9.5t34.5 -20.5l32 -21q16 -9 33 -9q22 0 38 14.5t32 42.5l27 -16q-26 -65 -50.5 -95t-62.5 -30z" />
    <glyph glyph-name="macron.cap" 
d="M109 830h287v-68h-287v68z" />
    <glyph glyph-name="breve.cap" 
d="M254 744q-68 0 -106.5 39.5t-38.5 116.5h37q7 -46 37.5 -62.5t70.5 -16.5q39 0 69.5 16.5t38.5 62.5h37q0 -77 -39 -116.5t-106 -39.5z" />
    <glyph glyph-name="dotaccent.cap" 
d="M250 749q-37 0 -59 23t-22 55t22 55.5t59 23.5q36 0 59 -23.5t23 -55.5t-23 -55t-59 -23z" />
    <glyph glyph-name="dieresis.cap" 
d="M279 822q0 30 21 51.5t51 21.5q32 0 53 -21.5t21 -51.5q0 -29 -21 -51t-53 -22q-30 0 -51 22t-21 51zM80 822q0 30 21 51.5t51 21.5q31 0 52.5 -21.5t21.5 -51.5q0 -29 -21.5 -51t-52.5 -22q-30 0 -51 22t-21 51z" />
    <glyph glyph-name="ring.cap" 
d="M159 824q0 40 27 67t69 27t68 -27t26 -67t-26 -67t-68 -27t-69 27t-27 67zM203 824q0 -23 13 -38.5t39 -15.5q25 0 38.5 15.5t13.5 38.5t-13.5 38.5t-38.5 15.5q-26 0 -39 -15.5t-13 -38.5z" />
    <glyph glyph-name="hungarumlaut.cap" 
d="M426 896v-7l-143 -142h-36l55 149h124zM264 896v-7l-142 -142h-37l55 149h124z" />
    <glyph glyph-name="caron.cap" 
d="M298 747h-96l-125 156h40l133 -82l133 82h40z" />
    <glyph glyph-name="exclamdown.cap" horiz-adv-x="266" 
d="M152 483l67 -483h-172l67 483h38zM50 629q0 34 24.5 58.5t58.5 24.5q35 0 59 -24.5t24 -58.5q0 -18 -6.5 -33.5t-18 -27t-26.5 -18t-32 -6.5t-32 6.5t-26.5 18t-18 27t-6.5 33.5z" />
    <glyph glyph-name="questiondown.cap" horiz-adv-x="446" 
d="M321 629q0 -18 -6.5 -33.5t-18 -27t-26.5 -18t-32 -6.5t-32.5 6.5t-26.5 18t-17.5 27t-6.5 33.5q0 34 24 58.5t59 24.5t59 -24.5t24 -58.5zM134 116q0 -44 22.5 -69.5t64.5 -25.5q23 0 39.5 8.5t27 23t15.5 33.5t5 39q0 9 -1 27t-2 24h92q31 -20 31 -57
q0 -29 -15.5 -52.5t-42.5 -40.5t-64.5 -26.5t-82.5 -9.5q-96 0 -151.5 42.5t-55.5 126.5q0 31 10.5 57.5t29 49t44 43t55.5 40.5q21 14 35.5 26.5t24 26t14 29.5t4.5 36v23h17q22 -14 39 -41.5t17 -62.5q0 -39 -19.5 -70.5t-60.5 -63.5l-36 -29q-17 -14 -29.5 -29.5
t-19.5 -34.5t-7 -43z" />
    <glyph glyph-name="guilsinglleft.cap" horiz-adv-x="283" 
d="M29 359l188 196h38l-107 -199l107 -200h-38l-188 197v6z" />
    <glyph glyph-name="guilsinglright.cap" horiz-adv-x="283" 
d="M255 353l-189 -197h-37l107 200l-107 199h37l189 -196v-6z" />
    <glyph glyph-name="guillemotleft.cap" horiz-adv-x="458" 
d="M204 359l188 196h38l-107 -199l107 -200h-38l-188 197v6zM29 359l188 196h38l-107 -199l107 -200h-38l-188 197v6z" />
    <glyph glyph-name="guillemotright.cap" horiz-adv-x="458" 
d="M255 353l-189 -197h-37l107 200l-107 199h37l189 -196v-6zM430 353l-189 -197h-37l107 200l-107 199h37l189 -196v-6z" />
    <glyph glyph-name="slash.cap" horiz-adv-x="368" 
d="M76 -101h-59l275 871h59z" />
    <glyph glyph-name="backslash.cap" horiz-adv-x="368" 
d="M17 770h59l275 -871h-59z" />
    <glyph glyph-name="bar.cap" horiz-adv-x="211" 
d="M133 -101h-56v871h56v-871z" />
    <glyph glyph-name="brokenbar.cap" horiz-adv-x="211" 
d="M133 -101h-56v371h56v-371zM133 399h-56v371h56v-371z" />
    <glyph glyph-name="periodcentered.cap" horiz-adv-x="235" 
d="M30 354q0 38 25.5 63t61.5 25q37 0 62.5 -25t25.5 -63t-25.5 -62.5t-62.5 -24.5q-36 0 -61.5 24.5t-25.5 62.5z" />
    <glyph glyph-name="bullet.cap" horiz-adv-x="337" 
d="M30 355q0 29 11 54.5t30 44.5t44 30t53 11q29 0 54.5 -11t44 -30t29.5 -44.5t11 -54.5t-11 -54t-29.5 -44t-44 -30t-54.5 -11q-28 0 -53 11t-44 30t-30 44t-11 54z" />
    <glyph glyph-name="hyphen.cap" horiz-adv-x="320" 
d="M30 325v62h260v-62h-260z" />
    <glyph glyph-name="endash.cap" horiz-adv-x="540" 
d="M30 329v49h480v-49h-480z" />
    <glyph glyph-name="emdash.cap" horiz-adv-x="960" 
d="M930 329h-900v49h900v-49z" />
    <glyph glyph-name="parenleft.cap" horiz-adv-x="355" 
d="M170 334q0 -115 35 -226t124 -210h-47q-50 40 -90.5 90.5t-69.5 107t-45 117t-16 121.5t16 121.5t45 117t69.5 106.5t90.5 91h47q-89 -99 -124 -210t-35 -226z" />
    <glyph glyph-name="parenright.cap" horiz-adv-x="355" 
d="M184 334q0 115 -34.5 226t-123.5 210h47q50 -41 90.5 -91t69.5 -106.5t45 -117t16 -121.5t-16 -121.5t-45 -117t-69.5 -107t-90.5 -90.5h-47q89 99 123.5 210t34.5 226z" />
    <glyph glyph-name="bracketleft.cap" horiz-adv-x="325" 
d="M177 -8q0 -20 6 -31t18.5 -17t33.5 -8t51 -4v-33h-201v871h201v-33q-30 -2 -51 -4t-33.5 -8t-18.5 -17.5t-6 -30.5v-685z" />
    <glyph glyph-name="bracketright.cap" horiz-adv-x="325" 
d="M147 677q0 19 -5.5 30.5t-18.5 17.5t-33.5 8t-50.5 4v33h201v-871h-201v33q30 2 50.5 4t33.5 8t18.5 17t5.5 31v685z" />
    <glyph glyph-name="braceleft.cap" horiz-adv-x="354" 
d="M50 342q36 8 59.5 30t23.5 70v200q0 60 46.5 94t138.5 34v-25q-40 -5 -64.5 -26t-24.5 -72v-196q0 -54 -28.5 -78.5t-80.5 -37.5q26 -7 46 -15.5t34 -22t21.5 -33t7.5 -46.5v-195q0 -51 24.5 -72t64.5 -26v-25q-92 0 -138.5 34t-46.5 94v199q0 48 -23.5 70t-59.5 30v15z
" />
    <glyph glyph-name="braceright.cap" horiz-adv-x="359" 
d="M309 327q-36 -8 -59.5 -30t-23.5 -70v-199q0 -60 -47 -94t-138 -34v25q40 5 64 26t24 72v195q0 27 7.5 46.5t21.5 33t34.5 22t46.5 15.5q-52 13 -81 37.5t-29 78.5v196q0 51 -24 72t-64 26v25q91 0 138 -34t47 -94v-200q0 -48 23.5 -70t59.5 -30v-15z" />
    <glyph glyph-name="at.cap" horiz-adv-x="867" 
d="M363 205q22 0 46 23t47 62t43.5 91t34.5 111q-8 17 -23 25.5t-32 8.5q-33 0 -61.5 -25t-49.5 -63t-32.5 -83.5t-11.5 -85.5q0 -28 9.5 -46t29.5 -18zM597 135q-39 0 -63 14t-35.5 38t-12.5 56t7 67q-19 -38 -39 -70t-41.5 -55.5t-46 -36.5t-51.5 -13q-43 0 -70.5 33.5
t-27.5 94.5q0 53 20.5 105.5t55 94.5t80 68t96.5 26q32 0 56 -11t38 -27l70 35h27l-30 -89l-53 -202q-5 -18 -6.5 -35t1.5 -30.5t11.5 -22t25.5 -8.5q35 0 63 22t47.5 58.5t29.5 85t10 101.5q0 59 -18 110t-53 89t-86.5 60t-119.5 22q-85 0 -153.5 -34.5t-116.5 -93
t-74 -134.5t-26 -159q0 -76 24 -135t66.5 -99.5t101.5 -61.5t128 -21q42 0 77.5 4.5t68 13.5t63 23t63.5 33l11 -17q-54 -45 -130 -73t-167 -28q-83 0 -153.5 24t-121.5 70t-80 113t-29 153q0 90 33 172.5t92.5 145.5t141.5 100.5t181 37.5q83 0 148 -24t110 -66t69 -100
t24 -125q0 -65 -19 -119.5t-51 -94.5t-75 -62.5t-91 -22.5z" />
  </font>
</defs>
</svg>
