<?xml version="1.0" standalone="no"?>
<!DOCTYPE svg PUBLIC "-//W3C//DTD SVG 1.1//EN" "http://www.w3.org/Graphics/SVG/1.1/DTD/svg11.dtd" >
<svg xmlns="http://www.w3.org/2000/svg" xmlns:xlink="http://www.w3.org/1999/xlink" version="1.1">
<metadata>
Created by FontForge 20150318 at Thu Sep 24 21:54:52 2015
 By uniteet7
Copyright (c) 2010 by Kris Sowersby. All rights reserved.
</metadata>
<defs>
<font id="TiemposHeadlineWebLightItalic" horiz-adv-x="500" >
  <font-face 
    font-family="TiemposHeadlineWebLightItalic"
    font-weight="300"
    font-style="italic"
    font-stretch="normal"
    units-per-em="1000"
    panose-1="2 2 3 3 6 3 3 13 4 3"
    ascent="800"
    descent="-200"
    x-height="530"
    cap-height="702"
    bbox="-183 -226 1093 1033"
    underline-thickness="30"
    underline-position="-70"
    slope="-12"
    unicode-range="U+000D-FB04"
  />
<missing-glyph horiz-adv-x="960" 
d="M90 780h780v-780h-780v780zM201 66h558l-279 279zM480 435l279 279h-558zM160 665v-550l275 275zM800 115v550l-275 -275z" />
    <glyph glyph-name="ff" unicode="ff" horiz-adv-x="570" 
d="M411 471h-198l-73 -320q-23 -101 -47 -169.5t-51.5 -110.5t-61 -60t-74.5 -18q-38 0 -62.5 16.5t-24.5 46.5q0 27 17.5 40t37.5 18h9q4 -42 20 -67t39 -25q13 0 24.5 7t23.5 32.5t25.5 76.5t29.5 138l72 395h-78l6 24l80 18q13 56 38 102t58.5 79t73.5 51t83 18
q45 0 77 -14t52 -37q28 33 62.5 52t73.5 19q48 0 73.5 -20.5t25.5 -53.5q0 -24 -16 -39.5t-42 -22.5h-11q0 20 -3 39.5t-10.5 34.5t-19 24t-27.5 9q-17 0 -32.5 -17.5t-29 -50t-24.5 -77.5t-18 -100h118l-9 -38h-113l-70 -303q-23 -101 -47 -169.5t-51.5 -110.5t-61 -60
t-74.5 -18q-38 0 -57.5 16.5t-19.5 46.5q0 27 17.5 40t37.5 18h9q1 -44 13 -68t31 -24q15 0 27.5 8t25 34t26 76.5t29.5 135.5zM361 732q-53 0 -91.5 -55t-51.5 -168h200q7 36 18.5 70t25.5 63q-13 41 -38 65.5t-63 24.5z" />
    <glyph glyph-name="fi" unicode="fi" horiz-adv-x="551" 
d="M501 530h10l-104 -414q-4 -14 -6.5 -26t-2.5 -18q0 -15 14 -15t35 16.5t55 58.5l15 -11q-46 -68 -78.5 -99.5t-67.5 -31.5q-29 0 -44 18.5t-15 49.5q0 17 3 37t11 49l83 327h-196l-73 -320q-23 -101 -47 -169.5t-51.5 -110.5t-61 -60t-74.5 -18q-38 0 -62.5 16.5
t-24.5 46.5q0 27 17.5 40t37.5 18h9q4 -42 20 -67t39 -25q13 0 24.5 7t23.5 32.5t25 76.5t30 138l72 395h-78l6 24l80 18q12 56 36 105.5t56.5 86t73.5 57.5t88 21q54 0 83 -20.5t29 -53.5q0 -26 -17 -41.5t-48 -20.5h-12q5 45 -11 75t-51 30q-54 0 -87.5 -63.5
t-46.5 -179.5h205z" />
    <glyph glyph-name="fl" unicode="fl" horiz-adv-x="552" 
d="M213 471l-73 -320q-23 -101 -47 -169.5t-51.5 -110.5t-61 -60t-74.5 -18q-38 0 -62.5 16.5t-24.5 46.5q0 27 17.5 40t37.5 18h9q4 -42 20 -67t39 -25q13 0 24.5 7t23.5 32.5t25 76.5t30 138l72 395h-78l6 24l80 18q12 56 35.5 105.5t56 86t73 57.5t87.5 21q30 0 58 -10
t48 -25l79 35h10l-164 -667q-4 -14 -6.5 -26t-2.5 -18q0 -15 14 -15t35 16.5t55 58.5l15 -11q-46 -68 -78.5 -99.5t-67.5 -31.5q-29 0 -44 18.5t-15 49.5q0 17 3.5 37t10.5 49l133 535q-11 32 -34.5 52.5t-55.5 20.5q-67 0 -103 -63.5t-49 -179.5h125l-9 -38h-121z" />
    <glyph glyph-name="ffi" unicode="ffi" horiz-adv-x="844" 
d="M506 471l-71 -303q-24 -101 -48 -169.5t-51.5 -110.5t-60.5 -60t-74 -18q-38 0 -57.5 16.5t-19.5 46.5q0 27 17.5 40t37.5 18h9q1 -44 13 -68t31 -24q15 0 28 8t25.5 34t25.5 76.5t29 135.5l70 378h-197l-73 -320q-23 -101 -47 -169.5t-51.5 -110.5t-61 -60t-74.5 -18
q-38 0 -62.5 16.5t-24.5 46.5q0 27 17.5 40t37.5 18h9q4 -42 20 -67t39 -25q13 0 24.5 7t23.5 32.5t25.5 76.5t29.5 138l72 395h-78l6 24l80 18q13 56 38 102t58.5 79t73.5 51t83 18q48 0 81 -15.5t53 -41.5q33 36 73 56.5t87 20.5q54 0 83 -20.5t29 -53.5q0 -26 -17 -41.5
t-48 -20.5h-12q5 45 -11 75t-51 30q-54 0 -87.5 -63.5t-46.5 -179.5h205l78 21h10l-104 -414q-4 -14 -6.5 -26t-2.5 -18q0 -15 14 -15t35 16.5t55 58.5l15 -11q-46 -68 -78.5 -99.5t-67.5 -31.5q-29 0 -44 18.5t-15 49.5q0 17 3 37t11 49l83 327h-196zM361 732
q-53 0 -91.5 -55t-51.5 -168h199l1 3q16 70 46 125q-13 43 -38 69t-65 26z" />
    <glyph glyph-name="ffl" unicode="ffl" horiz-adv-x="845" 
d="M506 471l-71 -303q-24 -101 -48 -169.5t-51.5 -110.5t-60.5 -60t-74 -18q-38 0 -57.5 16.5t-19.5 46.5q0 27 17.5 40t37.5 18h9q1 -44 13 -68t31 -24q15 0 28 8t25.5 34t25.5 76.5t29 135.5l70 378h-197l-73 -320q-23 -101 -47 -169.5t-51.5 -110.5t-61 -60t-74.5 -18
q-38 0 -62.5 16.5t-24.5 46.5q0 27 17.5 40t37.5 18h9q4 -42 20 -67t39 -25q13 0 24.5 7t23.5 32.5t25.5 76.5t29.5 138l72 395h-78l6 24l80 18q13 56 38 102t58.5 79t73.5 51t83 18q48 0 81 -15t53 -41q32 35 72 55.5t86 20.5q30 0 58 -10t48 -25l79 35h10l-164 -667
q-4 -14 -6.5 -26t-2.5 -18q0 -15 14 -15t35 16.5t55 58.5l15 -11q-46 -68 -78.5 -99.5t-67.5 -31.5q-29 0 -44 18.5t-15 49.5q0 17 3.5 37t10.5 49l133 535q-11 32 -34.5 52.5t-55.5 20.5q-67 0 -103 -63.5t-49 -179.5h125l-9 -38h-121zM418 512q8 34 19 65.5t27 60.5
q-13 42 -38.5 68t-64.5 26q-53 0 -91.5 -55t-51.5 -168h199z" />
    <glyph glyph-name="f_b" unicode="fb" horiz-adv-x="822" 
d="M460 679q-11 32 -34.5 52.5t-55.5 20.5q-67 0 -103 -63.5t-49 -179.5h125l-9 -38h-121l-73 -320q-23 -101 -47 -169.5t-51.5 -110.5t-61 -60t-74.5 -18q-38 0 -62.5 16.5t-24.5 46.5q0 27 17.5 40t37.5 18h9q4 -42 20 -67t39 -25q13 0 24.5 7t23.5 32.5t25 76.5t30 138
l72 395h-78l6 24l80 18q12 56 35.5 105.5t56 86t73 57.5t87.5 21q30 0 58 -10t48 -25l79 35h10l-126 -503q21 47 51.5 92t64 80t67.5 56.5t64 21.5q51 0 79 -39t28 -107q0 -79 -29 -150.5t-74.5 -125.5t-101.5 -86t-110 -32q-29 0 -56.5 8.5t-50 24t-38.5 38t-22 50.5z
M661 467q-30 0 -69 -28.5t-77.5 -80.5t-71.5 -125t-51 -161q9 -28 35.5 -40t52.5 -12q46 0 88 33t74 84.5t51 114.5t19 124q0 42 -11 66.5t-40 24.5z" />
    <glyph glyph-name="f_h" unicode="fh" horiz-adv-x="824" 
d="M460 679q-11 32 -34.5 52.5t-55.5 20.5q-67 0 -103 -63.5t-49 -179.5h125l-9 -38h-121l-73 -320q-23 -101 -47 -169.5t-51.5 -110.5t-61 -60t-74.5 -18q-38 0 -62.5 16.5t-24.5 46.5q0 27 17.5 40t37.5 18h9q4 -42 20 -67t39 -25q13 0 24.5 7t23.5 32.5t25 76.5t30 138
l72 395h-78l6 24l80 18q12 56 35.5 105.5t56 86t73 57.5t87.5 21q30 0 58 -10t48 -25l79 35h10l-128 -501q20 37 50.5 80.5t66.5 81t74.5 62t74.5 24.5q37 0 50.5 -19t13.5 -52q0 -10 -2 -22t-4 -22l-79 -299q-4 -14 -6.5 -26t-2.5 -18q0 -15 14 -15t35 16.5t55 58.5l15 -11
q-46 -68 -78.5 -99.5t-67.5 -31.5q-29 0 -44 18.5t-15 49.5q0 17 3 37t11 49l74 275q5 22 5 33q0 21 -18 21q-23 0 -59.5 -25.5t-74.5 -70t-71.5 -104t-50.5 -128.5l-36 -145h-87z" />
    <glyph glyph-name="f_k" unicode="fk" horiz-adv-x="782" 
d="M213 471l-73 -320q-23 -101 -47 -169.5t-51.5 -110.5t-61 -60t-74.5 -18q-38 0 -62.5 16.5t-24.5 46.5q0 27 17.5 40t37.5 18h9q4 -42 20 -67t39 -25q13 0 24.5 7t23.5 32.5t25 76.5t30 138l72 395h-78l6 24l80 18q12 56 35.5 105.5t56 86t73 57.5t87.5 21q30 0 58 -10
t48 -25l79 35h10l-195 -783h-88l171 679q-11 32 -34.5 52.5t-55.5 20.5q-67 0 -103 -63.5t-49 -179.5h125l-9 -38h-121zM619 111q12 -31 20.5 -49.5t26.5 -18.5q17 0 35.5 19t44.5 52l15 -11q-17 -28 -32.5 -49t-30.5 -35.5t-31 -21.5t-35 -7q-40 0 -61 29t-38 77l-66 191
l170 186q28 30 49 43.5t45 13.5q32 0 46.5 -18t14.5 -40q0 -24 -14 -40.5t-42 -27.5h-7q0 18 -8.5 35.5t-31.5 17.5q-20 0 -35.5 -11t-38.5 -35l-78 -86z" />
    <glyph glyph-name="f_f_b" unicode="ffb" horiz-adv-x="1115" 
d="M506 471l-71 -303q-24 -101 -48 -169.5t-51.5 -110.5t-60.5 -60t-74 -18q-38 0 -57.5 16.5t-19.5 46.5q0 27 17.5 40t37.5 18h9q1 -44 13 -68t31 -24q15 0 28 8t25.5 34t25.5 76.5t29 135.5l70 378h-197l-73 -320q-23 -101 -47 -169.5t-51.5 -110.5t-61 -60t-74.5 -18
q-38 0 -62.5 16.5t-24.5 46.5q0 27 17.5 40t37.5 18h9q4 -42 20 -67t39 -25q13 0 24.5 7t23.5 32.5t25.5 76.5t29.5 138l72 395h-78l6 24l80 18q13 56 38 102t58.5 79t73.5 51t83 18q48 0 81 -15t53 -41q32 35 72 55.5t86 20.5q30 0 58 -10t48 -25l79 35h10l-126 -503
q21 47 51.5 92t64 80t67.5 56.5t64 21.5q51 0 79 -39t28 -107q0 -79 -29 -150.5t-74.5 -125.5t-101.5 -86t-110 -32q-29 0 -56.5 8.5t-50 24t-38.5 38t-22 50.5l142 568q-11 32 -34.5 52.5t-55.5 20.5q-67 0 -103 -63.5t-49 -179.5h125l-9 -38h-121zM954 467
q-30 0 -69 -28.5t-77.5 -80.5t-71.5 -125t-51 -161q9 -28 35.5 -40t52.5 -12q46 0 88 33t74 84.5t51 114.5t19 124q0 42 -11 66.5t-40 24.5zM418 512q8 34 19 65.5t27 60.5q-13 42 -38.5 68t-64.5 26q-53 0 -91.5 -55t-51.5 -168h199z" />
    <glyph glyph-name="f_f_h" unicode="ffh" horiz-adv-x="1117" 
d="M753 679q-11 32 -34.5 52.5t-55.5 20.5q-67 0 -103 -63.5t-49 -179.5h125l-9 -38h-121l-71 -303q-24 -101 -48 -169.5t-51.5 -110.5t-60.5 -60t-74 -18q-38 0 -57.5 16.5t-19.5 46.5q0 27 17.5 40t37.5 18h9q1 -44 13 -68t31 -24q15 0 28 8t25.5 34t25.5 76.5t29 135.5
l70 378h-197l-73 -320q-23 -101 -47 -169.5t-51.5 -110.5t-61 -60t-74.5 -18q-38 0 -62.5 16.5t-24.5 46.5q0 27 17.5 40t37.5 18h9q4 -42 20 -67t39 -25q13 0 24.5 7t23.5 32.5t25.5 76.5t29.5 138l72 395h-78l6 24l80 18q13 56 38 102t58.5 79t73.5 51t83 18q48 0 81 -15
t53 -41q32 35 72 55.5t86 20.5q30 0 58 -10t48 -25l79 35h10l-128 -501q20 37 50.5 80.5t66.5 81t74.5 62t74.5 24.5q37 0 50.5 -19t13.5 -52q0 -10 -2 -22t-4 -22l-79 -299q-4 -14 -6.5 -26t-2.5 -18q0 -15 14 -15t35 16.5t55 58.5l15 -11q-46 -68 -78.5 -99.5t-67.5 -31.5
q-29 0 -44 18.5t-15 49.5q0 17 3 37t11 49l74 275q5 22 5 33q0 21 -18 21q-23 0 -59.5 -25.5t-74.5 -70t-71.5 -104t-50.5 -128.5l-36 -145h-87zM361 732q-53 0 -91.5 -55t-51.5 -168h199l1 3q8 34 19 65.5t27 60.5q-13 42 -38.5 68t-64.5 26z" />
    <glyph glyph-name="f_f_k" unicode="ffk" horiz-adv-x="1075" 
d="M506 471l-71 -303q-24 -101 -48 -169.5t-51.5 -110.5t-60.5 -60t-74 -18q-38 0 -57.5 16.5t-19.5 46.5q0 27 17.5 40t37.5 18h9q1 -44 13 -68t31 -24q15 0 28 8t25.5 34t25.5 76.5t29 135.5l70 378h-197l-73 -320q-23 -101 -47 -169.5t-51.5 -110.5t-61 -60t-74.5 -18
q-38 0 -62.5 16.5t-24.5 46.5q0 27 17.5 40t37.5 18h9q4 -42 20 -67t39 -25q13 0 24.5 7t23.5 32.5t25.5 76.5t29.5 138l72 395h-78l6 24l80 18q13 56 38 102t58.5 79t73.5 51t83 18q48 0 81 -15t53 -41q32 35 72 55.5t86 20.5q30 0 58 -10t48 -25l79 35h10l-195 -783h-88
l171 679q-11 32 -34.5 52.5t-55.5 20.5q-67 0 -103 -63.5t-49 -179.5h125l-9 -38h-121zM912 111q12 -31 20.5 -49.5t26.5 -18.5q17 0 35.5 19t44.5 52l15 -11q-17 -28 -32.5 -49t-30.5 -35.5t-31 -21.5t-35 -7q-40 0 -61 29t-38 77l-66 191l170 186q28 30 49 43.5t45 13.5
q32 0 46.5 -18t14.5 -40q0 -24 -14 -40.5t-42 -27.5h-7q0 18 -8.5 35.5t-31.5 17.5q-20 0 -35.5 -11t-38.5 -35l-78 -86zM418 512q8 34 19 65.5t27 60.5q-13 42 -38.5 68t-64.5 26q-53 0 -91.5 -55t-51.5 -168h199z" />
    <glyph glyph-name="f_j" unicode="fj" horiz-adv-x="517" 
d="M213 471l-73 -320q-23 -101 -47 -169.5t-51.5 -110.5t-61 -60t-74.5 -18q-38 0 -62.5 16.5t-24.5 46.5q0 27 17.5 40t37.5 18h9q4 -42 20 -67t39 -25q13 0 24.5 7t23.5 32.5t25 76.5t30 138l72 395h-78l6 24l80 18q12 56 36 105.5t56.5 86t73.5 57.5t88 21q54 0 83 -20.5
t29 -53.5q0 -26 -17 -41.5t-48 -20.5h-12q5 45 -11 75t-51 30q-54 0 -87.5 -63.5t-46.5 -179.5h205l78 21h10l-84 -376q-21 -96 -46 -162t-54.5 -106.5t-63 -58.5t-72.5 -18q-35 0 -57 16.5t-22 46.5q0 27 17.5 40t37.5 18h9q1 -42 11.5 -67t33.5 -25q13 0 23.5 7t20 25.5
t19.5 52t22 86.5l104 462h-197z" />
    <glyph glyph-name="f_f_j" unicode="ffj" horiz-adv-x="809" 
d="M506 471l-71 -303q-24 -101 -48 -169.5t-51.5 -110.5t-60.5 -60t-74 -18q-38 0 -57.5 16.5t-19.5 46.5q0 27 17.5 40t37.5 18h9q1 -44 13 -68t31 -24q15 0 28 8t25.5 34t25.5 76.5t29 135.5l70 378h-197l-73 -320q-23 -101 -47 -169.5t-51.5 -110.5t-61 -60t-74.5 -18
q-38 0 -62.5 16.5t-24.5 46.5q0 27 17.5 40t37.5 18h9q4 -42 20 -67t39 -25q13 0 24.5 7t23.5 32.5t25.5 76.5t29.5 138l72 395h-78l6 24l80 18q13 56 38 102t58.5 79t73.5 51t83 18q48 0 81 -15.5t53 -41.5q33 36 73 56.5t87 20.5q54 0 83 -20.5t29 -53.5q0 -26 -17 -41.5
t-48 -20.5h-12q5 45 -11 75t-51 30q-54 0 -87.5 -63.5t-46.5 -179.5h204l78 21h10l-84 -376q-21 -96 -46 -162t-54.5 -106.5t-63 -58.5t-72.5 -18q-35 0 -57 16.5t-22 46.5q0 27 17.5 40t37.5 18h9q1 -42 11.5 -67t33.5 -25q13 0 23.5 7t20 25.5t19.5 52t22 86.5l104 462
h-196zM361 732q-53 0 -91.5 -55t-51.5 -168h199l1 3q16 70 46 125q-13 43 -38 69t-65 26z" />
    <glyph glyph-name="f_idieresis" unicode="f&#xef;" horiz-adv-x="551" 
d="M501 530h10l-104 -414q-4 -14 -6.5 -26t-2.5 -18q0 -15 14 -15t35 16.5t55 58.5l15 -11q-46 -68 -78.5 -99.5t-67.5 -31.5q-29 0 -44 18.5t-15 49.5q0 17 3 37t11 49l83 327h-196l-73 -320q-23 -101 -47 -169.5t-51.5 -110.5t-61 -60t-74.5 -18q-38 0 -62.5 16.5
t-24.5 46.5q0 27 17.5 40t37.5 18h9q4 -42 20 -67t39 -25q13 0 24.5 7t23.5 32.5t25 76.5t30 138l72 395h-78l6 24l80 18q10 56 28.5 105.5t46 86t64 57.5t82.5 21q58 0 87 -28t29 -70q0 -31 -19.5 -53t-58.5 -25h-13q7 24 7.5 49.5t-6 47t-20.5 35.5t-36 14
q-24 0 -40.5 -17.5t-28 -49.5t-18 -77t-11.5 -100h205zM565 608q-26 0 -42 16.5t-16 41.5q0 26 18.5 45t44.5 19t42 -16.5t16 -41.5q0 -26 -18.5 -45t-44.5 -19z" />
    <glyph glyph-name="f_f_idieresis" unicode="ff&#xef;" horiz-adv-x="844" 
d="M410 471h-197l-73 -320q-23 -101 -47 -169.5t-51.5 -110.5t-61 -60t-74.5 -18q-38 0 -62.5 16.5t-24.5 46.5q0 27 17.5 40t37.5 18h9q4 -42 20 -67t39 -25q13 0 24.5 7t23.5 32.5t25.5 76.5t29.5 138l72 395h-78l6 24l80 18q13 56 38 102t58.5 79t73.5 51t83 18
q42 0 73 -12.5t52 -33.5q26 31 60 48.5t76 17.5q58 0 87 -28t29 -70q0 -31 -19.5 -53t-58.5 -25h-13q7 24 7.5 49.5t-6 47t-20.5 35.5t-36 14q-24 0 -40.5 -17.5t-28 -49.5t-18 -77t-11.5 -100h205l78 21h10l-104 -414q-4 -14 -6.5 -26t-2.5 -18q0 -15 14 -15t35 16.5
t55 58.5l15 -11q-46 -68 -78.5 -99.5t-67.5 -31.5q-29 0 -44 18.5t-15 49.5q0 17 3 37t11 49l83 327h-196l-71 -303q-24 -101 -48 -169.5t-51.5 -110.5t-60.5 -60t-74 -18q-38 0 -57.5 16.5t-19.5 46.5q0 27 17.5 40t37.5 18h9q1 -44 13 -68t31 -24q15 0 28 8t25.5 34
t25.5 76.5t29 135.5zM361 732q-53 0 -91.5 -55t-51.5 -168h199l1 3q12 76 41 137q-13 38 -37.5 60.5t-60.5 22.5zM858 608q-26 0 -42 16.5t-16 41.5q0 26 18.5 45t44.5 19t42 -16.5t16 -41.5q0 -26 -18.5 -45t-44.5 -19z" />
    <glyph glyph-name=".notdef" horiz-adv-x="960" 
d="M90 780h780v-780h-780v780zM201 66h558l-279 279zM480 435l279 279h-558zM160 665v-550l275 275zM800 115v550l-275 -275z" />
    <glyph glyph-name=".null" horiz-adv-x="0" 
 />
    <glyph glyph-name="nonmarkingreturn" unicode="&#xd;" horiz-adv-x="200" 
 />
    <glyph glyph-name="NULL" horiz-adv-x="0" 
 />
    <glyph glyph-name="NULL" horiz-adv-x="0" 
 />
    <glyph glyph-name="space" unicode=" " horiz-adv-x="200" 
 />
    <glyph glyph-name="exclam" unicode="!" horiz-adv-x="238" 
d="M110 203h-15l65 499h121zM7 59q0 29 20 49t49 20t49 -20t20 -49t-20 -49t-49 -20t-49 20t-20 49z" />
    <glyph glyph-name="quotedbl" unicode="&#x22;" horiz-adv-x="253" 
d="M100 492l13 135q4 38 6.5 68t14.5 47q5 8 14 14t24 6q20 0 29.5 -11.5t9.5 -29.5q0 -23 -13 -51t-26 -54l-63 -124h-9zM217 492l13 135q4 38 6.5 68t14.5 47q5 8 14 14t24 6q20 0 29.5 -11.5t9.5 -29.5q0 -23 -13 -51t-26 -54l-63 -124h-9z" />
    <glyph glyph-name="numbersign" unicode="#" horiz-adv-x="545" 
d="M356 234l-77 -243l-32 10l73 233h-148l-77 -243l-32 10l73 233h-105v29h114l64 201h-107v29h116l70 220l32 -10l-67 -210h149l70 220l32 -10l-67 -210h99v-29h-108l-63 -201h100v-29h-109zM181 263h148l64 201h-149z" />
    <glyph glyph-name="dollar" unicode="$" horiz-adv-x="539" 
d="M473 208q0 -52 -21.5 -92.5t-57 -68.5t-81 -42.5t-94.5 -14.5h-5l-23 -103h-27l23 104q-67 5 -113.5 27t-69.5 44l26 167h26q8 -187 139 -205l67 294l-19 9q-68 33 -103.5 75t-35.5 105q0 45 16.5 82.5t47.5 64.5t75 42.5t98 15.5h10l22 94h27l-22 -96q87 -9 150 -57
l-28 -147h-25q-1 75 -24.5 118t-80.5 53l-63 -277q36 -17 66.5 -35.5t52.5 -42t34.5 -51.5t12.5 -63zM383 169q0 48 -22.5 77.5t-74.5 58.5l-64 -283h3q71 0 114.5 39t43.5 108zM189 538q0 -45 22.5 -73t71.5 -53l61 268h-9q-33 0 -60 -11t-46 -30t-29.5 -45t-10.5 -56z" />
    <glyph glyph-name="percent" unicode="%" horiz-adv-x="734" 
d="M242 712q30 0 55 -10.5t43.5 -29t29 -45t10.5 -59.5q0 -44 -15 -78.5t-40 -59t-56 -37.5t-63 -13q-30 0 -55 10.5t-43.5 29t-29 45t-10.5 59.5q0 43 15 78t40 59.5t56 37.5t63 13zM242 687q-26 0 -46 -16.5t-33.5 -43t-20.5 -59t-7 -64.5q0 -20 3 -38t11 -31.5
t21.5 -21.5t35.5 -8q26 0 46 16.5t33.5 42.5t20.5 59t7 65q0 20 -3 38t-11 31.5t-21.5 21.5t-35.5 8zM503 -10q-30 0 -55 10.5t-43.5 29t-29 45t-10.5 59.5q0 43 15 78t40 59.5t56 37.5t63 13q30 0 55 -10.5t43.5 -29t29 -45t10.5 -59.5q0 -44 -15 -78.5t-40 -59t-56 -37.5
t-63 -13zM94 -10h-40l597 722h40zM503 15q26 0 46 16.5t33.5 42.5t20.5 59t7 65q0 20 -3 38t-11 31.5t-21.5 21.5t-35.5 8q-26 0 -46 -16.5t-33.5 -43t-20.5 -59t-7 -64.5q0 -20 3 -38t11 -31.5t21.5 -21.5t35.5 -8z" />
    <glyph glyph-name="ampersand" unicode="&#x26;" horiz-adv-x="660" 
d="M10 170q0 45 17 80.5t45.5 62.5t65.5 45.5t77 29.5q-15 24 -29 58t-14 78q0 40 15 74t41 59.5t62.5 40t78.5 14.5q36 0 65 -10.5t49.5 -28.5t31 -41.5t10.5 -50.5q0 -70 -53.5 -113t-156.5 -73l149 -230q27 38 42.5 81t15.5 85q0 21 -16.5 29t-38.5 8l5 26h203l-5 -26
q-30 0 -48 -3t-30 -11t-19.5 -22t-14.5 -36q-16 -44 -35 -83.5t-42 -73.5l30 -46q20 -28 47 -47t65 -19l-6 -27h-127q-20 11 -35.5 27.5t-33.5 42.5q-42 -38 -94 -59t-116 -21q-39 0 -75.5 11.5t-64.5 34t-44.5 56.5t-16.5 78zM257 36q39 0 76.5 16.5t69.5 44.5l-177 274
q-59 -22 -90.5 -70t-31.5 -113q0 -37 12 -65t32.5 -47.5t48.5 -29.5t60 -10zM251 550q0 -42 15.5 -73t32.5 -57l4 -7q76 26 109.5 64t33.5 104q0 45 -22.5 73.5t-67.5 28.5q-48 0 -76.5 -36.5t-28.5 -96.5z" />
    <glyph glyph-name="quotesingle" unicode="'" horiz-adv-x="136" 
d="M100 492l13 135q4 38 6.5 68t14.5 47q5 8 14 14t24 6q20 0 29.5 -11.5t9.5 -29.5q0 -23 -13 -51t-26 -54l-63 -124h-9z" />
    <glyph glyph-name="parenleft" unicode="(" horiz-adv-x="338" 
d="M74 197q0 85 24.5 164t67.5 151.5t101 137t126 120.5h39q-72 -61 -125 -137.5t-87.5 -157.5t-51 -159.5t-16.5 -143.5q0 -94 19 -171t67 -143h-39q-62 77 -93.5 162t-31.5 177z" />
    <glyph glyph-name="parenright" unicode=")" horiz-adv-x="338" 
d="M288 431q0 -85 -24.5 -164t-67.5 -151.5t-101.5 -137t-125.5 -120.5h-39q72 61 124.5 137.5t87 157.5t51.5 159.5t17 143.5q0 94 -19 171t-67 143h39q62 -77 93.5 -162t31.5 -177z" />
    <glyph glyph-name="asterisk" unicode="*" horiz-adv-x="403" 
d="M286 584l101 -92q14 -12 13.5 -25t-10.5 -21q-11 -8 -23 -5.5t-21 19.5l-68 119l-29 -134q-4 -18 -15 -24.5t-23 -1.5t-16 17t6 28l68 118l-130 -41q-17 -6 -28 0.5t-13 19.5q-2 12 6.5 21.5t27.5 9.5h136l-101 92q-14 12 -13.5 25t10.5 21q11 8 23 5.5t21 -19.5l67 -119
l30 134q4 18 15 24.5t23 1.5t16 -17t-6 -28l-69 -118l131 41q17 6 28 -0.5t13 -19.5q2 -12 -6.5 -21.5t-27.5 -9.5h-136z" />
    <glyph glyph-name="plus" unicode="+" horiz-adv-x="564" 
d="M368 590l-41 -193h192l-11 -52h-192l-41 -193h-54l41 193h-192l11 52h192l41 193h54z" />
    <glyph glyph-name="comma" unicode="," horiz-adv-x="200" 
d="M35 -1q-19 4 -32.5 18t-13.5 38q0 28 18.5 44.5t44.5 16.5q32 0 49.5 -21.5t17.5 -57.5q0 -32 -13 -59t-36 -47t-54 -32.5t-67 -15.5v23q51 9 82 32t35 61h-31z" />
    <glyph glyph-name="hyphen" unicode="-" horiz-adv-x="320" 
d="M24 278l10 45h260l-10 -45h-260z" />
    <glyph glyph-name="period" unicode="." horiz-adv-x="200" 
d="M-15 59q0 29 20 49t49 20t49 -20t20 -49t-20 -49t-49 -20t-49 20t-20 49z" />
    <glyph glyph-name="slash" unicode="/" horiz-adv-x="377" 
d="M-35 -141h-40l492 911h41z" />
    <glyph glyph-name="zero" unicode="0" horiz-adv-x="596" 
d="M241 -10q-52 0 -90 20t-63.5 54.5t-38 81t-12.5 99.5q0 56 11 112.5t32 108.5t51.5 97t68.5 78t84 52t98 19t90 -20t63.5 -54.5t38 -81t12.5 -99.5q0 -56 -11 -112.5t-32 -108.5t-51.5 -97t-68.5 -78t-84 -52t-98 -19zM242 19q35 0 67 19.5t59 53t48.5 78t37 94t23.5 102
t8 101.5q0 44 -4.5 83t-16.5 68.5t-32.5 47t-51.5 17.5q-36 0 -67.5 -19.5t-58.5 -53t-48.5 -78t-36.5 -94t-23 -102t-8 -101.5q0 -44 4.5 -83t16.5 -68.5t32 -47t51 -17.5z" />
    <glyph glyph-name="one" unicode="1" horiz-adv-x="403" 
d="M353 711l-125 -591q-6 -31 -2.5 -49t17 -27t37.5 -12.5t59 -4.5l-6 -27h-351l6 27q39 3 63.5 6t40.5 10t24 20t14 36l102 484h-138l6 24l35 6q33 6 59 12.5t49 17t45 27t46 41.5h19z" />
    <glyph glyph-name="two" unicode="2" horiz-adv-x="531" 
d="M268 82q33 0 57 3t44 14t38 32t40 57h24l-60 -188h-447l4 17q139 112 226.5 188t137 131t68 97t18.5 87q0 51 -33 83.5t-93 32.5q-32 0 -58.5 -8t-49 -22t-42 -32t-37.5 -38l-14 17q19 32 42.5 61t53 50.5t65 34.5t79.5 13q42 0 76 -12t58 -34.5t37 -54t13 -70.5
q0 -62 -34.5 -115t-93 -106t-134.5 -110.5t-160 -127.5h175z" />
    <glyph glyph-name="three" unicode="3" horiz-adv-x="517" 
d="M183 372q44 11 84.5 27t71 38.5t49 51t18.5 64.5q0 42 -27 69t-75 27q-52 0 -95.5 -25t-83.5 -72l-16 18q20 30 44.5 56t53.5 45t63 30t75 11q37 0 66 -10t49 -28t30.5 -42t10.5 -52q0 -41 -18 -71.5t-45.5 -52t-59.5 -35.5t-60 -23q35 -3 64 -17.5t50 -36t33 -50
t12 -59.5q0 -62 -26 -108t-66 -76.5t-88 -45.5t-91 -15q-59 0 -98.5 13t-63.5 33.5t-34 45.5t-10 50q0 34 18 55t41 32h48q-9 -20 -13.5 -35.5t-4.5 -37.5q0 -54 27.5 -90.5t91.5 -36.5q36 0 67.5 13.5t55.5 37.5t37.5 57.5t13.5 74.5q0 70 -34.5 111t-94.5 41
q-17 0 -31 -1.5t-34 -6.5l-5 26v0z" />
    <glyph glyph-name="four" unicode="4" horiz-adv-x="605" 
d="M343 232l75 349l-349 -349h274zM336 198h-332l4 20l483 484h48l-102 -470h120l-8 -34h-119l-21 -100q-3 -22 -2 -34.5t9 -19.5t24 -10.5t43 -6.5l-6 -27h-270l6 27q28 3 46 6.5t29 11t17 20t10 33.5z" />
    <glyph glyph-name="five" unicode="5" horiz-adv-x="518" 
d="M149 446q59 3 116 -8t101.5 -36.5t72 -68t27.5 -102.5q0 -53 -19.5 -97.5t-53.5 -76.5t-80 -49.5t-100 -17.5q-104 0 -158.5 40t-54.5 101q0 34 18 55.5t40 32.5h49q-18 -35 -18 -75q0 -53 31 -89t93 -36q35 0 66 13t53.5 36t35.5 56t13 74q0 57 -24 91.5t-64.5 53.5
t-92.5 24t-109 2l101 328h240q13 0 22.5 1t17.5 5t16 13t19 25h22l-51 -136h-282z" />
    <glyph glyph-name="six" unicode="6" horiz-adv-x="550" 
d="M544 689q-66 -19 -126.5 -47.5t-111.5 -67.5t-89.5 -89t-60.5 -111q34 33 77 53t93 20q45 0 80.5 -15t60 -41.5t37 -61t12.5 -73.5q0 -58 -21 -106.5t-56 -84t-81.5 -55.5t-97.5 -20q-56 0 -98 19t-70 51t-41.5 75.5t-13.5 92.5q0 86 34.5 165.5t98.5 144t154.5 110
t202.5 63.5zM287 401q-41 0 -76 -13.5t-63 -38.5q-8 -29 -12 -59.5t-4 -62.5q0 -45 7.5 -83t23.5 -65.5t40.5 -43t58.5 -15.5q39 0 68.5 17t49.5 46.5t30 68t10 80.5q0 35 -7.5 66t-23.5 54t-41.5 36t-60.5 13z" />
    <glyph glyph-name="seven" unicode="7" horiz-adv-x="503" 
d="M224 613q-26 0 -45.5 -6t-35 -17.5t-29 -27.5t-27.5 -35h-27l80 175h425l-3 -19l-418 -683h-98l440 613h-262z" />
    <glyph glyph-name="eight" unicode="8" horiz-adv-x="545" 
d="M532 555q0 -38 -16 -68t-42 -52t-58 -36t-65 -20l34 -24q45 -32 74 -69t29 -93q0 -46 -17 -83.5t-48 -64t-74.5 -41t-96.5 -14.5t-95.5 14t-72.5 38.5t-46.5 58t-16.5 72.5q0 37 15 68t41.5 54.5t62 39.5t76.5 25l-17 12q-32 23 -56.5 59.5t-24.5 87.5q0 39 15 74.5
t43.5 61.5t68 41.5t89.5 15.5q40 0 76 -10t63 -30t43 -49t16 -68zM231 350q-33 -12 -56 -31.5t-38 -43t-22 -50t-7 -51.5q0 -34 10 -62.5t29 -48.5t45.5 -31.5t59.5 -11.5q28 0 54.5 9t47.5 27t33.5 45.5t12.5 64.5q0 38 -21 70t-59 57zM339 387q54 23 84 66t30 101
q0 26 -7.5 49.5t-22.5 41t-37 27.5t-52 10q-27 0 -50.5 -8.5t-41 -25t-27.5 -41t-10 -56.5q0 -31 14.5 -63t52.5 -57z" />
    <glyph glyph-name="nine" unicode="9" horiz-adv-x="550" 
d="M33 13q66 19 126.5 47.5t111.5 67.5t89.5 89t60.5 111q-34 -33 -77 -53t-93 -20q-45 0 -80.5 15t-60 41.5t-37 61t-12.5 73.5q0 58 21 106.5t56 84t81.5 55.5t97.5 20q56 0 98 -19t69.5 -51t41.5 -75.5t14 -92.5q0 -86 -34.5 -165.5t-98.5 -144t-154.5 -110t-202.5 -63.5
zM290 301q41 0 76 13.5t63 38.5q8 29 12 59.5t4 62.5q0 45 -7.5 83t-23.5 65.5t-40.5 43t-58.5 15.5q-39 0 -68.5 -17t-49.5 -46.5t-30 -68t-10 -80.5q0 -35 7.5 -66t23.5 -54t41.5 -36t60.5 -13z" />
    <glyph glyph-name="colon" unicode=":" horiz-adv-x="200" 
d="M-15 59q0 29 20 49t49 20t49 -20t20 -49t-20 -49t-49 -20t-49 20t-20 49zM55 401q0 29 20 49t49 20t49 -20t20 -49t-20 -49t-49 -20t-49 20t-20 49z" />
    <glyph glyph-name="semicolon" unicode=";" horiz-adv-x="200" 
d="M34 -1q-19 4 -32.5 18t-13.5 38q0 28 18.5 44.5t44.5 16.5q32 0 49.5 -21.5t17.5 -57.5q0 -32 -13 -59t-36 -47t-54 -32.5t-67 -15.5v23q51 9 82 32t35 61h-31zM55 401q0 29 20 49t49 20t49 -20t20 -49t-20 -49t-49 -20t-49 20t-20 49z" />
    <glyph glyph-name="less" unicode="&#x3c;" horiz-adv-x="413" 
d="M63 374l350 189l-13 -64l-250 -132l194 -132l-13 -58l-270 189z" />
    <glyph glyph-name="equal" unicode="=" horiz-adv-x="574" 
d="M71 327h438l-11 -51h-438zM101 466h438l-12 -52h-438z" />
    <glyph glyph-name="greater" unicode="&#x3e;" horiz-adv-x="413" 
d="M384 366l-350 -189l14 64l250 132l-194 132l12 58l270 -189z" />
    <glyph glyph-name="question" unicode="?" horiz-adv-x="440" 
d="M281 442q51 29 80 60.5t29 87.5q0 44 -24.5 71.5t-72.5 27.5q-45 0 -71 -29t-26 -80q0 -16 1.5 -28t3.5 -20h-70q-10 8 -17 23t-7 34q0 28 14 51t38.5 39t58.5 24.5t75 8.5q42 0 75.5 -11t57 -30.5t36.5 -48t13 -62.5q0 -36 -11 -62.5t-30.5 -47.5t-46.5 -38t-59 -35
q-53 -29 -88 -61.5t-35 -81.5q0 -9 2.5 -19.5t5.5 -21.5h-16q-18 18 -28.5 43t-10.5 51q0 52 33 87t90 68zM93 59q0 29 20 49t49 20t49 -20t20 -49t-20 -49t-49 -20t-49 20t-20 49z" />
    <glyph glyph-name="at" unicode="@" horiz-adv-x="847" 
d="M587 75q-37 0 -60 13.5t-33.5 37.5t-10 57.5t10.5 74.5q-37 -83 -81 -132.5t-96 -49.5q-42 0 -67.5 32.5t-25.5 93.5q0 55 21.5 109t57.5 96.5t81.5 68.5t93.5 26q26 0 49 -9t40 -25l68 37h14l-30 -86l-61 -205q-5 -20 -7.5 -40t0 -35.5t12 -25.5t29.5 -10q43 0 74.5 25
t52 64.5t30.5 89t10 97.5q0 63 -17 114.5t-50.5 88.5t-84.5 57.5t-119 20.5q-88 0 -159 -37.5t-120.5 -99.5t-76.5 -141.5t-27 -163.5q0 -68 21.5 -124t61 -96t95.5 -61.5t125 -21.5q43 0 78.5 4t67.5 13t62.5 23t64.5 33l9 -14q-26 -21 -58.5 -38.5t-70 -30.5t-78.5 -20.5
t-83 -7.5q-85 0 -152.5 23.5t-114.5 67.5t-72 107t-25 143q0 90 33 174.5t92.5 150t142.5 105.5t184 40q79 0 141.5 -21.5t105.5 -62t65.5 -97.5t22.5 -128q0 -53 -16 -107.5t-46.5 -98t-74.5 -71t-99 -27.5zM347 125q24 0 51 24.5t54 66.5t51.5 99.5t42.5 123.5
q-10 20 -29.5 28.5t-38.5 8.5q-37 0 -68.5 -26.5t-55 -67t-36.5 -89t-13 -93.5q0 -33 11 -54t31 -21z" />
    <glyph glyph-name="A" unicode="A" horiz-adv-x="696" 
d="M463 246h-284l-82 -135q-20 -34 -20 -50q0 -18 20.5 -25t62.5 -9l-5 -27h-203l5 27q22 2 38.5 9.5t28.5 27.5l358 583l-14 64h96l128 -647q4 -20 17.5 -27.5t33.5 -9.5l-5 -27h-251l5 27q21 1 39 2.5t32 7.5t22 17t8 31q0 11 -3 25zM198 278h259l-62 323z" />
    <glyph glyph-name="B" unicode="B" horiz-adv-x="617" 
d="M230 346l-52 -246q-9 -41 11.5 -54t72.5 -13h12q42 0 78 11t62.5 33.5t42 57.5t15.5 84q0 55 -37 91t-109 36h-96zM299 669l-62 -290h74q42 0 78 9.5t62.5 30.5t41.5 55t15 82q0 113 -135 113h-74zM-20 27q28 3 46 6.5t29.5 11t17 20t10.5 33.5l108 506q5 23 3.5 36
t-10.5 19.5t-25 9.5t-41 6l5 27h281q53 0 91 -10.5t62 -29.5t35.5 -45t11.5 -57q0 -50 -20 -86t-52 -60t-72 -36t-80 -14q92 -4 141 -46t49 -104q0 -53 -23 -93t-63 -67t-93 -40.5t-113 -13.5h-304z" />
    <glyph glyph-name="C" unicode="C" horiz-adv-x="644" 
d="M455 712q67 0 119.5 -15.5t89.5 -43.5l-31 -146h-27q2 85 -37.5 128.5t-113.5 43.5q-77 0 -134.5 -40t-96.5 -101.5t-58.5 -134.5t-19.5 -138q0 -116 42 -179t126 -63q85 0 145 49t105 150h30l-51 -178q-51 -26 -105.5 -40t-123.5 -14q-66 0 -116 19.5t-84 55.5
t-51.5 86.5t-17.5 113.5q0 79 29.5 159t83.5 144t129.5 104t167.5 40z" />
    <glyph glyph-name="D" unicode="D" horiz-adv-x="700" 
d="M268 33q69 0 128 27.5t102.5 77.5t68 121.5t24.5 160.5q0 58 -13.5 104t-41 78t-70.5 49.5t-102 17.5h-65l-120 -565q-10 -44 8.5 -57.5t65.5 -13.5h15zM-26 0l6 27q28 3 46 6.5t29.5 11t17 20t10.5 33.5l108 506q5 23 3.5 36t-10.5 19.5t-25 9.5t-41 6l6 27h253
q74 0 132.5 -19.5t99 -56.5t62 -89t21.5 -117q0 -97 -33.5 -174.5t-92.5 -132t-138.5 -84t-170.5 -29.5h-283z" />
    <glyph glyph-name="E" unicode="E" horiz-adv-x="614" 
d="M-26 0l6 27q28 3 46 6.5t29.5 11t17 20t10.5 33.5l108 506q5 23 3.5 36t-10.5 19.5t-25 9.5t-41 6l6 27h522l-31 -167h-20q-8 40 -17.5 66t-23 41t-32 21t-44.5 6h-179l-62 -290h159q32 0 52 22.5t38 67.5h27l-45 -213h-27q2 45 -9 67.5t-43 22.5h-159l-52 -245
q-9 -41 11.5 -54.5t72.5 -13.5h92q27 0 49.5 8t45 26t47.5 46t57 67h24l-68 -180h-535z" />
    <glyph glyph-name="F" unicode="F" horiz-adv-x="563" 
d="M-26 0l6 27q28 3 46 6.5t29.5 11t17 20t10.5 33.5l108 506q5 23 3.5 36t-10.5 19.5t-25 9.5t-41 6l6 27h503l-32 -170h-20q-5 40 -14 66.5t-23.5 42.5t-34 22t-44.5 6h-160l-64 -300h138q32 0 51.5 24.5t36.5 69.5h27l-47 -221h-27q2 45 -7 69.5t-41 24.5h-138l-48 -225
q-5 -23 -2.5 -37.5t15 -23.5t36 -13.5t59.5 -7.5l-7 -29h-307z" />
    <glyph glyph-name="G" unicode="G" horiz-adv-x="697" 
d="M323 23q40 0 78 8.5t70 33.5l36 163q5 23 3.5 36t-10.5 19.5t-25 9.5t-41 6l6 27h252l-6 -27q-24 -2 -40 -5.5t-25.5 -11.5t-15 -21t-9.5 -33l-35 -166q-53 -32 -108.5 -52t-129.5 -20q-66 0 -117.5 19t-87 54t-54.5 85t-19 113q0 53 13.5 107t39 104t62 93.5t82 76
t100 51.5t115.5 19q67 0 122 -16.5t91 -42.5l-31 -146h-27q2 85 -39.5 128.5t-115.5 43.5q-51 0 -94 -19t-77.5 -51t-60.5 -74t-43.5 -88.5t-26.5 -94.5t-9 -91q0 -116 46.5 -177t130.5 -61z" />
    <glyph glyph-name="H" unicode="H" horiz-adv-x="771" 
d="M191 604q5 23 3.5 36t-10.5 19.5t-25 9.5t-41 6l6 27h270l-6 -27q-29 -3 -46.5 -6.5t-29 -11t-17.5 -20t-10 -33.5l-48 -224h351l48 224q5 23 3.5 36t-10.5 19.5t-25 9.5t-41 6l6 27h270l-6 -27q-29 -3 -46.5 -6.5t-29 -11t-17.5 -20t-10 -33.5l-108 -506
q-5 -23 -3.5 -36t10.5 -19.5t25 -9.5t41 -6l-6 -27h-270l6 27q28 3 46 6.5t29.5 11t17 20t10.5 33.5l53 248h-351l-53 -248q-5 -23 -3.5 -36t10.5 -19.5t25 -9.5t41 -6l-6 -27h-270l6 27q28 3 46 6.5t29.5 11t17 20t10.5 33.5z" />
    <glyph glyph-name="I" unicode="I" horiz-adv-x="326" 
d="M191 604q5 23 3.5 36t-10.5 19.5t-25 9.5t-41 6l6 27h270l-6 -27q-29 -3 -46.5 -6.5t-29 -11t-17.5 -20t-10 -33.5l-108 -506q-5 -23 -3.5 -36t10.5 -19.5t25 -9.5t41 -6l-6 -27h-270l6 27q28 3 46 6.5t29.5 11t17 20t10.5 33.5z" />
    <glyph glyph-name="J" unicode="J" horiz-adv-x="490" 
d="M365 604q5 23 3.5 36t-10.5 19.5t-25 9.5t-41 6l6 27h270l-6 -27q-29 -3 -46.5 -6.5t-29 -11t-17.5 -20t-10 -33.5l-89 -417q-23 -107 -83.5 -152t-154.5 -45q-72 0 -114.5 28.5t-42.5 78.5q0 26 12 47.5t31 35.5h69q-9 -20 -14.5 -39.5t-5.5 -38.5q0 -38 19 -61t57 -23
q46 0 78.5 33t50.5 116z" />
    <glyph glyph-name="K" unicode="K" horiz-adv-x="661" 
d="M498 97q12 -20 23.5 -33t24.5 -21t29 -11.5t37 -4.5l-6 -27h-146q-17 15 -32 37.5t-32 48.5l-152 262l306 265q10 8 20 18t10 21q0 12 -13.5 16.5t-56.5 6.5l5 27h215l-5 -27q-34 -2 -57.5 -14t-52.5 -37l-281 -245zM177 98q-5 -23 -3.5 -36t10.5 -19.5t25 -9.5t41 -6
l-6 -27h-270l6 27q28 3 46 6.5t29.5 11t17 20t10.5 33.5l108 506q5 23 3.5 36t-10.5 19.5t-25 9.5t-41 6l5 27h271l-6 -27q-29 -3 -46.5 -6.5t-29 -11t-17.5 -20t-10 -33.5z" />
    <glyph glyph-name="L" unicode="L" horiz-adv-x="582" 
d="M178 101q-9 -41 11.5 -54.5t72.5 -13.5h59q32 0 57.5 10.5t49 31.5t47 51t52.5 69h25l-73 -195h-505l6 27q28 3 46 6.5t29.5 11t17 20t10.5 33.5l108 506q5 23 3.5 36t-10.5 19.5t-25 9.5t-41 6l6 27h270l-6 -27q-29 -3 -46.5 -6.5t-29 -11t-17.5 -20t-10 -33.5z" />
    <glyph glyph-name="M" unicode="M" horiz-adv-x="890" 
d="M704 566l-325 -566h-19l-99 566l-147 -451q-7 -25 -8.5 -41t5.5 -26t25 -15t50 -6l-6 -27h-214l6 27q21 1 36 4t25.5 9.5t18 17.5t13.5 29l170 515q9 40 -6 55t-63 18l6 27h166q-2 -17 -1 -29t4 -28l87 -492l282 492q9 16 15.5 28t11.5 29h167l-6 -27q-48 -3 -69.5 -18
t-30.5 -55l-49 -515q-2 -35 13.5 -46t55.5 -14l-6 -27h-266l6 27q31 3 50.5 6t31 10t17 20t8.5 36z" />
    <glyph glyph-name="N" unicode="N" horiz-adv-x="729" 
d="M656 604q8 42 -13.5 55t-80.5 16l6 27h237l-6 -27q-29 -3 -46.5 -6.5t-29 -11t-17.5 -20t-10 -33.5l-129 -608h-25l-318 581l-101 -479q-8 -42 13.5 -55t80.5 -16l-6 -27h-237l6 27q28 3 46 6.5t29.5 11t17 20t10.5 33.5l110 516q-9 17 -17 28.5t-17 18.5t-21.5 10.5
t-31.5 3.5l6 27h151l298 -556z" />
    <glyph glyph-name="O" unicode="O" horiz-adv-x="696" 
d="M428 712q66 0 115 -22t81 -59t48 -86.5t16 -104.5q0 -77 -27 -157t-77.5 -145t-121 -106.5t-157.5 -41.5q-66 0 -115 22t-81 59t-48 86.5t-16 104.5q0 77 27 157t77.5 145t121 106.5t157.5 41.5zM428 679q-67 0 -119.5 -40t-88.5 -101.5t-55 -135t-19 -140.5q0 -50 9 -94
t28 -76t49.5 -50.5t72.5 -18.5q67 0 119.5 40t88.5 101.5t55 135t19 140.5q0 50 -9 93.5t-28 76t-49.5 51t-72.5 18.5z" />
    <glyph glyph-name="P" unicode="P" horiz-adv-x="581" 
d="M383 702q59 0 102 -14t70.5 -37.5t41 -55.5t13.5 -68q0 -57 -24 -101.5t-66.5 -75.5t-101.5 -47t-129 -16h-71l-38 -176q-5 -23 -3 -38t14 -24t35.5 -13.5t60.5 -6.5l-6 -29h-307l6 27q28 3 46 6.5t29.5 11t17 20t10.5 33.5l108 506q5 23 3.5 36t-10.5 19.5t-25 9.5
t-41 6l6 27h259zM225 320h66q49 0 90 12.5t71 38.5t46.5 64.5t16.5 91.5q0 62 -39 102t-119 40h-58z" />
    <glyph glyph-name="Q" unicode="Q" horiz-adv-x="696" 
d="M428 712q66 0 115 -22t81 -59t48 -86.5t16 -104.5q0 -72 -24 -147t-68 -138t-106.5 -107.5t-140.5 -54.5l41 -60q21 -31 46.5 -54.5t72.5 -26.5l-2 -10q-19 -9 -37.5 -15t-47.5 -6q-38 0 -67 18t-46 59l-41 94q-57 6 -98.5 29.5t-69.5 60t-41.5 83t-13.5 97.5
q0 77 27 157t77.5 145t121 106.5t157.5 41.5zM428 679q-67 0 -119.5 -40t-88.5 -101.5t-55 -135t-19 -140.5q0 -50 9 -94.5t28 -77.5t49.5 -52t72.5 -19q67 0 119.5 40.5t88.5 103t55 136.5t19 141q0 50 -9 93.5t-28 76t-49.5 51t-72.5 18.5z" />
    <glyph glyph-name="R" unicode="R" horiz-adv-x="674" 
d="M299 669l-70 -329h55q49 0 89.5 12.5t69.5 37.5t45 61t16 84q0 58 -33 96t-108 38h-64zM177 98q-5 -23 -3.5 -36t10.5 -19.5t25 -9.5t41 -6l-6 -27h-270l6 27q28 3 46 6.5t29.5 11t17 20t10.5 33.5l108 506q5 23 3.5 36t-10.5 19.5t-25 9.5t-41 6l6 27h268
q60 0 100.5 -13.5t65.5 -36.5t36 -53t11 -62q0 -52 -23.5 -90.5t-57 -64.5t-71.5 -41t-67 -20l119 -210q26 -45 51.5 -64t67.5 -20l-5 -27h-143q-19 15 -33.5 37t-31.5 52l-116 217h-73z" />
    <glyph glyph-name="S" unicode="S" horiz-adv-x="529" 
d="M479 208q0 -52 -21.5 -92.5t-57 -68.5t-81 -42.5t-94.5 -14.5q-40 0 -73.5 6.5t-61 17t-47.5 23.5t-33 25l26 167h26q9 -207 169 -207q71 0 113.5 39t42.5 108q0 28 -7.5 49.5t-24 39.5t-42.5 34.5t-64 34.5q-68 33 -103.5 75t-35.5 105q0 45 16.5 82.5t47.5 64.5
t75 42.5t98 15.5t102 -15t85 -44l-28 -147h-25q-1 87 -32.5 130.5t-107.5 43.5q-33 0 -60 -11t-45.5 -30t-28.5 -45t-10 -56q0 -48 26 -77.5t85 -56.5q37 -17 68 -36.5t54 -43t36 -52t13 -64.5z" />
    <glyph glyph-name="T" unicode="T" horiz-adv-x="641" 
d="M336 100q-5 -23 -3 -36t12 -20.5t28.5 -10.5t45.5 -6l-6 -27h-290l6 27q31 3 51 7t32 11.5t18.5 20.5t11.5 34l121 571h-72q-33 0 -57 -8.5t-46 -28.5t-45.5 -54.5t-55.5 -86.5h-22l60 209h583l-30 -209h-22q-8 52 -14.5 86.5t-18 54.5t-31 28.5t-52.5 8.5h-83z" />
    <glyph glyph-name="U" unicode="U" horiz-adv-x="703" 
d="M646 604q5 23 3.5 36t-10.5 19.5t-25 9.5t-41 6l6 27h215l-6 -27q-29 -3 -46.5 -6.5t-29 -11t-17.5 -20t-10 -33.5l-78 -367q-27 -126 -101.5 -186.5t-178.5 -60.5q-60 0 -109 18t-80.5 53t-42.5 87t3 120l71 336q5 23 3.5 36t-10.5 19.5t-25 9.5t-41 6l6 27h270l-6 -27
q-29 -3 -46.5 -6.5t-29 -11t-17.5 -20t-10 -33.5l-72 -340q-11 -50 -5.5 -91t24.5 -70.5t52 -45.5t78 -16q99 0 153.5 50.5t77.5 162.5z" />
    <glyph glyph-name="V" unicode="V" horiz-adv-x="673" 
d="M621 591q20 34 20 50q0 18 -20.5 25t-62.5 9l6 27h200l-6 -27q-22 -3 -38.5 -10t-28.5 -27l-387 -647h-20l-138 647q-5 21 -18 27.5t-33 9.5l6 27h248l-6 -27q-22 -1 -41 -3t-32.5 -8t-21 -16.5t-7.5 -28.5q0 -6 1 -13t3 -15l100 -466z" />
    <glyph glyph-name="W" unicode="W" horiz-adv-x="916" 
d="M619 138l249 453q6 11 12.5 24t6.5 24q0 16 -15.5 25t-66.5 11l6 27h196l-6 -27q-20 -3 -37 -8.5t-29 -28.5l-360 -647h-21l-50 425l-243 -425h-22l-93 647q-2 20 -16.5 27t-34.5 10l6 27h248l-6 -27q-59 -3 -80 -14t-21 -36q0 -9 0.5 -18t1.5 -15l62 -458l191 337
l-19 167q-2 20 -16.5 27t-34.5 10l6 27h239l-6 -27q-59 -3 -80 -14t-21 -36q0 -9 0.5 -18t1.5 -15z" />
    <glyph glyph-name="X" unicode="X" horiz-adv-x="673" 
d="M334 318l-187 -205q-17 -18 -25.5 -30.5t-8.5 -25.5q0 -29 76 -30l-6 -27h-226l6 27q29 0 50.5 9.5t50.5 40.5l255 274l-121 274q-13 29 -31.5 39.5t-47.5 10.5l6 27h268l-6 -27q-43 0 -68.5 -5t-25.5 -26q0 -10 4 -21t12 -31l78 -178l160 175q17 18 27 32.5t10 25.5
q0 17 -18 22.5t-59 5.5l6 27h224l-6 -27q-29 0 -53 -10.5t-50 -39.5l-226 -244l135 -304q11 -26 30.5 -38t48.5 -12l-6 -27h-267l6 27q44 2 68.5 7.5t24.5 28.5q0 12 -14 43z" />
    <glyph glyph-name="Y" unicode="Y" horiz-adv-x="621" 
d="M321 100q-5 -23 -3 -36t12 -20.5t28.5 -10.5t45.5 -6l-6 -27h-285l6 27q31 3 51 7t32 11.5t18.5 20.5t11.5 34l38 182l-124 356q-7 20 -19 27t-32 10l6 27h247l-6 -27q-59 -2 -78.5 -10.5t-19.5 -29.5q0 -12 2.5 -21t6.5 -22l96 -269l210 268q8 10 18 25t10 27
q0 17 -17.5 23.5t-63.5 8.5l6 27h200l-6 -27q-21 -3 -36.5 -10.5t-30.5 -26.5l-279 -355z" />
    <glyph glyph-name="Z" unicode="Z" horiz-adv-x="603" 
d="M327 33q31 0 54.5 8.5t46.5 28t48.5 51t60.5 77.5h24l-74 -198h-507l3 16l548 653h-215q-29 0 -50 -7.5t-40 -25.5t-39 -47t-47 -72h-23l45 185h495l-4 -17l-544 -652h218z" />
    <glyph glyph-name="bracketleft" unicode="[" horiz-adv-x="312" 
d="M99 -55q-4 -20 0 -31t16.5 -17t33 -8t50.5 -4l-5 -26h-182l193 911h182l-5 -26q-30 -2 -52 -4t-37 -8t-24 -17.5t-13 -30.5z" />
    <glyph glyph-name="backslash" unicode="\" horiz-adv-x="377" 
d="M137 770h36l107 -911h-36z" />
    <glyph glyph-name="bracketright" unicode="]" horiz-adv-x="312" 
d="M240 684q4 19 0 30.5t-16.5 17.5t-33 8t-50.5 4l5 26h182l-193 -911h-182l5 26q30 2 52 4t37 8t24 17t13 31z" />
    <glyph glyph-name="asciicircum" unicode="^" horiz-adv-x="462" 
d="M466 480h-45l-89 256l-199 -256h-49l226 290h52z" />
    <glyph glyph-name="underscore" unicode="_" horiz-adv-x="390" 
d="M-45 -105l7 39h350l-8 -39h-349z" />
    <glyph glyph-name="grave" unicode="`" horiz-adv-x="355" 
d="M270 761l60 -169h-17l-143 164v5h100z" />
    <glyph glyph-name="a" unicode="a" horiz-adv-x="539" 
d="M157 53q30 0 63.5 27.5t67 79t64 125t54.5 166.5q-11 24 -31.5 37.5t-46.5 13.5q-44 0 -83.5 -32t-69.5 -84t-48 -117.5t-18 -132.5q0 -39 12 -61t36 -22zM311 58q0 11 3.5 31.5t9 44.5t12.5 49t14 45q-21 -47 -48 -90t-56.5 -76t-60 -52.5t-60.5 -19.5q-51 0 -77 39
t-26 107q0 79 27 150.5t69.5 125.5t96.5 86t108 32q33 0 56 -10t43 -30l72 48h20l-35 -112l-75 -310q-4 -14 -6.5 -26t-2.5 -18q0 -15 14 -15t35 16.5t55 58.5l15 -11q-46 -68 -78.5 -99.5t-67.5 -31.5q-29 0 -43 18.5t-14 49.5z" />
    <glyph glyph-name="b" unicode="b" horiz-adv-x="537" 
d="M161 280q21 47 51.5 92t64 80t67.5 56.5t64 21.5q51 0 79 -39t28 -107q0 -79 -29 -150.5t-74.5 -125.5t-101.5 -86t-110 -32q-29 0 -56.5 8.5t-50 24t-38.5 38t-22 50.5l147 589l-68 32l3 12l162 39h10zM376 467q-30 0 -69 -28.5t-77.5 -80.5t-71.5 -125t-51 -161
q9 -28 35.5 -40t52.5 -12q46 0 88 33t74 84.5t51 114.5t19 124q0 42 -11 66.5t-40 24.5z" />
    <glyph glyph-name="c" unicode="c" horiz-adv-x="413" 
d="M285 500q-38 0 -70.5 -30.5t-56 -78t-36.5 -104.5t-13 -110q0 -26 6 -50.5t18 -43.5t31 -30.5t45 -11.5q46 0 78 25.5t67 70.5l16 -13q-15 -24 -35 -48t-44 -43t-53 -31t-63 -12q-38 0 -67 13.5t-48 37t-28.5 55.5t-9.5 68q0 67 23 132.5t62.5 117.5t92 84t111.5 32
q55 0 84 -22.5t29 -60.5q0 -29 -16.5 -43.5t-42.5 -19.5h-6q0 24 -4 45.5t-12 37t-22.5 24.5t-35.5 9z" />
    <glyph glyph-name="d" unicode="d" horiz-adv-x="562" 
d="M158 53q30 0 65.5 27.5t71 79.5t67 125.5t53.5 165.5q-11 24 -32.5 37.5t-47.5 13.5q-46 0 -87 -33t-71.5 -85t-48.5 -115.5t-18 -124.5q0 -42 11 -66.5t37 -24.5zM476 700l-68 32l3 12l162 39h10l-166 -667q-4 -14 -6.5 -26t-2.5 -18q0 -15 14 -15t35 16.5t55 58.5
l15 -11q-46 -68 -78.5 -99.5t-67.5 -31.5q-29 0 -43 18.5t-14 49.5q0 11 4 34t10.5 49.5t14.5 53.5t15 47q-21 -47 -50.5 -92.5t-62 -81t-66 -57t-63.5 -21.5q-51 0 -77.5 39t-26.5 107q0 79 28 150.5t72 125.5t99 86t109 32q33 0 53.5 -8.5t40.5 -28.5z" />
    <glyph glyph-name="e" unicode="e" horiz-adv-x="424" 
d="M424 433q0 -48 -27 -81.5t-71.5 -57t-100.5 -39t-114 -27.5q-1 -11 -1.5 -21.5t-0.5 -20.5q0 -69 27.5 -106.5t76.5 -37.5q44 0 81 26t74 74l18 -13q-48 -69 -97 -104t-110 -35q-38 0 -67 13t-49 37t-30.5 57t-10.5 73q0 65 23 129.5t62 115.5t91 83t109 32
q60 0 88.5 -28.5t28.5 -68.5zM289 499q-32 0 -61 -21.5t-52 -56.5t-39 -80t-23 -92q115 26 172 69.5t57 119.5q0 24 -12.5 42.5t-41.5 18.5z" />
    <glyph glyph-name="f" unicode="f" horiz-adv-x="278" 
d="M44 495l83 19q11 57 32 106t49.5 85.5t64.5 57t78 20.5q48 0 73.5 -20.5t25.5 -53.5q0 -24 -16 -39.5t-42 -22.5h-11q0 20 -3 39.5t-10.5 34.5t-19 24t-27.5 9q-36 0 -63 -60t-39 -185h116l-9 -38h-113l-73 -320q-23 -101 -46.5 -169.5t-51.5 -110.5t-61.5 -60t-74.5 -18
q-38 0 -62.5 16.5t-24.5 46.5q0 27 17.5 40t37.5 18h9q4 -42 20 -67t39 -25q13 0 24.5 7t23.5 32.5t25.5 76.5t29.5 138l73 395h-80z" />
    <glyph glyph-name="g" unicode="g" horiz-adv-x="464" 
d="M430 384q0 -47 -17 -86t-46 -66.5t-68 -42.5t-83 -15q-30 0 -56 8q-18 -11 -29.5 -22.5t-11.5 -24.5q0 -14 12.5 -20t29.5 -11l151 -48q21 -7 41.5 -16.5t36.5 -24t26 -34t10 -46.5q0 -39 -20.5 -68.5t-56 -49t-82.5 -29.5t-99 -10q-48 0 -91.5 10t-77 28.5t-53 44
t-19.5 55.5q0 28 13.5 49t36 36.5t52.5 26t63 19.5q-12 8 -21 20.5t-9 31.5q0 29 20 49t60 40q-40 18 -60.5 53t-20.5 79q0 47 17 86t46 66.5t67.5 42.5t82.5 15q23 0 41.5 -4t35.5 -12l170 7l-13 -49h-49l-64 9q35 -40 35 -97zM107 38q-48 -18 -72.5 -45.5t-24.5 -66.5
q0 -53 46 -86t120 -33q90 0 133 27t43 68q0 32 -19 47.5t-56 29.5zM347 399q0 45 -16.5 75.5t-56.5 30.5q-27 0 -50.5 -16t-41.5 -43t-28 -63.5t-10 -77.5q0 -44 16 -75t56 -31q27 0 51 16t42 43t28 63.5t10 77.5z" />
    <glyph glyph-name="h" unicode="h" horiz-adv-x="544" 
d="M164 282q20 37 50.5 80.5t66.5 81t74.5 62t74.5 24.5q37 0 50.5 -19t13.5 -52q0 -10 -2 -22t-4 -22l-79 -299q-4 -14 -6.5 -26t-2.5 -18q0 -15 14 -15t35 16.5t55 58.5l15 -11q-46 -68 -78.5 -99.5t-67.5 -31.5q-29 0 -44 18.5t-15 49.5q0 17 3 37t11 49l74 275
q5 22 5 33q0 21 -18 21q-23 0 -59.5 -25.5t-74.5 -70t-71.5 -104t-50.5 -128.5l-36 -145h-87l175 700l-68 32l3 12l162 39h10z" />
    <glyph glyph-name="i" unicode="i" horiz-adv-x="272" 
d="M220 611q-25 0 -41.5 17t-16.5 41q0 26 18.5 45t44.5 19q25 0 41.5 -17t16.5 -41q0 -26 -18.5 -45t-44.5 -19zM123 444l-61 31l3 12l157 43h10l-104 -414q-4 -14 -6.5 -26t-2.5 -18q0 -15 14 -15t35 16.5t55 58.5l15 -11q-46 -68 -78.5 -99.5t-67.5 -31.5q-29 0 -44 18.5
t-15 49.5q0 17 3 37t11 49z" />
    <glyph glyph-name="j" unicode="j" horiz-adv-x="240" 
d="M146 138q-21 -96 -46 -162t-55 -106.5t-65 -58.5t-76 -18q-38 0 -62.5 16.5t-24.5 46.5q0 27 17.5 40t37.5 18h9q4 -42 20 -67t39 -25q13 0 23.5 7t20 25.5t19.5 52t22 86.5l102 451l-61 31l3 12l155 43h10zM213 611q-25 0 -41.5 17t-16.5 41q0 26 18.5 45t44.5 19
q25 0 41.5 -17t16.5 -41q0 -26 -18.5 -45t-44.5 -19z" />
    <glyph glyph-name="k" unicode="k" horiz-adv-x="503" 
d="M340 111q12 -31 20.5 -49.5t26.5 -18.5q17 0 35.5 19t44.5 52l15 -11q-17 -28 -32.5 -49t-30.5 -35.5t-31 -21.5t-35 -7q-40 0 -61 29t-38 77l-66 191l170 186q28 30 49 43.5t45 13.5q32 0 46.5 -18t14.5 -40q0 -24 -14 -40.5t-42 -27.5h-7q0 18 -8.5 35.5t-31.5 17.5
q-20 0 -35.5 -11t-38.5 -35l-78 -86zM10 0l176 700l-68 32l3 12l162 39h10l-195 -783h-88z" />
    <glyph glyph-name="l" unicode="l" horiz-adv-x="266" 
d="M122 116q-4 -14 -6.5 -26t-2.5 -18q0 -15 14 -15t35 16.5t55 58.5l15 -11q-46 -68 -78.5 -99.5t-67.5 -31.5q-29 0 -44 18.5t-15 49.5q0 17 3 37t11 49l138 556l-68 32l3 12l162 39h10z" />
    <glyph glyph-name="m" unicode="m" horiz-adv-x="822" 
d="M431 530q37 0 50 -18.5t13 -48.5q0 -25 -11 -71t-31 -110q20 37 49 80.5t63 81t71 62t73 24.5q37 0 50.5 -19t13.5 -52q0 -10 -2 -22t-4 -22l-79 -299q-4 -14 -6.5 -26t-2.5 -18q0 -15 14 -15t35 16.5t55 58.5l15 -11q-46 -68 -78.5 -99.5t-67.5 -31.5q-29 0 -44 18.5
t-15 49.5q0 17 3 37t11 49l74 275q5 22 5 33q0 21 -18 21q-23 0 -58.5 -26t-71.5 -71t-68 -104.5t-48 -126.5l-36 -145h-87l105 419q5 22 5 33q0 21 -18 21q-23 0 -58.5 -26t-71.5 -71t-68 -104.5t-48 -126.5l-36 -145h-87l111 444l-61 31l3 12l157 43h10l-66 -248
q20 37 49 80.5t63 81t71 62t73 24.5z" />
    <glyph glyph-name="n" unicode="n" horiz-adv-x="555" 
d="M175 282q20 37 50.5 80.5t66.5 81t74.5 62t74.5 24.5q37 0 50.5 -19t13.5 -52q0 -10 -2 -22t-4 -22l-79 -299q-4 -14 -6.5 -26t-2.5 -18q0 -15 14 -15t35 16.5t55 58.5l15 -11q-46 -68 -78.5 -99.5t-67.5 -31.5q-29 0 -44 18.5t-15 49.5q0 17 3 37t11 49l74 275
q5 22 5 33q0 21 -18 21q-23 0 -59.5 -25.5t-74.5 -70t-71.5 -104t-50.5 -128.5l-36 -145h-87l111 444l-61 31l3 12l157 43h10z" />
    <glyph glyph-name="o" unicode="o" horiz-adv-x="480" 
d="M190 18q38 0 71 33t57 83.5t38 109.5t14 111q0 31 -4 58t-13.5 47t-25 31t-37.5 11q-38 0 -71 -33t-57 -83.5t-38 -109.5t-14 -111q0 -32 4 -58.5t13.5 -46.5t24.5 -31t38 -11zM180 -10q-75 0 -116.5 48t-41.5 136q0 60 21 123t58 114.5t88 85t111 33.5q75 0 116.5 -48
t41.5 -136q0 -60 -21 -123t-58 -114.5t-88 -85t-111 -33.5z" />
    <glyph glyph-name="p" unicode="p" horiz-adv-x="548" 
d="M177 278q21 47 50.5 92.5t62 81t66 57t63.5 21.5q51 0 79 -39t28 -107q0 -79 -29 -150.5t-74.5 -125.5t-101.5 -86t-110 -32q-33 0 -56.5 10.5t-38.5 27.5l-39 -155q-2 -9 -3.5 -15.5t-1.5 -11.5q0 -9 4 -15t14.5 -9.5t28.5 -5.5t46 -2l-6 -26h-259l6 26q20 1 34 3.5
t23.5 7.5t15 14.5t9.5 24.5l145 580l-61 31l3 12l156 43h10zM387 467q-30 0 -66.5 -28.5t-73 -80t-69 -125t-52.5 -163.5q11 -24 32.5 -37.5t47.5 -13.5q46 0 88 33t74 84.5t51 115t19 124.5q0 42 -11 66.5t-40 24.5z" />
    <glyph glyph-name="q" unicode="q" horiz-adv-x="529" 
d="M348 -127q-2 -9 -3.5 -15.5t-1.5 -11.5q0 -18 15.5 -24t47.5 -8l-6 -26h-249l6 26q28 1 46 3.5t29 7.5t17 14.5t10 24.5l104 371q-21 -47 -50 -91.5t-60.5 -78.5t-64 -54.5t-62.5 -20.5q-51 0 -77.5 39t-26.5 107q0 79 28 150.5t72 125.5t99 86t109 32q67 0 107 -40
l72 48h20l-35 -112zM158 53q30 0 65.5 27.5t71 79.5t67 125.5t53.5 165.5q-11 24 -32.5 37.5t-47.5 13.5q-46 0 -87 -33t-71.5 -85t-48.5 -115.5t-18 -124.5q0 -42 11 -66.5t37 -24.5z" />
    <glyph glyph-name="r" unicode="r" horiz-adv-x="388" 
d="M191 343l-41 -123q33 68 63 125t58 98t55 64t53 23q25 0 38 -15.5t13 -38.5q0 -32 -17 -50t-46 -32h-8q0 17 -5 29t-23 12q-20 0 -49.5 -31t-61 -88t-61.5 -137t-51 -179h-87l111 444l-61 31l3 12l157 43h10z" />
    <glyph glyph-name="s" unicode="s" horiz-adv-x="373" 
d="M176 27q40 0 60 20t20 57q0 19 -13.5 39t-33.5 41.5t-43.5 44.5t-43.5 47.5t-33.5 51t-13.5 54.5q0 31 12.5 58t34.5 47t52.5 31.5t66.5 11.5q57 0 89.5 -23.5t32.5 -61.5q0 -20 -14.5 -34t-29.5 -21h-4q-17 43 -45 72.5t-70 29.5q-34 0 -51.5 -19t-17.5 -51
q0 -17 13.5 -36.5t34 -41t44.5 -45t44.5 -48.5t34 -51t13.5 -52q0 -37 -14 -66t-38 -49.5t-55 -31.5t-65 -11q-68 0 -108 31t-40 75q0 22 11.5 40t31.5 27h5q15 -60 48.5 -98t84.5 -38z" />
    <glyph glyph-name="t" unicode="t" horiz-adv-x="311" 
d="M130 130q-4 -16 -6 -28t-2 -22q0 -26 25 -26q28 0 54 20.5t69 69.5l15 -12q-52 -72 -94.5 -107t-84.5 -35q-33 0 -52 20t-19 54q0 17 2.5 35t8.5 41l83 331h-66l5 19q54 18 91.5 54.5t75.5 88.5h21l-31 -124h113l-10 -38h-112z" />
    <glyph glyph-name="u" unicode="u" horiz-adv-x="555" 
d="M418 515l93 7l-99 -406q-4 -14 -6.5 -26t-2.5 -18q0 -15 14 -15t35 16.5t55 58.5l15 -11q-46 -68 -78.5 -99.5t-67.5 -31.5q-29 0 -43 18.5t-14 49.5q0 11 3.5 32t9.5 47.5t13.5 55t14.5 55.5q-17 -37 -44.5 -82t-61.5 -84t-72 -65.5t-74 -26.5q-37 0 -55.5 22t-18.5 55
q0 22 8 51l84 326l-61 31l3 12l157 43h10l-105 -408q-4 -14 -6 -25t-2 -21q0 -29 27 -29q24 0 57 25.5t67.5 71t64.5 107t48 133.5z" />
    <glyph glyph-name="v" unicode="v" horiz-adv-x="453" 
d="M20 475l4 12l132 43h3l30 -450l118 147q41 51 59.5 89t18.5 81q0 40 -25.5 60t-70.5 15v8q13 16 35 33t51 17q23 0 38 -7.5t24 -20t12.5 -27.5t3.5 -30q0 -25 -7 -50t-22 -52.5t-37.5 -59t-53.5 -68.5l-187 -225h-31l-36 459z" />
    <glyph glyph-name="w" unicode="w" horiz-adv-x="682" 
d="M265 475l4 12l132 43h3l28 -447l109 144q38 51 55.5 89t17.5 81q0 40 -25.5 60t-70.5 15v8q13 16 35 33t51 17q23 0 38 -7.5t24 -20t12.5 -27.5t3.5 -30q0 -25 -7 -50t-21.5 -52.5t-36 -59t-50.5 -68.5l-176 -225h-31l-20 253l-194 -253h-31l-36 459l-59 26l4 12l132 43
h3l30 -443l148 194l-13 168z" />
    <glyph glyph-name="x" unicode="x" horiz-adv-x="541" 
d="M224 239l-51 209l-77 31l4 13l136 38h5l48 -202l75 112q28 42 53.5 66t61.5 24q29 0 45.5 -16.5t16.5 -42.5t-16.5 -42.5t-35.5 -24.5h-5q0 57 -41 57q-20 0 -36.5 -14t-39.5 -46l-71 -103l49 -205q5 -21 10 -31.5t21 -10.5q21 0 47.5 19t59.5 55l13 -15
q-27 -34 -49.5 -57t-42 -37t-37 -20t-33.5 -6q-32 0 -46.5 24t-24.5 66l-31 127l-83 -127q-26 -40 -52 -65t-64 -25q-29 0 -47 17t-18 45q0 29 16.5 45.5t31.5 24.5h5q-2 -34 12 -48t31 -14t36 12t45 47z" />
    <glyph glyph-name="y" unicode="y" horiz-adv-x="479" 
d="M19 475l4 12l132 43h3l78 -499q13 18 26.5 39t29.5 45q38 60 61.5 104t36 77t17 57t4.5 44q0 40 -25.5 60t-70.5 15v8q13 16 35 33t51 17q23 0 38 -7.5t24 -20t12.5 -27.5t3.5 -30q0 -47 -39 -128.5t-126 -217.5q-63 -99 -113 -159.5t-90 -92.5t-72 -42.5t-59 -10.5
q-17 0 -33 4.5t-28.5 13.5t-20 23.5t-7.5 34.5q0 23 13.5 40.5t33.5 23.5h4q0 -40 19 -62.5t53 -22.5q17 0 33.5 3t34.5 13t39.5 28.5t47.5 49.5l-89 506z" />
    <glyph glyph-name="z" unicode="z" horiz-adv-x="454" 
d="M187 441q-25 0 -36 -7.5t-24 -26.5l-31 -47l-16 6l70 188h15q2 -16 7.5 -27.5t21.5 -11.5h290v-11l-393 -380l79 -29q18 -6 30.5 -10.5t23.5 -7t22 -4t25 -1.5q38 0 65 21t50 73l18 -7q-16 -46 -30.5 -78t-32 -52.5t-38.5 -29.5t-50 -9q-14 0 -27.5 2.5t-27.5 7.5t-31 13
t-38 20l-85 50l-38 -91q-21 1 -29.5 10.5t-8.5 20.5q0 23 22 45l388 373h-191z" />
    <glyph glyph-name="braceleft" unicode="{" horiz-adv-x="341" 
d="M74 320q38 8 65.5 30t38.5 70l47 222q13 60 65.5 94t124.5 34l-4 -21q-45 -5 -73 -26t-39 -72l-48 -224q-11 -51 -41 -74t-84 -38q47 -15 67.5 -38t10.5 -74l-48 -224q-11 -51 8.5 -72t61.5 -26l-4 -21q-36 0 -64 9t-46 25.5t-25 40t-1 53.5l47 222q5 24 2.5 41t-11 29
t-22.5 19t-31 11z" />
    <glyph glyph-name="bar" unicode="|" horiz-adv-x="217" 
d="M46 -141h-37l193 911h37z" />
    <glyph glyph-name="braceright" unicode="}" horiz-adv-x="341" 
d="M292 310q-38 -8 -65.5 -30t-38.5 -70l-47 -222q-13 -60 -65.5 -94t-124.5 -34l4 21q44 5 72.5 26t39.5 72l48 224q11 51 40.5 74t83.5 38q-23 7 -40 16t-27 22t-12.5 30.5t2.5 43.5l48 224q5 25 2.5 42.5t-11.5 29t-24.5 18t-36.5 8.5l4 21q36 0 64 -9t46 -25.5t25 -40
t1 -53.5l-47 -222q-5 -24 -2.5 -41t11 -29t22.5 -19t31 -11z" />
    <glyph glyph-name="asciitilde" unicode="~" horiz-adv-x="451" 
d="M424 359q-21 -62 -47 -92.5t-73 -30.5q-24 0 -46 10.5t-43.5 23.5t-42 23.5t-41.5 10.5q-25 0 -40.5 -15t-32.5 -47l-25 6q21 61 47 92t73 31q24 0 46 -10.5t43.5 -23.5t42 -23.5t41.5 -10.5q25 0 40.5 15t32.5 47z" />
    <glyph glyph-name="uni00A0" unicode="&#xa0;" horiz-adv-x="200" 
 />
    <glyph glyph-name="exclamdown" unicode="&#xa1;" horiz-adv-x="238" 
d="M147 383h15l-65 -499h-121zM250 527q0 -29 -20 -49t-49 -20t-49 20t-20 49t20 49t49 20t49 -20t20 -49z" />
    <glyph glyph-name="cent" unicode="&#xa2;" horiz-adv-x="459" 
d="M175 -10q-40 1 -69 14.5t-48 37t-28 55.5t-9 68q0 62 22 124.5t59.5 114t88 88t107.5 46.5l22 99h27l-22 -96q3 0 6.5 0.5t6.5 0.5q57 0 88 -22.5t31 -60.5q0 -29 -18.5 -43.5t-47.5 -19.5h-6q5 46 -10.5 78.5t-55.5 36.5l-106 -470h6q49 0 84.5 25.5t74.5 70.5l17 -13
q-16 -23 -36 -45t-44 -40.5t-52.5 -31.5t-60.5 -16l-23 -105h-27zM109 177q0 -50 18.5 -85.5t59.5 -46.5l104 465q-35 -8 -68 -41t-58.5 -80t-40.5 -103t-15 -109z" />
    <glyph glyph-name="sterling" unicode="&#xa3;" horiz-adv-x="630" 
d="M96 384h118l35 115q31 103 86.5 158t150.5 55q66 0 105 -28.5t39 -75.5q0 -23 -12.5 -43t-31.5 -27h-65q4 11 7 27.5t3 34.5q0 14 -2 29.5t-8 28.5t-16.5 21.5t-28.5 8.5q-23 0 -40.5 -15t-32 -42t-27.5 -63.5t-28 -78.5l-36 -105h179l-8 -31h-181l-36 -107
q-9 -26 -16.5 -45.5t-12.5 -33.5q-6 -17 -11 -29q45 -24 97 -44.5t112 -20.5q48 0 72.5 18.5t24.5 59.5q0 18 -7.5 33t-24.5 29l9 10q26 -14 48 -39.5t22 -66.5q0 -63 -38.5 -95t-99.5 -32q-38 0 -72.5 12t-64.5 28.5t-54.5 34.5t-42.5 30q-19 -44 -53.5 -74.5t-83.5 -30.5
q-51 0 -75.5 27.5t-24.5 61.5q0 46 30.5 74t76.5 28q18 0 36.5 -4.5t33.5 -11.5l57 188h-115zM51 27q29 0 50 25.5t37 81.5q-27 18 -61 18q-37 0 -55.5 -20.5t-18.5 -52.5q0 -22 13.5 -37t34.5 -15z" />
    <glyph glyph-name="currency" unicode="&#xa4;" horiz-adv-x="577" 
d="M128 571l63 -74q27 21 60 33t71 12q35 0 65 -12t53 -33l82 74l23 -26l-83 -74q14 -20 21.5 -45t7.5 -54q0 -44 -16.5 -84t-45.5 -71l65 -74l-28 -24l-64 74q-27 -21 -59.5 -33t-70.5 -12q-36 0 -66 12t-53 33l-81 -74l-23 26l83 73q-29 43 -29 100q0 44 16.5 83.5
t45.5 71.5l-65 74zM276 180q38 0 71 15.5t57 41.5t37.5 60t13.5 72q0 31 -10 57t-28.5 44.5t-43.5 29t-55 10.5q-38 0 -71 -15.5t-57 -41.5t-37.5 -60.5t-13.5 -71.5q0 -31 10 -57t28.5 -44.5t43.5 -29t55 -10.5z" />
    <glyph glyph-name="yen" unicode="&#xa5;" horiz-adv-x="592" 
d="M321 223h173l-7 -32h-173l-19 -91q-5 -23 -3 -36t12 -20.5t28.5 -10.5t45.5 -6l-6 -27h-285l6 27q31 3 51 7t32 11.5t18.5 20.5t11.5 34l19 91h-172l7 32h171l13 59l-8 24h-158l6 31h142l-96 301q-6 20 -18.5 27t-32.5 10l6 27h247l-6 -27q-59 -2 -78.5 -10.5
t-19.5 -29.5q0 -12 2.5 -21t6.5 -22l86 -269l200 268q8 10 18 25t10 27q0 17 -17.5 23.5t-63.5 8.5l6 27h200l-6 -27q-21 -3 -37 -10t-30 -27l-228 -301h143l-6 -31h-161l-17 -23z" />
    <glyph glyph-name="brokenbar" unicode="&#xa6;" horiz-adv-x="217" 
d="M159 394h-37l80 376h37zM46 -141h-37l79 376h37z" />
    <glyph glyph-name="section" unicode="&#xa7;" horiz-adv-x="518" 
d="M412 142q0 -62 -19.5 -123.5t-58 -110.5t-95 -79.5t-129.5 -30.5q-37 0 -62.5 7.5t-41.5 20t-23.5 28.5t-7.5 33q0 31 18 46.5t36 22.5h52q-5 -9 -6.5 -19t-1.5 -18q0 -12 3 -28.5t12 -31.5t24 -25t39 -10q39 0 63.5 32.5t24.5 82.5q0 31 -10.5 61.5t-26 62t-33.5 65
t-33.5 70.5t-26 79t-10.5 91q0 62 19.5 123.5t58 110.5t94.5 79.5t130 30.5q37 0 62.5 -7.5t41.5 -20t23.5 -28.5t7.5 -33q0 -31 -18 -46.5t-36 -22.5h-52q5 9 6.5 19t1.5 18q0 12 -3 28.5t-12 31.5t-24 25t-39 10q-39 0 -63.5 -32.5t-24.5 -82.5q0 -31 10.5 -61.5t26 -62
t33.5 -65t33.5 -70.5t26 -79t10.5 -91zM129 368q0 -45 10.5 -85.5t26 -77t33.5 -70t33.5 -66t26 -65t10.5 -65.5q0 -31 -10 -52t-21 -35q32 21 58.5 51.5t45.5 68t29.5 81t10.5 89.5q0 45 -10.5 85.5t-26 77t-33.5 70t-33.5 66t-26 65t-10.5 65.5q0 31 10 52t21 35
q-32 -21 -58.5 -51.5t-45.5 -68t-29.5 -81t-10.5 -89.5z" />
    <glyph glyph-name="dieresis" unicode="&#xa8;" 
d="M154 608q-26 0 -42 16.5t-16 41.5q0 26 18.5 45t44.5 19t42 -16.5t16 -41.5q0 -26 -18.5 -45t-44.5 -19zM320 608q-26 0 -42 16.5t-16 41.5q0 26 18.5 45t44.5 19t42 -16.5t16 -41.5q0 -26 -18.5 -45t-44.5 -19z" />
    <glyph glyph-name="copyright" unicode="&#xa9;" horiz-adv-x="796" 
d="M392 -10q-74 0 -135.5 25.5t-106 70.5t-69.5 106.5t-25 132.5q0 81 29.5 151.5t80.5 123t120.5 82.5t150.5 30q74 0 135.5 -25.5t106 -70.5t69.5 -106.5t25 -132.5q0 -81 -29.5 -151.5t-80.5 -123t-120.5 -82.5t-150.5 -30zM393 142q-38 0 -70 11.5t-55 33.5t-36 53
t-13 69q0 52 19.5 98.5t53.5 81t79 55t96 20.5q36 0 68 -10.5t54 -30.5l-20 -93h-17q-5 50 -22.5 78t-59.5 28q-36 0 -67.5 -20t-55 -52.5t-36.5 -73.5t-13 -82q0 -61 24.5 -99t73.5 -38q43 0 77 30t63 87h20l-30 -108q-29 -17 -61 -27.5t-72 -10.5zM392 10q76 0 142 28.5
t115 78t76.5 116.5t27.5 144q0 67 -23.5 124.5t-65.5 100t-100 66.5t-127 24q-77 0 -142.5 -28.5t-114.5 -78t-76.5 -116.5t-27.5 -144q0 -67 23.5 -124.5t65.5 -100t100 -66.5t127 -24z" />
    <glyph glyph-name="ordfeminine" unicode="&#xaa;" horiz-adv-x="385" 
d="M161 410q17 0 38 18t42.5 50.5t41.5 78.5t35 103q-8 13 -21 20.5t-32 7.5q-25 0 -49 -20t-42.5 -52t-30 -73t-11.5 -84q0 -20 6.5 -34.5t22.5 -14.5zM390 718h15l-22 -71l-55 -201q-2 -9 -4 -16.5t-2 -12.5q0 -9 9 -9t23.5 11t34.5 37l14 -9q-29 -44 -56.5 -64t-51.5 -20
q-18 0 -28 12t-10 32q0 7 2 19.5t6 27.5t8 31t9 29h-2q-14 -31 -31 -58.5t-36 -48t-39.5 -32.5t-39.5 -12q-35 0 -54 25.5t-19 70.5q0 51 18.5 97t48 80.5t65.5 55t72 20.5q44 0 71 -27z" />
    <glyph glyph-name="guillemotleft" unicode="&#xab;" horiz-adv-x="441" 
d="M42 277l233 192h28l-168 -195l83 -195h-28l-149 192zM195 277l233 192h28l-168 -195l83 -195h-28l-149 192z" />
    <glyph glyph-name="registered" unicode="&#xae;" horiz-adv-x="555" 
d="M315 590l-21 -102h25q26 0 44 15t18 42q0 17 -11 31t-36 14h-19zM353 608q22 0 36.5 -6t23 -14.5t11.5 -18.5t3 -19q0 -19 -7 -32t-18.5 -21.5t-24.5 -13t-25 -6.5l30 -56q8 -16 20 -24.5t24 -8.5l-3 -15h-54q-6 5 -15.5 17t-16.5 26l-27 55h-20l-12 -58
q-3 -14 1.5 -19.5t21.5 -5.5l-3 -15h-104l4 15q17 0 25 5t11 19l32 152q3 14 0 19t-25 7l4 18h108zM307 257q-47 0 -86.5 16t-68 44.5t-44 67.5t-15.5 84q0 51 18.5 95.5t51 77t77 51.5t95.5 19q47 0 86.5 -16.5t68 -45t44 -67t15.5 -83.5q0 -51 -18.5 -95.5t-51 -77
t-77 -51.5t-95.5 -19zM307 277q47 0 87.5 17.5t70.5 47.5t47 70.5t17 87.5q0 41 -14.5 76t-40 61t-61 40.5t-78.5 14.5q-47 0 -87.5 -17.5t-70.5 -47.5t-47 -70.5t-17 -87.5q0 -41 14.5 -76t40 -61t61 -40.5t78.5 -14.5z" />
    <glyph glyph-name="macron" unicode="&#xaf;" 
d="M129 672h251l-10 -49h-251z" />
    <glyph glyph-name="degree" unicode="&#xb0;" horiz-adv-x="263" 
d="M170 509q42 0 65.5 29.5t23.5 71.5q0 32 -18 52t-48 20q-42 0 -65.5 -29.5t-23.5 -71.5q0 -32 18 -52t48 -20zM169 479q-45 0 -73 28t-28 74q0 26 9.5 50t26 42t40 28.5t50.5 10.5q45 0 73 -28t28 -74q0 -26 -9.5 -50t-26 -42t-40 -28.5t-50.5 -10.5z" />
    <glyph glyph-name="plusminus" unicode="&#xb1;" horiz-adv-x="564" 
d="M367 602l-32 -149h196l-11 -49h-195l-31 -148h-49l31 148h-194l11 49h193l32 149h49zM38 195h438l-10 -49h-438z" />
    <glyph glyph-name="twosuperior" unicode="&#xb2;" horiz-adv-x="379" 
d="M238 374q19 0 31.5 2t23.5 8t21.5 18t25.5 32h18l-47 -126h-267l3 13q78 64 124 107.5t70.5 74t32 53.5t7.5 47q0 26 -17 42.5t-47 16.5q-31 0 -57 -16.5t-44 -36.5l-10 13q10 16 24.5 32t33.5 29t41 20.5t47 7.5q48 0 77 -26t29 -71q0 -35 -15.5 -61.5t-44 -53
t-67.5 -56t-87 -69.5h94z" />
    <glyph glyph-name="threesuperior" unicode="&#xb3;" horiz-adv-x="361" 
d="M246 531q45 -6 72 -31t27 -67q0 -35 -14.5 -60.5t-37 -42.5t-51.5 -25t-57 -8q-35 0 -59 7.5t-39.5 19t-22.5 26.5t-7 30q0 17 9.5 29t26.5 19h39q-6 -23 -6 -43q0 -26 14.5 -46t44.5 -20q38 0 62.5 26t24.5 71q0 37 -18.5 61t-54.5 24q-9 0 -16 -0.5t-18 -2.5l-3 16
q23 7 45 17t39.5 22t28 27.5t10.5 34.5q0 20 -12 33.5t-38 13.5q-29 0 -53.5 -14t-45.5 -35l-13 12q22 38 57.5 62.5t85.5 24.5q45 0 70 -20.5t25 -55.5q0 -23 -11 -40.5t-28 -30.5t-37.5 -21t-38.5 -13z" />
    <glyph glyph-name="acute" unicode="&#xb4;" 
d="M348 761l-1 -5l-178 -164h-17l90 169h106z" />
    <glyph glyph-name="paragraph" unicode="&#xb6;" horiz-adv-x="620" 
d="M303 224q-56 0 -97 15.5t-68 42t-40 61.5t-13 75q0 62 22 114.5t63.5 90t100.5 58.5t134 21h273l-7 -29q-49 -2 -78.5 -16.5t-39.5 -60.5l-168 -793h-37l184 867h-97l-184 -867h-37zM398 670q-53 0 -91.5 -24.5t-64 -62t-37.5 -81.5t-12 -84q0 -31 6 -60t19.5 -51.5
t36 -36.5t55.5 -14z" />
    <glyph glyph-name="periodcentered" unicode="&#xb7;" horiz-adv-x="206" 
d="M30 302q0 31 21 52t52 21t52 -21t21 -52t-21 -52t-52 -21t-52 21t-21 52z" />
    <glyph glyph-name="cedilla" unicode="&#xb8;" 
d="M156 -195q61 0 94 15.5t33 40.5q0 21 -23.5 30.5t-65.5 11.5l58 105h25l-30 -56q41 -1 68.5 -17.5t27.5 -51.5q0 -26 -13.5 -45.5t-37.5 -32.5t-57.5 -19.5t-72.5 -6.5z" />
    <glyph glyph-name="onesuperior" unicode="&#xb9;" horiz-adv-x="319" 
d="M295 712l-70 -331q-7 -32 9 -40t65 -10l-5 -23h-244l5 23q25 1 41 3t26.5 7t16 13.5t8.5 23.5l51 243h-87l4 17l21 4q23 4 42 9t35.5 12.5t31.5 19t30 29.5h20z" />
    <glyph glyph-name="ordmasculine" unicode="&#xba;" horiz-adv-x="326" 
d="M187 390q23 0 42.5 20t34 51t22.5 66.5t8 67.5q0 39 -10 65t-38 26q-23 0 -42.5 -20t-34 -51t-22.5 -67t-8 -67q0 -39 10 -65t38 -26zM178 364q-48 0 -78.5 31.5t-30.5 88.5q0 38 14.5 78.5t40 73.5t59 54.5t72.5 21.5q48 0 78.5 -31.5t30.5 -88.5q0 -38 -14.5 -78.5
t-40 -73.5t-59 -54.5t-72.5 -21.5z" />
    <glyph glyph-name="guillemotright" unicode="&#xbb;" horiz-adv-x="441" 
d="M407 271l-233 -192h-28l168 195l-83 195h28l149 -192zM254 271l-233 -192h-28l168 195l-83 195h28l149 -192z" />
    <glyph glyph-name="onequarter" unicode="&#xbc;" horiz-adv-x="787" 
d="M556 134l39 182l-189 -182h150zM463 0l4 23q20 1 33 3t21 6t12.5 11.5t7.5 20.5l9 43h-193l4 17l287 279h39l-57 -269h79l-6 -27h-79l-9 -43q-5 -26 6.5 -32t49.5 -9l-4 -23h-204zM697 712h40l-597 -722h-40zM295 712l-70 -331q-7 -32 9 -40t65 -10l-5 -23h-244l5 23
q25 1 41 3t26.5 7t16 13.5t8.5 23.5l51 243h-87l4 17l21 4q23 4 42 9t35.5 12.5t31.5 19t30 29.5h20z" />
    <glyph glyph-name="onehalf" unicode="&#xbd;" horiz-adv-x="797" 
d="M697 712h40l-597 -722h-40zM295 712l-70 -331q-7 -32 9 -40t65 -10l-5 -23h-244l5 23q25 1 41 3t26.5 7t16 13.5t8.5 23.5l51 243h-87l4 17l21 4q23 4 42 9t35.5 12.5t31.5 19t30 29.5h20zM613 66q19 0 31.5 2t23.5 8t21.5 18t25.5 32h18l-47 -126h-267l3 13
q78 64 124 107.5t70.5 74t32 53.5t7.5 47q0 26 -17 42.5t-47 16.5q-31 0 -57 -16.5t-44 -36.5l-10 13q10 16 24.5 32t33.5 29t41 20.5t47 7.5q48 0 77 -26t29 -71q0 -35 -15.5 -61.5t-44 -53t-67.5 -56t-87 -69.5h94z" />
    <glyph glyph-name="threequarters" unicode="&#xbe;" horiz-adv-x="787" 
d="M556 134l39 182l-189 -182h150zM463 0l4 23q20 1 33 3t21 6t12.5 11.5t7.5 20.5l9 43h-193l4 17l287 279h39l-57 -269h79l-6 -27h-79l-9 -43q-5 -26 6.5 -32t49.5 -9l-4 -23h-204zM697 712h40l-597 -722h-40zM246 531q45 -6 72 -31t27 -67q0 -35 -14.5 -60.5t-37 -42.5
t-51.5 -25t-57 -8q-35 0 -59 7.5t-39.5 19t-22.5 26.5t-7 30q0 17 9.5 29t26.5 19h39q-6 -23 -6 -43q0 -26 14.5 -46t44.5 -20q38 0 62.5 26t24.5 71q0 37 -18.5 61t-54.5 24q-9 0 -16 -0.5t-18 -2.5l-3 16q23 7 45 17t39.5 22t28 27.5t10.5 34.5q0 20 -12 33.5t-38 13.5
q-29 0 -53.5 -14t-45.5 -35l-13 12q22 38 57.5 62.5t85.5 24.5q45 0 70 -20.5t25 -55.5q0 -23 -11 -40.5t-28 -30.5t-37.5 -21t-38.5 -13z" />
    <glyph glyph-name="questiondown" unicode="&#xbf;" horiz-adv-x="420" 
d="M173 144q-51 -29 -80 -60.5t-29 -87.5q0 -44 24.5 -71.5t72.5 -27.5q45 0 71 29t26 80q0 16 -1.5 28t-3.5 20h70q10 -8 17 -23t7 -34q0 -28 -14 -51t-38.5 -39t-59 -24.5t-74.5 -8.5q-42 0 -75.5 11t-57 30.5t-36.5 47.5t-13 63q0 36 11 62t30.5 47t46.5 38.5t59 35.5
q26 15 48.5 29.5t39 31.5t26 37t9.5 45q0 9 -2.5 19.5t-5.5 21.5h16q18 -18 28.5 -43t10.5 -51q0 -52 -33 -87t-90 -68zM361 527q0 -29 -20 -49t-49 -20t-49 20t-20 49t20 49t49 20t49 -20t20 -49z" />
    <glyph glyph-name="Agrave" unicode="&#xc0;" horiz-adv-x="696" 
d="M463 246h-284l-82 -135q-20 -34 -20 -50q0 -18 20.5 -25t62.5 -9l-5 -27h-203l5 27q22 2 38.5 9.5t28.5 27.5l358 583l-14 64h96l128 -647q4 -20 17.5 -27.5t33.5 -9.5l-5 -27h-251l5 27q21 1 39 2.5t32 7.5t22 17t8 31q0 11 -3 25zM198 278h259l-62 323zM402 900
l46 -149h-17l-134 144v5h105z" />
    <glyph glyph-name="Aacute" unicode="&#xc1;" horiz-adv-x="696" 
d="M463 246h-284l-82 -135q-20 -34 -20 -50q0 -18 20.5 -25t62.5 -9l-5 -27h-203l5 27q22 2 38.5 9.5t28.5 27.5l358 583l-14 64h96l128 -647q4 -20 17.5 -27.5t33.5 -9.5l-5 -27h-251l5 27q21 1 39 2.5t32 7.5t22 17t8 31q0 11 -3 25zM198 278h259l-62 323zM593 900l-1 -5
l-160 -144h-17l66 149h112z" />
    <glyph glyph-name="Acircumflex" unicode="&#xc2;" horiz-adv-x="696" 
d="M463 246h-284l-82 -135q-20 -34 -20 -50q0 -18 20.5 -25t62.5 -9l-5 -27h-203l5 27q22 2 38.5 9.5t28.5 27.5l358 583l-14 64h96l128 -647q4 -20 17.5 -27.5t33.5 -9.5l-5 -27h-251l5 27q21 1 39 2.5t32 7.5t22 17t8 31q0 11 -3 25zM198 278h259l-62 323zM576 751h-24
l-95 94l-141 -94h-28l147 159h68z" />
    <glyph glyph-name="Atilde" unicode="&#xc3;" horiz-adv-x="696" 
d="M463 246h-284l-82 -135q-20 -34 -20 -50q0 -18 20.5 -25t62.5 -9l-5 -27h-203l5 27q22 2 38.5 9.5t28.5 27.5l358 583l-14 64h96l128 -647q4 -20 17.5 -27.5t33.5 -9.5l-5 -27h-251l5 27q21 1 39 2.5t32 7.5t22 17t8 31q0 11 -3 25zM198 278h259l-62 323zM502 754
q-19 0 -34.5 8.5t-30.5 19t-30 19.5t-32 9q-22 0 -38 -13t-36 -44l-17 10q18 33 31.5 54.5t26.5 34.5t27 18.5t31 5.5q19 0 34.5 -9t30.5 -19.5t29.5 -19t31.5 -8.5q22 0 38.5 13t35.5 44l18 -10q-18 -33 -31.5 -54.5t-26.5 -34.5t-27 -18.5t-31 -5.5z" />
    <glyph glyph-name="Adieresis" unicode="&#xc4;" horiz-adv-x="696" 
d="M463 246h-284l-82 -135q-20 -34 -20 -50q0 -18 20.5 -25t62.5 -9l-5 -27h-203l5 27q22 2 38.5 9.5t28.5 27.5l358 583l-14 64h96l128 -647q4 -20 17.5 -27.5t33.5 -9.5l-5 -27h-251l5 27q21 1 39 2.5t32 7.5t22 17t8 31q0 11 -3 25zM198 278h259l-62 323zM355 760
q-26 0 -42 16.5t-16 41.5q0 26 18.5 45t44.5 19t42 -16.5t16 -41.5q0 -26 -18.5 -45t-44.5 -19zM541 760q-26 0 -42 16.5t-16 41.5q0 26 18.5 45t44.5 19t42 -16.5t16 -41.5q0 -26 -18.5 -45t-44.5 -19z" />
    <glyph glyph-name="Aring" unicode="&#xc5;" horiz-adv-x="696" 
d="M463 246h-284l-82 -135q-20 -34 -20 -50q0 -18 20.5 -25t62.5 -9l-5 -27h-203l5 27q22 2 38.5 9.5t28.5 27.5l358 583l-14 64h96l128 -647q4 -20 17.5 -27.5t33.5 -9.5l-5 -27h-251l5 27q21 1 39 2.5t32 7.5t22 17t8 31q0 11 -3 25zM198 278h259l-62 323zM507 829
q0 23 -13.5 36t-35.5 13q-29 0 -45 -20t-16 -47q0 -23 13.5 -36t35.5 -13q29 0 45 20t16 47zM365 811q0 41 27 68t66 27t60 -21.5t21 -55.5q0 -41 -27 -68t-66 -27t-60 21.5t-21 55.5z" />
    <glyph glyph-name="AE" unicode="&#xc6;" horiz-adv-x="979" 
d="M349 0l6 27q28 3 46 6.5t29.5 11t17 20t10.5 33.5l31 148h-262l-112 -135q-12 -15 -19 -26.5t-7 -23.5q0 -18 20.5 -25t62.5 -9l-5 -27h-215l5 27q22 2 40.5 11.5t42.5 38.5l478 570q-13 11 -38.5 17.5t-52.5 10.5l6 27h578l-31 -167h-20q-8 40 -17.5 66t-23 41t-32 21
t-44.5 6h-169l-62 -290h149q32 0 52 22.5t38 67.5h27l-45 -213h-27q2 45 -9 67.5t-43 22.5h-149l-52 -245q-9 -41 11.5 -54.5t72.5 -13.5h82q27 0 49.5 8t45 26t47.5 46t57 67h24l-68 -180h-525zM254 278h242l84 392z" />
    <glyph glyph-name="Ccedilla" unicode="&#xc7;" horiz-adv-x="644" 
d="M208 -195q61 0 94 15.5t33 40.5q0 21 -23.5 30.5t-65.5 11.5l48 88q-122 6 -185.5 79.5t-63.5 194.5q0 79 29.5 159t83.5 144t129.5 104t167.5 40q67 0 119.5 -15.5t89.5 -43.5l-31 -146h-27q2 85 -37.5 128.5t-113.5 43.5q-77 0 -134.5 -40t-96.5 -101.5t-58.5 -134.5
t-19.5 -138q0 -116 42 -179t126 -63q85 0 145 49t105 150h30l-51 -178q-50 -26 -103.5 -39.5t-120.5 -14.5l-20 -38q41 -1 68.5 -17.5t27.5 -51.5q0 -26 -13.5 -45.5t-37.5 -32.5t-57.5 -19.5t-72.5 -6.5z" />
    <glyph glyph-name="Egrave" unicode="&#xc8;" horiz-adv-x="614" 
d="M-26 0l6 27q28 3 46 6.5t29.5 11t17 20t10.5 33.5l108 506q5 23 3.5 36t-10.5 19.5t-25 9.5t-41 6l6 27h522l-31 -167h-20q-8 40 -17.5 66t-23 41t-32 21t-44.5 6h-179l-62 -290h159q32 0 52 22.5t38 67.5h27l-45 -213h-27q2 45 -9 67.5t-43 22.5h-159l-52 -245
q-9 -41 11.5 -54.5t72.5 -13.5h92q27 0 49.5 8t45 26t47.5 46t57 67h24l-68 -180h-535zM394 900l46 -149h-17l-134 144v5h105z" />
    <glyph glyph-name="Eacute" unicode="&#xc9;" horiz-adv-x="614" 
d="M-26 0l6 27q28 3 46 6.5t29.5 11t17 20t10.5 33.5l108 506q5 23 3.5 36t-10.5 19.5t-25 9.5t-41 6l6 27h522l-31 -167h-20q-8 40 -17.5 66t-23 41t-32 21t-44.5 6h-179l-62 -290h159q32 0 52 22.5t38 67.5h27l-45 -213h-27q2 45 -9 67.5t-43 22.5h-159l-52 -245
q-9 -41 11.5 -54.5t72.5 -13.5h92q27 0 49.5 8t45 26t47.5 46t57 67h24l-68 -180h-535zM587 900l-1 -5l-160 -144h-17l66 149h112z" />
    <glyph glyph-name="Ecircumflex" unicode="&#xca;" horiz-adv-x="614" 
d="M-26 0l6 27q28 3 46 6.5t29.5 11t17 20t10.5 33.5l108 506q5 23 3.5 36t-10.5 19.5t-25 9.5t-41 6l6 27h522l-31 -167h-20q-8 40 -17.5 66t-23 41t-32 21t-44.5 6h-179l-62 -290h159q32 0 52 22.5t38 67.5h27l-45 -213h-27q2 45 -9 67.5t-43 22.5h-159l-52 -245
q-9 -41 11.5 -54.5t72.5 -13.5h92q27 0 49.5 8t45 26t47.5 46t57 67h24l-68 -180h-535zM568 751h-24l-95 94l-141 -94h-28l147 159h68z" />
    <glyph glyph-name="Edieresis" unicode="&#xcb;" horiz-adv-x="614" 
d="M-26 0l6 27q28 3 46 6.5t29.5 11t17 20t10.5 33.5l108 506q5 23 3.5 36t-10.5 19.5t-25 9.5t-41 6l6 27h522l-31 -167h-20q-8 40 -17.5 66t-23 41t-32 21t-44.5 6h-179l-62 -290h159q32 0 52 22.5t38 67.5h27l-45 -213h-27q2 45 -9 67.5t-43 22.5h-159l-52 -245
q-9 -41 11.5 -54.5t72.5 -13.5h92q27 0 49.5 8t45 26t47.5 46t57 67h24l-68 -180h-535zM347 760q-26 0 -42 16.5t-16 41.5q0 26 18.5 45t44.5 19t42 -16.5t16 -41.5q0 -26 -18.5 -45t-44.5 -19zM533 760q-26 0 -42 16.5t-16 41.5q0 26 18.5 45t44.5 19t42 -16.5t16 -41.5
q0 -26 -18.5 -45t-44.5 -19z" />
    <glyph glyph-name="Igrave" unicode="&#xcc;" horiz-adv-x="326" 
d="M191 604q5 23 3.5 36t-10.5 19.5t-25 9.5t-41 6l6 27h270l-6 -27q-29 -3 -46.5 -6.5t-29 -11t-17.5 -20t-10 -33.5l-108 -506q-5 -23 -3.5 -36t10.5 -19.5t25 -9.5t41 -6l-6 -27h-270l6 27q28 3 46 6.5t29.5 11t17 20t10.5 33.5zM234 900l46 -149h-17l-134 144v5h105z
" />
    <glyph glyph-name="Iacute" unicode="&#xcd;" horiz-adv-x="326" 
d="M191 604q5 23 3.5 36t-10.5 19.5t-25 9.5t-41 6l6 27h270l-6 -27q-29 -3 -46.5 -6.5t-29 -11t-17.5 -20t-10 -33.5l-108 -506q-5 -23 -3.5 -36t10.5 -19.5t25 -9.5t41 -6l-6 -27h-270l6 27q28 3 46 6.5t29.5 11t17 20t10.5 33.5zM437 900l-1 -5l-160 -144h-17l66 149h112
z" />
    <glyph glyph-name="Icircumflex" unicode="&#xce;" horiz-adv-x="326" 
d="M191 604q5 23 3.5 36t-10.5 19.5t-25 9.5t-41 6l6 27h270l-6 -27q-29 -3 -46.5 -6.5t-29 -11t-17.5 -20t-10 -33.5l-108 -506q-5 -23 -3.5 -36t10.5 -19.5t25 -9.5t41 -6l-6 -27h-270l6 27q28 3 46 6.5t29.5 11t17 20t10.5 33.5zM408 751h-24l-95 94l-141 -94h-28
l147 159h68z" />
    <glyph glyph-name="Idieresis" unicode="&#xcf;" horiz-adv-x="326" 
d="M191 604q5 23 3.5 36t-10.5 19.5t-25 9.5t-41 6l6 27h270l-6 -27q-29 -3 -46.5 -6.5t-29 -11t-17.5 -20t-10 -33.5l-108 -506q-5 -23 -3.5 -36t10.5 -19.5t25 -9.5t41 -6l-6 -27h-270l6 27q28 3 46 6.5t29.5 11t17 20t10.5 33.5zM190 760q-26 0 -42 16.5t-16 41.5
q0 26 18.5 45t44.5 19t42 -16.5t16 -41.5q0 -26 -18.5 -45t-44.5 -19zM376 760q-26 0 -42 16.5t-16 41.5q0 26 18.5 45t44.5 19t42 -16.5t16 -41.5q0 -26 -18.5 -45t-44.5 -19z" />
    <glyph glyph-name="Eth" unicode="&#xd0;" horiz-adv-x="700" 
d="M58 380h85l48 224q5 23 3.5 36t-10.5 19.5t-25 9.5t-41 6l6 27h253q74 0 132.5 -19.5t99 -56.5t62 -89t21.5 -117q0 -97 -33.5 -174.5t-92.5 -132t-138.5 -84t-170.5 -29.5h-283l6 27q28 3 46 6.5t29.5 11t17 20t10.5 33.5l53 248h-85zM268 33q69 0 128 27.5t102.5 77.5
t68 121.5t24.5 160.5q0 58 -13.5 104t-41 78t-70.5 49.5t-102 17.5h-65l-62 -289h146l-7 -34h-146l-51 -242q-10 -44 8.5 -57.5t65.5 -13.5h15z" />
    <glyph glyph-name="Ntilde" unicode="&#xd1;" horiz-adv-x="729" 
d="M656 604q8 42 -13.5 55t-80.5 16l6 27h237l-6 -27q-29 -3 -46.5 -6.5t-29 -11t-17.5 -20t-10 -33.5l-129 -608h-25l-318 581l-101 -479q-8 -42 13.5 -55t80.5 -16l-6 -27h-237l6 27q28 3 46 6.5t29.5 11t17 20t10.5 33.5l110 516q-9 17 -17 28.5t-17 18.5t-21.5 10.5
t-31.5 3.5l6 27h151l298 -556zM539 754q-19 0 -34.5 8.5t-30.5 19t-30 19.5t-32 9q-22 0 -38 -13t-36 -44l-17 10q18 33 31.5 54.5t26.5 34.5t27 18.5t31 5.5q19 0 34.5 -9t30.5 -19.5t29.5 -19t31.5 -8.5q22 0 38.5 13t35.5 44l18 -10q-18 -33 -31.5 -54.5t-26.5 -34.5
t-27 -18.5t-31 -5.5z" />
    <glyph glyph-name="Ograve" unicode="&#xd2;" horiz-adv-x="696" 
d="M428 712q66 0 115 -22t81 -59t48 -86.5t16 -104.5q0 -77 -27 -157t-77.5 -145t-121 -106.5t-157.5 -41.5q-66 0 -115 22t-81 59t-48 86.5t-16 104.5q0 77 27 157t77.5 145t121 106.5t157.5 41.5zM428 679q-67 0 -119.5 -40t-88.5 -101.5t-55 -135t-19 -140.5q0 -50 9 -94
t28 -76t49.5 -50.5t72.5 -18.5q67 0 119.5 40t88.5 101.5t55 135t19 140.5q0 50 -9 93.5t-28 76t-49.5 51t-72.5 18.5zM424 900l46 -149h-17l-134 144v5h105z" />
    <glyph glyph-name="Oacute" unicode="&#xd3;" horiz-adv-x="696" 
d="M428 712q66 0 115 -22t81 -59t48 -86.5t16 -104.5q0 -77 -27 -157t-77.5 -145t-121 -106.5t-157.5 -41.5q-66 0 -115 22t-81 59t-48 86.5t-16 104.5q0 77 27 157t77.5 145t121 106.5t157.5 41.5zM428 679q-67 0 -119.5 -40t-88.5 -101.5t-55 -135t-19 -140.5q0 -50 9 -94
t28 -76t49.5 -50.5t72.5 -18.5q67 0 119.5 40t88.5 101.5t55 135t19 140.5q0 50 -9 93.5t-28 76t-49.5 51t-72.5 18.5zM627 900l-1 -5l-160 -144h-17l66 149h112z" />
    <glyph glyph-name="Ocircumflex" unicode="&#xd4;" horiz-adv-x="696" 
d="M428 712q66 0 115 -22t81 -59t48 -86.5t16 -104.5q0 -77 -27 -157t-77.5 -145t-121 -106.5t-157.5 -41.5q-66 0 -115 22t-81 59t-48 86.5t-16 104.5q0 77 27 157t77.5 145t121 106.5t157.5 41.5zM428 679q-67 0 -119.5 -40t-88.5 -101.5t-55 -135t-19 -140.5q0 -50 9 -94
t28 -76t49.5 -50.5t72.5 -18.5q67 0 119.5 40t88.5 101.5t55 135t19 140.5q0 50 -9 93.5t-28 76t-49.5 51t-72.5 18.5zM598 751h-24l-95 94l-141 -94h-28l147 159h68z" />
    <glyph glyph-name="Otilde" unicode="&#xd5;" horiz-adv-x="696" 
d="M428 712q66 0 115 -22t81 -59t48 -86.5t16 -104.5q0 -77 -27 -157t-77.5 -145t-121 -106.5t-157.5 -41.5q-66 0 -115 22t-81 59t-48 86.5t-16 104.5q0 77 27 157t77.5 145t121 106.5t157.5 41.5zM428 679q-67 0 -119.5 -40t-88.5 -101.5t-55 -135t-19 -140.5q0 -50 9 -94
t28 -76t49.5 -50.5t72.5 -18.5q67 0 119.5 40t88.5 101.5t55 135t19 140.5q0 50 -9 93.5t-28 76t-49.5 51t-72.5 18.5zM524 754q-19 0 -34.5 8.5t-30.5 19t-30 19.5t-32 9q-22 0 -38 -13t-36 -44l-17 10q18 33 31.5 54.5t26.5 34.5t27 18.5t31 5.5q19 0 34.5 -9t30.5 -19.5
t29.5 -19t31.5 -8.5q22 0 38.5 13t35.5 44l18 -10q-18 -33 -31.5 -54.5t-26.5 -34.5t-27 -18.5t-31 -5.5z" />
    <glyph glyph-name="Odieresis" unicode="&#xd6;" horiz-adv-x="696" 
d="M428 712q66 0 115 -22t81 -59t48 -86.5t16 -104.5q0 -77 -27 -157t-77.5 -145t-121 -106.5t-157.5 -41.5q-66 0 -115 22t-81 59t-48 86.5t-16 104.5q0 77 27 157t77.5 145t121 106.5t157.5 41.5zM428 679q-67 0 -119.5 -40t-88.5 -101.5t-55 -135t-19 -140.5q0 -50 9 -94
t28 -76t49.5 -50.5t72.5 -18.5q67 0 119.5 40t88.5 101.5t55 135t19 140.5q0 50 -9 93.5t-28 76t-49.5 51t-72.5 18.5zM377 760q-26 0 -42 16.5t-16 41.5q0 26 18.5 45t44.5 19t42 -16.5t16 -41.5q0 -26 -18.5 -45t-44.5 -19zM563 760q-26 0 -42 16.5t-16 41.5q0 26 18.5 45
t44.5 19t42 -16.5t16 -41.5q0 -26 -18.5 -45t-44.5 -19z" />
    <glyph glyph-name="multiply" unicode="&#xd7;" horiz-adv-x="488" 
d="M109 509l41 34l111 -143l174 144l28 -37l-174 -143l113 -141l-41 -34l-113 142l-173 -144l-28 37l173 143z" />
    <glyph glyph-name="Oslash" unicode="&#xd8;" horiz-adv-x="696" 
d="M616 639q36 -38 54 -89.5t18 -109.5q0 -77 -27 -157t-77.5 -145t-121 -106.5t-157.5 -41.5q-51 0 -92 13.5t-72 36.5l-58 -73l-26 17l61 77q-37 38 -55 89.5t-18 111.5q0 77 27 157t77.5 145t121 106.5t157.5 41.5q52 0 93 -14t72 -38l49 62l26 -17zM428 679
q-67 0 -119.5 -40t-88.5 -101.5t-55 -135t-19 -140.5q0 -39 5.5 -74t16.5 -64l383 483q-19 34 -49.5 53t-73.5 19zM587 440q0 77 -21 136l-383 -484q19 -32 49 -50.5t73 -18.5q67 0 119.5 40t88.5 101.5t55 135t19 140.5z" />
    <glyph glyph-name="Ugrave" unicode="&#xd9;" horiz-adv-x="703" 
d="M646 604q5 23 3.5 36t-10.5 19.5t-25 9.5t-41 6l6 27h215l-6 -27q-29 -3 -46.5 -6.5t-29 -11t-17.5 -20t-10 -33.5l-78 -367q-27 -126 -101.5 -186.5t-178.5 -60.5q-60 0 -109 18t-80.5 53t-42.5 87t3 120l71 336q5 23 3.5 36t-10.5 19.5t-25 9.5t-41 6l6 27h270l-6 -27
q-29 -3 -46.5 -6.5t-29 -11t-17.5 -20t-10 -33.5l-72 -340q-11 -50 -5.5 -91t24.5 -70.5t52 -45.5t78 -16q99 0 153.5 50.5t77.5 162.5zM450 900l46 -149h-17l-134 144v5h105z" />
    <glyph glyph-name="Uacute" unicode="&#xda;" horiz-adv-x="703" 
d="M646 604q5 23 3.5 36t-10.5 19.5t-25 9.5t-41 6l6 27h215l-6 -27q-29 -3 -46.5 -6.5t-29 -11t-17.5 -20t-10 -33.5l-78 -367q-27 -126 -101.5 -186.5t-178.5 -60.5q-60 0 -109 18t-80.5 53t-42.5 87t3 120l71 336q5 23 3.5 36t-10.5 19.5t-25 9.5t-41 6l6 27h270l-6 -27
q-29 -3 -46.5 -6.5t-29 -11t-17.5 -20t-10 -33.5l-72 -340q-11 -50 -5.5 -91t24.5 -70.5t52 -45.5t78 -16q99 0 153.5 50.5t77.5 162.5zM635 900l-1 -5l-160 -144h-17l66 149h112z" />
    <glyph glyph-name="Ucircumflex" unicode="&#xdb;" horiz-adv-x="703" 
d="M646 604q5 23 3.5 36t-10.5 19.5t-25 9.5t-41 6l6 27h215l-6 -27q-29 -3 -46.5 -6.5t-29 -11t-17.5 -20t-10 -33.5l-78 -367q-27 -126 -101.5 -186.5t-178.5 -60.5q-60 0 -109 18t-80.5 53t-42.5 87t3 120l71 336q5 23 3.5 36t-10.5 19.5t-25 9.5t-41 6l6 27h270l-6 -27
q-29 -3 -46.5 -6.5t-29 -11t-17.5 -20t-10 -33.5l-72 -340q-11 -50 -5.5 -91t24.5 -70.5t52 -45.5t78 -16q99 0 153.5 50.5t77.5 162.5zM624 751h-24l-95 94l-141 -94h-28l147 159h68z" />
    <glyph glyph-name="Udieresis" unicode="&#xdc;" horiz-adv-x="703" 
d="M646 604q5 23 3.5 36t-10.5 19.5t-25 9.5t-41 6l6 27h215l-6 -27q-29 -3 -46.5 -6.5t-29 -11t-17.5 -20t-10 -33.5l-78 -367q-27 -126 -101.5 -186.5t-178.5 -60.5q-60 0 -109 18t-80.5 53t-42.5 87t3 120l71 336q5 23 3.5 36t-10.5 19.5t-25 9.5t-41 6l6 27h270l-6 -27
q-29 -3 -46.5 -6.5t-29 -11t-17.5 -20t-10 -33.5l-72 -340q-11 -50 -5.5 -91t24.5 -70.5t52 -45.5t78 -16q99 0 153.5 50.5t77.5 162.5zM403 760q-26 0 -42 16.5t-16 41.5q0 26 18.5 45t44.5 19t42 -16.5t16 -41.5q0 -26 -18.5 -45t-44.5 -19zM589 760q-26 0 -42 16.5
t-16 41.5q0 26 18.5 45t44.5 19t42 -16.5t16 -41.5q0 -26 -18.5 -45t-44.5 -19z" />
    <glyph glyph-name="Yacute" unicode="&#xdd;" horiz-adv-x="621" 
d="M321 100q-5 -23 -3 -36t12 -20.5t28.5 -10.5t45.5 -6l-6 -27h-285l6 27q31 3 51 7t32 11.5t18.5 20.5t11.5 34l38 182l-124 356q-7 20 -19 27t-32 10l6 27h247l-6 -27q-59 -2 -78.5 -10.5t-19.5 -29.5q0 -12 2.5 -21t6.5 -22l96 -269l210 268q8 10 18 25t10 27
q0 17 -17.5 23.5t-63.5 8.5l6 27h200l-6 -27q-21 -3 -36.5 -10.5t-30.5 -26.5l-279 -355zM607 900l-1 -5l-160 -144h-17l66 149h112z" />
    <glyph glyph-name="Thorn" unicode="&#xde;" horiz-adv-x="596" 
d="M196 183h66q49 0 90 12.5t71 38.5t46.5 64.5t16.5 91.5q0 62 -39 102t-119 40h-58zM276 564l78 1q59 1 102 -13t70.5 -38t41 -56t13.5 -68q0 -57 -24 -101.5t-66.5 -75.5t-101.5 -47t-129 -16h-71l-9 -39q-5 -23 -3 -38t14 -24t35.5 -13.5t60.5 -6.5l-6 -29h-307l6 27
q28 3 46 6.5t29.5 11t17 20t10.5 33.5l108 506q5 23 3.5 36t-10.5 19.5t-25 9.5t-41 6l6 27h270l-6 -27q-29 -3 -46.5 -6.5t-28.5 -11t-17 -20t-11 -33.5z" />
    <glyph glyph-name="germandbls" unicode="&#xdf;" horiz-adv-x="564" 
d="M384 27q38 0 58 19.5t20 57.5q0 37 -25.5 74t-56 73t-56 71t-25.5 68q0 15 4.5 27.5t14 25.5t25.5 27t39 33q38 31 53.5 72.5t15.5 79.5q0 41 -23 70t-66 29q-30 0 -50.5 -13t-35 -36.5t-24 -55t-17.5 -67.5l-95 -431q-23 -101 -46.5 -169.5t-51.5 -110.5t-61.5 -60
t-74.5 -18q-38 0 -62.5 16.5t-24.5 46.5q0 27 17.5 40t37.5 18h9q4 -42 20 -67t39 -25q13 0 24.5 7t23.5 32.5t25.5 76.5t29.5 138l73 395h-80l6 24l83 19q11 54 32.5 103t53.5 86t73.5 58.5t93.5 21.5q70 0 112 -35t42 -89q0 -30 -11 -54t-28.5 -44t-39.5 -37t-44 -33
t-32 -30t-10 -35q0 -24 24 -55t53 -66t53 -74t24 -81q0 -37 -13.5 -66.5t-37 -50.5t-55.5 -32t-68 -11q-68 0 -108 31t-40 75q0 22 11.5 40t31.5 27h5q15 -60 49 -98t86 -38z" />
    <glyph glyph-name="agrave" unicode="&#xe0;" horiz-adv-x="539" 
d="M157 53q30 0 63.5 27.5t67 79t64 125t54.5 166.5q-11 24 -31.5 37.5t-46.5 13.5q-44 0 -83.5 -32t-69.5 -84t-48 -117.5t-18 -132.5q0 -39 12 -61t36 -22zM311 58q0 11 3.5 31.5t9 44.5t12.5 49t14 45q-21 -47 -48 -90t-56.5 -76t-60 -52.5t-60.5 -19.5q-51 0 -77 39
t-26 107q0 79 27 150.5t69.5 125.5t96.5 86t108 32q33 0 56 -10t43 -30l72 48h20l-35 -112l-75 -310q-4 -14 -6.5 -26t-2.5 -18q0 -15 14 -15t35 16.5t55 58.5l15 -11q-46 -68 -78.5 -99.5t-67.5 -31.5q-29 0 -43 18.5t-14 49.5zM321 761l60 -169h-17l-143 164v5h100z" />
    <glyph glyph-name="aacute" unicode="&#xe1;" horiz-adv-x="539" 
d="M157 53q30 0 63.5 27.5t67 79t64 125t54.5 166.5q-11 24 -31.5 37.5t-46.5 13.5q-44 0 -83.5 -32t-69.5 -84t-48 -117.5t-18 -132.5q0 -39 12 -61t36 -22zM311 58q0 11 3.5 31.5t9 44.5t12.5 49t14 45q-21 -47 -48 -90t-56.5 -76t-60 -52.5t-60.5 -19.5q-51 0 -77 39
t-26 107q0 79 27 150.5t69.5 125.5t96.5 86t108 32q33 0 56 -10t43 -30l72 48h20l-35 -112l-75 -310q-4 -14 -6.5 -26t-2.5 -18q0 -15 14 -15t35 16.5t55 58.5l15 -11q-46 -68 -78.5 -99.5t-67.5 -31.5q-29 0 -43 18.5t-14 49.5zM548 761l-1 -5l-178 -164h-17l90 169h106z
" />
    <glyph glyph-name="acircumflex" unicode="&#xe2;" horiz-adv-x="539" 
d="M157 53q30 0 63.5 27.5t67 79t64 125t54.5 166.5q-11 24 -31.5 37.5t-46.5 13.5q-44 0 -83.5 -32t-69.5 -84t-48 -117.5t-18 -132.5q0 -39 12 -61t36 -22zM311 58q0 11 3.5 31.5t9 44.5t12.5 49t14 45q-21 -47 -48 -90t-56.5 -76t-60 -52.5t-60.5 -19.5q-51 0 -77 39
t-26 107q0 79 27 150.5t69.5 125.5t96.5 86t108 32q33 0 56 -10t43 -30l72 48h20l-35 -112l-75 -310q-4 -14 -6.5 -26t-2.5 -18q0 -15 14 -15t35 16.5t55 58.5l15 -11q-46 -68 -78.5 -99.5t-67.5 -31.5q-29 0 -43 18.5t-14 49.5zM498 592h-24l-95 108l-141 -108h-28l147 173
h68z" />
    <glyph glyph-name="atilde" unicode="&#xe3;" horiz-adv-x="539" 
d="M157 53q30 0 63.5 27.5t67 79t64 125t54.5 166.5q-11 24 -31.5 37.5t-46.5 13.5q-44 0 -83.5 -32t-69.5 -84t-48 -117.5t-18 -132.5q0 -39 12 -61t36 -22zM311 58q0 11 3.5 31.5t9 44.5t12.5 49t14 45q-21 -47 -48 -90t-56.5 -76t-60 -52.5t-60.5 -19.5q-51 0 -77 39
t-26 107q0 79 27 150.5t69.5 125.5t96.5 86t108 32q33 0 56 -10t43 -30l72 48h20l-35 -112l-75 -310q-4 -14 -6.5 -26t-2.5 -18q0 -15 14 -15t35 16.5t55 58.5l15 -11q-46 -68 -78.5 -99.5t-67.5 -31.5q-29 0 -43 18.5t-14 49.5zM437 604q-19 0 -34.5 8.5t-30.5 19t-30 19.5
t-32 9q-22 0 -38 -13t-36 -44l-17 10q18 33 31.5 54.5t26.5 34.5t27 18.5t31 5.5q19 0 34.5 -9t30.5 -19.5t29.5 -19t31.5 -8.5q22 0 38.5 13t35.5 44l18 -10q-18 -33 -31.5 -54.5t-26.5 -34.5t-27 -18.5t-31 -5.5z" />
    <glyph glyph-name="adieresis" unicode="&#xe4;" horiz-adv-x="539" 
d="M157 53q30 0 63.5 27.5t67 79t64 125t54.5 166.5q-11 24 -31.5 37.5t-46.5 13.5q-44 0 -83.5 -32t-69.5 -84t-48 -117.5t-18 -132.5q0 -39 12 -61t36 -22zM311 58q0 11 3.5 31.5t9 44.5t12.5 49t14 45q-21 -47 -48 -90t-56.5 -76t-60 -52.5t-60.5 -19.5q-51 0 -77 39
t-26 107q0 79 27 150.5t69.5 125.5t96.5 86t108 32q33 0 56 -10t43 -30l72 48h20l-35 -112l-75 -310q-4 -14 -6.5 -26t-2.5 -18q0 -15 14 -15t35 16.5t55 58.5l15 -11q-46 -68 -78.5 -99.5t-67.5 -31.5q-29 0 -43 18.5t-14 49.5zM291 608q-26 0 -42 16.5t-16 41.5
q0 26 18.5 45t44.5 19t42 -16.5t16 -41.5q0 -26 -18.5 -45t-44.5 -19zM457 608q-26 0 -42 16.5t-16 41.5q0 26 18.5 45t44.5 19t42 -16.5t16 -41.5q0 -26 -18.5 -45t-44.5 -19z" />
    <glyph glyph-name="aring" unicode="&#xe5;" horiz-adv-x="539" 
d="M157 53q30 0 63.5 27.5t67 79t64 125t54.5 166.5q-11 24 -31.5 37.5t-46.5 13.5q-44 0 -83.5 -32t-69.5 -84t-48 -117.5t-18 -132.5q0 -39 12 -61t36 -22zM311 58q0 11 3.5 31.5t9 44.5t12.5 49t14 45q-21 -47 -48 -90t-56.5 -76t-60 -52.5t-60.5 -19.5q-51 0 -77 39
t-26 107q0 79 27 150.5t69.5 125.5t96.5 86t108 32q33 0 56 -10t43 -30l72 48h20l-35 -112l-75 -310q-4 -14 -6.5 -26t-2.5 -18q0 -15 14 -15t35 16.5t55 58.5l15 -11q-46 -68 -78.5 -99.5t-67.5 -31.5q-29 0 -43 18.5t-14 49.5zM428 661q0 23 -13.5 36t-35.5 13
q-29 0 -45 -20t-16 -47q0 -23 13.5 -36t35.5 -13q29 0 45 20t16 47zM286 643q0 41 27 68t66 27t60 -21.5t21 -55.5q0 -41 -27 -68t-66 -27t-60 21.5t-21 55.5z" />
    <glyph glyph-name="ae" unicode="&#xe6;" horiz-adv-x="715" 
d="M335 530q42 0 69 -16.5t47 -42.5q33 28 70 43.5t77 15.5q60 0 88.5 -28.5t28.5 -68.5q0 -48 -27 -81.5t-71.5 -57t-100.5 -39t-114 -27.5q-1 -11 -1.5 -21.5t-0.5 -20.5q0 -69 27.5 -106.5t76.5 -37.5q44 0 81 26t74 74l18 -13q-48 -69 -97 -104t-110 -35
q-72 0 -112.5 45.5t-44.5 120.5q-20 -35 -43 -65.5t-47.5 -53t-49 -35t-48.5 -12.5q-51 0 -77 39t-26 107q0 79 27 150.5t71 125.5t100 86t115 32zM157 53q35 0 76.5 39.5t81.5 113.5q7 68 36.5 131t74.5 110q-14 26 -37.5 40.5t-53.5 14.5q-47 0 -88 -32t-71.5 -84
t-48.5 -117.5t-18 -132.5q0 -39 12 -61t36 -22zM580 499q-32 0 -61 -21.5t-52 -56.5t-39 -80t-23 -92q115 26 172 69.5t57 119.5q0 24 -12.5 42.5t-41.5 18.5z" />
    <glyph glyph-name="ccedilla" unicode="&#xe7;" horiz-adv-x="413" 
d="M55 -195q61 0 94 15.5t33 40.5q0 21 -23.5 30.5t-65.5 11.5l49 90q-60 11 -90 58.5t-30 112.5q0 67 23 132.5t62.5 117.5t92 84t111.5 32q55 0 84 -22.5t29 -60.5q0 -29 -16.5 -43.5t-42.5 -19.5h-6q0 24 -4 45.5t-12 37t-22.5 24.5t-35.5 9q-38 0 -70.5 -30.5t-56 -78
t-36.5 -104.5t-13 -110q0 -26 6 -50.5t18 -43.5t31 -30.5t45 -11.5q46 0 78 25.5t67 70.5l16 -13q-15 -24 -35 -48t-44 -43t-53 -31t-63 -12h-9l-20 -38q41 -1 68.5 -17.5t27.5 -51.5q0 -26 -13.5 -45.5t-37.5 -32.5t-57.5 -19.5t-72.5 -6.5z" />
    <glyph glyph-name="egrave" unicode="&#xe8;" horiz-adv-x="424" 
d="M424 433q0 -48 -27 -81.5t-71.5 -57t-100.5 -39t-114 -27.5q-1 -11 -1.5 -21.5t-0.5 -20.5q0 -69 27.5 -106.5t76.5 -37.5q44 0 81 26t74 74l18 -13q-48 -69 -97 -104t-110 -35q-38 0 -67 13t-49 37t-30.5 57t-10.5 73q0 65 23 129.5t62 115.5t91 83t109 32
q60 0 88.5 -28.5t28.5 -68.5zM289 499q-32 0 -61 -21.5t-52 -56.5t-39 -80t-23 -92q115 26 172 69.5t57 119.5q0 24 -12.5 42.5t-41.5 18.5zM291 761l60 -169h-17l-143 164v5h100z" />
    <glyph glyph-name="eacute" unicode="&#xe9;" horiz-adv-x="424" 
d="M424 433q0 -48 -27 -81.5t-71.5 -57t-100.5 -39t-114 -27.5q-1 -11 -1.5 -21.5t-0.5 -20.5q0 -69 27.5 -106.5t76.5 -37.5q44 0 81 26t74 74l18 -13q-48 -69 -97 -104t-110 -35q-38 0 -67 13t-49 37t-30.5 57t-10.5 73q0 65 23 129.5t62 115.5t91 83t109 32
q60 0 88.5 -28.5t28.5 -68.5zM289 499q-32 0 -61 -21.5t-52 -56.5t-39 -80t-23 -92q115 26 172 69.5t57 119.5q0 24 -12.5 42.5t-41.5 18.5zM494 761l-1 -5l-178 -164h-17l90 169h106z" />
    <glyph glyph-name="ecircumflex" unicode="&#xea;" horiz-adv-x="424" 
d="M424 433q0 -48 -27 -81.5t-71.5 -57t-100.5 -39t-114 -27.5q-1 -11 -1.5 -21.5t-0.5 -20.5q0 -69 27.5 -106.5t76.5 -37.5q44 0 81 26t74 74l18 -13q-48 -69 -97 -104t-110 -35q-38 0 -67 13t-49 37t-30.5 57t-10.5 73q0 65 23 129.5t62 115.5t91 83t109 32
q60 0 88.5 -28.5t28.5 -68.5zM289 499q-32 0 -61 -21.5t-52 -56.5t-39 -80t-23 -92q115 26 172 69.5t57 119.5q0 24 -12.5 42.5t-41.5 18.5zM470 592h-24l-95 108l-141 -108h-28l147 173h68z" />
    <glyph glyph-name="edieresis" unicode="&#xeb;" horiz-adv-x="424" 
d="M424 433q0 -48 -27 -81.5t-71.5 -57t-100.5 -39t-114 -27.5q-1 -11 -1.5 -21.5t-0.5 -20.5q0 -69 27.5 -106.5t76.5 -37.5q44 0 81 26t74 74l18 -13q-48 -69 -97 -104t-110 -35q-38 0 -67 13t-49 37t-30.5 57t-10.5 73q0 65 23 129.5t62 115.5t91 83t109 32
q60 0 88.5 -28.5t28.5 -68.5zM289 499q-32 0 -61 -21.5t-52 -56.5t-39 -80t-23 -92q115 26 172 69.5t57 119.5q0 24 -12.5 42.5t-41.5 18.5zM248 608q-26 0 -42 16.5t-16 41.5q0 26 18.5 45t44.5 19t42 -16.5t16 -41.5q0 -26 -18.5 -45t-44.5 -19zM414 608q-26 0 -42 16.5
t-16 41.5q0 26 18.5 45t44.5 19t42 -16.5t16 -41.5q0 -26 -18.5 -45t-44.5 -19z" />
    <glyph glyph-name="igrave" unicode="&#xec;" horiz-adv-x="272" 
d="M123 444l-61 31l3 12l157 43h10l-104 -414q-4 -14 -6.5 -26t-2.5 -18q0 -15 14 -15t35 16.5t55 58.5l15 -11q-46 -68 -78.5 -99.5t-67.5 -31.5q-29 0 -44 18.5t-15 49.5q0 17 3 37t11 49zM152 761l60 -169h-17l-143 164v5h100z" />
    <glyph glyph-name="iacute" unicode="&#xed;" horiz-adv-x="272" 
d="M123 444l-61 31l3 12l157 43h10l-104 -414q-4 -14 -6.5 -26t-2.5 -18q0 -15 14 -15t35 16.5t55 58.5l15 -11q-46 -68 -78.5 -99.5t-67.5 -31.5q-29 0 -44 18.5t-15 49.5q0 17 3 37t11 49zM369 761l-1 -5l-178 -164h-17l90 169h106z" />
    <glyph glyph-name="icircumflex" unicode="&#xee;" horiz-adv-x="272" 
d="M123 444l-61 31l3 12l157 43h10l-104 -414q-4 -14 -6.5 -26t-2.5 -18q0 -15 14 -15t35 16.5t55 58.5l15 -11q-46 -68 -78.5 -99.5t-67.5 -31.5q-29 0 -44 18.5t-15 49.5q0 17 3 37t11 49zM343 592h-24l-95 108l-141 -108h-28l147 173h68z" />
    <glyph glyph-name="idieresis" unicode="&#xef;" horiz-adv-x="272" 
d="M123 444l-61 31l3 12l157 43h10l-104 -414q-4 -14 -6.5 -26t-2.5 -18q0 -15 14 -15t35 16.5t55 58.5l15 -11q-46 -68 -78.5 -99.5t-67.5 -31.5q-29 0 -44 18.5t-15 49.5q0 17 3 37t11 49zM121 608q-26 0 -42 16.5t-16 41.5q0 26 18.5 45t44.5 19t42 -16.5t16 -41.5
q0 -26 -18.5 -45t-44.5 -19zM287 608q-26 0 -42 16.5t-16 41.5q0 26 18.5 45t44.5 19t42 -16.5t16 -41.5q0 -26 -18.5 -45t-44.5 -19z" />
    <glyph glyph-name="eth" unicode="&#xf0;" horiz-adv-x="480" 
d="M132 613l140 53q-24 29 -55 53.5t-72 46.5l14 17q91 -36 158 -100l113 44l11 -28l-101 -39q57 -63 87.5 -140.5t30.5 -160.5q0 -68 -21.5 -134t-59 -118t-88 -84.5t-108.5 -32.5q-71 0 -115 45.5t-44 139.5q0 59 20.5 122t58 114.5t89.5 85t115 33.5q25 0 44 -8
q-9 32 -23 61.5t-34 58.5l-149 -57zM370 359q0 31 -2.5 62t-8.5 62q-11 8 -24.5 13.5t-35.5 5.5q-41 0 -76 -33t-60 -82.5t-39 -108.5t-14 -110q0 -73 19 -111.5t60 -38.5q39 0 72.5 33.5t57.5 84.5t37.5 110.5t13.5 112.5z" />
    <glyph glyph-name="ntilde" unicode="&#xf1;" horiz-adv-x="555" 
d="M175 282q20 37 50.5 80.5t66.5 81t74.5 62t74.5 24.5q37 0 50.5 -19t13.5 -52q0 -10 -2 -22t-4 -22l-79 -299q-4 -14 -6.5 -26t-2.5 -18q0 -15 14 -15t35 16.5t55 58.5l15 -11q-46 -68 -78.5 -99.5t-67.5 -31.5q-29 0 -44 18.5t-15 49.5q0 17 3 37t11 49l74 275
q5 22 5 33q0 21 -18 21q-23 0 -59.5 -25.5t-74.5 -70t-71.5 -104t-50.5 -128.5l-36 -145h-87l111 444l-61 31l3 12l157 43h10zM422 604q-19 0 -34.5 8.5t-30.5 19t-30 19.5t-32 9q-22 0 -38 -13t-36 -44l-17 10q18 33 31.5 54.5t26.5 34.5t27 18.5t31 5.5q19 0 34.5 -9
t30.5 -19.5t29.5 -19t31.5 -8.5q22 0 38.5 13t35.5 44l18 -10q-18 -33 -31.5 -54.5t-26.5 -34.5t-27 -18.5t-31 -5.5z" />
    <glyph glyph-name="ograve" unicode="&#xf2;" horiz-adv-x="480" 
d="M190 18q38 0 71 33t57 83.5t38 109.5t14 111q0 31 -4 58t-13.5 47t-25 31t-37.5 11q-38 0 -71 -33t-57 -83.5t-38 -109.5t-14 -111q0 -32 4 -58.5t13.5 -46.5t24.5 -31t38 -11zM180 -10q-75 0 -116.5 48t-41.5 136q0 60 21 123t58 114.5t88 85t111 33.5q75 0 116.5 -48
t41.5 -136q0 -60 -21 -123t-58 -114.5t-88 -85t-111 -33.5zM270 761l60 -169h-17l-143 164v5h100z" />
    <glyph glyph-name="oacute" unicode="&#xf3;" horiz-adv-x="480" 
d="M190 18q38 0 71 33t57 83.5t38 109.5t14 111q0 31 -4 58t-13.5 47t-25 31t-37.5 11q-38 0 -71 -33t-57 -83.5t-38 -109.5t-14 -111q0 -32 4 -58.5t13.5 -46.5t24.5 -31t38 -11zM180 -10q-75 0 -116.5 48t-41.5 136q0 60 21 123t58 114.5t88 85t111 33.5q75 0 116.5 -48
t41.5 -136q0 -60 -21 -123t-58 -114.5t-88 -85t-111 -33.5zM487 761l-1 -5l-178 -164h-17l90 169h106z" />
    <glyph glyph-name="ocircumflex" unicode="&#xf4;" horiz-adv-x="480" 
d="M190 18q38 0 71 33t57 83.5t38 109.5t14 111q0 31 -4 58t-13.5 47t-25 31t-37.5 11q-38 0 -71 -33t-57 -83.5t-38 -109.5t-14 -111q0 -32 4 -58.5t13.5 -46.5t24.5 -31t38 -11zM180 -10q-75 0 -116.5 48t-41.5 136q0 60 21 123t58 114.5t88 85t111 33.5q75 0 116.5 -48
t41.5 -136q0 -60 -21 -123t-58 -114.5t-88 -85t-111 -33.5zM454 592h-24l-95 108l-141 -108h-28l147 173h68z" />
    <glyph glyph-name="otilde" unicode="&#xf5;" horiz-adv-x="480" 
d="M190 18q38 0 71 33t57 83.5t38 109.5t14 111q0 31 -4 58t-13.5 47t-25 31t-37.5 11q-38 0 -71 -33t-57 -83.5t-38 -109.5t-14 -111q0 -32 4 -58.5t13.5 -46.5t24.5 -31t38 -11zM180 -10q-75 0 -116.5 48t-41.5 136q0 60 21 123t58 114.5t88 85t111 33.5q75 0 116.5 -48
t41.5 -136q0 -60 -21 -123t-58 -114.5t-88 -85t-111 -33.5zM386 604q-19 0 -34.5 8.5t-30.5 19t-30 19.5t-32 9q-22 0 -38 -13t-36 -44l-17 10q18 33 31.5 54.5t26.5 34.5t27 18.5t31 5.5q19 0 34.5 -9t30.5 -19.5t29.5 -19t31.5 -8.5q22 0 38.5 13t35.5 44l18 -10
q-18 -33 -31.5 -54.5t-26.5 -34.5t-27 -18.5t-31 -5.5z" />
    <glyph glyph-name="odieresis" unicode="&#xf6;" horiz-adv-x="480" 
d="M190 18q38 0 71 33t57 83.5t38 109.5t14 111q0 31 -4 58t-13.5 47t-25 31t-37.5 11q-38 0 -71 -33t-57 -83.5t-38 -109.5t-14 -111q0 -32 4 -58.5t13.5 -46.5t24.5 -31t38 -11zM180 -10q-75 0 -116.5 48t-41.5 136q0 60 21 123t58 114.5t88 85t111 33.5q75 0 116.5 -48
t41.5 -136q0 -60 -21 -123t-58 -114.5t-88 -85t-111 -33.5zM249 608q-26 0 -42 16.5t-16 41.5q0 26 18.5 45t44.5 19t42 -16.5t16 -41.5q0 -26 -18.5 -45t-44.5 -19zM415 608q-26 0 -42 16.5t-16 41.5q0 26 18.5 45t44.5 19t42 -16.5t16 -41.5q0 -26 -18.5 -45t-44.5 -19z
" />
    <glyph glyph-name="divide" unicode="&#xf7;" horiz-adv-x="564" 
d="M81 397h438l-11 -52h-438zM206 208q0 22 15 37t37 15t37 -15t15 -37t-15 -37t-37 -15t-37 15t-15 37zM277 534q0 22 15 37t37 15t37 -15t15 -37t-15 -37t-37 -15t-37 15t-15 37z" />
    <glyph glyph-name="oslash" unicode="&#xf8;" horiz-adv-x="480" 
d="M180 -10q-66 0 -106 37l-42 -54l-22 17l46 58q-34 48 -34 126q0 60 21 123t58 114.5t88 85t111 33.5q65 0 105 -37l39 49l22 -17l-42 -53q34 -48 34 -126q0 -60 -21 -123t-58 -114.5t-88 -85t-111 -33.5zM190 18q38 0 71 33t57 83.5t38 109.5t14 111q0 24 -3 45
l-248 -317q8 -30 25 -47.5t46 -17.5zM110 165q0 -12 0.5 -23t1.5 -22l249 316q-8 30 -25 48t-46 18q-38 0 -71 -33t-57 -83.5t-38 -109.5t-14 -111z" />
    <glyph glyph-name="ugrave" unicode="&#xf9;" horiz-adv-x="555" 
d="M418 515l93 7l-99 -406q-4 -14 -6.5 -26t-2.5 -18q0 -15 14 -15t35 16.5t55 58.5l15 -11q-46 -68 -78.5 -99.5t-67.5 -31.5q-29 0 -43 18.5t-14 49.5q0 11 3.5 32t9.5 47.5t13.5 55t14.5 55.5q-17 -37 -44.5 -82t-61.5 -84t-72 -65.5t-74 -26.5q-37 0 -55.5 22t-18.5 55
q0 22 8 51l84 326l-61 31l3 12l157 43h10l-105 -408q-4 -14 -6 -25t-2 -21q0 -29 27 -29q24 0 57 25.5t67.5 71t64.5 107t48 133.5zM292 761l60 -169h-17l-143 164v5h100z" />
    <glyph glyph-name="uacute" unicode="&#xfa;" horiz-adv-x="555" 
d="M418 515l93 7l-99 -406q-4 -14 -6.5 -26t-2.5 -18q0 -15 14 -15t35 16.5t55 58.5l15 -11q-46 -68 -78.5 -99.5t-67.5 -31.5q-29 0 -43 18.5t-14 49.5q0 11 3.5 32t9.5 47.5t13.5 55t14.5 55.5q-17 -37 -44.5 -82t-61.5 -84t-72 -65.5t-74 -26.5q-37 0 -55.5 22t-18.5 55
q0 22 8 51l84 326l-61 31l3 12l157 43h10l-105 -408q-4 -14 -6 -25t-2 -21q0 -29 27 -29q24 0 57 25.5t67.5 71t64.5 107t48 133.5zM508 761l-1 -5l-178 -164h-17l90 169h106z" />
    <glyph glyph-name="ucircumflex" unicode="&#xfb;" horiz-adv-x="555" 
d="M418 515l93 7l-99 -406q-4 -14 -6.5 -26t-2.5 -18q0 -15 14 -15t35 16.5t55 58.5l15 -11q-46 -68 -78.5 -99.5t-67.5 -31.5q-29 0 -43 18.5t-14 49.5q0 11 3.5 32t9.5 47.5t13.5 55t14.5 55.5q-17 -37 -44.5 -82t-61.5 -84t-72 -65.5t-74 -26.5q-37 0 -55.5 22t-18.5 55
q0 22 8 51l84 326l-61 31l3 12l157 43h10l-105 -408q-4 -14 -6 -25t-2 -21q0 -29 27 -29q24 0 57 25.5t67.5 71t64.5 107t48 133.5zM483 592h-24l-95 108l-141 -108h-28l147 173h68z" />
    <glyph glyph-name="udieresis" unicode="&#xfc;" horiz-adv-x="555" 
d="M418 515l93 7l-99 -406q-4 -14 -6.5 -26t-2.5 -18q0 -15 14 -15t35 16.5t55 58.5l15 -11q-46 -68 -78.5 -99.5t-67.5 -31.5q-29 0 -43 18.5t-14 49.5q0 11 3.5 32t9.5 47.5t13.5 55t14.5 55.5q-17 -37 -44.5 -82t-61.5 -84t-72 -65.5t-74 -26.5q-37 0 -55.5 22t-18.5 55
q0 22 8 51l84 326l-61 31l3 12l157 43h10l-105 -408q-4 -14 -6 -25t-2 -21q0 -29 27 -29q24 0 57 25.5t67.5 71t64.5 107t48 133.5zM261 608q-26 0 -42 16.5t-16 41.5q0 26 18.5 45t44.5 19t42 -16.5t16 -41.5q0 -26 -18.5 -45t-44.5 -19zM427 608q-26 0 -42 16.5t-16 41.5
q0 26 18.5 45t44.5 19t42 -16.5t16 -41.5q0 -26 -18.5 -45t-44.5 -19z" />
    <glyph glyph-name="yacute" unicode="&#xfd;" horiz-adv-x="479" 
d="M19 475l4 12l132 43h3l78 -499q13 18 26.5 39t29.5 45q38 60 61.5 104t36 77t17 57t4.5 44q0 40 -25.5 60t-70.5 15v8q13 16 35 33t51 17q23 0 38 -7.5t24 -20t12.5 -27.5t3.5 -30q0 -47 -39 -128.5t-126 -217.5q-63 -99 -113 -159.5t-90 -92.5t-72 -42.5t-59 -10.5
q-17 0 -33 4.5t-28.5 13.5t-20 23.5t-7.5 34.5q0 23 13.5 40.5t33.5 23.5h4q0 -40 19 -62.5t53 -22.5q17 0 33.5 3t34.5 13t39.5 28.5t47.5 49.5l-89 506zM496 761l-1 -5l-178 -164h-17l90 169h106z" />
    <glyph glyph-name="thorn" unicode="&#xfe;" horiz-adv-x="532" 
d="M371 467q-30 0 -66.5 -28.5t-73 -80t-69 -125t-52.5 -163.5q11 -24 32.5 -37.5t47.5 -13.5q46 0 88 33t74 84.5t51 115t19 124.5q0 42 -11 66.5t-40 24.5zM161 278q21 47 50.5 92.5t62 81t66 57t63.5 21.5q51 0 79 -39t28 -107q0 -79 -29 -150.5t-74.5 -125.5t-101.5 -86
t-110 -32q-33 0 -56.5 10.5t-38.5 27.5l-39 -155q-2 -9 -3.5 -15.5t-1.5 -11.5q0 -9 4 -15t14.5 -9.5t28.5 -5.5t46 -2l-6 -26h-259l6 26q20 1 34 3.5t23.5 7.5t15 14.5t9.5 24.5l209 836l-68 32l3 12l162 39h10z" />
    <glyph glyph-name="ydieresis" unicode="&#xff;" horiz-adv-x="479" 
d="M19 475l4 12l132 43h3l78 -499q13 18 26.5 39t29.5 45q38 60 61.5 104t36 77t17 57t4.5 44q0 40 -25.5 60t-70.5 15v8q13 16 35 33t51 17q23 0 38 -7.5t24 -20t12.5 -27.5t3.5 -30q0 -47 -39 -128.5t-126 -217.5q-63 -99 -113 -159.5t-90 -92.5t-72 -42.5t-59 -10.5
q-17 0 -33 4.5t-28.5 13.5t-20 23.5t-7.5 34.5q0 23 13.5 40.5t33.5 23.5h4q0 -40 19 -62.5t53 -22.5q17 0 33.5 3t34.5 13t39.5 28.5t47.5 49.5l-89 506zM229 608q-26 0 -42 16.5t-16 41.5q0 26 18.5 45t44.5 19t42 -16.5t16 -41.5q0 -26 -18.5 -45t-44.5 -19zM395 608
q-26 0 -42 16.5t-16 41.5q0 26 18.5 45t44.5 19t42 -16.5t16 -41.5q0 -26 -18.5 -45t-44.5 -19z" />
    <glyph glyph-name="Amacron" unicode="&#x100;" horiz-adv-x="696" 
d="M463 246h-284l-82 -135q-20 -34 -20 -50q0 -18 20.5 -25t62.5 -9l-5 -27h-203l5 27q22 2 38.5 9.5t28.5 27.5l358 583l-14 64h96l128 -647q4 -20 17.5 -27.5t33.5 -9.5l-5 -27h-251l5 27q21 1 39 2.5t32 7.5t22 17t8 31q0 11 -3 25zM198 278h259l-62 323zM317 822h271
l-10 -49h-271z" />
    <glyph glyph-name="amacron" unicode="&#x101;" horiz-adv-x="539" 
d="M157 53q30 0 63.5 27.5t67 79t64 125t54.5 166.5q-11 24 -31.5 37.5t-46.5 13.5q-44 0 -83.5 -32t-69.5 -84t-48 -117.5t-18 -132.5q0 -39 12 -61t36 -22zM311 58q0 11 3.5 31.5t9 44.5t12.5 49t14 45q-21 -47 -48 -90t-56.5 -76t-60 -52.5t-60.5 -19.5q-51 0 -77 39
t-26 107q0 79 27 150.5t69.5 125.5t96.5 86t108 32q33 0 56 -10t43 -30l72 48h20l-35 -112l-75 -310q-4 -14 -6.5 -26t-2.5 -18q0 -15 14 -15t35 16.5t55 58.5l15 -11q-46 -68 -78.5 -99.5t-67.5 -31.5q-29 0 -43 18.5t-14 49.5zM251 672h251l-10 -49h-251z" />
    <glyph glyph-name="Abreve" unicode="&#x102;" horiz-adv-x="696" 
d="M463 246h-284l-82 -135q-20 -34 -20 -50q0 -18 20.5 -25t62.5 -9l-5 -27h-203l5 27q22 2 38.5 9.5t28.5 27.5l358 583l-14 64h96l128 -647q4 -20 17.5 -27.5t33.5 -9.5l-5 -27h-251l5 27q21 1 39 2.5t32 7.5t22 17t8 31q0 11 -3 25zM198 278h259l-62 323zM436 748
q-57 0 -87 38t-13 119h29q-4 -27 1 -45t16 -29t28 -15.5t37 -4.5q41 0 74 20t48 74h29q-17 -81 -58.5 -119t-103.5 -38z" />
    <glyph glyph-name="abreve" unicode="&#x103;" horiz-adv-x="539" 
d="M157 53q30 0 63.5 27.5t67 79t64 125t54.5 166.5q-11 24 -31.5 37.5t-46.5 13.5q-44 0 -83.5 -32t-69.5 -84t-48 -117.5t-18 -132.5q0 -39 12 -61t36 -22zM311 58q0 11 3.5 31.5t9 44.5t12.5 49t14 45q-21 -47 -48 -90t-56.5 -76t-60 -52.5t-60.5 -19.5q-51 0 -77 39
t-26 107q0 79 27 150.5t69.5 125.5t96.5 86t108 32q33 0 56 -10t43 -30l72 48h20l-35 -112l-75 -310q-4 -14 -6.5 -26t-2.5 -18q0 -15 14 -15t35 16.5t55 58.5l15 -11q-46 -68 -78.5 -99.5t-67.5 -31.5q-29 0 -43 18.5t-14 49.5zM370 596q-57 0 -84.5 39t-10.5 120h29
q-8 -54 14 -75t63 -21t71.5 21t45.5 75h29q-34 -159 -157 -159z" />
    <glyph glyph-name="Aogonek" unicode="&#x104;" horiz-adv-x="696" 
d="M463 246h-284l-82 -135q-20 -34 -20 -50q0 -18 20.5 -25t62.5 -9l-5 -27h-203l5 27q22 2 38.5 9.5t28.5 27.5l358 583l-14 64h96l128 -647q4 -20 17.5 -27.5t33.5 -9.5l-5 -27h-226q-57 -20 -88 -49t-31 -70q0 -21 13.5 -33t35.5 -12q46 0 99 47l8 -10
q-12 -13 -26.5 -27.5t-32.5 -27t-39 -20.5t-46 -8q-35 0 -57 17.5t-22 50.5q0 28 12.5 52t35 44t52 36t64.5 28q22 8 41 14t32.5 12.5t21.5 16t8 24.5q0 11 -3 25zM198 278h259l-62 323z" />
    <glyph glyph-name="aogonek" unicode="&#x105;" horiz-adv-x="539" 
d="M514 121q-37 -51 -75 -85.5t-68.5 -61t-50 -48.5t-19.5 -48q0 -22 14 -32t35 -10q46 0 99 47l8 -10q-12 -13 -26.5 -27.5t-32.5 -27t-39 -20.5t-46 -8q-35 0 -56.5 17.5t-21.5 50.5q0 23 12 42.5t30.5 36t41.5 30t44 25.5q-52 5 -52 66q0 11 3.5 31.5t9 44.5t12.5 49
t14 45q-21 -47 -48 -90t-56.5 -76t-60 -52.5t-60.5 -19.5q-51 0 -77 39t-26 107q0 79 27 150.5t69.5 125.5t96.5 86t108 32q33 0 56 -10t43 -30l72 48h20l-35 -112l-75 -310q-4 -14 -6.5 -26t-2.5 -18q0 -15 14 -15t35 16.5t55 58.5zM157 53q30 0 63.5 27.5t67 79t64 125
t54.5 166.5q-11 24 -31.5 37.5t-46.5 13.5q-44 0 -83.5 -32t-69.5 -84t-48 -117.5t-18 -132.5q0 -39 12 -61t36 -22z" />
    <glyph glyph-name="Cacute" unicode="&#x106;" horiz-adv-x="644" 
d="M455 712q67 0 119.5 -15.5t89.5 -43.5l-31 -146h-27q2 85 -37.5 128.5t-113.5 43.5q-77 0 -134.5 -40t-96.5 -101.5t-58.5 -134.5t-19.5 -138q0 -116 42 -179t126 -63q85 0 145 49t105 150h30l-51 -178q-51 -26 -105.5 -40t-123.5 -14q-66 0 -116 19.5t-84 55.5
t-51.5 86.5t-17.5 113.5q0 79 29.5 159t83.5 144t129.5 104t167.5 40zM642 900l-1 -5l-160 -144h-17l66 149h112z" />
    <glyph glyph-name="cacute" unicode="&#x107;" horiz-adv-x="413" 
d="M285 500q-38 0 -70.5 -30.5t-56 -78t-36.5 -104.5t-13 -110q0 -26 6 -50.5t18 -43.5t31 -30.5t45 -11.5q46 0 78 25.5t67 70.5l16 -13q-15 -24 -35 -48t-44 -43t-53 -31t-63 -12q-38 0 -67 13.5t-48 37t-28.5 55.5t-9.5 68q0 67 23 132.5t62.5 117.5t92 84t111.5 32
q55 0 84 -22.5t29 -60.5q0 -29 -16.5 -43.5t-42.5 -19.5h-6q0 24 -4 45.5t-12 37t-22.5 24.5t-35.5 9zM508 761l-1 -5l-178 -164h-17l90 169h106z" />
    <glyph glyph-name="Ccircumflex" unicode="&#x108;" horiz-adv-x="644" 
d="M455 712q67 0 119.5 -15.5t89.5 -43.5l-31 -146h-27q2 85 -37.5 128.5t-113.5 43.5q-77 0 -134.5 -40t-96.5 -101.5t-58.5 -134.5t-19.5 -138q0 -116 42 -179t126 -63q85 0 145 49t105 150h30l-51 -178q-51 -26 -105.5 -40t-123.5 -14q-66 0 -116 19.5t-84 55.5
t-51.5 86.5t-17.5 113.5q0 79 29.5 159t83.5 144t129.5 104t167.5 40zM622 751h-24l-95 94l-141 -94h-28l147 159h68z" />
    <glyph glyph-name="ccircumflex" unicode="&#x109;" horiz-adv-x="413" 
d="M285 500q-38 0 -70.5 -30.5t-56 -78t-36.5 -104.5t-13 -110q0 -26 6 -50.5t18 -43.5t31 -30.5t45 -11.5q46 0 78 25.5t67 70.5l16 -13q-15 -24 -35 -48t-44 -43t-53 -31t-63 -12q-38 0 -67 13.5t-48 37t-28.5 55.5t-9.5 68q0 67 23 132.5t62.5 117.5t92 84t111.5 32
q55 0 84 -22.5t29 -60.5q0 -29 -16.5 -43.5t-42.5 -19.5h-6q0 24 -4 45.5t-12 37t-22.5 24.5t-35.5 9zM462 592h-24l-95 108l-141 -108h-28l147 173h68z" />
    <glyph glyph-name="Cdotaccent" unicode="&#x10a;" horiz-adv-x="644" 
d="M455 712q67 0 119.5 -15.5t89.5 -43.5l-31 -146h-27q2 85 -37.5 128.5t-113.5 43.5q-77 0 -134.5 -40t-96.5 -101.5t-58.5 -134.5t-19.5 -138q0 -116 42 -179t126 -63q85 0 145 49t105 150h30l-51 -178q-51 -26 -105.5 -40t-123.5 -14q-66 0 -116 19.5t-84 55.5
t-51.5 86.5t-17.5 113.5q0 79 29.5 159t83.5 144t129.5 104t167.5 40zM496 760q-25 0 -41.5 17t-16.5 41q0 26 18.5 45t44.5 19q25 0 41.5 -17t16.5 -41q0 -26 -18.5 -45t-44.5 -19z" />
    <glyph glyph-name="cdotaccent" unicode="&#x10b;" horiz-adv-x="413" 
d="M285 500q-38 0 -70.5 -30.5t-56 -78t-36.5 -104.5t-13 -110q0 -26 6 -50.5t18 -43.5t31 -30.5t45 -11.5q46 0 78 25.5t67 70.5l16 -13q-15 -24 -35 -48t-44 -43t-53 -31t-63 -12q-38 0 -67 13.5t-48 37t-28.5 55.5t-9.5 68q0 67 23 132.5t62.5 117.5t92 84t111.5 32
q55 0 84 -22.5t29 -60.5q0 -29 -16.5 -43.5t-42.5 -19.5h-6q0 24 -4 45.5t-12 37t-22.5 24.5t-35.5 9zM348 611q-25 0 -41.5 17t-16.5 41q0 26 18.5 45t44.5 19q25 0 41.5 -17t16.5 -41q0 -26 -18.5 -45t-44.5 -19z" />
    <glyph glyph-name="Ccaron" unicode="&#x10c;" horiz-adv-x="644" 
d="M455 712q67 0 119.5 -15.5t89.5 -43.5l-31 -146h-27q2 85 -37.5 128.5t-113.5 43.5q-77 0 -134.5 -40t-96.5 -101.5t-58.5 -134.5t-19.5 -138q0 -116 42 -179t126 -63q85 0 145 49t105 150h30l-51 -178q-51 -26 -105.5 -40t-123.5 -14q-66 0 -116 19.5t-84 55.5
t-51.5 86.5t-17.5 113.5q0 79 29.5 159t83.5 144t129.5 104t167.5 40zM378 910h24l95 -94l141 94h28l-147 -159h-68z" />
    <glyph glyph-name="ccaron" unicode="&#x10d;" horiz-adv-x="413" 
d="M285 500q-38 0 -70.5 -30.5t-56 -78t-36.5 -104.5t-13 -110q0 -26 6 -50.5t18 -43.5t31 -30.5t45 -11.5q46 0 78 25.5t67 70.5l16 -13q-15 -24 -35 -48t-44 -43t-53 -31t-63 -12q-38 0 -67 13.5t-48 37t-28.5 55.5t-9.5 68q0 67 23 132.5t62.5 117.5t92 84t111.5 32
q55 0 84 -22.5t29 -60.5q0 -29 -16.5 -43.5t-42.5 -19.5h-6q0 24 -4 45.5t-12 37t-22.5 24.5t-35.5 9zM215 766h24l95 -108l141 108h28l-147 -173h-68z" />
    <glyph glyph-name="Dcaron" unicode="&#x10e;" horiz-adv-x="700" 
d="M268 33q69 0 128 27.5t102.5 77.5t68 121.5t24.5 160.5q0 58 -13.5 104t-41 78t-70.5 49.5t-102 17.5h-65l-120 -565q-10 -44 8.5 -57.5t65.5 -13.5h15zM-26 0l6 27q28 3 46 6.5t29.5 11t17 20t10.5 33.5l108 506q5 23 3.5 36t-10.5 19.5t-25 9.5t-41 6l6 27h253
q74 0 132.5 -19.5t99 -56.5t62 -89t21.5 -117q0 -97 -33.5 -174.5t-92.5 -132t-138.5 -84t-170.5 -29.5h-283zM313 910h24l95 -94l141 94h28l-147 -159h-68z" />
    <glyph glyph-name="dcaron" unicode="&#x10f;" horiz-adv-x="562" 
d="M158 53q30 0 65.5 27.5t71 79.5t67 125.5t53.5 165.5q-11 24 -32.5 37.5t-47.5 13.5q-46 0 -87 -33t-71.5 -85t-48.5 -115.5t-18 -124.5q0 -42 11 -66.5t37 -24.5zM476 700l-68 32l3 12l162 39h10l-166 -667q-4 -14 -6.5 -26t-2.5 -18q0 -15 14 -15t35 16.5t55 58.5
l15 -11q-46 -68 -78.5 -99.5t-67.5 -31.5q-29 0 -43 18.5t-14 49.5q0 11 4 34t10.5 49.5t14.5 53.5t15 47q-21 -47 -50.5 -92.5t-62 -81t-66 -57t-63.5 -21.5q-51 0 -77.5 39t-26.5 107q0 79 28 150.5t72 125.5t99 86t109 32q33 0 53.5 -8.5t40.5 -28.5zM592 578h-11l64 205
h95l-1 -5z" />
    <glyph glyph-name="Dcroat" unicode="&#x110;" horiz-adv-x="700" 
d="M58 380h85l48 224q5 23 3.5 36t-10.5 19.5t-25 9.5t-41 6l6 27h253q74 0 132.5 -19.5t99 -56.5t62 -89t21.5 -117q0 -97 -33.5 -174.5t-92.5 -132t-138.5 -84t-170.5 -29.5h-283l6 27q28 3 46 6.5t29.5 11t17 20t10.5 33.5l53 248h-85zM268 33q69 0 128 27.5t102.5 77.5
t68 121.5t24.5 160.5q0 58 -13.5 104t-41 78t-70.5 49.5t-102 17.5h-65l-62 -289h146l-7 -34h-146l-51 -242q-10 -44 8.5 -57.5t65.5 -13.5h15z" />
    <glyph glyph-name="dcroat" unicode="&#x111;" horiz-adv-x="562" 
d="M450 596h-134l7 32h135l18 72l-68 32l3 12l162 39h10l-39 -155h70l-7 -32h-71l-119 -480q-4 -14 -6.5 -26t-2.5 -18q0 -15 14 -15t35 16.5t55 58.5l15 -11q-46 -68 -78.5 -99.5t-67.5 -31.5q-29 0 -43 18.5t-14 49.5q0 11 4 34t10.5 49.5t14.5 53.5t15 47
q-21 -47 -50.5 -92.5t-62 -81t-66 -57t-63.5 -21.5q-51 0 -77.5 39t-26.5 107q0 79 28 150.5t72 125.5t99 86t109 32q33 0 53.5 -8.5t40.5 -28.5zM158 53q30 0 65.5 27.5t71 79.5t67 125.5t53.5 165.5q-11 24 -32.5 37.5t-47.5 13.5q-46 0 -87 -33t-71.5 -85t-48.5 -115.5
t-18 -124.5q0 -42 11 -66.5t37 -24.5z" />
    <glyph glyph-name="Emacron" unicode="&#x112;" horiz-adv-x="614" 
d="M-26 0l6 27q28 3 46 6.5t29.5 11t17 20t10.5 33.5l108 506q5 23 3.5 36t-10.5 19.5t-25 9.5t-41 6l6 27h522l-31 -167h-20q-8 40 -17.5 66t-23 41t-32 21t-44.5 6h-179l-62 -290h159q32 0 52 22.5t38 67.5h27l-45 -213h-27q2 45 -9 67.5t-43 22.5h-159l-52 -245
q-9 -41 11.5 -54.5t72.5 -13.5h92q27 0 49.5 8t45 26t47.5 46t57 67h24l-68 -180h-535zM309 822h271l-10 -49h-271z" />
    <glyph glyph-name="emacron" unicode="&#x113;" horiz-adv-x="424" 
d="M424 433q0 -48 -27 -81.5t-71.5 -57t-100.5 -39t-114 -27.5q-1 -11 -1.5 -21.5t-0.5 -20.5q0 -69 27.5 -106.5t76.5 -37.5q44 0 81 26t74 74l18 -13q-48 -69 -97 -104t-110 -35q-38 0 -67 13t-49 37t-30.5 57t-10.5 73q0 65 23 129.5t62 115.5t91 83t109 32
q60 0 88.5 -28.5t28.5 -68.5zM289 499q-32 0 -61 -21.5t-52 -56.5t-39 -80t-23 -92q115 26 172 69.5t57 119.5q0 24 -12.5 42.5t-41.5 18.5zM210 672h251l-10 -49h-251z" />
    <glyph glyph-name="Ebreve" unicode="&#x114;" horiz-adv-x="614" 
d="M-26 0l6 27q28 3 46 6.5t29.5 11t17 20t10.5 33.5l108 506q5 23 3.5 36t-10.5 19.5t-25 9.5t-41 6l6 27h522l-31 -167h-20q-8 40 -17.5 66t-23 41t-32 21t-44.5 6h-179l-62 -290h159q32 0 52 22.5t38 67.5h27l-45 -213h-27q2 45 -9 67.5t-43 22.5h-159l-52 -245
q-9 -41 11.5 -54.5t72.5 -13.5h92q27 0 49.5 8t45 26t47.5 46t57 67h24l-68 -180h-535zM438 748q-57 0 -87 38t-13 119h29q-4 -27 1 -45t16 -29t28 -15.5t37 -4.5q41 0 74 20t48 74h29q-17 -81 -58.5 -119t-103.5 -38z" />
    <glyph glyph-name="ebreve" unicode="&#x115;" horiz-adv-x="424" 
d="M424 433q0 -48 -27 -81.5t-71.5 -57t-100.5 -39t-114 -27.5q-1 -11 -1.5 -21.5t-0.5 -20.5q0 -69 27.5 -106.5t76.5 -37.5q44 0 81 26t74 74l18 -13q-48 -69 -97 -104t-110 -35q-38 0 -67 13t-49 37t-30.5 57t-10.5 73q0 65 23 129.5t62 115.5t91 83t109 32
q60 0 88.5 -28.5t28.5 -68.5zM289 499q-32 0 -61 -21.5t-52 -56.5t-39 -80t-23 -92q115 26 172 69.5t57 119.5q0 24 -12.5 42.5t-41.5 18.5zM322 596q-57 0 -84.5 39t-10.5 120h29q-8 -54 14 -75t63 -21t71.5 21t45.5 75h29q-34 -159 -157 -159z" />
    <glyph glyph-name="Edotaccent" unicode="&#x116;" horiz-adv-x="614" 
d="M-26 0l6 27q28 3 46 6.5t29.5 11t17 20t10.5 33.5l108 506q5 23 3.5 36t-10.5 19.5t-25 9.5t-41 6l6 27h522l-31 -167h-20q-8 40 -17.5 66t-23 41t-32 21t-44.5 6h-179l-62 -290h159q32 0 52 22.5t38 67.5h27l-45 -213h-27q2 45 -9 67.5t-43 22.5h-159l-52 -245
q-9 -41 11.5 -54.5t72.5 -13.5h92q27 0 49.5 8t45 26t47.5 46t57 67h24l-68 -180h-535zM442 760q-25 0 -41.5 17t-16.5 41q0 26 18.5 45t44.5 19q25 0 41.5 -17t16.5 -41q0 -26 -18.5 -45t-44.5 -19z" />
    <glyph glyph-name="edotaccent" unicode="&#x117;" horiz-adv-x="424" 
d="M424 433q0 -48 -27 -81.5t-71.5 -57t-100.5 -39t-114 -27.5q-1 -11 -1.5 -21.5t-0.5 -20.5q0 -69 27.5 -106.5t76.5 -37.5q44 0 81 26t74 74l18 -13q-48 -69 -97 -104t-110 -35q-38 0 -67 13t-49 37t-30.5 57t-10.5 73q0 65 23 129.5t62 115.5t91 83t109 32
q60 0 88.5 -28.5t28.5 -68.5zM289 499q-32 0 -61 -21.5t-52 -56.5t-39 -80t-23 -92q115 26 172 69.5t57 119.5q0 24 -12.5 42.5t-41.5 18.5zM343 611q-25 0 -41.5 17t-16.5 41q0 26 18.5 45t44.5 19q25 0 41.5 -17t16.5 -41q0 -26 -18.5 -45t-44.5 -19z" />
    <glyph glyph-name="Eogonek" unicode="&#x118;" horiz-adv-x="614" 
d="M406 0q-24 -11 -45.5 -24t-38 -28t-26 -32t-9.5 -35q0 -21 13.5 -33t35.5 -12q46 0 99 47l8 -10q-12 -13 -26.5 -27.5t-32.5 -27t-39 -20.5t-46 -8q-35 0 -57 17.5t-22 50.5q0 26 12.5 47t33.5 38t48.5 31t57.5 26h-398l6 27q28 3 46 6.5t29.5 11t17 20t10.5 33.5
l108 506q5 23 3.5 36t-10.5 19.5t-25 9.5t-41 6l6 27h522l-31 -167h-20q-8 40 -17.5 66t-23 41t-32 21t-44.5 6h-179l-62 -290h159q32 0 52 22.5t38 67.5h27l-45 -213h-27q2 45 -9 67.5t-43 22.5h-159l-52 -245q-9 -41 11.5 -54.5t72.5 -13.5h92q27 0 49.5 8t45 26t47.5 46
t57 67h24l-68 -180h-103z" />
    <glyph glyph-name="eogonek" unicode="&#x119;" horiz-adv-x="424" 
d="M184 -10q-38 0 -68 13t-51 37t-32 57t-11 73q0 65 23 129.5t62 115.5t91 83t109 32q60 0 88.5 -28.5t28.5 -68.5q0 -48 -27 -81.5t-71.5 -57t-100.5 -39t-114 -27.5q-1 -11 -1.5 -21.5t-0.5 -20.5q0 -69 27 -106.5t79 -37.5q41 0 79 26t76 74l17 -13q-28 -40 -64 -73
t-84 -56q-42 -20 -69.5 -49.5t-27.5 -69.5q0 -21 13.5 -33t35.5 -12q46 0 99 47l8 -10q-12 -13 -26.5 -27.5t-32.5 -27t-39 -20.5t-46 -8q-35 0 -57 17.5t-22 50.5q0 21 9.5 39.5t25 35t35 31t39.5 26.5zM289 499q-32 0 -61 -21.5t-52 -56.5t-39 -80t-23 -92
q115 26 172 69.5t57 119.5q0 24 -12.5 42.5t-41.5 18.5z" />
    <glyph glyph-name="Ecaron" unicode="&#x11a;" horiz-adv-x="614" 
d="M-26 0l6 27q28 3 46 6.5t29.5 11t17 20t10.5 33.5l108 506q5 23 3.5 36t-10.5 19.5t-25 9.5t-41 6l6 27h522l-31 -167h-20q-8 40 -17.5 66t-23 41t-32 21t-44.5 6h-179l-62 -290h159q32 0 52 22.5t38 67.5h27l-45 -213h-27q2 45 -9 67.5t-43 22.5h-159l-52 -245
q-9 -41 11.5 -54.5t72.5 -13.5h92q27 0 49.5 8t45 26t47.5 46t57 67h24l-68 -180h-535zM324 910h24l95 -94l141 94h28l-147 -159h-68z" />
    <glyph glyph-name="ecaron" unicode="&#x11b;" horiz-adv-x="424" 
d="M424 433q0 -48 -27 -81.5t-71.5 -57t-100.5 -39t-114 -27.5q-1 -11 -1.5 -21.5t-0.5 -20.5q0 -69 27.5 -106.5t76.5 -37.5q44 0 81 26t74 74l18 -13q-48 -69 -97 -104t-110 -35q-38 0 -67 13t-49 37t-30.5 57t-10.5 73q0 65 23 129.5t62 115.5t91 83t109 32
q60 0 88.5 -28.5t28.5 -68.5zM289 499q-32 0 -61 -21.5t-52 -56.5t-39 -80t-23 -92q115 26 172 69.5t57 119.5q0 24 -12.5 42.5t-41.5 18.5zM211 766h24l95 -108l141 108h28l-147 -173h-68z" />
    <glyph glyph-name="Gcircumflex" unicode="&#x11c;" horiz-adv-x="697" 
d="M323 23q40 0 78 8.5t70 33.5l36 163q5 23 3.5 36t-10.5 19.5t-25 9.5t-41 6l6 27h252l-6 -27q-24 -2 -40 -5.5t-25.5 -11.5t-15 -21t-9.5 -33l-35 -166q-53 -32 -108.5 -52t-129.5 -20q-66 0 -117.5 19t-87 54t-54.5 85t-19 113q0 53 13.5 107t39 104t62 93.5t82 76
t100 51.5t115.5 19q67 0 122 -16.5t91 -42.5l-31 -146h-27q2 85 -39.5 128.5t-115.5 43.5q-51 0 -94 -19t-77.5 -51t-60.5 -74t-43.5 -88.5t-26.5 -94.5t-9 -91q0 -116 46.5 -177t130.5 -61zM626 751h-24l-95 94l-141 -94h-28l147 159h68z" />
    <glyph glyph-name="gcircumflex" unicode="&#x11d;" horiz-adv-x="464" 
d="M430 384q0 -47 -17 -86t-46 -66.5t-68 -42.5t-83 -15q-30 0 -56 8q-18 -11 -29.5 -22.5t-11.5 -24.5q0 -14 12.5 -20t29.5 -11l151 -48q21 -7 41.5 -16.5t36.5 -24t26 -34t10 -46.5q0 -39 -20.5 -68.5t-56 -49t-82.5 -29.5t-99 -10q-48 0 -91.5 10t-77 28.5t-53 44
t-19.5 55.5q0 28 13.5 49t36 36.5t52.5 26t63 19.5q-12 8 -21 20.5t-9 31.5q0 29 20 49t60 40q-40 18 -60.5 53t-20.5 79q0 47 17 86t46 66.5t67.5 42.5t82.5 15q23 0 41.5 -4t35.5 -12l170 7l-13 -49h-49l-64 9q35 -40 35 -97zM107 38q-48 -18 -72.5 -45.5t-24.5 -66.5
q0 -53 46 -86t120 -33q90 0 133 27t43 68q0 32 -19 47.5t-56 29.5zM347 399q0 45 -16.5 75.5t-56.5 30.5q-27 0 -50.5 -16t-41.5 -43t-28 -63.5t-10 -77.5q0 -44 16 -75t56 -31q27 0 51 16t42 43t28 63.5t10 77.5zM459 592h-24l-95 108l-141 -108h-28l147 173h68z" />
    <glyph glyph-name="Gbreve" unicode="&#x11e;" horiz-adv-x="697" 
d="M323 23q40 0 78 8.5t70 33.5l36 163q5 23 3.5 36t-10.5 19.5t-25 9.5t-41 6l6 27h252l-6 -27q-24 -2 -40 -5.5t-25.5 -11.5t-15 -21t-9.5 -33l-35 -166q-53 -32 -108.5 -52t-129.5 -20q-66 0 -117.5 19t-87 54t-54.5 85t-19 113q0 53 13.5 107t39 104t62 93.5t82 76
t100 51.5t115.5 19q67 0 122 -16.5t91 -42.5l-31 -146h-27q2 85 -39.5 128.5t-115.5 43.5q-51 0 -94 -19t-77.5 -51t-60.5 -74t-43.5 -88.5t-26.5 -94.5t-9 -91q0 -116 46.5 -177t130.5 -61zM497 748q-57 0 -87 38t-13 119h29q-4 -27 1 -45t16 -29t28 -15.5t37 -4.5
q41 0 74 20t48 74h29q-17 -81 -58.5 -119t-103.5 -38z" />
    <glyph glyph-name="gbreve" unicode="&#x11f;" horiz-adv-x="464" 
d="M430 384q0 -47 -17 -86t-46 -66.5t-68 -42.5t-83 -15q-30 0 -56 8q-18 -11 -29.5 -22.5t-11.5 -24.5q0 -14 12.5 -20t29.5 -11l151 -48q21 -7 41.5 -16.5t36.5 -24t26 -34t10 -46.5q0 -39 -20.5 -68.5t-56 -49t-82.5 -29.5t-99 -10q-48 0 -91.5 10t-77 28.5t-53 44
t-19.5 55.5q0 28 13.5 49t36 36.5t52.5 26t63 19.5q-12 8 -21 20.5t-9 31.5q0 29 20 49t60 40q-40 18 -60.5 53t-20.5 79q0 47 17 86t46 66.5t67.5 42.5t82.5 15q23 0 41.5 -4t35.5 -12l170 7l-13 -49h-49l-64 9q35 -40 35 -97zM107 38q-48 -18 -72.5 -45.5t-24.5 -66.5
q0 -53 46 -86t120 -33q90 0 133 27t43 68q0 32 -19 47.5t-56 29.5zM347 399q0 45 -16.5 75.5t-56.5 30.5q-27 0 -50.5 -16t-41.5 -43t-28 -63.5t-10 -77.5q0 -44 16 -75t56 -31q27 0 51 16t42 43t28 63.5t10 77.5zM318 596q-57 0 -84.5 39t-10.5 120h29q-8 -54 14 -75
t63 -21t71.5 21t45.5 75h29q-34 -159 -157 -159z" />
    <glyph glyph-name="Gdotaccent" unicode="&#x120;" horiz-adv-x="697" 
d="M323 23q40 0 78 8.5t70 33.5l36 163q5 23 3.5 36t-10.5 19.5t-25 9.5t-41 6l6 27h252l-6 -27q-24 -2 -40 -5.5t-25.5 -11.5t-15 -21t-9.5 -33l-35 -166q-53 -32 -108.5 -52t-129.5 -20q-66 0 -117.5 19t-87 54t-54.5 85t-19 113q0 53 13.5 107t39 104t62 93.5t82 76
t100 51.5t115.5 19q67 0 122 -16.5t91 -42.5l-31 -146h-27q2 85 -39.5 128.5t-115.5 43.5q-51 0 -94 -19t-77.5 -51t-60.5 -74t-43.5 -88.5t-26.5 -94.5t-9 -91q0 -116 46.5 -177t130.5 -61zM500 760q-25 0 -41.5 17t-16.5 41q0 26 18.5 45t44.5 19q25 0 41.5 -17t16.5 -41
q0 -26 -18.5 -45t-44.5 -19z" />
    <glyph glyph-name="gdotaccent" unicode="&#x121;" horiz-adv-x="464" 
d="M430 384q0 -47 -17 -86t-46 -66.5t-68 -42.5t-83 -15q-30 0 -56 8q-18 -11 -29.5 -22.5t-11.5 -24.5q0 -14 12.5 -20t29.5 -11l151 -48q21 -7 41.5 -16.5t36.5 -24t26 -34t10 -46.5q0 -39 -20.5 -68.5t-56 -49t-82.5 -29.5t-99 -10q-48 0 -91.5 10t-77 28.5t-53 44
t-19.5 55.5q0 28 13.5 49t36 36.5t52.5 26t63 19.5q-12 8 -21 20.5t-9 31.5q0 29 20 49t60 40q-40 18 -60.5 53t-20.5 79q0 47 17 86t46 66.5t67.5 42.5t82.5 15q23 0 41.5 -4t35.5 -12l170 7l-13 -49h-49l-64 9q35 -40 35 -97zM107 38q-48 -18 -72.5 -45.5t-24.5 -66.5
q0 -53 46 -86t120 -33q90 0 133 27t43 68q0 32 -19 47.5t-56 29.5zM347 399q0 45 -16.5 75.5t-56.5 30.5q-27 0 -50.5 -16t-41.5 -43t-28 -63.5t-10 -77.5q0 -44 16 -75t56 -31q27 0 51 16t42 43t28 63.5t10 77.5zM332 611q-25 0 -41.5 17t-16.5 41q0 26 18.5 45t44.5 19
q25 0 41.5 -17t16.5 -41q0 -26 -18.5 -45t-44.5 -19z" />
    <glyph glyph-name="Gcommaaccent" unicode="&#x122;" horiz-adv-x="697" 
d="M323 23q40 0 78 8.5t70 33.5l36 163q5 23 3.5 36t-10.5 19.5t-25 9.5t-41 6l6 27h252l-6 -27q-24 -2 -40 -5.5t-25.5 -11.5t-15 -21t-9.5 -33l-35 -166q-53 -32 -108.5 -52t-129.5 -20q-66 0 -117.5 19t-87 54t-54.5 85t-19 113q0 53 13.5 107t39 104t62 93.5t82 76
t100 51.5t115.5 19q67 0 122 -16.5t91 -42.5l-31 -146h-27q2 85 -39.5 128.5t-115.5 43.5q-51 0 -94 -19t-77.5 -51t-60.5 -74t-43.5 -88.5t-26.5 -94.5t-9 -91q0 -116 46.5 -177t130.5 -61zM273 -149q-18 4 -25.5 15t-7.5 24q0 29 20 45.5t49 16.5t46 -17.5t17 -47.5
q0 -47 -36.5 -80t-109.5 -33l5 22q38 0 62 17t29 38h-49z" />
    <glyph glyph-name="gcommaaccent" unicode="&#x123;" horiz-adv-x="464" 
d="M430 384q0 -47 -17 -86t-46 -66.5t-68 -42.5t-83 -15q-30 0 -56 8q-18 -11 -29.5 -22.5t-11.5 -24.5q0 -14 12.5 -20t29.5 -11l151 -48q21 -7 41.5 -16.5t36.5 -24t26 -34t10 -46.5q0 -39 -20.5 -68.5t-56 -49t-82.5 -29.5t-99 -10q-48 0 -91.5 10t-77 28.5t-53 44
t-19.5 55.5q0 28 13.5 49t36 36.5t52.5 26t63 19.5q-12 8 -21 20.5t-9 31.5q0 29 20 49t60 40q-40 18 -60.5 53t-20.5 79q0 47 17 86t46 66.5t67.5 42.5t82.5 15q23 0 41.5 -4t35.5 -12l170 7l-13 -49h-49l-64 9q35 -40 35 -97zM107 38q-48 -18 -72.5 -45.5t-24.5 -66.5
q0 -53 46 -86t120 -33q90 0 133 27t43 68q0 32 -19 47.5t-56 29.5zM347 399q0 45 -16.5 75.5t-56.5 30.5q-27 0 -50.5 -16t-41.5 -43t-28 -63.5t-10 -77.5q0 -44 16 -75t56 -31q27 0 51 16t42 43t28 63.5t10 77.5zM365 708q18 -4 25.5 -15t7.5 -24q0 -29 -20 -45.5
t-49 -16.5t-46 17.5t-17 47.5q0 47 36.5 80t109.5 33l-5 -22q-38 0 -62 -17t-29 -38h49z" />
    <glyph glyph-name="Hcircumflex" unicode="&#x124;" horiz-adv-x="771" 
d="M191 604q5 23 3.5 36t-10.5 19.5t-25 9.5t-41 6l6 27h270l-6 -27q-29 -3 -46.5 -6.5t-29 -11t-17.5 -20t-10 -33.5l-48 -224h351l48 224q5 23 3.5 36t-10.5 19.5t-25 9.5t-41 6l6 27h270l-6 -27q-29 -3 -46.5 -6.5t-29 -11t-17.5 -20t-10 -33.5l-108 -506
q-5 -23 -3.5 -36t10.5 -19.5t25 -9.5t41 -6l-6 -27h-270l6 27q28 3 46 6.5t29.5 11t17 20t10.5 33.5l53 248h-351l-53 -248q-5 -23 -3.5 -36t10.5 -19.5t25 -9.5t41 -6l-6 -27h-270l6 27q28 3 46 6.5t29.5 11t17 20t10.5 33.5zM630 751h-24l-95 94l-141 -94h-28l147 159h68z
" />
    <glyph glyph-name="hcircumflex" unicode="&#x125;" horiz-adv-x="544" 
d="M164 282q20 37 50.5 80.5t66.5 81t74.5 62t74.5 24.5q37 0 50.5 -19t13.5 -52q0 -10 -2 -22t-4 -22l-79 -299q-4 -14 -6.5 -26t-2.5 -18q0 -15 14 -15t35 16.5t55 58.5l15 -11q-46 -68 -78.5 -99.5t-67.5 -31.5q-29 0 -44 18.5t-15 49.5q0 17 3 37t11 49l74 275
q5 22 5 33q0 21 -18 21q-23 0 -59.5 -25.5t-74.5 -70t-71.5 -104t-50.5 -128.5l-36 -145h-87l175 700l-68 32l3 12l162 39h10zM536 803h-24l-95 94l-141 -94h-28l147 159h68z" />
    <glyph glyph-name="Hbar" unicode="&#x126;" horiz-adv-x="781" 
d="M96 534h85l15 70q5 23 3.5 36t-10.5 19.5t-25 9.5t-41 6l6 27h270l-6 -27q-29 -3 -46.5 -6.5t-29 -11t-17.5 -20t-10 -33.5l-15 -70h351l15 70q5 23 3.5 36t-10.5 19.5t-25 9.5t-41 6l6 27h270l-6 -27q-29 -3 -46.5 -6.5t-29 -11t-17.5 -20t-10 -33.5l-15 -70h91l-7 -34
h-91l-86 -402q-5 -23 -3.5 -36t10.5 -19.5t25 -9.5t41 -6l-6 -27h-270l6 27q28 3 46 6.5t29.5 11t17 20t10.5 33.5l53 248h-351l-53 -248q-5 -23 -3.5 -36t10.5 -19.5t25 -9.5t41 -6l-6 -27h-270l6 27q28 3 46 6.5t29.5 11t17 20t10.5 33.5l86 402h-85zM593 380l25 120h-351
l-25 -120h351z" />
    <glyph glyph-name="hbar" unicode="&#x127;" horiz-adv-x="544" 
d="M244 596l-80 -314q20 37 50.5 80.5t66.5 81t74.5 62t74.5 24.5q37 0 50.5 -19t13.5 -52q0 -10 -2 -22t-4 -22l-79 -299q-4 -14 -6.5 -26t-2.5 -18q0 -15 14 -15t35 16.5t55 58.5l15 -11q-46 -68 -78.5 -99.5t-67.5 -31.5q-29 0 -44 18.5t-15 49.5q0 17 3 37t11 49l74 275
q5 22 5 33q0 21 -18 21q-23 0 -59.5 -25.5t-74.5 -70t-71.5 -104t-50.5 -128.5l-36 -145h-87l149 596h-70l7 32h71l18 72l-68 32l3 12l162 39h10l-40 -155h135l-7 -32h-136z" />
    <glyph glyph-name="Itilde" unicode="&#x128;" horiz-adv-x="326" 
d="M191 604q5 23 3.5 36t-10.5 19.5t-25 9.5t-41 6l6 27h270l-6 -27q-29 -3 -46.5 -6.5t-29 -11t-17.5 -20t-10 -33.5l-108 -506q-5 -23 -3.5 -36t10.5 -19.5t25 -9.5t41 -6l-6 -27h-270l6 27q28 3 46 6.5t29.5 11t17 20t10.5 33.5zM334 754q-19 0 -34.5 8.5t-30.5 19
t-30 19.5t-32 9q-22 0 -38 -13t-36 -44l-17 10q18 33 31.5 54.5t26.5 34.5t27 18.5t31 5.5q19 0 34.5 -9t30.5 -19.5t29.5 -19t31.5 -8.5q22 0 38.5 13t35.5 44l18 -10q-18 -33 -31.5 -54.5t-26.5 -34.5t-27 -18.5t-31 -5.5z" />
    <glyph glyph-name="itilde" unicode="&#x129;" horiz-adv-x="272" 
d="M258 604q-14 0 -26.5 8.5t-25 19t-24.5 19.5t-24 9q-20 0 -35.5 -13t-34.5 -44l-16 10q16 33 29.5 54.5t25.5 34.5t25 18.5t30 5.5q14 0 26.5 -9t24.5 -19.5t24 -19t25 -8.5q20 0 36 13t33 44l17 -10q-17 -33 -30 -54.5t-25 -34.5t-25.5 -18.5t-29.5 -5.5zM123 444
l-61 31l3 12l157 43h10l-104 -414q-4 -14 -6.5 -26t-2.5 -18q0 -15 14 -15t35 16.5t55 58.5l15 -11q-46 -68 -78.5 -99.5t-67.5 -31.5q-29 0 -44 18.5t-15 49.5q0 17 3 37t11 49z" />
    <glyph glyph-name="Imacron" unicode="&#x12a;" horiz-adv-x="326" 
d="M191 604q5 23 3.5 36t-10.5 19.5t-25 9.5t-41 6l6 27h270l-6 -27q-29 -3 -46.5 -6.5t-29 -11t-17.5 -20t-10 -33.5l-108 -506q-5 -23 -3.5 -36t10.5 -19.5t25 -9.5t41 -6l-6 -27h-270l6 27q28 3 46 6.5t29.5 11t17 20t10.5 33.5zM149 822h271l-10 -49h-271z" />
    <glyph glyph-name="imacron" unicode="&#x12b;" horiz-adv-x="272" 
d="M113 672h211l-10 -49h-211zM123 444l-61 31l3 12l157 43h10l-104 -414q-4 -14 -6.5 -26t-2.5 -18q0 -15 14 -15t35 16.5t55 58.5l15 -11q-46 -68 -78.5 -99.5t-67.5 -31.5q-29 0 -44 18.5t-15 49.5q0 17 3 37t11 49z" />
    <glyph glyph-name="Ibreve" unicode="&#x12c;" horiz-adv-x="326" 
d="M191 604q5 23 3.5 36t-10.5 19.5t-25 9.5t-41 6l6 27h270l-6 -27q-29 -3 -46.5 -6.5t-29 -11t-17.5 -20t-10 -33.5l-108 -506q-5 -23 -3.5 -36t10.5 -19.5t25 -9.5t41 -6l-6 -27h-270l6 27q28 3 46 6.5t29.5 11t17 20t10.5 33.5zM278 748q-57 0 -87 38t-13 119h29
q-4 -27 1 -45t16 -29t28 -15.5t37 -4.5q41 0 74 20t48 74h29q-17 -81 -58.5 -119t-103.5 -38z" />
    <glyph glyph-name="ibreve" unicode="&#x12d;" horiz-adv-x="272" 
d="M123 444l-61 31l3 12l157 43h10l-104 -414q-4 -14 -6.5 -26t-2.5 -18q0 -15 14 -15t35 16.5t55 58.5l15 -11q-46 -68 -78.5 -99.5t-67.5 -31.5q-29 0 -44 18.5t-15 49.5q0 17 3 37t11 49zM202 596q-57 0 -84.5 39t-10.5 120h29q-8 -54 14 -75t63 -21t71.5 21t45.5 75h29
q-34 -159 -157 -159z" />
    <glyph glyph-name="Iogonek" unicode="&#x12e;" horiz-adv-x="326" 
d="M191 604q5 23 3.5 36t-10.5 19.5t-25 9.5t-41 6l6 27h270l-6 -27q-29 -3 -46.5 -6.5t-29 -11t-17.5 -20t-10 -33.5l-108 -506q-5 -23 -3.5 -36t10.5 -19.5t25 -9.5t41 -6l-6 -27h-80q-24 -11 -45.5 -24t-38 -28t-26 -32t-9.5 -35q0 -21 13.5 -33t35.5 -12q46 0 99 47
l8 -10q-12 -13 -26.5 -27.5t-32.5 -27t-39 -20.5t-46 -8q-35 0 -57 17.5t-22 50.5q0 26 12.5 47t33.5 38t48.5 31t57.5 26h-156l6 27q28 3 46 6.5t29.5 11t17 20t10.5 33.5z" />
    <glyph glyph-name="iogonek" unicode="&#x12f;" horiz-adv-x="272" 
d="M220 611q-25 0 -41.5 17t-16.5 41q0 26 18.5 45t44.5 19q25 0 41.5 -17t16.5 -41q0 -26 -18.5 -45t-44.5 -19zM33 58q0 17 3 37t11 49l76 300l-61 31l3 12l157 43h10l-104 -414q-4 -14 -6.5 -26t-2.5 -18q0 -15 14 -15t35 16.5t55 58.5l15 -11q-37 -51 -75 -85.5
t-68.5 -61t-50 -48.5t-19.5 -48q0 -22 14 -32t35 -10q46 0 99 47l8 -10q-12 -13 -26.5 -27.5t-32.5 -27t-39 -20.5t-46 -8q-35 0 -56.5 17.5t-21.5 50.5q0 23 12 42.5t30.5 36t41.5 30t44 25.5q-26 2 -40 19.5t-14 46.5z" />
    <glyph glyph-name="Idotaccent" unicode="&#x130;" horiz-adv-x="326" 
d="M191 604q5 23 3.5 36t-10.5 19.5t-25 9.5t-41 6l6 27h270l-6 -27q-29 -3 -46.5 -6.5t-29 -11t-17.5 -20t-10 -33.5l-108 -506q-5 -23 -3.5 -36t10.5 -19.5t25 -9.5t41 -6l-6 -27h-270l6 27q28 3 46 6.5t29.5 11t17 20t10.5 33.5zM282 760q-25 0 -41.5 17t-16.5 41
q0 26 18.5 45t44.5 19q25 0 41.5 -17t16.5 -41q0 -26 -18.5 -45t-44.5 -19z" />
    <glyph glyph-name="dotlessi" unicode="&#x131;" horiz-adv-x="272" 
d="M123 444l-61 31l3 12l157 43h10l-104 -414q-4 -14 -6.5 -26t-2.5 -18q0 -15 14 -15t35 16.5t55 58.5l15 -11q-46 -68 -78.5 -99.5t-67.5 -31.5q-29 0 -44 18.5t-15 49.5q0 17 3 37t11 49z" />
    <glyph glyph-name="IJ" unicode="&#x132;" horiz-adv-x="787" 
d="M192 604q5 23 3.5 36t-10.5 19.5t-25 9.5t-41 6l6 27h270l-6 -27q-29 -3 -46.5 -6.5t-29 -11t-17.5 -20t-10 -33.5l-108 -506q-5 -23 -3.5 -36t10.5 -19.5t25 -9.5t41 -6l-6 -27h-270l6 27q28 3 46 6.5t29.5 11t17 20t10.5 33.5zM662 604q5 23 3.5 36t-10.5 19.5t-25 9.5
t-41 6l6 27h270l-6 -27q-29 -3 -46.5 -6.5t-29 -11t-17.5 -20t-10 -33.5l-89 -417q-23 -107 -83.5 -152t-154.5 -45q-72 0 -114.5 28.5t-42.5 78.5q0 26 12 47.5t31 35.5h69q-9 -20 -14.5 -39.5t-5.5 -38.5q0 -38 19 -61t57 -23q46 0 78.5 33t50.5 116z" />
    <glyph glyph-name="ij" unicode="&#x133;" horiz-adv-x="469" 
d="M220 611q-25 0 -41.5 17t-16.5 41q0 26 18.5 45t44.5 19q25 0 41.5 -17t16.5 -41q0 -26 -18.5 -45t-44.5 -19zM123 444l-61 31l3 12l157 43h10l-104 -414q-4 -14 -6.5 -26t-2.5 -18q0 -15 14 -15t35 16.5t55 58.5l15 -11q-46 -68 -78.5 -99.5t-67.5 -31.5q-29 0 -44 18.5
t-15 49.5q0 17 3 37t11 49zM375 138q-21 -96 -46 -162t-55 -106.5t-65 -58.5t-76 -18q-38 0 -62.5 16.5t-24.5 46.5q0 27 17.5 40t37.5 18h9q4 -42 20 -67t39 -25q13 0 23.5 7t20 25.5t19.5 52t22 86.5l102 451l-61 31l3 12l155 43h10zM442 611q-25 0 -41.5 17t-16.5 41
q0 26 18.5 45t44.5 19q25 0 41.5 -17t16.5 -41q0 -26 -18.5 -45t-44.5 -19z" />
    <glyph glyph-name="Jcircumflex" unicode="&#x134;" horiz-adv-x="490" 
d="M365 604q5 23 3.5 36t-10.5 19.5t-25 9.5t-41 6l6 27h270l-6 -27q-29 -3 -46.5 -6.5t-29 -11t-17.5 -20t-10 -33.5l-89 -417q-23 -107 -83.5 -152t-154.5 -45q-72 0 -114.5 28.5t-42.5 78.5q0 26 12 47.5t31 35.5h69q-9 -20 -14.5 -39.5t-5.5 -38.5q0 -38 19 -61t57 -23
q46 0 78.5 33t50.5 116zM579 751h-24l-95 94l-141 -94h-28l147 159h68z" />
    <glyph glyph-name="jcircumflex" unicode="&#x135;" horiz-adv-x="240" 
d="M146 138q-21 -96 -46 -162t-55 -106.5t-65 -58.5t-76 -18q-38 0 -62.5 16.5t-24.5 46.5q0 27 17.5 40t37.5 18h9q4 -42 20 -67t39 -25q13 0 23.5 7t20 25.5t19.5 52t22 86.5l102 451l-61 31l3 12l155 43h10zM343 592h-24l-95 108l-141 -108h-28l147 173h68z" />
    <glyph glyph-name="Kcommaaccent" unicode="&#x136;" horiz-adv-x="661" 
d="M498 97q12 -20 23.5 -33t24.5 -21t29 -11.5t37 -4.5l-6 -27h-146q-17 15 -32 37.5t-32 48.5l-152 262l306 265q10 8 20 18t10 21q0 12 -13.5 16.5t-56.5 6.5l5 27h215l-5 -27q-34 -2 -57.5 -14t-52.5 -37l-281 -245zM177 98q-5 -23 -3.5 -36t10.5 -19.5t25 -9.5t41 -6
l-6 -27h-270l6 27q28 3 46 6.5t29.5 11t17 20t10.5 33.5l108 506q5 23 3.5 36t-10.5 19.5t-25 9.5t-41 6l5 27h271l-6 -27q-29 -3 -46.5 -6.5t-29 -11t-17.5 -20t-10 -33.5zM240 -149q-18 4 -25.5 15t-7.5 24q0 29 20 45.5t49 16.5t46 -17.5t17 -47.5q0 -47 -36.5 -80
t-109.5 -33l5 22q38 0 62 17t29 38h-49z" />
    <glyph glyph-name="kcommaaccent" unicode="&#x137;" horiz-adv-x="503" 
d="M340 111q12 -31 20.5 -49.5t26.5 -18.5q17 0 35.5 19t44.5 52l15 -11q-17 -28 -32.5 -49t-30.5 -35.5t-31 -21.5t-35 -7q-40 0 -61 29t-38 77l-66 191l170 186q28 30 49 43.5t45 13.5q32 0 46.5 -18t14.5 -40q0 -24 -14 -40.5t-42 -27.5h-7q0 18 -8.5 35.5t-31.5 17.5
q-20 0 -35.5 -11t-38.5 -35l-78 -86zM10 0l176 700l-68 32l3 12l162 39h10l-195 -783h-88zM124 -149q-18 4 -25.5 15t-7.5 24q0 29 20 45.5t49 16.5t46 -17.5t17 -47.5q0 -47 -36.5 -80t-109.5 -33l5 22q38 0 62 17t29 38h-49z" />
    <glyph glyph-name="kgreenlandic" unicode="&#x138;" horiz-adv-x="514" 
d="M351 111q12 -31 20.5 -49.5t26.5 -18.5q17 0 35.5 19t44.5 52l15 -11q-17 -28 -32.5 -49t-30.5 -35.5t-31 -21.5t-35 -7q-40 0 -61 29t-38 77l-66 191l170 186q28 30 49 43.5t45 13.5q32 0 46.5 -18t14.5 -40q0 -24 -14 -40.5t-42 -27.5h-7q0 18 -8.5 35.5t-31.5 17.5
q-20 0 -35.5 -11t-38.5 -35l-78 -86zM21 0l111 444l-61 31l3 12l157 43h10l-133 -530h-87z" />
    <glyph glyph-name="Lacute" unicode="&#x139;" horiz-adv-x="582" 
d="M178 101q-9 -41 11.5 -54.5t72.5 -13.5h59q32 0 57.5 10.5t49 31.5t47 51t52.5 69h25l-73 -195h-505l6 27q28 3 46 6.5t29.5 11t17 20t10.5 33.5l108 506q5 23 3.5 36t-10.5 19.5t-25 9.5t-41 6l6 27h270l-6 -27q-29 -3 -46.5 -6.5t-29 -11t-17.5 -20t-10 -33.5zM440 900
l-1 -5l-160 -144h-17l66 149h112z" />
    <glyph glyph-name="lacute" unicode="&#x13a;" horiz-adv-x="266" 
d="M122 116q-4 -14 -6.5 -26t-2.5 -18q0 -15 14 -15t35 16.5t55 58.5l15 -11q-46 -68 -78.5 -99.5t-67.5 -31.5q-29 0 -44 18.5t-15 49.5q0 17 3 37t11 49l138 556l-68 32l3 12l162 39h10zM402 944l-1 -5l-160 -144h-17l66 149h112z" />
    <glyph glyph-name="Lcommaaccent" unicode="&#x13b;" horiz-adv-x="582" 
d="M178 101q-9 -41 11.5 -54.5t72.5 -13.5h59q32 0 57.5 10.5t49 31.5t47 51t52.5 69h25l-73 -195h-505l6 27q28 3 46 6.5t29.5 11t17 20t10.5 33.5l108 506q5 23 3.5 36t-10.5 19.5t-25 9.5t-41 6l6 27h270l-6 -27q-29 -3 -46.5 -6.5t-29 -11t-17.5 -20t-10 -33.5z
M201 -149q-18 4 -25.5 15t-7.5 24q0 29 20 45.5t49 16.5t46 -17.5t17 -47.5q0 -47 -36.5 -80t-109.5 -33l5 22q38 0 62 17t29 38h-49z" />
    <glyph glyph-name="lcommaaccent" unicode="&#x13c;" horiz-adv-x="266" 
d="M122 116q-4 -14 -6.5 -26t-2.5 -18q0 -15 14 -15t35 16.5t55 58.5l15 -11q-46 -68 -78.5 -99.5t-67.5 -31.5q-29 0 -44 18.5t-15 49.5q0 17 3 37t11 49l138 556l-68 32l3 12l162 39h10zM19 -149q-18 4 -25.5 15t-7.5 24q0 29 20 45.5t49 16.5t46 -17.5t17 -47.5
q0 -47 -36.5 -80t-109.5 -33l5 22q38 0 62 17t29 38h-49z" />
    <glyph glyph-name="Lcaron" unicode="&#x13d;" horiz-adv-x="582" 
d="M178 101q-9 -41 11.5 -54.5t72.5 -13.5h59q32 0 57.5 10.5t49 31.5t47 51t52.5 69h25l-73 -195h-505l6 27q28 3 46 6.5t29.5 11t17 20t10.5 33.5l108 506q5 23 3.5 36t-10.5 19.5t-25 9.5t-41 6l6 27h270l-6 -27q-29 -3 -46.5 -6.5t-29 -11t-17.5 -20t-10 -33.5zM433 497
h-11l64 205h95l-1 -5z" />
    <glyph glyph-name="lcaron" unicode="&#x13e;" horiz-adv-x="266" 
d="M122 116q-4 -14 -6.5 -26t-2.5 -18q0 -15 14 -15t35 16.5t55 58.5l15 -11q-46 -68 -78.5 -99.5t-67.5 -31.5q-29 0 -44 18.5t-15 49.5q0 17 3 37t11 49l138 556l-68 32l3 12l162 39h10zM296 578h-11l64 205h95l-1 -5z" />
    <glyph glyph-name="Ldot" unicode="&#x13f;" horiz-adv-x="582" 
d="M178 101q-9 -41 11.5 -54.5t72.5 -13.5h59q32 0 57.5 10.5t49 31.5t47 51t52.5 69h25l-73 -195h-505l6 27q28 3 46 6.5t29.5 11t17 20t10.5 33.5l108 506q5 23 3.5 36t-10.5 19.5t-25 9.5t-41 6l6 27h270l-6 -27q-29 -3 -46.5 -6.5t-29 -11t-17.5 -20t-10 -33.5zM476 310
q-25 0 -41.5 17t-16.5 41q0 26 18.5 45t44.5 19q25 0 41.5 -17t16.5 -41q0 -26 -18.5 -45t-44.5 -19z" />
    <glyph glyph-name="ldot" unicode="&#x140;" horiz-adv-x="303" 
d="M122 116q-4 -14 -6.5 -26t-2.5 -18q0 -15 14 -15t35 16.5t55 58.5l15 -11q-46 -68 -78.5 -99.5t-67.5 -31.5q-29 0 -44 18.5t-15 49.5q0 17 3 37t11 49l138 556l-68 32l3 12l162 39h10zM290 325q-25 0 -41.5 17t-16.5 41q0 26 18.5 45t44.5 19q25 0 41.5 -17t16.5 -41
q0 -26 -18.5 -45t-44.5 -19z" />
    <glyph glyph-name="Lslash" unicode="&#x141;" horiz-adv-x="582" 
d="M227 331l-49 -230q-9 -41 11.5 -54.5t72.5 -13.5h59q32 0 57.5 10.5t49 31.5t47 51t52.5 69h25l-73 -195h-505l6 27q28 3 46 6.5t29.5 11t17 20t10.5 33.5l41 194l-96 -44l9 40l96 44l58 272q5 23 3.5 36t-10.5 19.5t-25 9.5t-41 6l6 27h270l-6 -27q-29 -3 -46.5 -6.5
t-29 -11t-17.5 -20t-10 -33.5l-50 -233l147 67l-9 -40z" />
    <glyph glyph-name="lslash" unicode="&#x142;" horiz-adv-x="281" 
d="M202 408l-72 -292q-4 -14 -6.5 -26t-2.5 -18q0 -15 14 -15t35 16.5t55 58.5l15 -11q-46 -68 -78.5 -99.5t-67.5 -31.5q-29 0 -44 18.5t-15 49.5q0 17 3 37t11 49l55 223l-78 -44l11 43l78 44l72 290l-68 32l3 12l162 39h10l-82 -333l99 57l-11 -43z" />
    <glyph glyph-name="Nacute" unicode="&#x143;" horiz-adv-x="729" 
d="M656 604q8 42 -13.5 55t-80.5 16l6 27h237l-6 -27q-29 -3 -46.5 -6.5t-29 -11t-17.5 -20t-10 -33.5l-129 -608h-25l-318 581l-101 -479q-8 -42 13.5 -55t80.5 -16l-6 -27h-237l6 27q28 3 46 6.5t29.5 11t17 20t10.5 33.5l110 516q-9 17 -17 28.5t-17 18.5t-21.5 10.5
t-31.5 3.5l6 27h151l298 -556zM614 900l-1 -5l-160 -144h-17l66 149h112z" />
    <glyph glyph-name="nacute" unicode="&#x144;" horiz-adv-x="555" 
d="M175 282q20 37 50.5 80.5t66.5 81t74.5 62t74.5 24.5q37 0 50.5 -19t13.5 -52q0 -10 -2 -22t-4 -22l-79 -299q-4 -14 -6.5 -26t-2.5 -18q0 -15 14 -15t35 16.5t55 58.5l15 -11q-46 -68 -78.5 -99.5t-67.5 -31.5q-29 0 -44 18.5t-15 49.5q0 17 3 37t11 49l74 275
q5 22 5 33q0 21 -18 21q-23 0 -59.5 -25.5t-74.5 -70t-71.5 -104t-50.5 -128.5l-36 -145h-87l111 444l-61 31l3 12l157 43h10zM543 761l-1 -5l-178 -164h-17l90 169h106z" />
    <glyph glyph-name="Ncommaaccent" unicode="&#x145;" horiz-adv-x="729" 
d="M656 604q8 42 -13.5 55t-80.5 16l6 27h237l-6 -27q-29 -3 -46.5 -6.5t-29 -11t-17.5 -20t-10 -33.5l-129 -608h-25l-318 581l-101 -479q-8 -42 13.5 -55t80.5 -16l-6 -27h-237l6 27q28 3 46 6.5t29.5 11t17 20t10.5 33.5l110 516q-9 17 -17 28.5t-17 18.5t-21.5 10.5
t-31.5 3.5l6 27h151l298 -556zM274 -149q-18 4 -25.5 15t-7.5 24q0 29 20 45.5t49 16.5t46 -17.5t17 -47.5q0 -47 -36.5 -80t-109.5 -33l5 22q38 0 62 17t29 38h-49z" />
    <glyph glyph-name="ncommaaccent" unicode="&#x146;" horiz-adv-x="555" 
d="M175 282q20 37 50.5 80.5t66.5 81t74.5 62t74.5 24.5q37 0 50.5 -19t13.5 -52q0 -10 -2 -22t-4 -22l-79 -299q-4 -14 -6.5 -26t-2.5 -18q0 -15 14 -15t35 16.5t55 58.5l15 -11q-46 -68 -78.5 -99.5t-67.5 -31.5q-29 0 -44 18.5t-15 49.5q0 17 3 37t11 49l74 275
q5 22 5 33q0 21 -18 21q-23 0 -59.5 -25.5t-74.5 -70t-71.5 -104t-50.5 -128.5l-36 -145h-87l111 444l-61 31l3 12l157 43h10zM175 -149q-18 4 -25.5 15t-7.5 24q0 29 20 45.5t49 16.5t46 -17.5t17 -47.5q0 -47 -36.5 -80t-109.5 -33l5 22q38 0 62 17t29 38h-49z" />
    <glyph glyph-name="Ncaron" unicode="&#x147;" horiz-adv-x="729" 
d="M656 604q8 42 -13.5 55t-80.5 16l6 27h237l-6 -27q-29 -3 -46.5 -6.5t-29 -11t-17.5 -20t-10 -33.5l-129 -608h-25l-318 581l-101 -479q-8 -42 13.5 -55t80.5 -16l-6 -27h-237l6 27q28 3 46 6.5t29.5 11t17 20t10.5 33.5l110 516q-9 17 -17 28.5t-17 18.5t-21.5 10.5
t-31.5 3.5l6 27h151l298 -556zM359 910h24l95 -94l141 94h28l-147 -159h-68z" />
    <glyph glyph-name="ncaron" unicode="&#x148;" horiz-adv-x="555" 
d="M175 282q20 37 50.5 80.5t66.5 81t74.5 62t74.5 24.5q37 0 50.5 -19t13.5 -52q0 -10 -2 -22t-4 -22l-79 -299q-4 -14 -6.5 -26t-2.5 -18q0 -15 14 -15t35 16.5t55 58.5l15 -11q-46 -68 -78.5 -99.5t-67.5 -31.5q-29 0 -44 18.5t-15 49.5q0 17 3 37t11 49l74 275
q5 22 5 33q0 21 -18 21q-23 0 -59.5 -25.5t-74.5 -70t-71.5 -104t-50.5 -128.5l-36 -145h-87l111 444l-61 31l3 12l157 43h10zM250 766h24l95 -108l141 108h28l-147 -173h-68z" />
    <glyph glyph-name="Eng" unicode="&#x14a;" horiz-adv-x="729" 
d="M224 577l-101 -479q-8 -42 13.5 -55t80.5 -16l-6 -27h-237l6 27q28 3 46 6.5t29.5 11t17 20t10.5 33.5l110 516q-9 17 -17 28.5t-17 18.5t-21.5 10.5t-31.5 3.5l6 27h151l298 -556l95 458q8 42 -13.5 55t-80.5 16l6 27h237l-6 -27q-29 -3 -46.5 -6.5t-29 -11t-17.5 -20
t-10 -33.5l-110 -520q-12 -55 -25 -92.5t-34.5 -68t-54 -59t-82.5 -64.5l-13 11l28 33q44 51 66.5 104.5t34.5 113.5z" />
    <glyph glyph-name="eng" unicode="&#x14b;" horiz-adv-x="527" 
d="M425 137q-25 -95 -51.5 -160.5t-56 -106.5t-64 -59t-75.5 -18q-38 0 -62.5 16.5t-24.5 46.5q0 27 17.5 40t37.5 18h9q4 -42 20 -67t39 -25q13 0 23 7t19 26t19 52t24 86l114 426q5 22 5 33q0 21 -18 21q-23 0 -59.5 -25.5t-74.5 -70t-71.5 -104t-50.5 -128.5l-36 -145
h-87l111 444l-61 31l3 12l157 43h10l-66 -248q20 37 50.5 80.5t66.5 81t74.5 62t74.5 24.5q37 0 50.5 -19t13.5 -52q0 -10 -2 -22t-4 -22z" />
    <glyph glyph-name="Omacron" unicode="&#x14c;" horiz-adv-x="696" 
d="M428 712q66 0 115 -22t81 -59t48 -86.5t16 -104.5q0 -77 -27 -157t-77.5 -145t-121 -106.5t-157.5 -41.5q-66 0 -115 22t-81 59t-48 86.5t-16 104.5q0 77 27 157t77.5 145t121 106.5t157.5 41.5zM428 679q-67 0 -119.5 -40t-88.5 -101.5t-55 -135t-19 -140.5q0 -50 9 -94
t28 -76t49.5 -50.5t72.5 -18.5q67 0 119.5 40t88.5 101.5t55 135t19 140.5q0 50 -9 93.5t-28 76t-49.5 51t-72.5 18.5zM339 822h271l-10 -49h-271z" />
    <glyph glyph-name="omacron" unicode="&#x14d;" horiz-adv-x="480" 
d="M190 18q38 0 71 33t57 83.5t38 109.5t14 111q0 31 -4 58t-13.5 47t-25 31t-37.5 11q-38 0 -71 -33t-57 -83.5t-38 -109.5t-14 -111q0 -32 4 -58.5t13.5 -46.5t24.5 -31t38 -11zM180 -10q-75 0 -116.5 48t-41.5 136q0 60 21 123t58 114.5t88 85t111 33.5q75 0 116.5 -48
t41.5 -136q0 -60 -21 -123t-58 -114.5t-88 -85t-111 -33.5zM208 672h251l-10 -49h-251z" />
    <glyph glyph-name="Obreve" unicode="&#x14e;" horiz-adv-x="696" 
d="M428 712q66 0 115 -22t81 -59t48 -86.5t16 -104.5q0 -77 -27 -157t-77.5 -145t-121 -106.5t-157.5 -41.5q-66 0 -115 22t-81 59t-48 86.5t-16 104.5q0 77 27 157t77.5 145t121 106.5t157.5 41.5zM428 679q-67 0 -119.5 -40t-88.5 -101.5t-55 -135t-19 -140.5q0 -50 9 -94
t28 -76t49.5 -50.5t72.5 -18.5q67 0 119.5 40t88.5 101.5t55 135t19 140.5q0 50 -9 93.5t-28 76t-49.5 51t-72.5 18.5zM468 748q-57 0 -87 38t-13 119h29q-4 -27 1 -45t16 -29t28 -15.5t37 -4.5q41 0 74 20t48 74h29q-17 -81 -58.5 -119t-103.5 -38z" />
    <glyph glyph-name="obreve" unicode="&#x14f;" horiz-adv-x="480" 
d="M190 18q38 0 71 33t57 83.5t38 109.5t14 111q0 31 -4 58t-13.5 47t-25 31t-37.5 11q-38 0 -71 -33t-57 -83.5t-38 -109.5t-14 -111q0 -32 4 -58.5t13.5 -46.5t24.5 -31t38 -11zM180 -10q-75 0 -116.5 48t-41.5 136q0 60 21 123t58 114.5t88 85t111 33.5q75 0 116.5 -48
t41.5 -136q0 -60 -21 -123t-58 -114.5t-88 -85t-111 -33.5zM320 596q-57 0 -84.5 39t-10.5 120h29q-8 -54 14 -75t63 -21t71.5 21t45.5 75h29q-34 -159 -157 -159z" />
    <glyph glyph-name="Ohungarumlaut" unicode="&#x150;" horiz-adv-x="696" 
d="M428 712q66 0 115 -22t81 -59t48 -86.5t16 -104.5q0 -77 -27 -157t-77.5 -145t-121 -106.5t-157.5 -41.5q-66 0 -115 22t-81 59t-48 86.5t-16 104.5q0 77 27 157t77.5 145t121 106.5t157.5 41.5zM428 679q-67 0 -119.5 -40t-88.5 -101.5t-55 -135t-19 -140.5q0 -50 9 -94
t28 -76t49.5 -50.5t72.5 -18.5q67 0 119.5 40t88.5 101.5t55 135t19 140.5q0 50 -9 93.5t-28 76t-49.5 51t-72.5 18.5zM556 900l-1 -5l-170 -144h-19l85 149h105zM699 900l-1 -5l-170 -144h-19l85 149h105z" />
    <glyph glyph-name="ohungarumlaut" unicode="&#x151;" horiz-adv-x="480" 
d="M190 18q38 0 71 33t57 83.5t38 109.5t14 111q0 31 -4 58t-13.5 47t-25 31t-37.5 11q-38 0 -71 -33t-57 -83.5t-38 -109.5t-14 -111q0 -32 4 -58.5t13.5 -46.5t24.5 -31t38 -11zM180 -10q-75 0 -116.5 48t-41.5 136q0 60 21 123t58 114.5t88 85t111 33.5q75 0 116.5 -48
t41.5 -136q0 -60 -21 -123t-58 -114.5t-88 -85t-111 -33.5zM422 761l-1 -5l-190 -164h-19l113 169h97zM565 761l-1 -5l-190 -164h-19l113 169h97z" />
    <glyph glyph-name="OE" unicode="&#x152;" horiz-adv-x="960" 
d="M425 33l136 636h-92q-69 0 -128 -27.5t-102.5 -77.5t-68 -122t-24.5 -160q0 -58 13.5 -104t41 -78.5t70.5 -49.5t102 -17h52zM360 0q-74 0 -132.5 19.5t-99 56.5t-62 89t-21.5 117q0 97 33.5 174.5t92.5 132t138 84t171 29.5h512l-31 -167h-20q-8 40 -17.5 66t-23 41
t-32 21t-44.5 6h-169l-62 -290h149q32 0 52 22.5t38 67.5h27l-45 -213h-27q2 45 -9 67.5t-43 22.5h-149l-52 -245q-9 -41 11.5 -54.5t72.5 -13.5h82q27 0 49.5 8t45 26t47.5 46t57 67h24l-68 -180h-495z" />
    <glyph glyph-name="oe" unicode="&#x153;" horiz-adv-x="746" 
d="M501 -10q-52 0 -87.5 26.5t-52.5 71.5q-35 -44 -82 -71t-99 -27q-75 0 -116.5 48t-41.5 136q0 60 21 123t58 114.5t88 85t111 33.5q53 0 89 -27.5t53 -75.5q38 45 86.5 74t100.5 29q60 0 88.5 -28.5t28.5 -68.5q0 -48 -27 -81.5t-71.5 -57t-100.5 -39t-114 -27.5
q-1 -11 -1.5 -21.5t-0.5 -20.5q0 -69 27.5 -106.5t76.5 -37.5q44 0 81 26t74 74l18 -13q-48 -69 -97 -104t-110 -35zM190 18q38 0 71 33t57 83.5t38 109.5t14 111q0 31 -4 58t-13.5 47t-25 31t-37.5 11q-38 0 -71 -33t-57 -83.5t-38 -109.5t-14 -111q0 -32 4 -58.5
t13.5 -46.5t24.5 -31t38 -11zM611 499q-32 0 -61 -21.5t-52 -56.5t-39 -80t-23 -92q115 26 172 69.5t57 119.5q0 24 -12.5 42.5t-41.5 18.5z" />
    <glyph glyph-name="Racute" unicode="&#x154;" horiz-adv-x="674" 
d="M299 669l-70 -329h55q49 0 89.5 12.5t69.5 37.5t45 61t16 84q0 58 -33 96t-108 38h-64zM177 98q-5 -23 -3.5 -36t10.5 -19.5t25 -9.5t41 -6l-6 -27h-270l6 27q28 3 46 6.5t29.5 11t17 20t10.5 33.5l108 506q5 23 3.5 36t-10.5 19.5t-25 9.5t-41 6l6 27h268
q60 0 100.5 -13.5t65.5 -36.5t36 -53t11 -62q0 -52 -23.5 -90.5t-57 -64.5t-71.5 -41t-67 -20l119 -210q26 -45 51.5 -64t67.5 -20l-5 -27h-143q-19 15 -33.5 37t-31.5 52l-116 217h-73zM552 900l-1 -5l-160 -144h-17l66 149h112z" />
    <glyph glyph-name="racute" unicode="&#x155;" horiz-adv-x="388" 
d="M191 343l-41 -123q33 68 63 125t58 98t55 64t53 23q25 0 38 -15.5t13 -38.5q0 -32 -17 -50t-46 -32h-8q0 17 -5 29t-23 12q-20 0 -49.5 -31t-61 -88t-61.5 -137t-51 -179h-87l111 444l-61 31l3 12l157 43h10zM482 761l-1 -5l-178 -164h-17l90 169h106z" />
    <glyph glyph-name="Rcommaaccent" unicode="&#x156;" horiz-adv-x="674" 
d="M299 669l-70 -329h55q49 0 89.5 12.5t69.5 37.5t45 61t16 84q0 58 -33 96t-108 38h-64zM177 98q-5 -23 -3.5 -36t10.5 -19.5t25 -9.5t41 -6l-6 -27h-270l6 27q28 3 46 6.5t29.5 11t17 20t10.5 33.5l108 506q5 23 3.5 36t-10.5 19.5t-25 9.5t-41 6l6 27h268
q60 0 100.5 -13.5t65.5 -36.5t36 -53t11 -62q0 -52 -23.5 -90.5t-57 -64.5t-71.5 -41t-67 -20l119 -210q26 -45 51.5 -64t67.5 -20l-5 -27h-143q-19 15 -33.5 37t-31.5 52l-116 217h-73zM246 -149q-18 4 -25.5 15t-7.5 24q0 29 20 45.5t49 16.5t46 -17.5t17 -47.5
q0 -47 -36.5 -80t-109.5 -33l5 22q38 0 62 17t29 38h-49z" />
    <glyph glyph-name="rcommaaccent" unicode="&#x157;" horiz-adv-x="388" 
d="M191 343l-41 -123q33 68 63 125t58 98t55 64t53 23q25 0 38 -15.5t13 -38.5q0 -32 -17 -50t-46 -32h-8q0 17 -5 29t-23 12q-20 0 -49.5 -31t-61 -88t-61.5 -137t-51 -179h-87l111 444l-61 31l3 12l157 43h10zM12 -149q-18 4 -25.5 15t-7.5 24q0 29 20 45.5t49 16.5
t46 -17.5t17 -47.5q0 -47 -36.5 -80t-109.5 -33l5 22q38 0 62 17t29 38h-49z" />
    <glyph glyph-name="Rcaron" unicode="&#x158;" horiz-adv-x="674" 
d="M299 669l-70 -329h55q49 0 89.5 12.5t69.5 37.5t45 61t16 84q0 58 -33 96t-108 38h-64zM177 98q-5 -23 -3.5 -36t10.5 -19.5t25 -9.5t41 -6l-6 -27h-270l6 27q28 3 46 6.5t29.5 11t17 20t10.5 33.5l108 506q5 23 3.5 36t-10.5 19.5t-25 9.5t-41 6l6 27h268
q60 0 100.5 -13.5t65.5 -36.5t36 -53t11 -62q0 -52 -23.5 -90.5t-57 -64.5t-71.5 -41t-67 -20l119 -210q26 -45 51.5 -64t67.5 -20l-5 -27h-143q-19 15 -33.5 37t-31.5 52l-116 217h-73zM279 910h24l95 -94l141 94h28l-147 -159h-68z" />
    <glyph glyph-name="rcaron" unicode="&#x159;" horiz-adv-x="388" 
d="M191 343l-41 -123q33 68 63 125t58 98t55 64t53 23q25 0 38 -15.5t13 -38.5q0 -32 -17 -50t-46 -32h-8q0 17 -5 29t-23 12q-20 0 -49.5 -31t-61 -88t-61.5 -137t-51 -179h-87l111 444l-61 31l3 12l157 43h10zM189 766h24l95 -108l141 108h28l-147 -173h-68z" />
    <glyph glyph-name="Sacute" unicode="&#x15a;" horiz-adv-x="529" 
d="M479 208q0 -52 -21.5 -92.5t-57 -68.5t-81 -42.5t-94.5 -14.5q-40 0 -73.5 6.5t-61 17t-47.5 23.5t-33 25l26 167h26q9 -207 169 -207q71 0 113.5 39t42.5 108q0 28 -7.5 49.5t-24 39.5t-42.5 34.5t-64 34.5q-68 33 -103.5 75t-35.5 105q0 45 16.5 82.5t47.5 64.5
t75 42.5t98 15.5t102 -15t85 -44l-28 -147h-25q-1 87 -32.5 130.5t-107.5 43.5q-33 0 -60 -11t-45.5 -30t-28.5 -45t-10 -56q0 -48 26 -77.5t85 -56.5q37 -17 68 -36.5t54 -43t36 -52t13 -64.5zM535 900l-1 -5l-160 -144h-17l66 149h112z" />
    <glyph glyph-name="sacute" unicode="&#x15b;" horiz-adv-x="373" 
d="M176 27q40 0 60 20t20 57q0 19 -13.5 39t-33.5 41.5t-43.5 44.5t-43.5 47.5t-33.5 51t-13.5 54.5q0 31 12.5 58t34.5 47t52.5 31.5t66.5 11.5q57 0 89.5 -23.5t32.5 -61.5q0 -20 -14.5 -34t-29.5 -21h-4q-17 43 -45 72.5t-70 29.5q-34 0 -51.5 -19t-17.5 -51
q0 -17 13.5 -36.5t34 -41t44.5 -45t44.5 -48.5t34 -51t13.5 -52q0 -37 -14 -66t-38 -49.5t-55 -31.5t-65 -11q-68 0 -108 31t-40 75q0 22 11.5 40t31.5 27h5q15 -60 48.5 -98t84.5 -38zM446 761l-1 -5l-178 -164h-17l90 169h106z" />
    <glyph glyph-name="Scircumflex" unicode="&#x15c;" horiz-adv-x="529" 
d="M479 208q0 -52 -21.5 -92.5t-57 -68.5t-81 -42.5t-94.5 -14.5q-40 0 -73.5 6.5t-61 17t-47.5 23.5t-33 25l26 167h26q9 -207 169 -207q71 0 113.5 39t42.5 108q0 28 -7.5 49.5t-24 39.5t-42.5 34.5t-64 34.5q-68 33 -103.5 75t-35.5 105q0 45 16.5 82.5t47.5 64.5
t75 42.5t98 15.5t102 -15t85 -44l-28 -147h-25q-1 87 -32.5 130.5t-107.5 43.5q-33 0 -60 -11t-45.5 -30t-28.5 -45t-10 -56q0 -48 26 -77.5t85 -56.5q37 -17 68 -36.5t54 -43t36 -52t13 -64.5zM506 751h-24l-95 94l-141 -94h-28l147 159h68z" />
    <glyph glyph-name="scircumflex" unicode="&#x15d;" horiz-adv-x="373" 
d="M176 27q40 0 60 20t20 57q0 19 -13.5 39t-33.5 41.5t-43.5 44.5t-43.5 47.5t-33.5 51t-13.5 54.5q0 31 12.5 58t34.5 47t52.5 31.5t66.5 11.5q57 0 89.5 -23.5t32.5 -61.5q0 -20 -14.5 -34t-29.5 -21h-4q-17 43 -45 72.5t-70 29.5q-34 0 -51.5 -19t-17.5 -51
q0 -17 13.5 -36.5t34 -41t44.5 -45t44.5 -48.5t34 -51t13.5 -52q0 -37 -14 -66t-38 -49.5t-55 -31.5t-65 -11q-68 0 -108 31t-40 75q0 22 11.5 40t31.5 27h5q15 -60 48.5 -98t84.5 -38zM415 592h-24l-95 108l-141 -108h-28l147 173h68z" />
    <glyph glyph-name="Scedilla" unicode="&#x15e;" horiz-adv-x="529" 
d="M92 -195q61 0 94 15.5t33 40.5q0 21 -23.5 30.5t-65.5 11.5l49 90q-62 7 -104.5 28t-64.5 41l26 167h26q9 -207 169 -207q71 0 113.5 39t42.5 108q0 28 -7.5 49.5t-24 39.5t-42.5 34.5t-64 34.5q-68 33 -103.5 75t-35.5 105q0 45 16.5 82.5t47.5 64.5t75 42.5t98 15.5
t102 -15t85 -44l-28 -147h-25q-1 87 -32.5 130.5t-107.5 43.5q-33 0 -60 -11t-45.5 -30t-28.5 -45t-10 -56q0 -48 26 -77.5t85 -56.5q37 -17 68 -36.5t54 -43t36 -52t13 -64.5q0 -52 -21.5 -92.5t-57 -68.5t-81 -42.5t-94.5 -14.5h-11.5t-10.5 1l-20 -39q41 -1 68.5 -17.5
t27.5 -51.5q0 -26 -13.5 -45.5t-37.5 -32.5t-57.5 -19.5t-72.5 -6.5z" />
    <glyph glyph-name="scedilla" unicode="&#x15f;" horiz-adv-x="373" 
d="M6 -195q61 0 94 15.5t33 40.5q0 21 -23.5 30.5t-65.5 11.5l51 92q-47 10 -73.5 38t-26.5 63q0 22 11.5 40t31.5 27h5q15 -60 48.5 -98t84.5 -38q40 0 60 20t20 57q0 19 -13.5 39t-33.5 41.5t-43.5 44.5t-43.5 47.5t-33.5 51t-13.5 54.5q0 31 12.5 58t34.5 47t52.5 31.5
t66.5 11.5q57 0 89.5 -23.5t32.5 -61.5q0 -20 -14.5 -34t-29.5 -21h-4q-17 43 -45 72.5t-70 29.5q-34 0 -51.5 -19t-17.5 -51q0 -17 13.5 -36.5t34 -41t44.5 -45t44.5 -48.5t34 -51t13.5 -52q0 -37 -14 -66t-38 -49.5t-55 -31.5t-65 -11q-7 0 -13 0.5t-12 1.5l-21 -40
q41 -1 68.5 -17.5t27.5 -51.5q0 -26 -13.5 -45.5t-37.5 -32.5t-57.5 -19.5t-72.5 -6.5z" />
    <glyph glyph-name="Scaron" unicode="&#x160;" horiz-adv-x="529" 
d="M479 208q0 -52 -21.5 -92.5t-57 -68.5t-81 -42.5t-94.5 -14.5q-40 0 -73.5 6.5t-61 17t-47.5 23.5t-33 25l26 167h26q9 -207 169 -207q71 0 113.5 39t42.5 108q0 28 -7.5 49.5t-24 39.5t-42.5 34.5t-64 34.5q-68 33 -103.5 75t-35.5 105q0 45 16.5 82.5t47.5 64.5
t75 42.5t98 15.5t102 -15t85 -44l-28 -147h-25q-1 87 -32.5 130.5t-107.5 43.5q-33 0 -60 -11t-45.5 -30t-28.5 -45t-10 -56q0 -48 26 -77.5t85 -56.5q37 -17 68 -36.5t54 -43t36 -52t13 -64.5zM262 910h24l95 -94l141 94h28l-147 -159h-68z" />
    <glyph glyph-name="scaron" unicode="&#x161;" horiz-adv-x="373" 
d="M176 27q40 0 60 20t20 57q0 19 -13.5 39t-33.5 41.5t-43.5 44.5t-43.5 47.5t-33.5 51t-13.5 54.5q0 31 12.5 58t34.5 47t52.5 31.5t66.5 11.5q57 0 89.5 -23.5t32.5 -61.5q0 -20 -14.5 -34t-29.5 -21h-4q-17 43 -45 72.5t-70 29.5q-34 0 -51.5 -19t-17.5 -51
q0 -17 13.5 -36.5t34 -41t44.5 -45t44.5 -48.5t34 -51t13.5 -52q0 -37 -14 -66t-38 -49.5t-55 -31.5t-65 -11q-68 0 -108 31t-40 75q0 22 11.5 40t31.5 27h5q15 -60 48.5 -98t84.5 -38zM159 766h24l95 -108l141 108h28l-147 -173h-68z" />
    <glyph glyph-name="Tcommaaccent" unicode="&#x162;" horiz-adv-x="641" 
d="M336 100q-5 -23 -3 -36t12 -20.5t28.5 -10.5t45.5 -6l-6 -27h-290l6 27q31 3 51 7t32 11.5t18.5 20.5t11.5 34l121 571h-72q-33 0 -57 -8.5t-46 -28.5t-45.5 -54.5t-55.5 -86.5h-22l60 209h583l-30 -209h-22q-8 52 -14.5 86.5t-18 54.5t-31 28.5t-52.5 8.5h-83zM215 -149
q-18 4 -25.5 15t-7.5 24q0 29 20 45.5t49 16.5t46 -17.5t17 -47.5q0 -47 -36.5 -80t-109.5 -33l5 22q38 0 62 17t29 38h-49z" />
    <glyph glyph-name="tcommaaccent" unicode="&#x163;" horiz-adv-x="311" 
d="M130 130q-4 -16 -6 -28t-2 -22q0 -26 25 -26q28 0 54 20.5t69 69.5l15 -12q-52 -72 -94.5 -107t-84.5 -35q-33 0 -52 20t-19 54q0 17 2.5 35t8.5 41l83 331h-66l5 19q54 18 91.5 54.5t75.5 88.5h21l-31 -124h113l-10 -38h-112zM39 -149q-18 4 -25.5 15t-7.5 24
q0 29 20 45.5t49 16.5t46 -17.5t17 -47.5q0 -47 -36.5 -80t-109.5 -33l5 22q38 0 62 17t29 38h-49z" />
    <glyph glyph-name="Tcaron" unicode="&#x164;" horiz-adv-x="641" 
d="M336 100q-5 -23 -3 -36t12 -20.5t28.5 -10.5t45.5 -6l-6 -27h-290l6 27q31 3 51 7t32 11.5t18.5 20.5t11.5 34l121 571h-72q-33 0 -57 -8.5t-46 -28.5t-45.5 -54.5t-55.5 -86.5h-22l60 209h583l-30 -209h-22q-8 52 -14.5 86.5t-18 54.5t-31 28.5t-52.5 8.5h-83zM324 910
h24l95 -94l141 94h28l-147 -159h-68z" />
    <glyph glyph-name="tcaron" unicode="&#x165;" horiz-adv-x="311" 
d="M130 130q-4 -16 -6 -28t-2 -22q0 -26 25 -26q28 0 54 20.5t69 69.5l15 -12q-52 -72 -94.5 -107t-84.5 -35q-33 0 -52 20t-19 54q0 17 2.5 35t8.5 41l83 331h-66l5 19q54 18 91.5 54.5t75.5 88.5h21l-31 -124h113l-10 -38h-112zM278 544h-11l64 205h95l-1 -5z" />
    <glyph glyph-name="Tbar" unicode="&#x166;" horiz-adv-x="641" 
d="M188 380h113l62 291h-72q-33 0 -57 -8.5t-46 -28.5t-45.5 -54.5t-55.5 -86.5h-22l60 209h583l-30 -209h-22q-8 52 -14.5 86.5t-18 54.5t-31 28.5t-52.5 8.5h-83l-62 -291h118l-7 -34h-118l-52 -246q-5 -23 -3 -36t12 -20.5t28.5 -10.5t45.5 -6l-6 -27h-290l6 27
q31 3 51 7t32 11.5t18.5 20.5t11.5 34l52 246h-113z" />
    <glyph glyph-name="tbar" unicode="&#x167;" horiz-adv-x="331" 
d="M200 370h121l-8 -36h-122l-51 -204q-4 -16 -6 -28t-2 -22q0 -26 25 -26q28 0 54 20.5t69 69.5l15 -12q-52 -72 -94.5 -107t-84.5 -35q-33 0 -52 20t-19 54q0 17 2.5 35t8.5 41l48 194h-59l8 36h60l26 101h-66l5 19q54 18 91.5 54.5t75.5 88.5h21l-31 -124h113l-10 -38
h-112z" />
    <glyph glyph-name="Utilde" unicode="&#x168;" horiz-adv-x="703" 
d="M646 604q5 23 3.5 36t-10.5 19.5t-25 9.5t-41 6l6 27h215l-6 -27q-29 -3 -46.5 -6.5t-29 -11t-17.5 -20t-10 -33.5l-78 -367q-27 -126 -101.5 -186.5t-178.5 -60.5q-60 0 -109 18t-80.5 53t-42.5 87t3 120l71 336q5 23 3.5 36t-10.5 19.5t-25 9.5t-41 6l6 27h270l-6 -27
q-29 -3 -46.5 -6.5t-29 -11t-17.5 -20t-10 -33.5l-72 -340q-11 -50 -5.5 -91t24.5 -70.5t52 -45.5t78 -16q99 0 153.5 50.5t77.5 162.5zM550 754q-19 0 -34.5 8.5t-30.5 19t-30 19.5t-32 9q-22 0 -38 -13t-36 -44l-17 10q18 33 31.5 54.5t26.5 34.5t27 18.5t31 5.5
q19 0 34.5 -9t30.5 -19.5t29.5 -19t31.5 -8.5q22 0 38.5 13t35.5 44l18 -10q-18 -33 -31.5 -54.5t-26.5 -34.5t-27 -18.5t-31 -5.5z" />
    <glyph glyph-name="utilde" unicode="&#x169;" horiz-adv-x="555" 
d="M418 515l93 7l-99 -406q-4 -14 -6.5 -26t-2.5 -18q0 -15 14 -15t35 16.5t55 58.5l15 -11q-46 -68 -78.5 -99.5t-67.5 -31.5q-29 0 -43 18.5t-14 49.5q0 11 3.5 32t9.5 47.5t13.5 55t14.5 55.5q-17 -37 -44.5 -82t-61.5 -84t-72 -65.5t-74 -26.5q-37 0 -55.5 22t-18.5 55
q0 22 8 51l84 326l-61 31l3 12l157 43h10l-105 -408q-4 -14 -6 -25t-2 -21q0 -29 27 -29q24 0 57 25.5t67.5 71t64.5 107t48 133.5zM407 604q-19 0 -34.5 8.5t-30.5 19t-30 19.5t-32 9q-22 0 -38 -13t-36 -44l-17 10q18 33 31.5 54.5t26.5 34.5t27 18.5t31 5.5q19 0 34.5 -9
t30.5 -19.5t29.5 -19t31.5 -8.5q22 0 38.5 13t35.5 44l18 -10q-18 -33 -31.5 -54.5t-26.5 -34.5t-27 -18.5t-31 -5.5z" />
    <glyph glyph-name="Umacron" unicode="&#x16a;" horiz-adv-x="703" 
d="M646 604q5 23 3.5 36t-10.5 19.5t-25 9.5t-41 6l6 27h215l-6 -27q-29 -3 -46.5 -6.5t-29 -11t-17.5 -20t-10 -33.5l-78 -367q-27 -126 -101.5 -186.5t-178.5 -60.5q-60 0 -109 18t-80.5 53t-42.5 87t3 120l71 336q5 23 3.5 36t-10.5 19.5t-25 9.5t-41 6l6 27h270l-6 -27
q-29 -3 -46.5 -6.5t-29 -11t-17.5 -20t-10 -33.5l-72 -340q-11 -50 -5.5 -91t24.5 -70.5t52 -45.5t78 -16q99 0 153.5 50.5t77.5 162.5zM365 822h271l-10 -49h-271z" />
    <glyph glyph-name="umacron" unicode="&#x16b;" horiz-adv-x="555" 
d="M418 515l93 7l-99 -406q-4 -14 -6.5 -26t-2.5 -18q0 -15 14 -15t35 16.5t55 58.5l15 -11q-46 -68 -78.5 -99.5t-67.5 -31.5q-29 0 -43 18.5t-14 49.5q0 11 3.5 32t9.5 47.5t13.5 55t14.5 55.5q-17 -37 -44.5 -82t-61.5 -84t-72 -65.5t-74 -26.5q-37 0 -55.5 22t-18.5 55
q0 22 8 51l84 326l-61 31l3 12l157 43h10l-105 -408q-4 -14 -6 -25t-2 -21q0 -29 27 -29q24 0 57 25.5t67.5 71t64.5 107t48 133.5zM233 672h251l-10 -49h-251z" />
    <glyph glyph-name="Ubreve" unicode="&#x16c;" horiz-adv-x="703" 
d="M646 604q5 23 3.5 36t-10.5 19.5t-25 9.5t-41 6l6 27h215l-6 -27q-29 -3 -46.5 -6.5t-29 -11t-17.5 -20t-10 -33.5l-78 -367q-27 -126 -101.5 -186.5t-178.5 -60.5q-60 0 -109 18t-80.5 53t-42.5 87t3 120l71 336q5 23 3.5 36t-10.5 19.5t-25 9.5t-41 6l6 27h270l-6 -27
q-29 -3 -46.5 -6.5t-29 -11t-17.5 -20t-10 -33.5l-72 -340q-11 -50 -5.5 -91t24.5 -70.5t52 -45.5t78 -16q99 0 153.5 50.5t77.5 162.5zM494 748q-57 0 -87 38t-13 119h29q-4 -27 1 -45t16 -29t28 -15.5t37 -4.5q41 0 74 20t48 74h29q-17 -81 -58.5 -119t-103.5 -38z" />
    <glyph glyph-name="ubreve" unicode="&#x16d;" horiz-adv-x="555" 
d="M418 515l93 7l-99 -406q-4 -14 -6.5 -26t-2.5 -18q0 -15 14 -15t35 16.5t55 58.5l15 -11q-46 -68 -78.5 -99.5t-67.5 -31.5q-29 0 -43 18.5t-14 49.5q0 11 3.5 32t9.5 47.5t13.5 55t14.5 55.5q-17 -37 -44.5 -82t-61.5 -84t-72 -65.5t-74 -26.5q-37 0 -55.5 22t-18.5 55
q0 22 8 51l84 326l-61 31l3 12l157 43h10l-105 -408q-4 -14 -6 -25t-2 -21q0 -29 27 -29q24 0 57 25.5t67.5 71t64.5 107t48 133.5zM342 596q-57 0 -84.5 39t-10.5 120h29q-8 -54 14 -75t63 -21t71.5 21t45.5 75h29q-34 -159 -157 -159z" />
    <glyph glyph-name="Uring" unicode="&#x16e;" horiz-adv-x="703" 
d="M646 604q5 23 3.5 36t-10.5 19.5t-25 9.5t-41 6l6 27h215l-6 -27q-29 -3 -46.5 -6.5t-29 -11t-17.5 -20t-10 -33.5l-78 -367q-27 -126 -101.5 -186.5t-178.5 -60.5q-60 0 -109 18t-80.5 53t-42.5 87t3 120l71 336q5 23 3.5 36t-10.5 19.5t-25 9.5t-41 6l6 27h270l-6 -27
q-29 -3 -46.5 -6.5t-29 -11t-17.5 -20t-10 -33.5l-72 -340q-11 -50 -5.5 -91t24.5 -70.5t52 -45.5t78 -16q99 0 153.5 50.5t77.5 162.5zM555 829q0 23 -13.5 36t-35.5 13q-29 0 -45 -20t-16 -47q0 -23 13.5 -36t35.5 -13q29 0 45 20t16 47zM413 811q0 41 27 68t66 27
t60 -21.5t21 -55.5q0 -41 -27 -68t-66 -27t-60 21.5t-21 55.5z" />
    <glyph glyph-name="uring" unicode="&#x16f;" horiz-adv-x="555" 
d="M418 515l93 7l-99 -406q-4 -14 -6.5 -26t-2.5 -18q0 -15 14 -15t35 16.5t55 58.5l15 -11q-46 -68 -78.5 -99.5t-67.5 -31.5q-29 0 -43 18.5t-14 49.5q0 11 3.5 32t9.5 47.5t13.5 55t14.5 55.5q-17 -37 -44.5 -82t-61.5 -84t-72 -65.5t-74 -26.5q-37 0 -55.5 22t-18.5 55
q0 22 8 51l84 326l-61 31l3 12l157 43h10l-105 -408q-4 -14 -6 -25t-2 -21q0 -29 27 -29q24 0 57 25.5t67.5 71t64.5 107t48 133.5zM409 661q0 23 -13.5 36t-35.5 13q-29 0 -45 -20t-16 -47q0 -23 13.5 -36t35.5 -13q29 0 45 20t16 47zM267 643q0 41 27 68t66 27t60 -21.5
t21 -55.5q0 -41 -27 -68t-66 -27t-60 21.5t-21 55.5z" />
    <glyph glyph-name="Uhungarumlaut" unicode="&#x170;" horiz-adv-x="703" 
d="M646 604q5 23 3.5 36t-10.5 19.5t-25 9.5t-41 6l6 27h215l-6 -27q-29 -3 -46.5 -6.5t-29 -11t-17.5 -20t-10 -33.5l-78 -367q-27 -126 -101.5 -186.5t-178.5 -60.5q-60 0 -109 18t-80.5 53t-42.5 87t3 120l71 336q5 23 3.5 36t-10.5 19.5t-25 9.5t-41 6l6 27h270l-6 -27
q-29 -3 -46.5 -6.5t-29 -11t-17.5 -20t-10 -33.5l-72 -340q-11 -50 -5.5 -91t24.5 -70.5t52 -45.5t78 -16q99 0 153.5 50.5t77.5 162.5zM582 900l-1 -5l-170 -144h-19l85 149h105zM725 900l-1 -5l-170 -144h-19l85 149h105z" />
    <glyph glyph-name="uhungarumlaut" unicode="&#x171;" horiz-adv-x="555" 
d="M418 515l93 7l-99 -406q-4 -14 -6.5 -26t-2.5 -18q0 -15 14 -15t35 16.5t55 58.5l15 -11q-46 -68 -78.5 -99.5t-67.5 -31.5q-29 0 -43 18.5t-14 49.5q0 11 3.5 32t9.5 47.5t13.5 55t14.5 55.5q-17 -37 -44.5 -82t-61.5 -84t-72 -65.5t-74 -26.5q-37 0 -55.5 22t-18.5 55
q0 22 8 51l84 326l-61 31l3 12l157 43h10l-105 -408q-4 -14 -6 -25t-2 -21q0 -29 27 -29q24 0 57 25.5t67.5 71t64.5 107t48 133.5zM443 761l-1 -5l-190 -164h-19l113 169h97zM586 761l-1 -5l-190 -164h-19l113 169h97z" />
    <glyph glyph-name="Uogonek" unicode="&#x172;" horiz-adv-x="703" 
d="M361 -8q-8 -1 -16.5 -1.5t-17.5 -0.5q-60 0 -109 18t-80.5 53t-42.5 87t3 120l71 336q5 23 3.5 36t-10.5 19.5t-25 9.5t-41 6l6 27h270l-6 -27q-29 -3 -46.5 -6.5t-29 -11t-17.5 -20t-10 -33.5l-72 -340q-11 -50 -5.5 -91t24.5 -70.5t52 -45.5t78 -16q99 0 153.5 50.5
t77.5 162.5l75 350q5 23 3.5 36t-10.5 19.5t-25 9.5t-41 6l6 27h215l-6 -27q-29 -3 -46.5 -6.5t-29 -11t-17.5 -20t-10 -33.5l-78 -367q-20 -96 -68 -153.5t-117 -79.5q-26 -11 -49 -24.5t-40.5 -29t-28 -33t-10.5 -36.5q0 -21 13.5 -33t35.5 -12q46 0 99 47l8 -10
q-12 -13 -26.5 -27.5t-32.5 -27t-39 -20.5t-46 -8q-35 0 -57 17.5t-22 50.5q0 24 11 43.5t29 35.5t42.5 29.5t51.5 25.5z" />
    <glyph glyph-name="uogonek" unicode="&#x173;" horiz-adv-x="555" 
d="M319 58q0 11 3.5 32t9.5 47.5t13.5 55t14.5 55.5q-17 -37 -44.5 -82t-61.5 -84t-72 -65.5t-74 -26.5q-37 0 -55 22t-18 55q0 10 2 25t5 26l81 326l-61 31l3 12l157 43h10l-104 -416q-2 -10 -4 -19t-2 -19q0 -29 27 -29q24 0 57 25.5t67.5 71t64.5 107t48 133.5l32 131
l93 7l-99 -406q-4 -14 -6.5 -26t-2.5 -18q0 -15 14 -15t35 16.5t55 58.5l15 -11q-37 -51 -75 -85.5t-68.5 -61t-50 -48.5t-19.5 -48q0 -22 14 -32t35 -10q46 0 99 47l8 -10q-12 -13 -26.5 -27.5t-32.5 -27t-39 -20.5t-46 -8q-35 0 -56.5 17.5t-21.5 50.5q0 23 12 42.5
t30.5 36t41.5 30t44 25.5q-52 5 -52 66z" />
    <glyph glyph-name="Wcircumflex" unicode="&#x174;" horiz-adv-x="916" 
d="M619 138l249 453q6 11 12.5 24t6.5 24q0 16 -15.5 25t-66.5 11l6 27h196l-6 -27q-20 -3 -37 -8.5t-29 -28.5l-360 -647h-21l-50 425l-243 -425h-22l-93 647q-2 20 -16.5 27t-34.5 10l6 27h248l-6 -27q-59 -3 -80 -14t-21 -36q0 -9 0.5 -18t1.5 -15l62 -458l191 337
l-19 167q-2 20 -16.5 27t-34.5 10l6 27h239l-6 -27q-59 -3 -80 -14t-21 -36q0 -9 0.5 -18t1.5 -15zM698 751h-24l-95 94l-141 -94h-28l147 159h68z" />
    <glyph glyph-name="wcircumflex" unicode="&#x175;" horiz-adv-x="682" 
d="M265 475l4 12l132 43h3l28 -447l109 144q38 51 55.5 89t17.5 81q0 40 -25.5 60t-70.5 15v8q13 16 35 33t51 17q23 0 38 -7.5t24 -20t12.5 -27.5t3.5 -30q0 -25 -7 -50t-21.5 -52.5t-36 -59t-50.5 -68.5l-176 -225h-31l-20 253l-194 -253h-31l-36 459l-59 26l4 12l132 43
h3l30 -443l148 194l-13 168zM554 592h-24l-95 108l-141 -108h-28l147 173h68z" />
    <glyph glyph-name="Ycircumflex" unicode="&#x176;" horiz-adv-x="621" 
d="M321 100q-5 -23 -3 -36t12 -20.5t28.5 -10.5t45.5 -6l-6 -27h-285l6 27q31 3 51 7t32 11.5t18.5 20.5t11.5 34l38 182l-124 356q-7 20 -19 27t-32 10l6 27h247l-6 -27q-59 -2 -78.5 -10.5t-19.5 -29.5q0 -12 2.5 -21t6.5 -22l96 -269l210 268q8 10 18 25t10 27
q0 17 -17.5 23.5t-63.5 8.5l6 27h200l-6 -27q-21 -3 -36.5 -10.5t-30.5 -26.5l-279 -355zM577 751h-24l-95 94l-141 -94h-28l147 159h68z" />
    <glyph glyph-name="ycircumflex" unicode="&#x177;" horiz-adv-x="479" 
d="M19 475l4 12l132 43h3l78 -499q13 18 26.5 39t29.5 45q38 60 61.5 104t36 77t17 57t4.5 44q0 40 -25.5 60t-70.5 15v8q13 16 35 33t51 17q23 0 38 -7.5t24 -20t12.5 -27.5t3.5 -30q0 -47 -39 -128.5t-126 -217.5q-63 -99 -113 -159.5t-90 -92.5t-72 -42.5t-59 -10.5
q-17 0 -33 4.5t-28.5 13.5t-20 23.5t-7.5 34.5q0 23 13.5 40.5t33.5 23.5h4q0 -40 19 -62.5t53 -22.5q17 0 33.5 3t34.5 13t39.5 28.5t47.5 49.5l-89 506zM451 592h-24l-95 108l-141 -108h-28l147 173h68z" />
    <glyph glyph-name="Ydieresis" unicode="&#x178;" horiz-adv-x="621" 
d="M321 100q-5 -23 -3 -36t12 -20.5t28.5 -10.5t45.5 -6l-6 -27h-285l6 27q31 3 51 7t32 11.5t18.5 20.5t11.5 34l38 182l-124 356q-7 20 -19 27t-32 10l6 27h247l-6 -27q-59 -2 -78.5 -10.5t-19.5 -29.5q0 -12 2.5 -21t6.5 -22l96 -269l210 268q8 10 18 25t10 27
q0 17 -17.5 23.5t-63.5 8.5l6 27h200l-6 -27q-21 -3 -36.5 -10.5t-30.5 -26.5l-279 -355zM357 760q-26 0 -42 16.5t-16 41.5q0 26 18.5 45t44.5 19t42 -16.5t16 -41.5q0 -26 -18.5 -45t-44.5 -19zM543 760q-26 0 -42 16.5t-16 41.5q0 26 18.5 45t44.5 19t42 -16.5t16 -41.5
q0 -26 -18.5 -45t-44.5 -19z" />
    <glyph glyph-name="Zacute" unicode="&#x179;" horiz-adv-x="603" 
d="M327 33q31 0 54.5 8.5t46.5 28t48.5 51t60.5 77.5h24l-74 -198h-507l3 16l548 653h-215q-29 0 -50 -7.5t-40 -25.5t-39 -47t-47 -72h-23l45 185h495l-4 -17l-544 -652h218zM571 900l-1 -5l-160 -144h-17l66 149h112z" />
    <glyph glyph-name="zacute" unicode="&#x17a;" horiz-adv-x="454" 
d="M187 441q-25 0 -36 -7.5t-24 -26.5l-31 -47l-16 6l70 188h15q2 -16 7.5 -27.5t21.5 -11.5h290v-11l-393 -380l79 -29q18 -6 30.5 -10.5t23.5 -7t22 -4t25 -1.5q38 0 65 21t50 73l18 -7q-16 -46 -30.5 -78t-32 -52.5t-38.5 -29.5t-50 -9q-14 0 -27.5 2.5t-27.5 7.5t-31 13
t-38 20l-85 50l-38 -91q-21 1 -29.5 10.5t-8.5 20.5q0 23 22 45l388 373h-191zM507 761l-1 -5l-178 -164h-17l90 169h106z" />
    <glyph glyph-name="Zdotaccent" unicode="&#x17b;" horiz-adv-x="603" 
d="M327 33q31 0 54.5 8.5t46.5 28t48.5 51t60.5 77.5h24l-74 -198h-507l3 16l548 653h-215q-29 0 -50 -7.5t-40 -25.5t-39 -47t-47 -72h-23l45 185h495l-4 -17l-544 -652h218zM416 760q-25 0 -41.5 17t-16.5 41q0 26 18.5 45t44.5 19q25 0 41.5 -17t16.5 -41
q0 -26 -18.5 -45t-44.5 -19z" />
    <glyph glyph-name="zdotaccent" unicode="&#x17c;" horiz-adv-x="454" 
d="M187 441q-25 0 -36 -7.5t-24 -26.5l-31 -47l-16 6l70 188h15q2 -16 7.5 -27.5t21.5 -11.5h290v-11l-393 -380l79 -29q18 -6 30.5 -10.5t23.5 -7t22 -4t25 -1.5q38 0 65 21t50 73l18 -7q-16 -46 -30.5 -78t-32 -52.5t-38.5 -29.5t-50 -9q-14 0 -27.5 2.5t-27.5 7.5t-31 13
t-38 20l-85 50l-38 -91q-21 1 -29.5 10.5t-8.5 20.5q0 23 22 45l388 373h-191zM335 611q-25 0 -41.5 17t-16.5 41q0 26 18.5 45t44.5 19q25 0 41.5 -17t16.5 -41q0 -26 -18.5 -45t-44.5 -19z" />
    <glyph glyph-name="Zcaron" unicode="&#x17d;" horiz-adv-x="603" 
d="M327 33q31 0 54.5 8.5t46.5 28t48.5 51t60.5 77.5h24l-74 -198h-507l3 16l548 653h-215q-29 0 -50 -7.5t-40 -25.5t-39 -47t-47 -72h-23l45 185h495l-4 -17l-544 -652h218zM298 910h24l95 -94l141 94h28l-147 -159h-68z" />
    <glyph glyph-name="zcaron" unicode="&#x17e;" horiz-adv-x="454" 
d="M187 441q-25 0 -36 -7.5t-24 -26.5l-31 -47l-16 6l70 188h15q2 -16 7.5 -27.5t21.5 -11.5h290v-11l-393 -380l79 -29q18 -6 30.5 -10.5t23.5 -7t22 -4t25 -1.5q38 0 65 21t50 73l18 -7q-16 -46 -30.5 -78t-32 -52.5t-38.5 -29.5t-50 -9q-14 0 -27.5 2.5t-27.5 7.5t-31 13
t-38 20l-85 50l-38 -91q-21 1 -29.5 10.5t-8.5 20.5q0 23 22 45l388 373h-191zM215 766h24l95 -108l141 108h28l-147 -173h-68z" />
    <glyph glyph-name="florin" unicode="&#x192;" horiz-adv-x="470" 
d="M99 352h94l20 87q29 130 79.5 201.5t135.5 71.5q51 0 72 -19t21 -48q0 -27 -16 -42t-39 -22h-19q0 21 -1 40.5t-5 34.5t-12.5 23.5t-23.5 8.5q-14 0 -24.5 -8.5t-18.5 -23.5t-14.5 -34.5t-11.5 -41.5l-52 -228h105l-4 -28h-107l-46 -202q-30 -131 -80.5 -203t-135.5 -72
q-49 0 -71 19t-22 48q0 27 16 42t39 22h19q-2 -21 -1.5 -40.5t5 -34t13 -23.5t23.5 -9q26 0 42 24.5t26 68.5l82 360h-95z" />
    <glyph glyph-name="Aringacute" unicode="&#x1fa;" horiz-adv-x="696" 
d="M495 822q0 21 -12 32.5t-32 11.5q-27 0 -41 -18t-14 -43q0 -21 12 -32.5t32 -11.5q27 0 41 18t14 43zM623 1033l-1 -5l-140 -115h-17l50 120h108zM526 822q0 -38 -25 -63t-61 -25t-55.5 20t-19.5 51q0 38 25 63t61 25t55.5 -20t19.5 -51zM463 246h-284l-82 -135
q-20 -34 -20 -50q0 -18 20.5 -25t62.5 -9l-5 -27h-203l5 27q22 2 38.5 9.5t28.5 27.5l358 583l-14 64h96l128 -647q4 -20 17.5 -27.5t33.5 -9.5l-5 -27h-251l5 27q21 1 39 2.5t32 7.5t22 17t8 31q0 11 -3 25zM198 278h259l-62 323z" />
    <glyph glyph-name="aringacute" unicode="&#x1fb;" horiz-adv-x="539" 
d="M414 641q0 21 -12 32.5t-32 11.5q-27 0 -41 -18t-14 -43q0 -21 12 -32.5t32 -11.5q27 0 41 18t14 43zM552 852l-1 -5l-140 -115h-17l50 120h108zM445 641q0 -38 -25 -63t-61 -25t-55.5 20t-19.5 51q0 38 25 63t61 25t55.5 -20t19.5 -51zM157 53q30 0 63.5 27.5t67 79
t64 125t54.5 166.5q-11 24 -31.5 37.5t-46.5 13.5q-44 0 -83.5 -32t-69.5 -84t-48 -117.5t-18 -132.5q0 -39 12 -61t36 -22zM311 58q0 11 3.5 31.5t9 44.5t12.5 49t14 45q-21 -47 -48 -90t-56.5 -76t-60 -52.5t-60.5 -19.5q-51 0 -77 39t-26 107q0 79 27 150.5t69.5 125.5
t96.5 86t108 32q33 0 56 -10t43 -30l72 48h20l-35 -112l-75 -310q-4 -14 -6.5 -26t-2.5 -18q0 -15 14 -15t35 16.5t55 58.5l15 -11q-46 -68 -78.5 -99.5t-67.5 -31.5q-29 0 -43 18.5t-14 49.5z" />
    <glyph glyph-name="AEacute" unicode="&#x1fc;" horiz-adv-x="979" 
d="M349 0l6 27q28 3 46 6.5t29.5 11t17 20t10.5 33.5l31 148h-262l-112 -135q-12 -15 -19 -26.5t-7 -23.5q0 -18 20.5 -25t62.5 -9l-5 -27h-215l5 27q22 2 40.5 11.5t42.5 38.5l478 570q-13 11 -38.5 17.5t-52.5 10.5l6 27h578l-31 -167h-20q-8 40 -17.5 66t-23 41t-32 21
t-44.5 6h-169l-62 -290h149q32 0 52 22.5t38 67.5h27l-45 -213h-27q2 45 -9 67.5t-43 22.5h-149l-52 -245q-9 -41 11.5 -54.5t72.5 -13.5h82q27 0 49.5 8t45 26t47.5 46t57 67h24l-68 -180h-525zM254 278h242l84 392zM920 900l-1 -5l-160 -144h-17l66 149h112z" />
    <glyph glyph-name="aeacute" unicode="&#x1fd;" horiz-adv-x="715" 
d="M335 530q42 0 69 -16.5t47 -42.5q33 28 70 43.5t77 15.5q60 0 88.5 -28.5t28.5 -68.5q0 -48 -27 -81.5t-71.5 -57t-100.5 -39t-114 -27.5q-1 -11 -1.5 -21.5t-0.5 -20.5q0 -69 27.5 -106.5t76.5 -37.5q44 0 81 26t74 74l18 -13q-48 -69 -97 -104t-110 -35
q-72 0 -112.5 45.5t-44.5 120.5q-20 -35 -43 -65.5t-47.5 -53t-49 -35t-48.5 -12.5q-51 0 -77 39t-26 107q0 79 27 150.5t71 125.5t100 86t115 32zM157 53q35 0 76.5 39.5t81.5 113.5q7 68 36.5 131t74.5 110q-14 26 -37.5 40.5t-53.5 14.5q-47 0 -88 -32t-71.5 -84
t-48.5 -117.5t-18 -132.5q0 -39 12 -61t36 -22zM580 499q-32 0 -61 -21.5t-52 -56.5t-39 -80t-23 -92q115 26 172 69.5t57 119.5q0 24 -12.5 42.5t-41.5 18.5zM647 761l-1 -5l-178 -164h-17l90 169h106z" />
    <glyph glyph-name="Oslashacute" unicode="&#x1fe;" horiz-adv-x="696" 
d="M616 639q36 -38 54 -89.5t18 -109.5q0 -77 -27 -157t-77.5 -145t-121 -106.5t-157.5 -41.5q-51 0 -92 13.5t-72 36.5l-58 -73l-26 17l61 77q-37 38 -55 89.5t-18 111.5q0 77 27 157t77.5 145t121 106.5t157.5 41.5q52 0 93 -14t72 -38l49 62l26 -17zM428 679
q-67 0 -119.5 -40t-88.5 -101.5t-55 -135t-19 -140.5q0 -39 5.5 -74t16.5 -64l383 483q-19 34 -49.5 53t-73.5 19zM587 440q0 77 -21 136l-383 -484q19 -32 49 -50.5t73 -18.5q67 0 119.5 40t88.5 101.5t55 135t19 140.5zM629 900l-1 -5l-160 -144h-17l66 149h112z" />
    <glyph glyph-name="oslashacute" unicode="&#x1ff;" horiz-adv-x="480" 
d="M180 -10q-66 0 -106 37l-42 -54l-22 17l46 58q-34 48 -34 126q0 60 21 123t58 114.5t88 85t111 33.5q65 0 105 -37l39 49l22 -17l-42 -53q34 -48 34 -126q0 -60 -21 -123t-58 -114.5t-88 -85t-111 -33.5zM190 18q38 0 71 33t57 83.5t38 109.5t14 111q0 24 -3 45
l-248 -317q8 -30 25 -47.5t46 -17.5zM110 165q0 -12 0.5 -23t1.5 -22l249 316q-8 30 -25 48t-46 18q-38 0 -71 -33t-57 -83.5t-38 -109.5t-14 -111zM495 761l-1 -5l-178 -164h-17l90 169h106z" />
    <glyph glyph-name="Scommaaccent" unicode="&#x218;" horiz-adv-x="529" 
d="M479 208q0 -52 -21.5 -92.5t-57 -68.5t-81 -42.5t-94.5 -14.5q-40 0 -73.5 6.5t-61 17t-47.5 23.5t-33 25l26 167h26q9 -207 169 -207q71 0 113.5 39t42.5 108q0 28 -7.5 49.5t-24 39.5t-42.5 34.5t-64 34.5q-68 33 -103.5 75t-35.5 105q0 45 16.5 82.5t47.5 64.5
t75 42.5t98 15.5t102 -15t85 -44l-28 -147h-25q-1 87 -32.5 130.5t-107.5 43.5q-33 0 -60 -11t-45.5 -30t-28.5 -45t-10 -56q0 -48 26 -77.5t85 -56.5q37 -17 68 -36.5t54 -43t36 -52t13 -64.5zM152 -149q-18 4 -25.5 15t-7.5 24q0 29 20 45.5t49 16.5t46 -17.5t17 -47.5
q0 -47 -36.5 -80t-109.5 -33l5 22q38 0 62 17t29 38h-49z" />
    <glyph glyph-name="scommaaccent" unicode="&#x219;" horiz-adv-x="373" 
d="M176 27q40 0 60 20t20 57q0 19 -13.5 39t-33.5 41.5t-43.5 44.5t-43.5 47.5t-33.5 51t-13.5 54.5q0 31 12.5 58t34.5 47t52.5 31.5t66.5 11.5q57 0 89.5 -23.5t32.5 -61.5q0 -20 -14.5 -34t-29.5 -21h-4q-17 43 -45 72.5t-70 29.5q-34 0 -51.5 -19t-17.5 -51
q0 -17 13.5 -36.5t34 -41t44.5 -45t44.5 -48.5t34 -51t13.5 -52q0 -37 -14 -66t-38 -49.5t-55 -31.5t-65 -11q-68 0 -108 31t-40 75q0 22 11.5 40t31.5 27h5q15 -60 48.5 -98t84.5 -38zM71 -149q-18 4 -25.5 15t-7.5 24q0 29 20 45.5t49 16.5t46 -17.5t17 -47.5
q0 -47 -36.5 -80t-109.5 -33l5 22q38 0 62 17t29 38h-49z" />
    <glyph glyph-name="dotlessj" unicode="&#x237;" horiz-adv-x="240" 
d="M146 138q-21 -96 -46 -162t-55 -106.5t-65 -58.5t-76 -18q-38 0 -62.5 16.5t-24.5 46.5q0 27 17.5 40t37.5 18h9q4 -42 20 -67t39 -25q13 0 23.5 7t20 25.5t19.5 52t22 86.5l102 451l-61 31l3 12l155 43h10z" />
    <glyph glyph-name="circumflex" unicode="&#x2c6;" 
d="M394 592h-24l-95 108l-141 -108h-28l147 173h68z" />
    <glyph glyph-name="caron" unicode="&#x2c7;" 
d="M106 766h24l95 -108l141 108h28l-147 -173h-68z" />
    <glyph glyph-name="breve" unicode="&#x2d8;" 
d="M222 596q-57 0 -84.5 39t-10.5 120h29q-8 -54 14 -75t63 -21t71.5 21t45.5 75h29q-34 -159 -157 -159z" />
    <glyph glyph-name="dotaccent" unicode="&#x2d9;" 
d="M247 611q-25 0 -41.5 17t-16.5 41q0 26 18.5 45t44.5 19q25 0 41.5 -17t16.5 -41q0 -26 -18.5 -45t-44.5 -19z" />
    <glyph glyph-name="ring" unicode="&#x2da;" 
d="M305 661q0 23 -13.5 36t-35.5 13q-29 0 -45 -20t-16 -47q0 -23 13.5 -36t35.5 -13q29 0 45 20t16 47zM163 643q0 41 27 68t66 27t60 -21.5t21 -55.5q0 -41 -27 -68t-66 -27t-60 21.5t-21 55.5z" />
    <glyph glyph-name="ogonek" unicode="&#x2db;" 
d="M350 11q-28 -12 -54 -26t-46.5 -30t-32.5 -34.5t-12 -39.5t13.5 -33t35.5 -12q46 0 99 47l8 -10q-12 -13 -26.5 -27.5t-32.5 -27t-39 -20.5t-46 -8q-35 0 -57 17.5t-22 50.5q0 32 19 56.5t49 44t67 34.5t73 28z" />
    <glyph glyph-name="tilde" unicode="&#x2dc;" 
d="M301 604q-19 0 -34.5 8.5t-30.5 19t-30 19.5t-32 9q-22 0 -38 -13t-36 -44l-17 10q18 33 31.5 54.5t26.5 34.5t27 18.5t31 5.5q19 0 34.5 -9t30.5 -19.5t29.5 -19t31.5 -8.5q22 0 38.5 13t35.5 44l18 -10q-18 -33 -31.5 -54.5t-26.5 -34.5t-27 -18.5t-31 -5.5z" />
    <glyph glyph-name="hungarumlaut" unicode="&#x2dd;" 
d="M283 761l-1 -5l-190 -164h-19l113 169h97zM426 761l-1 -5l-190 -164h-19l113 169h97z" />
    <glyph glyph-name="Omega" unicode="&#x3a9;" horiz-adv-x="745" 
d="M463 686q-62 0 -109 -39.5t-78.5 -98.5t-47.5 -127t-16 -125q0 -43 7 -78.5t18 -63t25 -48.5t28 -36l-14 -70h-246l11 174h16q11 -36 20 -56.5t22.5 -31t33.5 -13.5t54 -3h69q-20 12 -44.5 35t-46.5 57.5t-36.5 78.5t-14.5 98q0 70 26 137t72.5 119.5t111 84.5t141.5 32
q50 0 92 -16t73 -46t48 -74t17 -101q0 -63 -23 -123t-62.5 -113t-91.5 -96.5t-110 -72.5h69q34 0 55.5 3t39 13.5t35.5 31t44 56.5h21l-61 -174h-251l14 70q48 36 88 85.5t69 107t45 119t16 120.5q0 85 -29.5 134.5t-99.5 49.5z" />
    <glyph glyph-name="mu" unicode="&#x3bc;" horiz-adv-x="571" 
d="M68 -186l-88 -10l159 640l-61 31l3 12l157 43h10l-104 -416q-2 -10 -4 -19t-2 -19q0 -29 27 -29q24 0 57 25.5t67.5 71t64.5 107t48 133.5l32 131l93 7l-99 -406q-4 -14 -6.5 -26t-2.5 -18q0 -15 14 -15t35 16.5t55 58.5l15 -11q-46 -68 -78.5 -99.5t-67.5 -31.5
q-29 0 -43 18.5t-14 49.5q0 11 3.5 32t9.5 47.5t13.5 55t14.5 55.5q-17 -37 -46.5 -81.5t-65.5 -83.5t-76 -65.5t-76 -26.5z" />
    <glyph glyph-name="pi" unicode="&#x3c0;" horiz-adv-x="630" 
d="M262 456q-16 -77 -31.5 -139t-31.5 -116t-34 -103t-39 -98h-101l2 11q24 43 52.5 91.5t56.5 103.5t52 117t39 133h-117l16 74h492l-33 -74h-80q-20 -73 -33.5 -130t-22.5 -101.5t-13 -77.5t-4 -59t13.5 -35.5t33.5 -9.5q7 0 22 1.5t27 4.5v-11q-32 -26 -58.5 -37
t-52.5 -11q-35 0 -55.5 21.5t-20.5 57.5q0 27 7.5 61.5t21.5 81t35.5 106.5t50.5 138h-194z" />
    <glyph glyph-name="Wgrave" unicode="&#x1e80;" horiz-adv-x="916" 
d="M619 138l249 453q6 11 12.5 24t6.5 24q0 16 -15.5 25t-66.5 11l6 27h196l-6 -27q-20 -3 -37 -8.5t-29 -28.5l-360 -647h-21l-50 425l-243 -425h-22l-93 647q-2 20 -16.5 27t-34.5 10l6 27h248l-6 -27q-59 -3 -80 -14t-21 -36q0 -9 0.5 -18t1.5 -15l62 -458l191 337
l-19 167q-2 20 -16.5 27t-34.5 10l6 27h239l-6 -27q-59 -3 -80 -14t-21 -36q0 -9 0.5 -18t1.5 -15zM525 900l46 -149h-17l-134 144v5h105z" />
    <glyph glyph-name="wgrave" unicode="&#x1e81;" horiz-adv-x="682" 
d="M265 475l4 12l132 43h3l28 -447l109 144q38 51 55.5 89t17.5 81q0 40 -25.5 60t-70.5 15v8q13 16 35 33t51 17q23 0 38 -7.5t24 -20t12.5 -27.5t3.5 -30q0 -25 -7 -50t-21.5 -52.5t-36 -59t-50.5 -68.5l-176 -225h-31l-20 253l-194 -253h-31l-36 459l-59 26l4 12l132 43
h3l30 -443l148 194l-13 168zM363 761l60 -169h-17l-143 164v5h100z" />
    <glyph glyph-name="Wacute" unicode="&#x1e82;" horiz-adv-x="916" 
d="M619 138l249 453q6 11 12.5 24t6.5 24q0 16 -15.5 25t-66.5 11l6 27h196l-6 -27q-20 -3 -37 -8.5t-29 -28.5l-360 -647h-21l-50 425l-243 -425h-22l-93 647q-2 20 -16.5 27t-34.5 10l6 27h248l-6 -27q-59 -3 -80 -14t-21 -36q0 -9 0.5 -18t1.5 -15l62 -458l191 337
l-19 167q-2 20 -16.5 27t-34.5 10l6 27h239l-6 -27q-59 -3 -80 -14t-21 -36q0 -9 0.5 -18t1.5 -15zM728 900l-1 -5l-160 -144h-17l66 149h112z" />
    <glyph glyph-name="wacute" unicode="&#x1e83;" horiz-adv-x="682" 
d="M265 475l4 12l132 43h3l28 -447l109 144q38 51 55.5 89t17.5 81q0 40 -25.5 60t-70.5 15v8q13 16 35 33t51 17q23 0 38 -7.5t24 -20t12.5 -27.5t3.5 -30q0 -25 -7 -50t-21.5 -52.5t-36 -59t-50.5 -68.5l-176 -225h-31l-20 253l-194 -253h-31l-36 459l-59 26l4 12l132 43
h3l30 -443l148 194l-13 168zM580 761l-1 -5l-178 -164h-17l90 169h106z" />
    <glyph glyph-name="Wdieresis" unicode="&#x1e84;" horiz-adv-x="916" 
d="M619 138l249 453q6 11 12.5 24t6.5 24q0 16 -15.5 25t-66.5 11l6 27h196l-6 -27q-20 -3 -37 -8.5t-29 -28.5l-360 -647h-21l-50 425l-243 -425h-22l-93 647q-2 20 -16.5 27t-34.5 10l6 27h248l-6 -27q-59 -3 -80 -14t-21 -36q0 -9 0.5 -18t1.5 -15l62 -458l191 337
l-19 167q-2 20 -16.5 27t-34.5 10l6 27h239l-6 -27q-59 -3 -80 -14t-21 -36q0 -9 0.5 -18t1.5 -15zM478 760q-26 0 -42 16.5t-16 41.5q0 26 18.5 45t44.5 19t42 -16.5t16 -41.5q0 -26 -18.5 -45t-44.5 -19zM664 760q-26 0 -42 16.5t-16 41.5q0 26 18.5 45t44.5 19t42 -16.5
t16 -41.5q0 -26 -18.5 -45t-44.5 -19z" />
    <glyph glyph-name="wdieresis" unicode="&#x1e85;" horiz-adv-x="682" 
d="M265 475l4 12l132 43h3l28 -447l109 144q38 51 55.5 89t17.5 81q0 40 -25.5 60t-70.5 15v8q13 16 35 33t51 17q23 0 38 -7.5t24 -20t12.5 -27.5t3.5 -30q0 -25 -7 -50t-21.5 -52.5t-36 -59t-50.5 -68.5l-176 -225h-31l-20 253l-194 -253h-31l-36 459l-59 26l4 12l132 43
h3l30 -443l148 194l-13 168zM332 608q-26 0 -42 16.5t-16 41.5q0 26 18.5 45t44.5 19t42 -16.5t16 -41.5q0 -26 -18.5 -45t-44.5 -19zM498 608q-26 0 -42 16.5t-16 41.5q0 26 18.5 45t44.5 19t42 -16.5t16 -41.5q0 -26 -18.5 -45t-44.5 -19z" />
    <glyph glyph-name="Ygrave" unicode="&#x1ef2;" horiz-adv-x="621" 
d="M321 100q-5 -23 -3 -36t12 -20.5t28.5 -10.5t45.5 -6l-6 -27h-285l6 27q31 3 51 7t32 11.5t18.5 20.5t11.5 34l38 182l-124 356q-7 20 -19 27t-32 10l6 27h247l-6 -27q-59 -2 -78.5 -10.5t-19.5 -29.5q0 -12 2.5 -21t6.5 -22l96 -269l210 268q8 10 18 25t10 27
q0 17 -17.5 23.5t-63.5 8.5l6 27h200l-6 -27q-21 -3 -36.5 -10.5t-30.5 -26.5l-279 -355zM404 900l46 -149h-17l-134 144v5h105z" />
    <glyph glyph-name="ygrave" unicode="&#x1ef3;" horiz-adv-x="479" 
d="M19 475l4 12l132 43h3l78 -499q13 18 26.5 39t29.5 45q38 60 61.5 104t36 77t17 57t4.5 44q0 40 -25.5 60t-70.5 15v8q13 16 35 33t51 17q23 0 38 -7.5t24 -20t12.5 -27.5t3.5 -30q0 -47 -39 -128.5t-126 -217.5q-63 -99 -113 -159.5t-90 -92.5t-72 -42.5t-59 -10.5
q-17 0 -33 4.5t-28.5 13.5t-20 23.5t-7.5 34.5q0 23 13.5 40.5t33.5 23.5h4q0 -40 19 -62.5t53 -22.5q17 0 33.5 3t34.5 13t39.5 28.5t47.5 49.5l-89 506zM260 761l60 -169h-17l-143 164v5h100z" />
    <glyph glyph-name="endash" unicode="&#x2013;" horiz-adv-x="540" 
d="M25 282l9 36h480l-9 -36h-480z" />
    <glyph glyph-name="emdash" unicode="&#x2014;" horiz-adv-x="960" 
d="M925 282h-900l9 36h900z" />
    <glyph glyph-name="quoteleft" unicode="&#x2018;" horiz-adv-x="198" 
d="M193 650q19 -4 32.5 -18t13.5 -38q0 -28 -18.5 -44.5t-44.5 -16.5q-29 0 -48 20t-19 53q0 29 13 54.5t35.5 45t52.5 32t65 15.5v-23q-20 -3 -39 -10t-35 -17.5t-26.5 -23.5t-11.5 -29h30z" />
    <glyph glyph-name="quoteright" unicode="&#x2019;" horiz-adv-x="198" 
d="M173 631q-19 4 -32.5 18t-13.5 38q0 28 18.5 44.5t44.5 16.5q29 0 48 -20t19 -53q0 -29 -13 -54.5t-35.5 -45t-53 -32t-64.5 -15.5v23q19 3 38.5 10t35.5 17.5t26 23.5t12 29h-30z" />
    <glyph glyph-name="quotesinglbase" unicode="&#x201a;" horiz-adv-x="198" 
d="M36 -1q-19 4 -32.5 18t-13.5 38q0 28 18.5 44.5t44.5 16.5q29 0 48 -20t19 -53q0 -29 -13 -54.5t-35.5 -45t-53 -32t-64.5 -15.5v23q19 3 38.5 10t35.5 17.5t26 23.5t12 29h-30z" />
    <glyph glyph-name="quotedblleft" unicode="&#x201c;" horiz-adv-x="356" 
d="M193 650q19 -4 32.5 -18t13.5 -38q0 -28 -18.5 -44.5t-44.5 -16.5q-29 0 -48 20t-19 53q0 29 13 54.5t35.5 45t52.5 32t65 15.5v-23q-20 -3 -39 -10t-35 -17.5t-26.5 -23.5t-11.5 -29h30zM351 650q19 -4 32.5 -18t13.5 -38q0 -28 -18.5 -44.5t-44.5 -16.5q-29 0 -48 20
t-19 53q0 29 13 54.5t35.5 45t52.5 32t65 15.5v-23q-20 -3 -39 -10t-35 -17.5t-26.5 -23.5t-11.5 -29h30z" />
    <glyph glyph-name="quotedblright" unicode="&#x201d;" horiz-adv-x="356" 
d="M331 631q-19 4 -32.5 18t-13.5 38q0 28 18.5 44.5t44.5 16.5q29 0 48 -20t19 -53q0 -29 -13 -54.5t-35.5 -45t-53 -32t-64.5 -15.5v23q19 3 38.5 10t35.5 17.5t26 23.5t12 29h-30zM173 631q-19 4 -32.5 18t-13.5 38q0 28 18.5 44.5t44.5 16.5q29 0 48 -20t19 -53
q0 -29 -13 -54.5t-35.5 -45t-53 -32t-64.5 -15.5v23q19 3 38.5 10t35.5 17.5t26 23.5t12 29h-30z" />
    <glyph glyph-name="quotedblbase" unicode="&#x201e;" horiz-adv-x="356" 
d="M194 -1q-19 4 -32.5 18t-13.5 38q0 28 18.5 44.5t44.5 16.5q29 0 48 -20t19 -53q0 -29 -13 -54.5t-35.5 -45t-53 -32t-64.5 -15.5v23q19 3 38.5 10t35.5 17.5t26 23.5t12 29h-30zM36 -1q-19 4 -32.5 18t-13.5 38q0 28 18.5 44.5t44.5 16.5q29 0 48 -20t19 -53
q0 -29 -13 -54.5t-35.5 -45t-53 -32t-64.5 -15.5v23q19 3 38.5 10t35.5 17.5t26 23.5t12 29h-30z" />
    <glyph glyph-name="dagger" unicode="&#x2020;" horiz-adv-x="352" 
d="M257 595q-7 -31 -1 -55t22 -35l-2 -8q-12 -14 -25.5 -43t-27 -69.5t-27 -89t-25.5 -99.5h-12q9 51 16 99.5t10.5 89t3 69.5t-6.5 43l2 8q20 11 36 35t23 55q-17 0 -32 -4t-29 -9t-27.5 -9t-26.5 -4q-15 0 -24 9t-9 23t11.5 24t29.5 10q13 0 26 -4t26 -9t27 -9t31 -4
q6 28 1.5 52t-4.5 46q0 51 38 51q16 0 22.5 -9.5t6.5 -21.5q0 -11 -6.5 -24.5t-15 -28.5t-16.5 -31.5t-12 -33.5q17 0 32 4t29 9t27 9t27 4q15 0 24 -9t9 -23t-11.5 -24t-29.5 -10q-14 0 -26.5 4t-25.5 9t-27 9t-31 4z" />
    <glyph glyph-name="daggerdbl" unicode="&#x2021;" horiz-adv-x="352" 
d="M203 344q17 0 32 4t29 9t27 9t27 4q15 0 24 -9t9 -23t-11.5 -24t-29.5 -10q-14 0 -26.5 4t-25.5 9t-27 9t-31 4q-2 -14 -1.5 -24.5t2 -20.5t3 -19.5t1.5 -21.5q0 -23 -10 -35.5t-28 -12.5q-16 0 -22.5 9.5t-6.5 21.5q0 11 6 23t14.5 24.5t16.5 26.5t11 29q-17 0 -32 -4
t-29 -9t-27.5 -9t-26.5 -4q-15 0 -24 9t-9 23t11.5 24t29.5 10q13 0 26 -4t26 -9t27 -9t31 -4q6 31 -1.5 46t-23.5 26l2 8q19 5 34 21.5t18 31.5t-5 31.5t-25 21.5l2 8q20 11 34 26t21 46q-17 0 -32 -4t-29 -9t-27.5 -9t-26.5 -4q-15 0 -24 9t-9 23t11.5 24t29.5 10
q13 0 26 -4t26 -9t27 -9t31 -4q2 14 1.5 24.5t-2 20.5t-3 19.5t-1.5 21.5q0 23 10 35.5t28 12.5q16 0 22.5 -9.5t6.5 -21.5q0 -11 -6 -23t-14.5 -24.5t-16.5 -26.5t-11 -29q17 0 32 4t29 9t27 9t27 4q15 0 24 -9t9 -23t-11.5 -24t-29.5 -10q-14 0 -26.5 4t-25.5 9t-27 9
t-31 4q-7 -31 1 -46t24 -26l-2 -8q-19 -5 -34 -21.5t-18 -31.5t5 -31.5t25 -21.5l-2 -8q-20 -11 -34.5 -26t-20.5 -46z" />
    <glyph glyph-name="bullet" unicode="&#x2022;" horiz-adv-x="304" 
d="M30 301q0 25 9.5 47.5t26 39t39 26t47.5 9.5t47.5 -9.5t39 -26t26 -39t9.5 -47.5t-9.5 -47.5t-26 -39t-39 -26t-47.5 -9.5t-47.5 9.5t-39 26t-26 39t-9.5 47.5z" />
    <glyph glyph-name="ellipsis" unicode="&#x2026;" horiz-adv-x="580" 
d="M-15 59q0 29 20 49t49 20t49 -20t20 -49t-20 -49t-49 -20t-49 20t-20 49zM175 59q0 29 20 49t49 20t49 -20t20 -49t-20 -49t-49 -20t-49 20t-20 49zM365 59q0 29 20 49t49 20t49 -20t20 -49t-20 -49t-49 -20t-49 20t-20 49z" />
    <glyph glyph-name="perthousand" unicode="&#x2030;" horiz-adv-x="1064" 
d="M242 712q30 0 55 -10.5t43.5 -29t29 -45t10.5 -59.5q0 -44 -15 -78.5t-40 -59t-56 -37.5t-63 -13q-30 0 -55 10.5t-43.5 29t-29 45t-10.5 59.5q0 43 15 78t40 59.5t56 37.5t63 13zM242 687q-26 0 -46 -16.5t-33.5 -43t-20.5 -59t-7 -64.5q0 -20 3 -38t11 -31.5
t21.5 -21.5t35.5 -8q26 0 46 16.5t33.5 42.5t20.5 59t7 65q0 20 -3 38t-11 31.5t-21.5 21.5t-35.5 8zM503 -10q-30 0 -55 10.5t-43.5 29t-29 45t-10.5 59.5q0 43 15 78t40 59.5t56 37.5t63 13q30 0 55 -10.5t43.5 -29t29 -45t10.5 -59.5q0 -44 -15 -78.5t-40 -59t-56 -37.5
t-63 -13zM94 -10h-40l597 722h40zM503 15q26 0 46 16.5t33.5 42.5t20.5 59t7 65q0 20 -3 38t-11 31.5t-21.5 21.5t-35.5 8q-26 0 -46 -16.5t-33.5 -43t-20.5 -59t-7 -64.5q0 -20 3 -38t11 -31.5t21.5 -21.5t35.5 -8zM847 -10q-30 0 -55 10.5t-43.5 29t-29 45t-10.5 59.5
q0 43 15 78t40 59.5t56 37.5t63 13q30 0 55 -10.5t43.5 -29t29 -45t10.5 -59.5q0 -44 -15 -78.5t-40 -59t-56 -37.5t-63 -13zM847 15q26 0 46 16.5t33.5 42.5t20.5 59t7 65q0 20 -3 38t-11 31.5t-21.5 21.5t-35.5 8q-26 0 -46 -16.5t-33.5 -43t-20.5 -59t-7 -64.5
q0 -20 3 -38t11 -31.5t21.5 -21.5t35.5 -8z" />
    <glyph glyph-name="guilsinglleft" unicode="&#x2039;" horiz-adv-x="288" 
d="M42 277l233 192h28l-168 -195l83 -195h-28l-149 192z" />
    <glyph glyph-name="guilsinglright" unicode="&#x203a;" horiz-adv-x="288" 
d="M254 271l-233 -192h-28l168 195l-83 195h28l149 -192z" />
    <glyph glyph-name="fraction" unicode="&#x2044;" horiz-adv-x="283" 
d="M438 712h40l-597 -722h-40z" />
    <glyph glyph-name="Euro" unicode="&#x20ac;" horiz-adv-x="622" 
d="M463 712q57 0 102 -15.5t77 -43.5l-26 -146h-29q3 172 -124 172q-47 0 -85.5 -21t-69 -55.5t-53 -80.5t-36.5 -95h284l-20 -31h-272q-5 -21 -8 -41.5t-5 -40.5h239l-20 -31h-221v-19q0 -116 32.5 -179t99.5 -63q73 0 121.5 49t87.5 150h32l-44 -178q-44 -26 -90.5 -40
t-106.5 -14q-57 0 -100 19.5t-72 55.5t-43.5 86.5t-14.5 113.5v19h-86l8 31h80q4 39 17 82h-81l8 31h83q20 58 53 109.5t76.5 90.5t95.5 62t111 23z" />
    <glyph glyph-name="trademark" unicode="&#x2122;" horiz-adv-x="827" 
d="M429 702l-13 -98h-20q-5 19 -8.5 33t-8.5 24t-14 15t-25 5h-26l-56 -257q-5 -23 6 -28t37 -7l-4 -19h-165l4 19q23 2 37.5 7t18.5 23l57 262h-26q-16 0 -27 -5t-20.5 -15t-19 -24t-22.5 -33h-21l28 98h288zM731 674q3 5 6 11.5t7 16.5h100l-4 -19q-22 -2 -32.5 -7.5
t-14.5 -19.5l-12 -243q-1 -14 7 -18t28 -6l-4 -19h-147l4 19q17 1 27.5 3t15.5 8t7 17t3 29l9 177l-138 -253h-21l-38 253l-64 -184q-10 -28 -5.5 -38t38.5 -12l-4 -19h-115l4 19q36 1 44 24l85 242q0 14 -6 20t-29 8l4 19h98v-16.5t1 -11.5l31 -212z" />
    <glyph glyph-name="uni2153" unicode="&#x2153;" horiz-adv-x="799" 
d="M697 712h40l-597 -722h-40zM295 712l-70 -331q-7 -32 9 -40t65 -10l-5 -23h-244l5 23q25 1 41 3t26.5 7t16 13.5t8.5 23.5l51 243h-87l4 17l21 4q23 4 42 9t35.5 12.5t31.5 19t30 29.5h20zM624 224q45 -6 72 -31t27 -67q0 -35 -14.5 -60.5t-37 -42.5t-51.5 -25t-57 -8
q-35 0 -59 7.5t-39.5 19t-22.5 26.5t-7 30q0 17 9.5 29t26.5 19h39q-6 -23 -6 -43q0 -26 14.5 -46t44.5 -20q38 0 62.5 26t24.5 71q0 37 -18.5 61t-54.5 24q-9 0 -16 -0.5t-18 -2.5l-3 16q23 7 45 17t39.5 22t28 27.5t10.5 34.5q0 20 -12 33.5t-38 13.5q-29 0 -53.5 -14
t-45.5 -35l-13 12q22 38 57.5 62.5t85.5 24.5q45 0 70 -20.5t25 -55.5q0 -23 -11 -40.5t-28 -30.5t-37.5 -21t-38.5 -13z" />
    <glyph glyph-name="uni2154" unicode="&#x2154;" horiz-adv-x="811" 
d="M709 712h40l-597 -722h-40zM636 224q45 -6 72 -31t27 -67q0 -35 -14.5 -60.5t-37 -42.5t-51.5 -25t-57 -8q-35 0 -59 7.5t-39.5 19t-22.5 26.5t-7 30q0 17 9.5 29t26.5 19h39q-6 -23 -6 -43q0 -26 14.5 -46t44.5 -20q38 0 62.5 26t24.5 71q0 37 -18.5 61t-54.5 24
q-9 0 -16 -0.5t-18 -2.5l-3 16q23 7 45 17t39.5 22t28 27.5t10.5 34.5q0 20 -12 33.5t-38 13.5q-29 0 -53.5 -14t-45.5 -35l-13 12q22 38 57.5 62.5t85.5 24.5q45 0 70 -20.5t25 -55.5q0 -23 -11 -40.5t-28 -30.5t-37.5 -21t-38.5 -13zM238 374q19 0 31.5 2t23.5 8t21.5 18
t25.5 32h18l-47 -126h-267l3 13q78 64 124 107.5t70.5 74t32 53.5t7.5 47q0 26 -17 42.5t-47 16.5q-31 0 -57 -16.5t-44 -36.5l-10 13q10 16 24.5 32t33.5 29t41 20.5t47 7.5q48 0 77 -26t29 -71q0 -35 -15.5 -61.5t-44 -53t-67.5 -56t-87 -69.5h94z" />
    <glyph glyph-name="uni215B" unicode="&#x215b;" horiz-adv-x="825" 
d="M765 315q0 -23 -9 -39t-24 -27t-34 -17.5t-39 -10.5q42 -21 61.5 -48.5t19.5 -58.5q0 -59 -41 -91.5t-106 -32.5q-31 0 -57 8t-45 22t-29.5 33t-10.5 41t10 40t26 31t36.5 22t41.5 14q-25 13 -41 37.5t-16 54.5q0 24 10 44.5t27.5 35.5t42 23.5t53.5 8.5q57 0 90.5 -26
t33.5 -64zM578 194q-35 -15 -50 -42t-15 -55q0 -36 21 -60.5t59 -24.5t61.5 22.5t23.5 57.5q0 43 -46 70zM647 228q26 15 43 36t17 54q0 26 -17 44.5t-49 18.5t-52 -18.5t-20 -50.5q0 -20 9 -33.5t32 -27.5zM697 712h40l-597 -722h-40zM295 712l-70 -331q-7 -32 9 -40
t65 -10l-5 -23h-244l5 23q25 1 41 3t26.5 7t16 13.5t8.5 23.5l51 243h-87l4 17l21 4q23 4 42 9t35.5 12.5t31.5 19t30 29.5h20z" />
    <glyph glyph-name="uni215C" unicode="&#x215c;" horiz-adv-x="825" 
d="M246 531q45 -6 72 -31t27 -67q0 -35 -14.5 -60.5t-37 -42.5t-51.5 -25t-57 -8q-35 0 -59 7.5t-39.5 19t-22.5 26.5t-7 30q0 17 9.5 29t26.5 19h39q-6 -23 -6 -43q0 -26 14.5 -46t44.5 -20q38 0 62.5 26t24.5 71q0 37 -18.5 61t-54.5 24q-9 0 -16 -0.5t-18 -2.5l-3 16
q23 7 45 17t39.5 22t28 27.5t10.5 34.5q0 20 -12 33.5t-38 13.5q-29 0 -53.5 -14t-45.5 -35l-13 12q22 38 57.5 62.5t85.5 24.5q45 0 70 -20.5t25 -55.5q0 -23 -11 -40.5t-28 -30.5t-37.5 -21t-38.5 -13zM765 315q0 -23 -9 -39t-24 -27t-34 -17.5t-39 -10.5
q42 -21 61.5 -48.5t19.5 -58.5q0 -59 -41 -91.5t-106 -32.5q-31 0 -57 8t-45 22t-29.5 33t-10.5 41t10 40t26 31t36.5 22t41.5 14q-25 13 -41 37.5t-16 54.5q0 24 10 44.5t27.5 35.5t42 23.5t53.5 8.5q57 0 90.5 -26t33.5 -64zM578 194q-35 -15 -50 -42t-15 -55
q0 -36 21 -60.5t59 -24.5t61.5 22.5t23.5 57.5q0 43 -46 70zM647 228q26 15 43 36t17 54q0 26 -17 44.5t-49 18.5t-52 -18.5t-20 -50.5q0 -20 9 -33.5t32 -27.5zM697 712h40l-597 -722h-40z" />
    <glyph glyph-name="uni215D" unicode="&#x215d;" horiz-adv-x="815" 
d="M309 702q20 0 30 4t20 18h21l-33 -93h-159l-24 -69q35 -1 66 -9t54 -24t36.5 -39t13.5 -54q0 -32 -11.5 -57.5t-31 -44t-46.5 -28.5t-58 -10q-63 0 -95 21.5t-32 55.5q0 20 10.5 34t25.5 22h38q-9 -24 -9 -46q0 -29 16.5 -46.5t45.5 -17.5q39 0 61 23.5t22 65.5
q0 51 -42.5 75t-111.5 24l66 195h127zM755 315q0 -23 -9 -39t-24 -27t-34 -17.5t-39 -10.5q42 -21 61.5 -48.5t19.5 -58.5q0 -59 -41 -91.5t-106 -32.5q-31 0 -57 8t-45 22t-29.5 33t-10.5 41t10 40t26 31t36.5 22t41.5 14q-25 13 -41 37.5t-16 54.5q0 24 10 44.5t27.5 35.5
t42 23.5t53.5 8.5q57 0 90.5 -26t33.5 -64zM568 194q-35 -15 -50 -42t-15 -55q0 -36 21 -60.5t59 -24.5t61.5 22.5t23.5 57.5q0 43 -46 70zM637 228q26 15 43 36t17 54q0 26 -17 44.5t-49 18.5t-52 -18.5t-20 -50.5q0 -20 9 -33.5t32 -27.5zM687 712h40l-597 -722h-40z" />
    <glyph glyph-name="uni215E" unicode="&#x215e;" horiz-adv-x="750" 
d="M192 629q-23 0 -38 -16t-34 -48h-25l57 137h283l-3 -12l-277 -393h-59l260 332h-164zM690 315q0 -23 -9 -39t-24 -27t-34 -17.5t-39 -10.5q42 -21 61.5 -48.5t19.5 -58.5q0 -59 -41 -91.5t-106 -32.5q-31 0 -57 8t-45 22t-29.5 33t-10.5 41t10 40t26 31t36.5 22t41.5 14
q-25 13 -41 37.5t-16 54.5q0 24 10 44.5t27.5 35.5t42 23.5t53.5 8.5q57 0 90.5 -26t33.5 -64zM503 194q-35 -15 -50 -42t-15 -55q0 -36 21 -60.5t59 -24.5t61.5 22.5t23.5 57.5q0 43 -46 70zM572 228q26 15 43 36t17 54q0 26 -17 44.5t-49 18.5t-52 -18.5t-20 -50.5
q0 -20 9 -33.5t32 -27.5zM622 712h40l-597 -722h-40z" />
    <glyph glyph-name="partialdiff" unicode="&#x2202;" horiz-adv-x="522" 
d="M308 530q37 0 67 -18q-18 69 -65.5 130.5t-142.5 110.5l14 17q71 -27 127.5 -68t95.5 -94t60 -117.5t21 -137.5q0 -68 -20 -133t-56.5 -116t-87.5 -82.5t-112 -31.5q-78 0 -125 52t-47 149q0 62 20.5 123t56.5 109t85.5 77.5t108.5 29.5zM391 363q0 58 -9 115
q-14 11 -32 16t-35 5q-42 0 -76 -32t-58 -81t-37 -107.5t-13 -111.5q0 -66 21.5 -106t59.5 -40q41 0 74 33.5t56.5 84.5t36 111t12.5 113z" />
    <glyph glyph-name="Delta" unicode="&#x2206;" horiz-adv-x="668" 
d="M-20 0l6 31l418 671h47l137 -671l-6 -31h-602zM30 34h455l-106 566z" />
    <glyph glyph-name="product" unicode="&#x220f;" horiz-adv-x="727" 
d="M284 670l-164 -769q-5 -21 -4 -33.5t9 -20t24.5 -11t43.5 -6.5l-5 -27h-269l5 27q28 3 46 6.5t29 11t16.5 20t10.5 33.5l150 703q4 21 3.5 33.5t-8.5 20t-24.5 11t-43.5 6.5l6 27h690l-6 -27q-29 -3 -46.5 -6.5t-29 -11t-17.5 -20t-10 -33.5l-150 -703q-5 -21 -4 -33.5
t9 -20t24.5 -11t43.5 -6.5l-5 -27h-270l5 27q28 3 46 6.5t29.5 11t17 20t10.5 33.5l164 769h-326z" />
    <glyph glyph-name="summation" unicode="&#x2211;" horiz-adv-x="571" 
d="M246 -114q37 0 62 2.5t45.5 13.5t42 33t52.5 61h19l-70 -193h-488l5 26l399 408l-210 435l7 30h481l-36 -167h-16q-6 33 -13.5 58t-20.5 42.5t-32.5 26.5t-49.5 9h-218l188 -393l-2 -6l-380 -386h235z" />
    <glyph glyph-name="minus" unicode="&#x2212;" horiz-adv-x="564" 
d="M81 397h438l-11 -52h-438z" />
    <glyph glyph-name="radical" unicode="&#x221a;" horiz-adv-x="557" 
d="M586 712h41l-412 -712h-50l-36 445q-2 30 -11.5 42t-40.5 12h-27l6 31h169l22 -405z" />
    <glyph glyph-name="infinity" unicode="&#x221e;" horiz-adv-x="693" 
d="M306 398q-23 32 -46.5 47.5t-54.5 15.5q-48 0 -81.5 -34.5t-33.5 -97.5q0 -39 23 -62.5t55 -23.5q37 0 62 15t56 46l51 50zM408 307q23 -33 46.5 -48t54.5 -15q48 0 81.5 34.5t33.5 97.5q0 39 -23 62.5t-55 23.5q-18 0 -33 -4t-28.5 -12.5t-27.5 -20.5t-30 -28l-49 -48z
M312 280q-35 -35 -67 -53t-71 -18q-54 0 -88.5 31.5t-34.5 91.5q0 36 12.5 65.5t34 51.5t51 34t63.5 12q42 0 70 -19t53 -56l26 -39l42 42q35 35 66.5 54t70.5 19q54 0 88.5 -31.5t34.5 -91.5q0 -36 -12.5 -65.5t-34 -51.5t-51 -34t-63.5 -12q-42 0 -69.5 18.5t-53.5 56.5
l-25 37z" />
    <glyph glyph-name="integral" unicode="&#x222b;" horiz-adv-x="416" 
d="M170 44q-24 -113 -74 -176.5t-137 -63.5q-39 0 -62.5 18.5t-23.5 51.5q0 20 12.5 34t35.5 21h19q1 -20 3 -38.5t6.5 -32.5t12.5 -22t22 -8q16 0 27.5 10t21 34t19 63.5t22.5 98.5l94 437q24 114 73.5 177.5t134.5 63.5q42 0 65.5 -19t23.5 -52q0 -20 -12.5 -34t-35.5 -21
h-19q-1 20 -3 38.5t-7 32.5t-14 22.5t-23 8.5q-15 0 -26 -10t-20.5 -34t-19 -63.5t-22.5 -98.5z" />
    <glyph glyph-name="approxequal" unicode="&#x2248;" horiz-adv-x="574" 
d="M97 451q37 21 69 30.5t58 9.5q28 0 51.5 -6t45 -13.5t44.5 -13.5t51 -6t59 9t69 31l-11 -52q-38 -22 -69 -31t-59 -9t-51 6t-44.5 13.5t-45 13.5t-51.5 6q-26 0 -58 -9.5t-69 -30.5zM67 307q37 22 68.5 31t57.5 9q28 0 51.5 -6t45 -13t44.5 -13t51 -6t59 8.5t69 30.5
l-11 -52q-38 -22 -69 -30.5t-59 -8.5t-51 6t-44.5 13t-45 13t-51.5 6q-26 0 -57.5 -9t-68.5 -30z" />
    <glyph glyph-name="notequal" unicode="&#x2260;" horiz-adv-x="574" 
d="M101 466h264l106 108h57l-106 -108h117l-11 -50h-155l-89 -91h225l-11 -49h-262l-106 -109h-57l106 109h-119l11 49h156l89 91h-226z" />
    <glyph glyph-name="lessequal" unicode="&#x2264;" horiz-adv-x="433" 
d="M82 408l346 166l-14 -60l-239 -113l191 -113l-11 -54l-274 166zM37 195h310l-11 -51h-310z" />
    <glyph glyph-name="greaterequal" unicode="&#x2265;" horiz-adv-x="433" 
d="M402 400l-346 -166l12 60l239 113l-191 113l13 54l274 -166zM347 144h-310l11 51h310z" />
    <glyph glyph-name="lozenge" unicode="&#x25ca;" horiz-adv-x="545" 
d="M479 356l-123 319l-260 -329l123 -319zM193 0l-138 351l276 351h51l138 -351l-276 -351h-51z" />
    <glyph glyph-name="published" horiz-adv-x="796" 
d="M378 320l-24 -108q-5 -24 8.5 -31.5t51.5 -8.5l-4 -18h-191l4 18q29 1 43 7.5t20 32.5l63 280q5 25 -6.5 32t-37.5 9l4 18h165q66 0 98 -29t32 -75q0 -54 -45.5 -90.5t-130.5 -36.5h-50zM382 344h36q22 0 42.5 5.5t36.5 17.5t25.5 31.5t9.5 46.5q0 35 -18 58.5t-60 23.5
h-30zM392 -10q-74 0 -135.5 25.5t-106 70.5t-69.5 106.5t-25 132.5q0 81 29.5 151.5t80.5 123t120.5 82.5t150.5 30q74 0 135.5 -25.5t106 -70.5t69.5 -106.5t25 -132.5q0 -81 -29.5 -151.5t-80.5 -123t-120.5 -82.5t-150.5 -30zM392 10q76 0 142 28.5t115 78t76.5 116.5
t27.5 144q0 67 -23.5 124.5t-65.5 100t-100 66.5t-127 24q-77 0 -142.5 -28.5t-114.5 -78t-76.5 -116.5t-27.5 -144q0 -67 23.5 -124.5t65.5 -100t100 -66.5t127 -24z" />
    <glyph glyph-name="commaaccent" 
d="M224 -149q-18 4 -25.5 15t-7.5 24q0 29 20 45.5t49 16.5t46 -17.5t17 -47.5q0 -47 -36.5 -80t-109.5 -33l5 22q38 0 62 17t29 38h-49z" />
    <glyph glyph-name="dotbelow" 
d="M247 -169q-25 0 -41.5 17t-16.5 41q0 26 18.5 45t44.5 19q25 0 41.5 -17t16.5 -41q0 -26 -18.5 -45t-44.5 -19z" />
    <glyph glyph-name="exclamdown.cap" horiz-adv-x="238" 
d="M173 499h15l-65 -499h-121zM276 643q0 -29 -20 -49t-49 -20t-49 20t-20 49t20 49t49 20t49 -20t20 -49z" />
    <glyph glyph-name="questiondown.cap" horiz-adv-x="440" 
d="M201 260q-51 -29 -80 -60.5t-29 -87.5q0 -44 24.5 -71.5t72.5 -27.5q45 0 71 29t26 80q0 16 -1.5 28t-3.5 20h70q10 -8 17 -23t7 -34q0 -28 -14 -51t-38.5 -39t-58.5 -24.5t-75 -8.5q-42 0 -75.5 11t-57 30.5t-36.5 48t-13 62.5q0 36 11 62.5t30.5 47.5t46.5 38t59 35
q53 29 88 61.5t35 81.5q0 9 -2.5 19.5t-5.5 21.5h16q18 -18 28.5 -43t10.5 -51q0 -52 -33 -87t-90 -68zM389 643q0 -29 -20 -49t-49 -20t-49 20t-20 49t20 49t49 20t49 -20t20 -49z" />
    <glyph glyph-name="guilsinglleft.cap" horiz-adv-x="288" 
d="M57 362l233 192h28l-168 -195l83 -195h-28l-149 192z" />
    <glyph glyph-name="guilsinglright.cap" horiz-adv-x="288" 
d="M269 356l-233 -192h-28l168 195l-83 195h28l149 -192z" />
    <glyph glyph-name="guillemotleft.cap" horiz-adv-x="441" 
d="M57 362l233 192h28l-168 -195l83 -195h-28l-149 192zM210 362l233 192h28l-168 -195l83 -195h-28l-149 192z" />
    <glyph glyph-name="guillemotright.cap" horiz-adv-x="441" 
d="M422 356l-233 -192h-28l168 195l-83 195h28l149 -192zM269 356l-233 -192h-28l168 195l-83 195h28l149 -192z" />
    <glyph glyph-name="slash.cap" horiz-adv-x="376" 
d="M-18 -101h-41l472 871h41z" />
    <glyph glyph-name="backslash.cap" horiz-adv-x="376" 
d="M142 770h36l102 -871h-36z" />
    <glyph glyph-name="bar.cap" horiz-adv-x="217" 
d="M54 -101h-37l185 871h37z" />
    <glyph glyph-name="brokenbar.cap" horiz-adv-x="217" 
d="M161 399h-37l79 371h37zM55 -101h-37l79 371h37z" />
    <glyph glyph-name="bullet.cap" horiz-adv-x="304" 
d="M44 361q0 25 9.5 47.5t26 39t39 26t47.5 9.5t47.5 -9.5t39 -26t26 -39t9.5 -47.5t-9.5 -47.5t-26 -39t-39 -26t-47.5 -9.5t-47.5 9.5t-39 26t-26 39t-9.5 47.5z" />
    <glyph glyph-name="periodcentered.cap" horiz-adv-x="206" 
d="M44 362q0 31 21 52t52 21t52 -21t21 -52t-21 -52t-52 -21t-52 21t-21 52z" />
    <glyph glyph-name="hyphen.cap" horiz-adv-x="320" 
d="M38 338l10 45h260l-10 -45h-260z" />
    <glyph glyph-name="endash.cap" horiz-adv-x="540" 
d="M39 342l9 36h480l-9 -36h-480z" />
    <glyph glyph-name="emdash.cap" horiz-adv-x="960" 
d="M939 342h-900l9 36h900z" />
    <glyph glyph-name="parenleft.cap" horiz-adv-x="338" 
d="M74 222q0 81 24.5 157t67.5 145t101 131t126 115h39q-72 -58 -125 -131.5t-87.5 -150.5t-51 -152.5t-16.5 -137.5q0 -90 19 -163.5t67 -136.5h-39q-62 74 -93.5 155t-31.5 169z" />
    <glyph glyph-name="parenright.cap" horiz-adv-x="338" 
d="M293 446q0 -81 -24.5 -157t-67.5 -145t-101.5 -131t-125.5 -115h-39q72 58 124.5 131.5t87 150.5t51.5 152.5t17 137.5q0 90 -19 163.5t-67 136.5h39q62 -74 93.5 -155t31.5 -169z" />
    <glyph glyph-name="bracketleft.cap" horiz-adv-x="312" 
d="M111 -15q-4 -20 0 -31t16.5 -17t33 -8t50.5 -4l-5 -26h-182l184 871h182l-5 -26q-30 -2 -52 -4t-37 -8t-24 -17.5t-13 -30.5z" />
    <glyph glyph-name="bracketright.cap" horiz-adv-x="312" 
d="M243 684q4 19 0 30.5t-16.5 17.5t-33 8t-50.5 4l5 26h182l-185 -871h-182l5 26q30 2 52 4t37 8t24 17t13 31z" />
    <glyph glyph-name="braceleft.cap" horiz-adv-x="341" 
d="M82 340q38 8 65.5 30t38.5 70l43 202q13 60 65.5 94t124.5 34l-4 -21q-45 -5 -73 -26t-39 -72l-44 -204q-11 -51 -41 -74t-84 -38q47 -15 67.5 -38t10.5 -74l-44 -204q-11 -51 8.5 -72t61.5 -26l-4 -21q-36 0 -64 9t-46 25.5t-25 40t-1 53.5l43 202q5 24 2.5 41t-11 29
t-22.5 19t-31 11z" />
    <glyph glyph-name="braceright.cap" horiz-adv-x="341" 
d="M301 330q-38 -8 -65.5 -30t-38.5 -70l-43 -202q-13 -60 -65.5 -94t-124.5 -34l4 21q45 5 73 26t39 72l44 204q11 51 41 74t84 38q-47 15 -68 38t-10 74l44 204q11 51 -8.5 72t-61.5 26l4 21q36 0 64 -9t46 -25.5t25 -40t1 -53.5l-43 -202q-5 -24 -2.5 -41t11 -29
t22.5 -19t31 -11z" />
    <glyph glyph-name="at.cap" horiz-adv-x="847" 
d="M600 131q-37 0 -60 13.5t-33.5 37.5t-10 57.5t10.5 74.5q-37 -83 -81 -132.5t-96 -49.5q-42 0 -67.5 32.5t-25.5 93.5q0 55 21.5 109t57.5 96.5t81.5 68.5t93.5 26q26 0 49 -9t40 -25l68 37h14l-30 -86l-61 -205q-5 -20 -7.5 -40t0 -35.5t12 -25.5t29.5 -10q43 0 74.5 25
t52 64.5t30.5 89t10 97.5q0 63 -17 114.5t-50.5 88.5t-84.5 57.5t-119 20.5q-88 0 -159 -37.5t-120.5 -99.5t-76.5 -141.5t-27 -163.5q0 -68 21.5 -124t61 -96t95.5 -61.5t125 -21.5q43 0 78.5 4t67.5 13t62.5 23t64.5 33l9 -14q-26 -21 -58.5 -38.5t-70 -30.5t-78.5 -20.5
t-83 -7.5q-85 0 -152.5 23.5t-114.5 67.5t-72 107t-25 143q0 90 33 174.5t92.5 150t142.5 105.5t184 40q79 0 141.5 -21.5t105.5 -62t65.5 -97.5t22.5 -128q0 -53 -16 -107.5t-46.5 -98t-74.5 -71t-99 -27.5zM360 181q24 0 51 24.5t54 66.5t51.5 99.5t42.5 123.5
q-10 20 -29.5 28.5t-38.5 8.5q-37 0 -68.5 -26.5t-55 -67t-36.5 -89t-13 -93.5q0 -33 11 -54t31 -21z" />
    <glyph glyph-name="grave.cap" 
d="M275 900l46 -149h-17l-134 144v5h105z" />
    <glyph glyph-name="acute.cap" 
d="M348 900l-1 -5l-160 -144h-17l66 149h112z" />
    <glyph glyph-name="circumflex.cap" 
d="M394 751h-24l-95 94l-141 -94h-28l147 159h68z" />
    <glyph glyph-name="tilde.cap" 
d="M301 754q-19 0 -34.5 8.5t-30.5 19t-30 19.5t-32 9q-22 0 -38 -13t-36 -44l-17 10q18 33 31.5 54.5t26.5 34.5t27 18.5t31 5.5q19 0 34.5 -9t30.5 -19.5t29.5 -19t31.5 -8.5q22 0 38.5 13t35.5 44l18 -10q-18 -33 -31.5 -54.5t-26.5 -34.5t-27 -18.5t-31 -5.5z" />
    <glyph glyph-name="macron.cap" 
d="M119 822h271l-10 -49h-271z" />
    <glyph glyph-name="breve.cap" 
d="M222 748q-57 0 -87 38t-13 119h29q-4 -27 1 -45t16 -29t28 -15.5t37 -4.5q41 0 74 20t48 74h29q-17 -81 -58.5 -119t-103.5 -38z" />
    <glyph glyph-name="dotaccent.cap" 
d="M247 760q-25 0 -41.5 17t-16.5 41q0 26 18.5 45t44.5 19q25 0 41.5 -17t16.5 -41q0 -26 -18.5 -45t-44.5 -19z" />
    <glyph glyph-name="dieresis.cap" 
d="M154 760q-26 0 -42 16.5t-16 41.5q0 26 18.5 45t44.5 19t42 -16.5t16 -41.5q0 -26 -18.5 -45t-44.5 -19zM340 760q-26 0 -42 16.5t-16 41.5q0 26 18.5 45t44.5 19t42 -16.5t16 -41.5q0 -26 -18.5 -45t-44.5 -19z" />
    <glyph glyph-name="ring.cap" 
d="M305 829q0 23 -13.5 36t-35.5 13q-29 0 -45 -20t-16 -47q0 -23 13.5 -36t35.5 -13q29 0 45 20t16 47zM163 811q0 41 27 68t66 27t60 -21.5t21 -55.5q0 -41 -27 -68t-66 -27t-60 21.5t-21 55.5z" />
    <glyph glyph-name="hungarumlaut.cap" 
d="M283 900l-1 -5l-170 -144h-19l85 149h105zM426 900l-1 -5l-170 -144h-19l85 149h105z" />
    <glyph glyph-name="caron.cap" 
d="M106 910h24l95 -94l141 94h28l-147 -159h-68z" />
    <glyph glyph-name="caron.Slovak" 
d="M181 578h-11l64 205h95l-1 -5z" />
    <glyph glyph-name="commaturn" 
d="M276 708q18 -4 25.5 -15t7.5 -24q0 -29 -20 -45.5t-49 -16.5t-46 17.5t-17 47.5q0 47 36.5 80t109.5 33l-5 -22q-38 0 -62 -17t-29 -38h49z" />
    <glyph glyph-name="cedilla.alt" 
d="M238 -48q48 0 76.5 -17t28.5 -52q0 -26 -13.5 -45.5t-37.5 -32.5t-57.5 -19.5t-72.5 -6.5l-6 26q61 0 94 15.5t33 40.5q0 21 -23.5 30.5t-65.5 11.5l27 49h17z" />
    <glyph glyph-name="idotaccent" horiz-adv-x="272" 
d="M123 444l-61 31l3 12l157 43h10l-104 -414q-4 -14 -6.5 -26t-2.5 -18q0 -15 14 -15t35 16.5t55 58.5l15 -11q-46 -68 -78.5 -99.5t-67.5 -31.5q-29 0 -44 18.5t-15 49.5q0 17 3 37t11 49zM217 611q-25 0 -41.5 17t-16.5 41q0 26 18.5 45t44.5 19q25 0 41.5 -17t16.5 -41
q0 -26 -18.5 -45t-44.5 -19z" />
    </font>
</defs>
</svg>
