<?xml version="1.0" standalone="no"?>
<!DOCTYPE svg PUBLIC "-//W3C//DTD SVG 1.1//EN" "http://www.w3.org/Graphics/SVG/1.1/DTD/svg11.dtd" >
<svg>
<metadata>
Created by FontForge 20090622 at Wed Dec 16 11:59:24 2015
 By deploy user
&#194;&#169; 2010 Klim Type Foundry. All rights reserved.
</metadata>
<defs>
<font id="TiemposHeadlineMedium-Italic" horiz-adv-x="500" >
  <font-face 
    font-family="Tiempos Headline Medium"
    font-weight="600"
    font-style="italic"
    font-stretch="normal"
    units-per-em="1000"
    panose-1="2 2 6 3 6 3 3 13 4 3"
    ascent="783"
    descent="-217"
    x-height="540"
    cap-height="702"
    bbox="-201 -236 1186 1040"
    underline-thickness="30"
    underline-position="-70"
    slope="-12"
    unicode-range="U+0020-U+FB04"
  />
<missing-glyph horiz-adv-x="960" 
d="M800 115v550l-275 -275zM160 665v-550l275 275zM480 435l279 279h-558zM201 66h558l-279 279zM90 780h780v-780h-780v780z" />
    <glyph glyph-name="ff" unicode="ff" horiz-adv-x="628" 
d="M387 729q-24 0 -44.5 -15.5t-36 -43.5t-25.5 -67t-14 -86h162q14 62 41 115q-6 39 -26.5 68t-56.5 29zM420 471h-160l-60 -262q-27 -119 -57.5 -199.5t-65 -130.5t-73 -71.5t-83.5 -21.5q-48 0 -79 19t-31 54q0 32 20.5 48.5t46.5 20.5h21q1 -48 12.5 -77.5t34.5 -29.5
q13 0 23 9.5t19.5 34.5t20 69t24.5 114l81 423h-75l8 32l77 19q13 54 38 98.5t59.5 77t77 50.5t91.5 18q46 0 81 -14.5t56 -37.5q30 32 68 50.5t83 18.5q51 0 84.5 -20.5t33.5 -62.5q0 -25 -15 -42t-41 -25h-46q1 21 1 41.5t-4.5 36.5t-13.5 26t-24 10q-16 0 -29.5 -18.5
t-24 -50t-18 -73t-10.5 -88.5h112l-11 -46h-107l-60 -266q-25 -112 -54.5 -189t-64 -125t-73.5 -69.5t-84 -21.5q-41 0 -67.5 17t-26.5 52q0 30 19.5 45t44.5 20h15q-1 -47 8.5 -73t28.5 -26q13 0 24 9.5t21 35t20.5 69.5t23.5 113z" />
    <glyph glyph-name="fi" unicode="fi" horiz-adv-x="608" 
d="M555 540h21l-103 -410q-4 -14 -6.5 -25t-2.5 -17q0 -15 14 -15t34.5 17.5t51.5 55.5l19 -16q-24 -35 -45.5 -61.5t-42 -44t-41.5 -26t-45 -8.5q-39 0 -59.5 23t-20.5 58q0 18 2.5 37t10.5 46l80 317h-162l-65 -288q-24 -109 -52.5 -184.5t-62 -123t-73 -68.5t-86.5 -21
q-48 0 -79 19t-31 54q0 32 20.5 48.5t46.5 20.5h21q1 -48 12.5 -77.5t34.5 -29.5q13 0 23 9.5t19.5 34.5t20 69t24.5 114l81 423h-75l8 32l77 19q14 57 39.5 105t62 82.5t83 54t101.5 19.5q28 0 53.5 -5.5t44.5 -16.5t30 -27t11 -37q0 -26 -15.5 -43t-44.5 -24h-55
q4 22 4 42.5t-5 37t-16.5 26.5t-29.5 10q-25 0 -45 -17t-35.5 -47t-25.5 -72t-14 -93h182z" />
    <glyph glyph-name="fl" unicode="fl" horiz-adv-x="608" 
d="M261 471l-65 -288q-25 -109 -53 -184.5t-61.5 -123t-73 -68.5t-86.5 -21q-48 0 -79.5 19t-31.5 54q0 32 21 48.5t47 20.5h21q1 -48 12.5 -77.5t33.5 -29.5q13 0 23 9.5t20 34.5t20 69t24 114l81 423h-74l7 32l77 18q13 54 37 102t57.5 83.5t76.5 56t94 20.5q31 0 60 -8.5
t49 -25.5l115 34h20l-159 -653l-6 -25q-2 -11 -2 -17q0 -15 14 -15t34 17.5t51 55.5l20 -16q-25 -35 -46.5 -61.5t-42 -44t-41.5 -26t-45 -8.5q-39 0 -59 23t-20 58q0 18 2.5 37t9.5 46l125 502q-11 45 -33 67.5t-51 22.5t-50 -17.5t-35 -48.5t-22 -72.5t-11 -90.5h105
l-11 -46h-99z" />
    <glyph glyph-name="ffi" unicode="ffi" horiz-adv-x="914" 
d="M387 729q-24 0 -44.5 -15.5t-36 -43.5t-25.5 -67t-14 -86h161l1 2q13 59 41 110q-5 40 -26 70t-57 30zM565 471l-60 -266q-26 -112 -55.5 -189t-63.5 -125t-73 -69.5t-84 -21.5q-41 0 -67.5 17t-26.5 52q0 30 19.5 45t44.5 20h15q-1 -47 8.5 -73t28.5 -26q13 0 24 9.5
t21 35t20.5 69.5t23.5 113l79 409h-159l-60 -262q-27 -119 -57.5 -199.5t-65 -130.5t-73 -71.5t-83.5 -21.5q-48 0 -79 19t-31 54q0 32 20.5 48.5t46.5 20.5h21q1 -48 12.5 -77.5t34.5 -29.5q13 0 23 9.5t19.5 34.5t20 69t24.5 114l81 423h-75l8 32l77 19q13 54 38 98.5
t59.5 77t77 50.5t91.5 18q48 0 84.5 -15.5t56.5 -41.5q36 35 82.5 54.5t102.5 19.5q28 0 53.5 -5.5t44.5 -16.5t30 -27t11 -37q0 -53 -61 -67h-54q4 22 4 42.5t-5.5 37t-16.5 26.5t-29 10q-25 0 -45 -17t-35.5 -47t-25.5 -72t-14 -93h182l106 23h21l-103 -410
q-4 -14 -6.5 -25t-2.5 -17q0 -15 14 -15t34 17.5t51 55.5l20 -16q-25 -35 -46.5 -61.5t-42 -44t-41.5 -26t-45 -8.5q-39 0 -59 23t-20 58q0 18 2.5 37t9.5 46l80 317h-162z" />
    <glyph glyph-name="ffl" unicode="ffl" horiz-adv-x="913" 
d="M429 519q14 60 41 110q-5 41 -26 70.5t-57 29.5q-24 0 -44.5 -15.5t-36 -43.5t-25.5 -67t-14 -86h161zM565 471l-60 -266q-26 -112 -55.5 -189t-63.5 -125t-73 -69.5t-84 -21.5q-41 0 -67.5 17t-26.5 52q0 30 19.5 45t44.5 20h15q-1 -47 8.5 -73t28.5 -26q13 0 24 9.5
t21 35t20.5 69.5t23.5 113l79 409h-159l-60 -262q-27 -119 -57.5 -199.5t-65 -130.5t-73 -71.5t-83.5 -21.5q-48 0 -79 19t-31 54q0 32 20.5 48.5t46.5 20.5h21q1 -48 12.5 -77.5t34.5 -29.5q13 0 23 9.5t19.5 34.5t20 69t24.5 114l81 423h-75l8 32l77 19q13 54 38 98.5
t59.5 77t77 50.5t91.5 18q48 0 83.5 -15t55.5 -40q33 33 74 52.5t91 19.5q32 0 60.5 -8.5t48.5 -25.5l115 34h21l-159 -653q-4 -14 -6.5 -25t-2.5 -17q0 -15 14 -15t34 17.5t51 55.5l20 -16q-25 -35 -46.5 -61.5t-42 -44t-41.5 -26t-45 -8.5q-39 0 -59 23t-20 58q0 18 3 37
t9 46l125 502q-11 45 -33 67.5t-51 22.5t-49.5 -18t-35 -49t-22 -72.5t-9.5 -89.5h103l-12 -46h-99z" />
    <glyph glyph-name=".notdef" horiz-adv-x="960" 
d="M800 115v550l-275 -275zM160 665v-550l275 275zM480 435l279 279h-558zM201 66h558l-279 279zM90 780h780v-780h-780v780z" />
    <glyph glyph-name=".null" horiz-adv-x="0" 
 />
    <glyph glyph-name="nonmarkingreturn" horiz-adv-x="333" 
 />
    <glyph glyph-name="space" unicode=" " horiz-adv-x="185" 
 />
    <glyph glyph-name="exclam" unicode="!" horiz-adv-x="266" 
d="M7 73q0 18 6.5 33.5t18 27t26.5 18t32 6.5t32 -6.5t26.5 -18t18 -27t6.5 -33.5q0 -34 -24 -58.5t-59 -24.5q-34 0 -58.5 24.5t-24.5 58.5zM135 219h-37l46 483h182z" />
    <glyph glyph-name="quotedbl" unicode="&#x22;" horiz-adv-x="309" 
d="M253 473l6 141q2 40 4 73.5t17 53.5q8 10 20 17t31 7q28 0 40.5 -15t12.5 -36q0 -27 -14 -54l-29 -53l-76 -134h-12zM106 473l6 141q2 40 4 73.5t17 53.5q8 10 20 17t32 7q27 0 39.5 -15t12.5 -36q0 -27 -14 -54l-29 -53l-76 -134h-12z" />
    <glyph glyph-name="numbersign" unicode="#" horiz-adv-x="536" 
d="M188 270h140l55 176h-140zM362 232l-76 -241l-42 13l72 228h-140l-76 -241l-42 13l72 228h-92v38h104l55 176h-107v39h120l72 228l42 -13l-68 -215h140l72 228l42 -13l-68 -215h88v-39h-101l-55 -176h104v-38h-116z" />
    <glyph glyph-name="dollar" unicode="$" horiz-adv-x="560" 
d="M218 549q0 -39 19.5 -64t61.5 -48l52 235h-4q-58 0 -93.5 -34.5t-35.5 -88.5zM380 158q0 39 -20.5 65t-62.5 50l-53 -241q59 2 97.5 34t38.5 92zM510 221q0 -56 -22.5 -98.5t-60 -71.5t-87.5 -44.5t-105 -16.5l-22 -103h-35l23 104q-72 5 -123 29t-77 48l29 169h36
q2 -90 39 -142.5t105 -61.5l57 257l-24 12q-69 33 -109.5 76.5t-40.5 112.5q0 50 18.5 90.5t53 69.5t82.5 45t108 16h5l21 97h34l-22 -99q51 -5 93.5 -22.5t71.5 -42.5l-29 -149h-35q-1 72 -27 116.5t-83 55.5l-54 -246q0 -1 2 -1q36 -17 68 -36t56.5 -43t39 -54t14.5 -67z
" />
    <glyph glyph-name="percent" unicode="%" horiz-adv-x="757" 
d="M521 20q22 0 40 17t30.5 44.5t19.5 62t7 70.5t-10.5 61t-44.5 25q-22 0 -40 -17t-30.5 -44.5t-19.5 -62t-7 -70.5t11 -61t44 -25zM112 -10h-49l601 722h48zM519 -10q-30 0 -55.5 9.5t-45 28t-30.5 45.5t-11 61q0 46 16.5 82.5t43.5 62t60.5 38.5t67.5 13q30 0 55.5 -9.5
t45 -28t30.5 -45.5t11 -61q0 -47 -16.5 -83t-43.5 -61.5t-60.5 -38.5t-67.5 -13zM255 682q-22 0 -40 -17t-30.5 -44.5t-19.5 -62t-7 -70.5t11 -61t44 -25q22 0 40 17t30.5 44.5t19.5 62t7 70.5t-10.5 61t-44.5 25zM257 712q30 0 55.5 -9.5t45 -28t30.5 -45.5t11 -61
q0 -47 -16.5 -83t-43.5 -61.5t-60.5 -38.5t-67.5 -13q-30 0 -55.5 9.5t-45 28t-30.5 45.5t-11 61q0 46 16.5 82.5t43.5 62t60.5 38.5t67.5 13z" />
    <glyph glyph-name="ampersand" unicode="&#x26;" horiz-adv-x="694" 
d="M296 563q0 -42 16.5 -75t33.5 -59l6 -10q54 21 81.5 58t27.5 100q0 45 -20 72t-60 27t-62.5 -30.5t-22.5 -82.5zM289 55q27 0 55 9t54 25l-11 18l-160 256q-45 -23 -66 -66t-21 -94q0 -35 11 -62.5t31 -46.5t47.5 -29t59.5 -10zM10 173q0 43 15.5 77.5t43 60.5t64.5 44.5
t80 29.5q-14 24 -26 58.5t-12 76.5q0 41 16 76t45 61t69.5 40.5t88.5 14.5q40 0 72.5 -10.5t54.5 -28.5t34 -42.5t12 -53.5q0 -35 -15 -63t-41.5 -50t-63.5 -38t-81 -28l133 -210q20 31 32 64.5t12 67.5q0 19 -13.5 26t-34.5 7l6 35h206l-6 -35q-29 0 -47 -3t-30.5 -11
t-21 -22t-16.5 -36q-14 -34 -30.5 -65.5t-36.5 -59.5l33 -51q20 -29 44.5 -49.5t63.5 -20.5l-8 -35h-170q-19 12 -33 25.5t-27 30.5q-44 -31 -95 -48.5t-111 -17.5q-41 0 -78.5 12t-66 35.5t-45 57.5t-16.5 78z" />
    <glyph glyph-name="quotesingle" unicode="'" horiz-adv-x="162" 
d="M106 473l6 141q2 40 4 73.5t17 53.5q8 10 20 17t32 7q27 0 39.5 -15t12.5 -36q0 -27 -15 -54l-28 -53l-76 -134h-12z" />
    <glyph glyph-name="parenleft" unicode="(" horiz-adv-x="355" 
d="M72 202q0 85 25.5 164.5t70.5 152t105.5 136t129.5 115.5h47q-72 -65 -124 -143t-85 -159.5t-49 -161t-16 -147.5q0 -86 18 -160.5t62 -140.5h-47q-67 72 -102 159.5t-35 184.5z" />
    <glyph glyph-name="parenright" unicode=")" horiz-adv-x="355" 
d="M311 426q0 -85 -25.5 -164.5t-70.5 -152t-105.5 -136t-129.5 -115.5h-47q72 65 124 143t85 159.5t49 161t16 147.5q0 86 -18 160.5t-62 140.5h47q68 -72 102.5 -159.5t34.5 -184.5z" />
    <glyph glyph-name="asterisk" unicode="*" horiz-adv-x="424" 
d="M294 570l106 -81q22 -15 23 -33.5t-13 -31.5q-14 -12 -32 -7.5t-30 28.5l-63 118l-17 -132q-2 -26 -17 -37t-33 -5q-19 7 -24 24.5t10 39.5l70 113l-123 -50q-23 -11 -40 -3.5t-21 26.5q-3 19 9.5 32t39.5 11l133 -3l-105 81q-22 14 -23.5 32.5t12.5 31.5q14 12 32 7.5
t31 -28.5l62 -118l18 133q2 26 17 36.5t33 4.5q18 -7 23 -24t-9 -40l-71 -114l123 51q24 11 41 4t20 -26q4 -19 -9 -32.5t-40 -11.5z" />
    <glyph glyph-name="plus" unicode="+" horiz-adv-x="569" 
d="M378 590l-41 -190h190l-13 -60h-190l-40 -190h-62l40 190h-189l13 60h189l41 190h62z" />
    <glyph glyph-name="comma" unicode="," horiz-adv-x="234" 
d="M53 2q-26 5 -43 22.5t-17 49.5q0 35 23 55.5t57 20.5q41 0 63 -26.5t22 -70.5q0 -37 -15 -68t-42 -54t-64 -36.5t-81 -14.5v33q54 7 90.5 28t40.5 61h-34z" />
    <glyph glyph-name="hyphen" unicode="-" horiz-adv-x="320" 
d="M24 273l14 63h260l-14 -63h-260z" />
    <glyph glyph-name="period" unicode="." horiz-adv-x="234" 
d="M-10 77q0 37 25.5 62t61.5 25t61.5 -25t25.5 -62q0 -38 -25.5 -62.5t-61.5 -24.5t-61.5 24.5t-25.5 62.5z" />
    <glyph glyph-name="slash" unicode="/" horiz-adv-x="369" 
d="M-22 -141h-60l480 911h62z" />
    <glyph glyph-name="zero" unicode="0" horiz-adv-x="630" 
d="M263 26q31 0 59.5 24t52.5 63.5t43.5 90t33 105t21 107.5t7.5 97q0 34 -3.5 63.5t-13 51.5t-25 35t-39.5 13q-31 0 -59 -24t-52 -63.5t-43.5 -90t-33 -105t-20.5 -107.5t-7 -97q0 -34 3.5 -63.5t12 -51.5t24 -35t39.5 -13zM263 -10q-53 0 -95 20.5t-71 56t-44.5 84
t-15.5 104.5q0 84 26 166t73.5 146.5t114.5 104.5t150 40q53 0 95 -20.5t71 -56t44.5 -84t15.5 -104.5q0 -84 -26 -166t-73.5 -146.5t-115 -104.5t-149.5 -40z" />
    <glyph glyph-name="one" unicode="1" horiz-adv-x="422" 
d="M391 711l-126 -591q-5 -28 -3 -44.5t13.5 -25.5t33 -11.5t54.5 -3.5l-8 -35h-372l8 35q36 1 58.5 4t35.5 10.5t19.5 20.5t11.5 36l96 453h-123l7 32l39 6q34 6 64 14.5t57.5 22t52.5 32.5t51 45h31z" />
    <glyph glyph-name="two" unicode="2" horiz-adv-x="541" 
d="M290 120q33 0 56.5 3t43 13.5t37.5 31t41 55.5h30l-74 -223h-463l5 25l150 125q65 56 112 100.5t78 79.5t49 65t25.5 57.5t7.5 55.5q0 48 -30 76.5t-83 28.5q-56 0 -96 -24t-72 -59l-16 20q20 33 45 62.5t56.5 51.5t69 35t82.5 13q89 0 139.5 -46.5t50.5 -125.5
q0 -60 -33 -110t-89 -99t-130 -99l-154 -112h162z" />
    <glyph glyph-name="three" unicode="3" horiz-adv-x="533" 
d="M177 368q44 11 82 26.5t66.5 36.5t45 47.5t16.5 59.5q0 38 -24.5 62.5t-68.5 24.5q-45 0 -84 -21.5t-74 -59.5l-17 21q20 31 45.5 58t56 46.5t66.5 31t77 11.5q39 0 69.5 -10.5t51.5 -28.5t32 -42.5t11 -52.5q0 -42 -19 -72t-47.5 -51.5t-63.5 -35t-66 -21.5
q36 -3 66.5 -17.5t53 -36.5t35.5 -50.5t13 -61.5q0 -61 -26.5 -106.5t-68.5 -75.5t-93.5 -45t-101.5 -15q-56 0 -96.5 12t-66.5 32.5t-38.5 46.5t-12.5 54q0 34 19 55t44 32h73q-8 -17 -12.5 -33.5t-4.5 -40.5t5.5 -46.5t17 -40t30 -27.5t44.5 -10q33 0 60 16t46 42.5
t29.5 59.5t10.5 66q0 66 -31.5 101.5t-86.5 35.5q-14 0 -27.5 -1.5t-30.5 -6.5z" />
    <glyph glyph-name="four" unicode="4" horiz-adv-x="626" 
d="M319 190h-318l6 27l465 485h101l-101 -468h117l-10 -44h-116l-18 -87q-4 -21 -3.5 -33.5t8 -19.5t23 -10t41.5 -5l-8 -35h-310l8 35q27 2 44 5.5t27.5 10.5t16 19.5t9.5 32.5zM329 234l70 331l-319 -331h249z" />
    <glyph glyph-name="five" unicode="5" horiz-adv-x="530" 
d="M168 455q63 1 121 -10t102.5 -38t71 -70t26.5 -105q0 -55 -20.5 -100t-57 -76.5t-85.5 -48.5t-106 -17q-104 0 -162 39t-58 102q0 33 17 56t43 33h71q-8 -18 -11.5 -34.5t-3.5 -36.5q0 -53 30 -88.5t85 -35.5q29 0 54 10.5t43 29.5t28.5 46t10.5 60q0 51 -22 84t-60.5 52
t-89.5 25.5t-109 5.5l117 361h256q13 0 22 1t16.5 5.5t15 13t18.5 23.5h31l-62 -170h-298z" />
    <glyph glyph-name="six" unicode="6" horiz-adv-x="581" 
d="M302 398q-58 0 -101 -34q-24 -75 -24 -163q0 -36 5.5 -68t17.5 -55.5t31 -37t46 -13.5q33 0 59 18.5t44.5 49t28 70t9.5 81.5q0 32 -6.5 59.5t-20.5 48t-36 32.5t-53 12zM571 685q-131 -27 -224.5 -103.5t-137.5 -192.5q32 29 72.5 46t86.5 17q45 0 80 -14.5t59 -39.5
t36.5 -59t12.5 -73q0 -60 -22.5 -111t-61 -87.5t-90 -57t-108.5 -20.5q-56 0 -100 18.5t-74.5 51.5t-46.5 78t-16 98q0 90 38.5 172t108 145.5t165 105t209.5 52.5z" />
    <glyph glyph-name="seven" unicode="7" horiz-adv-x="517" 
d="M220 565q-44 0 -70.5 -20t-53.5 -63h-34l89 220h445l-6 -29l-417 -673h-111l412 565h-254z" />
    <glyph glyph-name="eight" unicode="8" horiz-adv-x="569" 
d="M373 406q45 22 68 63.5t23 89.5q0 51 -29 84t-84 33q-50 0 -84 -30t-34 -85q0 -30 15 -57t49 -49zM223 328q-27 -12 -45.5 -30t-30 -39t-16.5 -44t-5 -44q0 -64 37.5 -104.5t100.5 -40.5q28 0 52.5 8.5t43.5 24t30 39t11 53.5q0 36 -20 62.5t-58 51.5zM564 555
q0 -36 -15.5 -64.5t-40 -48.5t-55.5 -31.5t-62 -15.5l23 -15q46 -29 77 -70.5t31 -100.5q0 -50 -19.5 -90.5t-54 -69t-82 -44t-104.5 -15.5q-54 0 -99.5 13.5t-78 37.5t-50.5 57t-18 72q0 36 15 65t40.5 50.5t60 35t73.5 19.5l-12 9q-33 23 -57.5 61.5t-24.5 94.5
q0 43 17.5 81t49.5 66t77 44t99 16q45 0 83.5 -11t66.5 -31t44 -49t16 -66z" />
    <glyph glyph-name="nine" unicode="9" horiz-adv-x="581" 
d="M312 304q57 0 101 33q24 75 24 164q0 36 -5.5 68t-17.5 55.5t-31 37t-46 13.5q-33 0 -59 -18.5t-44.5 -49t-28 -70t-9.5 -81.5q0 -32 6.5 -59.5t20.5 -48t36 -32.5t53 -12zM43 17q131 27 224.5 103.5t136.5 192.5q-32 -29 -72.5 -46t-85.5 -17t-80 14.5t-59 39.5
t-36.5 59t-12.5 73q0 60 22.5 111t61 87.5t90 57t108.5 20.5q56 0 100 -18.5t74.5 -51.5t46.5 -78t16 -98q0 -90 -38.5 -172t-108 -145.5t-165 -105.5t-209.5 -52z" />
    <glyph glyph-name="colon" unicode=":" horiz-adv-x="234" 
d="M58 401q0 38 25 63t61 25t61.5 -25t25.5 -63q0 -37 -25.5 -61.5t-61.5 -24.5t-61 24.5t-25 61.5zM-10 77q0 37 25.5 62t61.5 25t61.5 -25t25.5 -62q0 -38 -25.5 -62.5t-61.5 -24.5t-61.5 24.5t-25.5 62.5z" />
    <glyph glyph-name="semicolon" unicode=";" horiz-adv-x="234" 
d="M58 401q0 38 25 63t61 25t61.5 -25t25.5 -63q0 -37 -25.5 -61.5t-61.5 -24.5t-61 24.5t-25 61.5zM52 2q-26 5 -43 22.5t-17 49.5q0 35 23.5 55.5t56.5 20.5q42 0 63.5 -26.5t21.5 -70.5q0 -37 -15 -68t-42 -54t-64 -36.5t-80 -14.5v33q54 7 90 28t41 61h-35z" />
    <glyph glyph-name="less" unicode="&#x3c;" horiz-adv-x="419" 
d="M64 373l354 192l-16 -75l-236 -124l183 -125l-15 -68l-273 191z" />
    <glyph glyph-name="equal" unicode="=" horiz-adv-x="579" 
d="M106 471h441l-13 -60h-441zM76 328h441l-13 -58h-441z" />
    <glyph glyph-name="greater" unicode="&#x3e;" horiz-adv-x="419" 
d="M392 364l-354 -191l16 74l236 124l-183 126l14 68l273 -192z" />
    <glyph glyph-name="question" unicode="?" horiz-adv-x="456" 
d="M98 73q0 18 6.5 33.5t17.5 27t26 18t32 6.5t32 -6.5t26.5 -18t18 -27t6.5 -33.5q0 -34 -24 -58.5t-59 -24.5q-34 0 -58 24.5t-24 58.5zM275 458q24 14 44 28t35 30t23 36t8 46q0 37 -20.5 60t-58.5 23q-42 0 -64.5 -29.5t-22.5 -77.5q0 -17 1.5 -27.5t3.5 -19.5h-97
q-11 9 -18 23.5t-7 33.5q0 30 15 54t42 40.5t63 25t78 8.5q95 0 147 -44t52 -116q0 -36 -11 -63t-31 -49t-47 -39.5t-60 -34.5l-48 -27q-23 -13 -39.5 -28t-25.5 -32t-9 -38q0 -8 2 -15t4 -15h-22q-25 16 -40 41t-15 57q0 48 29 81.5t89 67.5z" />
    <glyph glyph-name="at" unicode="@" horiz-adv-x="867" 
d="M367 146q22 0 47 23t49 62t44.5 91t35.5 111q-8 17 -24 25.5t-33 8.5q-33 0 -61.5 -25.5t-49.5 -63.5t-33 -83.5t-12 -85.5q0 -28 9.5 -45.5t27.5 -17.5zM597 76q-39 0 -63 13t-35.5 36.5t-12 54.5t7.5 67q-35 -77 -77.5 -124t-95.5 -47q-43 0 -70.5 33t-27.5 94
q0 53 21 106t56.5 95t82.5 68t98 26q31 0 54 -11t37 -27l72 35h27l-32 -89l-61 -199q-5 -19 -7 -36.5t1 -31.5t11.5 -22.5t25.5 -8.5q35 0 64 22t49.5 58.5t31.5 85t11 101.5q0 59 -18 110t-53 89t-86.5 60t-119.5 22q-85 0 -153.5 -34.5t-116.5 -93t-74 -134.5t-26 -159
q0 -76 24 -135t66.5 -99.5t101.5 -61.5t128 -21q42 0 77.5 4.5t68 13.5t63 23t63.5 33l11 -17q-54 -45 -130 -73t-167 -28q-83 0 -153.5 24t-121.5 70t-80 113t-29 153q0 90 33 172.5t92.5 145.5t141.5 100.5t181 37.5q83 0 148 -24t110 -66t69 -100t24 -125
q0 -65 -20 -119.5t-53 -94.5t-77 -62.5t-92 -22.5z" />
    <glyph glyph-name="A" unicode="A" horiz-adv-x="721" 
d="M198 274h236l-56 300zM442 231h-269l-67 -112q-8 -15 -13 -26.5t-5 -22.5q0 -18 18.5 -25.5t59.5 -9.5l-7 -35h-210l7 35q22 2 38 9.5t28 27.5l341 562l-15 73h150l122 -635q4 -20 17.5 -27.5t34.5 -9.5l-8 -35h-300l7 35q20 1 37.5 3t30.5 7.5t20.5 16t7.5 28.5
q0 10 -3 28z" />
    <glyph glyph-name="B" unicode="B" horiz-adv-x="661" 
d="M-17 35q27 3 43.5 6.5t26.5 10.5t15 19t9 33l106 494q4 21 3.5 33.5t-8 19.5t-22.5 10t-39 6l7 35h322q108 0 156.5 -40t48.5 -103q0 -49 -20.5 -85t-52.5 -59.5t-71.5 -35.5t-78.5 -14q43 -2 79 -13.5t61.5 -32t39.5 -47.5t14 -60q0 -53 -23.5 -92.5t-64.5 -66
t-95.5 -40t-116.5 -13.5h-347zM342 662l-59 -278h49q38 0 71 10t57 31t37.5 53.5t13.5 77.5q0 51 -29 78.5t-91 27.5h-49zM274 340l-50 -232q-9 -41 8 -54.5t62 -13.5h10q35 0 66.5 11t55 34t37.5 57t14 81q0 52 -33 84.5t-101 32.5h-69z" />
    <glyph glyph-name="C" unicode="C" horiz-adv-x="665" 
d="M471 712q67 0 123 -16.5t91 -43.5l-32 -160h-37q-1 87 -36 133.5t-105 46.5q-47 0 -86 -19.5t-70 -52t-54.5 -75t-39 -89t-23.5 -94.5t-8 -90q0 -106 35.5 -163t108.5 -57q75 0 133.5 49.5t108.5 156.5h43l-56 -190q-51 -28 -108.5 -43t-125.5 -15q-70 0 -124 20.5
t-91.5 57.5t-57 89t-19.5 116q0 85 32 164.5t89 140.5t136 97.5t173 36.5z" />
    <glyph glyph-name="D" unicode="D" horiz-adv-x="739" 
d="M-25 0l8 35q27 3 43.5 6.5t26.5 10.5t15 19t9 33l106 494q4 21 3.5 33.5t-8 19.5t-22.5 10t-39 6l8 35h282q73 0 134 -19t104 -55t67 -88.5t24 -119.5q0 -96 -35 -174t-96 -132.5t-143 -84t-176 -29.5h-311zM297 40q60 0 112.5 32t91.5 86t61 125.5t22 151.5
q0 109 -47 168t-152 59h-43l-117 -551q-10 -44 5 -57.5t55 -13.5h12z" />
    <glyph glyph-name="E" unicode="E" horiz-adv-x="639" 
d="M-25 0l8 35q27 3 43.5 6.5t26.5 10.5t15 19t9 33l106 494q4 21 3.5 33.5t-8 19.5t-22.5 10t-39 6l8 35h548l-34 -180h-28q-9 41 -18 68t-22.5 43t-33 22.5t-49.5 6.5h-146l-59 -278h127q34 0 52.5 22t36.5 70h35l-48 -227h-36q3 48 -6.5 69.5t-42.5 21.5h-127l-50 -232
q-9 -41 10 -54.5t65 -13.5h63q30 0 53.5 8.5t47 27t49.5 48.5l60 76h35l-74 -200h-558z" />
    <glyph glyph-name="F" unicode="F" horiz-adv-x="591" 
d="M-25 0l8 35q27 3 43.5 6.5t26.5 10.5t15 19t9 33l106 494q4 21 3.5 33.5t-8 19.5t-22.5 10t-39 6l8 35h534l-35 -186h-28q-6 42 -15 70t-23 45t-35 24t-51 7h-130l-61 -286h112q34 0 52 22.5t35 70.5h36l-49 -231h-36q4 48 -4.5 70.5t-42.5 22.5h-112l-47 -220
q-5 -21 -2 -34.5t15.5 -22t34.5 -12.5t57 -6l-8 -36h-347z" />
    <glyph glyph-name="G" unicode="G" horiz-adv-x="721" 
d="M349 32q29 0 55 5.5t49 21.5l37 166q4 21 3.5 33.5t-8 19.5t-22.5 10.5t-39 6.5l8 34h290l-8 -34q-24 -2 -39 -5.5t-24 -11.5t-14 -20.5t-9 -32.5l-35 -166q-56 -32 -115 -50.5t-136 -18.5q-70 0 -125.5 20t-94.5 56.5t-60 88t-21 115.5q0 85 32.5 165t90.5 141.5
t138 98.5t174 37q67 0 124.5 -17t92.5 -43l-33 -160h-36q-1 87 -37 133.5t-107 46.5q-47 0 -86 -19.5t-71 -52.5t-56 -76t-40.5 -90t-24.5 -94.5t-8 -90.5q0 -106 41 -161.5t114 -55.5z" />
    <glyph glyph-name="H" unicode="H" horiz-adv-x="810" 
d="M183 598q4 21 3.5 33.5t-8 19.5t-22.5 10t-39 6l8 35h306l-7 -35q-27 -3 -43.5 -6.5t-26.5 -10.5t-15.5 -19t-9.5 -33l-46 -215h301l46 215q4 21 3.5 33.5t-8 19.5t-22.5 10t-39 6l8 35h307l-8 -35q-27 -3 -43.5 -6.5t-26.5 -10.5t-15.5 -19t-9.5 -33l-105 -494
q-5 -21 -4.5 -33.5t8 -19.5t22.5 -10t39 -6l-7 -35h-307l8 35q27 3 43.5 6.5t26 10.5t15 19t9.5 33l50 231h-301l-49 -231q-5 -21 -4.5 -33.5t8 -19.5t22.5 -10t39 -6l-8 -35h-306l8 35q27 3 43.5 6.5t26 10.5t15 19t9.5 33z" />
    <glyph glyph-name="I" unicode="I" horiz-adv-x="363" 
d="M183 598q4 21 3.5 33.5t-8 19.5t-22.5 10t-39 6l8 35h306l-7 -35q-27 -3 -43.5 -6.5t-26.5 -10.5t-15.5 -19t-9.5 -33l-105 -494q-5 -21 -4.5 -33.5t8 -19.5t22.5 -10t39 -6l-8 -35h-306l8 35q27 3 43.5 6.5t26.5 10.5t15 19t9 33z" />
    <glyph glyph-name="J" unicode="J" horiz-adv-x="540" 
d="M370 598q4 21 4 33.5t-7.5 19.5t-22.5 10t-39 6l7 35h307l-8 -35q-27 -3 -43.5 -6.5t-26.5 -10.5t-15 -19t-9 -33l-86 -400q-25 -114 -93.5 -161t-178.5 -47q-85 0 -134.5 32t-49.5 86q0 32 16 57t43 40h96q-11 -25 -18 -50t-7 -52q0 -33 15.5 -55t48.5 -22
q43 0 68.5 34.5t40.5 106.5z" />
    <glyph glyph-name="K" unicode="K" horiz-adv-x="710" 
d="M224 104q-5 -21 -4.5 -33.5t8 -19.5t22.5 -10t39 -6l-8 -35h-306l8 35q27 3 43.5 6.5t26.5 10.5t15 19t9 33l106 494q4 21 3.5 33.5t-8 19.5t-22.5 10t-39 6l7 35h307l-7 -35q-27 -3 -43.5 -6.5t-26.5 -10.5t-15.5 -19t-9.5 -33zM570 102q9 -17 18 -29.5t20 -20.5
t24.5 -12t32.5 -5l-7 -35h-185q-18 18 -34 45l-31 56l-122 244l295 254l22 21q11 11 11 24q0 12 -12.5 16.5t-53.5 6.5l7 35h228l-7 -35q-32 -2 -53.5 -11.5t-47.5 -32.5l-254 -224z" />
    <glyph glyph-name="L" unicode="L" horiz-adv-x="616" 
d="M224 108q-8 -41 9.5 -54.5t64.5 -13.5h43q28 0 52.5 9.5t49.5 31t53 55t64 81.5h34l-80 -217h-539l8 35q27 3 43.5 6.5t26.5 10.5t15 19t9 33l106 494q4 21 3.5 33.5t-8 19.5t-22.5 10t-39 6l8 35h306l-8 -35q-27 -3 -43.5 -6.5t-26 -10.5t-15 -19t-9.5 -33z" />
    <glyph glyph-name="M" unicode="M" horiz-adv-x="933" 
d="M700 537l-305 -537h-46l-88 537l-140 -421q-7 -23 -7.5 -38t7.5 -24t26.5 -13.5t49.5 -5.5l-7 -35h-232l8 35q21 1 36.5 4t26.5 10t18.5 18t13.5 28l168 499q9 40 -6 55.5t-63 17.5l7 35h219q-2 -17 -1 -30.5t4 -30.5l71 -436l246 437l16 30q7 13 12 30h220l-7 -35
q-49 -2 -70.5 -17.5t-29.5 -55.5l-45 -499q-2 -36 14 -47t57 -13l-8 -35h-316l8 35q29 2 48 5t30.5 11.5t17.5 23t9 39.5z" />
    <glyph glyph-name="N" unicode="N" horiz-adv-x="742" 
d="M664 598q8 40 -12.5 53t-78.5 16l7 35h240l-8 -35q-27 -3 -43.5 -6.5t-26.5 -10.5t-15.5 -19t-9.5 -33l-127 -600h-47l-317 555l-95 -449q-4 -20 -1.5 -33t13.5 -20.5t30.5 -11t48.5 -4.5l-7 -35h-240l8 35q27 3 43.5 6.5t26.5 10.5t15 19t10 33l107 503
q-17 31 -30.5 44.5t-44.5 15.5l8 35h197l269 -486z" />
    <glyph glyph-name="O" unicode="O" horiz-adv-x="727" 
d="M444 671q-40 0 -74 -21t-61.5 -56t-48.5 -80t-35.5 -94t-22 -97.5t-7.5 -90.5q0 -43 7 -80t22 -64t39 -42t58 -15q40 0 74 21t61.5 56t48.5 80t35.5 94t22 97.5t7.5 90.5q0 43 -7 80t-22 64t-39 42t-58 15zM447 712q67 0 119 -22t87 -59.5t53 -87.5t18 -107
q0 -81 -28.5 -160.5t-81.5 -143t-128 -103t-168 -39.5q-68 0 -119.5 21.5t-86.5 59t-53 88t-18 107.5q0 81 28.5 160.5t81.5 143t128 103t168 39.5z" />
    <glyph glyph-name="P" unicode="P" horiz-adv-x="632" 
d="M270 322h44q42 0 79.5 12.5t65.5 37.5t44 63t16 89q0 63 -34 100.5t-104 37.5h-39zM426 702q59 0 103.5 -13.5t74 -37.5t44.5 -56.5t15 -70.5q0 -61 -25 -107t-70 -76.5t-106 -46t-133 -15.5h-68l-36 -168q-5 -21 -2 -34.5t15 -22t34.5 -12.5t57.5 -6l-8 -36h-347l8 35
q27 3 43.5 6.5t26.5 10.5t15 19t9 33l106 494q4 21 3.5 33.5t-8 19.5t-22.5 10t-39 6l8 35h301z" />
    <glyph glyph-name="Q" unicode="Q" horiz-adv-x="727" 
d="M444 671q-40 0 -74 -21t-61.5 -56t-48.5 -80t-35.5 -94t-22 -97.5t-7.5 -90.5q0 -43 6.5 -81t21.5 -66t39 -44t58 -16q40 0 74 21.5t62 57t49 81.5t35.5 95.5t22 98.5t7.5 91q0 43 -7 80t-22 64t-39 42t-58 15zM447 712q67 0 119 -22t87 -59.5t53 -87.5t18 -107
q0 -74 -24 -147t-68.5 -134t-108.5 -104t-143 -56l55 -60q25 -29 51 -47.5t71 -19.5l-3 -14q-20 -16 -47 -26t-65 -10q-45 0 -79.5 21.5t-55.5 65.5l-42 89q-55 8 -96.5 32.5t-70 60.5t-43 82t-14.5 97q0 81 28.5 160.5t81.5 143t128 103t168 39.5z" />
    <glyph glyph-name="R" unicode="R" horiz-adv-x="711" 
d="M223 104q-5 -21 -4 -33.5t8.5 -19.5t22.5 -10t39 -6l-8 -35h-306l8 35q27 3 43.5 6.5t26.5 10.5t15 19t9 33l106 494q4 21 3.5 33.5t-8 19.5t-22.5 10t-39 6l8 35h320q60 0 101.5 -13.5t68 -36.5t38.5 -53.5t12 -63.5q0 -50 -22 -87.5t-54 -63.5t-68 -41.5t-65 -21.5
l108 -204q24 -44 45 -62.5t59 -19.5l-7 -35h-181q-19 16 -33.5 40t-30.5 58l-94 201h-57zM342 661l-68 -319h42q43 0 79.5 12t63.5 36t42 60t15 85q0 54 -30 90t-100 36h-44z" />
    <glyph glyph-name="S" unicode="S" horiz-adv-x="558" 
d="M515 222q0 -56 -23 -99.5t-61.5 -73t-89.5 -44.5t-107 -15q-41 0 -76.5 7.5t-64.5 18.5t-51 25t-36 27l29 169h36q3 -98 47 -151.5t125 -53.5q62 0 100 32.5t38 93.5q0 25 -7.5 44t-23.5 35.5t-41.5 31.5t-60.5 32q-69 33 -109 76.5t-40 112.5q0 50 18.5 91t52.5 70
t82.5 45t107.5 16q63 0 116 -19t87 -48l-29 -149h-35q-1 83 -35.5 129.5t-111.5 46.5q-57 0 -91 -34.5t-34 -88.5q0 -23 6.5 -40.5t20 -31.5t34 -27t49.5 -27q36 -17 68 -36.5t56.5 -43.5t39 -54t14.5 -67z" />
    <glyph glyph-name="T" unicode="T" horiz-adv-x="681" 
d="M382 103q-5 -21 -3 -33.5t11 -19.5t26 -9.5t43 -5.5l-8 -35h-327l8 35q28 3 46.5 6.5t29.5 10t17 18.5t11 33l119 563h-51q-29 0 -51.5 -9.5t-45 -32t-48.5 -60.5l-62 -93h-34l65 231h617l-35 -231h-32q-11 56 -19.5 93.5t-20 60t-28.5 32t-46 9.5h-62z" />
    <glyph glyph-name="U" unicode="U" horiz-adv-x="729" 
d="M661 598q4 21 3 33.5t-9 19.5t-25 10t-44 6l7 35h223l-7 -35q-27 -3 -43.5 -6.5t-26.5 -10.5t-15.5 -19t-9.5 -33l-76 -356q-27 -129 -105 -190.5t-192 -61.5q-66 0 -118 19.5t-85 56.5t-44.5 90t2.5 121l69 321q4 21 4 33.5t-7.5 19.5t-22.5 10t-40 6l8 35h307l-8 -35
q-27 -3 -43.5 -6.5t-26.5 -10.5t-15.5 -19t-9.5 -33l-70 -328q-9 -45 -5 -84t21 -67.5t48 -44.5t75 -16q84 0 135 47t74 155z" />
    <glyph glyph-name="V" unicode="V" horiz-adv-x="694" 
d="M629 583q9 15 15 28.5t6 23.5q0 17 -16.5 23.5t-58.5 8.5l8 35h205l-8 -35q-23 -3 -38.5 -10t-28.5 -27l-389 -636h-39l-142 636q-5 21 -17.5 27.5t-32.5 9.5l8 35h294l-8 -35q-45 -2 -69.5 -11.5t-24.5 -40.5q0 -12 5 -32l87 -405z" />
    <glyph glyph-name="W" unicode="W" horiz-adv-x="950" 
d="M679 197l208 378q8 14 14.5 29.5t6.5 28.5q0 15 -13 23.5t-57 10.5l7 35h199l-8 -35q-22 -3 -38.5 -9.5t-27.5 -27.5l-357 -636h-40l-52 412l-237 -412h-41l-100 636q-2 19 -16 26.5t-34 10.5l8 35h282l-7 -35q-48 -3 -65 -14t-17 -37q0 -19 3 -37l56 -385l160 281
l-19 155q-2 19 -14.5 26.5t-32.5 10.5l7 35h268l-7 -35q-48 -3 -65 -14.5t-17 -38.5q0 -19 3 -35z" />
    <glyph glyph-name="X" unicode="X" horiz-adv-x="700" 
d="M329 300l-182 -190q-14 -15 -20 -24.5t-6 -20.5q0 -16 17.5 -22.5t55.5 -7.5l-7 -35h-234l7 35q30 2 49.5 10.5t40.5 31.5l259 267l-126 281q-10 22 -26 31t-40 11l8 35h302l-7 -35q-37 0 -57.5 -6t-20.5 -26q0 -9 3.5 -19.5t10.5 -27.5l66 -149l146 153q13 15 20 26
t7 21q0 16 -15.5 22t-52.5 6l7 35h227l-7 -35q-30 -2 -51 -11.5t-41 -30.5l-221 -228l141 -316q11 -24 26.5 -34t41.5 -12l-7 -35h-309l7 35q39 2 62.5 7t23.5 28q0 15 -13 42z" />
    <glyph glyph-name="Y" unicode="Y" horiz-adv-x="658" 
d="M373 103q-5 -21 -3 -33.5t11 -19.5t25.5 -9.5t42.5 -5.5l-8 -35h-321l7 35q29 3 47 6.5t29.5 10t17.5 18.5t10 33l35 167l-123 360q-7 20 -18.5 27t-31.5 10l8 35h291l-8 -35q-50 -2 -68.5 -11.5t-18.5 -31.5q0 -12 2.5 -23t7.5 -25l87 -250l189 252l20 30q11 15 11 28
q0 15 -15.5 22.5t-56.5 8.5l7 35h203l-8 -35q-21 -3 -36.5 -10.5t-29.5 -26.5l-269 -358z" />
    <glyph glyph-name="Z" unicode="Z" horiz-adv-x="625" 
d="M329 40q31 0 55.5 8t49 28.5t52.5 54.5l69 84h34l-79 -215h-536l5 26l518 636h-165q-32 0 -54.5 -8t-43 -27t-41.5 -50l-51 -76h-33l50 201h522l-6 -26l-517 -636h171z" />
    <glyph glyph-name="bracketleft" unicode="[" horiz-adv-x="325" 
d="M122 -48q-4 -20 -0.5 -31t15 -17t31.5 -8t50 -4l-6 -33h-201l193 911h201l-7 -33q-30 -2 -51.5 -4t-35.5 -8t-22.5 -17.5t-12.5 -30.5z" />
    <glyph glyph-name="backslash" unicode="\" horiz-adv-x="369" 
d="M132 770h55l95 -911h-54z" />
    <glyph glyph-name="bracketright" unicode="]" horiz-adv-x="325" 
d="M232 677q4 19 1 30.5t-14.5 17.5t-31.5 8t-50 4l6 33h201l-193 -911h-201l7 33q30 2 51.5 4t35.5 8t22 17t12 31z" />
    <glyph glyph-name="asciicircum" unicode="^" horiz-adv-x="465" 
d="M475 480h-57l-85 245l-189 -245h-63l226 290h64z" />
    <glyph glyph-name="underscore" unicode="_" horiz-adv-x="403" 
d="M-49 -124l11 58h363l-12 -58h-362z" />
    <glyph glyph-name="grave" unicode="`" horiz-adv-x="416" 
d="M295 763l44 -166h-34l-144 159v7h134z" />
    <glyph glyph-name="a" unicode="a" horiz-adv-x="599" 
d="M325 72q0 10 3 27t7.5 37.5t10.5 42.5l12 41q-23 -49 -49.5 -91t-55 -73t-59.5 -48.5t-63 -17.5q-54 0 -83.5 40.5t-29.5 112.5q0 75 26.5 146t71.5 127t103.5 90t123.5 34q38 0 65 -12.5t47 -33.5l94 50h29l-38 -123l-70 -291q-4 -14 -6.5 -25t-2.5 -17q0 -15 14 -15
t34 17.5t51 55.5l20 -16q-25 -35 -46.5 -61.5t-42 -44t-41.5 -26t-45 -8.5q-38 0 -59 22t-21 60zM197 85q24 0 54 26.5t60 75t58.5 117t50.5 153.5q-7 21 -23.5 34t-39.5 13q-40 0 -76.5 -32t-64.5 -82.5t-44.5 -112t-16.5 -119.5q0 -33 9.5 -53t32.5 -20z" />
    <glyph glyph-name="b" unicode="b" horiz-adv-x="586" 
d="M387 446q-26 0 -61 -30.5t-69 -82t-63 -119t-44 -141.5q6 -24 26.5 -35.5t43.5 -11.5q41 0 78.5 33.5t66 85t46 112t17.5 114.5q0 34 -9 54.5t-32 20.5zM203 289q22 47 52 92t63 80.5t68.5 57t70.5 21.5q54 0 82.5 -39.5t28.5 -111.5q0 -80 -28.5 -152t-76 -127
t-108.5 -87.5t-125 -32.5q-33 0 -66 8.5t-60.5 24t-48.5 38t-31 50.5l144 579l-60 30l5 21l192 42h20z" />
    <glyph glyph-name="c" unicode="c" horiz-adv-x="446" 
d="M313 505q-32 0 -60.5 -29.5t-49.5 -74.5t-33.5 -99.5t-12.5 -104.5q0 -57 21 -94.5t69 -37.5q39 0 70 21.5t67 66.5l19 -18q-18 -30 -40.5 -56t-49.5 -46t-58.5 -31.5t-66.5 -11.5q-40 0 -71 13.5t-52.5 38.5t-33 58.5t-11.5 74.5q0 67 24.5 132.5t67.5 117t100 83.5
t123 32q57 0 91 -23t34 -68q0 -30 -18 -48.5t-47 -25.5h-29q2 26 1 49.5t-7 41.5t-17 28.5t-30 10.5z" />
    <glyph glyph-name="d" unicode="d" horiz-adv-x="614" 
d="M482 690l-59 30l4 21l192 42h21l-160 -653q-4 -14 -6.5 -25t-2.5 -17q0 -15 14 -15t34 17.5t51 55.5l20 -16q-25 -35 -46.5 -61.5t-42 -44t-41.5 -26t-45 -8.5q-38 0 -59 22t-21 60q0 10 3 28.5t8 40t11.5 44.5t13.5 43q-24 -49 -52 -92t-59 -75.5t-63.5 -51.5t-64.5 -19
q-54 0 -84 40.5t-30 112.5q0 75 27 146t72.5 127t105 90t123.5 34q29 0 50.5 -7t41.5 -23zM198 85q24 0 55 26.5t62 75t60.5 117.5t50.5 153q-8 21 -25 34t-40 13q-41 0 -78.5 -32.5t-65.5 -83t-44.5 -110.5t-16.5 -115q0 -35 9.5 -56.5t32.5 -21.5z" />
    <glyph glyph-name="e" unicode="e" horiz-adv-x="464" 
d="M317 504q-28 0 -53.5 -21t-46 -55t-35.5 -77t-21 -86q201 46 201 185q0 23 -10.5 38.5t-34.5 15.5zM469 433q0 -45 -25.5 -77t-68 -54.5t-99 -37.5t-119.5 -26q-1 -8 -1 -16v-15q0 -68 27.5 -103.5t77.5 -35.5q41 0 76.5 22.5t71.5 67.5l21 -17q-49 -74 -106 -112.5
t-129 -38.5q-40 0 -72 13.5t-54.5 38.5t-35 60.5t-12.5 78.5q0 66 24.5 130.5t67 115.5t99.5 82t122 31q69 0 102 -31.5t33 -75.5z" />
    <glyph glyph-name="f" unicode="f" horiz-adv-x="323" 
d="M47 503l78 19q13 54 35.5 102t54 83t71.5 55.5t88 20.5q51 0 84 -20.5t33 -62.5q0 -25 -15 -42t-41 -25h-46q2 21 1.5 41.5t-4.5 36.5t-13 26t-24 10q-18 0 -32 -16.5t-24 -47t-16.5 -73t-9.5 -93.5h112l-11 -46h-107l-65 -288q-24 -109 -52.5 -184.5t-62 -123t-73 -68.5
t-86.5 -21q-48 0 -79.5 19t-31.5 54q0 32 21 48.5t47 20.5h21q1 -48 12.5 -77.5t33.5 -29.5q13 0 23.5 9.5t20 34.5t20 69t23.5 114l81 423h-75z" />
    <glyph glyph-name="g" unicode="g" horiz-adv-x="501" 
d="M346 418q0 36 -12 62.5t-42 26.5q-23 0 -43.5 -17t-36 -45.5t-25 -66t-9.5 -78.5q0 -36 12 -62t42 -26q22 0 43 16.5t36.5 45t25 66t9.5 78.5zM91 9q-73 -28 -73 -88q0 -48 44.5 -77t117.5 -29q78 0 120 22t42 57q0 26 -16.5 37.5t-48.5 22.5zM472 388q0 -48 -19.5 -86.5
t-53 -66t-78 -42t-94.5 -14.5q-41 0 -71 10q-14 -8 -22.5 -17.5t-8.5 -20.5q0 -13 10.5 -18t24.5 -10l167 -44q28 -7 52.5 -17t42.5 -25t28 -35.5t10 -47.5q0 -43 -22.5 -76t-61.5 -55.5t-91.5 -34t-112.5 -11.5q-49 0 -94.5 9.5t-80.5 27.5t-56 43.5t-21 57.5
q0 26 13.5 44.5t35 32t49 21.5t55.5 13q-16 12 -25 28t-9 37q0 36 25 62t69 46q-38 20 -59 54.5t-21 79.5q0 47 19.5 85.5t52.5 65.5t77 41.5t94 14.5q45 0 83 -16l180 6l-17 -60h-47l-57 9q34 -40 34 -91z" />
    <glyph glyph-name="h" unicode="h" horiz-adv-x="597" 
d="M210 294q25 48 57 92.5t67 78.5t72.5 54.5t73.5 20.5q38 0 55 -21t17 -57q0 -10 -1.5 -23t-5.5 -27l-76 -282q-8 -29 -8 -42q0 -15 14 -15t34 17.5t51 55.5l20 -16q-25 -35 -46.5 -61.5t-42 -44t-41.5 -26t-45 -8.5q-39 0 -60.5 23t-21.5 58q0 18 3.5 37.5t11.5 46.5
l67 241l4 18q2 8 2 14q0 20 -17 20q-20 0 -50.5 -24t-62.5 -66t-61 -98t-45 -120l-35 -140h-136l171 690l-60 30l5 21l192 42h20z" />
    <glyph glyph-name="i" unicode="i" horiz-adv-x="309" 
d="M115 442l-57 35l5 20l193 43h21l-103 -410q-4 -14 -6.5 -25t-2.5 -17q0 -15 14 -15t34 17.5t52 55.5l19 -16q-24 -35 -45.5 -61.5t-42 -44t-41.5 -26t-45 -8.5q-40 0 -60 23t-20 58q0 18 3 37t9 46zM237 601q-35 0 -56 22t-21 51q0 34 23 58t60 24q35 0 56 -21.5
t21 -51.5q0 -33 -23 -57.5t-60 -24.5z" />
    <glyph glyph-name="j" unicode="j" horiz-adv-x="277" 
d="M233 601q-35 0 -56 22t-21 51q0 34 23 58t60 24q35 0 56 -21.5t21 -51.5q0 -33 -23 -57.5t-60 -24.5zM178 119q-21 -90 -47.5 -153t-59.5 -103t-73.5 -58.5t-88.5 -18.5t-79 19t-31 54q0 32 20.5 48.5t46.5 20.5h21q2 -48 13 -77.5t33 -29.5q13 0 23 9.5t19 30.5t18 55
t21 84l103 442l-56 35l4 20l192 43h21z" />
    <glyph glyph-name="k" unicode="k" horiz-adv-x="564" 
d="M4 0l171 690l-59 30l5 21l191 42h21l-193 -783h-136zM412 136q11 -28 19.5 -44t25.5 -16q15 0 31 15.5t40 45.5l20 -16q-44 -66 -79.5 -98.5t-79.5 -32.5q-41 0 -62.5 26.5t-38.5 73.5l-65 189l174 198q29 32 52.5 47.5t52.5 15.5q37 0 54.5 -21.5t17.5 -49.5
q0 -58 -67 -83h-9q2 26 -10 45.5t-38 19.5q-23 0 -39 -12.5t-38 -36.5l-47 -53z" />
    <glyph glyph-name="l" unicode="l" horiz-adv-x="300" 
d="M167 130q-4 -14 -6.5 -25t-2.5 -17q0 -15 14 -15t34.5 17.5t51.5 55.5l19 -16q-24 -35 -45.5 -61.5t-42 -44t-41.5 -26t-45 -8.5q-39 0 -59.5 23t-20.5 58q0 18 2.5 37t10.5 46l132 536l-59 30l5 21l191 42h21z" />
    <glyph glyph-name="m" unicode="m" horiz-adv-x="892" 
d="M480 540q38 0 55 -20.5t17 -55.5q0 -22 -8.5 -60.5t-30.5 -109.5q25 49 55.5 93.5t64.5 78.5t70 54t72 20q38 0 55.5 -21t17.5 -57q0 -10 -1.5 -23t-5.5 -27l-76 -282q-4 -14 -6.5 -25t-2.5 -17q0 -15 14 -15t34 17.5t52 55.5l19 -16q-24 -35 -45.5 -61.5t-42 -44
t-41.5 -26t-45 -8.5q-40 0 -61 23t-21 58q0 18 3 37.5t11 46.5l68 241l4 17q2 9 2 15q0 20 -18 20q-19 0 -48 -24.5t-60 -66.5t-58.5 -98t-43.5 -119l-36 -140h-136l99 396l4 17q2 9 2 15q0 20 -18 20q-19 0 -48 -24.5t-60 -66.5t-58.5 -98t-43.5 -119l-36 -140h-136
l111 442l-57 35l5 20l193 43h21l-67 -246q25 49 55.5 93.5t64.5 78.5t70 54t72 20z" />
    <glyph glyph-name="n" unicode="n" horiz-adv-x="605" 
d="M218 293q25 49 57 93.5t67 78.5t72.5 54.5t73.5 20.5q38 0 55.5 -21t17.5 -57q0 -10 -2 -23t-5 -27l-76 -282q-4 -14 -6.5 -25t-2.5 -17q0 -15 14 -15t34 17.5t51 55.5l20 -16q-25 -35 -46.5 -61.5t-42 -44t-41.5 -26t-45 -8.5q-39 0 -60 23t-21 58q0 18 3 37.5t11 46.5
l68 241l4 18q2 8 2 14q0 20 -18 20q-19 0 -49.5 -24t-63 -66t-61 -98t-44.5 -120l-36 -140h-136l111 442l-57 35l5 20l193 43h21z" />
    <glyph glyph-name="o" unicode="o" horiz-adv-x="530" 
d="M510 343q0 -64 -23 -127t-63.5 -113.5t-96.5 -81.5t-121 -31q-84 0 -135 51t-51 145q0 64 23 127.5t64 113.5t96.5 81.5t120.5 31.5q84 0 135 -51.5t51 -145.5zM153 139q0 -48 13 -81t47 -33q22 0 42.5 17.5t38.5 46t33.5 66.5t26.5 78.5t17 81.5t6 76q0 48 -13 81
t-47 33q-22 0 -42.5 -17.5t-38.5 -46.5t-33.5 -66.5t-26.5 -78.5t-17 -81.5t-6 -75.5z" />
    <glyph glyph-name="p" unicode="p" horiz-adv-x="597" 
d="M398 446q-26 0 -59.5 -30t-66.5 -80.5t-61 -117t-44 -140.5q8 -22 26 -34.5t41 -12.5q40 0 77 33t65.5 83t45 110t16.5 114q0 34 -8.5 54.5t-31.5 20.5zM217 288q22 47 51 92.5t62 81t68 57t70 21.5q54 0 82.5 -39.5t28.5 -111.5q0 -80 -28.5 -152t-75 -127t-104.5 -87.5
t-118 -32.5q-66 0 -96 41l-40 -157q-2 -8 -3.5 -13t-1.5 -10q0 -17 18.5 -22.5t66.5 -7.5l-7 -33h-290l6 33q35 2 50.5 9.5t22.5 34.5l144 577l-56 35l4 20l193 43h21z" />
    <glyph glyph-name="q" unicode="q" horiz-adv-x="580" 
d="M198 85q24 0 55 26.5t62 75t60.5 117.5t50.5 153q-8 21 -25 34t-40 13q-41 0 -78.5 -32.5t-65.5 -83t-44.5 -110.5t-16.5 -115q0 -35 9.5 -56.5t32.5 -21.5zM408 -128q-2 -7 -3 -12.5t-1 -10.5q0 -17 14 -21.5t43 -6.5l-7 -33h-283l7 33q25 1 41.5 3.5t26.5 7t15.5 13
t9.5 22.5l97 357q-23 -49 -51 -91.5t-58 -74t-62.5 -50t-64.5 -18.5q-54 0 -84 40.5t-30 112.5q0 75 27 146t72.5 127t105 90t123.5 34q39 0 69.5 -12.5t50.5 -33.5l92 50h29l-37 -123z" />
    <glyph glyph-name="r" unicode="r" horiz-adv-x="442" 
d="M239 372l-44 -135l67 132q30 57 56.5 95t51.5 57t51 19q30 0 46 -19t16 -48q0 -38 -22.5 -65.5t-56.5 -41.5h-8q0 18 -6.5 31t-26.5 13q-25 0 -54.5 -30t-58.5 -84t-55.5 -129.5t-46.5 -166.5h-136l111 442l-57 35l5 20l193 43h21z" />
    <glyph glyph-name="s" unicode="s" horiz-adv-x="414" 
d="M193 29q67 0 67 61q0 19 -14 38.5t-36 40.5l-46 43q-24 23 -45.5 48t-35.5 52.5t-14 57.5q0 34 15 65t41 54.5t62 37t78 13.5q60 0 99 -23.5t39 -68.5q0 -26 -19.5 -42.5t-39.5 -22.5h-6q-14 48 -43 82.5t-72 34.5q-28 0 -43.5 -16t-15.5 -42q0 -17 14.5 -36t36.5 -40
l48 -45q25 -23 47 -48.5t36.5 -52.5t14.5 -56q0 -39 -16 -71t-43.5 -55t-63.5 -35.5t-76 -12.5q-38 0 -69 8.5t-53 23.5t-34.5 35.5t-12.5 44.5q0 27 16.5 47t41.5 30h7q14 -68 49 -109t86 -41z" />
    <glyph glyph-name="t" unicode="t" horiz-adv-x="356" 
d="M177 146q-5 -17 -6.5 -28.5t-1.5 -21.5q0 -12 6 -19.5t19 -7.5q24 0 51.5 20t70.5 69l20 -16q-54 -76 -104 -114t-104 -38q-44 0 -69 26t-25 66q0 17 2.5 33.5t7.5 39.5l79 316h-64l7 28q62 20 114 61.5t91 93.5h32l-33 -137h111l-12 -46h-111z" />
    <glyph glyph-name="u" unicode="u" horiz-adv-x="606" 
d="M429 523l142 8l-99 -401q-4 -14 -6.5 -25t-2.5 -17q0 -15 14 -15t34 17.5t52 55.5l19 -16q-24 -35 -45.5 -61.5t-42 -44t-41.5 -26t-45 -8.5q-39 0 -60 22t-21 60q0 10 3 27.5t7.5 39t10.5 45.5l13 47q-23 -48 -51.5 -91.5t-60 -76.5t-65.5 -53t-67 -20q-42 0 -64.5 25.5
t-22.5 63.5q0 23 8 55l79 308l-57 35l5 20l193 43h21l-101 -393q-8 -30 -8 -44q0 -24 23 -24q19 0 47.5 25t58 67.5t56.5 100t43 123.5z" />
    <glyph glyph-name="v" unicode="v" horiz-adv-x="489" 
d="M21 480l6 18l169 42h11l29 -422l91 111q39 46 56 84t17 76q0 42 -25.5 62t-68.5 17l1 12q14 21 40.5 40.5t61.5 19.5q24 0 40.5 -8t26.5 -21t14.5 -29.5t4.5 -34.5q0 -53 -35.5 -107.5t-93.5 -120.5l-205 -226h-42l-41 455z" />
    <glyph glyph-name="w" unicode="w" horiz-adv-x="737" 
d="M288 478l5 18l167 44h10l28 -414l80 103q38 46 54 84t16 76q0 42 -25.5 62t-68.5 17l1 12q14 21 40.5 40.5t61.5 19.5q24 0 40.5 -8t26.5 -21t14.5 -29.5t4.5 -34.5q0 -27 -9 -53.5t-25.5 -54t-39.5 -57.5l-52 -63l-194 -226h-40l-23 251l-201 -251h-40l-41 455l-57 32
l6 18l169 42h11l28 -406l121 153l-14 161z" />
    <glyph glyph-name="x" unicode="x" horiz-adv-x="556" 
d="M211 240l-53 206l-76 36l6 19l172 39h12l47 -192l57 91q29 48 56.5 74.5t66.5 26.5q32 0 49.5 -19t17.5 -47q0 -17 -6.5 -30.5t-17 -23.5t-23 -17t-24.5 -11h-8q2 28 -7 44t-29 16q-19 0 -34 -16t-37 -49l-51 -79l45 -178q6 -25 11.5 -38.5t20.5 -13.5q20 0 41 16t52 48
l17 -17q-56 -73 -98 -104t-83 -31q-37 0 -55 25t-29 70l-29 112l-63 -106q-29 -49 -57.5 -75t-69.5 -26q-32 0 -50.5 20t-18.5 49q0 19 6 33t16 24t22 16.5t23 11.5h9q-2 -32 9 -48.5t30 -16.5q20 0 36 14t39 50z" />
    <glyph glyph-name="y" unicode="y" horiz-adv-x="509" 
d="M16 480l6 18l167 42h11l81 -473l28 40q35 52 57 91.5t34 71t16.5 57.5t4.5 51q0 50 -28.5 71.5t-71.5 18.5l1 12q14 21 40 40.5t60 19.5q25 0 42 -8t28 -21.5t16 -31.5t5 -37q0 -62 -49 -149.5t-134 -211.5q-61 -88 -109.5 -145t-89 -90.5t-75 -46.5t-68.5 -13
q-39 0 -68.5 20.5t-29.5 63.5q0 28 18 48.5t45 28.5h10q0 -45 18.5 -70t56.5 -25q16 0 31.5 3.5t32 12.5t35 24.5t39.5 38.5l-101 517z" />
    <glyph glyph-name="z" unicode="z" horiz-adv-x="485" 
d="M176 412q-24 0 -35 -7.5t-25 -26.5l-26 -38l-18 7l75 218h19q2 -18 7 -28.5t19 -10.5h329v-17l-382 -351l85 -31q26 -8 46.5 -13.5t48.5 -5.5q15 0 29.5 3.5t28.5 13t28 26.5t29 43l18 -8q-19 -57 -37.5 -95t-39.5 -61.5t-46 -33.5t-57 -10q-35 0 -65 11.5t-71 32.5
l-92 51l-35 -86q-23 0 -32.5 9t-9.5 23q0 11 5 22t18 24l372 339h-186z" />
    <glyph glyph-name="braceleft" unicode="{" horiz-adv-x="354" 
d="M73 322q38 8 66 30t39 70l46 220q13 60 67 94t145 34l-5 -25q-42 -5 -70 -26t-39 -72l-47 -216q-11 -54 -45 -78.5t-89 -37.5q24 -7 43 -15.5t30 -22t14.5 -33t-2.5 -46.5l-46 -215q-11 -50 9 -72t59 -26l-5 -25q-91 0 -131 34t-27 94l47 219q10 48 -8.5 70t-53.5 30z
" />
    <glyph glyph-name="bar" unicode="|" horiz-adv-x="211" 
d="M54 -141h-56l193 911h56z" />
    <glyph glyph-name="braceright" unicode="}" horiz-adv-x="359" 
d="M315 307q-38 -8 -66 -30t-38 -70l-47 -219q-13 -60 -66.5 -94t-145.5 -34l5 25q41 5 70 26t40 72l45 215q6 27 17.5 46.5t28.5 33t39 22t49 15.5q-24 6 -42 15t-29.5 22.5t-15 32.5t2.5 46l46 216q5 25 2.5 42.5t-12 29t-24.5 18t-34 8.5l5 25q92 0 131.5 -34t26.5 -94
l-46 -220q-5 -24 -2.5 -41t10.5 -29t22 -19t31 -11z" />
    <glyph glyph-name="asciitilde" unicode="~" horiz-adv-x="472" 
d="M444 370q-22 -71 -52 -106.5t-80 -35.5q-23 0 -44.5 11t-42.5 24.5t-41.5 24.5t-41.5 11q-28 0 -46.5 -18t-35.5 -47l-28 10q22 71 52 107t80 36q23 0 44.5 -11.5t42.5 -25t41.5 -24.5t41.5 -11q28 0 46.5 18t35.5 48z" />
    <glyph glyph-name="uni00A0" unicode="&#xa0;" horiz-adv-x="185" 
 />
    <glyph glyph-name="exclamdown" unicode="&#xa1;" horiz-adv-x="266" 
d="M280 520q0 -18 -6.5 -33.5t-18 -27t-26.5 -18t-32 -6.5t-32.5 6.5t-26.5 18t-17.5 27t-6.5 33.5q0 34 24 58.5t59 24.5q34 0 58.5 -24.5t24.5 -58.5zM152 374h37l-46 -483h-182z" />
    <glyph glyph-name="cent" unicode="&#xa2;" horiz-adv-x="486" 
d="M151 192q0 -46 16 -78.5t48 -45.5l96 446q-34 -9 -63 -41t-50.5 -77t-34 -98.5t-12.5 -105.5zM198 -10q-42 1 -75 16t-55.5 40.5t-34.5 59.5t-12 75q0 65 22.5 128t62.5 114t94.5 85.5t118.5 42.5l23 103h33l-22 -100h2q61 0 98.5 -23.5t37.5 -68.5q0 -29 -17.5 -47
t-48.5 -24h-29q8 51 -4 85.5t-47 39.5l-99 -456h11q46 0 81.5 24t73.5 70l20 -16q-36 -58 -86.5 -98t-114.5 -48l-23 -107h-33z" />
    <glyph glyph-name="sterling" unicode="&#xa3;" horiz-adv-x="654" 
d="M62 38q29 0 47 23.5t32 75.5q-12 8 -27 14t-32 6q-35 0 -52 -18.5t-17 -50.5q0 -22 13.5 -36t35.5 -14zM99 387h109l26 94q30 116 95 173.5t173 57.5q71 0 116 -28.5t45 -78.5q0 -29 -16.5 -50.5t-41.5 -29.5h-78q8 17 14 39.5t6 45.5q0 12 -2 24.5t-7 23t-14 17.5t-24 7
q-18 0 -32 -11t-25 -30.5t-21 -46t-20 -57.5l-47 -150h157l-9 -37h-159l-23 -75q-9 -30 -18 -54l-16 -40l-16 -34q42 -20 88 -34.5t97 -14.5q92 0 92 72q0 33 -32 58l11 11q32 -12 58 -40.5t26 -72.5q0 -67 -42.5 -101.5t-109.5 -34.5q-36 0 -68 10t-60 24.5t-52 30.5
l-43 29q-23 -42 -63.5 -68t-88.5 -26q-55 0 -83 29t-28 69q0 48 31.5 76t77.5 28q20 0 38 -4t32 -10l46 172h-107z" />
    <glyph glyph-name="currency" unicode="&#xa4;" horiz-adv-x="577" 
d="M279 190q36 0 66.5 14.5t53 39t35.5 57t13 68.5q0 58 -35.5 94.5t-92.5 36.5q-36 0 -66.5 -14.5t-53 -39t-35 -57t-12.5 -68.5q0 -58 35 -94.5t92 -36.5zM131 572l63 -74q27 20 59.5 32t70.5 12q35 0 65 -12t53 -33l82 75l25 -30l-83 -74q13 -20 20 -44.5t7 -52.5
q0 -44 -15.5 -83t-43.5 -69l64 -74l-31 -27l-63 73q-27 -20 -59.5 -31.5t-69.5 -11.5q-71 0 -118 45l-82 -75l-26 30l83 74q-26 41 -26 97q0 43 15.5 82t43.5 70l-65 74z" />
    <glyph glyph-name="yen" unicode="&#xa5;" horiz-adv-x="637" 
d="M374 244h169l-8 -38h-169l-22 -103q-5 -21 -3 -33.5t11 -19.5t25.5 -9.5t42.5 -5.5l-7 -35h-318l8 35q28 3 46.5 6.5t29.5 10t17 18.5t11 33l21 103h-164l8 38h164l6 26l-18 55h-135l8 38h115l-85 267q-6 20 -18 27t-33 10l8 35h288l-8 -35q-51 -2 -69.5 -11.5
t-18.5 -31.5q0 -12 3 -23t8 -25l78 -250l182 252q10 14 20 29.5t10 28.5q0 15 -15 22.5t-57 8.5l8 35h203l-8 -35q-22 -3 -37.5 -10t-29.5 -27l-195 -267h122l-8 -38h-142l-38 -53z" />
    <glyph glyph-name="brokenbar" unicode="&#xa6;" horiz-adv-x="211" 
d="M54 -141h-56l79 376h56zM167 394h-56l80 376h56z" />
    <glyph glyph-name="section" unicode="&#xa7;" horiz-adv-x="518" 
d="M130 368q0 -44 10.5 -83t26 -75.5t33.5 -70.5t33.5 -67t26 -66t10.5 -67q0 -22 -6.5 -41.5t-14.5 -31.5q28 19 52.5 47.5t42.5 64.5t28 77.5t10 86.5q0 43 -10.5 82.5t-26 76t-33.5 70.5t-33.5 67t-26 66t-10.5 67q0 22 6.5 41.5t14.5 31.5q-28 -19 -52.5 -47.5
t-42.5 -64.5t-28 -77.5t-10 -86.5zM420 142q0 -62 -20 -123.5t-59.5 -110.5t-97.5 -79.5t-133 -30.5q-68 0 -101.5 27t-33.5 68q0 16 5.5 28.5t14.5 21.5t20 14.5t21 9.5h67q-11 -20 -11 -47q0 -15 3.5 -31t11 -29.5t20.5 -22t32 -8.5q35 0 54 29.5t19 80.5q0 31 -10.5 61.5
t-25.5 61.5l-34 66q-18 33 -33.5 70t-26 79t-10.5 91q0 62 20 123.5t59.5 110.5t97 79.5t132.5 30.5q68 0 101.5 -27t33.5 -68q0 -33 -20 -50t-40 -24h-67q10 19 10 47q0 15 -3 31t-10.5 29.5t-20.5 22t-32 8.5q-35 0 -54 -29.5t-19 -80.5q0 -31 10.5 -61.5t25.5 -61.5
l34 -65q18 -34 33.5 -71t26 -79t10.5 -91z" />
    <glyph glyph-name="dieresis" unicode="&#xa8;" 
d="M333 604q-32 0 -50.5 20t-18.5 49q0 31 21 53.5t54 22.5q32 0 51 -20t19 -48q0 -31 -21 -54t-55 -23zM149 604q-32 0 -51 20t-19 49q0 31 21.5 53.5t54.5 22.5q32 0 51 -20t19 -48q0 -31 -21.5 -54t-54.5 -23z" />
    <glyph glyph-name="copyright" unicode="&#xa9;" horiz-adv-x="796" 
d="M395 18q75 0 139 28t111.5 76.5t74.5 114t27 140.5q0 65 -22.5 121t-63.5 97.5t-97.5 65t-123.5 23.5q-75 0 -139 -28t-111.5 -76.5t-74.5 -114t-27 -140.5q0 -65 22.5 -121.5t63.5 -97.5t97 -64.5t124 -23.5zM396 142q-40 0 -73 12t-56 34t-36 53t-13 68q0 53 20 99.5
t54 81t80 54.5t98 20q41 0 73 -11.5t54 -31.5l-21 -96h-26q-2 50 -19 78.5t-56 28.5q-34 0 -62.5 -21t-49 -54t-32 -74t-11.5 -81q0 -54 20 -91t64 -37q42 0 71.5 29t57.5 85h29l-27 -108q-29 -17 -63.5 -27.5t-75.5 -10.5zM395 -10q-74 0 -135.5 25.5t-106 70.5
t-69.5 106.5t-25 132.5q0 81 29.5 151.5t80.5 123t120.5 82.5t150.5 30q74 0 135.5 -25.5t106 -70.5t69.5 -106.5t25 -132.5q0 -81 -29.5 -151.5t-80.5 -123t-120.5 -82.5t-150.5 -30z" />
    <glyph glyph-name="ordfeminine" unicode="&#xaa;" horiz-adv-x="430" 
d="M426 715h24l-24 -79l-51 -186q-5 -20 -5 -28q0 -9 8 -9q10 0 24 10t33 35l15 -12q-30 -45 -60.5 -68t-63.5 -23q-24 0 -38 15t-14 40q0 14 5.5 38.5t13.5 47.5h-2q-13 -29 -29 -54.5t-34.5 -44.5t-39.5 -30.5t-43 -11.5q-36 0 -57.5 27.5t-21.5 76.5q0 48 18 94t47.5 81
t67.5 56.5t78 21.5q50 0 77 -32zM194 418q16 0 35 18t37.5 49.5t35.5 75t29 94.5q-6 13 -15.5 20.5t-26.5 7.5q-23 0 -45 -20.5t-39 -52t-27.5 -70.5t-10.5 -75q0 -20 6 -33.5t21 -13.5z" />
    <glyph glyph-name="guillemotleft" unicode="&#xab;" horiz-adv-x="454" 
d="M205 278l232 196h37l-150 -199l64 -199h-37l-147 196zM35 278l232 196h37l-150 -199l64 -199h-37l-147 196z" />
    <glyph glyph-name="registered" unicode="&#xae;" horiz-adv-x="555" 
d="M309 283q46 0 85.5 16.5t68.5 46t45 69t16 85.5q0 40 -13.5 74t-38 59t-59 39t-76.5 14q-46 0 -85.5 -17t-68 -46t-45 -68.5t-16.5 -85.5q0 -40 13.5 -74t38.5 -59t59 -39t76 -14zM309 257q-47 0 -86.5 16t-68 44.5t-44 67.5t-15.5 84q0 51 18.5 95.5t51 77t77 51.5
t95.5 19q47 0 86.5 -16.5t68 -45t44 -67t15.5 -83.5q0 -51 -18.5 -95.5t-51 -77t-77 -51.5t-95.5 -19zM354 608q44 0 61.5 -19.5t17.5 -41.5q0 -18 -6.5 -30.5t-17 -21.5t-23 -14t-23.5 -7l29 -57q7 -14 17 -21t21 -8l-4 -16h-57q-7 5 -15 15.5t-14 22.5l-27 58h-18l-12 -55
q-3 -14 1 -19t21 -6l-4 -16h-109l5 16q17 0 23.5 5.5t9.5 19.5l32 149q3 14 0 19t-23 7l4 20h111zM321 587l-21 -99h16q25 0 43 14t18 43q0 17 -10.5 29.5t-32.5 12.5h-13z" />
    <glyph glyph-name="macron" unicode="&#xaf;" 
d="M122 692h269l-14 -68h-269z" />
    <glyph glyph-name="degree" unicode="&#xb0;" horiz-adv-x="274" 
d="M178 474q-45 0 -74 28.5t-29 75.5q0 27 10 51.5t27 42.5t41 29t52 11q45 0 74 -28.5t29 -75.5q0 -27 -10 -51.5t-27 -42.5t-41 -29t-52 -11zM180 512q38 0 60 28t22 68q0 29 -15.5 47.5t-43.5 18.5q-38 0 -60 -28t-22 -68q0 -29 15.5 -47.5t43.5 -18.5z" />
    <glyph glyph-name="plusminus" unicode="&#xb1;" horiz-adv-x="569" 
d="M44 200h440l-13 -59h-439zM378 605l-31 -146h192l-13 -58h-191l-30 -145h-59l30 145h-189l13 58h189l31 146h58z" />
    <glyph glyph-name="twosuperior" unicode="&#xb2;" horiz-adv-x="394" 
d="M264 386q16 0 27.5 2t21.5 7t20 15t23 27h21l-45 -132h-289l4 20q76 60 121.5 101t70 71t32 51.5t7.5 42.5q0 26 -15 41t-43 15q-29 0 -55 -15.5t-43 -35.5l-15 16q11 19 27 37t36 31.5t44.5 21.5t53.5 8q49 0 80 -25t31 -73q0 -35 -17 -62.5t-47 -53t-70 -52.5l-85 -58
h104z" />
    <glyph glyph-name="threesuperior" unicode="&#xb3;" horiz-adv-x="374" 
d="M256 532q45 -6 73.5 -30.5t28.5 -66.5q0 -34 -15 -59.5t-39.5 -42t-55 -25t-60.5 -8.5q-67 0 -100.5 25t-33.5 57q0 20 10.5 32t27.5 19h54q-5 -12 -6.5 -23t-1.5 -22q0 -25 12.5 -44t38.5 -19q33 0 53.5 26t20.5 68q0 35 -16 56t-48 21q-7 0 -13.5 -0.5t-15.5 -1.5
l-3 19q49 17 80.5 38.5t31.5 55.5q0 19 -12 31.5t-35 12.5q-29 0 -51.5 -13.5t-41.5 -33.5l-18 14q23 42 62.5 68t92.5 26q45 0 71.5 -20t26.5 -58q0 -23 -10.5 -40t-27.5 -29.5t-38 -20.5t-42 -12z" />
    <glyph glyph-name="acute" unicode="&#xb4;" 
d="M365 763v-7l-196 -159h-35l88 166h143z" />
    <glyph glyph-name="mu" unicode="&#xb5;" horiz-adv-x="616" 
d="M109 -186l-137 -10l159 638l-57 35l5 20l193 43h21l-100 -397q-3 -12 -5 -22t-2 -18q0 -24 23 -24q19 0 47.5 25t58 67.5t56.5 100t43 123.5l31 128l142 8l-99 -401q-4 -14 -6.5 -25t-2.5 -17q0 -15 14 -15t34 17.5t52 55.5l19 -16q-24 -35 -45.5 -61.5t-42 -44
t-41.5 -26t-45 -8.5q-39 0 -60 22t-21 60q0 10 3 27.5t7.5 39t10.5 45.5l13 47q-20 -43 -46 -83.5t-55.5 -73.5t-60.5 -54.5t-61 -25.5z" />
    <glyph glyph-name="paragraph" unicode="&#xb6;" horiz-adv-x="617" 
d="M401 667q-44 -2 -78.5 -26t-58 -61t-36 -82t-12.5 -88q0 -30 5 -58.5t16 -51.5t29.5 -37.5t45.5 -15.5zM304 211q-53 0 -94.5 15.5t-70 42.5t-43.5 64t-15 80q0 61 23 114t66 92t103.5 61t135.5 22h278l-8 -35q-27 0 -47 -3.5t-34 -12t-23 -24t-14 -39.5l-167 -785h-44
l183 862h-88l-183 -862h-44z" />
    <glyph glyph-name="periodcentered" unicode="&#xb7;" horiz-adv-x="235" 
d="M30 303q0 38 25.5 63t61.5 25q37 0 62.5 -25t25.5 -63t-25.5 -62.5t-62.5 -24.5q-36 0 -61.5 24.5t-25.5 62.5z" />
    <glyph glyph-name="cedilla" unicode="&#xb8;" 
d="M151 -195q58 0 90 15t32 38q0 20 -22 27.5t-61 9.5l59 113h32l-28 -52q46 -3 70.5 -21.5t24.5 -52.5q0 -27 -14.5 -47.5t-40 -34t-60.5 -20t-75 -6.5z" />
    <glyph glyph-name="onesuperior" unicode="&#xb9;" horiz-adv-x="326" 
d="M312 712l-69 -326q-3 -16 -2 -25t8 -14.5t21 -7.5t37 -3l-6 -29h-251l6 29q22 1 37 3t24 6.5t14 13t8 23.5l48 227h-76l5 24l24 5q25 5 45 10.5t37 14t32 20t32 29.5h26z" />
    <glyph glyph-name="ordmasculine" unicode="&#xba;" horiz-adv-x="367" 
d="M403 583q0 -42 -16 -83t-43.5 -73.5t-65 -52.5t-79.5 -20q-55 0 -91 34t-36 96q0 41 16 82t43.5 73.5t65 52.5t79.5 20q55 0 91 -33.5t36 -95.5zM169 455q0 -31 7.5 -52t28.5 -21q20 0 38.5 23.5t32.5 58.5t22 75t8 73q0 30 -7.5 51t-28.5 21q-20 0 -38.5 -23.5
t-32.5 -58.5t-22 -74.5t-8 -72.5z" />
    <glyph glyph-name="guillemotright" unicode="&#xbb;" horiz-adv-x="454" 
d="M257 272l-232 -196h-37l150 199l-65 199h38l147 -196zM427 272l-232 -196h-37l150 199l-64 199h37l147 -196z" />
    <glyph glyph-name="onequarter" unicode="&#xbc;" horiz-adv-x="790" 
d="M312 712l-69 -326q-3 -16 -2 -25t8 -14.5t21 -7.5t37 -3l-6 -29h-251l6 29q22 1 37 3t24 6.5t14 13t8 23.5l48 227h-76l5 24l24 5q25 5 45 10.5t37 14t32 20t32 29.5h26zM698 712h49l-602 -722h-48zM468 0l5 28q18 1 30 3t19.5 6t11.5 11.5t7 20.5l8 37h-191l6 24
l273 270h72l-56 -261h79l-7 -33h-79l-7 -37q-6 -26 4.5 -32t45.5 -9l-6 -28h-215zM556 139l37 173l-178 -173h141z" />
    <glyph glyph-name="onehalf" unicode="&#xbd;" horiz-adv-x="801" 
d="M637 80q16 0 27.5 2t21.5 7t19.5 15t22.5 27h21l-44 -131h-289l4 19q76 60 121.5 101.5t70 71t32 51.5t7.5 43q0 25 -15 40t-44 15t-54.5 -15.5t-42.5 -35.5l-15 16q11 19 27 37t36 31.5t44.5 21.5t53.5 8q49 0 80 -25t31 -73q0 -35 -17 -62.5t-47 -53t-70 -52.5l-85 -58
h104zM312 712l-69 -326q-3 -16 -2 -25t8 -14.5t21 -7.5t37 -3l-6 -29h-251l6 29q22 1 37 3t24 6.5t14 13t8 23.5l48 227h-76l5 24l24 5q25 5 45 10.5t37 14t32 20t32 29.5h26zM698 712h49l-602 -722h-48z" />
    <glyph glyph-name="threequarters" unicode="&#xbe;" horiz-adv-x="792" 
d="M256 532q45 -6 73.5 -30.5t28.5 -66.5q0 -34 -15 -59.5t-39.5 -42t-55 -25t-60.5 -8.5q-67 0 -100.5 25t-33.5 57q0 20 10.5 32t27.5 19h54q-5 -12 -6.5 -23t-1.5 -22q0 -25 12.5 -44t38.5 -19q33 0 53.5 26t20.5 68q0 35 -16 56t-48 21q-7 0 -13.5 -0.5t-15.5 -1.5
l-3 19q49 17 80.5 38.5t31.5 55.5q0 19 -12 31.5t-35 12.5q-29 0 -51.5 -13.5t-41.5 -33.5l-18 14q23 42 62.5 68t92.5 26q45 0 71.5 -20t26.5 -58q0 -23 -10.5 -40t-27.5 -29.5t-38 -20.5t-42 -12zM701 712h49l-602 -722h-48zM471 0l5 28q18 1 30 3t19.5 6t11.5 11.5
t7 20.5l8 37h-191l5 24l274 270h72l-56 -261h79l-7 -33h-79l-8 -37q-5 -26 5.5 -32t45.5 -9l-6 -28h-215zM559 139l37 173l-178 -173h141z" />
    <glyph glyph-name="questiondown" unicode="&#xbf;" horiz-adv-x="444" 
d="M377 520q0 -18 -6.5 -33.5t-17.5 -27t-26 -18t-32 -6.5t-32.5 6.5t-26.5 18t-17.5 27t-6.5 33.5q0 34 24 58.5t59 24.5q34 0 58 -24.5t24 -58.5zM200 135q-24 -14 -44 -28t-35 -30t-23 -36t-8 -46q0 -37 20.5 -60t58.5 -23q42 0 64.5 29.5t22.5 77.5q0 17 -1.5 27.5
t-3.5 19.5h97q11 -9 18 -23.5t7 -33.5q0 -30 -15 -54t-42 -40.5t-63 -25t-78 -8.5q-95 0 -147 44t-52 116q0 36 11 63t31 48.5t47 39.5t60 35q26 13 48.5 26.5t39 28.5t25.5 32t9 38q0 8 -2 15t-4 15h22q25 -16 40 -41t15 -57q0 -48 -29 -81.5t-89 -67.5z" />
    <glyph glyph-name="Agrave" unicode="&#xc0;" horiz-adv-x="721" 
d="M421 896l36 -149h-35l-138 142v7h137zM198 274h236l-56 300zM442 231h-269l-67 -112q-8 -15 -13 -26.5t-5 -22.5q0 -18 18.5 -25.5t59.5 -9.5l-7 -35h-210l7 35q22 2 38 9.5t28 27.5l341 562l-15 73h150l122 -635q4 -20 17.5 -27.5t34.5 -9.5l-8 -35h-300l7 35
q20 1 37.5 3t30.5 7.5t20.5 16t7.5 28.5q0 10 -3 28z" />
    <glyph glyph-name="Aacute" unicode="&#xc1;" horiz-adv-x="721" 
d="M633 896v-7l-185 -142h-35l74 149h146zM198 274h236l-56 300zM442 231h-269l-67 -112q-8 -15 -13 -26.5t-5 -22.5q0 -18 18.5 -25.5t59.5 -9.5l-7 -35h-210l7 35q22 2 38 9.5t28 27.5l341 562l-15 73h150l122 -635q4 -20 17.5 -27.5t34.5 -9.5l-8 -35h-300l7 35
q20 1 37.5 3t30.5 7.5t20.5 16t7.5 28.5q0 10 -3 28z" />
    <glyph glyph-name="Acircumflex" unicode="&#xc2;" horiz-adv-x="721" 
d="M595 747h-40l-99 82l-140 -82h-45l150 156h97zM198 274h236l-56 300zM442 231h-269l-67 -112q-8 -15 -13 -26.5t-5 -22.5q0 -18 18.5 -25.5t59.5 -9.5l-7 -35h-210l7 35q22 2 38 9.5t28 27.5l341 562l-15 73h150l122 -635q4 -20 17.5 -27.5t34.5 -9.5l-8 -35h-300l7 35
q20 1 37.5 3t30.5 7.5t20.5 16t7.5 28.5q0 10 -3 28z" />
    <glyph glyph-name="Atilde" unicode="&#xc3;" horiz-adv-x="721" 
d="M505 749q-21 0 -37.5 9t-31 19.5t-29 19.5t-30.5 9q-21 0 -37.5 -14t-35.5 -42l-25 15q33 65 59.5 94.5t64.5 29.5q21 0 37.5 -9t30.5 -20t28 -20t31 -9q22 0 38.5 14.5t34.5 42.5l26 -16q-17 -32 -31 -55.5t-28.5 -38.5t-30 -22t-34.5 -7zM198 274h236l-56 300zM442 231
h-269l-67 -112q-8 -15 -13 -26.5t-5 -22.5q0 -18 18.5 -25.5t59.5 -9.5l-7 -35h-210l7 35q22 2 38 9.5t28 27.5l341 562l-15 73h150l122 -635q4 -20 17.5 -27.5t34.5 -9.5l-8 -35h-300l7 35q20 1 37.5 3t30.5 7.5t20.5 16t7.5 28.5q0 10 -3 28z" />
    <glyph glyph-name="Adieresis" unicode="&#xc4;" horiz-adv-x="721" 
d="M549 749q-32 0 -51 20t-19 49q0 31 21 53.5t54 22.5q32 0 51 -19.5t19 -48.5q0 -31 -21 -54t-54 -23zM353 749q-32 0 -51 20t-19 49q0 31 21.5 53.5t54.5 22.5q32 0 51 -19.5t19 -48.5q0 -31 -21.5 -54t-54.5 -23zM198 274h236l-56 300zM442 231h-269l-67 -112
q-8 -15 -13 -26.5t-5 -22.5q0 -18 18.5 -25.5t59.5 -9.5l-7 -35h-210l7 35q22 2 38 9.5t28 27.5l341 562l-15 73h150l122 -635q4 -20 17.5 -27.5t34.5 -9.5l-8 -35h-300l7 35q20 1 37.5 3t30.5 7.5t20.5 16t7.5 28.5q0 10 -3 28z" />
    <glyph glyph-name="Aring" unicode="&#xc5;" horiz-adv-x="721" 
d="M507 831q0 22 -12.5 34.5t-35.5 12.5q-28 0 -42 -18t-14 -43q0 -22 12.5 -34.5t35.5 -12.5q28 0 42 18t14 43zM360 816q0 43 28.5 72.5t71.5 29.5q42 0 66 -24t24 -62q0 -43 -28.5 -72.5t-71.5 -29.5q-42 0 -66 24t-24 62zM198 274h236l-56 300zM442 231h-269l-67 -112
q-8 -15 -13 -26.5t-5 -22.5q0 -18 18.5 -25.5t59.5 -9.5l-7 -35h-210l7 35q22 2 38 9.5t28 27.5l341 562l-15 73h150l122 -635q4 -20 17.5 -27.5t34.5 -9.5l-8 -35h-300l7 35q20 1 37.5 3t30.5 7.5t20.5 16t7.5 28.5q0 10 -3 28z" />
    <glyph glyph-name="AE" unicode="&#xc6;" horiz-adv-x="1009" 
d="M267 290h225l78 364zM350 0l8 35q27 3 43.5 6.5t26.5 10.5t15 19t10 33l30 143h-252l-106 -128q-24 -28 -24 -49q0 -19 19.5 -26t60.5 -9l-7 -35h-225l7 35q22 2 39 11t37 33l466 560q-13 11 -38 17.5t-56 10.5l8 35h631l-34 -180h-28q-9 41 -18 68t-22.5 43t-33.5 22.5
t-50 6.5h-139l-59 -278h121q34 0 52.5 22t35.5 70h36l-49 -227h-35q3 48 -6.5 69.5t-43.5 21.5h-121l-49 -232q-9 -41 9.5 -54.5t65.5 -13.5h57q30 0 53.5 8.5t46.5 27t49 49t61 75.5h34l-73 -200h-553z" />
    <glyph glyph-name="Ccedilla" unicode="&#xc7;" horiz-adv-x="665" 
d="M205 -195q58 0 90 15t32 38q0 20 -22 27.5t-61 9.5l50 97q-122 11 -187.5 86.5t-65.5 194.5q0 85 32 164.5t89 140.5t136 97.5t173 36.5q67 0 123 -16.5t91 -43.5l-32 -160h-37q-1 87 -36 133.5t-105 46.5q-47 0 -86 -19.5t-70 -52t-54.5 -75t-39 -89t-23.5 -94.5t-8 -90
q0 -106 35.5 -163t108.5 -57q75 0 133.5 49.5t108.5 156.5h43l-56 -190q-51 -28 -108.5 -43t-125.5 -15h-8l-18 -34q46 -3 70.5 -21.5t24.5 -52.5q0 -27 -14.5 -47.5t-40 -34t-60.5 -20t-75 -6.5z" />
    <glyph glyph-name="Egrave" unicode="&#xc8;" horiz-adv-x="639" 
d="M-25 0l8 35q27 3 43.5 6.5t26.5 10.5t15 19t9 33l106 494q4 21 3.5 33.5t-8 19.5t-22.5 10t-39 6l8 35h548l-34 -180h-28q-9 41 -18 68t-22.5 43t-33 22.5t-49.5 6.5h-146l-59 -278h127q34 0 52.5 22t36.5 70h35l-48 -227h-36q3 48 -6.5 69.5t-42.5 21.5h-127l-50 -232
q-9 -41 10 -54.5t65 -13.5h63q30 0 53.5 8.5t47 27t49.5 48.5l60 76h35l-74 -200h-558zM420 896l36 -149h-35l-138 142v7h137z" />
    <glyph glyph-name="Eacute" unicode="&#xc9;" horiz-adv-x="639" 
d="M-25 0l8 35q27 3 43.5 6.5t26.5 10.5t15 19t9 33l106 494q4 21 3.5 33.5t-8 19.5t-22.5 10t-39 6l8 35h548l-34 -180h-28q-9 41 -18 68t-22.5 43t-33 22.5t-49.5 6.5h-146l-59 -278h127q34 0 52.5 22t36.5 70h35l-48 -227h-36q3 48 -6.5 69.5t-42.5 21.5h-127l-50 -232
q-9 -41 10 -54.5t65 -13.5h63q30 0 53.5 8.5t47 27t49.5 48.5l60 76h35l-74 -200h-558zM634 896v-7l-185 -142h-35l74 149h146z" />
    <glyph glyph-name="Ecircumflex" unicode="&#xca;" horiz-adv-x="639" 
d="M594 747h-40l-99 82l-140 -82h-45l150 156h97zM-25 0l8 35q27 3 43.5 6.5t26.5 10.5t15 19t9 33l106 494q4 21 3.5 33.5t-8 19.5t-22.5 10t-39 6l8 35h548l-34 -180h-28q-9 41 -18 68t-22.5 43t-33 22.5t-49.5 6.5h-146l-59 -278h127q34 0 52.5 22t36.5 70h35l-48 -227
h-36q3 48 -6.5 69.5t-42.5 21.5h-127l-50 -232q-9 -41 10 -54.5t65 -13.5h63q30 0 53.5 8.5t47 27t49.5 48.5l60 76h35l-74 -200h-558z" />
    <glyph glyph-name="Edieresis" unicode="&#xcb;" horiz-adv-x="639" 
d="M-25 0l8 35q27 3 43.5 6.5t26.5 10.5t15 19t9 33l106 494q4 21 3.5 33.5t-8 19.5t-22.5 10t-39 6l8 35h548l-34 -180h-28q-9 41 -18 68t-22.5 43t-33 22.5t-49.5 6.5h-146l-59 -278h127q34 0 52.5 22t36.5 70h35l-48 -227h-36q3 48 -6.5 69.5t-42.5 21.5h-127l-50 -232
q-9 -41 10 -54.5t65 -13.5h63q30 0 53.5 8.5t47 27t49.5 48.5l60 76h35l-74 -200h-558zM548 749q-32 0 -51 20t-19 49q0 31 21 53.5t54 22.5q32 0 51 -19.5t19 -48.5q0 -31 -21 -54t-54 -23zM352 749q-32 0 -51 20t-19 49q0 31 21.5 53.5t54.5 22.5q32 0 51 -19.5t19 -48.5
q0 -31 -21.5 -54t-54.5 -23z" />
    <glyph glyph-name="Igrave" unicode="&#xcc;" horiz-adv-x="363" 
d="M270 896l36 -149h-35l-138 142v7h137zM183 598q4 21 3.5 33.5t-8 19.5t-22.5 10t-39 6l8 35h306l-7 -35q-27 -3 -43.5 -6.5t-26.5 -10.5t-15.5 -19t-9.5 -33l-105 -494q-5 -21 -4.5 -33.5t8 -19.5t22.5 -10t39 -6l-8 -35h-306l8 35q27 3 43.5 6.5t26.5 10.5t15 19t9 33z
" />
    <glyph glyph-name="Iacute" unicode="&#xcd;" horiz-adv-x="363" 
d="M489 896v-7l-185 -142h-35l74 149h146zM183 598q4 21 3.5 33.5t-8 19.5t-22.5 10t-39 6l8 35h306l-7 -35q-27 -3 -43.5 -6.5t-26.5 -10.5t-15.5 -19t-9.5 -33l-105 -494q-5 -21 -4.5 -33.5t8 -19.5t22.5 -10t39 -6l-8 -35h-306l8 35q27 3 43.5 6.5t26.5 10.5t15 19t9 33z
" />
    <glyph glyph-name="Icircumflex" unicode="&#xce;" horiz-adv-x="363" 
d="M443 747h-40l-99 82l-140 -82h-45l150 156h97zM183 598q4 21 3.5 33.5t-8 19.5t-22.5 10t-39 6l8 35h306l-7 -35q-27 -3 -43.5 -6.5t-26.5 -10.5t-15.5 -19t-9.5 -33l-105 -494q-5 -21 -4.5 -33.5t8 -19.5t22.5 -10t39 -6l-8 -35h-306l8 35q27 3 43.5 6.5t26.5 10.5
t15 19t9 33z" />
    <glyph glyph-name="Idieresis" unicode="&#xcf;" horiz-adv-x="363" 
d="M401 749q-32 0 -51 20t-19 49q0 31 21 53.5t54 22.5q32 0 51 -19.5t19 -48.5q0 -31 -21 -54t-54 -23zM205 749q-32 0 -51 20t-19 49q0 31 21.5 53.5t54.5 22.5q32 0 51 -19.5t19 -48.5q0 -31 -21.5 -54t-54.5 -23zM183 598q4 21 3.5 33.5t-8 19.5t-22.5 10t-39 6l8 35
h306l-7 -35q-27 -3 -43.5 -6.5t-26.5 -10.5t-15.5 -19t-9.5 -33l-105 -494q-5 -21 -4.5 -33.5t8 -19.5t22.5 -10t39 -6l-8 -35h-306l8 35q27 3 43.5 6.5t26.5 10.5t15 19t9 33z" />
    <glyph glyph-name="Eth" unicode="&#xd0;" horiz-adv-x="739" 
d="M297 40q60 0 112.5 32t91.5 86t61 125.5t22 151.5q0 109 -47 168t-152 59h-43l-60 -279h133l-10 -48h-133l-47 -224q-10 -44 5 -57.5t55 -13.5h12zM61 383h76l46 215q4 21 3.5 33.5t-8 19.5t-22.5 10t-39 6l8 35h282q73 0 134 -19t104 -55t67 -88.5t24 -119.5
q0 -96 -35 -174t-96 -132.5t-143 -84t-176 -29.5h-311l8 35q27 3 43.5 6.5t26.5 10.5t15 19t9 33l49 231h-75z" />
    <glyph glyph-name="Ntilde" unicode="&#xd1;" horiz-adv-x="742" 
d="M664 598q8 40 -12.5 53t-78.5 16l7 35h240l-8 -35q-27 -3 -43.5 -6.5t-26.5 -10.5t-15.5 -19t-9.5 -33l-127 -600h-47l-317 555l-95 -449q-4 -20 -1.5 -33t13.5 -20.5t30.5 -11t48.5 -4.5l-7 -35h-240l8 35q27 3 43.5 6.5t26.5 10.5t15 19t10 33l107 503
q-17 31 -30.5 44.5t-44.5 15.5l8 35h197l269 -486zM548 749q-21 0 -37.5 9t-31 19.5t-29 19.5t-30.5 9q-21 0 -37.5 -14t-35.5 -42l-25 15q33 65 59.5 94.5t64.5 29.5q21 0 37.5 -9t30.5 -20t28 -20t31 -9q22 0 38.5 14.5t34.5 42.5l26 -16q-17 -32 -31 -55.5t-28.5 -38.5
t-30 -22t-34.5 -7z" />
    <glyph glyph-name="Ograve" unicode="&#xd2;" horiz-adv-x="727" 
d="M444 671q-40 0 -74 -21t-61.5 -56t-48.5 -80t-35.5 -94t-22 -97.5t-7.5 -90.5q0 -43 7 -80t22 -64t39 -42t58 -15q40 0 74 21t61.5 56t48.5 80t35.5 94t22 97.5t7.5 90.5q0 43 -7 80t-22 64t-39 42t-58 15zM447 712q67 0 119 -22t87 -59.5t53 -87.5t18 -107
q0 -81 -28.5 -160.5t-81.5 -143t-128 -103t-168 -39.5q-68 0 -119.5 21.5t-86.5 59t-53 88t-18 107.5q0 81 28.5 160.5t81.5 143t128 103t168 39.5zM456 896l36 -149h-35l-138 142v7h137z" />
    <glyph glyph-name="Oacute" unicode="&#xd3;" horiz-adv-x="727" 
d="M444 671q-40 0 -74 -21t-61.5 -56t-48.5 -80t-35.5 -94t-22 -97.5t-7.5 -90.5q0 -43 7 -80t22 -64t39 -42t58 -15q40 0 74 21t61.5 56t48.5 80t35.5 94t22 97.5t7.5 90.5q0 43 -7 80t-22 64t-39 42t-58 15zM447 712q67 0 119 -22t87 -59.5t53 -87.5t18 -107
q0 -81 -28.5 -160.5t-81.5 -143t-128 -103t-168 -39.5q-68 0 -119.5 21.5t-86.5 59t-53 88t-18 107.5q0 81 28.5 160.5t81.5 143t128 103t168 39.5zM676 896v-7l-185 -142h-35l74 149h146z" />
    <glyph glyph-name="Ocircumflex" unicode="&#xd4;" horiz-adv-x="727" 
d="M630 747h-40l-99 82l-140 -82h-45l150 156h97zM444 671q-40 0 -74 -21t-61.5 -56t-48.5 -80t-35.5 -94t-22 -97.5t-7.5 -90.5q0 -43 7 -80t22 -64t39 -42t58 -15q40 0 74 21t61.5 56t48.5 80t35.5 94t22 97.5t7.5 90.5q0 43 -7 80t-22 64t-39 42t-58 15zM447 712
q67 0 119 -22t87 -59.5t53 -87.5t18 -107q0 -81 -28.5 -160.5t-81.5 -143t-128 -103t-168 -39.5q-68 0 -119.5 21.5t-86.5 59t-53 88t-18 107.5q0 81 28.5 160.5t81.5 143t128 103t168 39.5z" />
    <glyph glyph-name="Otilde" unicode="&#xd5;" horiz-adv-x="727" 
d="M444 671q-40 0 -74 -21t-61.5 -56t-48.5 -80t-35.5 -94t-22 -97.5t-7.5 -90.5q0 -43 7 -80t22 -64t39 -42t58 -15q40 0 74 21t61.5 56t48.5 80t35.5 94t22 97.5t7.5 90.5q0 43 -7 80t-22 64t-39 42t-58 15zM447 712q67 0 119 -22t87 -59.5t53 -87.5t18 -107
q0 -81 -28.5 -160.5t-81.5 -143t-128 -103t-168 -39.5q-68 0 -119.5 21.5t-86.5 59t-53 88t-18 107.5q0 81 28.5 160.5t81.5 143t128 103t168 39.5zM541 749q-21 0 -37.5 9t-31 19.5t-29 19.5t-30.5 9q-21 0 -37.5 -14t-35.5 -42l-25 15q33 65 59.5 94.5t64.5 29.5
q21 0 37.5 -9t30.5 -20t28 -20t31 -9q22 0 38.5 14.5t34.5 42.5l26 -16q-17 -32 -31 -55.5t-28.5 -38.5t-30 -22t-34.5 -7z" />
    <glyph glyph-name="Odieresis" unicode="&#xd6;" horiz-adv-x="727" 
d="M444 671q-40 0 -74 -21t-61.5 -56t-48.5 -80t-35.5 -94t-22 -97.5t-7.5 -90.5q0 -43 7 -80t22 -64t39 -42t58 -15q40 0 74 21t61.5 56t48.5 80t35.5 94t22 97.5t7.5 90.5q0 43 -7 80t-22 64t-39 42t-58 15zM447 712q67 0 119 -22t87 -59.5t53 -87.5t18 -107
q0 -81 -28.5 -160.5t-81.5 -143t-128 -103t-168 -39.5q-68 0 -119.5 21.5t-86.5 59t-53 88t-18 107.5q0 81 28.5 160.5t81.5 143t128 103t168 39.5zM584 749q-32 0 -51 20t-19 49q0 31 21 53.5t54 22.5q32 0 51 -19.5t19 -48.5q0 -31 -21 -54t-54 -23zM388 749q-32 0 -51 20
t-19 49q0 31 21.5 53.5t54.5 22.5q32 0 51 -19.5t19 -48.5q0 -31 -21.5 -54t-54.5 -23z" />
    <glyph glyph-name="multiply" unicode="&#xd7;" horiz-adv-x="493" 
d="M110 506l50 40l108 -140l171 141l33 -43l-171 -140l111 -138l-49 -41l-111 140l-169 -141l-33 42l170 140z" />
    <glyph glyph-name="Oslash" unicode="&#xd8;" horiz-adv-x="727" 
d="M572 470q0 40 -6 73l-355 -431q14 -38 40 -59.5t68 -21.5q40 0 74.5 21t62.5 56t49.5 80t36.5 94t22.5 97.5t7.5 90.5zM446 671q-40 0 -74.5 -21t-62.5 -56t-49.5 -80t-36.5 -94t-22.5 -97.5t-7.5 -90.5q0 -41 6 -74l355 431q-14 38 -40 60t-68 22zM645 639
q39 -38 59 -90.5t20 -112.5q0 -81 -28.5 -160.5t-81.5 -143t-128 -103t-168 -39.5q-51 0 -93.5 12.5t-74.5 35.5l-59 -71l-31 23l60 72q-39 38 -59 90.5t-20 113.5q0 81 28.5 160.5t81.5 143t128 103t168 39.5q51 0 93.5 -13t74.5 -36l50 61l31 -23z" />
    <glyph glyph-name="Ugrave" unicode="&#xd9;" horiz-adv-x="729" 
d="M661 598q4 21 3 33.5t-9 19.5t-25 10t-44 6l7 35h223l-7 -35q-27 -3 -43.5 -6.5t-26.5 -10.5t-15.5 -19t-9.5 -33l-76 -356q-27 -129 -105 -190.5t-192 -61.5q-66 0 -118 19.5t-85 56.5t-44.5 90t2.5 121l69 321q4 21 4 33.5t-7.5 19.5t-22.5 10t-40 6l8 35h307l-8 -35
q-27 -3 -43.5 -6.5t-26.5 -10.5t-15.5 -19t-9.5 -33l-70 -328q-9 -45 -5 -84t21 -67.5t48 -44.5t75 -16q84 0 135 47t74 155zM493 896l36 -149h-35l-138 142v7h137z" />
    <glyph glyph-name="Uacute" unicode="&#xda;" horiz-adv-x="729" 
d="M661 598q4 21 3 33.5t-9 19.5t-25 10t-44 6l7 35h223l-7 -35q-27 -3 -43.5 -6.5t-26.5 -10.5t-15.5 -19t-9.5 -33l-76 -356q-27 -129 -105 -190.5t-192 -61.5q-66 0 -118 19.5t-85 56.5t-44.5 90t2.5 121l69 321q4 21 4 33.5t-7.5 19.5t-22.5 10t-40 6l8 35h307l-8 -35
q-27 -3 -43.5 -6.5t-26.5 -10.5t-15.5 -19t-9.5 -33l-70 -328q-9 -45 -5 -84t21 -67.5t48 -44.5t75 -16q84 0 135 47t74 155zM702 896v-7l-185 -142h-35l74 149h146z" />
    <glyph glyph-name="Ucircumflex" unicode="&#xdb;" horiz-adv-x="729" 
d="M666 747h-40l-99 82l-140 -82h-45l150 156h97zM661 598q4 21 3 33.5t-9 19.5t-25 10t-44 6l7 35h223l-7 -35q-27 -3 -43.5 -6.5t-26.5 -10.5t-15.5 -19t-9.5 -33l-76 -356q-27 -129 -105 -190.5t-192 -61.5q-66 0 -118 19.5t-85 56.5t-44.5 90t2.5 121l69 321
q4 21 4 33.5t-7.5 19.5t-22.5 10t-40 6l8 35h307l-8 -35q-27 -3 -43.5 -6.5t-26.5 -10.5t-15.5 -19t-9.5 -33l-70 -328q-9 -45 -5 -84t21 -67.5t48 -44.5t75 -16q84 0 135 47t74 155z" />
    <glyph glyph-name="Udieresis" unicode="&#xdc;" horiz-adv-x="729" 
d="M661 598q4 21 3 33.5t-9 19.5t-25 10t-44 6l7 35h223l-7 -35q-27 -3 -43.5 -6.5t-26.5 -10.5t-15.5 -19t-9.5 -33l-76 -356q-27 -129 -105 -190.5t-192 -61.5q-66 0 -118 19.5t-85 56.5t-44.5 90t2.5 121l69 321q4 21 4 33.5t-7.5 19.5t-22.5 10t-40 6l8 35h307l-8 -35
q-27 -3 -43.5 -6.5t-26.5 -10.5t-15.5 -19t-9.5 -33l-70 -328q-9 -45 -5 -84t21 -67.5t48 -44.5t75 -16q84 0 135 47t74 155zM620 749q-32 0 -51 20t-19 49q0 31 21 53.5t54 22.5q32 0 51 -19.5t19 -48.5q0 -31 -21 -54t-54 -23zM424 749q-32 0 -51 20t-19 49
q0 31 21.5 53.5t54.5 22.5q32 0 51 -19.5t19 -48.5q0 -31 -21.5 -54t-54.5 -23z" />
    <glyph glyph-name="Yacute" unicode="&#xdd;" horiz-adv-x="658" 
d="M677 896v-7l-185 -142h-35l74 149h146zM373 103q-5 -21 -3 -33.5t11 -19.5t25.5 -9.5t42.5 -5.5l-8 -35h-321l7 35q29 3 47 6.5t29.5 10t17.5 18.5t10 33l35 167l-123 360q-7 20 -18.5 27t-31.5 10l8 35h291l-8 -35q-50 -2 -68.5 -11.5t-18.5 -31.5q0 -12 2.5 -23
t7.5 -25l87 -250l189 252l20 30q11 15 11 28q0 15 -15.5 22.5t-56.5 8.5l7 35h203l-8 -35q-21 -3 -36.5 -10.5t-29.5 -26.5l-269 -358z" />
    <glyph glyph-name="Thorn" unicode="&#xde;" horiz-adv-x="644" 
d="M323 569l75 1q57 0 101.5 -13t74.5 -36.5t45.5 -56.5t15.5 -72q0 -61 -25 -107t-70 -77t-106 -46.5t-133 -15.5h-68l-8 -35q-5 -21 -2 -34.5t15 -22t34.5 -12.5t57.5 -6l-8 -36h-347l8 35q27 3 43.5 6.5t26.5 10.5t15 19t9 33l106 494q4 21 3.5 33.5t-8 19.5t-22.5 10
t-39 6l8 35h306l-7 -35q-27 -3 -43.5 -6.5t-26.5 -10.5t-15.5 -19t-9.5 -33zM242 189h44q42 0 79.5 12.5t65.5 37.5t44 63.5t16 89.5q0 62 -34 99.5t-104 37.5h-39z" />
    <glyph glyph-name="germandbls" unicode="&#xdf;" horiz-adv-x="636" 
d="M432 29q66 0 66 63q0 22 -13 44t-32 44t-42 45t-42 47t-32 49t-13 52q0 22 7 39t20 33t31 31l38 33q34 28 49.5 65.5t15.5 78.5q0 38 -21 66.5t-63 28.5q-25 0 -43.5 -11t-32 -31t-23 -47t-16.5 -60l-90 -416q-24 -109 -52 -184.5t-61.5 -123t-73.5 -68.5t-87 -21
q-48 0 -79.5 19t-31.5 54q0 32 21 48.5t47 20.5h21q1 -48 12 -78t34 -30q13 0 23 9t19.5 34t20 69.5t24.5 114.5l81 424h-75l8 32l78 19q13 53 37.5 100.5t59.5 83t81.5 56.5t103.5 21q40 0 73.5 -9.5t57.5 -27t37.5 -41.5t13.5 -52q0 -27 -9 -49t-25 -40t-37 -33t-45 -29
q-22 -14 -34.5 -26t-12.5 -33q0 -16 13 -34.5t32 -39.5l42 -45q23 -23 42 -48.5t32 -53t13 -56.5q0 -41 -16 -73.5t-43.5 -55t-64 -35t-77.5 -12.5q-37 0 -68 8.5t-53 23.5t-34.5 35.5t-12.5 44.5q0 27 16.5 47t41.5 30h7q14 -68 49 -109t87 -41z" />
    <glyph glyph-name="agrave" unicode="&#xe0;" horiz-adv-x="599" 
d="M386 763l44 -166h-34l-144 159v7h134zM325 72q0 10 3 27t7.5 37.5t10.5 42.5l12 41q-23 -49 -49.5 -91t-55 -73t-59.5 -48.5t-63 -17.5q-54 0 -83.5 40.5t-29.5 112.5q0 75 26.5 146t71.5 127t103.5 90t123.5 34q38 0 65 -12.5t47 -33.5l94 50h29l-38 -123l-70 -291
q-4 -14 -6.5 -25t-2.5 -17q0 -15 14 -15t34 17.5t51 55.5l20 -16q-25 -35 -46.5 -61.5t-42 -44t-41.5 -26t-45 -8.5q-38 0 -59 22t-21 60zM197 85q24 0 54 26.5t60 75t58.5 117t50.5 153.5q-7 21 -23.5 34t-39.5 13q-40 0 -76.5 -32t-64.5 -82.5t-44.5 -112t-16.5 -119.5
q0 -33 9.5 -53t32.5 -20z" />
    <glyph glyph-name="aacute" unicode="&#xe1;" horiz-adv-x="599" 
d="M602 763v-7l-196 -159h-35l88 166h143zM325 72q0 10 3 27t7.5 37.5t10.5 42.5l12 41q-23 -49 -49.5 -91t-55 -73t-59.5 -48.5t-63 -17.5q-54 0 -83.5 40.5t-29.5 112.5q0 75 26.5 146t71.5 127t103.5 90t123.5 34q38 0 65 -12.5t47 -33.5l94 50h29l-38 -123l-70 -291
q-4 -14 -6.5 -25t-2.5 -17q0 -15 14 -15t34 17.5t51 55.5l20 -16q-25 -35 -46.5 -61.5t-42 -44t-41.5 -26t-45 -8.5q-38 0 -59 22t-21 60zM197 85q24 0 54 26.5t60 75t58.5 117t50.5 153.5q-7 21 -23.5 34t-39.5 13q-40 0 -76.5 -32t-64.5 -82.5t-44.5 -112t-16.5 -119.5
q0 -33 9.5 -53t32.5 -20z" />
    <glyph glyph-name="acircumflex" unicode="&#xe2;" horiz-adv-x="599" 
d="M552 594h-40l-99 96l-140 -96h-45l150 171h97zM325 72q0 10 3 27t7.5 37.5t10.5 42.5l12 41q-23 -49 -49.5 -91t-55 -73t-59.5 -48.5t-63 -17.5q-54 0 -83.5 40.5t-29.5 112.5q0 75 26.5 146t71.5 127t103.5 90t123.5 34q38 0 65 -12.5t47 -33.5l94 50h29l-38 -123
l-70 -291q-4 -14 -6.5 -25t-2.5 -17q0 -15 14 -15t34 17.5t51 55.5l20 -16q-25 -35 -46.5 -61.5t-42 -44t-41.5 -26t-45 -8.5q-38 0 -59 22t-21 60zM197 85q24 0 54 26.5t60 75t58.5 117t50.5 153.5q-7 21 -23.5 34t-39.5 13q-40 0 -76.5 -32t-64.5 -82.5t-44.5 -112
t-16.5 -119.5q0 -33 9.5 -53t32.5 -20z" />
    <glyph glyph-name="atilde" unicode="&#xe3;" horiz-adv-x="599" 
d="M465 603q-21 0 -37.5 9t-31 20t-29 20t-30.5 9q-21 0 -37.5 -14.5t-35.5 -41.5l-25 15q33 65 59.5 94.5t64.5 29.5q21 0 37.5 -9t30.5 -20t28 -20t31 -9q22 0 38.5 14t34.5 42l26 -15q-33 -65 -59.5 -94.5t-64.5 -29.5zM325 72q0 10 3 27t7.5 37.5t10.5 42.5l12 41
q-23 -49 -49.5 -91t-55 -73t-59.5 -48.5t-63 -17.5q-54 0 -83.5 40.5t-29.5 112.5q0 75 26.5 146t71.5 127t103.5 90t123.5 34q38 0 65 -12.5t47 -33.5l94 50h29l-38 -123l-70 -291q-4 -14 -6.5 -25t-2.5 -17q0 -15 14 -15t34 17.5t51 55.5l20 -16q-25 -35 -46.5 -61.5
t-42 -44t-41.5 -26t-45 -8.5q-38 0 -59 22t-21 60zM197 85q24 0 54 26.5t60 75t58.5 117t50.5 153.5q-7 21 -23.5 34t-39.5 13q-40 0 -76.5 -32t-64.5 -82.5t-44.5 -112t-16.5 -119.5q0 -33 9.5 -53t32.5 -20z" />
    <glyph glyph-name="adieresis" unicode="&#xe4;" horiz-adv-x="599" 
d="M496 604q-32 0 -50.5 20t-18.5 49q0 31 21 53.5t54 22.5q32 0 51 -20t19 -48q0 -31 -21 -54t-55 -23zM312 604q-32 0 -51 20t-19 49q0 31 21.5 53.5t54.5 22.5q32 0 51 -20t19 -48q0 -31 -21.5 -54t-54.5 -23zM325 72q0 10 3 27t7.5 37.5t10.5 42.5l12 41
q-23 -49 -49.5 -91t-55 -73t-59.5 -48.5t-63 -17.5q-54 0 -83.5 40.5t-29.5 112.5q0 75 26.5 146t71.5 127t103.5 90t123.5 34q38 0 65 -12.5t47 -33.5l94 50h29l-38 -123l-70 -291q-4 -14 -6.5 -25t-2.5 -17q0 -15 14 -15t34 17.5t51 55.5l20 -16q-25 -35 -46.5 -61.5
t-42 -44t-41.5 -26t-45 -8.5q-38 0 -59 22t-21 60zM197 85q24 0 54 26.5t60 75t58.5 117t50.5 153.5q-7 21 -23.5 34t-39.5 13q-40 0 -76.5 -32t-64.5 -82.5t-44.5 -112t-16.5 -119.5q0 -33 9.5 -53t32.5 -20z" />
    <glyph glyph-name="aring" unicode="&#xe5;" horiz-adv-x="599" 
d="M310 658q0 43 28.5 72t71.5 29q42 0 66 -24t24 -61q0 -43 -28.5 -72.5t-71.5 -29.5q-42 0 -66 24t-24 62zM457 673q0 22 -12.5 34.5t-35.5 12.5q-28 0 -42 -18t-14 -43q0 -22 12.5 -35t35.5 -13q28 0 42 18t14 44zM325 72q0 10 3 27t7.5 37.5t10.5 42.5l12 41
q-23 -49 -49.5 -91t-55 -73t-59.5 -48.5t-63 -17.5q-54 0 -83.5 40.5t-29.5 112.5q0 75 26.5 146t71.5 127t103.5 90t123.5 34q38 0 65 -12.5t47 -33.5l94 50h29l-38 -123l-70 -291q-4 -14 -6.5 -25t-2.5 -17q0 -15 14 -15t34 17.5t51 55.5l20 -16q-25 -35 -46.5 -61.5
t-42 -44t-41.5 -26t-45 -8.5q-38 0 -59 22t-21 60zM197 85q24 0 54 26.5t60 75t58.5 117t50.5 153.5q-7 21 -23.5 34t-39.5 13q-40 0 -76.5 -32t-64.5 -82.5t-44.5 -112t-16.5 -119.5q0 -33 9.5 -53t32.5 -20z" />
    <glyph glyph-name="ae" unicode="&#xe6;" horiz-adv-x="773" 
d="M625 504q-27 0 -52.5 -21t-46.5 -55.5t-36 -77.5t-22 -86q102 24 152 69.5t50 116.5q0 23 -10.5 38.5t-34.5 15.5zM197 85q29 0 64 36t70 102q8 63 36.5 122t73.5 104q-13 25 -33 40.5t-49 15.5q-41 0 -77.5 -32.5t-65 -82.5t-45 -112t-16.5 -120q0 -33 9.5 -53t32.5 -20
zM354 540q44 0 74.5 -16t51.5 -41q35 26 76.5 41.5t86.5 15.5q34 0 59.5 -8.5t42 -23t24.5 -34t8 -41.5q0 -45 -25.5 -77t-68 -54.5t-99 -37.5t-119.5 -26q-1 -8 -1 -15v-16q0 -68 27.5 -103.5t77.5 -35.5q41 0 76.5 22.5t71.5 67.5l21 -17q-49 -74 -106 -112.5t-129 -38.5
q-76 0 -122.5 47.5t-51.5 127.5q-21 -38 -44.5 -70.5t-48.5 -55.5t-51.5 -36t-53.5 -13q-54 0 -83.5 40.5t-29.5 112.5q0 75 27 146t72.5 127t106.5 90t130 34z" />
    <glyph glyph-name="ccedilla" unicode="&#xe7;" horiz-adv-x="446" 
d="M55 -195q58 0 90 15t32 38q0 20 -22 27.5t-61 9.5l52 100q-60 13 -93 61.5t-33 118.5q0 67 24.5 132.5t67.5 117t100 83.5t123 32q57 0 91 -23t34 -68q0 -30 -18 -48.5t-47 -25.5h-29q2 26 1 49.5t-7 41.5t-17 28.5t-30 10.5q-32 0 -60.5 -29.5t-49.5 -74.5t-33.5 -99.5
t-12.5 -104.5q0 -57 21 -94.5t69 -37.5q39 0 70 21.5t67 66.5l19 -18q-18 -30 -40.5 -56t-49.5 -46t-58.5 -31.5t-66.5 -11.5q-3 0 -6.5 0.5t-6.5 0.5l-18 -35q46 -3 70.5 -21.5t24.5 -52.5q0 -27 -14.5 -47.5t-40 -34t-60.5 -20t-75 -6.5z" />
    <glyph glyph-name="egrave" unicode="&#xe8;" horiz-adv-x="464" 
d="M340 763l44 -166h-34l-144 159v7h134zM317 504q-28 0 -53.5 -21t-46 -55t-35.5 -77t-21 -86q201 46 201 185q0 23 -10.5 38.5t-34.5 15.5zM469 433q0 -45 -25.5 -77t-68 -54.5t-99 -37.5t-119.5 -26q-1 -8 -1 -16v-15q0 -68 27.5 -103.5t77.5 -35.5q41 0 76.5 22.5
t71.5 67.5l21 -17q-49 -74 -106 -112.5t-129 -38.5q-40 0 -72 13.5t-54.5 38.5t-35 60.5t-12.5 78.5q0 66 24.5 130.5t67 115.5t99.5 82t122 31q69 0 102 -31.5t33 -75.5z" />
    <glyph glyph-name="eacute" unicode="&#xe9;" horiz-adv-x="464" 
d="M538 763v-7l-196 -159h-35l88 166h143zM317 504q-28 0 -53.5 -21t-46 -55t-35.5 -77t-21 -86q201 46 201 185q0 23 -10.5 38.5t-34.5 15.5zM469 433q0 -45 -25.5 -77t-68 -54.5t-99 -37.5t-119.5 -26q-1 -8 -1 -16v-15q0 -68 27.5 -103.5t77.5 -35.5q41 0 76.5 22.5
t71.5 67.5l21 -17q-49 -74 -106 -112.5t-129 -38.5q-40 0 -72 13.5t-54.5 38.5t-35 60.5t-12.5 78.5q0 66 24.5 130.5t67 115.5t99.5 82t122 31q69 0 102 -31.5t33 -75.5z" />
    <glyph glyph-name="ecircumflex" unicode="&#xea;" horiz-adv-x="464" 
d="M504 594h-40l-99 96l-140 -96h-45l150 171h97zM317 504q-28 0 -53.5 -21t-46 -55t-35.5 -77t-21 -86q201 46 201 185q0 23 -10.5 38.5t-34.5 15.5zM469 433q0 -45 -25.5 -77t-68 -54.5t-99 -37.5t-119.5 -26q-1 -8 -1 -16v-15q0 -68 27.5 -103.5t77.5 -35.5
q41 0 76.5 22.5t71.5 67.5l21 -17q-49 -74 -106 -112.5t-129 -38.5q-40 0 -72 13.5t-54.5 38.5t-35 60.5t-12.5 78.5q0 66 24.5 130.5t67 115.5t99.5 82t122 31q69 0 102 -31.5t33 -75.5z" />
    <glyph glyph-name="edieresis" unicode="&#xeb;" horiz-adv-x="464" 
d="M446 604q-32 0 -50.5 20t-18.5 49q0 31 21 53.5t54 22.5q32 0 51 -20t19 -48q0 -31 -21 -54t-55 -23zM262 604q-32 0 -51 20t-19 49q0 31 21.5 53.5t54.5 22.5q32 0 51 -20t19 -48q0 -31 -21.5 -54t-54.5 -23zM317 504q-28 0 -53.5 -21t-46 -55t-35.5 -77t-21 -86
q201 46 201 185q0 23 -10.5 38.5t-34.5 15.5zM469 433q0 -45 -25.5 -77t-68 -54.5t-99 -37.5t-119.5 -26q-1 -8 -1 -15v-16q0 -68 27.5 -103.5t77.5 -35.5q41 0 76.5 22.5t71.5 67.5l21 -17q-49 -74 -106 -112.5t-129 -38.5q-40 0 -72 13.5t-54.5 38.5t-35 60.5t-12.5 78.5
q0 66 24.5 130.5t67 115.5t99.5 82t122 31q69 0 102 -31.5t33 -75.5z" />
    <glyph glyph-name="igrave" unicode="&#xec;" horiz-adv-x="309" 
d="M201 763l44 -166h-34l-144 159v7h134zM115 442l-57 35l5 20l193 43h21l-103 -410q-4 -14 -6.5 -25t-2.5 -17q0 -15 14 -15t34 17.5t52 55.5l19 -16q-24 -35 -45.5 -61.5t-42 -44t-41.5 -26t-45 -8.5q-40 0 -60 23t-20 58q0 18 3 37t9 46z" />
    <glyph glyph-name="iacute" unicode="&#xed;" horiz-adv-x="309" 
d="M115 442l-57 35l5 20l193 43h21l-103 -410q-4 -14 -6.5 -25t-2.5 -17q0 -15 14 -15t34 17.5t52 55.5l19 -16q-24 -35 -45.5 -61.5t-42 -44t-41.5 -26t-45 -8.5q-40 0 -60 23t-20 58q0 18 3 37t9 46zM420 763v-7l-196 -159h-35l88 166h143z" />
    <glyph glyph-name="icircumflex" unicode="&#xee;" horiz-adv-x="309" 
d="M115 442l-57 35l5 20l193 43h21l-103 -410q-4 -14 -6.5 -25t-2.5 -17q0 -15 14 -15t34 17.5t52 55.5l19 -16q-24 -35 -45.5 -61.5t-42 -44t-41.5 -26t-45 -8.5q-40 0 -60 23t-20 58q0 18 3 37t9 46zM381 594h-40l-99 96l-140 -96h-45l150 171h97z" />
    <glyph glyph-name="idieresis" unicode="&#xef;" horiz-adv-x="309" 
d="M115 442l-57 35l5 20l193 43h21l-103 -410q-4 -14 -6.5 -25t-2.5 -17q0 -15 14 -15t34 17.5t52 55.5l19 -16q-24 -35 -45.5 -61.5t-42 -44t-41.5 -26t-45 -8.5q-40 0 -60 23t-20 58q0 18 3 37t9 46zM320 604q-32 0 -50.5 20t-18.5 49q0 31 21 53.5t54 22.5q32 0 51 -20
t19 -48q0 -31 -21 -54t-55 -23zM136 604q-32 0 -51 20t-19 49q0 31 21.5 53.5t54.5 22.5q32 0 51 -20t19 -48q0 -31 -21.5 -54t-54.5 -23z" />
    <glyph glyph-name="eth" unicode="&#xf0;" horiz-adv-x="530" 
d="M377 397q0 26 -1.5 51t-6.5 49q-8 5 -17 7.5t-21 2.5q-26 0 -49.5 -18t-43 -47t-35.5 -67.5t-27 -78.5t-17 -80t-6 -73q0 -57 14 -87.5t45 -30.5q22 0 43 17.5t39.5 46.5t33.5 67t26 79.5t17 83t6 78.5zM133 621l154 53q-47 50 -123 88l18 23q51 -15 93 -37.5t77 -51.5
l122 43l12 -36l-103 -36q65 -65 96 -146t31 -162q0 -75 -24 -142.5t-65.5 -117.5t-97.5 -79.5t-119 -29.5q-39 0 -72.5 12t-58 36.5t-39 61.5t-14.5 86q0 63 22.5 126.5t63.5 114t97 82t124 31.5q8 0 17 -1t17 -3q-16 59 -49 107l-167 -58z" />
    <glyph glyph-name="ntilde" unicode="&#xf1;" horiz-adv-x="605" 
d="M451 603q-21 0 -37.5 9t-31 20t-29 20t-30.5 9q-21 0 -37.5 -14.5t-35.5 -41.5l-25 15q33 65 59.5 94.5t64.5 29.5q21 0 37.5 -9t30.5 -20t28 -20t31 -9q22 0 38.5 14t34.5 42l26 -15q-33 -65 -59.5 -94.5t-64.5 -29.5zM218 293q25 49 57 93.5t67 78.5t72.5 54.5
t73.5 20.5q38 0 55.5 -21t17.5 -57q0 -10 -2 -23t-5 -27l-76 -282q-4 -14 -6.5 -25t-2.5 -17q0 -15 14 -15t34 17.5t51 55.5l20 -16q-25 -35 -46.5 -61.5t-42 -44t-41.5 -26t-45 -8.5q-39 0 -60 23t-21 58q0 18 3 37.5t11 46.5l68 241l4 18q2 8 2 14q0 20 -18 20
q-19 0 -49.5 -24t-63 -66t-61 -98t-44.5 -120l-36 -140h-136l111 442l-57 35l5 20l193 43h21z" />
    <glyph glyph-name="ograve" unicode="&#xf2;" horiz-adv-x="530" 
d="M322 763l44 -166h-34l-144 159v7h134zM510 343q0 -64 -23 -127t-63.5 -113.5t-96.5 -81.5t-121 -31q-84 0 -135 51t-51 145q0 64 23 127.5t64 113.5t96.5 81.5t120.5 31.5q84 0 135 -51.5t51 -145.5zM153 139q0 -48 13 -81t47 -33q22 0 42.5 17.5t38.5 46t33.5 66.5
t26.5 78.5t17 81.5t6 76q0 48 -13 81t-47 33q-22 0 -42.5 -17.5t-38.5 -46.5t-33.5 -66.5t-26.5 -78.5t-17 -81.5t-6 -75.5z" />
    <glyph glyph-name="oacute" unicode="&#xf3;" horiz-adv-x="530" 
d="M510 343q0 -64 -23 -127t-63.5 -113.5t-96.5 -81.5t-121 -31q-84 0 -135 51t-51 145q0 64 23 127.5t64 113.5t96.5 81.5t120.5 31.5q84 0 135 -51.5t51 -145.5zM153 139q0 -48 13 -81t47 -33q22 0 42.5 17.5t38.5 46t33.5 66.5t26.5 78.5t17 81.5t6 76q0 48 -13 81
t-47 33q-22 0 -42.5 -17.5t-38.5 -46.5t-33.5 -66.5t-26.5 -78.5t-17 -81.5t-6 -75.5zM541 763v-7l-196 -159h-35l88 166h143z" />
    <glyph glyph-name="ocircumflex" unicode="&#xf4;" horiz-adv-x="530" 
d="M510 343q0 -64 -23 -127t-63.5 -113.5t-96.5 -81.5t-121 -31q-84 0 -135 51t-51 145q0 64 23 127.5t64 113.5t96.5 81.5t120.5 31.5q84 0 135 -51.5t51 -145.5zM153 139q0 -48 13 -81t47 -33q22 0 42.5 17.5t38.5 46t33.5 66.5t26.5 78.5t17 81.5t6 76q0 48 -13 81
t-47 33q-22 0 -42.5 -17.5t-38.5 -46.5t-33.5 -66.5t-26.5 -78.5t-17 -81.5t-6 -75.5zM498 594h-40l-99 96l-140 -96h-45l150 171h97z" />
    <glyph glyph-name="otilde" unicode="&#xf5;" horiz-adv-x="530" 
d="M410 603q-21 0 -37.5 9t-31 20t-29 20t-30.5 9q-21 0 -37.5 -14.5t-35.5 -41.5l-25 15q33 65 59.5 94.5t64.5 29.5q21 0 37.5 -9t30.5 -20t28 -20t31 -9q22 0 38.5 14t34.5 42l26 -15q-33 -65 -59.5 -94.5t-64.5 -29.5zM510 343q0 -64 -23 -127t-63.5 -113.5t-96.5 -81.5
t-121 -31q-84 0 -135 51t-51 145q0 64 23 127.5t64 113.5t96.5 81.5t120.5 31.5q84 0 135 -51.5t51 -145.5zM153 139q0 -48 13 -81t47 -33q22 0 42.5 17.5t38.5 46t33.5 66.5t26.5 78.5t17 81.5t6 76q0 48 -13 81t-47 33q-22 0 -42.5 -17.5t-38.5 -46.5t-33.5 -66.5
t-26.5 -78.5t-17 -81.5t-6 -75.5z" />
    <glyph glyph-name="odieresis" unicode="&#xf6;" horiz-adv-x="530" 
d="M510 343q0 -64 -23 -127t-63.5 -113.5t-96.5 -81.5t-121 -31q-84 0 -135 51t-51 145q0 64 23 127.5t64 113.5t96.5 81.5t120.5 31.5q84 0 135 -51.5t51 -145.5zM153 139q0 -48 13 -81t47 -33q22 0 42.5 17.5t38.5 46t33.5 66.5t26.5 78.5t17 81.5t6 76q0 48 -13 81
t-47 33q-22 0 -42.5 -17.5t-38.5 -46.5t-33.5 -66.5t-26.5 -78.5t-17 -81.5t-6 -75.5zM447 604q-32 0 -50.5 20t-18.5 49q0 31 21 53.5t54 22.5q32 0 51 -20t19 -48q0 -31 -21 -54t-55 -23zM263 604q-32 0 -51 20t-19 49q0 31 21.5 53.5t54.5 22.5q32 0 51 -20t19 -48
q0 -31 -21.5 -54t-54.5 -23z" />
    <glyph glyph-name="divide" unicode="&#xf7;" horiz-adv-x="569" 
d="M280 538q0 23 16 39t39 16t40 -16t17 -39t-17 -39.5t-40 -16.5t-39 16.5t-16 39.5zM207 203q0 23 16.5 39.5t39.5 16.5t39.5 -16.5t16.5 -39.5t-16.5 -39.5t-39.5 -16.5t-39.5 16.5t-16.5 39.5zM86 400h441l-13 -60h-441z" />
    <glyph glyph-name="oslash" unicode="&#xf8;" horiz-adv-x="530" 
d="M213 25q31 0 60.5 35t52 87.5t37 114t16.5 114.5l-226 -277q5 -33 18.5 -53.5t41.5 -20.5zM317 505q-32 0 -61.5 -35.5t-52 -88.5t-37 -115t-15.5 -115l226 278q-5 34 -18.5 55t-41.5 21zM206 -10q-69 0 -115 33l-45 -55l-28 20l47 58q-45 51 -45 140q0 64 23 127.5
t64 113.5t96.5 81.5t120.5 31.5q68 0 115 -35l41 51l28 -21l-43 -53q45 -53 45 -139q0 -64 -23 -127t-63.5 -113.5t-96.5 -81.5t-121 -31z" />
    <glyph glyph-name="ugrave" unicode="&#xf9;" horiz-adv-x="606" 
d="M349 763l44 -166h-34l-144 159v7h134zM429 523l142 8l-99 -401q-4 -14 -6.5 -25t-2.5 -17q0 -15 14 -15t34 17.5t52 55.5l19 -16q-24 -35 -45.5 -61.5t-42 -44t-41.5 -26t-45 -8.5q-39 0 -60 22t-21 60q0 10 3 27.5t7.5 39t10.5 45.5l13 47q-23 -48 -51.5 -91.5
t-60 -76.5t-65.5 -53t-67 -20q-42 0 -64.5 25.5t-22.5 63.5q0 23 8 55l79 308l-57 35l5 20l193 43h21l-101 -393q-8 -30 -8 -44q0 -24 23 -24q19 0 47.5 25t58 67.5t56.5 100t43 123.5z" />
    <glyph glyph-name="uacute" unicode="&#xfa;" horiz-adv-x="606" 
d="M429 523l142 8l-99 -401q-4 -14 -6.5 -25t-2.5 -17q0 -15 14 -15t34 17.5t52 55.5l19 -16q-24 -35 -45.5 -61.5t-42 -44t-41.5 -26t-45 -8.5q-39 0 -60 22t-21 60q0 10 3 27.5t7.5 39t10.5 45.5l13 47q-23 -48 -51.5 -91.5t-60 -76.5t-65.5 -53t-67 -20q-42 0 -64.5 25.5
t-22.5 63.5q0 23 8 55l79 308l-57 35l5 20l193 43h21l-101 -393q-8 -30 -8 -44q0 -24 23 -24q19 0 47.5 25t58 67.5t56.5 100t43 123.5zM567 763v-7l-196 -159h-35l88 166h143z" />
    <glyph glyph-name="ucircumflex" unicode="&#xfb;" horiz-adv-x="606" 
d="M429 523l142 8l-99 -401q-4 -14 -6.5 -25t-2.5 -17q0 -15 14 -15t34 17.5t52 55.5l19 -16q-24 -35 -45.5 -61.5t-42 -44t-41.5 -26t-45 -8.5q-39 0 -60 22t-21 60q0 10 3 27.5t7.5 39t10.5 45.5l13 47q-23 -48 -51.5 -91.5t-60 -76.5t-65.5 -53t-67 -20q-42 0 -64.5 25.5
t-22.5 63.5q0 23 8 55l79 308l-57 35l5 20l193 43h21l-101 -393q-8 -30 -8 -44q0 -24 23 -24q19 0 47.5 25t58 67.5t56.5 100t43 123.5zM528 594h-40l-99 96l-140 -96h-45l150 171h97z" />
    <glyph glyph-name="udieresis" unicode="&#xfc;" horiz-adv-x="606" 
d="M429 523l142 8l-99 -401q-4 -14 -6.5 -25t-2.5 -17q0 -15 14 -15t34 17.5t52 55.5l19 -16q-24 -35 -45.5 -61.5t-42 -44t-41.5 -26t-45 -8.5q-39 0 -60 22t-21 60q0 10 3 27.5t7.5 39t10.5 45.5l13 47q-23 -48 -51.5 -91.5t-60 -76.5t-65.5 -53t-67 -20q-42 0 -64.5 25.5
t-22.5 63.5q0 23 8 55l79 308l-57 35l5 20l193 43h21l-101 -393q-8 -30 -8 -44q0 -24 23 -24q19 0 47.5 25t58 67.5t56.5 100t43 123.5zM467 604q-32 0 -50.5 20t-18.5 49q0 31 21 53.5t54 22.5q32 0 51 -20t19 -48q0 -31 -21 -54t-55 -23zM283 604q-32 0 -51 20t-19 49
q0 31 21.5 53.5t54.5 22.5q32 0 51 -20t19 -48q0 -31 -21.5 -54t-54.5 -23z" />
    <glyph glyph-name="yacute" unicode="&#xfd;" horiz-adv-x="509" 
d="M539 763v-7l-196 -159h-35l88 166h143zM16 480l6 18l167 42h11l81 -473l28 40q35 52 57 91.5t34 71t16.5 57.5t4.5 51q0 50 -28.5 71.5t-71.5 18.5l1 12q14 21 40 40.5t60 19.5q25 0 42 -8t28 -21.5t16 -31.5t5 -37q0 -62 -49 -149.5t-134 -211.5q-61 -88 -109.5 -145
t-89 -90.5t-75 -46.5t-68.5 -13q-39 0 -68.5 20.5t-29.5 63.5q0 28 18 48.5t45 28.5h10q0 -45 18.5 -70t56.5 -25q16 0 31.5 3.5t32 12.5t35 24.5t39.5 38.5l-101 517z" />
    <glyph glyph-name="thorn" unicode="&#xfe;" horiz-adv-x="583" 
d="M201 288q22 47 51 92.5t62 81t68 57t70 21.5q54 0 82.5 -39.5t28.5 -111.5q0 -80 -28.5 -152t-74.5 -127t-104.5 -87.5t-118.5 -32.5q-66 0 -96 41l-40 -157q-4 -13 -4 -23q0 -17 18.5 -23t65.5 -7l-7 -33h-290l7 33q35 2 50 9.5t22 34.5l207 825l-60 30l5 21l192 42h21z
M382 446q-26 0 -59.5 -30t-66.5 -80.5t-61 -117t-44 -140.5q8 -22 26.5 -34.5t41.5 -12.5q40 0 77 33t65 83t45 110t17 114q0 34 -9 54.5t-32 20.5z" />
    <glyph glyph-name="ydieresis" unicode="&#xff;" horiz-adv-x="509" 
d="M427 604q-32 0 -50.5 20t-18.5 49q0 31 21 53.5t54 22.5q32 0 51 -20t19 -48q0 -31 -21 -54t-55 -23zM243 604q-32 0 -51 20t-19 49q0 31 21.5 53.5t54.5 22.5q32 0 51 -20t19 -48q0 -31 -21.5 -54t-54.5 -23zM16 480l6 18l167 42h11l81 -473l28 40q35 52 57 91.5t34 71
t16.5 57.5t4.5 51q0 50 -28.5 71.5t-71.5 18.5l1 12q14 21 40 40.5t60 19.5q25 0 42 -8t28 -21.5t16 -31.5t5 -37q0 -62 -49 -149.5t-134 -211.5q-61 -88 -109.5 -145t-89 -90.5t-75 -46.5t-68.5 -13q-39 0 -68.5 20.5t-29.5 63.5q0 28 18 48.5t45 28.5h10q0 -45 18.5 -70
t56.5 -25q16 0 31.5 3.5t32 12.5t35 24.5t39.5 38.5l-101 517z" />
    <glyph glyph-name="Amacron" unicode="&#x100;" horiz-adv-x="721" 
d="M316 830h281l-14 -68h-281zM198 274h236l-56 300zM442 231h-269l-67 -112q-8 -15 -13 -26.5t-5 -22.5q0 -18 18.5 -25.5t59.5 -9.5l-7 -35h-210l7 35q22 2 38 9.5t28 27.5l341 562l-15 73h150l122 -635q4 -20 17.5 -27.5t34.5 -9.5l-8 -35h-300l7 35q20 1 37.5 3
t30.5 7.5t20.5 16t7.5 28.5q0 10 -3 28z" />
    <glyph glyph-name="amacron" unicode="&#x101;" horiz-adv-x="599" 
d="M284 692h269l-14 -68h-269zM325 72q0 10 3 27t7.5 37.5t10.5 42.5l12 41q-23 -49 -49.5 -91t-55 -73t-59.5 -48.5t-63 -17.5q-54 0 -83.5 40.5t-29.5 112.5q0 75 26.5 146t71.5 127t103.5 90t123.5 34q38 0 65 -12.5t47 -33.5l94 50h29l-38 -123l-70 -291
q-4 -14 -6.5 -25t-2.5 -17q0 -15 14 -15t34 17.5t51 55.5l20 -16q-25 -35 -46.5 -61.5t-42 -44t-41.5 -26t-45 -8.5q-38 0 -59 22t-21 60zM197 85q24 0 54 26.5t60 75t58.5 117t50.5 153.5q-7 21 -23.5 34t-39.5 13q-40 0 -76.5 -32t-64.5 -82.5t-44.5 -112t-16.5 -119.5
q0 -33 9.5 -53t32.5 -20z" />
    <glyph glyph-name="Abreve" unicode="&#x102;" horiz-adv-x="721" 
d="M438 744q-61 0 -92 38t-14 118h37q-2 -23 3 -38.5t16.5 -24.5t27.5 -13t36 -4q40 0 71.5 16.5t47.5 63.5h39q-18 -80 -62.5 -118t-109.5 -38zM198 274h236l-56 300zM442 231h-269l-67 -112q-8 -15 -13 -26.5t-5 -22.5q0 -18 18.5 -25.5t59.5 -9.5l-7 -35h-210l7 35
q22 2 38 9.5t28 27.5l341 562l-15 73h150l122 -635q4 -20 17.5 -27.5t34.5 -9.5l-8 -35h-300l7 35q20 1 37.5 3t30.5 7.5t20.5 16t7.5 28.5q0 10 -3 28z" />
    <glyph glyph-name="abreve" unicode="&#x103;" horiz-adv-x="599" 
d="M403 597q-63 0 -91 41.5t-10 121.5h38q-6 -48 16.5 -66.5t62.5 -18.5q39 0 70 18.5t46 66.5h38q-18 -80 -61 -121.5t-109 -41.5zM325 72q0 10 3 27t7.5 37.5t10.5 42.5l12 41q-23 -49 -49.5 -91t-55 -73t-59.5 -48.5t-63 -17.5q-54 0 -83.5 40.5t-29.5 112.5
q0 75 26.5 146t71.5 127t103.5 90t123.5 34q38 0 65 -12.5t47 -33.5l94 50h29l-38 -123l-70 -291q-4 -14 -6.5 -25t-2.5 -17q0 -15 14 -15t34 17.5t51 55.5l20 -16q-25 -35 -46.5 -61.5t-42 -44t-41.5 -26t-45 -8.5q-38 0 -59 22t-21 60zM197 85q24 0 54 26.5t60 75
t58.5 117t50.5 153.5q-7 21 -23.5 34t-39.5 13q-40 0 -76.5 -32t-64.5 -82.5t-44.5 -112t-16.5 -119.5q0 -33 9.5 -53t32.5 -20z" />
    <glyph glyph-name="Aogonek" unicode="&#x104;" horiz-adv-x="721" 
d="M198 274h236l-56 300zM442 231h-269l-67 -112q-8 -15 -13 -26.5t-5 -22.5q0 -18 18.5 -25.5t59.5 -9.5l-7 -35h-210l7 35q22 2 38 9.5t28 27.5l341 562l-15 73h150l122 -635q4 -20 17.5 -27.5t34.5 -9.5l-8 -35h-269q-48 -20 -73.5 -47t-25.5 -64q0 -19 12 -31t33 -12
t41 9.5t45 29.5l10 -16q-29 -32 -65 -57t-83 -25q-35 0 -58.5 18.5t-23.5 54.5q0 28 12 51.5t33 43t50.5 36t65.5 30.5q22 9 40 15.5t31 13.5t20.5 16.5t7.5 23.5q0 10 -3 28z" />
    <glyph glyph-name="aogonek" unicode="&#x105;" horiz-adv-x="599" 
d="M197 85q24 0 54 26.5t60 75t58.5 117t50.5 153.5q-7 21 -23.5 34t-39.5 13q-40 0 -76.5 -32t-64.5 -82.5t-44.5 -112t-16.5 -119.5q0 -33 9.5 -53t32.5 -20zM580 130q-36 -49 -73 -84l-66 -61q-30 -27 -49 -49.5t-19 -47.5q0 -20 12.5 -31t32.5 -11q40 0 86 39l10 -16
q-29 -32 -65 -57t-82 -25q-35 0 -58.5 18t-23.5 53q0 22 10.5 41.5t27 35.5t37.5 30t42 26q-37 2 -57 23t-20 58q0 10 3 27t7.5 37.5t10.5 42.5l12 41q-23 -49 -49.5 -91t-55 -73t-59.5 -48.5t-63 -17.5q-54 0 -83.5 40.5t-29.5 112.5q0 75 26.5 146t71.5 127t103.5 90
t123.5 34q38 0 65 -12.5t47 -33.5l94 50h29l-38 -123l-70 -291q-4 -14 -6.5 -25t-2.5 -17q0 -15 14 -15t34 17.5t51 55.5z" />
    <glyph glyph-name="Cacute" unicode="&#x106;" horiz-adv-x="665" 
d="M691 896v-7l-185 -142h-35l74 149h146zM471 712q67 0 123 -16.5t91 -43.5l-32 -160h-37q-1 87 -36 133.5t-105 46.5q-47 0 -86 -19.5t-70 -52t-54.5 -75t-39 -89t-23.5 -94.5t-8 -90q0 -106 35.5 -163t108.5 -57q75 0 133.5 49.5t108.5 156.5h43l-56 -190
q-51 -28 -108.5 -43t-125.5 -15q-70 0 -124 20.5t-91.5 57.5t-57 89t-19.5 116q0 85 32 164.5t89 140.5t136 97.5t173 36.5z" />
    <glyph glyph-name="cacute" unicode="&#x107;" horiz-adv-x="446" 
d="M313 505q-32 0 -60.5 -29.5t-49.5 -74.5t-33.5 -99.5t-12.5 -104.5q0 -57 21 -94.5t69 -37.5q39 0 70 21.5t67 66.5l19 -18q-18 -30 -40.5 -56t-49.5 -46t-58.5 -31.5t-66.5 -11.5q-40 0 -71 13.5t-52.5 38.5t-33 58.5t-11.5 74.5q0 67 24.5 132.5t67.5 117t100 83.5
t123 32q57 0 91 -23t34 -68q0 -30 -18 -48.5t-47 -25.5h-29q2 26 1 49.5t-7 41.5t-17 28.5t-30 10.5zM557 763v-7l-196 -159h-35l88 166h143z" />
    <glyph glyph-name="Ccircumflex" unicode="&#x108;" horiz-adv-x="665" 
d="M651 747h-40l-99 82l-140 -82h-45l150 156h97zM471 712q67 0 123 -16.5t91 -43.5l-32 -160h-37q-1 87 -36 133.5t-105 46.5q-47 0 -86 -19.5t-70 -52t-54.5 -75t-39 -89t-23.5 -94.5t-8 -90q0 -106 35.5 -163t108.5 -57q75 0 133.5 49.5t108.5 156.5h43l-56 -190
q-51 -28 -108.5 -43t-125.5 -15q-70 0 -124 20.5t-91.5 57.5t-57 89t-19.5 116q0 85 32 164.5t89 140.5t136 97.5t173 36.5z" />
    <glyph glyph-name="ccircumflex" unicode="&#x109;" horiz-adv-x="446" 
d="M313 505q-32 0 -60.5 -29.5t-49.5 -74.5t-33.5 -99.5t-12.5 -104.5q0 -57 21 -94.5t69 -37.5q39 0 70 21.5t67 66.5l19 -18q-18 -30 -40.5 -56t-49.5 -46t-58.5 -31.5t-66.5 -11.5q-40 0 -71 13.5t-52.5 38.5t-33 58.5t-11.5 74.5q0 67 24.5 132.5t67.5 117t100 83.5
t123 32q57 0 91 -23t34 -68q0 -30 -18 -48.5t-47 -25.5h-29q2 26 1 49.5t-7 41.5t-17 28.5t-30 10.5zM506 594h-40l-99 96l-140 -96h-45l150 171h97z" />
    <glyph glyph-name="Cdotaccent" unicode="&#x10a;" horiz-adv-x="665" 
d="M471 712q67 0 123 -16.5t91 -43.5l-32 -160h-37q-1 87 -36 133.5t-105 46.5q-47 0 -86 -19.5t-70 -52t-54.5 -75t-39 -89t-23.5 -94.5t-8 -90q0 -106 35.5 -163t108.5 -57q75 0 133.5 49.5t108.5 156.5h43l-56 -190q-51 -28 -108.5 -43t-125.5 -15q-70 0 -124 20.5
t-91.5 57.5t-57 89t-19.5 116q0 85 32 164.5t89 140.5t136 97.5t173 36.5zM509 750q-34 0 -54 21t-20 50q0 32 22 55.5t58 23.5q33 0 53.5 -21t20.5 -50q0 -32 -22.5 -55.5t-57.5 -23.5z" />
    <glyph glyph-name="cdotaccent" unicode="&#x10b;" horiz-adv-x="446" 
d="M368 604q-34 0 -54 20.5t-20 49.5q0 32 22 55.5t58 23.5q33 0 53.5 -20.5t20.5 -49.5q0 -32 -22.5 -55.5t-57.5 -23.5zM313 505q-32 0 -60.5 -29.5t-49.5 -74.5t-33.5 -99.5t-12.5 -104.5q0 -57 21 -94.5t69 -37.5q39 0 70 21.5t67 66.5l19 -18q-18 -30 -40.5 -56
t-49.5 -46t-58.5 -31.5t-66.5 -11.5q-40 0 -71 13.5t-52.5 38.5t-33 58.5t-11.5 74.5q0 67 24.5 132.5t67.5 117t100 83.5t123 32q57 0 91 -23t34 -68q0 -30 -18 -48.5t-47 -25.5h-29q2 26 1 49.5t-7 41.5t-17 28.5t-30 10.5z" />
    <glyph glyph-name="Ccaron" unicode="&#x10c;" horiz-adv-x="665" 
d="M371 903h40l99 -82l140 82h45l-150 -156h-97zM471 712q67 0 123 -16.5t91 -43.5l-32 -160h-37q-1 87 -36 133.5t-105 46.5q-47 0 -86 -19.5t-70 -52t-54.5 -75t-39 -89t-23.5 -94.5t-8 -90q0 -106 35.5 -163t108.5 -57q75 0 133.5 49.5t108.5 156.5h43l-56 -190
q-51 -28 -108.5 -43t-125.5 -15q-70 0 -124 20.5t-91.5 57.5t-57 89t-19.5 116q0 85 32 164.5t89 140.5t136 97.5t173 36.5z" />
    <glyph glyph-name="ccaron" unicode="&#x10d;" horiz-adv-x="446" 
d="M313 505q-32 0 -60.5 -29.5t-49.5 -74.5t-33.5 -99.5t-12.5 -104.5q0 -57 21 -94.5t69 -37.5q39 0 70 21.5t67 66.5l19 -18q-18 -30 -40.5 -56t-49.5 -46t-58.5 -31.5t-66.5 -11.5q-40 0 -71 13.5t-52.5 38.5t-33 58.5t-11.5 74.5q0 67 24.5 132.5t67.5 117t100 83.5
t123 32q57 0 91 -23t34 -68q0 -30 -18 -48.5t-47 -25.5h-29q2 26 1 49.5t-7 41.5t-17 28.5t-30 10.5zM223 768h40l99 -96l140 96h45l-150 -171h-97z" />
    <glyph glyph-name="Dcaron" unicode="&#x10e;" horiz-adv-x="739" 
d="M-25 0l8 35q27 3 43.5 6.5t26.5 10.5t15 19t9 33l106 494q4 21 3.5 33.5t-8 19.5t-22.5 10t-39 6l8 35h282q73 0 134 -19t104 -55t67 -88.5t24 -119.5q0 -96 -35 -174t-96 -132.5t-143 -84t-176 -29.5h-311zM297 40q60 0 112.5 32t91.5 86t61 125.5t22 151.5
q0 109 -47 168t-152 59h-43l-117 -551q-10 -44 5 -57.5t55 -13.5h12zM316 903h40l99 -82l140 82h45l-150 -156h-97z" />
    <glyph glyph-name="dcaron" unicode="&#x10f;" horiz-adv-x="614" 
d="M482 690l-59 30l4 21l192 42h21l-160 -653q-4 -14 -6.5 -25t-2.5 -17q0 -15 14 -15t34 17.5t51 55.5l20 -16q-25 -35 -46.5 -61.5t-42 -44t-41.5 -26t-45 -8.5q-38 0 -59 22t-21 60q0 10 3 28.5t8 40t11.5 44.5t13.5 43q-24 -49 -52 -92t-59 -75.5t-63.5 -51.5t-64.5 -19
q-54 0 -84 40.5t-30 112.5q0 75 27 146t72.5 127t105 90t123.5 34q29 0 50.5 -7t41.5 -23zM198 85q24 0 55 26.5t62 75t60.5 117.5t50.5 153q-8 21 -25 34t-40 13q-41 0 -78.5 -32.5t-65.5 -83t-44.5 -110.5t-16.5 -115q0 -35 9.5 -56.5t32.5 -21.5zM665 578h-27l61 205h120
l-2 -8z" />
    <glyph glyph-name="Dcroat" unicode="&#x110;" horiz-adv-x="739" 
d="M297 40q60 0 112.5 32t91.5 86t61 125.5t22 151.5q0 109 -47 168t-152 59h-43l-60 -279h133l-10 -48h-133l-47 -224q-10 -44 5 -57.5t55 -13.5h12zM61 383h76l46 215q4 21 3.5 33.5t-8 19.5t-22.5 10t-39 6l8 35h282q73 0 134 -19t104 -55t67 -88.5t24 -119.5
q0 -96 -35 -174t-96 -132.5t-143 -84t-176 -29.5h-311l8 35q27 3 43.5 6.5t26.5 10.5t15 19t9 33l49 231h-75z" />
    <glyph glyph-name="dcroat" unicode="&#x111;" horiz-adv-x="618" 
d="M198 85q24 0 55 26.5t62 75t60.5 117.5t50.5 153q-8 21 -25 34t-40 13q-41 0 -78.5 -32.5t-65.5 -83t-44.5 -110.5t-16.5 -115q0 -35 9.5 -56.5t32.5 -21.5zM458 592h-126l10 42h126l14 56l-59 30l4 21l192 42h21l-37 -149h66l-9 -42h-67l-113 -462q-4 -14 -6.5 -25
t-2.5 -17q0 -15 14 -15t34 17.5t51 55.5l20 -16q-25 -35 -46.5 -61.5t-42 -44t-41.5 -26t-45 -8.5q-38 0 -59 22t-21 60q0 10 3 28.5t8 40t11.5 44.5t13.5 43q-24 -49 -52 -92t-59 -75.5t-63.5 -51.5t-64.5 -19q-54 0 -84 40.5t-30 112.5q0 75 27 146t72.5 127t105 90
t123.5 34q29 0 50.5 -7t41.5 -23z" />
    <glyph glyph-name="Emacron" unicode="&#x112;" horiz-adv-x="639" 
d="M-25 0l8 35q27 3 43.5 6.5t26.5 10.5t15 19t9 33l106 494q4 21 3.5 33.5t-8 19.5t-22.5 10t-39 6l8 35h548l-34 -180h-28q-9 41 -18 68t-22.5 43t-33 22.5t-49.5 6.5h-146l-59 -278h127q34 0 52.5 22t36.5 70h35l-48 -227h-36q3 48 -6.5 69.5t-42.5 21.5h-127l-50 -232
q-9 -41 10 -54.5t65 -13.5h63q30 0 53.5 8.5t47 27t49.5 48.5l60 76h35l-74 -200h-558zM315 830h281l-14 -68h-281z" />
    <glyph glyph-name="emacron" unicode="&#x113;" horiz-adv-x="464" 
d="M232 692h269l-14 -68h-269zM317 504q-28 0 -53.5 -21t-46 -55t-35.5 -77t-21 -86q201 46 201 185q0 23 -10.5 38.5t-34.5 15.5zM469 433q0 -45 -25.5 -77t-68 -54.5t-99 -37.5t-119.5 -26q-1 -8 -1 -16v-15q0 -68 27.5 -103.5t77.5 -35.5q41 0 76.5 22.5t71.5 67.5
l21 -17q-49 -74 -106 -112.5t-129 -38.5q-40 0 -72 13.5t-54.5 38.5t-35 60.5t-12.5 78.5q0 66 24.5 130.5t67 115.5t99.5 82t122 31q69 0 102 -31.5t33 -75.5z" />
    <glyph glyph-name="Ebreve" unicode="&#x114;" horiz-adv-x="639" 
d="M-25 0l8 35q27 3 43.5 6.5t26.5 10.5t15 19t9 33l106 494q4 21 3.5 33.5t-8 19.5t-22.5 10t-39 6l8 35h548l-34 -180h-28q-9 41 -18 68t-22.5 43t-33 22.5t-49.5 6.5h-146l-59 -278h127q34 0 52.5 22t36.5 70h35l-48 -227h-36q3 48 -6.5 69.5t-42.5 21.5h-127l-50 -232
q-9 -41 10 -54.5t65 -13.5h63q30 0 53.5 8.5t47 27t49.5 48.5l60 76h35l-74 -200h-558zM444 744q-61 0 -92 38t-14 118h37q-2 -23 3 -38.5t16.5 -24.5t27.5 -13t36 -4q40 0 71.5 16.5t47.5 63.5h39q-18 -80 -62.5 -118t-109.5 -38z" />
    <glyph glyph-name="ebreve" unicode="&#x115;" horiz-adv-x="464" 
d="M347 597q-63 0 -91 41.5t-10 121.5h38q-6 -48 16.5 -66.5t62.5 -18.5q39 0 70 18.5t46 66.5h38q-18 -80 -61 -121.5t-109 -41.5zM317 504q-28 0 -53.5 -21t-46 -55t-35.5 -77t-21 -86q201 46 201 185q0 23 -10.5 38.5t-34.5 15.5zM469 433q0 -45 -25.5 -77t-68 -54.5
t-99 -37.5t-119.5 -26q-1 -8 -1 -16v-15q0 -68 27.5 -103.5t77.5 -35.5q41 0 76.5 22.5t71.5 67.5l21 -17q-49 -74 -106 -112.5t-129 -38.5q-40 0 -72 13.5t-54.5 38.5t-35 60.5t-12.5 78.5q0 66 24.5 130.5t67 115.5t99.5 82t122 31q69 0 102 -31.5t33 -75.5z" />
    <glyph glyph-name="Edotaccent" unicode="&#x116;" horiz-adv-x="639" 
d="M-25 0l8 35q27 3 43.5 6.5t26.5 10.5t15 19t9 33l106 494q4 21 3.5 33.5t-8 19.5t-22.5 10t-39 6l8 35h548l-34 -180h-28q-9 41 -18 68t-22.5 43t-33 22.5t-49.5 6.5h-146l-59 -278h127q34 0 52.5 22t36.5 70h35l-48 -227h-36q3 48 -6.5 69.5t-42.5 21.5h-127l-50 -232
q-9 -41 10 -54.5t65 -13.5h63q30 0 53.5 8.5t47 27t49.5 48.5l60 76h35l-74 -200h-558zM452 750q-34 0 -54 21t-20 50q0 32 22 55.5t58 23.5q33 0 53.5 -21t20.5 -50q0 -32 -22.5 -55.5t-57.5 -23.5z" />
    <glyph glyph-name="edotaccent" unicode="&#x117;" horiz-adv-x="464" 
d="M367 604q-34 0 -54 20.5t-20 49.5q0 32 22 55.5t58 23.5q33 0 53.5 -20.5t20.5 -49.5q0 -32 -22.5 -55.5t-57.5 -23.5zM317 504q-28 0 -53.5 -21t-46 -55t-35.5 -77t-21 -86q201 46 201 185q0 23 -10.5 38.5t-34.5 15.5zM469 433q0 -45 -25.5 -77t-68 -54.5t-99 -37.5
t-119.5 -26q-1 -8 -1 -16v-15q0 -68 27.5 -103.5t77.5 -35.5q41 0 76.5 22.5t71.5 67.5l21 -17q-49 -74 -106 -112.5t-129 -38.5q-40 0 -72 13.5t-54.5 38.5t-35 60.5t-12.5 78.5q0 66 24.5 130.5t67 115.5t99.5 82t122 31q69 0 102 -31.5t33 -75.5z" />
    <glyph glyph-name="Eogonek" unicode="&#x118;" horiz-adv-x="639" 
d="M434 0q-43 -24 -68.5 -52t-25.5 -59q0 -19 12 -31t32 -12q22 0 42 9.5t44 29.5l10 -16q-29 -32 -64.5 -57t-82.5 -25q-35 0 -58.5 18t-23.5 53q0 25 11 45.5t30 38t44 32t52 26.5h-413l8 35q27 3 43.5 6.5t26.5 10.5t15 19t9 33l106 494q4 21 3.5 33.5t-8 19.5t-22.5 10
t-39 6l8 35h548l-34 -180h-28q-9 41 -18 68t-22.5 43t-33 22.5t-49.5 6.5h-146l-59 -278h127q34 0 52.5 22t36.5 70h35l-48 -227h-36q3 48 -6.5 69.5t-42.5 21.5h-127l-50 -232q-9 -41 10 -54.5t65 -13.5h63q30 0 53.5 8.5t47 27t49.5 48.5l60 76h35l-74 -200h-99z" />
    <glyph glyph-name="eogonek" unicode="&#x119;" horiz-adv-x="464" 
d="M317 504q-28 0 -53.5 -21t-46 -55t-35.5 -77t-21 -86q201 46 201 185q0 23 -10.5 38.5t-34.5 15.5zM205 -10q-39 0 -73 13.5t-58.5 38.5t-38.5 60.5t-14 78.5q0 66 24.5 130.5t67 115.5t99.5 82t122 31q69 0 102 -31.5t33 -75.5q0 -45 -25.5 -77t-68 -54.5t-99 -37.5
t-119.5 -26q-1 -8 -1 -15v-16q0 -68 28 -104t79 -36q39 0 75 22.5t74 67.5l19 -16q-29 -43 -66 -76.5t-87 -59.5q-42 -20 -66 -49.5t-24 -66.5q0 -19 12 -31t33 -12t41 9.5t45 29.5l10 -16q-29 -32 -65 -57t-83 -25q-35 0 -58.5 18t-23.5 53q0 21 9 40t23.5 35t33.5 30.5
t40 26.5z" />
    <glyph glyph-name="Ecaron" unicode="&#x11a;" horiz-adv-x="639" 
d="M-25 0l8 35q27 3 43.5 6.5t26.5 10.5t15 19t9 33l106 494q4 21 3.5 33.5t-8 19.5t-22.5 10t-39 6l8 35h548l-34 -180h-28q-9 41 -18 68t-22.5 43t-33 22.5t-49.5 6.5h-146l-59 -278h127q34 0 52.5 22t36.5 70h35l-48 -227h-36q3 48 -6.5 69.5t-42.5 21.5h-127l-50 -232
q-9 -41 10 -54.5t65 -13.5h63q30 0 53.5 8.5t47 27t49.5 48.5l60 76h35l-74 -200h-558zM314 903h40l99 -82l140 82h45l-150 -156h-97z" />
    <glyph glyph-name="ecaron" unicode="&#x11b;" horiz-adv-x="464" 
d="M215 768h40l99 -96l140 96h45l-150 -171h-97zM317 504q-28 0 -53.5 -21t-46 -55t-35.5 -77t-21 -86q201 46 201 185q0 23 -10.5 38.5t-34.5 15.5zM469 433q0 -45 -25.5 -77t-68 -54.5t-99 -37.5t-119.5 -26q-1 -8 -1 -16v-15q0 -68 27.5 -103.5t77.5 -35.5
q41 0 76.5 22.5t71.5 67.5l21 -17q-49 -74 -106 -112.5t-129 -38.5q-40 0 -72 13.5t-54.5 38.5t-35 60.5t-12.5 78.5q0 66 24.5 130.5t67 115.5t99.5 82t122 31q69 0 102 -31.5t33 -75.5z" />
    <glyph glyph-name="Gcircumflex" unicode="&#x11c;" horiz-adv-x="721" 
d="M660 747h-40l-99 82l-140 -82h-45l150 156h97zM349 32q29 0 55 5.5t49 21.5l37 166q4 21 3.5 33.5t-8 19.5t-22.5 10.5t-39 6.5l8 34h290l-8 -34q-24 -2 -39 -5.5t-24 -11.5t-14 -20.5t-9 -32.5l-35 -166q-56 -32 -115 -50.5t-136 -18.5q-70 0 -125.5 20t-94.5 56.5
t-60 88t-21 115.5q0 85 32.5 165t90.5 141.5t138 98.5t174 37q67 0 124.5 -17t92.5 -43l-33 -160h-36q-1 87 -37 133.5t-107 46.5q-47 0 -86 -19.5t-71 -52.5t-56 -76t-40.5 -90t-24.5 -94.5t-8 -90.5q0 -106 41 -161.5t114 -55.5z" />
    <glyph glyph-name="gcircumflex" unicode="&#x11d;" horiz-adv-x="501" 
d="M496 594h-40l-99 96l-140 -96h-45l150 171h97zM346 418q0 36 -12 62.5t-42 26.5q-23 0 -43.5 -17t-36 -45.5t-25 -66t-9.5 -78.5q0 -36 12 -62t42 -26q22 0 43 16.5t36.5 45t25 66t9.5 78.5zM91 9q-73 -28 -73 -88q0 -48 44.5 -77t117.5 -29q78 0 120 22t42 57
q0 26 -16.5 37.5t-48.5 22.5zM472 388q0 -48 -19.5 -86.5t-53 -66t-78 -42t-94.5 -14.5q-41 0 -71 10q-14 -8 -22.5 -17.5t-8.5 -20.5q0 -13 10.5 -18t24.5 -10l167 -44q28 -7 52.5 -17t42.5 -25t28 -35.5t10 -47.5q0 -43 -22.5 -76t-61.5 -55.5t-91.5 -34t-112.5 -11.5
q-49 0 -94.5 9.5t-80.5 27.5t-56 43.5t-21 57.5q0 26 13.5 44.5t35 32t49 21.5t55.5 13q-16 12 -25 28t-9 37q0 36 25 62t69 46q-38 20 -59 54.5t-21 79.5q0 47 19.5 85.5t52.5 65.5t77 41.5t94 14.5q45 0 83 -16l180 6l-17 -60h-47l-57 9q34 -40 34 -91z" />
    <glyph glyph-name="Gbreve" unicode="&#x11e;" horiz-adv-x="721" 
d="M349 32q29 0 55 5.5t49 21.5l37 166q4 21 3.5 33.5t-8 19.5t-22.5 10.5t-39 6.5l8 34h290l-8 -34q-24 -2 -39 -5.5t-24 -11.5t-14 -20.5t-9 -32.5l-35 -166q-56 -32 -115 -50.5t-136 -18.5q-70 0 -125.5 20t-94.5 56.5t-60 88t-21 115.5q0 85 32.5 165t90.5 141.5
t138 98.5t174 37q67 0 124.5 -17t92.5 -43l-33 -160h-36q-1 87 -37 133.5t-107 46.5q-47 0 -86 -19.5t-71 -52.5t-56 -76t-40.5 -90t-24.5 -94.5t-8 -90.5q0 -106 41 -161.5t114 -55.5zM510 744q-61 0 -92 38t-14 118h37q-2 -23 3 -38.5t16.5 -24.5t27.5 -13t36 -4
q40 0 71.5 16.5t47.5 63.5h39q-18 -80 -62.5 -118t-109.5 -38z" />
    <glyph glyph-name="gbreve" unicode="&#x11f;" horiz-adv-x="501" 
d="M334 597q-63 0 -91 41.5t-10 121.5h38q-6 -48 16.5 -66.5t62.5 -18.5q39 0 70 18.5t46 66.5h38q-18 -80 -61 -121.5t-109 -41.5zM346 418q0 36 -12 62.5t-42 26.5q-23 0 -43.5 -17t-36 -45.5t-25 -66t-9.5 -78.5q0 -36 12 -62t42 -26q22 0 43 16.5t36.5 45t25 66
t9.5 78.5zM91 9q-73 -28 -73 -88q0 -48 44.5 -77t117.5 -29q78 0 120 22t42 57q0 26 -16.5 37.5t-48.5 22.5zM472 388q0 -48 -19.5 -86.5t-53 -66t-78 -42t-94.5 -14.5q-41 0 -71 10q-14 -8 -22.5 -17.5t-8.5 -20.5q0 -13 10.5 -18t24.5 -10l167 -44q28 -7 52.5 -17
t42.5 -25t28 -35.5t10 -47.5q0 -43 -22.5 -76t-61.5 -55.5t-91.5 -34t-112.5 -11.5q-49 0 -94.5 9.5t-80.5 27.5t-56 43.5t-21 57.5q0 26 13.5 44.5t35 32t49 21.5t55.5 13q-16 12 -25 28t-9 37q0 36 25 62t69 46q-38 20 -59 54.5t-21 79.5q0 47 19.5 85.5t52.5 65.5
t77 41.5t94 14.5q45 0 83 -16l180 6l-17 -60h-47l-57 9q34 -40 34 -91z" />
    <glyph glyph-name="Gdotaccent" unicode="&#x120;" horiz-adv-x="721" 
d="M349 32q29 0 55 5.5t49 21.5l37 166q4 21 3.5 33.5t-8 19.5t-22.5 10.5t-39 6.5l8 34h290l-8 -34q-24 -2 -39 -5.5t-24 -11.5t-14 -20.5t-9 -32.5l-35 -166q-56 -32 -115 -50.5t-136 -18.5q-70 0 -125.5 20t-94.5 56.5t-60 88t-21 115.5q0 85 32.5 165t90.5 141.5
t138 98.5t174 37q67 0 124.5 -17t92.5 -43l-33 -160h-36q-1 87 -37 133.5t-107 46.5q-47 0 -86 -19.5t-71 -52.5t-56 -76t-40.5 -90t-24.5 -94.5t-8 -90.5q0 -106 41 -161.5t114 -55.5zM518 750q-34 0 -54 21t-20 50q0 32 22 55.5t58 23.5q33 0 53.5 -21t20.5 -50
q0 -32 -22.5 -55.5t-57.5 -23.5z" />
    <glyph glyph-name="gdotaccent" unicode="&#x121;" horiz-adv-x="501" 
d="M350 604q-34 0 -54 20.5t-20 49.5q0 32 22 55.5t58 23.5q33 0 53.5 -20.5t20.5 -49.5q0 -32 -22.5 -55.5t-57.5 -23.5zM346 418q0 36 -12 62.5t-42 26.5q-23 0 -43.5 -17t-36 -45.5t-25 -66t-9.5 -78.5q0 -36 12 -62t42 -26q22 0 43 16.5t36.5 45t25 66t9.5 78.5zM91 9
q-73 -28 -73 -88q0 -48 44.5 -77t117.5 -29q78 0 120 22t42 57q0 26 -16.5 37.5t-48.5 22.5zM472 388q0 -48 -19.5 -86.5t-53 -66t-78 -42t-94.5 -14.5q-41 0 -71 10q-14 -8 -22.5 -17.5t-8.5 -20.5q0 -13 10.5 -18t24.5 -10l167 -44q28 -7 52.5 -17t42.5 -25t28 -35.5
t10 -47.5q0 -43 -22.5 -76t-61.5 -55.5t-91.5 -34t-112.5 -11.5q-49 0 -94.5 9.5t-80.5 27.5t-56 43.5t-21 57.5q0 26 13.5 44.5t35 32t49 21.5t55.5 13q-16 12 -25 28t-9 37q0 36 25 62t69 46q-38 20 -59 54.5t-21 79.5q0 47 19.5 85.5t52.5 65.5t77 41.5t94 14.5
q45 0 83 -16l180 6l-17 -60h-47l-57 9q34 -40 34 -91z" />
    <glyph glyph-name="Gcommaaccent" unicode="&#x122;" horiz-adv-x="721" 
d="M349 32q29 0 55 5.5t49 21.5l37 166q4 21 3.5 33.5t-8 19.5t-22.5 10.5t-39 6.5l8 34h290l-8 -34q-24 -2 -39 -5.5t-24 -11.5t-14 -20.5t-9 -32.5l-35 -166q-56 -32 -115 -50.5t-136 -18.5q-70 0 -125.5 20t-94.5 56.5t-60 88t-21 115.5q0 85 32.5 165t90.5 141.5
t138 98.5t174 37q67 0 124.5 -17t92.5 -43l-33 -160h-36q-1 87 -37 133.5t-107 46.5q-47 0 -86 -19.5t-71 -52.5t-56 -76t-40.5 -90t-24.5 -94.5t-8 -90.5q0 -106 41 -161.5t114 -55.5zM281 -153q-36 9 -36 44q0 30 21.5 49t57.5 19q35 0 54 -20t19 -53q0 -25 -9.5 -47.5
t-29.5 -39t-51 -26t-74 -9.5l3 29q43 0 68.5 17t30.5 37h-54z" />
    <glyph glyph-name="gcommaaccent" unicode="&#x123;" horiz-adv-x="501" 
d="M391 711q36 -9 36 -44q0 -30 -21.5 -49t-57.5 -19q-35 0 -54 20.5t-19 52.5q0 25 9.5 47.5t29.5 39t51 26t74 9.5l-3 -29q-43 0 -68.5 -16.5t-30.5 -37.5h54zM346 418q0 36 -12 62.5t-42 26.5q-23 0 -43.5 -17t-36 -45.5t-25 -66t-9.5 -78.5q0 -36 12 -62t42 -26
q22 0 43 16.5t36.5 45t25 66t9.5 78.5zM91 9q-73 -28 -73 -88q0 -48 44.5 -77t117.5 -29q78 0 120 22t42 57q0 26 -16.5 37.5t-48.5 22.5zM472 388q0 -48 -19.5 -86.5t-53 -66t-78 -42t-94.5 -14.5q-41 0 -71 10q-14 -8 -22.5 -17.5t-8.5 -20.5q0 -13 10.5 -18t24.5 -10
l167 -44q28 -7 52.5 -17t42.5 -25t28 -35.5t10 -47.5q0 -43 -22.5 -76t-61.5 -55.5t-91.5 -34t-112.5 -11.5q-49 0 -94.5 9.5t-80.5 27.5t-56 43.5t-21 57.5q0 26 13.5 44.5t35 32t49 21.5t55.5 13q-16 12 -25 28t-9 37q0 36 25 62t69 46q-38 20 -59 54.5t-21 79.5
q0 47 19.5 85.5t52.5 65.5t77 41.5t94 14.5q45 0 83 -16l180 6l-17 -60h-47l-57 9q34 -40 34 -91z" />
    <glyph glyph-name="Hcircumflex" unicode="&#x124;" horiz-adv-x="810" 
d="M667 747h-40l-99 82l-140 -82h-45l150 156h97zM183 598q4 21 3.5 33.5t-8 19.5t-22.5 10t-39 6l8 35h306l-7 -35q-27 -3 -43.5 -6.5t-26.5 -10.5t-15.5 -19t-9.5 -33l-46 -215h301l46 215q4 21 3.5 33.5t-8 19.5t-22.5 10t-39 6l8 35h307l-8 -35q-27 -3 -43.5 -6.5
t-26.5 -10.5t-15.5 -19t-9.5 -33l-105 -494q-5 -21 -4.5 -33.5t8 -19.5t22.5 -10t39 -6l-7 -35h-307l8 35q27 3 43.5 6.5t26 10.5t15 19t9.5 33l50 231h-301l-49 -231q-5 -21 -4.5 -33.5t8 -19.5t22.5 -10t39 -6l-8 -35h-306l8 35q27 3 43.5 6.5t26 10.5t15 19t9.5 33z" />
    <glyph glyph-name="hcircumflex" unicode="&#x125;" horiz-adv-x="597" 
d="M583 799h-40l-99 82l-140 -82h-45l150 156h97zM210 294q25 48 57 92.5t67 78.5t72.5 54.5t73.5 20.5q38 0 55 -21t17 -57q0 -10 -1.5 -23t-5.5 -27l-76 -282q-8 -29 -8 -42q0 -15 14 -15t34 17.5t51 55.5l20 -16q-25 -35 -46.5 -61.5t-42 -44t-41.5 -26t-45 -8.5
q-39 0 -60.5 23t-21.5 58q0 18 3.5 37.5t11.5 46.5l67 241l4 18q2 8 2 14q0 20 -17 20q-20 0 -50.5 -24t-62.5 -66t-61 -98t-45 -120l-35 -140h-136l171 690l-60 30l5 21l192 42h20z" />
    <glyph glyph-name="Hbar" unicode="&#x126;" horiz-adv-x="815" 
d="M587 383l24 112h-301l-24 -112h301zM97 543h76l12 55q5 21 4.5 33.5t-8 19.5t-22.5 10t-39 6l8 35h306l-7 -35q-27 -3 -43.5 -6.5t-26.5 -10.5t-15.5 -19t-9.5 -33l-12 -55h301l12 55q4 21 3.5 33.5t-8 19.5t-22.5 10t-39 6l8 35h306l-7 -35q-27 -3 -43.5 -6.5
t-26.5 -10.5t-15.5 -19t-9.5 -33l-12 -55h83l-10 -48h-83l-83 -391q-5 -21 -4.5 -33.5t8 -19.5t22.5 -10t39 -6l-8 -35h-306l8 35q27 3 43.5 6.5t26 10.5t15 19t9.5 33l50 231h-301l-49 -231q-5 -21 -4.5 -33.5t8 -19.5t22.5 -10t39 -6l-8 -35h-306l7 35q27 3 43.5 6.5
t26.5 10.5t15 19t10 33l83 391h-76z" />
    <glyph glyph-name="hbar" unicode="&#x127;" horiz-adv-x="599" 
d="M286 592l-74 -298q25 48 57 92.5t67 78.5t72.5 54.5t73.5 20.5q38 0 55.5 -21t17.5 -57q0 -20 -8 -50l-76 -282q-8 -29 -8 -42q0 -15 14 -15t34 17.5t51 55.5l20 -16q-25 -35 -46.5 -61.5t-42 -44t-41.5 -26t-45 -8.5q-39 0 -60.5 23t-21.5 58q0 18 3.5 37.5t11.5 46.5
l67 241l4 18q2 8 2 14q0 20 -17 20q-20 0 -50.5 -24t-62.5 -66t-60.5 -98t-44.5 -120l-36 -140h-136l146 592h-63l9 42h65l14 56l-60 30l5 21l192 42h20l-37 -149h128l-9 -42h-130z" />
    <glyph glyph-name="Itilde" unicode="&#x128;" horiz-adv-x="363" 
d="M357 749q-21 0 -37.5 9t-31 19.5t-29 19.5t-30.5 9q-21 0 -37.5 -14t-35.5 -42l-25 15q33 65 59.5 94.5t64.5 29.5q21 0 37.5 -9t30.5 -20t28 -20t31 -9q22 0 38.5 14.5t34.5 42.5l26 -16q-17 -32 -31 -55.5t-28.5 -38.5t-30 -22t-34.5 -7zM183 598q4 21 3.5 33.5
t-8 19.5t-22.5 10t-39 6l8 35h306l-7 -35q-27 -3 -43.5 -6.5t-26.5 -10.5t-15.5 -19t-9.5 -33l-105 -494q-5 -21 -4.5 -33.5t8 -19.5t22.5 -10t39 -6l-8 -35h-306l8 35q27 3 43.5 6.5t26.5 10.5t15 19t9 33z" />
    <glyph glyph-name="itilde" unicode="&#x129;" horiz-adv-x="309" 
d="M115 442l-57 35l5 20l193 43h21l-103 -410q-4 -14 -6.5 -25t-2.5 -17q0 -15 14 -15t34 17.5t52 55.5l19 -16q-24 -35 -45.5 -61.5t-42 -44t-41.5 -26t-45 -8.5q-40 0 -60 23t-20 58q0 18 3 37t9 46zM281 603q-18 0 -32 9t-26 20t-24 20t-25 9q-20 0 -36 -14.5t-34 -41.5
l-24 15q31 64 56.5 94t61.5 30q18 0 32 -9t26 -20t23.5 -20t25.5 -9q20 0 36 14t33 42l25 -15q-16 -32 -29.5 -55.5t-27 -38.5t-28.5 -22.5t-33 -7.5z" />
    <glyph glyph-name="Imacron" unicode="&#x12a;" horiz-adv-x="363" 
d="M165 830h281l-14 -68h-281zM183 598q4 21 3.5 33.5t-8 19.5t-22.5 10t-39 6l8 35h306l-7 -35q-27 -3 -43.5 -6.5t-26.5 -10.5t-15.5 -19t-9.5 -33l-105 -494q-5 -21 -4.5 -33.5t8 -19.5t22.5 -10t39 -6l-8 -35h-306l8 35q27 3 43.5 6.5t26.5 10.5t15 19t9 33z" />
    <glyph glyph-name="imacron" unicode="&#x12b;" horiz-adv-x="309" 
d="M115 442l-57 35l5 20l193 43h21l-103 -410q-4 -14 -6.5 -25t-2.5 -17q0 -15 14 -15t34 17.5t52 55.5l19 -16q-24 -35 -45.5 -61.5t-42 -44t-41.5 -26t-45 -8.5q-40 0 -60 23t-20 58q0 18 3 37t9 46zM123 692h237l-14 -68h-238z" />
    <glyph glyph-name="Ibreve" unicode="&#x12c;" horiz-adv-x="363" 
d="M293 744q-61 0 -92 38t-14 118h37q-2 -23 3 -38.5t16.5 -24.5t27.5 -13t36 -4q40 0 71.5 16.5t47.5 63.5h39q-18 -80 -62.5 -118t-109.5 -38zM183 598q4 21 3.5 33.5t-8 19.5t-22.5 10t-39 6l8 35h306l-7 -35q-27 -3 -43.5 -6.5t-26.5 -10.5t-15.5 -19t-9.5 -33
l-105 -494q-5 -21 -4.5 -33.5t8 -19.5t22.5 -10t39 -6l-8 -35h-306l8 35q27 3 43.5 6.5t26.5 10.5t15 19t9 33z" />
    <glyph glyph-name="ibreve" unicode="&#x12d;" horiz-adv-x="309" 
d="M220 597q-63 0 -91 41.5t-10 121.5h38q-6 -48 16.5 -66.5t62.5 -18.5q39 0 70 18.5t46 66.5h38q-18 -80 -61 -121.5t-109 -41.5zM115 442l-57 35l5 20l193 43h21l-103 -410q-4 -14 -6.5 -25t-2.5 -17q0 -15 14 -15t34 17.5t52 55.5l19 -16q-24 -35 -45.5 -61.5t-42 -44
t-41.5 -26t-45 -8.5q-40 0 -60 23t-20 58q0 18 3 37t9 46z" />
    <glyph glyph-name="Iogonek" unicode="&#x12e;" horiz-adv-x="363" 
d="M183 598q4 21 3.5 33.5t-8 19.5t-22.5 10t-39 6l8 35h306l-7 -35q-27 -3 -43.5 -6.5t-26.5 -10.5t-15.5 -19t-9.5 -33l-105 -494q-5 -21 -4.5 -33.5t8 -19.5t22.5 -10t39 -6l-8 -35h-104q-43 -24 -68.5 -52t-25.5 -59q0 -19 12 -31t32 -12q22 0 42 9.5t44 29.5l10 -16
q-29 -32 -64.5 -57t-82.5 -25q-35 0 -58.5 18t-23.5 53q0 25 11 45.5t30 38t44 32t52 26.5h-156l8 35q27 3 43.5 6.5t26.5 10.5t15 19t9 33z" />
    <glyph glyph-name="iogonek" unicode="&#x12f;" horiz-adv-x="309" 
d="M30 71q0 18 2.5 37t9.5 46l73 288l-57 35l5 20l193 43h21l-103 -410q-4 -14 -6.5 -25t-2.5 -17q0 -15 14 -15t34 17.5t52 55.5l19 -16q-36 -49 -73 -84l-66 -61q-30 -27 -48.5 -49.5t-18.5 -47.5q0 -20 12 -31t32 -11q22 0 42 9.5t44 29.5l10 -16q-29 -32 -64.5 -57
t-82.5 -25q-35 0 -58 18t-23 53q0 22 10 41.5t26.5 35.5t37.5 30t42 26q-37 2 -56.5 22.5t-19.5 57.5zM237 601q-35 0 -56 22t-21 51q0 34 23 58t60 24q35 0 56 -21.5t21 -51.5q0 -33 -23 -57.5t-60 -24.5z" />
    <glyph glyph-name="Idotaccent" unicode="&#x130;" horiz-adv-x="363" 
d="M301 750q-34 0 -54 21t-20 50q0 32 22 55.5t58 23.5q33 0 53.5 -21t20.5 -50q0 -32 -22.5 -55.5t-57.5 -23.5zM183 598q4 21 3.5 33.5t-8 19.5t-22.5 10t-39 6l8 35h306l-7 -35q-27 -3 -43.5 -6.5t-26.5 -10.5t-15.5 -19t-9.5 -33l-105 -494q-5 -21 -4.5 -33.5t8 -19.5
t22.5 -10t39 -6l-8 -35h-306l8 35q27 3 43.5 6.5t26.5 10.5t15 19t9 33z" />
    <glyph glyph-name="dotlessi" unicode="&#x131;" horiz-adv-x="309" 
d="M115 442l-57 35l5 20l193 43h21l-103 -410q-4 -14 -6.5 -25t-2.5 -17q0 -15 14 -15t34 17.5t52 55.5l19 -16q-24 -35 -45.5 -61.5t-42 -44t-41.5 -26t-45 -8.5q-40 0 -60 23t-20 58q0 18 3 37t9 46z" />
    <glyph glyph-name="IJ" unicode="&#x132;" horiz-adv-x="869" 
d="M699 598q4 21 4 33.5t-7.5 19.5t-22.5 10t-39 6l7 35h307l-8 -35q-27 -3 -43.5 -6.5t-26.5 -10.5t-15 -19t-9 -33l-86 -400q-25 -114 -93.5 -161t-178.5 -47q-85 0 -134.5 32t-49.5 86q0 32 16 57t43 40h96q-11 -25 -18 -50t-7 -52q0 -33 15.5 -55t48.5 -22
q43 0 68.5 34.5t40.5 106.5zM184 598q4 21 3.5 33.5t-8 19.5t-22.5 10t-39 6l8 35h306l-7 -35q-27 -3 -43.5 -6.5t-26.5 -10.5t-15.5 -19t-9.5 -33l-105 -494q-5 -21 -4.5 -33.5t8 -19.5t22.5 -10t39 -6l-8 -35h-306l8 35q27 3 43.5 6.5t26.5 10.5t15 19t9 33z" />
    <glyph glyph-name="ij" unicode="&#x133;" horiz-adv-x="553" 
d="M509 601q-35 0 -56 22t-21 51q0 34 23 58t60 24q35 0 56 -21.5t21 -51.5q0 -33 -23 -57.5t-60 -24.5zM454 119q-21 -90 -47.5 -153t-59.5 -103t-73.5 -58.5t-88.5 -18.5t-79 19t-31 54q0 32 20.5 48.5t46.5 20.5h21q2 -48 13 -77.5t33 -29.5q13 0 23 9.5t19 30.5t18 55
t21 84l103 442l-56 35l4 20l192 43h21zM115 442l-57 35l5 20l193 43h21l-103 -410q-4 -14 -6.5 -25t-2.5 -17q0 -15 14 -15t34 17.5t52 55.5l19 -16q-24 -35 -45.5 -61.5t-42 -44t-41.5 -26t-45 -8.5q-40 0 -60 23t-20 58q0 18 3 37t9 46zM237 601q-35 0 -56 22t-21 51
q0 34 23 58t60 24q35 0 56 -21.5t21 -51.5q0 -33 -23 -57.5t-60 -24.5z" />
    <glyph glyph-name="Jcircumflex" unicode="&#x134;" horiz-adv-x="540" 
d="M630 747h-40l-99 82l-140 -82h-45l150 156h97zM370 598q4 21 4 33.5t-7.5 19.5t-22.5 10t-39 6l7 35h307l-8 -35q-27 -3 -43.5 -6.5t-26.5 -10.5t-15 -19t-9 -33l-86 -400q-25 -114 -93.5 -161t-178.5 -47q-85 0 -134.5 32t-49.5 86q0 32 16 57t43 40h96q-11 -25 -18 -50
t-7 -52q0 -33 15.5 -55t48.5 -22q43 0 68.5 34.5t40.5 106.5z" />
    <glyph glyph-name="jcircumflex" unicode="&#x135;" horiz-adv-x="277" 
d="M376 594h-40l-99 96l-140 -96h-45l150 171h97zM178 119q-21 -90 -47.5 -153t-59.5 -103t-73.5 -58.5t-88.5 -18.5t-79 19t-31 54q0 32 20.5 48.5t46.5 20.5h21q2 -48 13 -77.5t33 -29.5q13 0 23 9.5t19 30.5t18 55t21 84l103 442l-56 35l4 20l192 43h21z" />
    <glyph glyph-name="Kcommaaccent" unicode="&#x136;" horiz-adv-x="710" 
d="M224 104q-5 -21 -4.5 -33.5t8 -19.5t22.5 -10t39 -6l-8 -35h-306l8 35q27 3 43.5 6.5t26.5 10.5t15 19t9 33l106 494q4 21 3.5 33.5t-8 19.5t-22.5 10t-39 6l7 35h307l-7 -35q-27 -3 -43.5 -6.5t-26.5 -10.5t-15.5 -19t-9.5 -33zM570 102q9 -17 18 -29.5t20 -20.5
t24.5 -12t32.5 -5l-7 -35h-185q-18 18 -34 45l-31 56l-122 244l295 254l22 21q11 11 11 24q0 12 -12.5 16.5t-53.5 6.5l7 35h228l-7 -35q-32 -2 -53.5 -11.5t-47.5 -32.5l-254 -224zM260 -153q-36 9 -36 44q0 30 21.5 49t57.5 19q35 0 54 -20t19 -53q0 -25 -9.5 -47.5
t-29.5 -39t-51 -26t-74 -9.5l3 29q43 0 68.5 17t30.5 37h-54z" />
    <glyph glyph-name="kcommaaccent" unicode="&#x137;" horiz-adv-x="564" 
d="M4 0l171 690l-59 30l5 21l191 42h21l-193 -783h-136zM412 136q11 -28 19.5 -44t25.5 -16q15 0 31 15.5t40 45.5l20 -16q-44 -66 -79.5 -98.5t-79.5 -32.5q-41 0 -62.5 26.5t-38.5 73.5l-65 189l174 198q29 32 52.5 47.5t52.5 15.5q37 0 54.5 -21.5t17.5 -49.5
q0 -58 -67 -83h-9q2 26 -10 45.5t-38 19.5q-23 0 -39 -12.5t-38 -36.5l-47 -53zM157 -153q-36 9 -36 44q0 30 21.5 49t57.5 19q35 0 54 -20t19 -53q0 -25 -9.5 -47.5t-29.5 -39t-51 -26t-74 -9.5l3 29q43 0 68.5 17t30.5 37h-54z" />
    <glyph glyph-name="kgreenlandic" unicode="&#x138;" horiz-adv-x="573" 
d="M12 0l111 442l-57 35l5 20l190 43h20l-133 -540h-136zM420 136q12 -28 20.5 -44t24.5 -16t31.5 15.5t40.5 45.5l19 -16q-22 -33 -41 -57.5t-38 -41t-38.5 -24.5t-41.5 -8q-41 0 -62 26.5t-38 73.5l-66 189l175 198q28 32 52 47.5t53 15.5q36 0 54 -21.5t18 -49.5
q0 -30 -18 -50.5t-50 -32.5h-9q2 26 -9.5 45.5t-37.5 19.5q-23 0 -39 -12.5t-38 -36.5l-48 -53z" />
    <glyph glyph-name="Lacute" unicode="&#x139;" horiz-adv-x="616" 
d="M224 108q-8 -41 9.5 -54.5t64.5 -13.5h43q28 0 52.5 9.5t49.5 31t53 55t64 81.5h34l-80 -217h-539l8 35q27 3 43.5 6.5t26.5 10.5t15 19t9 33l106 494q4 21 3.5 33.5t-8 19.5t-22.5 10t-39 6l8 35h306l-8 -35q-27 -3 -43.5 -6.5t-26 -10.5t-15 -19t-9.5 -33zM494 896v-7
l-185 -142h-35l74 149h146z" />
    <glyph glyph-name="lacute" unicode="&#x13a;" horiz-adv-x="300" 
d="M167 130q-4 -14 -6.5 -25t-2.5 -17q0 -15 14 -15t34.5 17.5t51.5 55.5l19 -16q-24 -35 -45.5 -61.5t-42 -44t-41.5 -26t-45 -8.5q-39 0 -59.5 23t-20.5 58q0 18 2.5 37t10.5 46l132 536l-59 30l5 21l191 42h21zM457 946v-7l-185 -142h-35l74 149h146z" />
    <glyph glyph-name="Lcommaaccent" unicode="&#x13b;" horiz-adv-x="616" 
d="M224 108q-8 -41 9.5 -54.5t64.5 -13.5h43q28 0 52.5 9.5t49.5 31t53 55t64 81.5h34l-80 -217h-539l8 35q27 3 43.5 6.5t26.5 10.5t15 19t9 33l106 494q4 21 3.5 33.5t-8 19.5t-22.5 10t-39 6l8 35h306l-8 -35q-27 -3 -43.5 -6.5t-26 -10.5t-15 -19t-9.5 -33zM204 -153
q-36 9 -36 44q0 30 21.5 49t57.5 19q35 0 54 -20t19 -53q0 -25 -9.5 -47.5t-29.5 -39t-51 -26t-74 -9.5l3 29q43 0 68.5 17t30.5 37h-54z" />
    <glyph glyph-name="lcommaaccent" unicode="&#x13c;" horiz-adv-x="300" 
d="M167 130q-4 -14 -6.5 -25t-2.5 -17q0 -15 14 -15t34.5 17.5t51.5 55.5l19 -16q-24 -35 -45.5 -61.5t-42 -44t-41.5 -26t-45 -8.5q-39 0 -59.5 23t-20.5 58q0 18 2.5 37t10.5 46l132 536l-59 30l5 21l191 42h21zM29 -153q-36 9 -36 44q0 30 21.5 49t57.5 19q35 0 54 -20
t19 -53q0 -25 -9.5 -47.5t-29.5 -39t-51 -26t-74 -9.5l3 29q43 0 68.5 17t30.5 37h-54z" />
    <glyph glyph-name="Lcaron" unicode="&#x13d;" horiz-adv-x="616" 
d="M224 108q-8 -41 9.5 -54.5t64.5 -13.5h43q28 0 52.5 9.5t49.5 31t53 55t64 81.5h34l-80 -217h-539l8 35q27 3 43.5 6.5t26.5 10.5t15 19t9 33l106 494q4 21 3.5 33.5t-8 19.5t-22.5 10t-39 6l8 35h306l-8 -35q-27 -3 -43.5 -6.5t-26 -10.5t-15 -19t-9.5 -33zM476 497h-27
l61 205h120l-2 -8z" />
    <glyph glyph-name="lcaron" unicode="&#x13e;" horiz-adv-x="300" 
d="M167 130q-4 -14 -6.5 -25t-2.5 -17q0 -15 14 -15t34.5 17.5t51.5 55.5l19 -16q-24 -35 -45.5 -61.5t-42 -44t-41.5 -26t-45 -8.5q-39 0 -59.5 23t-20.5 58q0 18 2.5 37t10.5 46l132 536l-59 30l5 21l191 42h21zM351 578h-27l61 205h120l-2 -8z" />
    <glyph glyph-name="Ldot" unicode="&#x13f;" horiz-adv-x="616" 
d="M508 309q-34 0 -54 20.5t-20 49.5q0 32 22 55.5t58 23.5q33 0 53.5 -20.5t20.5 -49.5q0 -32 -22.5 -55.5t-57.5 -23.5zM224 108q-8 -41 9.5 -54.5t64.5 -13.5h43q28 0 52.5 9.5t49.5 31t53 55t64 81.5h34l-80 -217h-539l8 35q27 3 43.5 6.5t26.5 10.5t15 19t9 33l106 494
q4 21 3.5 33.5t-8 19.5t-22.5 10t-39 6l8 35h306l-8 -35q-27 -3 -43.5 -6.5t-26 -10.5t-15 -19t-9.5 -33z" />
    <glyph glyph-name="ldot" unicode="&#x140;" horiz-adv-x="372" 
d="M342 312q-34 0 -54 20.5t-20 49.5q0 32 22 55.5t58 23.5q33 0 53.5 -20.5t20.5 -49.5q0 -32 -22.5 -55.5t-57.5 -23.5zM167 130q-4 -14 -6.5 -25t-2.5 -17q0 -15 14 -15t34.5 17.5t51.5 55.5l19 -16q-24 -35 -45.5 -61.5t-42 -44t-41.5 -26t-45 -8.5q-39 0 -59.5 23
t-20.5 58q0 18 2.5 37t10.5 46l132 536l-59 30l5 21l191 42h21z" />
    <glyph glyph-name="Lslash" unicode="&#x141;" horiz-adv-x="616" 
d="M273 336l-49 -228q-8 -41 9.5 -54.5t64.5 -13.5h43q28 0 52.5 9.5t49.5 31t53 55t64 81.5h34l-80 -217h-539l8 35q27 3 43.5 6.5t26.5 10.5t15 19t9 33l38 180l-86 -36l11 53l87 36l56 261q4 21 3.5 33.5t-8 19.5t-22.5 10t-39 6l8 35h306l-8 -35q-27 -3 -43.5 -6.5
t-26 -10.5t-15 -19t-9.5 -33l-45 -208l139 57l-11 -53z" />
    <glyph glyph-name="lslash" unicode="&#x142;" horiz-adv-x="313" 
d="M244 419l-70 -289q-4 -14 -6.5 -25t-2.5 -17q0 -15 14 -15t34 17.5t52 55.5l19 -16q-24 -35 -45.5 -61.5t-42 -44t-41.5 -26t-45 -8.5q-40 0 -60 23t-20 58q0 18 2.5 37t9.5 46l52 212l-75 -37l13 53l75 37l68 271l-59 30l4 21l192 42h21l-76 -311l91 46l-13 -53z" />
    <glyph glyph-name="Nacute" unicode="&#x143;" horiz-adv-x="742" 
d="M664 598q8 40 -12.5 53t-78.5 16l7 35h240l-8 -35q-27 -3 -43.5 -6.5t-26.5 -10.5t-15.5 -19t-9.5 -33l-127 -600h-47l-317 555l-95 -449q-4 -20 -1.5 -33t13.5 -20.5t30.5 -11t48.5 -4.5l-7 -35h-240l8 35q27 3 43.5 6.5t26.5 10.5t15 19t10 33l107 503
q-17 31 -30.5 44.5t-44.5 15.5l8 35h197l269 -486zM667 896v-7l-185 -142h-35l74 149h146z" />
    <glyph glyph-name="nacute" unicode="&#x144;" horiz-adv-x="605" 
d="M218 293q25 49 57 93.5t67 78.5t72.5 54.5t73.5 20.5q38 0 55.5 -21t17.5 -57q0 -10 -2 -23t-5 -27l-76 -282q-4 -14 -6.5 -25t-2.5 -17q0 -15 14 -15t34 17.5t51 55.5l20 -16q-25 -35 -46.5 -61.5t-42 -44t-41.5 -26t-45 -8.5q-39 0 -60 23t-21 58q0 18 3 37.5t11 46.5
l68 241l4 18q2 8 2 14q0 20 -18 20q-19 0 -49.5 -24t-63 -66t-61 -98t-44.5 -120l-36 -140h-136l111 442l-57 35l5 20l193 43h21zM594 763v-7l-196 -159h-35l88 166h143z" />
    <glyph glyph-name="Ncommaaccent" unicode="&#x145;" horiz-adv-x="742" 
d="M664 598q8 40 -12.5 53t-78.5 16l7 35h240l-8 -35q-27 -3 -43.5 -6.5t-26.5 -10.5t-15.5 -19t-9.5 -33l-127 -600h-47l-317 555l-95 -449q-4 -20 -1.5 -33t13.5 -20.5t30.5 -11t48.5 -4.5l-7 -35h-240l8 35q27 3 43.5 6.5t26.5 10.5t15 19t10 33l107 503
q-17 31 -30.5 44.5t-44.5 15.5l8 35h197l269 -486zM274 -153q-36 9 -36 44q0 30 21.5 49t57.5 19q35 0 54 -20t19 -53q0 -25 -9.5 -47.5t-29.5 -39t-51 -26t-74 -9.5l3 29q43 0 68.5 17t30.5 37h-54z" />
    <glyph glyph-name="ncommaaccent" unicode="&#x146;" horiz-adv-x="605" 
d="M218 293q25 49 57 93.5t67 78.5t72.5 54.5t73.5 20.5q38 0 55.5 -21t17.5 -57q0 -10 -2 -23t-5 -27l-76 -282q-4 -14 -6.5 -25t-2.5 -17q0 -15 14 -15t34 17.5t51 55.5l20 -16q-25 -35 -46.5 -61.5t-42 -44t-41.5 -26t-45 -8.5q-39 0 -60 23t-21 58q0 18 3 37.5t11 46.5
l68 241l4 18q2 8 2 14q0 20 -18 20q-19 0 -49.5 -24t-63 -66t-61 -98t-44.5 -120l-36 -140h-136l111 442l-57 35l5 20l193 43h21zM193 -153q-36 9 -36 44q0 30 21.5 49t57.5 19q35 0 54 -20t19 -53q0 -25 -9.5 -47.5t-29.5 -39t-51 -26t-74 -9.5l3 29q43 0 68.5 17t30.5 37
h-54z" />
    <glyph glyph-name="Ncaron" unicode="&#x147;" horiz-adv-x="742" 
d="M664 598q8 40 -12.5 53t-78.5 16l7 35h240l-8 -35q-27 -3 -43.5 -6.5t-26.5 -10.5t-15.5 -19t-9.5 -33l-127 -600h-47l-317 555l-95 -449q-4 -20 -1.5 -33t13.5 -20.5t30.5 -11t48.5 -4.5l-7 -35h-240l8 35q27 3 43.5 6.5t26.5 10.5t15 19t10 33l107 503
q-17 31 -30.5 44.5t-44.5 15.5l8 35h197l269 -486zM352 903h40l99 -82l140 82h45l-150 -156h-97z" />
    <glyph glyph-name="ncaron" unicode="&#x148;" horiz-adv-x="605" 
d="M218 293q25 49 57 93.5t67 78.5t72.5 54.5t73.5 20.5q38 0 55.5 -21t17.5 -57q0 -10 -2 -23t-5 -27l-76 -282q-4 -14 -6.5 -25t-2.5 -17q0 -15 14 -15t34 17.5t51 55.5l20 -16q-25 -35 -46.5 -61.5t-42 -44t-41.5 -26t-45 -8.5q-39 0 -60 23t-21 58q0 18 3 37.5t11 46.5
l68 241l4 18q2 8 2 14q0 20 -18 20q-19 0 -49.5 -24t-63 -66t-61 -98t-44.5 -120l-36 -140h-136l111 442l-57 35l5 20l193 43h21zM260 768h40l99 -96l140 96h45l-150 -171h-97z" />
    <glyph glyph-name="Eng" unicode="&#x14a;" horiz-adv-x="742" 
d="M226 553l-95 -449q-4 -20 -1.5 -33t13.5 -20.5t30.5 -11t48.5 -4.5l-7 -35h-240l8 35q27 3 43.5 6.5t26.5 10.5t15 19t10 33l107 503q-17 31 -30.5 44.5t-44.5 15.5l8 35h197l269 -486l80 382q8 40 -12.5 53t-78.5 16l7 35h240l-8 -35q-27 -3 -43.5 -6.5t-26.5 -10.5
t-15.5 -19t-9.5 -33l-106 -503q-13 -59 -30 -101t-45 -75t-68.5 -62t-100.5 -62l-13 16l42 45q45 51 67.5 103.5t35.5 113.5z" />
    <glyph glyph-name="eng" unicode="&#x14b;" horiz-adv-x="578" 
d="M474 119q-24 -89 -52 -152t-61.5 -103.5t-73.5 -59t-88 -18.5t-79.5 19t-31.5 54q0 32 21 48.5t47 20.5h21q1 -48 12 -77.5t34 -29.5q13 0 23 9.5t19.5 30.5t19.5 55t23 84l106 396l4 17q2 9 2 15q0 20 -18 20q-19 0 -49.5 -24t-63 -66t-61 -98t-44.5 -120l-36 -140h-136
l111 442l-57 35l5 20l193 43h21l-67 -247q25 49 57 93.5t67 78.5t72.5 54.5t73.5 20.5q38 0 55.5 -21t17.5 -57q0 -10 -2 -23t-5 -27z" />
    <glyph glyph-name="Omacron" unicode="&#x14c;" horiz-adv-x="727" 
d="M444 671q-40 0 -74 -21t-61.5 -56t-48.5 -80t-35.5 -94t-22 -97.5t-7.5 -90.5q0 -43 7 -80t22 -64t39 -42t58 -15q40 0 74 21t61.5 56t48.5 80t35.5 94t22 97.5t7.5 90.5q0 43 -7 80t-22 64t-39 42t-58 15zM447 712q67 0 119 -22t87 -59.5t53 -87.5t18 -107
q0 -81 -28.5 -160.5t-81.5 -143t-128 -103t-168 -39.5q-68 0 -119.5 21.5t-86.5 59t-53 88t-18 107.5q0 81 28.5 160.5t81.5 143t128 103t168 39.5zM351 830h281l-14 -68h-281z" />
    <glyph glyph-name="omacron" unicode="&#x14d;" horiz-adv-x="530" 
d="M510 343q0 -64 -23 -127t-63.5 -113.5t-96.5 -81.5t-121 -31q-84 0 -135 51t-51 145q0 64 23 127.5t64 113.5t96.5 81.5t120.5 31.5q84 0 135 -51.5t51 -145.5zM153 139q0 -48 13 -81t47 -33q22 0 42.5 17.5t38.5 46t33.5 66.5t26.5 78.5t17 81.5t6 76q0 48 -13 81
t-47 33q-22 0 -42.5 -17.5t-38.5 -46.5t-33.5 -66.5t-26.5 -78.5t-17 -81.5t-6 -75.5zM226 692h269l-14 -68h-269z" />
    <glyph glyph-name="Obreve" unicode="&#x14e;" horiz-adv-x="727" 
d="M444 671q-40 0 -74 -21t-61.5 -56t-48.5 -80t-35.5 -94t-22 -97.5t-7.5 -90.5q0 -43 7 -80t22 -64t39 -42t58 -15q40 0 74 21t61.5 56t48.5 80t35.5 94t22 97.5t7.5 90.5q0 43 -7 80t-22 64t-39 42t-58 15zM447 712q67 0 119 -22t87 -59.5t53 -87.5t18 -107
q0 -81 -28.5 -160.5t-81.5 -143t-128 -103t-168 -39.5q-68 0 -119.5 21.5t-86.5 59t-53 88t-18 107.5q0 81 28.5 160.5t81.5 143t128 103t168 39.5zM479 744q-61 0 -92 38t-14 118h37q-2 -23 3 -38.5t16.5 -24.5t27.5 -13t36 -4q40 0 71.5 16.5t47.5 63.5h39
q-18 -80 -62.5 -118t-109.5 -38z" />
    <glyph glyph-name="obreve" unicode="&#x14f;" horiz-adv-x="530" 
d="M341 597q-63 0 -91 41.5t-10 121.5h38q-6 -48 16.5 -66.5t62.5 -18.5q39 0 70 18.5t46 66.5h38q-18 -80 -61 -121.5t-109 -41.5zM510 343q0 -64 -23 -127t-63.5 -113.5t-96.5 -81.5t-121 -31q-84 0 -135 51t-51 145q0 64 23 127.5t64 113.5t96.5 81.5t120.5 31.5
q84 0 135 -51.5t51 -145.5zM153 139q0 -48 13 -81t47 -33q22 0 42.5 17.5t38.5 46t33.5 66.5t26.5 78.5t17 81.5t6 76q0 48 -13 81t-47 33q-22 0 -42.5 -17.5t-38.5 -46.5t-33.5 -66.5t-26.5 -78.5t-17 -81.5t-6 -75.5z" />
    <glyph glyph-name="Ohungarumlaut" unicode="&#x150;" horiz-adv-x="727" 
d="M734 896l-1 -7l-170 -142h-36l78 149h129zM572 896l-1 -7l-170 -142h-36l78 149h129zM444 671q-40 0 -74 -21t-61.5 -56t-48.5 -80t-35.5 -94t-22 -97.5t-7.5 -90.5q0 -43 7 -80t22 -64t39 -42t58 -15q40 0 74 21t61.5 56t48.5 80t35.5 94t22 97.5t7.5 90.5q0 43 -7 80
t-22 64t-39 42t-58 15zM447 712q67 0 119 -22t87 -59.5t53 -87.5t18 -107q0 -81 -28.5 -160.5t-81.5 -143t-128 -103t-168 -39.5q-68 0 -119.5 21.5t-86.5 59t-53 88t-18 107.5q0 81 28.5 160.5t81.5 143t128 103t168 39.5z" />
    <glyph glyph-name="ohungarumlaut" unicode="&#x151;" horiz-adv-x="530" 
d="M510 343q0 -64 -23 -127t-63.5 -113.5t-96.5 -81.5t-121 -31q-84 0 -135 51t-51 145q0 64 23 127.5t64 113.5t96.5 81.5t120.5 31.5q84 0 135 -51.5t51 -145.5zM153 139q0 -48 13 -81t47 -33q22 0 42.5 17.5t38.5 46t33.5 66.5t26.5 78.5t17 81.5t6 76q0 48 -13 81
t-47 33q-22 0 -42.5 -17.5t-38.5 -46.5t-33.5 -66.5t-26.5 -78.5t-17 -81.5t-6 -75.5zM602 763l-2 -7l-186 -159h-36l99 166h125zM440 763l-2 -7l-186 -159h-36l100 166h124z" />
    <glyph glyph-name="OE" unicode="&#x152;" horiz-adv-x="1004" 
d="M370 0q-74 0 -134.5 19t-103.5 55t-67 88.5t-24 119.5q0 96 35 174t96 132.5t143 84t176 29.5h547l-34 -180h-28q-9 41 -18 68t-22.5 43t-33 22.5t-49.5 6.5h-140l-59 -278h121q34 0 52.5 22t36.5 70h35l-48 -227h-36q3 48 -6.5 69.5t-42.5 21.5h-122l-49 -232
q-9 -41 9.5 -54.5t65.5 -13.5h57q30 0 53.5 8.5t47 27t48.5 48.5l61 76h35l-74 -200h-528zM434 40l133 622h-77q-64 0 -118.5 -32t-94 -86t-62 -125.5t-22.5 -151.5q0 -109 47 -168t152 -59h42z" />
    <glyph glyph-name="oe" unicode="&#x153;" horiz-adv-x="796" 
d="M649 504q-27 0 -52.5 -21t-46.5 -55.5t-36 -77.5t-22 -86q102 24 152 69.5t50 116.5q0 23 -10.5 38.5t-34.5 15.5zM154 139q0 -48 12.5 -81t46.5 -33q22 0 42.5 17.5t38.5 46t33.5 66.5t26.5 78.5t17 81.5t6 76q0 48 -12.5 81t-46.5 33q-22 0 -42.5 -17.5t-39 -46.5
t-33.5 -66.5t-26 -78.5t-17 -81.5t-6 -75.5zM324 540q52 0 90.5 -24.5t61.5 -64.5q39 38 88 63.5t102 25.5q69 0 102 -31.5t33 -75.5q0 -45 -25.5 -77t-68 -54.5t-99 -37.5t-119.5 -26q-1 -8 -1 -15v-16q0 -68 27.5 -103.5t77.5 -35.5q41 0 76.5 22.5t71.5 67.5l21 -17
q-49 -74 -106 -112.5t-129 -38.5q-48 0 -83.5 23t-55.5 61q-38 -37 -84.5 -60.5t-97.5 -23.5q-85 0 -135 51t-50 145q0 64 23 127.5t63.5 113.5t96 81.5t120.5 31.5z" />
    <glyph glyph-name="Racute" unicode="&#x154;" horiz-adv-x="711" 
d="M611 896v-7l-185 -142h-35l74 149h146zM223 104q-5 -21 -4 -33.5t8.5 -19.5t22.5 -10t39 -6l-8 -35h-306l8 35q27 3 43.5 6.5t26.5 10.5t15 19t9 33l106 494q4 21 3.5 33.5t-8 19.5t-22.5 10t-39 6l8 35h320q60 0 101.5 -13.5t68 -36.5t38.5 -53.5t12 -63.5
q0 -50 -22 -87.5t-54 -63.5t-68 -41.5t-65 -21.5l108 -204q24 -44 45 -62.5t59 -19.5l-7 -35h-181q-19 16 -33.5 40t-30.5 58l-94 201h-57zM342 661l-68 -319h42q43 0 79.5 12t63.5 36t42 60t15 85q0 54 -30 90t-100 36h-44z" />
    <glyph glyph-name="racute" unicode="&#x155;" horiz-adv-x="442" 
d="M239 372l-44 -135l67 132q30 57 56.5 95t51.5 57t51 19q30 0 46 -19t16 -48q0 -38 -22.5 -65.5t-56.5 -41.5h-8q0 18 -6.5 31t-26.5 13q-25 0 -54.5 -30t-58.5 -84t-55.5 -129.5t-46.5 -166.5h-136l111 442l-57 35l5 20l193 43h21zM532 763v-7l-196 -159h-35l88 166h143z
" />
    <glyph glyph-name="Rcommaaccent" unicode="&#x156;" horiz-adv-x="711" 
d="M223 104q-5 -21 -4 -33.5t8.5 -19.5t22.5 -10t39 -6l-8 -35h-306l8 35q27 3 43.5 6.5t26.5 10.5t15 19t9 33l106 494q4 21 3.5 33.5t-8 19.5t-22.5 10t-39 6l8 35h320q60 0 101.5 -13.5t68 -36.5t38.5 -53.5t12 -63.5q0 -50 -22 -87.5t-54 -63.5t-68 -41.5t-65 -21.5
l108 -204q24 -44 45 -62.5t59 -19.5l-7 -35h-181q-19 16 -33.5 40t-30.5 58l-94 201h-57zM342 661l-68 -319h42q43 0 79.5 12t63.5 36t42 60t15 85q0 54 -30 90t-100 36h-44zM254 -153q-36 9 -36 44q0 30 21.5 49t57.5 19q35 0 54 -20t19 -53q0 -25 -9.5 -47.5t-29.5 -39
t-51 -26t-74 -9.5l3 29q43 0 68.5 17t30.5 37h-54z" />
    <glyph glyph-name="rcommaaccent" unicode="&#x157;" horiz-adv-x="442" 
d="M239 372l-44 -135l67 132q30 57 56.5 95t51.5 57t51 19q30 0 46 -19t16 -48q0 -38 -22.5 -65.5t-56.5 -41.5h-8q0 18 -6.5 31t-26.5 13q-25 0 -54.5 -30t-58.5 -84t-55.5 -129.5t-46.5 -166.5h-136l111 442l-57 35l5 20l193 43h21zM18 -153q-36 9 -36 44q0 30 21.5 49
t57.5 19q35 0 54 -20t19 -53q0 -25 -9.5 -47.5t-29.5 -39t-51 -26t-74 -9.5l3 29q43 0 68.5 17t30.5 37h-54z" />
    <glyph glyph-name="Rcaron" unicode="&#x158;" horiz-adv-x="711" 
d="M223 104q-5 -21 -4 -33.5t8.5 -19.5t22.5 -10t39 -6l-8 -35h-306l8 35q27 3 43.5 6.5t26.5 10.5t15 19t9 33l106 494q4 21 3.5 33.5t-8 19.5t-22.5 10t-39 6l8 35h320q60 0 101.5 -13.5t68 -36.5t38.5 -53.5t12 -63.5q0 -50 -22 -87.5t-54 -63.5t-68 -41.5t-65 -21.5
l108 -204q24 -44 45 -62.5t59 -19.5l-7 -35h-181q-19 16 -33.5 40t-30.5 58l-94 201h-57zM342 661l-68 -319h42q43 0 79.5 12t63.5 36t42 60t15 85q0 54 -30 90t-100 36h-44zM286 903h40l99 -82l140 82h45l-150 -156h-97z" />
    <glyph glyph-name="rcaron" unicode="&#x159;" horiz-adv-x="442" 
d="M239 372l-44 -135l67 132q30 57 56.5 95t51.5 57t51 19q30 0 46 -19t16 -48q0 -38 -22.5 -65.5t-56.5 -41.5h-8q0 18 -6.5 31t-26.5 13q-25 0 -54.5 -30t-58.5 -84t-55.5 -129.5t-46.5 -166.5h-136l111 442l-57 35l5 20l193 43h21zM198 768h40l99 -96l140 96h45
l-150 -171h-97z" />
    <glyph glyph-name="Sacute" unicode="&#x15a;" horiz-adv-x="558" 
d="M584 896v-7l-185 -142h-35l74 149h146zM515 222q0 -56 -23 -99.5t-61.5 -73t-89.5 -44.5t-107 -15q-41 0 -76.5 7.5t-64.5 18.5t-51 25t-36 27l29 169h36q3 -98 47 -151.5t125 -53.5q62 0 100 32.5t38 93.5q0 25 -7.5 44t-23.5 35.5t-41.5 31.5t-60.5 32
q-69 33 -109 76.5t-40 112.5q0 50 18.5 91t52.5 70t82.5 45t107.5 16q63 0 116 -19t87 -48l-29 -149h-35q-1 83 -35.5 129.5t-111.5 46.5q-57 0 -91 -34.5t-34 -88.5q0 -23 6.5 -40.5t20 -31.5t34 -27t49.5 -27q36 -17 68 -36.5t56.5 -43.5t39 -54t14.5 -67z" />
    <glyph glyph-name="sacute" unicode="&#x15b;" horiz-adv-x="414" 
d="M193 29q67 0 67 61q0 19 -14 38.5t-36 40.5l-46 43q-24 23 -45.5 48t-35.5 52.5t-14 57.5q0 34 15 65t41 54.5t62 37t78 13.5q60 0 99 -23.5t39 -68.5q0 -26 -19.5 -42.5t-39.5 -22.5h-6q-14 48 -43 82.5t-72 34.5q-28 0 -43.5 -16t-15.5 -42q0 -17 14.5 -36t36.5 -40
l48 -45q25 -23 47 -48.5t36.5 -52.5t14.5 -56q0 -39 -16 -71t-43.5 -55t-63.5 -35.5t-76 -12.5q-38 0 -69 8.5t-53 23.5t-34.5 35.5t-12.5 44.5q0 27 16.5 47t41.5 30h7q14 -68 49 -109t86 -41zM491 763v-7l-196 -159h-35l88 166h143z" />
    <glyph glyph-name="Scircumflex" unicode="&#x15c;" horiz-adv-x="558" 
d="M538 747h-40l-99 82l-140 -82h-45l150 156h97zM515 222q0 -56 -23 -99.5t-61.5 -73t-89.5 -44.5t-107 -15q-41 0 -76.5 7.5t-64.5 18.5t-51 25t-36 27l29 169h36q3 -98 47 -151.5t125 -53.5q62 0 100 32.5t38 93.5q0 25 -7.5 44t-23.5 35.5t-41.5 31.5t-60.5 32
q-69 33 -109 76.5t-40 112.5q0 50 18.5 91t52.5 70t82.5 45t107.5 16q63 0 116 -19t87 -48l-29 -149h-35q-1 83 -35.5 129.5t-111.5 46.5q-57 0 -91 -34.5t-34 -88.5q0 -23 6.5 -40.5t20 -31.5t34 -27t49.5 -27q36 -17 68 -36.5t56.5 -43.5t39 -54t14.5 -67z" />
    <glyph glyph-name="scircumflex" unicode="&#x15d;" horiz-adv-x="414" 
d="M193 29q67 0 67 61q0 19 -14 38.5t-36 40.5l-46 43q-24 23 -45.5 48t-35.5 52.5t-14 57.5q0 34 15 65t41 54.5t62 37t78 13.5q60 0 99 -23.5t39 -68.5q0 -26 -19.5 -42.5t-39.5 -22.5h-6q-14 48 -43 82.5t-72 34.5q-28 0 -43.5 -16t-15.5 -42q0 -17 14.5 -36t36.5 -40
l48 -45q25 -23 47 -48.5t36.5 -52.5t14.5 -56q0 -39 -16 -71t-43.5 -55t-63.5 -35.5t-76 -12.5q-38 0 -69 8.5t-53 23.5t-34.5 35.5t-12.5 44.5q0 27 16.5 47t41.5 30h7q14 -68 49 -109t86 -41zM452 594h-40l-99 96l-140 -96h-45l150 171h97z" />
    <glyph glyph-name="Scedilla" unicode="&#x15e;" horiz-adv-x="558" 
d="M95 -195q58 0 90 15t32 38q0 20 -22 27.5t-61 9.5l51 98q-64 8 -110 30t-69 45l29 169h36q3 -98 47 -151.5t125 -53.5q62 0 100 32.5t38 93.5q0 25 -7.5 44t-23.5 35.5t-41.5 31.5t-60.5 32q-69 33 -109 76.5t-40 112.5q0 50 18.5 91t52.5 70t82.5 45t107.5 16
q63 0 116 -19t87 -48l-29 -149h-35q-1 83 -35.5 129.5t-111.5 46.5q-57 0 -91 -34.5t-34 -88.5q0 -23 6.5 -40.5t20 -31.5t34 -27t49.5 -27q36 -17 68 -36.5t56.5 -43.5t39 -54t14.5 -67q0 -56 -23 -99.5t-61.5 -73t-89.5 -44.5t-107 -15h-10q-4 0 -9 1l-18 -35
q46 -3 70.5 -21.5t24.5 -52.5q0 -27 -14.5 -47.5t-40 -34t-60.5 -20t-75 -6.5z" />
    <glyph glyph-name="scedilla" unicode="&#x15f;" horiz-adv-x="414" 
d="M22 -195q58 0 90 15t32 38q0 20 -22 27.5t-61 9.5l51 99q-54 10 -86.5 38.5t-32.5 69.5q0 27 16.5 47t41.5 30h7q14 -68 49 -109t86 -41q67 0 67 61q0 19 -14 38.5t-36 40.5l-46 43q-24 23 -45.5 48t-35.5 52.5t-14 57.5q0 34 15 65t41 54.5t62 37t78 13.5q60 0 99 -23.5
t39 -68.5q0 -26 -19.5 -42.5t-39.5 -22.5h-6q-14 48 -43 82.5t-72 34.5q-28 0 -43.5 -16t-15.5 -42q0 -17 14.5 -36t36.5 -40l47 -45q26 -23 48 -48.5t36.5 -52.5t14.5 -56q0 -39 -16 -71t-43.5 -55t-63.5 -35.5t-76 -12.5q-5 0 -10 0.5t-10 0.5l-18 -35q46 -3 70.5 -21.5
t24.5 -52.5q0 -27 -14.5 -47.5t-40 -34t-60.5 -20t-75 -6.5z" />
    <glyph glyph-name="Scaron" unicode="&#x160;" horiz-adv-x="558" 
d="M259 903h40l99 -82l140 82h45l-150 -156h-97zM515 222q0 -56 -23 -99.5t-61.5 -73t-89.5 -44.5t-107 -15q-41 0 -76.5 7.5t-64.5 18.5t-51 25t-36 27l29 169h36q3 -98 47 -151.5t125 -53.5q62 0 100 32.5t38 93.5q0 25 -7.5 44t-23.5 35.5t-41.5 31.5t-60.5 32
q-69 33 -109 76.5t-40 112.5q0 50 18.5 91t52.5 70t82.5 45t107.5 16q63 0 116 -19t87 -48l-29 -149h-35q-1 83 -35.5 129.5t-111.5 46.5q-57 0 -91 -34.5t-34 -88.5q0 -23 6.5 -40.5t20 -31.5t34 -27t49.5 -27q36 -17 68 -36.5t56.5 -43.5t39 -54t14.5 -67z" />
    <glyph glyph-name="scaron" unicode="&#x161;" horiz-adv-x="414" 
d="M193 29q67 0 67 61q0 19 -14 38.5t-36 40.5l-46 43q-24 23 -45.5 48t-35.5 52.5t-14 57.5q0 34 15 65t41 54.5t62 37t78 13.5q60 0 99 -23.5t39 -68.5q0 -26 -19.5 -42.5t-39.5 -22.5h-6q-14 48 -43 82.5t-72 34.5q-28 0 -43.5 -16t-15.5 -42q0 -17 14.5 -36t36.5 -40
l48 -45q25 -23 47 -48.5t36.5 -52.5t14.5 -56q0 -39 -16 -71t-43.5 -55t-63.5 -35.5t-76 -12.5q-38 0 -69 8.5t-53 23.5t-34.5 35.5t-12.5 44.5q0 27 16.5 47t41.5 30h7q14 -68 49 -109t86 -41zM165 768h40l99 -96l140 96h45l-150 -171h-97z" />
    <glyph glyph-name="Tcedilla" unicode="&#x162;" horiz-adv-x="681" 
d="M382 103q-5 -21 -3 -33.5t11 -19.5t26 -9.5t43 -5.5l-8 -35h-327l8 35q28 3 46.5 6.5t29.5 10t17 18.5t11 33l119 563h-51q-29 0 -51.5 -9.5t-45 -32t-48.5 -60.5l-62 -93h-34l65 231h617l-35 -231h-32q-11 56 -19.5 93.5t-20 60t-28.5 32t-46 9.5h-62zM224 -153
q-36 9 -36 44q0 30 21.5 49t57.5 19q35 0 54 -20t19 -53q0 -25 -9.5 -47.5t-29.5 -39t-51 -26t-74 -9.5l3 29q43 0 68.5 17t30.5 37h-54z" />
    <glyph glyph-name="tcedilla" unicode="&#x163;" horiz-adv-x="356" 
d="M177 146q-5 -17 -6.5 -28.5t-1.5 -21.5q0 -12 6 -19.5t19 -7.5q24 0 51.5 20t70.5 69l20 -16q-54 -76 -104 -114t-104 -38q-44 0 -69 26t-25 66q0 17 2.5 33.5t7.5 39.5l79 316h-64l7 28q62 20 114 61.5t91 93.5h32l-33 -137h111l-12 -46h-111zM49 -153q-36 9 -36 44
q0 30 21.5 49t57.5 19q35 0 54 -20t19 -53q0 -25 -9.5 -47.5t-29.5 -39t-51 -26t-74 -9.5l3 29q43 0 68.5 17t30.5 37h-54z" />
    <glyph glyph-name="Tcaron" unicode="&#x164;" horiz-adv-x="681" 
d="M382 103q-5 -21 -3 -33.5t11 -19.5t26 -9.5t43 -5.5l-8 -35h-327l8 35q28 3 46.5 6.5t29.5 10t17 18.5t11 33l119 563h-51q-29 0 -51.5 -9.5t-45 -32t-48.5 -60.5l-62 -93h-34l65 231h617l-35 -231h-32q-11 56 -19.5 93.5t-20 60t-28.5 32t-46 9.5h-62zM322 903h40
l99 -82l140 82h45l-150 -156h-97z" />
    <glyph glyph-name="tcaron" unicode="&#x165;" horiz-adv-x="356" 
d="M177 146q-5 -17 -6.5 -28.5t-1.5 -21.5q0 -12 6 -19.5t19 -7.5q24 0 51.5 20t70.5 69l20 -16q-54 -76 -104 -114t-104 -38q-44 0 -69 26t-25 66q0 17 2.5 33.5t7.5 39.5l79 316h-64l7 28q62 20 114 61.5t91 93.5h32l-33 -137h111l-12 -46h-111zM338 552h-27l61 205h120
l-2 -8z" />
    <glyph glyph-name="Tbar" unicode="&#x166;" horiz-adv-x="681" 
d="M190 383h105l60 283h-51q-29 0 -51.5 -9.5t-45 -32t-48.5 -59.5l-62 -94h-34l65 231h617l-35 -231h-32q-11 56 -19.5 93.5t-20 60t-28.5 32t-46 9.5h-62l-61 -283h115l-10 -48h-115l-49 -232q-5 -21 -3 -33.5t11 -19.5t26 -9.5t43 -5.5l-8 -35h-327l8 35q28 3 46.5 6.5
t29.5 10t17 18.5t11 33l49 232h-105z" />
    <glyph glyph-name="tbar" unicode="&#x167;" horiz-adv-x="375" 
d="M242 375h119l-10 -44h-120l-46 -185q-4 -17 -6 -28.5t-2 -21.5q0 -12 6.5 -19.5t18.5 -7.5q25 0 52.5 20t70.5 69l20 -16q-55 -76 -104.5 -114t-103.5 -38q-45 0 -69.5 26t-24.5 66q0 17 2 33.5t8 39.5l44 176h-59l10 44h60l24 96h-64l7 28q62 20 114 61.5t91 93.5h32
l-34 -137h112l-12 -46h-111z" />
    <glyph glyph-name="Utilde" unicode="&#x168;" horiz-adv-x="729" 
d="M661 598q4 21 3 33.5t-9 19.5t-25 10t-44 6l7 35h223l-7 -35q-27 -3 -43.5 -6.5t-26.5 -10.5t-15.5 -19t-9.5 -33l-76 -356q-27 -129 -105 -190.5t-192 -61.5q-66 0 -118 19.5t-85 56.5t-44.5 90t2.5 121l69 321q4 21 4 33.5t-7.5 19.5t-22.5 10t-40 6l8 35h307l-8 -35
q-27 -3 -43.5 -6.5t-26.5 -10.5t-15.5 -19t-9.5 -33l-70 -328q-9 -45 -5 -84t21 -67.5t48 -44.5t75 -16q84 0 135 47t74 155zM577 749q-21 0 -37.5 9t-31 19.5t-29 19.5t-30.5 9q-21 0 -37.5 -14t-35.5 -42l-25 15q33 65 59.5 94.5t64.5 29.5q21 0 37.5 -9t30.5 -20t28 -20
t31 -9q22 0 38.5 14.5t34.5 42.5l26 -16q-17 -32 -31 -55.5t-28.5 -38.5t-30 -22t-34.5 -7z" />
    <glyph glyph-name="utilde" unicode="&#x169;" horiz-adv-x="606" 
d="M435 603q-21 0 -37.5 9t-31 20t-29 20t-30.5 9q-21 0 -37.5 -14.5t-35.5 -41.5l-25 15q33 65 59.5 94.5t64.5 29.5q21 0 37.5 -9t30.5 -20t28 -20t31 -9q22 0 38.5 14t34.5 42l26 -15q-33 -65 -59.5 -94.5t-64.5 -29.5zM429 523l142 8l-99 -401q-4 -14 -6.5 -25t-2.5 -17
q0 -15 14 -15t34 17.5t52 55.5l19 -16q-24 -35 -45.5 -61.5t-42 -44t-41.5 -26t-45 -8.5q-39 0 -60 22t-21 60q0 10 3 27.5t7.5 39t11.5 45.5l12 47q-23 -48 -51.5 -91.5t-60 -76.5t-65.5 -53t-67 -20q-42 0 -64.5 25.5t-22.5 63.5q0 23 8 55l79 308l-57 35l5 20l193 43h21
l-101 -393q-8 -30 -8 -44q0 -24 23 -24q19 0 47.5 25t58 67.5t56.5 100t43 123.5z" />
    <glyph glyph-name="Umacron" unicode="&#x16a;" horiz-adv-x="729" 
d="M661 598q4 21 3 33.5t-9 19.5t-25 10t-44 6l7 35h223l-7 -35q-27 -3 -43.5 -6.5t-26.5 -10.5t-15.5 -19t-9.5 -33l-76 -356q-27 -129 -105 -190.5t-192 -61.5q-66 0 -118 19.5t-85 56.5t-44.5 90t2.5 121l69 321q4 21 4 33.5t-7.5 19.5t-22.5 10t-40 6l8 35h307l-8 -35
q-27 -3 -43.5 -6.5t-26.5 -10.5t-15.5 -19t-9.5 -33l-70 -328q-9 -45 -5 -84t21 -67.5t48 -44.5t75 -16q84 0 135 47t74 155zM388 830h281l-14 -68h-281z" />
    <glyph glyph-name="umacron" unicode="&#x16b;" horiz-adv-x="606" 
d="M254 692h269l-14 -68h-269zM429 523l142 8l-99 -401q-4 -14 -6.5 -25t-2.5 -17q0 -15 14 -15t34 17.5t52 55.5l19 -16q-24 -35 -45.5 -61.5t-42 -44t-41.5 -26t-45 -8.5q-39 0 -60 22t-21 60q0 10 3 27.5t7.5 39t10.5 45.5l13 47q-23 -48 -51.5 -91.5t-60 -76.5
t-65.5 -53t-67 -20q-42 0 -64.5 25.5t-22.5 63.5q0 23 8 55l79 308l-57 35l5 20l193 43h21l-101 -393q-8 -30 -8 -44q0 -24 23 -24q19 0 47.5 25t58 67.5t56.5 100t43 123.5z" />
    <glyph glyph-name="Ubreve" unicode="&#x16c;" horiz-adv-x="729" 
d="M661 598q4 21 3 33.5t-9 19.5t-25 10t-44 6l7 35h223l-7 -35q-27 -3 -43.5 -6.5t-26.5 -10.5t-15.5 -19t-9.5 -33l-76 -356q-27 -129 -105 -190.5t-192 -61.5q-66 0 -118 19.5t-85 56.5t-44.5 90t2.5 121l69 321q4 21 4 33.5t-7.5 19.5t-22.5 10t-40 6l8 35h307l-8 -35
q-27 -3 -43.5 -6.5t-26.5 -10.5t-15.5 -19t-9.5 -33l-70 -328q-9 -45 -5 -84t21 -67.5t48 -44.5t75 -16q84 0 135 47t74 155zM516 744q-61 0 -92 38t-14 118h37q-2 -23 3 -38.5t16.5 -24.5t27.5 -13t36 -4q40 0 71.5 16.5t47.5 63.5h39q-18 -80 -62.5 -118t-109.5 -38z" />
    <glyph glyph-name="ubreve" unicode="&#x16d;" horiz-adv-x="606" 
d="M367 597q-63 0 -91 41.5t-10 121.5h38q-6 -48 16.5 -66.5t62.5 -18.5q39 0 70 18.5t46 66.5h38q-18 -80 -61 -121.5t-109 -41.5zM429 523l142 8l-99 -401q-4 -14 -6.5 -25t-2.5 -17q0 -15 14 -15t34 17.5t52 55.5l19 -16q-24 -35 -45.5 -61.5t-42 -44t-41.5 -26t-45 -8.5
q-39 0 -60 22t-21 60q0 10 3 27.5t7.5 39t10.5 45.5l13 47q-23 -48 -51.5 -91.5t-60 -76.5t-65.5 -53t-67 -20q-42 0 -64.5 25.5t-22.5 63.5q0 23 8 55l79 308l-57 35l5 20l193 43h21l-101 -393q-8 -30 -8 -44q0 -24 23 -24q19 0 47.5 25t58 67.5t56.5 100t43 123.5z" />
    <glyph glyph-name="Uring" unicode="&#x16e;" horiz-adv-x="729" 
d="M432 816q0 43 28.5 72.5t71.5 29.5q42 0 66 -24t24 -62q0 -43 -28.5 -72.5t-71.5 -29.5q-42 0 -66 24t-24 62zM579 831q0 22 -12.5 34.5t-35.5 12.5q-28 0 -42 -18t-14 -43q0 -22 12.5 -34.5t35.5 -12.5q28 0 42 18t14 43zM661 598q4 21 3 33.5t-9 19.5t-25 10t-44 6
l7 35h223l-7 -35q-27 -3 -43.5 -6.5t-26.5 -10.5t-15.5 -19t-9.5 -33l-76 -356q-27 -129 -105 -190.5t-192 -61.5q-66 0 -118 19.5t-85 56.5t-44.5 90t2.5 121l69 321q4 21 4 33.5t-7.5 19.5t-22.5 10t-40 6l8 35h307l-8 -35q-27 -3 -43.5 -6.5t-26.5 -10.5t-15.5 -19
t-9.5 -33l-70 -328q-9 -45 -5 -84t21 -67.5t48 -44.5t75 -16q84 0 135 47t74 155z" />
    <glyph glyph-name="uring" unicode="&#x16f;" horiz-adv-x="606" 
d="M429 523l142 8l-99 -401q-4 -14 -6.5 -25t-2.5 -17q0 -15 14 -15t34 17.5t52 55.5l19 -16q-24 -35 -45.5 -61.5t-42 -44t-41.5 -26t-45 -8.5q-39 0 -60 22t-21 60q0 10 3 27.5t7.5 39t10.5 45.5l13 47q-23 -48 -51.5 -91.5t-60 -76.5t-65.5 -53t-67 -20q-42 0 -64.5 25.5
t-22.5 63.5q0 23 8 55l79 308l-57 35l5 20l193 43h21l-101 -393q-8 -30 -8 -44q0 -24 23 -24q19 0 47.5 25t58 67.5t56.5 100t43 123.5zM288 658q0 43 28.5 72t71.5 29q42 0 66 -24t24 -61q0 -43 -28.5 -72.5t-71.5 -29.5q-42 0 -66 24t-24 62zM435 673q0 22 -12.5 34.5
t-35.5 12.5q-28 0 -42 -18t-14 -43q0 -22 12.5 -35t35.5 -13q28 0 42 18t14 44z" />
    <glyph glyph-name="Uhungarumlaut" unicode="&#x170;" horiz-adv-x="729" 
d="M771 896l-1 -7l-170 -142h-36l78 149h129zM609 896l-1 -7l-170 -142h-36l78 149h129zM661 598q4 21 3 33.5t-9 19.5t-25 10t-44 6l7 35h223l-7 -35q-27 -3 -43.5 -6.5t-26.5 -10.5t-15.5 -19t-9.5 -33l-76 -356q-27 -129 -105 -190.5t-192 -61.5q-66 0 -118 19.5
t-85 56.5t-44.5 90t2.5 121l69 321q4 21 4 33.5t-7.5 19.5t-22.5 10t-40 6l8 35h307l-8 -35q-27 -3 -43.5 -6.5t-26.5 -10.5t-15.5 -19t-9.5 -33l-70 -328q-9 -45 -5 -84t21 -67.5t48 -44.5t75 -16q84 0 135 47t74 155z" />
    <glyph glyph-name="uhungarumlaut" unicode="&#x171;" horiz-adv-x="606" 
d="M628 763l-2 -7l-186 -159h-36l99 166h125zM466 763l-2 -7l-186 -159h-36l100 166h124zM429 523l142 8l-99 -401q-4 -14 -6.5 -25t-2.5 -17q0 -15 14 -15t34 17.5t52 55.5l19 -16q-24 -35 -45.5 -61.5t-42 -44t-41.5 -26t-45 -8.5q-39 0 -60 22t-21 60q0 10 3 27.5t7.5 39
t10.5 45.5l13 47q-23 -48 -51.5 -91.5t-60 -76.5t-65.5 -53t-67 -20q-42 0 -64.5 25.5t-22.5 63.5q0 23 8 55l79 308l-57 35l5 20l193 43h21l-101 -393q-8 -30 -8 -44q0 -24 23 -24q19 0 47.5 25t58 67.5t56.5 100t43 123.5z" />
    <glyph glyph-name="Uogonek" unicode="&#x172;" horiz-adv-x="729" 
d="M661 598q4 21 3 33.5t-9 19.5t-25 10t-44 6l7 35h223l-7 -35q-27 -3 -43.5 -6.5t-26.5 -10.5t-15.5 -19t-9.5 -33l-76 -356q-20 -92 -65 -149t-111 -82q-51 -26 -82.5 -57t-31.5 -65q0 -19 12 -31t33 -12t41 9.5t45 29.5l10 -16q-29 -32 -65 -57t-83 -25q-35 0 -58.5 18
t-23.5 53q0 23 9.5 42.5t26 36t39 30t47.5 25.5q-10 -1 -19.5 -1.5t-20.5 -0.5q-66 0 -118 19.5t-85 56.5t-44.5 90t2.5 121l69 321q4 21 4 33.5t-7.5 19.5t-22.5 10t-40 6l8 35h307l-8 -35q-27 -3 -43.5 -6.5t-26.5 -10.5t-15.5 -19t-9.5 -33l-70 -328q-9 -45 -5 -84
t21 -67.5t48 -44.5t75 -16q84 0 135 47t74 155z" />
    <glyph glyph-name="uogonek" unicode="&#x173;" horiz-adv-x="606" 
d="M327 72q0 10 3 27.5t7.5 39t11.5 45.5l12 47q-23 -48 -51.5 -91.5t-60 -76.5t-65.5 -53t-67 -20q-42 0 -64 25.5t-22 63.5q0 11 2 26t5 29l77 308l-57 35l5 20l193 43h21l-100 -397q-3 -12 -5 -22t-2 -18q0 -24 23 -24q19 0 47.5 25t58 67.5t56.5 100t43 123.5l31 128
l142 8l-99 -401q-4 -14 -6.5 -25t-2.5 -17q0 -15 14 -15t34 17.5t52 55.5l19 -16q-36 -49 -73 -84l-67 -61q-29 -27 -48 -49.5t-19 -47.5q0 -20 12.5 -31t32.5 -11q40 0 86 39l10 -16q-29 -32 -64.5 -57t-82.5 -25q-35 0 -58 18t-23 53q0 22 10 41.5t26.5 35.5t37.5 30
t42 26q-37 2 -57 23t-20 58z" />
    <glyph glyph-name="Wcircumflex" unicode="&#x174;" horiz-adv-x="950" 
d="M742 747h-40l-99 82l-140 -82h-45l150 156h97zM679 197l208 378q8 14 14.5 29.5t6.5 28.5q0 15 -13 23.5t-57 10.5l7 35h199l-8 -35q-22 -3 -38.5 -9.5t-27.5 -27.5l-357 -636h-40l-52 412l-237 -412h-41l-100 636q-2 19 -16 26.5t-34 10.5l8 35h282l-7 -35
q-48 -3 -65 -14t-17 -37q0 -19 3 -37l56 -385l160 281l-19 155q-2 19 -14.5 26.5t-32.5 10.5l7 35h268l-7 -35q-48 -3 -65 -14.5t-17 -38.5q0 -19 3 -35z" />
    <glyph glyph-name="wcircumflex" unicode="&#x175;" horiz-adv-x="737" 
d="M606 594h-40l-99 96l-140 -96h-45l150 171h97zM288 478l5 18l167 44h10l28 -414l80 103q38 46 54 84t16 76q0 42 -25.5 62t-68.5 17l1 12q14 21 40.5 40.5t61.5 19.5q24 0 40.5 -8t26.5 -21t14.5 -29.5t4.5 -34.5q0 -27 -9 -53.5t-25.5 -54t-39.5 -57.5l-52 -63
l-194 -226h-40l-23 251l-201 -251h-40l-41 455l-57 32l6 18l169 42h11l28 -406l121 153l-14 161z" />
    <glyph glyph-name="Ycircumflex" unicode="&#x176;" horiz-adv-x="658" 
d="M631 747h-40l-99 82l-140 -82h-45l150 156h97zM373 103q-5 -21 -3 -33.5t11 -19.5t25.5 -9.5t42.5 -5.5l-8 -35h-321l7 35q29 3 47 6.5t29.5 10t17.5 18.5t10 33l35 167l-123 360q-7 20 -18.5 27t-31.5 10l8 35h291l-8 -35q-50 -2 -68.5 -11.5t-18.5 -31.5q0 -12 2.5 -23
t7.5 -25l87 -250l189 252l20 30q11 15 11 28q0 15 -15.5 22.5t-56.5 8.5l7 35h203l-8 -35q-21 -3 -36.5 -10.5t-29.5 -26.5l-269 -358z" />
    <glyph glyph-name="ycircumflex" unicode="&#x177;" horiz-adv-x="509" 
d="M488 594h-40l-99 96l-140 -96h-45l150 171h97zM16 480l6 18l167 42h11l81 -473l28 40q35 52 57 91.5t34 71t16.5 57.5t4.5 51q0 50 -28.5 71.5t-71.5 18.5l1 12q14 21 40 40.5t60 19.5q25 0 42 -8t28 -21.5t16 -31.5t5 -37q0 -62 -49 -149.5t-134 -211.5
q-61 -88 -109.5 -145t-89 -90.5t-75 -46.5t-68.5 -13q-39 0 -68.5 20.5t-29.5 63.5q0 28 18 48.5t45 28.5h10q0 -45 18.5 -70t56.5 -25q16 0 31.5 3.5t32 12.5t35 24.5t39.5 38.5l-101 517z" />
    <glyph glyph-name="Ydieresis" unicode="&#x178;" horiz-adv-x="658" 
d="M586 749q-32 0 -51 20t-19 49q0 31 21 53.5t54 22.5q32 0 51 -19.5t19 -48.5q0 -31 -21 -54t-54 -23zM390 749q-32 0 -51 20t-19 49q0 31 21.5 53.5t54.5 22.5q32 0 51 -19.5t19 -48.5q0 -31 -21.5 -54t-54.5 -23zM373 103q-5 -21 -3 -33.5t11 -19.5t25.5 -9.5t42.5 -5.5
l-8 -35h-321l7 35q29 3 47 6.5t29.5 10t17.5 18.5t10 33l35 167l-123 360q-7 20 -18.5 27t-31.5 10l8 35h291l-8 -35q-50 -2 -68.5 -11.5t-18.5 -31.5q0 -12 2.5 -23t7.5 -25l87 -250l189 252l20 30q11 15 11 28q0 15 -15.5 22.5t-56.5 8.5l7 35h203l-8 -35
q-21 -3 -36.5 -10.5t-29.5 -26.5l-269 -358z" />
    <glyph glyph-name="Zacute" unicode="&#x179;" horiz-adv-x="622" 
d="M630 896v-7l-185 -142h-35l74 149h146zM329 40q31 0 55.5 8t49 28.5t52.5 54.5l69 84h34l-79 -215h-536l5 26l518 636h-165q-32 0 -54.5 -8t-43 -27t-41.5 -50l-51 -76h-33l50 201h522l-6 -26l-517 -636h171z" />
    <glyph glyph-name="zacute" unicode="&#x17a;" horiz-adv-x="485" 
d="M176 412q-24 0 -35 -7.5t-25 -26.5l-26 -38l-18 7l75 218h19q2 -18 7 -28.5t19 -10.5h329v-17l-382 -351l85 -31q26 -8 46.5 -13.5t48.5 -5.5q15 0 29.5 3.5t28.5 13t28 26.5t29 43l18 -8q-19 -57 -37.5 -95t-39.5 -61.5t-46 -33.5t-57 -10q-35 0 -65 11.5t-71 32.5
l-92 51l-35 -86q-23 0 -32.5 9t-9.5 23q0 11 5 22t18 24l372 339h-186zM547 763v-7l-196 -159h-35l88 166h143z" />
    <glyph glyph-name="Zdotaccent" unicode="&#x17b;" horiz-adv-x="622" 
d="M329 40q31 0 55.5 8t49 28.5t52.5 54.5l69 84h34l-79 -215h-536l5 26l518 636h-165q-32 0 -54.5 -8t-43 -27t-41.5 -50l-51 -76h-33l50 201h522l-6 -26l-517 -636h171zM442 750q-34 0 -54 21t-20 50q0 32 22 55.5t58 23.5q33 0 53.5 -21t20.5 -50q0 -32 -22.5 -55.5
t-57.5 -23.5z" />
    <glyph glyph-name="zdotaccent" unicode="&#x17c;" horiz-adv-x="485" 
d="M351 604q-34 0 -54 20.5t-20 49.5q0 32 22 55.5t58 23.5q33 0 53.5 -20.5t20.5 -49.5q0 -32 -22.5 -55.5t-57.5 -23.5zM176 412q-24 0 -35 -7.5t-25 -26.5l-26 -38l-18 7l75 218h19q2 -18 7 -28.5t19 -10.5h329v-17l-382 -351l85 -31q26 -8 46.5 -13.5t48.5 -5.5
q15 0 29.5 3.5t28.5 13t28 26.5t29 43l18 -8q-19 -57 -37.5 -95t-39.5 -61.5t-46 -33.5t-57 -10q-35 0 -65 11.5t-71 32.5l-92 51l-35 -86q-23 0 -32.5 9t-9.5 23q0 11 5 22t18 24l372 339h-186z" />
    <glyph glyph-name="Zcaron" unicode="&#x17d;" horiz-adv-x="622" 
d="M329 40q31 0 55.5 8t49 28.5t52.5 54.5l69 84h34l-79 -215h-536l5 26l518 636h-165q-32 0 -54.5 -8t-43 -27t-41.5 -50l-51 -76h-33l50 201h522l-6 -26l-517 -636h171zM304 903h40l99 -82l140 82h45l-150 -156h-97z" />
    <glyph glyph-name="zcaron" unicode="&#x17e;" horiz-adv-x="485" 
d="M176 412q-24 0 -35 -7.5t-25 -26.5l-26 -38l-18 7l75 218h19q2 -18 7 -28.5t19 -10.5h329v-17l-382 -351l85 -31q26 -8 46.5 -13.5t48.5 -5.5q15 0 29.5 3.5t28.5 13t28 26.5t29 43l18 -8q-19 -57 -37.5 -95t-39.5 -61.5t-46 -33.5t-57 -10q-35 0 -65 11.5t-71 32.5
l-92 51l-35 -86q-23 0 -32.5 9t-9.5 23q0 11 5 22t18 24l372 339h-186zM213 768h40l99 -96l140 96h45l-150 -171h-97z" />
    <glyph glyph-name="florin" unicode="&#x192;" horiz-adv-x="492" 
d="M82 369h95l12 52q32 141 94.5 216t164.5 75q55 0 85.5 -19t30.5 -57q0 -26 -15 -42.5t-39 -23.5h-37q1 21 1 41.5t-3.5 36t-12 25.5t-23.5 10q-25 0 -39 -26t-22 -61l-51 -227h108l-8 -35h-108l-43 -195q-16 -71 -39.5 -127t-55 -95t-73 -60t-93.5 -21q-54 0 -85.5 19
t-31.5 56q0 27 15 43t40 24h37q-3 -21 -3 -41.5t4 -36t13 -25.5t24 -10q24 0 37 22t21 57l87 390h-96z" />
    <glyph glyph-name="Aringacute" unicode="&#x1fa;" horiz-adv-x="721" 
d="M500 821q0 20 -12 31t-34 11q-26 0 -40 -16t-14 -39q0 -20 12.5 -31t33.5 -11q26 0 40 16t14 39zM657 1040v-7l-165 -113h-35l56 120h144zM543 822q0 -39 -28 -66t-70 -27q-41 0 -64.5 22t-23.5 57q0 39 28 65.5t70 26.5q41 0 64.5 -22t23.5 -56zM198 274h236l-56 300z
M442 231h-269l-67 -112q-8 -15 -13 -26.5t-5 -22.5q0 -18 18.5 -25.5t59.5 -9.5l-7 -35h-210l7 35q22 2 38 9.5t28 27.5l341 562l-15 73h150l122 -635q4 -20 17.5 -27.5t34.5 -9.5l-8 -35h-300l7 35q20 1 37.5 3t30.5 7.5t20.5 16t7.5 28.5q0 10 -3 28z" />
    <glyph glyph-name="aringacute" unicode="&#x1fb;" horiz-adv-x="599" 
d="M325 72q0 10 3 27t7.5 37.5t10.5 42.5l12 41q-23 -49 -49.5 -91t-55 -73t-59.5 -48.5t-63 -17.5q-54 0 -83.5 40.5t-29.5 112.5q0 75 26.5 146t71.5 127t103.5 90t123.5 34q38 0 65 -12.5t47 -33.5l94 50h29l-38 -123l-70 -291q-4 -14 -6.5 -25t-2.5 -17q0 -15 14 -15
t34 17.5t51 55.5l20 -16q-25 -35 -46.5 -61.5t-42 -44t-41.5 -26t-45 -8.5q-38 0 -59 22t-21 60zM197 85q24 0 54 26.5t60 75t58.5 117t50.5 153.5q-7 21 -23.5 34t-39.5 13q-40 0 -76.5 -32t-64.5 -82.5t-44.5 -112t-16.5 -119.5q0 -33 9.5 -53t32.5 -20zM494 651
q0 -20 -7.5 -36.5t-20.5 -29.5t-30.5 -20t-38.5 -7q-41 0 -64.5 22t-23.5 57q0 39 27.5 65.5t69.5 26.5q41 0 64.5 -22t23.5 -56zM615 869l-1 -6l-165 -114h-35l56 120h145zM451 650q0 43 -46 43q-26 0 -39.5 -16.5t-13.5 -39.5q0 -20 12 -31t34 -11q26 0 39.5 16t13.5 39z
" />
    <glyph glyph-name="AEacute" unicode="&#x1fc;" horiz-adv-x="1009" 
d="M934 896v-7l-185 -142h-35l74 149h146zM267 290h225l78 364zM350 0l8 35q27 3 43.5 6.5t26.5 10.5t15 19t10 33l30 143h-252l-106 -128q-24 -28 -24 -49q0 -19 19.5 -26t60.5 -9l-7 -35h-225l7 35q22 2 39 11t37 33l466 560q-13 11 -38 17.5t-56 10.5l8 35h631l-34 -180
h-28q-9 41 -18 68t-22.5 43t-33.5 22.5t-50 6.5h-139l-59 -278h121q34 0 52.5 22t35.5 70h36l-49 -227h-35q3 48 -6.5 69.5t-43.5 21.5h-121l-49 -232q-9 -41 9.5 -54.5t65.5 -13.5h57q30 0 53.5 8.5t46.5 27t49 49t61 75.5h34l-73 -200h-553z" />
    <glyph glyph-name="aeacute" unicode="&#x1fd;" horiz-adv-x="773" 
d="M705 763v-7l-196 -159h-35l88 166h143zM625 504q-27 0 -52.5 -21t-46.5 -55.5t-36 -77.5t-22 -86q102 24 152 69.5t50 116.5q0 23 -10.5 38.5t-34.5 15.5zM197 85q29 0 64 36t70 102q8 63 36.5 122t73.5 104q-13 25 -33 40.5t-49 15.5q-41 0 -77.5 -32.5t-65 -82.5
t-45 -112t-16.5 -120q0 -33 9.5 -53t32.5 -20zM354 540q44 0 74.5 -16t51.5 -41q35 26 76.5 41.5t86.5 15.5q34 0 59.5 -8.5t42 -23t24.5 -34t8 -41.5q0 -45 -25.5 -77t-68 -54.5t-99 -37.5t-119.5 -26q-1 -8 -1 -15v-16q0 -68 27.5 -103.5t77.5 -35.5q41 0 76.5 22.5
t71.5 67.5l21 -17q-49 -74 -106 -112.5t-129 -38.5q-76 0 -122.5 47.5t-51.5 127.5q-21 -38 -44.5 -70.5t-48.5 -55.5t-51.5 -36t-53.5 -13q-54 0 -83.5 40.5t-29.5 112.5q0 75 27 146t72.5 127t106.5 90t130 34z" />
    <glyph glyph-name="Oslashacute" unicode="&#x1fe;" horiz-adv-x="727" 
d="M677 896v-7l-185 -142h-35l74 149h146zM572 470q0 40 -6 73l-355 -431q14 -38 40 -59.5t68 -21.5q40 0 74.5 21t62.5 56t49.5 80t36.5 94t22.5 97.5t7.5 90.5zM446 671q-40 0 -74.5 -21t-62.5 -56t-49.5 -80t-36.5 -94t-22.5 -97.5t-7.5 -90.5q0 -41 6 -74l355 431
q-14 38 -40 60t-68 22zM645 639q39 -38 59 -90.5t20 -112.5q0 -81 -28.5 -160.5t-81.5 -143t-128 -103t-168 -39.5q-51 0 -93.5 12.5t-74.5 35.5l-59 -71l-31 23l60 72q-39 38 -59 90.5t-20 113.5q0 81 28.5 160.5t81.5 143t128 103t168 39.5q51 0 93.5 -13t74.5 -36l50 61
l31 -23z" />
    <glyph glyph-name="oslashacute" unicode="&#x1ff;" horiz-adv-x="530" 
d="M546 763v-7l-196 -159h-35l88 166h143zM213 25q31 0 60.5 35t52 87.5t37 114t16.5 114.5l-226 -277q5 -33 18.5 -53.5t41.5 -20.5zM317 505q-32 0 -61.5 -35.5t-52 -88.5t-37 -115t-15.5 -115l226 278q-5 34 -18.5 55t-41.5 21zM206 -10q-69 0 -115 33l-45 -55l-28 20
l47 58q-45 51 -45 140q0 64 23 127.5t64 113.5t96.5 81.5t120.5 31.5q68 0 115 -35l41 51l28 -21l-43 -53q45 -53 45 -139q0 -64 -23 -127t-63.5 -113.5t-96.5 -81.5t-121 -31z" />
    <glyph glyph-name="Scommaaccent" unicode="&#x218;" horiz-adv-x="558" 
d="M515 222q0 -56 -23 -99.5t-61.5 -73t-89.5 -44.5t-107 -15q-41 0 -76.5 7.5t-64.5 18.5t-51 25t-36 27l29 169h36q3 -98 47 -151.5t125 -53.5q62 0 100 32.5t38 93.5q0 25 -7.5 44t-23.5 35.5t-41.5 31.5t-60.5 32q-69 33 -109 76.5t-40 112.5q0 50 18.5 91t52.5 70
t82.5 45t107.5 16q63 0 116 -19t87 -48l-29 -149h-35q-1 83 -35.5 129.5t-111.5 46.5q-57 0 -91 -34.5t-34 -88.5q0 -23 6.5 -40.5t20 -31.5t34 -27t49.5 -27q36 -17 68 -36.5t56.5 -43.5t39 -54t14.5 -67zM160 -153q-36 9 -36 44q0 30 21.5 49t57.5 19q35 0 54 -20t19 -53
q0 -25 -9.5 -47.5t-29.5 -39t-51 -26t-74 -9.5l3 29q43 0 68.5 17t30.5 37h-54z" />
    <glyph glyph-name="scommaaccent" unicode="&#x219;" horiz-adv-x="414" 
d="M193 29q67 0 67 61q0 19 -14 38.5t-36 40.5l-46 43q-24 23 -45.5 48t-35.5 52.5t-14 57.5q0 34 15 65t41 54.5t62 37t78 13.5q60 0 99 -23.5t39 -68.5q0 -26 -19.5 -42.5t-39.5 -22.5h-6q-14 48 -43 82.5t-72 34.5q-28 0 -43.5 -16t-15.5 -42q0 -17 14.5 -36t36.5 -40
l48 -45q25 -23 47 -48.5t36.5 -52.5t14.5 -56q0 -39 -16 -71t-43.5 -55t-63.5 -35.5t-76 -12.5q-38 0 -69 8.5t-53 23.5t-34.5 35.5t-12.5 44.5q0 27 16.5 47t41.5 30h7q14 -68 49 -109t86 -41zM80 -153q-36 9 -36 44q0 30 21.5 49t57.5 19q35 0 54 -20t19 -53
q0 -25 -9.5 -47.5t-29.5 -39t-51 -26t-74 -9.5l3 29q43 0 68.5 17t30.5 37h-54z" />
    <glyph glyph-name="uni0237" unicode="&#x237;" horiz-adv-x="277" 
d="M178 119q-21 -90 -47.5 -153t-59.5 -103t-73.5 -58.5t-88.5 -18.5t-79 19t-31 54q0 32 20.5 48.5t46.5 20.5h21q2 -48 13 -77.5t33 -29.5q13 0 23 9.5t19 30.5t18 55t21 84l103 442l-56 35l4 20l192 43h21z" />
    <glyph glyph-name="circumflex" unicode="&#x2c6;" 
d="M412 594h-40l-99 96l-140 -96h-45l150 171h97z" />
    <glyph glyph-name="caron" unicode="&#x2c7;" 
d="M88 768h40l99 -96l140 96h45l-150 -171h-97z" />
    <glyph glyph-name="breve" unicode="&#x2d8;" 
d="M219 597q-63 0 -91 41.5t-10 121.5h38q-6 -48 16.5 -66.5t62.5 -18.5q39 0 70 18.5t46 66.5h38q-18 -80 -61 -121.5t-109 -41.5z" />
    <glyph glyph-name="dotaccent" unicode="&#x2d9;" 
d="M247 604q-34 0 -54 20.5t-20 49.5q0 32 22 55.5t58 23.5q33 0 53.5 -20.5t20.5 -49.5q0 -32 -22.5 -55.5t-57.5 -23.5z" />
    <glyph glyph-name="ring" unicode="&#x2da;" 
d="M155 658q0 43 28.5 72t71.5 29q42 0 66 -24t24 -61q0 -43 -28.5 -72.5t-71.5 -29.5q-42 0 -66 24t-24 62zM302 673q0 22 -12.5 34.5t-35.5 12.5q-28 0 -42 -18t-14 -43q0 -22 12.5 -35t35.5 -13q28 0 42 18t14 44z" />
    <glyph glyph-name="ogonek" unicode="&#x2db;" 
d="M351 17q-56 -26 -91.5 -59t-35.5 -69q0 -19 12 -31t32 -12q22 0 42 9.5t44 29.5l10 -16q-29 -32 -64.5 -57t-82.5 -25q-35 0 -58.5 18t-23.5 53q0 33 19 58.5t49.5 46t68 37t74.5 30.5z" />
    <glyph glyph-name="tilde" unicode="&#x2dc;" 
d="M301 603q-21 0 -37.5 9t-31 20t-29 20t-30.5 9q-21 0 -37.5 -14.5t-35.5 -41.5l-25 15q33 65 59.5 94.5t64.5 29.5q21 0 37.5 -9t30.5 -20t28 -20t31 -9q22 0 38.5 14t34.5 42l26 -15q-33 -65 -59.5 -94.5t-64.5 -29.5z" />
    <glyph glyph-name="hungarumlaut" unicode="&#x2dd;" 
d="M443 763l-2 -7l-186 -159h-36l99 166h125zM281 763l-2 -7l-186 -159h-36l100 166h124z" />
    <glyph glyph-name="pi" unicode="&#x3c0;" horiz-adv-x="655" 
d="M286 442q-16 -77 -31 -137t-30.5 -111.5t-33 -98t-38.5 -95.5h-139l5 26l55 84q29 43 57.5 93t52.5 109t39 130h-123l21 96h533l-37 -96h-80q-32 -122 -50 -210t-18 -134q0 -21 11 -31t30 -10q8 0 21.5 1.5t24.5 6.5v-22q-33 -26 -63.5 -39.5t-64.5 -13.5
q-40 0 -63.5 22.5t-23.5 62.5q0 54 30.5 143.5t82.5 223.5h-168z" />
    <glyph glyph-name="Wgrave" unicode="&#x1e80;" horiz-adv-x="950" 
d="M569 896l36 -149h-35l-138 142v7h137zM679 197l208 378q8 14 14.5 29.5t6.5 28.5q0 15 -13 23.5t-57 10.5l7 35h199l-8 -35q-22 -3 -38.5 -9.5t-27.5 -27.5l-357 -636h-40l-52 412l-237 -412h-41l-100 636q-2 19 -16 26.5t-34 10.5l8 35h282l-7 -35q-48 -3 -65 -14
t-17 -37q0 -19 3 -37l56 -385l160 281l-19 155q-2 19 -14.5 26.5t-32.5 10.5l7 35h268l-7 -35q-48 -3 -65 -14.5t-17 -38.5q0 -19 3 -35z" />
    <glyph glyph-name="wgrave" unicode="&#x1e81;" horiz-adv-x="737" 
d="M426 763l44 -166h-34l-144 159v7h134zM288 478l5 18l167 44h10l28 -414l80 103q38 46 54 84t16 76q0 42 -25.5 62t-68.5 17l1 12q14 21 40.5 40.5t61.5 19.5q24 0 40.5 -8t26.5 -21t14.5 -29.5t4.5 -34.5q0 -27 -9 -53.5t-25.5 -54t-39.5 -57.5l-52 -63l-194 -226h-40
l-23 251l-201 -251h-40l-41 455l-57 32l6 18l169 42h11l28 -406l121 153l-14 161z" />
    <glyph glyph-name="Wacute" unicode="&#x1e82;" horiz-adv-x="950" 
d="M788 896v-7l-185 -142h-35l74 149h146zM679 197l208 378q8 14 14.5 29.5t6.5 28.5q0 15 -13 23.5t-57 10.5l7 35h199l-8 -35q-22 -3 -38.5 -9.5t-27.5 -27.5l-357 -636h-40l-52 412l-237 -412h-41l-100 636q-2 19 -16 26.5t-34 10.5l8 35h282l-7 -35q-48 -3 -65 -14
t-17 -37q0 -19 3 -37l56 -385l160 281l-19 155q-2 19 -14.5 26.5t-32.5 10.5l7 35h268l-7 -35q-48 -3 -65 -14.5t-17 -38.5q0 -19 3 -35z" />
    <glyph glyph-name="wacute" unicode="&#x1e83;" horiz-adv-x="737" 
d="M645 763v-7l-196 -159h-35l88 166h143zM288 478l5 18l167 44h10l28 -414l80 103q38 46 54 84t16 76q0 42 -25.5 62t-68.5 17l1 12q14 21 40.5 40.5t61.5 19.5q24 0 40.5 -8t26.5 -21t14.5 -29.5t4.5 -34.5q0 -27 -9 -53.5t-25.5 -54t-39.5 -57.5l-52 -63l-194 -226h-40
l-23 251l-201 -251h-40l-41 455l-57 32l6 18l169 42h11l28 -406l121 153l-14 161z" />
    <glyph glyph-name="Wdieresis" unicode="&#x1e84;" horiz-adv-x="950" 
d="M697 749q-32 0 -51 20t-19 49q0 31 21 53.5t54 22.5q32 0 51 -19.5t19 -48.5q0 -31 -21 -54t-54 -23zM501 749q-32 0 -51 20t-19 49q0 31 21.5 53.5t54.5 22.5q32 0 51 -19.5t19 -48.5q0 -31 -21.5 -54t-54.5 -23zM679 197l208 378q8 14 14.5 29.5t6.5 28.5
q0 15 -13 23.5t-57 10.5l7 35h199l-8 -35q-22 -3 -38.5 -9.5t-27.5 -27.5l-357 -636h-40l-52 412l-237 -412h-41l-100 636q-2 19 -16 26.5t-34 10.5l8 35h282l-7 -35q-48 -3 -65 -14t-17 -37q0 -19 3 -37l56 -385l160 281l-19 155q-2 19 -14.5 26.5t-32.5 10.5l7 35h268
l-7 -35q-48 -3 -65 -14.5t-17 -38.5q0 -19 3 -35z" />
    <glyph glyph-name="wdieresis" unicode="&#x1e85;" horiz-adv-x="737" 
d="M545 604q-32 0 -50.5 20t-18.5 49q0 31 21 53.5t54 22.5q32 0 51 -20t19 -48q0 -31 -21 -54t-55 -23zM361 604q-32 0 -51 20t-19 49q0 31 21.5 53.5t54.5 22.5q32 0 51 -20t19 -48q0 -31 -21.5 -54t-54.5 -23zM288 478l5 18l167 44h10l28 -414l80 103q38 46 54 84t16 76
q0 42 -25.5 62t-68.5 17l1 12q14 21 40.5 40.5t61.5 19.5q24 0 40.5 -8t26.5 -21t14.5 -29.5t4.5 -34.5q0 -27 -9 -53.5t-25.5 -54t-40.5 -57.5l-51 -63l-194 -226h-40l-23 251l-201 -251h-40l-41 455l-57 32l6 18l169 42h11l28 -406l121 153l-14 161z" />
    <glyph glyph-name="Ygrave" unicode="&#x1ef2;" horiz-adv-x="658" 
d="M458 896l36 -149h-35l-138 142v7h137zM373 103q-5 -21 -3 -33.5t11 -19.5t25.5 -9.5t42.5 -5.5l-8 -35h-321l7 35q29 3 47 6.5t29.5 10t17.5 18.5t10 33l35 167l-123 360q-7 20 -18.5 27t-31.5 10l8 35h291l-8 -35q-50 -2 -68.5 -11.5t-18.5 -31.5q0 -12 2.5 -23t7.5 -25
l87 -250l189 252l20 30q11 15 11 28q0 15 -15.5 22.5t-56.5 8.5l7 35h203l-8 -35q-21 -3 -36.5 -10.5t-29.5 -26.5l-269 -358z" />
    <glyph glyph-name="ygrave" unicode="&#x1ef3;" horiz-adv-x="509" 
d="M309 763l44 -166h-34l-144 159v7h134zM16 480l6 18l167 42h11l81 -473l28 40q35 52 57 91.5t34 71t16.5 57.5t4.5 51q0 50 -28.5 71.5t-71.5 18.5l1 12q14 21 40 40.5t60 19.5q25 0 42 -8t28 -21.5t16 -31.5t5 -37q0 -62 -49 -149.5t-134 -211.5q-61 -88 -109.5 -145
t-89 -90.5t-75 -46.5t-68.5 -13q-39 0 -68.5 20.5t-29.5 63.5q0 28 18 48.5t45 28.5h10q0 -45 18.5 -70t56.5 -25q16 0 31.5 3.5t32 12.5t35 24.5t39.5 38.5l-101 517z" />
    <glyph glyph-name="endash" unicode="&#x2013;" horiz-adv-x="540" 
d="M24 278l12 48h480l-12 -48h-480z" />
    <glyph glyph-name="emdash" unicode="&#x2014;" horiz-adv-x="960" 
d="M924 278h-900l12 48h900z" />
    <glyph glyph-name="quoteleft" unicode="&#x2018;" horiz-adv-x="240" 
d="M212 642q26 -6 43 -23.5t17 -48.5q0 -35 -23 -56t-57 -21q-39 0 -62 26.5t-23 68.5q0 35 15 65t42 52.5t63.5 35.5t79.5 14v-32q-23 -3 -45.5 -9t-40.5 -16.5t-29.5 -24t-13.5 -31.5h34z" />
    <glyph glyph-name="quoteright" unicode="&#x2019;" horiz-adv-x="240" 
d="M187 604q-26 5 -43 22.5t-17 49.5q0 35 23.5 55.5t57.5 20.5q39 0 61.5 -26.5t22.5 -68.5q0 -35 -15 -65t-41.5 -52t-63 -35.5t-79.5 -14.5v32q23 3 45.5 9t40 16.5t29.5 24.5t14 32h-35z" />
    <glyph glyph-name="quotesinglbase" unicode="&#x201a;" horiz-adv-x="240" 
d="M57 -1q-26 6 -43 23t-17 49q0 35 23 55.5t57 20.5q39 0 62 -26t23 -68q0 -35 -15 -65t-42 -52.5t-63.5 -36t-79.5 -14.5v33q23 2 45.5 8.5t40.5 16.5t29.5 24t13.5 32h-34z" />
    <glyph glyph-name="quotedblleft" unicode="&#x201c;" horiz-adv-x="433" 
d="M405 642q26 -6 43 -23.5t17 -48.5q0 -35 -23 -56t-57 -21q-39 0 -62 26.5t-23 68.5q0 35 15 65t41.5 52.5t63 35.5t79.5 14v-32q-23 -3 -45 -9t-40 -16.5t-29.5 -24t-13.5 -31.5h34zM212 642q26 -6 43 -23.5t17 -48.5q0 -35 -23 -56t-57 -21q-39 0 -62 26.5t-23 68.5
q0 35 15 65t42 52.5t63.5 35.5t79.5 14v-32q-23 -3 -45.5 -9t-40.5 -16.5t-29.5 -24t-13.5 -31.5h34z" />
    <glyph glyph-name="quotedblright" unicode="&#x201d;" horiz-adv-x="433" 
d="M187 603q-26 6 -43 23.5t-17 48.5q0 35 23.5 55.5t57.5 20.5q39 0 61.5 -26t22.5 -68q0 -35 -15 -65t-41.5 -52.5t-63 -35.5t-79.5 -14v32q23 3 45.5 9t40 16.5t29.5 24t14 31.5h-35zM380 603q-26 6 -43 23.5t-17 48.5q0 35 23.5 55.5t57.5 20.5q39 0 61.5 -26t22.5 -68
q0 -35 -15 -65t-41.5 -52.5t-63 -35.5t-79.5 -14v32q23 3 45.5 9t40 16.5t29 24t13.5 31.5h-34z" />
    <glyph glyph-name="quotedblbase" unicode="&#x201e;" horiz-adv-x="433" 
d="M57 -1q-26 6 -43 23t-17 49q0 35 23 55.5t57 20.5q39 0 62 -26t23 -68q0 -35 -15 -65t-42 -52.5t-63.5 -36t-79.5 -14.5v33q23 2 45.5 8.5t40.5 16.5t29.5 24t13.5 32h-34zM250 -1q-26 6 -43 23t-17 49q0 35 23 55.5t57 20.5q39 0 62 -26t23 -68q0 -35 -15 -65t-42 -52.5
t-63.5 -36t-79.5 -14.5v33q23 2 45.5 8.5t40 16.5t29.5 24t14 32h-34z" />
    <glyph glyph-name="dagger" unicode="&#x2020;" horiz-adv-x="365" 
d="M262 587q-8 -32 1.5 -57t26.5 -36l-2 -8q-12 -14 -27 -45t-31 -73t-31 -92.5t-28 -103.5h-13q10 53 16 103.5t8 92.5t-0.5 73t-8.5 45l2 8q22 11 41.5 36t26.5 57q-17 0 -32 -5.5t-28 -11.5l-27 -12q-13 -5 -27 -5q-17 0 -28 10.5t-11 28.5q0 21 14.5 33.5t34.5 12.5
q14 0 26 -6l25 -11q12 -6 25.5 -11.5t31.5 -5.5q3 16 2 29.5t-4 25.5t-5.5 23.5t-2.5 23.5q0 26 13 39t34 13q20 0 29.5 -12t9.5 -26t-7.5 -27t-17.5 -27t-19.5 -29t-13.5 -33q18 0 32.5 5.5t28.5 11.5l26 11q13 6 28 6q16 0 27 -11t11 -29q0 -20 -14.5 -32.5t-33.5 -12.5
q-15 0 -27 5l-25 12q-12 6 -25.5 11.5t-30.5 5.5z" />
    <glyph glyph-name="daggerdbl" unicode="&#x2021;" horiz-adv-x="365" 
d="M206 326q18 0 32.5 5.5t27.5 11.5l27 12q13 5 28 5q17 0 27.5 -10.5t10.5 -28.5q0 -21 -14 -33.5t-34 -12.5q-15 0 -27 6l-24 11q-12 6 -25.5 11.5t-31.5 5.5q-2 -14 -0.5 -24.5t4.5 -19.5t5.5 -19t2.5 -22q0 -24 -13 -37.5t-34 -13.5q-19 0 -28.5 12t-9.5 26
q0 13 7.5 24.5t16.5 23.5l19 23q9 12 12 27q-18 0 -32.5 -5.5t-28.5 -11.5l-26 -11q-13 -6 -28 -6q-17 0 -27.5 11t-10.5 29q0 20 14.5 32.5t33.5 12.5q15 0 27 -5l24 -12q12 -6 25.5 -11.5t31.5 -5.5q7 32 -4 49.5t-28 28.5l2 9q24 3 40.5 19t19.5 34q4 17 -5.5 33
t-32.5 20l2 8q22 11 40 28.5t25 49.5q-18 0 -32.5 -5.5t-27.5 -11.5l-27 -11q-13 -6 -27 -6q-17 0 -28 11t-11 29q0 20 14.5 32.5t34.5 12.5q14 0 26 -5l25 -12q12 -6 25.5 -11.5t31.5 -5.5q1 14 -0.5 24.5t-4.5 19.5t-5.5 19t-2.5 22q0 25 13.5 38t33.5 13q19 0 28.5 -12
t9.5 -26q0 -13 -7 -24.5t-16 -22.5l-19 -24q-9 -12 -12 -27q17 0 31.5 5.5t28.5 11.5l27 12q13 5 27 5q17 0 28 -10.5t11 -28.5q0 -21 -14.5 -33.5t-34.5 -12.5q-14 0 -26 6l-24 11q-13 6 -26.5 11.5t-31.5 5.5q-7 -32 4 -49.5t28 -28.5l-2 -8q-23 -4 -40 -20t-20 -33
q-4 -18 5.5 -34t32.5 -19l-2 -9q-21 -11 -39.5 -28.5t-25.5 -49.5z" />
    <glyph glyph-name="bullet" unicode="&#x2022;" horiz-adv-x="337" 
d="M30 304q0 29 11 54.5t30 44.5t44 30t53 11q29 0 54.5 -11t44 -30t29.5 -44.5t11 -54.5t-11 -54t-29.5 -44t-44 -30t-54.5 -11q-28 0 -53 11t-44 30t-30 44t-11 54z" />
    <glyph glyph-name="ellipsis" unicode="&#x2026;" horiz-adv-x="675" 
d="M431 77q0 37 25.5 62t61.5 25t61 -25t25 -62q0 -38 -25 -62.5t-61 -24.5t-61.5 24.5t-25.5 62.5zM211 77q0 37 25 62t61 25q37 0 62 -25t25 -62q0 -38 -25 -62.5t-62 -24.5q-36 0 -61 24.5t-25 62.5zM-10 77q0 37 25.5 62t61.5 25t61.5 -25t25.5 -62q0 -38 -25.5 -62.5
t-61.5 -24.5t-61.5 24.5t-25.5 62.5z" />
    <glyph glyph-name="perthousand" unicode="&#x2030;" horiz-adv-x="1109" 
d="M880 20q22 0 40.5 17t31 44.5t19.5 62t7 70.5t-11 61t-44 25q-23 0 -40.5 -17t-30.5 -44.5t-19.5 -62t-6.5 -70.5t10.5 -61t43.5 -25zM879 -10q-30 0 -56 9.5t-45.5 28t-30.5 45.5t-11 61q0 46 16.5 82.5t43.5 62t60.5 38.5t67.5 13q30 0 56 -9.5t45.5 -28t30.5 -45.5
t11 -61q0 -47 -16.5 -83t-43.5 -61.5t-60.5 -38.5t-67.5 -13zM521 20q22 0 40 17t30.5 44.5t19.5 62t7 70.5t-10.5 61t-44.5 25q-22 0 -40 -17t-30.5 -44.5t-19.5 -62t-7 -70.5t11 -61t44 -25zM112 -10h-49l601 722h48zM519 -10q-30 0 -55.5 9.5t-45 28t-30.5 45.5t-11 61
q0 46 16.5 82.5t43.5 62t60.5 38.5t67.5 13q30 0 55.5 -9.5t45 -28t30.5 -45.5t11 -61q0 -47 -16.5 -83t-43.5 -61.5t-60.5 -38.5t-67.5 -13zM255 682q-22 0 -40 -17t-30.5 -44.5t-19.5 -62t-7 -70.5t11 -61t44 -25q22 0 40 17t30.5 44.5t19.5 62t7 70.5t-10.5 61t-44.5 25z
M257 712q30 0 55.5 -9.5t45 -28t30.5 -45.5t11 -61q0 -47 -16.5 -83t-43.5 -61.5t-60.5 -38.5t-67.5 -13q-30 0 -55.5 9.5t-45 28t-30.5 45.5t-11 61q0 46 16.5 82.5t43.5 62t60.5 38.5t67.5 13z" />
    <glyph glyph-name="guilsinglleft" unicode="&#x2039;" horiz-adv-x="283" 
d="M35 278l232 196h37l-150 -199l64 -199h-37l-147 196z" />
    <glyph glyph-name="guilsinglright" unicode="&#x203a;" horiz-adv-x="283" 
d="M257 272l-232 -196h-37l150 199l-65 199h38l147 -196z" />
    <glyph glyph-name="fraction" unicode="&#x2044;" horiz-adv-x="283" 
d="M439 712h48l-601 -722h-48z" />
    <glyph glyph-name="Euro" unicode="&#x20ac;" horiz-adv-x="649" 
d="M490 712q58 0 105 -16.5t79 -43.5l-29 -155h-37q-1 87 -28 131t-87 44q-39 0 -73 -19.5t-61.5 -52.5t-48.5 -76.5t-35 -90.5h234l-19 -38h-225q-5 -20 -8.5 -39.5t-5.5 -39.5h199l-20 -38h-183v-27q0 -99 27.5 -159t90.5 -60q34 0 61.5 13t51.5 38t46 61.5t43 83.5h42
l-50 -183q-89 -56 -200 -56q-63 0 -111 19.5t-80.5 55t-49.5 86t-17 113.5v15h-82l11 38h74q5 42 16 79h-76l11 38h77q22 58 58 109t82 89t101.5 59.5t116.5 21.5z" />
    <glyph glyph-name="uni2117" unicode="&#x2117;" horiz-adv-x="796" 
d="M395 18q75 0 139 28t111.5 76.5t74.5 114t27 140.5q0 65 -22.5 121t-63.5 97.5t-97.5 65t-123.5 23.5q-75 0 -139 -28t-111.5 -76.5t-74.5 -114t-27 -140.5q0 -65 22.5 -121.5t63.5 -97.5t97 -64.5t124 -23.5zM395 -10q-74 0 -135.5 25.5t-106 70.5t-69.5 106.5
t-25 132.5q0 81 29.5 151.5t80.5 123t120.5 82.5t150.5 30q74 0 135.5 -25.5t106 -70.5t69.5 -106.5t25 -132.5q0 -81 -29.5 -151.5t-80.5 -123t-120.5 -82.5t-150.5 -30zM391 341h27q22 0 42 6t35 18.5t23.5 31.5t8.5 46q0 34 -17 56t-55 22h-23zM385 313l-21 -97
q-5 -23 8 -29.5t47 -7.5l-6 -25h-201l6 25q29 1 40 8t17 31l61 271q5 23 -5.5 29t-34.5 8l6 25h180q70 0 102.5 -29.5t32.5 -76.5q0 -28 -12.5 -52t-36.5 -42t-58 -28t-76 -10h-49z" />
    <glyph glyph-name="trademark" unicode="&#x2122;" horiz-adv-x="882" 
d="M753 669q9 16 13 33h129l-9 -24q-23 -2 -33 -8t-15 -23l-12 -227q-2 -15 6 -20t28 -7l-5 -23h-164l4 23q19 1 29.5 4t16 9.5t7.5 18.5t3 30l8 163l-133 -248h-33l-34 248l-59 -167q-5 -14 -8 -24.5t-1 -18t11.5 -11t28.5 -4.5l-5 -23h-124l5 23q20 2 30.5 7.5t15.5 19.5
l80 227q0 14 -5 21.5t-28 9.5l5 24h120q-1 -17 0 -32l27 -189zM454 702l-16 -106h-26l-7 34q-4 16 -10 26t-15 15.5t-24 5.5h-18l-55 -249q-5 -22 4.5 -27.5t35.5 -7.5l-5 -23h-174l5 23q23 2 35.5 7.5t16.5 24.5l55 252h-18q-31 0 -49.5 -21t-41.5 -60h-27l29 106h305z" />
    <glyph glyph-name="Omega" unicode="&#x2126;" horiz-adv-x="750" 
d="M463 678q-36 0 -67 -17.5t-56 -47t-44 -68t-32 -81t-19.5 -86.5t-6.5 -84q0 -77 18.5 -130.5t41.5 -85.5l-17 -78h-257l13 184h24q11 -33 19.5 -52.5t21 -29t32.5 -12.5t54 -3h71q-25 11 -52.5 34t-51 56.5t-39 77t-15.5 95.5q0 71 28.5 136.5t77.5 115.5t115.5 80
t141.5 30q56 0 101 -17.5t77 -49t49 -76t17 -99.5q0 -64 -24 -122.5t-64.5 -108t-94 -88.5t-112.5 -64h70q34 0 55 3t38.5 12.5t34 29t41.5 52.5h27l-64 -184h-260l16 78q43 39 79 89t62 107t40.5 118t14.5 123q0 34 -5.5 63.5t-17.5 51.5t-32 35t-49 13z" />
    <glyph glyph-name="uni2153" unicode="&#x2153;" horiz-adv-x="800" 
d="M630 223q45 -5 73.5 -30t28.5 -67q0 -34 -15 -59t-39 -42t-54.5 -25.5t-61.5 -8.5q-66 0 -100 25t-34 57q0 20 10.5 32.5t27.5 18.5h55q-5 -11 -7 -22.5t-2 -22.5q0 -25 12.5 -43.5t38.5 -18.5q34 0 54 25.5t20 67.5q0 35 -16 56.5t-48 21.5q-12 0 -28 -3l-4 19
q49 17 80.5 38.5t31.5 55.5q0 20 -12 32t-35 12q-29 0 -51.5 -13.5t-41.5 -33.5l-18 14q23 42 62.5 68t92.5 26q45 0 72 -20t27 -57q0 -23 -10.5 -40t-28 -30t-38.5 -21t-42 -12zM312 712l-69 -326q-3 -16 -2 -25t8 -14.5t21 -7.5t37 -3l-6 -29h-251l6 29q22 1 37 3t24 6.5
t14 13t8 23.5l48 227h-76l5 24l24 5q25 5 45 10.5t37 14t32 20t32 29.5h26zM698 712h49l-602 -722h-48z" />
    <glyph glyph-name="uni2154" unicode="&#x2154;" horiz-adv-x="832" 
d="M264 386q16 0 27.5 2t21.5 7t20 15t23 27h21l-45 -132h-289l4 20q76 60 121.5 101t70 71t32 51.5t7.5 42.5q0 26 -15 41t-43 15q-29 0 -55 -15.5t-43 -35.5l-15 16q11 19 27 37t36 31.5t44.5 21.5t53.5 8q49 0 80 -25t31 -73q0 -35 -17 -62.5t-47 -53t-70 -52.5l-85 -58
h104zM662 223q45 -5 73.5 -30t28.5 -67q0 -34 -15 -59t-39.5 -42t-55 -25.5t-61.5 -8.5q-66 0 -99.5 25t-33.5 57q0 20 10.5 32.5t26.5 18.5h55q-5 -11 -6.5 -22.5t-1.5 -22.5q0 -25 12.5 -43.5t38.5 -18.5q33 0 53.5 25.5t20.5 67.5q0 35 -16.5 56.5t-47.5 21.5
q-13 0 -29 -3l-3 19q48 17 79.5 38.5t31.5 55.5q0 20 -11.5 32t-34.5 12q-29 0 -51.5 -13.5t-41.5 -33.5l-19 14q24 42 63 68t92 26q46 0 72.5 -20t26.5 -57q0 -23 -10.5 -40t-27.5 -30t-38 -21t-42 -12zM730 712h48l-601 -722h-48z" />
    <glyph glyph-name="uni215B" unicode="&#x215b;" horiz-adv-x="840" 
d="M312 712l-69 -326q-3 -16 -2 -25t8 -14.5t21 -7.5t37 -3l-6 -29h-251l6 29q22 1 37 3t24 6.5t14 13t8 23.5l48 227h-76l5 24l24 5q25 5 45 10.5t37 14t32 20t32 29.5h26zM698 712h49l-602 -722h-48zM666 235q23 14 37 33t14 48q0 26 -16.5 43.5t-47.5 17.5t-49 -17
t-18 -45q0 -20 9.5 -32.5t29.5 -23.5zM579 180q-27 -14 -39 -35.5t-12 -46.5q0 -35 21.5 -58t57.5 -23q33 0 55 18t22 50q0 20 -10 33.5t-30 25.5zM788 313q0 -41 -32 -61.5t-76 -24.5q84 -39 84 -109q0 -32 -12.5 -56t-34 -40t-50 -24t-60.5 -8t-60 7.5t-48.5 21
t-32.5 32.5t-12 41t9.5 38.5t25.5 28t36.5 18.5t42.5 10q-25 14 -43 39t-18 59q0 27 11 49t30.5 38t46.5 24.5t58 8.5q63 0 99 -26t36 -66z" />
    <glyph glyph-name="uni215C" unicode="&#x215c;" horiz-adv-x="838" 
d="M701 712h49l-602 -722h-48zM665 235q23 14 37 33t14 48q0 26 -16.5 43.5t-47.5 17.5t-49 -17t-18 -45q0 -20 9 -32.5t29 -23.5zM578 180q-27 -14 -39 -35.5t-12 -46.5q0 -35 21.5 -58t57.5 -23q32 0 54.5 18t22.5 50q0 20 -10 33.5t-30 25.5zM787 313q0 -41 -32 -61.5
t-76 -24.5q84 -39 84 -109q0 -32 -12.5 -56t-34 -40t-50 -24t-60.5 -8t-60 7.5t-49 21t-33 32.5t-12 41t9.5 38.5t25.5 28t36.5 18.5t42.5 10q-24 14 -42 39t-18 59q0 27 11 49t30.5 38t46 24.5t58.5 8.5q63 0 99 -26t36 -66zM256 532q45 -6 73.5 -30.5t28.5 -66.5
q0 -34 -15 -59.5t-39.5 -42t-55 -25t-60.5 -8.5q-67 0 -100.5 25t-33.5 57q0 20 10.5 32t27.5 19h54q-5 -12 -6.5 -23t-1.5 -22q0 -25 12.5 -44t38.5 -19q33 0 53.5 26t20.5 68q0 35 -16 56t-48 21q-7 0 -13.5 -0.5t-15.5 -1.5l-3 19q49 17 80.5 38.5t31.5 55.5
q0 19 -12 31.5t-35 12.5q-29 0 -51.5 -13.5t-41.5 -33.5l-18 14q23 42 62.5 68t92.5 26q45 0 71.5 -20t26.5 -58q0 -23 -10.5 -40t-27.5 -29.5t-38 -20.5t-42 -12z" />
    <glyph glyph-name="uni215D" unicode="&#x215d;" horiz-adv-x="831" 
d="M694 712h48l-601 -722h-48zM657 235q23 14 37 33t14 48q0 26 -16.5 43.5t-47.5 17.5q-30 0 -48.5 -17t-18.5 -45q0 -20 9.5 -32.5t29.5 -23.5zM571 180q-28 -14 -40 -35.5t-12 -46.5q0 -35 21.5 -58t57.5 -23q33 0 55.5 18t22.5 50q0 20 -10.5 33.5t-30.5 25.5zM779 313
q0 -41 -32 -61.5t-76 -24.5q84 -39 84 -109q0 -32 -12.5 -56t-33.5 -40t-49.5 -24t-61.5 -8q-32 0 -60 7.5t-48.5 21t-32.5 32.5t-12 41t9.5 38.5t25.5 28t36.5 18.5t42.5 10q-25 14 -43 39t-18 59q0 27 11 49t30.5 38t46.5 24.5t58 8.5q63 0 99 -26t36 -66zM321 702
q20 0 28 4t19 19h24l-37 -109h-166l-20 -54q81 0 130.5 -30.5t49.5 -93.5q0 -32 -12 -57.5t-33 -43.5t-49.5 -28t-61.5 -10q-66 0 -98.5 21t-32.5 54q0 21 11.5 34.5t25.5 20.5h50q-9 -24 -9 -44q0 -27 14.5 -43.5t42.5 -16.5q33 0 52 21.5t19 56.5q0 48 -41 68.5t-116 20.5
l76 210h134z" />
    <glyph glyph-name="uni215E" unicode="&#x215e;" horiz-adv-x="769" 
d="M632 712h49l-602 -722h-48zM596 235q23 14 37 33t14 48q0 26 -16.5 43.5t-48.5 17.5q-30 0 -48.5 -17t-18.5 -45q0 -20 9.5 -32.5t29.5 -23.5zM509 180q-27 -14 -39 -35.5t-12 -46.5q0 -35 21.5 -58t57.5 -23q32 0 54.5 18t22.5 50q0 20 -10 33.5t-31 25.5zM718 313
q0 -41 -32 -61.5t-76 -24.5q84 -40 84 -109q0 -32 -12.5 -56t-34 -40t-50 -24t-60.5 -8t-60 7.5t-49 21t-33 32.5t-12 41t9.5 38.5t25.5 28t36.5 18.5t42.5 10q-24 14 -42 39t-18 59q0 27 11 49t30.5 38t46 24.5t57.5 8.5q63 0 99.5 -26t36.5 -66zM200 610q-22 0 -38.5 -15
t-34.5 -47h-31l63 154h290l-5 -21l-276 -380h-70l254 309h-152z" />
    <glyph glyph-name="partialdiff" unicode="&#x2202;" horiz-adv-x="561" 
d="M393 394q0 26 -1.5 51.5t-5.5 49.5q-21 9 -43 9q-26 0 -48.5 -17t-41 -45.5t-33.5 -65.5t-25.5 -77t-16 -80.5t-5.5 -75.5q0 -53 15 -85t45 -32q34 0 63.5 36t51 90.5t33.5 119t12 122.5zM332 540q25 0 46 -6q-8 33 -23 63.5t-38 58t-56 52.5t-78 47l18 23
q84 -24 146.5 -67.5t103.5 -99.5t61 -121.5t20 -135.5q0 -74 -21.5 -140t-61 -116t-94.5 -79t-122 -29q-43 0 -79 14.5t-62.5 42.5t-41 67t-14.5 89q0 66 22.5 126.5t62 107.5t93.5 75t118 28z" />
    <glyph glyph-name="Delta" unicode="&#x2206;" horiz-adv-x="663" 
d="M40 44h409l-100 490zM-25 0l7 35l426 667h46l147 -667l-7 -35h-619z" />
    <glyph glyph-name="product" unicode="&#x220f;" horiz-adv-x="771" 
d="M332 662l-161 -755q-4 -21 -4 -33t7 -19t22 -10.5t41 -6.5l-7 -35h-306l7 35q27 3 43.5 6.5t26 10.5t15 19t9.5 33l147 691q4 21 4 33t-6.5 19t-22 10.5t-40.5 6.5l7 35h727l-8 -35q-27 -3 -43.5 -6.5t-26.5 -10.5t-15.5 -19t-9.5 -33l-147 -691q-4 -21 -4 -33t7 -19
t21.5 -10.5t40.5 -6.5l-6 -35h-307l7 35q27 3 43.5 6.5t26.5 10.5t15 19t9 33l161 755h-273z" />
    <glyph glyph-name="summation" unicode="&#x2211;" horiz-adv-x="595" 
d="M270 -80q34 0 58.5 2.5t46 12.5t43.5 30.5t52 57.5h31l-83 -220h-513l7 37l375 391l-190 428l10 43h512l-38 -178h-29q-8 34 -16 60.5t-21 43.5t-33 26t-53 9h-180l159 -358l-3 -9l-364 -376h229z" />
    <glyph glyph-name="minus" unicode="&#x2212;" horiz-adv-x="569" 
d="M86 400h441l-13 -60h-441z" />
    <glyph glyph-name="radical" unicode="&#x221a;" horiz-adv-x="578" 
d="M607 712h49l-420 -712h-61l-42 445q-3 30 -13 41.5t-38 13.5l-25 1l7 37h211l23 -353z" />
    <glyph glyph-name="infinity" unicode="&#x221e;" horiz-adv-x="721" 
d="M331 269q-35 -35 -68.5 -54t-75.5 -19q-28 0 -52 9t-42 26t-28 41.5t-10 56.5q0 39 13.5 71t36.5 55t54.5 36t66.5 13q44 0 73 -20.5t54 -55.5l27 -38l39 40q35 35 68 55t75 20q28 0 52 -9t42 -26t28 -41.5t10 -56.5q0 -39 -13.5 -71t-37 -55.5t-54.5 -36t-66 -12.5
q-44 0 -72.5 19.5t-54.5 56.5l-26 36zM432 306q22 -32 45 -47t53 -15q24 0 44.5 9t36 25.5t24.5 40.5t9 54q0 39 -23.5 62t-55.5 23q-34 0 -58.5 -15.5t-53.5 -44.5l-51 -49zM317 395q-22 30 -45 46t-53 16q-48 0 -80.5 -34t-32.5 -95q0 -39 23 -62t55 -23q35 0 59 14.5
t53 42.5l52 51z" />
    <glyph glyph-name="integral" unicode="&#x222b;" horiz-adv-x="433" 
d="M206 62q-13 -61 -33 -109t-49.5 -81t-69.5 -50.5t-93 -17.5q-45 0 -74.5 19t-29.5 59q0 46 51 61h37q-1 -21 -1 -40.5t3 -34.5t10 -24t20 -9q16 0 26.5 10.5t19.5 33.5t18 59.5t20 89.5l90 425q13 60 33 108t49 81.5t69 51.5t92 18q46 0 75.5 -19.5t29.5 -59.5
q0 -45 -50 -61h-37q1 21 0.5 40.5t-3.5 34.5t-10.5 24.5t-20.5 9.5q-15 0 -25.5 -10.5t-19.5 -33.5t-17 -60l-21 -89z" />
    <glyph glyph-name="approxequal" unicode="&#x2248;" horiz-adv-x="579" 
d="M72 312q38 22 69.5 31t58.5 9q28 0 51.5 -6t45.5 -13t45 -13t51 -6t59.5 8.5t69.5 30.5l-13 -61q-38 -22 -69.5 -30.5t-59.5 -8.5q-29 0 -52 6t-44.5 13t-45 13t-51.5 6q-27 0 -58.5 -9t-68.5 -30zM102 453q38 22 69.5 31.5t58.5 9.5q28 0 51.5 -6.5t45.5 -14t45 -13.5
t51 -6t59.5 9t69.5 32l-13 -61q-38 -23 -69.5 -32t-59.5 -9t-51 6t-45 13.5t-45 14t-52 6.5q-26 0 -58 -9.5t-70 -31.5z" />
    <glyph glyph-name="notequal" unicode="&#x2260;" horiz-adv-x="579" 
d="M106 471h262l100 106h68l-100 -106h111l-12 -58h-154l-81 -86h217l-13 -57h-258l-101 -107h-69l101 107h-114l13 57h155l82 86h-219z" />
    <glyph glyph-name="lessequal" unicode="&#x2264;" horiz-adv-x="439" 
d="M37 197h314l-13 -60h-313zM82 409l350 168l-15 -70l-224 -105l179 -106l-14 -64l-277 168z" />
    <glyph glyph-name="greaterequal" unicode="&#x2265;" horiz-adv-x="439" 
d="M354 137h-314l13 60h313zM410 400l-349 -168l14 70l223 105l-179 106l15 64l277 -168z" />
    <glyph glyph-name="lozenge" unicode="&#x25ca;" horiz-adv-x="556" 
d="M189 0l-135 351l277 351h70l135 -351l-278 -351h-69zM479 356l-117 308l-251 -318l116 -308z" />
    <glyph glyph-name="i.dot" horiz-adv-x="309" 
d="M236 604q-34 0 -54 20.5t-20 49.5q0 32 22 55.5t58 23.5q33 0 53.5 -20.5t20.5 -49.5q0 -32 -22.5 -55.5t-57.5 -23.5zM115 442l-57 35l5 20l193 43h21l-103 -410q-4 -14 -6.5 -25t-2.5 -17q0 -15 14 -15t34 17.5t52 55.5l19 -16q-24 -35 -45.5 -61.5t-42 -44t-41.5 -26
t-45 -8.5q-40 0 -60 23t-20 58q0 18 3 37t9 46z" />
    <glyph glyph-name="space_uni0326" 
d="M216 -153q-36 9 -36 44q0 30 21.5 49t57.5 19q35 0 54 -20t19 -53q0 -25 -9.5 -47.5t-29.5 -39t-51 -26t-74 -9.5l3 29q43 0 68.5 17t30.5 37h-54z" />
    <glyph glyph-name="space_uni0326.alt" 
d="M284 711q36 -9 36 -44q0 -30 -21.5 -49t-57.5 -19q-35 0 -54 20.5t-19 52.5q0 25 9.5 47.5t29.5 39t51 26t74 9.5l-3 -29q-43 0 -68.5 -16.5t-30.5 -37.5h54z" />
    <glyph glyph-name="space_dotbelowcomb" 
d="M247 -185q-34 0 -54 20.5t-20 49.5q0 32 22 55.5t58 23.5q33 0 53.5 -20.5t20.5 -49.5q0 -32 -22.5 -55.5t-57.5 -23.5z" />
    <glyph glyph-name="f_b" horiz-adv-x="894" 
d="M695 446q-26 0 -61 -30.5t-69 -82t-63 -119t-44 -141.5q6 -24 26.5 -35.5t43.5 -11.5q41 0 78.5 33.5t66 85t46 112t17.5 114.5q0 34 -9 54.5t-32 20.5zM468 656q-11 45 -33 67.5t-51 22.5t-50 -17.5t-35 -48.5t-22 -72.5t-11 -90.5h105l-11 -46h-99l-65 -288
q-25 -109 -53 -184.5t-61.5 -123t-73 -68.5t-86.5 -21q-48 0 -79.5 19t-31.5 54q0 32 21 48.5t47 20.5h21q1 -48 12.5 -77.5t33.5 -29.5q13 0 23 9.5t20 34.5t20 69t24 114l81 423h-74l7 32l77 18q13 54 37 102t57.5 83.5t76.5 56t94 20.5q31 0 60 -8.5t49 -25.5l115 34h20
l-121 -494q22 47 51.5 92t62.5 80.5t68.5 57t70.5 21.5q54 0 82.5 -39.5t28.5 -111.5q0 -80 -28.5 -152t-76 -127t-108.5 -87.5t-125 -32.5q-33 0 -66 8.5t-60.5 24t-48.5 38t-31 50.5z" />
    <glyph glyph-name="f_f_b" horiz-adv-x="1200" 
d="M429 519q14 60 41 110q-5 41 -26 70.5t-57 29.5q-24 0 -44.5 -15.5t-36 -43.5t-25.5 -67t-14 -86h161zM1000 446q-26 0 -61 -30.5t-69 -82t-63 -119t-44 -141.5q6 -24 27 -35.5t44 -11.5q41 0 78.5 33.5t66 85t45.5 112t17 114.5q0 34 -9 54.5t-32 20.5zM566 471
l-61 -266q-26 -112 -55.5 -189t-63.5 -125t-73 -69.5t-84 -21.5q-41 0 -67.5 17t-26.5 52q0 30 19.5 45t44.5 20h15q-1 -47 8.5 -73t28.5 -26q13 0 24 9.5t21 35t20.5 69.5t23.5 113l79 409h-159l-60 -262q-27 -119 -57.5 -199.5t-65 -130.5t-73 -71.5t-83.5 -21.5
q-48 0 -79 19t-31 54q0 32 20.5 48.5t46.5 20.5h21q1 -48 12.5 -77.5t34.5 -29.5q13 0 23 9.5t19.5 34.5t20 69t24.5 114l81 423h-75l8 32l77 19q13 54 38 98.5t59.5 77t77 50.5t91.5 18q48 0 83.5 -15t55.5 -40q33 33 74 52.5t91 19.5q32 0 60.5 -8.5t48.5 -25.5l115 34h21
l-122 -494q22 47 51.5 92t63 80.5t69 57t70.5 21.5q54 0 82 -39.5t28 -111.5q0 -80 -28.5 -152t-76 -127t-108.5 -87.5t-125 -32.5q-33 0 -66 8.5t-60.5 24t-48.5 38t-31 50.5l136 545q-11 45 -33 67.5t-51 22.5t-49.5 -18t-35 -49t-22 -72.5t-9.5 -89.5h103l-12 -46h-98z
" />
    <glyph glyph-name="f_h" horiz-adv-x="898" 
d="M468 656q-11 45 -33 67.5t-51 22.5t-50 -17.5t-35 -48.5t-22 -72.5t-11 -90.5h105l-11 -46h-99l-65 -288q-25 -109 -53 -184.5t-61.5 -123t-73 -68.5t-86.5 -21q-48 0 -79.5 19t-31.5 54q0 32 21 48.5t47 20.5h21q1 -48 12.5 -77.5t33.5 -29.5q13 0 23 9.5t20 34.5t20 69
t24 114l81 423h-74l7 32l77 18q13 54 37 102t57.5 83.5t76.5 56t94 20.5q31 0 60 -8.5t49 -25.5l115 34h20l-122 -489q25 48 57 92.5t67 78.5t72.5 54.5t73.5 20.5q38 0 55 -21t17 -57q0 -10 -1.5 -23t-5.5 -27l-76 -282q-8 -29 -8 -42q0 -15 14 -15t34 17.5t51 55.5l20 -16
q-25 -35 -46.5 -61.5t-42 -44t-41.5 -26t-45 -8.5q-39 0 -60.5 23t-21.5 58q0 18 3.5 37.5t11.5 46.5l67 241l4 18q2 8 2 14q0 20 -17 20q-20 0 -50.5 -24t-62.5 -66t-60.5 -98t-44.5 -120l-36 -140h-136z" />
    <glyph glyph-name="f_f_h" horiz-adv-x="1203" 
d="M387 729q-24 0 -44.5 -15.5t-36 -43.5t-25.5 -67t-14 -86h161l1 2q14 60 41 110q-5 41 -26 70.5t-57 29.5zM773 656q-11 45 -33 67.5t-51 22.5t-49.5 -18t-35 -49t-22 -72.5t-9.5 -89.5h103l-12 -46h-99l-60 -266q-26 -112 -55.5 -189t-63.5 -125t-73 -69.5t-84 -21.5
q-41 0 -67.5 17t-26.5 52q0 30 19.5 45t44.5 20h15q-1 -47 8.5 -73t28.5 -26q13 0 24 9.5t21 35t20.5 69.5t23.5 113l79 409h-159l-60 -262q-27 -119 -57.5 -199.5t-65 -130.5t-73 -71.5t-83.5 -21.5q-48 0 -79 19t-31 54q0 32 20.5 48.5t46.5 20.5h21q1 -48 12.5 -77.5
t34.5 -29.5q13 0 23 9.5t19.5 34.5t20 69t24.5 114l81 423h-75l8 32l77 19q13 54 38 98.5t59.5 77t77 50.5t91.5 18q48 0 83.5 -15t55.5 -40q33 33 74 52.5t91 19.5q32 0 60.5 -8.5t48.5 -25.5l115 34h21l-123 -489q25 48 57 92.5t67 78.5t72.5 54.5t73.5 20.5
q38 0 55.5 -21t17.5 -57q0 -20 -8 -50l-76 -282q-8 -29 -8 -42q0 -15 14 -15t34 17.5t51 55.5l20 -16q-25 -35 -46.5 -61.5t-42 -44t-41.5 -26t-45 -8.5q-39 0 -60.5 23t-21.5 58q0 18 3.5 37.5t11.5 46.5l68 241q5 20 5 32q0 20 -17 20q-20 0 -50.5 -24t-62.5 -66
t-60.5 -98t-44.5 -120l-36 -140h-136z" />
    <glyph glyph-name="f_idieresis" horiz-adv-x="608" 
d="M619 604q-32 0 -51 20t-19 49q0 31 21.5 53.5t54.5 22.5q32 0 50.5 -20t18.5 -48q0 -31 -21 -54t-54 -23zM555 540h21l-103 -410q-4 -14 -6.5 -25t-2.5 -17q0 -15 14 -15t34.5 17.5t51.5 55.5l19 -16q-24 -35 -45.5 -61.5t-42 -44t-41.5 -26t-45 -8.5q-39 0 -59.5 23
t-20.5 58q0 18 2.5 37t10.5 46l80 317h-162l-65 -288q-24 -109 -52.5 -184.5t-62 -123t-73 -68.5t-86.5 -21q-48 0 -79 19t-31 54q0 32 20.5 48.5t46.5 20.5h21q1 -48 12.5 -77.5t34.5 -29.5q13 0 23 9.5t19.5 34.5t20 69t24.5 114l81 423h-75l8 32l76 19q12 53 33 100.5
t52 83t72 56.5t94 21q61 0 98.5 -27t37.5 -75q0 -30 -18 -52t-53 -28h-52q6 24 8 49.5t-2 47t-14.5 35t-29.5 13.5q-22 0 -37 -18.5t-24.5 -50t-14.5 -73t-7 -87.5h183z" />
    <glyph glyph-name="f_f_idieresis" horiz-adv-x="914" 
d="M925 604q-32 0 -50.5 20t-18.5 49q0 31 21 53.5t54 22.5q32 0 50.5 -20t18.5 -48q0 -31 -21 -54t-54 -23zM387 729q-24 0 -44.5 -15.5t-36 -43.5t-25.5 -67t-14 -86h161l1 2q7 32 17 61.5t23 56.5q-7 38 -27 65t-55 27zM565 471l-60 -266q-26 -112 -55.5 -189t-63.5 -125
t-73 -69.5t-84 -21.5q-41 0 -67.5 17t-26.5 52q0 30 19.5 45t44.5 20h15q-1 -47 8.5 -73t28.5 -26q13 0 24 9.5t21 35t20.5 69.5t23.5 113l79 409h-159l-60 -262q-27 -119 -57.5 -199.5t-65 -130.5t-73 -71.5t-83.5 -21.5q-48 0 -79 19t-31 54q0 32 20.5 48.5t46.5 20.5h21
q1 -48 12.5 -77.5t34.5 -29.5q13 0 23 9.5t19.5 34.5t20 69t24.5 114l81 423h-75l8 32l77 19q13 54 38 98.5t59.5 77t77 50.5t91.5 18q45 0 79 -13.5t55 -36.5q30 31 68.5 49t87.5 18q61 0 98.5 -27t37.5 -75q0 -30 -18 -52t-53 -28h-52q6 24 8 49.5t-2 47t-14.5 35
t-29.5 13.5q-22 0 -37 -18.5t-24.5 -50t-14.5 -73t-7 -87.5h183l106 23h21l-103 -410q-4 -14 -6.5 -25t-2.5 -17q0 -15 14 -15t34 17.5t51 55.5l20 -16q-25 -35 -46.5 -61.5t-42 -44t-41.5 -26t-45 -8.5q-39 0 -59 23t-20 58q0 18 2.5 37t9.5 46l80 317h-162z" />
    <glyph glyph-name="f_j" horiz-adv-x="577" 
d="M260 471l-60 -262q-27 -119 -57.5 -199.5t-65 -130.5t-73 -71.5t-83.5 -21.5q-48 0 -79 19t-31 54q0 32 20.5 48.5t46.5 20.5h21q1 -48 12.5 -77.5t34.5 -29.5q13 0 23 9.5t19.5 34.5t20 69t24.5 114l81 423h-75l8 32l77 19q14 57 39.5 105t62 82.5t83 54t101.5 19.5
q28 0 53.5 -5.5t44.5 -16.5t30 -27t11 -37q0 -26 -15.5 -43t-44.5 -24h-55q4 22 4 42.5t-5 37t-16.5 26.5t-29.5 10q-25 0 -45 -17t-35.5 -47t-25.5 -72t-14 -93h182l106 23h21l-76 -343q-24 -109 -54 -185t-65 -123t-75 -68.5t-83 -21.5q-39 0 -67 17.5t-28 51.5
q0 30 20 45.5t44 19.5h15q-1 -45 7.5 -71.5t30.5 -26.5q12 0 21 9t17.5 30t17.5 55.5t20 84.5l101 457h-162z" />
    <glyph glyph-name="f_f_j" horiz-adv-x="882" 
d="M387 729q-24 0 -44.5 -15.5t-36 -43.5t-25.5 -67t-14 -86h161l1 2q13 59 41 110q-5 40 -26 70t-57 30zM565 471l-60 -266q-26 -112 -55.5 -189t-63.5 -125t-73 -69.5t-84 -21.5q-41 0 -67.5 17t-26.5 52q0 30 19.5 45t44.5 20h15q-1 -47 8.5 -73t28.5 -26q13 0 24 9.5
t21 35t20.5 69.5t23.5 113l79 409h-159l-60 -262q-27 -119 -57.5 -199.5t-65 -130.5t-73 -71.5t-83.5 -21.5q-48 0 -79 19t-31 54q0 32 20.5 48.5t46.5 20.5h21q1 -48 12.5 -77.5t34.5 -29.5q13 0 23 9.5t19.5 34.5t20 69t24.5 114l81 423h-75l8 32l77 19q13 54 38 98.5
t59.5 77t77 50.5t91.5 18q48 0 84.5 -15.5t56.5 -41.5q36 35 82.5 54.5t102.5 19.5q28 0 53.5 -5.5t44.5 -16.5t30 -27t11 -37q0 -53 -61 -67h-54q4 22 4 42.5t-5.5 37t-16.5 26.5t-29 10q-25 0 -45 -17t-35.5 -47t-25.5 -72t-14 -93h181l106 23h21l-76 -343
q-24 -109 -54 -185t-65 -123t-75 -68.5t-83 -21.5q-38 0 -66.5 17.5t-28.5 51.5q0 30 20 45.5t44 19.5h15q-1 -45 7.5 -71.5t30.5 -26.5q12 0 21 9t17.5 30t17.5 55.5t20 84.5l101 457h-162z" />
    <glyph glyph-name="f_k" horiz-adv-x="865" 
d="M712 136q12 -28 20.5 -44t24.5 -16t31.5 15.5t40.5 45.5l19 -16q-22 -33 -41 -57.5t-38 -41t-38.5 -24.5t-41.5 -8q-41 0 -62 26.5t-38 73.5l-66 189l175 198q28 32 52 47.5t53 15.5q36 0 54 -21.5t18 -49.5q0 -30 -18 -50.5t-50 -32.5h-9q2 26 -9.5 45.5t-37.5 19.5
q-23 0 -39 -12.5t-38 -36.5l-48 -53zM261 471l-65 -288q-25 -109 -53 -184.5t-61.5 -123t-73 -68.5t-86.5 -21q-48 0 -79.5 19t-31.5 54q0 32 21 48.5t47 20.5h21q1 -48 12.5 -77.5t33.5 -29.5q13 0 23 9.5t20 34.5t20 69t24 114l81 423h-74l7 32l77 18q13 54 37 102
t57.5 83.5t76.5 56t94 20.5q31 0 60 -8.5t49 -25.5l115 34h20l-192 -783h-137l164 656q-11 45 -33 67.5t-51 22.5t-50 -17.5t-35 -48.5t-22 -72.5t-11 -90.5h105l-11 -46h-99z" />
    <glyph glyph-name="f_f_k" horiz-adv-x="1170" 
d="M429 519q14 60 41 110q-5 41 -26 70.5t-57 29.5q-24 0 -44.5 -15.5t-36 -43.5t-25.5 -67t-14 -86h161zM1018 136q11 -28 19.5 -44t24.5 -16t32 15.5t40 45.5l19 -16q-22 -33 -41 -57.5t-38 -41t-38.5 -24.5t-41.5 -8q-40 0 -61.5 26.5t-38.5 73.5l-65 189l174 198
q28 32 52 47.5t53 15.5q37 0 54.5 -21.5t17.5 -49.5q0 -30 -18 -50.5t-50 -32.5h-9q2 26 -9.5 45.5t-37.5 19.5q-23 0 -39 -12.5t-38 -36.5l-48 -53zM566 471l-61 -266q-26 -112 -55.5 -189t-63.5 -125t-73 -69.5t-84 -21.5q-41 0 -67.5 17t-26.5 52q0 30 19.5 45t44.5 20
h15q-1 -47 8.5 -73t28.5 -26q13 0 24 9.5t21 35t20.5 69.5t23.5 113l79 409h-159l-60 -262q-27 -119 -57.5 -199.5t-65 -130.5t-73 -71.5t-83.5 -21.5q-48 0 -79 19t-31 54q0 32 20.5 48.5t46.5 20.5h21q1 -48 12.5 -77.5t34.5 -29.5q13 0 23 9.5t19.5 34.5t20 69t24.5 114
l81 423h-75l8 32l77 19q13 54 38 98.5t59.5 77t77 50.5t91.5 18q48 0 83.5 -15t55.5 -40q33 33 74 52.5t91 19.5q32 0 60.5 -8.5t48.5 -25.5l115 34h21l-193 -783h-137l164 656q-11 45 -33 67.5t-51 22.5t-49.5 -18t-35 -49t-22 -72.5t-9.5 -89.5h103l-12 -46h-98z" />
    <glyph glyph-name="caron.Slovak" 
d="M186 578h-27l61 205h120l-2 -8z" />
    <glyph glyph-name="cedilla.alt" 
d="M248 -44q100 -5 100 -74q0 -27 -14.5 -47.5t-40 -34t-60.5 -20t-75 -6.5l-7 31q58 0 90 15t32 38q0 20 -22 27.5t-61 9.5l32 61h26z" />
    <glyph glyph-name="grave.cap" 
d="M298 896l36 -149h-35l-138 142v7h137z" />
    <glyph glyph-name="acute.cap" 
d="M365 896v-7l-185 -142h-35l74 149h146z" />
    <glyph glyph-name="circumflex.cap" 
d="M412 747h-40l-99 82l-140 -82h-45l150 156h97z" />
    <glyph glyph-name="tilde.cap" 
d="M301 749q-21 0 -37.5 9t-31 19.5t-29 19.5t-30.5 9q-21 0 -37.5 -14t-35.5 -42l-25 15q33 65 59.5 94.5t64.5 29.5q21 0 37.5 -9t30.5 -20t28 -20t31 -9q22 0 38.5 14.5t34.5 42.5l26 -16q-17 -32 -31 -55.5t-28.5 -38.5t-30 -22t-34.5 -7z" />
    <glyph glyph-name="macron.cap" 
d="M116 830h281l-14 -68h-281z" />
    <glyph glyph-name="breve.cap" 
d="M220 744q-61 0 -92 38t-14 118h37q-2 -23 3 -38.5t16.5 -24.5t27.5 -13t36 -4q40 0 71.5 16.5t47.5 63.5h39q-18 -80 -62.5 -118t-109.5 -38z" />
    <glyph glyph-name="dotaccent.cap" 
d="M247 750q-34 0 -54 21t-20 50q0 32 22 55.5t58 23.5q33 0 53.5 -21t20.5 -50q0 -32 -22.5 -55.5t-57.5 -23.5z" />
    <glyph glyph-name="dieresis.cap" 
d="M345 749q-32 0 -51 20t-19 49q0 31 21 53.5t54 22.5q32 0 51 -19.5t19 -48.5q0 -31 -21 -54t-54 -23zM149 749q-32 0 -51 20t-19 49q0 31 21.5 53.5t54.5 22.5q32 0 51 -19.5t19 -48.5q0 -31 -21.5 -54t-54.5 -23z" />
    <glyph glyph-name="ring.cap" 
d="M155 816q0 43 28.5 72.5t71.5 29.5q42 0 66 -24t24 -62q0 -43 -28.5 -72.5t-71.5 -29.5q-42 0 -66 24t-24 62zM302 831q0 22 -12.5 34.5t-35.5 12.5q-28 0 -42 -18t-14 -43q0 -22 12.5 -34.5t35.5 -12.5q28 0 42 18t14 43z" />
    <glyph glyph-name="hungarumlaut.cap" 
d="M440 896l-1 -7l-170 -142h-36l78 149h129zM278 896l-1 -7l-170 -142h-36l78 149h129z" />
    <glyph glyph-name="caron.cap" 
d="M88 903h40l99 -82l140 82h45l-150 -156h-97z" />
    <glyph glyph-name="exclamdown.cap" horiz-adv-x="266" 
d="M307 629q0 -18 -6.5 -33.5t-18 -27t-26.5 -18t-32 -6.5t-32.5 6.5t-26.5 18t-17.5 27t-6.5 33.5q0 34 24 58.5t59 24.5q34 0 58.5 -24.5t24.5 -58.5zM179 483h37l-46 -483h-182z" />
    <glyph glyph-name="questiondown.cap" horiz-adv-x="456" 
d="M398 629q0 -18 -6.5 -33.5t-17.5 -27t-26 -18t-32 -6.5t-32.5 6.5t-26.5 18t-17.5 27t-6.5 33.5q0 34 24 58.5t59 24.5q34 0 58 -24.5t24 -58.5zM221 244q-24 -14 -44 -28t-35 -30t-23 -36t-8 -46q0 -37 20.5 -60t58.5 -23q42 0 64.5 29.5t22.5 77.5q0 17 -1.5 27.5
t-3.5 19.5h97q11 -9 18 -23.5t7 -33.5q0 -30 -15 -54t-42 -40.5t-63 -25t-78 -8.5q-95 0 -147 44t-52 116q0 36 11 63t31 48.5t47 39.5t60 35q26 13 48.5 26.5t39 28.5t25.5 32t9 38q0 8 -2 15t-4 15h22q25 -16 40 -41t15 -57q0 -48 -29 -81.5t-89 -67.5z" />
    <glyph glyph-name="guilsinglleft.cap" horiz-adv-x="283" 
d="M52 359l231 196h38l-151 -199l65 -200h-38l-146 197z" />
    <glyph glyph-name="guilsinglright.cap" horiz-adv-x="283" 
d="M273 353l-232 -197h-37l151 200l-65 199h37l147 -196z" />
    <glyph glyph-name="guillemotleft.cap" horiz-adv-x="454" 
d="M222 359l232 196h37l-151 -199l65 -200h-37l-147 197zM52 359l231 196h38l-151 -199l65 -200h-38l-146 197z" />
    <glyph glyph-name="guillemotright.cap" horiz-adv-x="454" 
d="M273 353l-232 -197h-37l151 200l-65 199h37l147 -196zM443 353l-231 -197h-38l151 200l-65 199h38l146 -196z" />
    <glyph glyph-name="slash.cap" horiz-adv-x="368" 
d="M-2 -101h-60l460 871h61z" />
    <glyph glyph-name="backslash.cap" horiz-adv-x="368" 
d="M135 770h56l90 -871h-56z" />
    <glyph glyph-name="bar.cap" horiz-adv-x="211" 
d="M62 -101h-56l185 871h56z" />
    <glyph glyph-name="brokenbar.cap" horiz-adv-x="211" 
d="M62 -101h-56l79 371h56zM168 399h-56l79 371h56z" />
    <glyph glyph-name="periodcentered.cap" horiz-adv-x="235" 
d="M47 355q0 38 25 63t62 25t62.5 -25t25.5 -63t-25.5 -62.5t-62.5 -24.5t-62 24.5t-25 62.5z" />
    <glyph glyph-name="bullet.cap" horiz-adv-x="337" 
d="M47 356q0 29 11 54.5t29.5 44.5t43.5 30t54 11q28 0 53.5 -11t44 -30t29.5 -44.5t11 -54.5t-11 -54t-29.5 -44.5t-44 -30.5t-53.5 -11q-29 0 -54 11t-43.5 30.5t-29.5 44.5t-11 54z" />
    <glyph glyph-name="hyphen.cap" horiz-adv-x="320" 
d="M39 325l14 62h260l-14 -62h-260z" />
    <glyph glyph-name="endash.cap" horiz-adv-x="540" 
d="M39 329l12 49h480l-12 -49h-480z" />
    <glyph glyph-name="emdash.cap" horiz-adv-x="960" 
d="M939 329h-900l12 49h900z" />
    <glyph glyph-name="parenleft.cap" horiz-adv-x="355" 
d="M70 226q0 81 25.5 157.5t70.5 146t105.5 130t129.5 110.5h47q-72 -62 -124 -137t-85 -152.5t-49 -153.5t-16 -141q0 -82 17.5 -153.5t62.5 -134.5h-47q-68 69 -102.5 152.5t-34.5 175.5z" />
    <glyph glyph-name="parenright.cap" horiz-adv-x="355" 
d="M311 441q0 -81 -25.5 -157.5t-70.5 -145.5t-105.5 -129.5t-130.5 -110.5h-47q72 62 124 137t85.5 152.5t49.5 153.5t16 141q0 82 -18 153.5t-63 134.5h48q67 -69 102 -153t35 -176z" />
    <glyph glyph-name="bracketleft.cap" horiz-adv-x="325" 
d="M133 -8q-4 -20 -0.5 -31t15 -17t31.5 -8t50 -4l-7 -33h-201l185 871h201l-7 -33q-30 -2 -51.5 -4t-35.5 -8t-22.5 -17.5t-12.5 -30.5z" />
    <glyph glyph-name="bracketright.cap" horiz-adv-x="325" 
d="M233 677q4 19 0.5 30.5t-15 17.5t-31.5 8t-50 4l7 33h201l-185 -871h-201l6 33q30 2 51.5 4t35.5 8t22.5 17t12.5 31z" />
    <glyph glyph-name="braceleft.cap" horiz-adv-x="354" 
d="M79 342q38 8 66 30t39 70l42 200q13 60 67 94t145 34l-4 -25q-42 -5 -70.5 -26t-39.5 -72l-42 -196q-12 -54 -46 -78.5t-89 -37.5q25 -7 43.5 -15.5t30 -22t15 -33t-2.5 -46.5l-42 -195q-11 -50 8.5 -72t58.5 -26l-5 -25q-91 0 -131 34t-27 94l43 199q5 24 2.5 41t-11 29
t-22.5 19t-31 11z" />
    <glyph glyph-name="braceright.cap" horiz-adv-x="359" 
d="M320 328q-38 -8 -65.5 -30t-38.5 -70l-43 -200q-13 -60 -66.5 -94t-145.5 -34l5 25q42 5 70 26t39 72l43 196q11 54 45 78.5t89 37.5q-24 7 -42.5 15.5t-30 22t-15 33t2.5 46.5l42 195q10 50 -9.5 71.5t-58.5 26.5l5 25q92 0 131.5 -34t26.5 -94l-43 -199
q-10 -48 8.5 -70t53.5 -30z" />
    <glyph glyph-name="at.cap" horiz-adv-x="867" 
d="M381 205q22 0 47 23t49 62t44.5 91t35.5 111q-8 17 -24 25.5t-33 8.5q-33 0 -61.5 -25.5t-49.5 -63.5t-33 -83.5t-12 -85.5q0 -28 9.5 -45.5t27.5 -17.5zM611 135q-39 0 -63 13t-35.5 36.5t-12 54.5t7.5 67q-35 -77 -77.5 -124t-95.5 -47q-43 0 -70.5 33t-27.5 94
q0 53 21 106t56.5 95t82.5 68t98 26q31 0 54 -11t37 -27l72 35h27l-32 -89l-61 -199q-5 -19 -7 -36.5t1 -31.5t11.5 -22.5t25.5 -8.5q35 0 64 22t49.5 58.5t31.5 85t11 101.5q0 59 -18 110t-53 89t-86.5 60t-119.5 22q-85 0 -153.5 -34.5t-116.5 -93t-74 -134.5t-26 -159
q0 -76 24 -135t66.5 -99.5t101.5 -61.5t128 -21q42 0 77.5 4.5t68 13.5t63 23t63.5 33l11 -17q-54 -45 -130 -73t-167 -28q-83 0 -153.5 24t-121.5 70t-80 113t-29 153q0 90 33 172.5t92.5 145.5t141.5 100.5t181 37.5q83 0 148 -24t110 -66t69 -100t24 -125
q0 -65 -20 -119.5t-53 -94.5t-77 -62.5t-92 -22.5z" />
  </font>
</defs>
</svg>
