<?xml version="1.0" standalone="no"?>
<!DOCTYPE svg PUBLIC "-//W3C//DTD SVG 1.1//EN" "http://www.w3.org/Graphics/SVG/1.1/DTD/svg11.dtd" >
<svg xmlns="http://www.w3.org/2000/svg" xmlns:xlink="http://www.w3.org/1999/xlink" version="1.1">
<metadata>
Created by FontForge 20150318 at Tue Sep 22 09:00:11 2015
 By uniteet7
Copyright (c) 2013 Klim Type Foundry. All rights reserved.
</metadata>
<defs>
<font id="TiemposHeadlineWebRegularItalic" horiz-adv-x="500" >
  <font-face 
    font-family="TiemposHeadlineWebRegularItalic"
    font-weight="400"
    font-style="italic"
    font-stretch="normal"
    units-per-em="1000"
    panose-1="2 2 5 3 6 3 3 13 4 3"
    ascent="800"
    descent="-200"
    x-height="534"
    cap-height="702"
    bbox="-191 -231 1134 1036"
    underline-thickness="30"
    underline-position="-85"
    slope="-12"
    unicode-range="U+000D-FB04"
  />
<missing-glyph horiz-adv-x="960" 
d="M90 0v780h780v-780h-780zM201 714l279 -279l279 279h-558zM525 390l275 -275v550zM435 390l-275 275v-550zM480 345l-279 -279h558z" />
    <glyph glyph-name="ff" unicode="ff" horiz-adv-x="596" 
d="M373 731q-51 0 -86 -56.5t-47 -161.5h183q6 32 17 63.5t25 59.5q-10 42 -32.5 68.5t-59.5 26.5zM415 471h-181l-67 -294q-25 -108 -51.5 -181.5t-57 -119.5t-66.5 -66t-79 -20q-42 0 -70 18t-28 49q0 29 19 44t42 19h14q2 -45 17 -71.5t37 -26.5q14 0 25 8t22 33.5
t22.5 73.5t26.5 127l76 407h-77l7 28l78 18q13 55 38 100.5t59 78t75.5 50.5t86.5 18q46 0 78.5 -13.5t54.5 -37.5q29 32 65 51t78 19q49 0 78 -21t29 -57q0 -23 -15.5 -40.5t-41.5 -23.5h-27q1 22 -1 42t-8 35t-16.5 24t-25.5 9q-16 0 -30.5 -18t-26.5 -49.5t-21.5 -75
t-15.5 -95.5h115l-10 -42h-110l-66 -286q-24 -106 -50 -178.5t-56.5 -117.5t-66.5 -64.5t-79 -19.5q-39 0 -62 17t-23 49q0 28 18.5 42.5t40.5 18.5h12q0 -45 10.5 -70t29.5 -25q15 0 27 8.5t23.5 34.5t23 73.5t26.5 125.5z" />
    <glyph glyph-name="fi" unicode="fi" horiz-adv-x="577" 
d="M435 513l90 21h15l-103 -412q-4 -14 -6.5 -25.5t-2.5 -17.5q0 -15 14 -15q15 0 34.5 17t53.5 57l17 -13q-24 -35 -44.5 -60.5t-39 -42t-37 -24.5t-38.5 -8q-33 0 -50.5 20.5t-17.5 53.5q0 18 2.5 37t10.5 48l82 322h-181l-69 -306q-24 -104 -49.5 -175.5t-55.5 -115.5
t-66 -64t-81 -20q-42 0 -70 18t-28 49q0 29 19 44t42 19h14q2 -45 17 -71.5t37 -26.5q14 0 25 8t22 33.5t22.5 73.5t26.5 127l76 407h-77l7 28l78 18q14 57 38.5 105.5t59 84.5t77.5 56t94 20q56 0 90 -21t34 -58q0 -26 -16.5 -42.5t-46.5 -22.5h-31q6 45 -7 77.5t-48 32.5
q-52 0 -84 -63t-44 -173h195z" />
    <glyph glyph-name="fl" unicode="fl" horiz-adv-x="577" 
d="M346 471h-111l-70 -306q-24 -104 -49.5 -175.5t-55.5 -115.5t-66 -64t-81 -20q-43 0 -70 18t-27 49q0 29 18.5 44t41.5 19h15q2 -45 16 -71.5t37 -26.5q14 0 25 8t22 33.5t22.5 73.5t26.5 127l75 407h-76l7 28l79 18q13 55 36.5 103.5t56.5 84.5t74.5 57t89.5 21
q30 0 59.5 -9.5t48.5 -24.5l95 34h15l-162 -661q-4 -14 -6.5 -25.5t-2.5 -17.5q0 -15 14 -15t35 17t53 57l17 -13q-48 -71 -83 -103t-76 -32q-33 0 -50.5 20.5t-17.5 53.5q0 19 3.5 37.5t9.5 47.5l129 520q-11 37 -33.5 58.5t-53.5 21.5q-62 0 -94 -63.5t-42 -172.5h116z
" />
    <glyph glyph-name="ffi" unicode="ffi" horiz-adv-x="875" 
d="M373 731q-51 0 -86 -56.5t-47 -161.5h182l1 2q8 32 18.5 61.5t24.5 55.5q-10 43 -32.5 71t-60.5 28zM713 471h-180l-67 -286q-24 -106 -50.5 -178.5t-57 -117.5t-66 -64.5t-78.5 -19.5q-39 0 -62 17t-23 49q0 28 18.5 42.5t40.5 18.5h12q0 -45 10.5 -70t29.5 -25
q15 0 27 8.5t23.5 34.5t23 73.5t26.5 125.5l74 392h-180l-67 -294q-25 -108 -51.5 -181.5t-57 -119.5t-66.5 -66t-79 -20q-42 0 -70 18t-28 49q0 29 19 44t42 19h14q2 -45 17 -71.5t37 -26.5q14 0 25 8t22 33.5t22.5 73.5t26.5 127l76 407h-77l7 28l78 18q13 55 38 100.5
t59 78t75.5 50.5t86.5 18q48 0 82.5 -15.5t54.5 -41.5q34 36 78 56t94 20q56 0 90 -21t34 -58q0 -26 -16.5 -42.5t-46.5 -22.5h-31q6 45 -7.5 77.5t-48.5 32.5q-53 0 -84 -63t-43 -173h194l91 21h15l-104 -412q-8 -29 -8 -43q0 -15 14 -15t34.5 17t52.5 57l18 -13
q-25 -36 -45.5 -61.5t-38.5 -42t-36 -24t-39 -7.5q-33 0 -51 20.5t-18 53.5q0 17 3 36.5t11 48.5z" />
    <glyph glyph-name="ffl" unicode="ffl" horiz-adv-x="876" 
d="M423 515q8 32 18.5 62t24.5 56q-10 43 -32.5 70.5t-60.5 27.5q-51 0 -86 -56.5t-47 -161.5h182zM644 471h-111l-67 -286q-24 -106 -50.5 -178.5t-57 -117.5t-66 -64.5t-78.5 -19.5q-39 0 -62 17t-23 49q0 28 18.5 42.5t40.5 18.5h12q0 -45 10.5 -70t29.5 -25q15 0 27 8.5
t23.5 34.5t23 73.5t26.5 125.5l74 392h-180l-67 -294q-25 -108 -51.5 -181.5t-57 -119.5t-66.5 -66t-79 -20q-42 0 -70 18t-28 49q0 29 19 44t42 19h14q2 -45 17 -71.5t37 -26.5q14 0 25 8t22 33.5t22.5 73.5t26.5 127l76 407h-77l7 28l78 18q13 55 38 100.5t59 78
t75.5 50.5t86.5 18q46 0 81.5 -15t55.5 -41q32 35 73 55t88 20q30 0 58.5 -9.5t48.5 -24.5l95 34h15l-162 -661q-4 -17 -4.5 -18.5t-1.5 -7.5q-1 -5 -1.5 -9.5t-0.5 -7.5q0 -15 14 -15t34.5 17t52.5 57l18 -13q-25 -36 -45.5 -61.5t-38.5 -42t-36 -24t-39 -7.5
q-33 0 -51 20.5t-18 53.5q0 17 3 35.5t11 49.5l129 520q-11 37 -34 58.5t-53 21.5q-32 0 -55 -16.5t-39.5 -47.5t-26.5 -74.5t-15 -97.5h115z" />
    <glyph glyph-name="f_b" unicode="fb" horiz-adv-x="854" 
d="M676 458q-28 1 -65.5 -29.5t-75 -83t-68.5 -123t-45 -149.5q8 -26 31 -38t49 -12q28 -1 55.5 14t52 41.5t45.5 62t36.5 74.5t23.5 80t8 79t-10.5 61t-36.5 23zM463 669q-11 37 -33.5 58.5t-53.5 21.5q-62 0 -94 -63.5t-42 -172.5h116l-10 -42h-111l-70 -306
q-24 -104 -49.5 -175.5t-55.5 -115.5t-66 -64t-81 -20q-43 0 -70 18t-27 49q0 29 18.5 44t41.5 19h15q2 -45 16 -71.5t37 -26.5q14 0 25 8t22 33.5t22.5 73.5t26.5 127l75 407h-76l7 28l79 18q13 55 36.5 103.5t56.5 84.5t74.5 57t89.5 21q30 0 59.5 -9.5t48.5 -24.5l95 34
h15l-125 -499q22 48 52 93t64 80t68.5 56t65.5 21q53 0 81 -39t28 -109q1 -77 -28 -149t-75.5 -127.5t-105 -88t-116.5 -31.5q-32 0 -61.5 8.5t-54.5 24t-43 38t-26 50.5z" />
    <glyph glyph-name="f_h" unicode="fh" horiz-adv-x="857" 
d="M297 0l166 669q-11 37 -33.5 58.5t-53.5 21.5q-62 0 -94 -63.5t-42 -172.5h116l-10 -42h-111l-70 -306q-24 -104 -49.5 -175.5t-55.5 -115.5t-66 -64t-81 -20q-43 0 -70 18t-27 49q0 29 18.5 44t41.5 19h15q2 -45 16 -71.5t37 -26.5q14 0 25 8t22 33.5t22.5 73.5
t26.5 127l75 407h-76l7 28l79 18q13 55 36.5 103.5t56.5 84.5t74.5 57t89.5 21q30 0 59.5 -9.5t48.5 -24.5l95 34h15l-126 -496q23 45 54.5 89t67.5 79t73.5 57t72.5 22q38 0 53 -19.5t15 -54.5q0 -10 -1.5 -22.5t-5.5 -23.5l-78 -292q-8 -29 -8 -43q0 -15 14 -15t35 16.5
t53 57.5l17 -13q-24 -35 -44.5 -60.5t-39 -42t-37 -24.5t-38.5 -8q-33 0 -51 20.5t-18 53.5q0 17 3 37.5t11 47.5l71 260q2 9 3.5 17.5t1.5 14.5q0 21 -17 21q-21 1 -56 -25t-71 -70t-67 -102.5t-45 -121.5l-36 -143h-109z" />
    <glyph glyph-name="f_k" unicode="fk" horiz-adv-x="819" 
d="M577 336l84 -214q19 -46 18 -44t3 -4q5 -7 11 -11.5t14 -4.5q17 2 32.5 16.5t43.5 49.5l17 -13q-39 -63 -70.5 -92t-71.5 -29t-61.5 27t-38.5 76l-66 191l172 191q28 32 50.5 45.5t48.5 13.5q34 0 50 -19t16 -44q0 -27 -15.5 -45t-45.5 -30h-8q0 22 -9.5 40t-33.5 18
q-20 0 -36.5 -11t-39.5 -36zM346 471h-111l-70 -306q-24 -104 -49.5 -175.5t-55.5 -115.5t-66 -64t-81 -20q-43 0 -70 18t-27 49q0 29 18.5 44t41.5 19h15q2 -45 16 -71.5t37 -26.5q14 0 25 8t22 33.5t22.5 73.5t26.5 127l75 407h-76l7 28l79 18q13 55 36.5 103.5t56.5 84.5
t74.5 57t89.5 21q30 0 59.5 -9.5t48.5 -24.5l95 34h15l-194 -783h-110l167 669q-11 37 -33.5 58.5t-53.5 21.5q-62 0 -94 -63.5t-42 -172.5h116z" />
    <glyph glyph-name="f_f_b" unicode="ffb" horiz-adv-x="1153" 
d="M423 515q8 32 18.5 62t24.5 56q-10 43 -32.5 70.5t-60.5 27.5q-51 0 -86 -56.5t-47 -161.5h182zM975 458q-28 1 -66 -29.5t-75 -83t-68 -123t-46 -149.5q8 -26 31 -38t49 -12q28 -1 55.5 14t52 41.5t45.5 62t36.5 74.5t23.5 80t8 79t-10.5 61t-35.5 23zM644 471h-111
l-67 -286q-24 -106 -50.5 -178.5t-57 -117.5t-66 -64.5t-78.5 -19.5q-39 0 -62 17t-23 49q0 28 18.5 42.5t40.5 18.5h12q0 -45 10.5 -70t29.5 -25q15 0 27 8.5t23.5 34.5t23 73.5t26.5 125.5l74 392h-180l-67 -294q-25 -108 -51.5 -181.5t-57 -119.5t-66.5 -66t-79 -20
q-42 0 -70 18t-28 49q0 29 19 44t42 19h14q2 -45 17 -71.5t37 -26.5q14 0 25 8t22 33.5t22.5 73.5t26.5 127l76 407h-77l7 28l78 18q13 55 38 100.5t59 78t75.5 50.5t86.5 18q46 0 81.5 -15t55.5 -41q32 35 73 55t88 20q30 0 58.5 -9.5t48.5 -24.5l95 34h15l-124 -499
q22 48 52 93t64 80t68.5 56t65.5 21q51 0 80 -39t29 -109q1 -77 -28 -149t-76 -127.5t-105.5 -88t-116.5 -31.5q-31 0 -60.5 8.5t-54.5 24t-43 38t-26 50.5l139 558q-11 37 -34 58.5t-53 21.5q-32 0 -55 -16.5t-39.5 -47.5t-26.5 -74.5t-15 -97.5h115z" />
    <glyph glyph-name="f_f_h" unicode="ffh" horiz-adv-x="1156" 
d="M373 731q-51 0 -86 -56.5t-47 -161.5h182l1 2q8 32 18.5 62t24.5 56q-10 43 -32.5 70.5t-60.5 27.5zM595 0l167 669q-11 37 -34 58.5t-53 21.5q-32 0 -55 -16.5t-39.5 -47.5t-26.5 -74.5t-15 -97.5h115l-10 -42h-111l-67 -286q-24 -106 -50.5 -178.5t-57 -117.5
t-66 -64.5t-78.5 -19.5q-39 0 -62 17t-23 49q0 28 18.5 42.5t40.5 18.5h12q0 -45 10.5 -70t29.5 -25q15 0 27 8.5t23.5 34.5t23 73.5t26.5 125.5l74 392h-180l-67 -294q-25 -108 -51.5 -181.5t-57 -119.5t-66.5 -66t-79 -20q-42 0 -70 18t-28 49q0 29 19 44t42 19h14
q2 -45 17 -71.5t37 -26.5q14 0 25 8t22 33.5t22.5 73.5t26.5 127l76 407h-77l7 28l78 18q13 55 38 100.5t59 78t75.5 50.5t86.5 18q46 0 81.5 -15t55.5 -41q32 35 73 55t88 20q30 0 58.5 -9.5t48.5 -24.5l95 34h15l-125 -496q23 44 54.5 88t67 79.5t73 57.5t72.5 22
q38 0 53 -19.5t15 -54.5q0 -10 -2 -22l-4 -24l-78 -292q-4 -14 -6.5 -25.5t-2.5 -17.5q0 -15 14 -15t35 17t53 57l17 -13q-48 -71 -83 -103t-76 -32q-33 0 -51 20.5t-18 53.5q0 17 3 37.5t11 47.5l71 260q6 19 6 32q0 21 -18 21q-22 0 -56 -26t-69.5 -70t-66.5 -101.5
t-47 -121.5l-36 -143h-109z" />
    <glyph glyph-name="f_f_k" unicode="ffk" horiz-adv-x="1118" 
d="M423 515q8 32 18.5 62t24.5 56q-10 43 -32.5 70.5t-60.5 27.5q-51 0 -86 -56.5t-47 -161.5h182zM876 336l83 -214l9 -21t4.5 -11.5t3 -7.5t4.5 -7q11 -17 25 -17q17 0 33 16.5t44 49.5l17 -13q-20 -32 -37.5 -54.5t-34 -37.5t-33.5 -22t-38 -7q-39 0 -60.5 27t-38.5 76
l-66 191l172 191q28 32 50.5 45.5t48.5 13.5q33 0 49.5 -19t16.5 -44q0 -27 -16 -45t-46 -30h-8q0 22 -9.5 40t-33.5 18q-20 0 -36 -11t-39 -36zM644 471h-111l-67 -286q-24 -106 -50.5 -178.5t-57 -117.5t-66 -64.5t-78.5 -19.5q-39 0 -62 17t-23 49q0 28 18.5 42.5
t40.5 18.5h12q0 -45 10.5 -70t29.5 -25q15 0 27 8.5t23.5 34.5t23 73.5t26.5 125.5l74 392h-180l-67 -294q-25 -108 -51.5 -181.5t-57 -119.5t-66.5 -66t-79 -20q-42 0 -70 18t-28 49q0 29 19 44t42 19h14q2 -45 17 -71.5t37 -26.5q14 0 25 8t22 33.5t22.5 73.5t26.5 127
l76 407h-77l7 28l78 18q13 55 38 100.5t59 78t75.5 50.5t86.5 18q46 0 81.5 -15t55.5 -41q32 35 73 55t88 20q30 0 58.5 -9.5t48.5 -24.5l95 34h15l-194 -783h-110l168 669q-11 37 -34 58.5t-53 21.5q-32 0 -55 -16.5t-39.5 -47.5t-26.5 -74.5t-15 -97.5h115z" />
    <glyph glyph-name="f_j" unicode="fj" horiz-adv-x="544" 
d="M415 471h-181l-67 -294q-25 -108 -51.5 -181.5t-57.5 -119.5t-66.5 -66t-78.5 -20q-42 0 -70 18t-28 49q0 29 19 44t42 19h14q2 -45 17 -71.5t37 -26.5q14 0 25 8t22 33.5t22.5 73.5t26.5 127l76 407h-77l7 28l78 18q14 57 38.5 105.5t59 84.5t77.5 56t94 20q56 0 90 -21
t34 -58q0 -26 -16.5 -42.5t-46.5 -22.5h-31q6 45 -7 77.5t-48 32.5q-52 0 -84 -63t-44 -173h195l90 21h15l-80 -361q-22 -101 -49 -171t-59 -113.5t-68.5 -63.5t-77.5 -20q-37 0 -62 17t-25 48q0 28 18.5 42.5t40.5 18.5h12q0 -45 10 -70t32 -25q13 0 23 7.5t19 27.5
t18 53.5t21 86.5z" />
    <glyph glyph-name="f_f_j" unicode="ffj" horiz-adv-x="842" 
d="M373 731q-51 0 -86 -56.5t-47 -161.5h182l1 2q8 32 18.5 61.5t24.5 55.5q-10 43 -32.5 71t-60.5 28zM713 471h-180l-67 -286q-24 -106 -50.5 -178.5t-57 -117.5t-66 -64.5t-78.5 -19.5q-39 0 -62 17t-23 49q0 28 18.5 42.5t40.5 18.5h12q0 -45 10.5 -70t29.5 -25
q15 0 27 8.5t23.5 34.5t23 73.5t26.5 125.5l74 392h-180l-67 -294q-25 -108 -51.5 -181.5t-57 -119.5t-66.5 -66t-79 -20q-42 0 -70 18t-28 49q0 29 19 44t42 19h14q2 -45 17 -71.5t37 -26.5q14 0 25 8t22 33.5t22.5 73.5t26.5 127l76 407h-77l7 28l78 18q13 55 38 100.5
t59 78t75.5 50.5t86.5 18q48 0 82.5 -15.5t54.5 -41.5q34 36 78 56t94 20q56 0 90 -21t34 -58q0 -26 -16.5 -42.5t-46.5 -22.5h-31q6 45 -7.5 77.5t-48.5 32.5q-53 0 -84 -63t-43 -173h194l90 21h15l-80 -361q-22 -101 -49 -171t-59 -113.5t-69 -63.5t-78 -20q-36 0 -61 17
t-25 48q0 28 18.5 42.5t40.5 18.5h12q0 -45 10 -70t31 -25q13 0 23 7.5t19 27.5t18 53.5t21 86.5z" />
    <glyph glyph-name="f_idieresis" unicode="f&#xef;" horiz-adv-x="577" 
d="M589 606q-28 0 -45.5 18.5t-17.5 44.5q0 28 20 48.5t49 20.5q28 0 45.5 -17.5t17.5 -44.5q0 -29 -20 -49.5t-49 -20.5zM435 513l90 21h15l-103 -412q-4 -14 -6.5 -25.5t-2.5 -17.5q0 -15 14 -15q15 0 34.5 17t53.5 57l17 -13q-24 -35 -44.5 -60.5t-39 -42t-37 -24.5
t-38.5 -8q-33 0 -50.5 20.5t-17.5 53.5q0 18 2.5 37t10.5 48l82 322h-181l-69 -306q-24 -104 -49.5 -175.5t-55.5 -115.5t-66 -64t-81 -20q-42 0 -70 18t-28 49q0 29 19 44t42 19h14q2 -45 17 -71.5t37 -26.5q14 0 25 8t22 33.5t22.5 73.5t26.5 127l76 407h-77l7 28l78 18
q12 56 32 104.5t48.5 84.5t67 56.5t87.5 20.5q58 0 91.5 -27.5t33.5 -72.5q0 -30 -19.5 -52.5t-55.5 -26.5h-31q7 25 8 51t-4.5 47t-18 34.5t-32.5 13.5q-23 0 -39 -17t-26 -48.5t-16 -75t-10 -96.5h195z" />
    <glyph glyph-name="f_f_idieresis" unicode="ff&#xef;" horiz-adv-x="875" 
d="M888 606q-28 0 -45.5 18.5t-17.5 44.5q0 28 19.5 48.5t48.5 20.5t46.5 -17.5t17.5 -44.5q0 -29 -20 -49.5t-49 -20.5zM373 731q-51 0 -86 -56.5t-47 -161.5h182l1 2q6 35 16.5 67.5t24.5 60.5q-10 39 -33.5 63.5t-57.5 24.5zM713 471h-180l-67 -286
q-24 -106 -50.5 -178.5t-57 -117.5t-66 -64.5t-78.5 -19.5q-39 0 -62 17t-23 49q0 28 18.5 42.5t40.5 18.5h12q0 -45 10.5 -70t29.5 -25q15 0 27 8.5t23.5 34.5t23 73.5t26.5 125.5l74 392h-180l-67 -294q-25 -108 -51.5 -181.5t-57 -119.5t-66.5 -66t-79 -20q-42 0 -70 18
t-28 49q0 29 19 44t42 19h14q2 -45 17 -71.5t37 -26.5q14 0 25 8t22 33.5t22.5 73.5t26.5 127l76 407h-77l7 28l78 18q13 55 38 100.5t59 78t75.5 50.5t86.5 18q43 0 76 -12.5t53 -34.5q29 32 65 49t81 17q58 0 91 -27.5t33 -72.5q0 -30 -18.5 -52.5t-55.5 -26.5h-31
q7 25 8 51t-4.5 47t-18 34.5t-32.5 13.5q-23 0 -39 -17t-26 -48.5t-16 -75t-10 -96.5h194l91 21h15l-104 -412q-8 -29 -8 -43q0 -15 14 -15t34.5 17t52.5 57l18 -13q-25 -36 -45.5 -61.5t-38.5 -42t-36 -24t-39 -7.5q-33 0 -51 20.5t-18 53.5q0 17 3 36.5t11 48.5z" />
    <glyph glyph-name=".notdef" horiz-adv-x="960" 
d="M90 0v780h780v-780h-780zM201 714l279 -279l279 279h-558zM525 390l275 -275v550zM435 390l-275 275v-550zM480 345l-279 -279h558z" />
    <glyph glyph-name=".null" horiz-adv-x="0" 
 />
    <glyph glyph-name="nonmarkingreturn" unicode="&#xd;" horiz-adv-x="193" 
 />
    <glyph glyph-name="NULL" horiz-adv-x="0" 
 />
    <glyph glyph-name="NULL" horiz-adv-x="0" 
 />
    <glyph glyph-name="space" unicode=" " horiz-adv-x="193" 
 />
    <glyph glyph-name="exclam" unicode="!" horiz-adv-x="251" 
d="M301 702l-180 -492h-24l56 492h148zM7 65q0 31 22.5 53.5t52.5 22.5q32 0 53.5 -22.5t21.5 -53.5q0 -30 -21.5 -52.5t-53.5 -22.5q-30 0 -52.5 22.5t-22.5 52.5z" />
    <glyph glyph-name="quotedbl" unicode="&#x22;" horiz-adv-x="278" 
d="M244 484h-11l10 137q0 2 0.5 10t1.5 21l3 41q5 31 16 48q8 9 17.5 16t26.5 7q23 0 34 -13t11 -33q0 -23 -13 -51l-3 -6l-2 -4t-1 -3q-1 -5 -5 -11l-7.5 -12.5t-9.5 -18.5zM113 484h-10l10 137q3 57 4 78t0 7t-0.5 -17t1.5 4q5 31 16 48q5 9 16 16t28 7q23 0 34 -13
t11 -33q0 -23 -13 -51l-3 -6l-2 -4t-1 -3q-1 -5 -5 -11l-7.5 -12.5t-9.5 -18.5z" />
    <glyph glyph-name="numbersign" unicode="#" horiz-adv-x="541" 
d="M471 233h-113l-76 -242l-36 11l73 231h-146l-76 -242l-36 11l73 231h-100v33h110l60 190h-107v33h117l71 224l37 -12l-68 -212h145l71 224l37 -12l-68 -212h94v-33h-104l-60 -190h102v-33zM244 456l-60 -190h145l60 190h-145z" />
    <glyph glyph-name="dollar" unicode="$" horiz-adv-x="548" 
d="M202 543q0 -42 21 -69t67 -51l56 253h-6q-31 0 -56.5 -10t-43.5 -28t-28 -42.5t-10 -52.5zM382 164q0 44 -21 71.5t-70 55.5l-59 -265q66 0 108 36.5t42 101.5zM489 214q0 -53 -21.5 -94.5t-58.5 -70.5t-85 -44t-100 -15l-23 -103h-31l23 104q-68 6 -116.5 28t-74.5 46
l28 168h31q2 -91 38 -144t102 -61l62 278l-20 10q-69 34 -106.5 76.5t-37.5 107.5q0 47 17.5 86t50 67t78.5 43.5t102 15.5h7l22 96h31l-22 -98q47 -6 87 -21t70 -39l-29 -148h-30q0 73 -25 117t-81 54l-59 -264q37 -17 68.5 -36.5t54 -42.5t35.5 -51.5t13 -64.5z" />
    <glyph glyph-name="percent" unicode="%" horiz-adv-x="744" 
d="M701 712l-599 -722h-44l599 722h44zM249 712q30 0 55.5 -10t44.5 -29t29.5 -45.5t10.5 -59.5q0 -44 -16 -79.5t-41.5 -60.5t-58 -38.5t-65.5 -13.5q-30 0 -55.5 10.5t-44 29t-29.5 45t-11 59.5q0 44 16 79.5t41.5 60.5t58 38.5t65.5 13.5zM248 685q-24 0 -43 -16.5
t-32.5 -43.5t-20.5 -60.5t-7 -67.5q0 -41 13 -67t51 -26q24 0 43 16.5t32.5 43.5t20.5 60.5t7 67.5q0 41 -13 67t-51 26zM510 -10q-30 0 -55.5 10t-44.5 29t-29.5 45.5t-10.5 59.5q0 44 16 79.5t41.5 60.5t58 38.5t65.5 13.5q30 0 55.5 -10.5t44 -29t29.5 -45t11 -59.5
q0 -44 -16 -79.5t-41.5 -60.5t-58 -38.5t-65.5 -13.5zM511 17q24 0 43 16.5t32.5 43.5t20.5 60.5t7 67.5q0 41 -13 67t-51 26q-24 0 -43 -16.5t-32.5 -43.5t-20.5 -60.5t-7 -67.5q0 -41 13 -67t51 -26z" />
    <glyph glyph-name="ampersand" unicode="&#x26;" horiz-adv-x="675" 
d="M271 556q2 -42 15.5 -71.5t33.5 -60.5l5 -8q66 24 97 60.5t31 102.5q0 45 -22 73t-64 28q-44 0 -70 -33.5t-26 -90.5zM272 44q33 0 66.5 13.5t62.5 35.5q0 2 -2 3.5t-2 3.5l-171 267q-51 -23 -78.5 -68t-27.5 -104q0 -36 11.5 -64t32 -47.5t48.5 -29.5t60 -10zM10 172
q0 44 16 78.5t43.5 61t64.5 45t80 30.5q-16 26 -28.5 59.5t-12.5 75.5q0 40 15.5 75t43.5 60.5t66 40t82 14.5q38 0 68.5 -10.5t51.5 -28.5t32.5 -42t11.5 -52q0 -69 -54.5 -112t-152.5 -71l143 -220q24 36 37.5 74t13.5 76q0 20 -15 27.5t-37 7.5l6 30h205l-6 -30
q-30 0 -48 -2.5t-29.5 -10.5t-19 -22t-16.5 -37q-14 -40 -32.5 -75t-40.5 -67l32 -49q20 -29 46 -48.5t63 -19.5l-6 -30h-147q-19 12 -34 26.5t-31 36.5q-44 -34 -95 -53.5t-113 -19.5q-41 0 -78 12t-64.5 35.5t-44 57t-16.5 77.5z" />
    <glyph glyph-name="quotesingle" unicode="'" horiz-adv-x="148" 
d="M113 484h-10l10 137q3 57 4 78t0 7t-0.5 -17t1.5 4q5 31 16 48q5 9 16 16t28 7q23 0 34 -13t11 -33q0 -23 -13 -51l-3 -6l-2 -4t-1 -3q-1 -5 -5 -11l-7.5 -12.5t-9.5 -18.5z" />
    <glyph glyph-name="parenleft" unicode="(" horiz-adv-x="346" 
d="M73 199q0 83 24.5 162t68 151.5t103 137t128.5 120.5h43q-70 -60 -122.5 -136.5t-87 -158t-51.5 -162t-16 -147.5q0 -92 18.5 -167t64.5 -141h-43q-64 74 -97 161t-33 180z" />
    <glyph glyph-name="parenright" unicode=")" horiz-adv-x="346" 
d="M298 429q0 -83 -24.5 -162t-68 -151.5t-103 -137.5t-128.5 -120h-43q70 61 122.5 137.5t87 157.5t51.5 161t17 148q0 93 -19 167.5t-65 140.5h43q64 -74 97 -161t33 -180z" />
    <glyph glyph-name="asterisk" unicode="*" horiz-adv-x="412" 
d="M291 578l103 -88q17 -12 18 -27.5t-12 -26.5q-12 -11 -26.5 -6.5t-25.5 23.5l-66 119l-24 -133q-2 -22 -15.5 -30t-27.5 -3q-15 6 -19.5 20.5t7.5 32.5l69 116l-127 -45q-20 -8 -33.5 -1.5t-15.5 22.5q-4 15 6.5 26t33.5 11l135 -2l-103 87q-16 14 -17.5 28.5t11.5 25.5
q12 10 27 6.5t25 -23.5l65 -118l24 133q2 22 16 30t28 3q14 -6 18.5 -21t-7.5 -33l-70 -116l128 46q20 8 33 1t17 -22q2 -16 -8 -26.5t-33 -10.5z" />
    <glyph glyph-name="plus" unicode="+" horiz-adv-x="566" 
d="M315 590h57l-41 -191h192l-12 -56h-192l-40 -192h-57l40 192h-190l11 56h191z" />
    <glyph glyph-name="comma" unicode="," horiz-adv-x="215" 
d="M43 0q-22 4 -37 20.5t-15 42.5q0 32 20.5 50t49.5 18q36 0 55.5 -23.5t19.5 -63.5q0 -34 -14 -62.5t-38.5 -50t-58 -34.5t-73.5 -15v27q53 8 86.5 30.5t37.5 60.5h-33z" />
    <glyph glyph-name="hyphen" unicode="-" horiz-adv-x="320" 
d="M284 276h-260l12 53h260z" />
    <glyph glyph-name="period" unicode="." horiz-adv-x="215" 
d="M-13 67q0 32 22.5 54.5t54.5 22.5t54.5 -22.5t22.5 -54.5t-22.5 -54.5t-54.5 -22.5t-54.5 22.5t-22.5 54.5z" />
    <glyph glyph-name="slash" unicode="/" horiz-adv-x="374" 
d="M459 770l-488 -911h-49l487 911h50z" />
    <glyph glyph-name="zero" unicode="0" horiz-adv-x="611" 
d="M251 -10q-52 0 -92 20t-67 55t-41 82.5t-14 102.5q-1 84 25 167t73 149t112 106.5t143 39.5q52 0 92 -20t67 -55t41 -82.5t14 -102.5q1 -84 -25 -167t-73 -149t-112 -106.5t-143 -39.5zM252 22q32 -2 62 19t55.5 57.5t46.5 84t36 100t23 105.5t8 100q0 40 -4.5 75.5
t-15 61t-29 40.5t-45.5 15q-32 1 -62 -19.5t-55.5 -56.5t-46.5 -84t-36 -100t-23 -105.5t-7 -100.5q0 -41 4.5 -76t15 -60.5t28.5 -40.5t45 -15z" />
    <glyph glyph-name="one" unicode="1" horiz-adv-x="411" 
d="M370 711l-125 -591q-5 -30 -2.5 -47.5t14 -26t34 -11.5t59.5 -5l-7 -30h-360l6 30q40 3 63.5 6t37 9.5t20.5 19.5t14 37l99 470h-131l6 28l37 6q34 6 62 13.5t52.5 19.5t47.5 29t49 43h24z" />
    <glyph glyph-name="two" unicode="2" horiz-adv-x="536" 
d="M278 99q34 0 58 3t43 13.5t37 31.5t41 57h26l-66 -204h-455l5 20q72 58 127 105t97 83q42 37 74 68t55 57q47 53 66 95t19 87q0 51 -32 81t-89 30q-59 0 -100.5 -26.5t-77.5 -66.5l-15 19q21 33 45.5 62.5t54.5 51t66 34t80 12.5q85 0 135.5 -46.5t50.5 -125.5
q0 -57 -31 -108t-85 -99q-26 -23 -64.5 -54t-90.5 -70q-101 -75 -143 -110h169z" />
    <glyph glyph-name="three" unicode="3" horiz-adv-x="524" 
d="M180 370q46 12 85.5 28t68.5 38t46 49t17 61q0 40 -26 66t-72 26q-48 0 -89.5 -23t-79.5 -67l-17 20q42 63 101 103.5t140 40.5q37 0 66.5 -10t50 -28t31.5 -42.5t11 -52.5q0 -40 -17.5 -70t-44.5 -51.5t-60.5 -36t-66.5 -23.5q35 -3 65 -17t51.5 -36.5t34 -51
t12.5 -60.5q0 -60 -25.5 -105t-66 -76t-90 -46.5t-97.5 -15.5q-56 0 -95.5 12t-65 32.5t-37.5 46t-12 52.5q0 34 18.5 55.5t42.5 31.5h59q-8 -20 -12.5 -35t-4.5 -38q0 -27 6 -50t19.5 -40t34 -26.5t49.5 -9.5q34 0 63.5 14.5t51.5 40t34 58.5t12 71q0 69 -33 107t-91 38
q-16 0 -30 -2t-32 -6z" />
    <glyph glyph-name="four" unicode="4" horiz-adv-x="615" 
d="M328 194h-325l5 24l475 484h71l-101 -469h119l-9 -39h-118l-20 -94q-3 -21 -2.5 -33.5t8 -19.5t23 -10.5t43.5 -6.5l-7 -30h-288l7 30q30 4 47 7t27 10t15.5 19t10.5 34zM74 233h263l73 341z" />
    <glyph glyph-name="five" unicode="5" horiz-adv-x="523" 
d="M199 590l-42 -140q63 2 120.5 -9.5t101.5 -38.5t70.5 -69t26.5 -102q0 -53 -20 -97.5t-55 -76.5t-82.5 -49.5t-102.5 -17.5q-103 0 -159.5 39t-56.5 102q0 32 17.5 55t41.5 33h59q-8 -18 -12.5 -35t-4.5 -38q0 -53 31 -88.5t89 -35.5q33 0 61 12t48.5 33.5t32.5 51.5
t12 67q0 53 -22.5 87t-61 52.5t-90.5 25t-112 4.5l108 343h247q14 0 23 1t16.5 5t15.5 13t19 25h26l-56 -152h-289z" />
    <glyph glyph-name="six" unicode="6" horiz-adv-x="564" 
d="M556 687q-66 -17 -125 -45t-107.5 -66.5t-85.5 -87.5t-58 -108q33 32 75 50.5t90 18.5q45 0 80 -15t59 -40.5t37 -60t13 -73.5q0 -58 -21.5 -107.5t-58.5 -85.5t-85.5 -56.5t-102.5 -20.5q-56 0 -98.5 18.5t-71.5 51t-44 76.5t-15 96q-1 87 36 167.5t104 145t160 108.5
t204 58zM294 400q-70 0 -123 -45q-19 -63 -19 -140q0 -42 7 -77.5t21 -61t36.5 -39.5t52.5 -14q35 0 63 17.5t47.5 47t29.5 68.5t10 82q0 34 -7.5 63.5t-22.5 51.5t-38.5 34.5t-56.5 12.5z" />
    <glyph glyph-name="seven" unicode="7" horiz-adv-x="509" 
d="M481 592h-259q-47 0 -74.5 -21t-56.5 -64h-30l84 195h434l-4 -23l-418 -679h-104z" />
    <glyph glyph-name="eight" unicode="8" horiz-adv-x="556" 
d="M547 555q0 -36 -15.5 -65t-40.5 -50.5t-57 -35t-65 -18.5l29 -20q48 -32 76.5 -70.5t28.5 -95.5q0 -47 -18 -86t-51 -66.5t-78.5 -42.5t-99.5 -15q-53 0 -96.5 13.5t-75 38t-48.5 58t-17 72.5q0 36 14.5 66t40.5 52.5t61 38t76 22.5l-15 11q-33 23 -57 60.5t-24 90.5
q0 41 16.5 77t46.5 63t72 43t93 16q43 0 80 -10.5t64.5 -30.5t43.5 -49.5t16 -66.5zM354 395q51 24 77.5 65.5t26.5 95.5q0 52 -29.5 87.5t-86.5 35.5q-52 0 -88 -32t-36 -92q0 -32 15 -61t50 -52zM227 340q-30 -11 -51 -29.5t-34.5 -41t-19.5 -48t-6 -49.5
q0 -66 38.5 -107.5t102.5 -41.5q28 0 54 8.5t46 26t31.5 43t11.5 58.5q0 39 -20.5 67t-58.5 54z" />
    <glyph glyph-name="nine" unicode="9" horiz-adv-x="564" 
d="M38 15q66 16 125 43.5t107.5 66.5t85.5 88t58 108q-33 -32 -75.5 -50t-89.5 -18q-45 0 -80 15t-59 40.5t-37 60t-13 73.5q0 58 21.5 107.5t58.5 85.5t85.5 56.5t102.5 20.5q55 0 98 -18.5t72 -51t44 -76.5t15 -96q1 -87 -36 -167.5t-104 -145t-160 -108.5t-204 -58z
M300 302q72 0 122 45q20 66 20 140q0 42 -7 77t-21 60.5t-36.5 40t-52.5 14.5q-35 0 -63 -17.5t-47.5 -47t-29.5 -68.5t-10 -82q0 -34 7.5 -63.5t22.5 -51.5t38.5 -34.5t56.5 -12.5z" />
    <glyph glyph-name="colon" unicode=":" horiz-adv-x="215" 
d="M56 401q0 32 22.5 54.5t54.5 22.5t54.5 -22.5t22.5 -54.5t-22.5 -54.5t-54.5 -22.5t-54.5 22.5t-22.5 54.5zM-13 67q0 32 22.5 54.5t54.5 22.5t54.5 -22.5t22.5 -54.5t-22.5 -54.5t-54.5 -22.5t-54.5 22.5t-22.5 54.5z" />
    <glyph glyph-name="semicolon" unicode=";" horiz-adv-x="215" 
d="M56 401q0 32 22.5 54.5t54.5 22.5t54.5 -22.5t22.5 -54.5t-22.5 -54.5t-54.5 -22.5t-54.5 22.5t-22.5 54.5zM42 0q-22 4 -37 20.5t-15 42.5q0 32 20.5 50t50.5 18q36 0 55.5 -23.5t19.5 -63.5q0 -34 -14 -62.5t-39 -50t-59 -34.5t-73 -15v27q53 8 86.5 30.5t37.5 60.5
h-33z" />
    <glyph glyph-name="less" unicode="&#x3c;" horiz-adv-x="416" 
d="M61 365l2 9l352 190l-14 -69l-244 -128l189 -129l-13 -63z" />
    <glyph glyph-name="equal" unicode="=" horiz-adv-x="576" 
d="M91 413l12 55h440l-13 -55h-439zM62 273l11 55h440l-12 -55h-439z" />
    <glyph glyph-name="greater" unicode="&#x3e;" horiz-adv-x="416" 
d="M390 374l-3 -9l-351 -190l15 69l244 128l-190 129l13 63z" />
    <glyph glyph-name="question" unicode="?" horiz-adv-x="447" 
d="M278 449q26 15 46.5 29.5t34.5 31t21.5 37t7.5 47.5q0 41 -23 66t-66 25q-44 0 -68.5 -28.5t-24.5 -79.5q0 -17 1.5 -26.5t3.5 -20.5h-82q-11 8 -17.5 23.5t-6.5 33.5q0 29 14.5 52t40 39.5t60.5 25t76 8.5q88 0 139 -42.5t51 -113.5q-1 -35 -11 -61.5t-29 -47.5
t-46 -38.5t-62 -36.5q-56 -30 -89.5 -59.5t-33.5 -75.5q0 -7 2 -17q1 -4 3 -11t2 -8h-18q-22 18 -34 42.5t-12 53.5q0 49 30.5 84t89.5 68zM95 65q0 31 22.5 53.5t52.5 22.5q32 0 53.5 -22.5t21.5 -53.5q0 -30 -21.5 -52.5t-53.5 -22.5q-30 0 -52.5 22.5t-22.5 52.5z" />
    <glyph glyph-name="at" unicode="@" horiz-adv-x="856" 
d="M591 75q-37 0 -60.5 13t-34.5 37t-11.5 56.5t9.5 71.5q-38 -81 -80 -129t-95 -48q-43 0 -69 33t-26 93q-1 53 20.5 106.5t58 96.5t83 69.5t94.5 25.5q27 0 50.5 -10t38.5 -25l70 36h20l-31 -88l-61 -202q-5 -20 -7.5 -39t0.5 -34t12.5 -24t27.5 -9q39 0 69 23.5
t50.5 61.5t31.5 87t11 100q0 61 -17.5 113t-52 89t-86 58t-118.5 21q-85 1 -155 -35t-119.5 -96.5t-76.5 -139t-26 -161.5q0 -71 22.5 -128.5t63 -98t98 -62t126.5 -21.5q43 0 78.5 4t67 13t62.5 23t65 34l10 -15q-52 -45 -130 -72t-163 -27q-84 0 -153 23.5t-117.5 68.5
t-75.5 110t-27 147q-1 89 33 173.5t94 149.5t142.5 103.5t180.5 37.5q80 0 143.5 -22.5t107.5 -64t67.5 -99t23.5 -126.5q0 -59 -18 -113.5t-50 -96.5t-75.5 -67t-95.5 -25zM356 134q23 0 49 24t51.5 65t48.5 96t39 117q-8 19 -25.5 27.5t-36.5 8.5q-35 0 -65 -25.5
t-52.5 -65t-35.5 -87t-13 -90.5q0 -31 10 -50.5t30 -19.5z" />
    <glyph glyph-name="A" unicode="A" horiz-adv-x="707" 
d="M387 589l-188 -313h248zM454 239h-278l-75 -125q-19 -29 -19 -49q0 -17 19.5 -25t61.5 -10l-6 -30h-206l6 30q22 2 38 9.5t28 27.5l350 574l-14 68h120l126 -642q5 -20 17 -26.5t34 -10.5l-6 -30h-273l6 30q22 1 40 3t31 8t20 17t7 29q0 6 -0.5 12t-2.5 15z" />
    <glyph glyph-name="B" unicode="B" horiz-adv-x="637" 
d="M-26 0l7 30q29 4 46.5 7.5t27 10.5t15 19t10.5 34l107 500q4 22 3.5 35t-8 19.5t-23 10t-41.5 6.5l6 30h299q106 0 154 -40t48 -103q0 -48 -20 -83.5t-51.5 -59.5t-72 -36.5t-80.5 -14.5q45 -2 80.5 -14t60 -32.5t38 -47.5t13.5 -58q0 -52 -23 -91.5t-63 -66.5t-94 -41
t-115 -14h-324zM318 666l-60 -285h62q41 0 76 10t60 31t39 54t14 80q0 110 -128 110h-63zM250 343l-51 -240q-8 -40 9 -53.5t68 -13.5h11q40 0 74 11t59 34t39.5 58t14.5 82q0 54 -35.5 88t-104.5 34h-84z" />
    <glyph glyph-name="C" unicode="C" horiz-adv-x="653" 
d="M462 712q66 0 120.5 -16t90.5 -44l-31 -152h-31q0 86 -37.5 131t-109.5 45q-47 1 -87.5 -17.5t-73.5 -50t-58.5 -73.5t-43 -89t-26 -95t-8.5 -92q0 -111 40 -171.5t118 -60.5q80 0 139 49.5t107 152.5h36l-53 -183q-52 -26 -107.5 -41t-124.5 -15q-67 0 -119 20
t-87.5 56.5t-54 88t-18.5 114.5q-1 82 30.5 161.5t87.5 142.5t133.5 101.5t167.5 37.5z" />
    <glyph glyph-name="D" unicode="D" horiz-adv-x="718" 
d="M-26 0l7 30q29 4 46.5 7.5t27 10.5t15 19t10.5 34l107 500q4 22 3.5 35t-8 19.5t-23 10t-41.5 6.5l6 30h266q74 0 133.5 -19.5t101.5 -56t64.5 -89t22.5 -117.5q0 -95 -34 -172.5t-94 -132.5t-140.5 -85t-173.5 -30h-296zM281 36q64 0 120.5 29.5t97.5 82t65 124
t24 155.5q0 114 -51.5 176.5t-163.5 62.5h-55l-118 -559q-10 -44 7 -57.5t61 -13.5h13z" />
    <glyph glyph-name="E" unicode="E" horiz-adv-x="625" 
d="M520 0h-546l7 30q29 4 46.5 7.5t27 10.5t15 19t10.5 34l107 500q4 22 3.5 35t-8 19.5t-23 10t-41.5 6.5l6 30h534l-32 -173h-24q-9 41 -18 67.5t-22 42t-32.5 21.5t-47.5 6h-164l-60 -285h144q32 0 52 21.5t38 69.5h30l-46 -219h-31q2 48 -8 69t-43 21h-144l-51 -239
q-8 -41 10.5 -54.5t69.5 -13.5h79q53 0 96 34q22 18 46 45t61 74h29z" />
    <glyph glyph-name="F" unicode="F" horiz-adv-x="575" 
d="M300 0h-326l7 30q29 4 46.5 7.5t27 10.5t15 19t10.5 34l107 500q4 22 3.5 35t-8 19.5t-23 10t-41.5 6.5l6 30h518l-34 -177h-23q-6 40 -15 67.5t-23 43.5t-34 23t-48 7h-147l-62 -294h126q33 0 52 23t36 71h30l-47 -226h-31q2 48 -6.5 71t-41.5 23h-126l-48 -223
q-5 -23 -2.5 -37t14.5 -22t35.5 -12.5t59.5 -7.5z" />
    <glyph glyph-name="G" unicode="G" horiz-adv-x="708" 
d="M335 27q35 0 67.5 7.5t60.5 27.5l36 165q4 22 3.5 34.5t-7.5 19t-22.5 9.5t-42.5 7l6 31h269l-6 -31q-25 -2 -40.5 -5.5t-25 -11t-14.5 -20t-9 -33.5l-35 -166q-29 -17 -56 -30t-56.5 -22t-61.5 -14t-70 -5q-67 0 -120 19.5t-90.5 55t-57.5 86.5t-20 114q-1 82 31 162.5
t89 144t135 102.5t168 38q66 0 122.5 -17t91.5 -43l-31 -152h-32q0 85 -38.5 130.5t-111.5 45.5q-47 1 -88 -17.5t-74 -50.5t-59 -74.5t-43.5 -89.5t-26.5 -95.5t-9 -92.5q0 -112 44.5 -170.5t123.5 -58.5z" />
    <glyph glyph-name="H" unicode="H" horiz-adv-x="788" 
d="M187 601q4 22 3.5 35t-8 19.5t-23 10t-41.5 6.5l6 30h287l-7 -30q-30 -4 -47 -7.5t-26.5 -10.5t-14.5 -19t-11 -34l-47 -219h328l47 219q4 22 3.5 35t-8 19.5t-23 10t-41.5 6.5l6 30h287l-7 -30q-30 -4 -47 -7.5t-26.5 -10.5t-14.5 -19t-11 -34l-107 -500
q-4 -23 -3.5 -35.5t8 -19t23 -10t42.5 -6.5l-7 -30h-287l7 30q30 4 47 7.5t26.5 10.5t14.5 19t11 34l52 240h-329l-51 -240q-4 -23 -3.5 -35.5t8 -19t23 -10t42.5 -6.5l-7 -30h-287l7 30q29 4 46.5 7.5t27 10.5t15 19t10.5 34z" />
    <glyph glyph-name="I" unicode="I" horiz-adv-x="342" 
d="M187 601q4 22 3.5 35t-8 19.5t-23 10t-41.5 6.5l6 30h287l-7 -30q-30 -4 -47 -7.5t-26.5 -10.5t-14.5 -19t-11 -34l-107 -500q-4 -23 -3.5 -35.5t8 -19t23 -10t42.5 -6.5l-7 -30h-287l7 30q29 4 46.5 7.5t27 10.5t15 19t10.5 34z" />
    <glyph glyph-name="J" unicode="J" horiz-adv-x="512" 
d="M367 601q4 22 3.5 35t-8 19.5t-23 10t-41.5 6.5l6 30h287l-7 -30q-30 -4 -47 -7.5t-26.5 -10.5t-14.5 -19t-11 -34l-88 -409q-11 -55 -33 -93.5t-54 -62.5t-73.5 -35t-92.5 -11q-77 0 -123 30.5t-46 81.5q0 29 13.5 52t36.5 37h81q-10 -22 -16 -44.5t-6 -44.5
q0 -35 18 -58t53 -23q46 0 74 34t46 112z" />
    <glyph glyph-name="K" unicode="K" horiz-adv-x="683" 
d="M198 101q-4 -23 -3.5 -35.5t8 -19t23 -10t42.5 -6.5l-7 -30h-287l7 30q29 4 46.5 7.5t27 10.5t15 19t10.5 34l107 500q4 22 3.5 35t-8 19.5t-23 10t-41.5 6.5l6 30h287l-7 -30q-30 -4 -47 -7.5t-26.5 -10.5t-14.5 -19t-11 -34zM373 388l157 -289q11 -19 21.5 -32
t22.5 -20.5t26.5 -11.5t35.5 -5l-7 -30h-163q-17 18 -31 38.5t-34 54.5l-138 253l301 261q13 11 22 20.5t9 20.5q0 12 -12.5 17t-55.5 7l6 30h221l-6 -30q-33 -2 -55 -13.5t-51 -34.5z" />
    <glyph glyph-name="L" unicode="L" horiz-adv-x="597" 
d="M199 104q-8 -41 10 -54.5t69 -13.5h52q30 0 55 10t48 30q24 21 48.5 50.5t60.5 78.5h29l-76 -205h-521l7 30q29 4 46.5 7.5t27 10.5t15 19t10.5 34l107 500q4 22 3.5 35t-8 19.5t-23 10t-41.5 6.5l6 30h287l-7 -30q-29 -4 -46.5 -7.5t-27 -10.5t-15 -19t-10.5 -34z" />
    <glyph glyph-name="M" unicode="M" horiz-adv-x="909" 
d="M702 553l-316 -553h-31l-94 553l-144 -437q-7 -25 -8 -40.5t6.5 -25t25.5 -14t50 -6.5l-7 -30h-221l6 30q22 2 37 5t25.5 9.5t18 17.5t13.5 29l169 508q11 41 -5 55t-64 18l7 30h190q-2 -17 -1.5 -29.5t4.5 -29.5l80 -467l265 467q0 1 6.5 12.5t9.5 17.5q7 12 12 29h191
l-7 -30q-25 -2 -42 -6t-28 -12t-18 -21.5t-12 -33.5l-47 -508q-2 -36 13.5 -46.5t56.5 -14.5l-7 -30h-288l6 30q32 3 51 6.5t29.5 10.5t15.5 21t10 38z" />
    <glyph glyph-name="N" unicode="N" horiz-adv-x="735" 
d="M571 177l89 424q4 21 1.5 34t-13.5 20.5t-31 11t-50 5.5l6 30h239l-7 -30q-29 -4 -46.5 -7.5t-27 -10.5t-15 -19t-10.5 -34l-129 -604h-34l-318 569l-98 -465q-4 -21 -1.5 -34t13.5 -20.5t30.5 -11t49.5 -5.5l-6 -30h-238l6 30q30 4 47.5 7.5t27.5 10.5t15 19.5t10 33.5
l108 510q-9 18 -16.5 29t-15.5 18t-19.5 10t-29.5 4l7 30h171z" />
    <glyph glyph-name="O" unicode="O" horiz-adv-x="710" 
d="M436 712q66 0 116 -21.5t83.5 -58.5t51 -87t17.5 -107q1 -52 -12 -106t-37.5 -104t-59.5 -94t-79 -76.5t-95.5 -50.5t-109.5 -17q-66 0 -116 21.5t-83.5 58.5t-51 87t-17.5 107q-1 52 12 106t37.5 104t59.5 94t79 76.5t95.5 50.5t109.5 17zM435 675q-41 1 -77 -18
t-65.5 -51.5t-53 -76t-39.5 -91t-24.5 -96.5t-7.5 -93q0 -48 8 -88.5t25.5 -70.5t45 -46.5t65.5 -16.5q41 -1 77 18t65.5 51.5t53 76t39.5 91t24 96.5t8 93q0 48 -8 88.5t-25.5 70.5t-45 46.5t-65.5 16.5z" />
    <glyph glyph-name="P" unicode="P" horiz-adv-x="604" 
d="M124 702h278q58 0 102 -13.5t72.5 -37.5t43 -56t14.5 -69q0 -59 -24.5 -104t-68 -76t-103.5 -47t-131 -16h-70l-37 -172q-5 -22 -2.5 -36.5t14.5 -23.5t35 -13t59 -6l-6 -32h-326l7 30q29 4 46.5 7.5t27 10.5t15 19t10.5 34l107 500q4 22 3.5 35t-8 19.5t-23 10
t-41.5 6.5zM318 666l-73 -345h56q47 0 86.5 12.5t68.5 38t45 64t16 90.5q0 62 -37 101t-112 39h-50z" />
    <glyph glyph-name="Q" unicode="Q" horiz-adv-x="710" 
d="M436 712q66 0 116 -21.5t83.5 -58.5t51 -87t17.5 -107q0 -74 -24.5 -148.5t-69 -136.5t-107.5 -105t-140 -54l47 -60q13 -16 24.5 -29.5t25 -23t30.5 -15.5t40 -7l-2 -12q-20 -13 -42.5 -20.5t-54.5 -7.5q-41 0 -73 20.5t-50 61.5l-41 92q-55 7 -97 30.5t-70 59.5
t-42.5 82.5t-14.5 98.5q-1 52 12 106t37.5 104t59.5 94t79 76.5t95.5 50.5t109.5 17zM435 675q-41 1 -77 -18t-65.5 -51.5t-53 -76t-39.5 -91t-24.5 -96.5t-7.5 -93q0 -48 8 -89.5t25.5 -72t45 -48t65.5 -17.5q41 -1 77 18.5t65.5 52.5t53 77t39.5 92t24 97.5t8 93.5
q0 48 -8 88.5t-25.5 70.5t-45 46.5t-65.5 16.5z" />
    <glyph glyph-name="R" unicode="R" horiz-adv-x="691" 
d="M318 665l-69 -324h49q47 0 86 12.5t66.5 36.5t43 60.5t15.5 84.5q0 57 -32.5 93.5t-103.5 36.5h-55zM241 303l-43 -202q-4 -23 -3.5 -35.5t8 -19t23 -10t41.5 -6.5l-6 -30h-287l7 30q29 4 46.5 7.5t27 10.5t15 19t10.5 34l107 500q4 22 3.5 35t-8 19.5t-23 10t-41.5 6.5
l6 30h292q58 0 99.5 -13t67 -35.5t37.5 -53t12 -64.5q0 -49 -21.5 -86.5t-54 -64t-70 -42.5t-69.5 -22l114 -207q13 -23 24.5 -38.5t24.5 -25.5t28.5 -14.5t35.5 -5.5l-6 -30h-160q-19 15 -33.5 37t-31.5 56l-106 210h-66z" />
    <glyph glyph-name="S" unicode="S" horiz-adv-x="542" 
d="M495 214q0 -53 -21.5 -94.5t-58.5 -70.5t-85 -44t-101 -15q-39 0 -73.5 6.5t-62.5 17.5t-50 24t-35 27l27 168h31q4 -102 47 -154.5t123 -52.5q67 0 107.5 36.5t40.5 101.5q0 27 -7 47.5t-23.5 37t-42.5 32.5t-63 34q-69 33 -106 76.5t-37 107.5q0 47 17.5 86t50 67.5
t78.5 44t102 15.5q58 0 108 -17t86 -45l-29 -148h-29q0 85 -34 129.5t-109 44.5q-31 0 -56 -10t-42.5 -28t-27 -42.5t-9.5 -52.5q0 -24 6 -42t19.5 -33t34.5 -28t50 -28q38 -17 70 -37t55 -44t36 -52.5t13 -64.5z" />
    <glyph glyph-name="T" unicode="T" horiz-adv-x="659" 
d="M477 669l-120 -568q-4 -22 -2.5 -35t10 -20t26 -10t46.5 -6l-7 -30h-306l6 30q31 4 50 7.5t30.5 10.5t17.5 19.5t11 33.5l121 568h-63q-31 0 -54.5 -9t-45.5 -30q-11 -10 -21.5 -23t-22.5 -30.5t-27.5 -40.5t-34.5 -53h-27l62 219h598l-32 -219h-26q-6 33 -10 56.5
t-8 40.5t-8 29t-10 22q-11 20 -29.5 29t-49.5 9h-74z" />
    <glyph glyph-name="U" unicode="U" horiz-adv-x="715" 
d="M659 601q4 22 3 35t-8.5 19.5t-24 10t-44.5 6.5l6 30h219l-7 -30q-30 -4 -47 -7.5t-26.5 -10.5t-14.5 -19t-11 -34l-77 -362q-26 -126 -102.5 -187.5t-185.5 -61.5q-63 0 -113 19t-82 55t-43.5 88.5t2.5 119.5l70 329q4 22 3.5 35t-8 19.5t-23 10t-41.5 6.5l6 30h287
l-7 -30q-30 -4 -47 -7.5t-26.5 -10.5t-14.5 -19t-11 -34l-71 -334q-10 -48 -5.5 -88t23 -69t50.5 -45t76 -16q93 0 145 49t76 159z" />
    <glyph glyph-name="V" unicode="V" horiz-adv-x="683" 
d="M363 149l262 439q20 31 20 50q0 17 -18.5 24.5t-60.5 9.5l6 30h203l-7 -30q-24 -4 -39 -10t-28 -27l-388 -643h-28l-140 643q-4 20 -17 26.5t-34 10.5l7 30h269l-7 -30q-48 -2 -73.5 -12t-25.5 -43q0 -7 1.5 -13.5t3.5 -16.5z" />
    <glyph glyph-name="W" unicode="W" horiz-adv-x="931" 
d="M646 165l230 419q7 15 11 22.5t6 12t2.5 8t1.5 9.5q0 16 -15 25t-62 11l6 30h198l-7 -30q-23 -4 -39 -10t-27 -27l-359 -643h-30l-50 419l-241 -419h-30l-96 643q-2 19 -16 26t-35 11l7 30h263l-6 -30q-54 -4 -73.5 -14t-19.5 -37q0 -10 0.5 -18.5t2.5 -16.5l59 -425
l177 311l-19 163q-2 19 -15.5 26t-33.5 11l7 30h252l-7 -30q-27 -2 -45 -5.5t-28.5 -9.5t-14.5 -15t-4 -22q0 -8 1 -17t1 -17z" />
    <glyph glyph-name="X" unicode="X" horiz-adv-x="685" 
d="M332 310l-185 -198q-15 -17 -22.5 -28.5t-7.5 -23.5q0 -15 18 -21.5t56 -8.5l-6 -30h-230l7 30q15 1 27 3.5t23 7.5t22 13.5t24 22.5l257 271l-124 277q-11 25 -29 36t-44 11l7 30h283l-6 -30q-42 0 -64.5 -6t-22.5 -26q0 -11 3.5 -20.5t11.5 -29.5l73 -165l153 165
q15 17 24 29.5t9 23.5q0 16 -17 22.5t-56 6.5l6 30h226l-7 -30q-30 -2 -51.5 -12t-46.5 -35l-224 -237l138 -309q12 -26 29 -37.5t45 -11.5l-6 -30h-286l7 30q45 2 67 7.5t22 28.5q0 12 -13 43z" />
    <glyph glyph-name="Y" unicode="Y" horiz-adv-x="638" 
d="M382 278l-38 -177q-4 -22 -2.5 -35t10.5 -20t26 -10t46 -6l-7 -30h-301l7 30q31 4 50 7.5t30.5 10.5t17.5 19.5t11 33.5l36 176l-123 358q-6 19 -18.5 26t-32.5 11l7 30h267l-7 -30q-28 -1 -46 -3.5t-28.5 -7.5t-14.5 -12.5t-4 -18.5v-8.5t1 -6.5t3 -10.5t5 -19.5
l92 -261l201 261q10 15 19.5 28t9.5 27q0 16 -16.5 23t-60.5 9l7 30h201l-7 -30q-21 -4 -37 -11.5t-30 -25.5z" />
    <glyph glyph-name="Z" unicode="Z" horiz-adv-x="613" 
d="M131 36h197q59 0 101 36q12 9 23.5 20.5t25 27.5t30 37t37.5 49h29l-77 -206h-520l4 20l535 646h-193q-30 0 -51.5 -8t-40.5 -26q-9 -9 -17.5 -19t-19 -24t-23 -33t-30.5 -46h-28l48 192h507l-5 -21z" />
    <glyph glyph-name="bracketleft" unicode="[" horiz-adv-x="318" 
d="M109 -52q-7 -37 15 -47q12 -6 30 -8.5t53 -4.5l-5 -29h-191l193 911h191l-6 -29q-36 -2 -55.5 -4.5t-33.5 -8.5q-28 -10 -35 -47z" />
    <glyph glyph-name="backslash" unicode="\" horiz-adv-x="374" 
d="M237 -141l-102 911h44l102 -911h-44z" />
    <glyph glyph-name="bracketright" unicode="]" horiz-adv-x="318" 
d="M237 681q7 37 -15 47q-12 6 -30 8.5t-54 4.5l6 29h191l-193 -911h-191l6 29q36 2 55.5 4.5t33.5 8.5q28 10 35 47z" />
    <glyph glyph-name="asciicircum" unicode="^" horiz-adv-x="464" 
d="M366 770l104 -290h-50l-87 251l-195 -251h-55l226 290h57z" />
    <glyph glyph-name="underscore" unicode="_" horiz-adv-x="396" 
d="M308 -113h-355l9 47h356z" />
    <glyph glyph-name="grave" unicode="`" horiz-adv-x="382" 
d="M166 762h115l53 -168h-25l-143 162v6z" />
    <glyph glyph-name="a" unicode="a" horiz-adv-x="566" 
d="M317 64q0 10 3 29t8.5 42t12 46.5t13.5 42.5q-23 -48 -50 -91t-56 -74.5t-59.5 -50t-60.5 -18.5q-52 0 -80 39.5t-28 109.5q-1 75 26 146.5t71 127.5t100.5 89t114.5 32q35 0 59.5 -10.5t45.5 -31.5l82 49h24l-36 -117l-74 -302q-4 -17 -4.5 -18.5t-1.5 -7.5
q-1 -5 -1.5 -9.5t-0.5 -7.5q0 -15 14 -15t35 16.5t53 57.5l17 -13q-24 -35 -44.5 -60.5t-39 -42t-37 -24.5t-38.5 -8q-33 0 -50.5 20t-17.5 54zM175 67q27 0 59 27.5t64.5 78t62 122t51.5 159.5q-8 22 -28 35.5t-43 13.5q-41 1 -79.5 -31t-68 -84t-47 -116t-16.5 -126
q0 -36 11 -57.5t34 -21.5z" />
    <glyph glyph-name="b" unicode="b" horiz-adv-x="559" 
d="M304 783l-124 -499q22 48 52 93t64 80t68.5 56t65.5 21q51 0 80 -39t29 -109q1 -77 -28 -149t-76 -127.5t-105.5 -88t-116.5 -31.5q-31 0 -60.5 8.5t-54.5 24t-43 38t-26 50.5l146 585l-65 31l4 16l175 40h15zM381 458q-28 1 -66 -29.5t-75 -83t-68 -123t-46 -149.5
q8 -26 31 -38t49 -12q28 -1 55.5 14t52 41.5t45.5 62t36.5 74.5t23.5 80t8 79t-10 61t-36 23z" />
    <glyph glyph-name="c" unicode="c" horiz-adv-x="428" 
d="M297 502q-35 0 -65 -29.5t-52.5 -76t-35.5 -102.5t-13 -108q0 -28 5.5 -52.5t17 -42.5t29.5 -28.5t43 -10.5q42 0 73 23t68 69l18 -15q-18 -28 -39 -53.5t-46.5 -44.5t-55 -30t-63.5 -11q-38 0 -68 13.5t-50.5 37.5t-31 57t-10.5 71q-1 66 23 132t66 118t97 84t115 31
q56 0 87 -23t31 -63q0 -29 -17 -45.5t-44 -22.5h-17q1 26 -1.5 48t-10 38.5t-20.5 26t-33 9.5z" />
    <glyph glyph-name="d" unicode="d" horiz-adv-x="585" 
d="M479 696l-64 31l3 16l176 40h14l-163 -661q-4 -14 -6.5 -25.5t-2.5 -17.5q0 -15 14 -15t35 17t53 57l17 -13q-48 -71 -83 -103t-76 -32q-32 0 -49.5 20t-17.5 54q0 10 3.5 30.5t9.5 45.5t13 50.5t14 45.5q-22 -49 -51 -93.5t-61 -78.5t-65 -54t-63 -20q-51 0 -80 39.5
t-29 109.5q-1 75 27 146.5t73.5 127.5t102.5 89t114 32q32 0 52.5 -7.5t40.5 -25.5zM176 67q27 0 60.5 28t67.5 79t64.5 122.5t51.5 157.5q-8 22 -28.5 35.5t-44.5 13.5q-42 2 -81.5 -31t-70 -85t-48 -115t-16.5 -120q0 -38 10.5 -61.5t34.5 -23.5z" />
    <glyph glyph-name="e" unicode="e" horiz-adv-x="442" 
d="M444 433q0 -45 -25 -78.5t-68 -56.5q-43 -22 -96 -37t-123 -29q0 -10 -1 -19t-1 -18q0 -67 27.5 -104t76.5 -37q43 0 79 23.5t74 71.5l19 -15q-48 -72 -101 -108t-119 -36q-78 0 -121.5 50.5t-43.5 134.5q-1 65 23.5 129.5t65.5 116t95.5 83t113.5 30.5q64 0 94.5 -29.5
t30.5 -71.5zM302 501q-30 0 -57 -21t-49 -55.5t-38 -78.5t-23 -90q109 26 162.5 69.5t53.5 117.5q0 24 -11.5 41t-37.5 17z" />
    <glyph glyph-name="f" unicode="f" horiz-adv-x="298" 
d="M39 471l6 28l81 19q12 57 34 105.5t52 84t67.5 55.5t81.5 20q49 0 78.5 -21t29.5 -57q0 -23 -15.5 -40.5t-42.5 -23.5h-26q1 22 -1 42t-8 35t-16.5 24t-26.5 9q-35 0 -59.5 -61.5t-32.5 -176.5h114l-10 -42h-110l-70 -306q-23 -104 -48.5 -175.5t-56 -116t-67 -64
t-80.5 -19.5q-43 0 -70 18t-27 49q0 29 18.5 44t41.5 19h15q2 -45 16 -71.5t37 -26.5q14 0 25 8t22 33.5t22.5 73.5t26.5 127l76 407h-77z" />
    <glyph glyph-name="g" unicode="g" horiz-adv-x="481" 
d="M346 408q0 42 -14.5 70t-49.5 28q-25 0 -47 -16.5t-39 -44.5t-27 -65t-10 -77q0 -42 14.5 -70t49.5 -28q25 0 47.5 16.5t39.5 44t26.5 64.5t9.5 78zM449 386q0 -47 -18 -85.5t-49 -66.5t-72.5 -43t-88.5 -15q-35 0 -63 9q-17 -11 -26.5 -21t-9.5 -22q0 -13 10.5 -18.5
t27.5 -10.5l159 -47q25 -7 47.5 -17t39 -24.5t26 -34.5t9.5 -47q0 -40 -21.5 -71t-58 -52t-86 -31.5t-105.5 -10.5q-49 0 -93.5 10t-78.5 28t-54 43.5t-20 55.5q0 27 12.5 47t34.5 34t51 23.5t62 17.5q-14 11 -23 25t-9 34q0 32 21.5 54.5t64.5 42.5q-40 18 -60.5 53
t-20.5 80q0 46 18 84.5t49 66t72 42.5t88 15q22 0 42 -4t36 -12l176 7l-15 -54h-48l-60 9q34 -42 34 -94zM100 25q-42 -16 -64 -40.5t-22 -60.5q0 -51 45 -82t119 -31q83 0 126.5 25t43.5 63q0 29 -17.5 42t-53.5 27z" />
    <glyph glyph-name="h" unicode="h" horiz-adv-x="568" 
d="M310 783l-125 -496q23 44 54.5 88t67 79.5t73 57.5t72.5 22q38 0 53 -19.5t15 -54.5q0 -10 -2 -22l-4 -24l-78 -292q-4 -14 -6.5 -25.5t-2.5 -17.5q0 -15 14 -15t35 17t53 57l17 -13q-48 -71 -83 -103t-76 -32q-33 0 -51 20.5t-18 53.5q0 17 3 37.5t11 47.5l72 260
q2 9 3.5 17.5t1.5 14.5q0 21 -18 21q-22 0 -56 -26t-69.5 -70t-66.5 -101.5t-47 -121.5l-36 -143h-109l173 696l-64 31l4 16l175 40h15z" />
    <glyph glyph-name="i" unicode="i" horiz-adv-x="289" 
d="M228 607q-29 0 -48 19t-19 45q0 30 20.5 51t51.5 21q29 0 48 -19t19 -45q0 -29 -21 -50.5t-51 -21.5zM119 443l-59 33l4 15l173 43h15l-103 -412q-4 -14 -6.5 -25.5t-2.5 -17.5q0 -15 14 -15q15 0 34.5 17t53.5 57l17 -13q-24 -35 -44.5 -60.5t-39 -42t-37 -24.5
t-38.5 -8q-33 0 -50.5 20.5t-17.5 53.5q0 18 2.5 37t10.5 48z" />
    <glyph glyph-name="j" unicode="j" horiz-adv-x="257" 
d="M222 607q-29 0 -48 19t-19 45q0 30 21 51t51 21q29 0 48 -19t19 -45q0 -29 -21 -50.5t-51 -21.5zM254 534l-93 -404q-21 -93 -46.5 -158t-57 -105.5t-69 -58.5t-82.5 -18q-43 0 -70 17.5t-27 50.5q0 28 18.5 43t41.5 19h15q2 -45 16 -71.5t37 -26.5q14 0 24 7.5t19 27
t18.5 53.5t21.5 86l103 447l-59 33l3 15l172 43h15z" />
    <glyph glyph-name="k" unicode="k" horiz-adv-x="531" 
d="M117 0h-110l174 696l-64 31l4 16l175 40h15zM288 336l84 -214q19 -46 18 -44t3 -4q5 -7 11 -11.5t14 -4.5q17 0 33 16.5t44 49.5l16 -13q-39 -63 -70 -92t-72 -29q-40 0 -61.5 27.5t-38.5 75.5l-65 191l172 191q28 32 50 45.5t48 13.5q34 0 50.5 -19t16.5 -44
q0 -27 -16 -45t-46 -30h-8q0 22 -9.5 40t-33.5 18q-20 0 -36 -11t-39 -36z" />
    <glyph glyph-name="l" unicode="l" horiz-adv-x="281" 
d="M304 783l-162 -661q-4 -14 -6.5 -25.5t-2.5 -17.5q0 -15 14 -15t35 17t53 57l17 -13q-48 -71 -83 -103t-75 -32q-33 0 -51 20.5t-18 53.5q0 17 3 36.5t11 48.5l135 547l-64 31l4 16l175 40h15z" />
    <glyph glyph-name="m" unicode="m" horiz-adv-x="854" 
d="M453 534q37 0 52 -19t15 -51q0 -24 -9.5 -66.5t-31.5 -110.5q24 44 54 88t64 79.5t70 57.5t71 22q38 0 53 -19.5t15 -54.5q0 -10 -2 -22l-4 -24l-78 -292q-4 -14 -6.5 -25.5t-2.5 -17.5q0 -15 14 -15t35 17t53 57l17 -13q-48 -71 -83 -103t-76 -32q-33 0 -51 20.5
t-18 53.5q0 17 3 37.5t11 47.5l71 260q6 19 6 32q0 21 -18 21q-21 1 -54 -25.5t-67.5 -71t-64 -102.5t-44.5 -120l-36 -143h-109l102 409q6 19 6 32q0 21 -18 21q-21 1 -54 -25.5t-67.5 -71t-64 -102.5t-44.5 -120l-36 -143h-109l111 443l-59 33l3 15l174 43h15l-67 -247
q23 45 53.5 89t64 79t70 57t71.5 22z" />
    <glyph glyph-name="n" unicode="n" horiz-adv-x="577" 
d="M261 534l-67 -247q23 44 54.5 88t67.5 79.5t73.5 57.5t72.5 22q38 0 53 -19.5t15 -54.5q0 -10 -2 -22l-4 -24l-78 -292q-4 -14 -6.5 -25.5t-2.5 -17.5q0 -15 14 -15t35 17t53 57l17 -13q-48 -71 -83 -103t-76 -32q-33 0 -51 20.5t-18 53.5q0 17 3 37.5t11 47.5l71 260
q6 19 6 32q0 21 -18 21q-22 0 -56 -26t-69.5 -70t-66.5 -101.5t-47 -121.5l-36 -143h-109l111 443l-59 33l3 15l174 43h15z" />
    <glyph glyph-name="o" unicode="o" horiz-adv-x="502" 
d="M481 345q0 -63 -22.5 -126t-61.5 -114t-91.5 -83t-113.5 -32q-79 0 -125 49t-46 140q0 41 10 83.5t28.5 82.5t45 74.5t59 60.5t70 40.5t77.5 13.5q79 0 124.5 -49t45.5 -140zM129 153q0 -57 16 -94.5t55 -37.5q23 -1 45 15t41.5 43t35.5 63t27.5 75t17.5 79t6 75
q0 57 -16 94.5t-55 37.5q-23 1 -44.5 -15t-41 -43t-36 -63t-28 -75t-18 -79t-5.5 -75z" />
    <glyph glyph-name="p" unicode="p" horiz-adv-x="570" 
d="M392 458q-28 1 -63.5 -29t-70.5 -82t-65.5 -122.5t-48.5 -150.5q10 -23 30 -36.5t45 -13.5q28 0 55.5 15t51.5 41.5t44.5 61t35.5 73.5t23.5 79.5t8.5 79.5q0 38 -10.5 61t-35.5 23zM261 534l-66 -251q22 48 51.5 93t62.5 80.5t67 56.5t65 21q51 0 80 -39t29 -109
q1 -51 -12 -100.5t-36.5 -94t-54.5 -81.5t-67 -64t-74.5 -42t-75.5 -14q-34 0 -56.5 10.5t-39.5 28.5l-39 -156q-3 -10 -4 -14.5t-1 -10.5q0 -17 18.5 -24t70.5 -7l-6 -29h-273l6 29q20 1 33 3t21.5 7t14 14t9.5 23l145 579l-59 33l3 15l173 43h15z" />
    <glyph glyph-name="q" unicode="q" horiz-adv-x="552" 
d="M519 424l-144 -552q-5 -18 -5 -24q0 -18 14.5 -23.5t46.5 -7.5l-7 -29h-264l6 29q28 1 45 3t27.5 7.5t16 14t9.5 23.5l101 365q-22 -49 -50.5 -92.5t-60 -76.5t-63.5 -52t-62 -19q-51 0 -80 39.5t-29 109.5q-1 75 27 146.5t73.5 127.5t102.5 89t114 32q71 0 113 -42
l81 49h24zM176 67q27 0 60.5 28t67.5 79t64.5 122.5t51.5 157.5q-8 22 -28.5 35.5t-44.5 13.5q-42 2 -81.5 -31t-70 -85t-48 -115t-16.5 -120q0 -38 10.5 -61.5t34.5 -23.5z" />
    <glyph glyph-name="r" unicode="r" horiz-adv-x="412" 
d="M261 534l-48 -178l-43 -128q38 79 67 133t56 93q28 39 53.5 59.5t51.5 20.5q27 0 41.5 -16.5t14.5 -42.5q0 -33 -19 -56.5t-51 -37.5h-8q0 18 -6 30.5t-25 12.5q-23 0 -52.5 -31t-59.5 -87.5t-58.5 -134.5t-48.5 -171h-109l111 443l-59 33l3 15l174 43h15z" />
    <glyph glyph-name="s" unicode="s" horiz-adv-x="392" 
d="M184 28q74 0 74 70q0 25 -20 48q-21 26 -69 71q-48 48 -72.5 84.5t-24.5 75.5q0 32 14 60.5t38 50t57 34t71 12.5q58 0 93.5 -23.5t35.5 -64.5q0 -22 -16.5 -36.5t-34.5 -22.5h-5q-16 46 -44 77.5t-71 31.5q-31 0 -47.5 -17.5t-16.5 -47.5q0 -22 19 -44q10 -11 27.5 -29
t42.5 -43q51 -51 76 -87t25 -73t-15 -67.5t-40.5 -52t-59 -33.5t-70.5 -12q-71 0 -114 31t-43 78q0 25 14 43t36 28h6q14 -64 48.5 -103t85.5 -39z" />
    <glyph glyph-name="t" unicode="t" horiz-adv-x="331" 
d="M235 471l-84 -334q-4 -17 -6 -28t-2 -22q0 -26 25 -26q13 0 26 4.5t27 15t31 27.5t39 42l17 -13q-54 -76 -99 -111.5t-93 -35.5q-38 0 -59.5 22.5t-21.5 59.5q0 17 2 34.5t8 40.5l81 324h-65l6 23q57 18 101 56t83 92h26l-32 -129h112l-10 -42h-112z" />
    <glyph glyph-name="u" unicode="u" horiz-adv-x="578" 
d="M423 518l115 8l-99 -404l-6.5 -26t-2.5 -17q0 -15 14 -15t35 17t53 57l17 -13q-48 -71 -83 -103t-76 -32q-32 0 -49.5 20t-17.5 54q0 10 3.5 29.5t8.5 43.5t12 50.5t14 52.5q-20 -44 -49 -88.5t-62 -80.5t-69 -58.5t-69 -22.5q-39 0 -59.5 23.5t-20.5 58.5q0 23 8 53
l82 318l-59 33l3 15l174 43h15l-103 -401q-4 -15 -6 -25.5t-2 -19.5q0 -12 6.5 -19.5t18.5 -7.5q21 -1 53 25t64 71t61 105t44 127z" />
    <glyph glyph-name="v" unicode="v" horiz-adv-x="469" 
d="M79 449l-59 28l5 15l149 42h6l30 -437l106 131q40 50 58 87t18 78t-25 61t-70 16v10q14 20 38.5 37t54.5 17q23 0 39 -7.5t25.5 -20t13.5 -28.5t4 -32q0 -26 -7.5 -51t-23 -52.5t-39 -58t-54.5 -67.5l-195 -226h-36z" />
    <glyph glyph-name="w" unicode="w" horiz-adv-x="707" 
d="M332 449l-57 28l5 14l147 43h7l27 -432l97 126q38 50 54.5 87t16.5 78t-25 61t-70 16v10q15 20 39 37t55 17q23 0 38.5 -7.5t25 -20t13.5 -28.5t4 -32q-1 -26 -8.5 -51t-22.5 -52t-37 -58t-52 -68l-184 -226h-35l-21 252l-197 -252h-35l-38 458l-59 28l5 15l149 42h6
l30 -426l135 175z" />
    <glyph glyph-name="x" unicode="x" horiz-adv-x="548" 
d="M218 240l-52 207l-76 33l5 16l152 39h8l48 -198l66 102q30 48 55.5 72t63.5 24q30 0 47 -17.5t17 -45.5q0 -29 -18.5 -46.5t-41.5 -26.5h-7q0 27 -9 42.5t-30 15.5t-35.5 -14.5t-37.5 -47.5l-62 -93l47 -193q5 -24 10.5 -35t21.5 -11q37 0 100 70l15 -16
q-54 -71 -93.5 -99t-76.5 -28q-34 0 -50.5 23.5t-26.5 68.5l-31 121l-74 -118q-29 -46 -55.5 -70.5t-64.5 -24.5q-30 0 -48.5 18t-18.5 47q0 32 18 49.5t38 27.5h7q-2 -33 10.5 -48t30.5 -15t36.5 13t42.5 48z" />
    <glyph glyph-name="y" unicode="y" horiz-adv-x="492" 
d="M78 449l-60 28l5 15l147 42h7l79 -487l44 65q36 55 58.5 96.5t35 74t17 58t4.5 48.5q0 43 -26 64t-71 17v10q14 20 38.5 37t54.5 17q23 0 39 -7.5t25.5 -20t14 -29t4.5 -33.5q0 -28 -10.5 -61.5t-32 -76t-54 -95.5t-76.5 -120q-61 -92 -109.5 -150.5t-88.5 -91.5
t-74 -45.5t-65 -12.5q-18 0 -35 4.5t-30 14.5t-21 25t-8 35q0 24 15.5 44t39.5 26h7q0 -42 18.5 -65.5t54.5 -23.5q16 0 32.5 3.5t34 13t37.5 26.5t43 44z" />
    <glyph glyph-name="z" unicode="z" horiz-adv-x="468" 
d="M371 428h-189q-25 0 -35.5 -7t-24.5 -27l-29 -43l-17 6l73 202h17q2 -17 7 -28t20 -11h307v-14l-387 -367l81 -29q45 -14 42 -14q0 -1 2 -1q2 -1 3.5 -1t4.5 -1q22 -5 46 -5q35 0 62 19.5t53 71.5l18 -8q-17 -51 -33.5 -86t-35 -56.5t-42 -31t-53.5 -9.5q-16 0 -29.5 2.5
t-28.5 8t-32 13.5t-39 20l-88 50l-36 -88q-22 0 -31 9.5t-9 21.5q0 10 5 21.5t17 23.5z" />
    <glyph glyph-name="braceleft" unicode="{" horiz-adv-x="347" 
d="M74 321q39 8 66 30t38 70l47 221q12 59 66 93.5t133 34.5l-4 -23q-44 -4 -72.5 -26t-38.5 -72l-47 -220q-5 -27 -15.5 -45t-26.5 -31t-37.5 -21.5t-49.5 -16.5q24 -8 42 -16.5t28.5 -21.5t13.5 -31.5t-3 -44.5l-47 -220q-10 -50 8.5 -72t60.5 -26l-5 -23q-81 0 -119 34
t-26 94l46 221q5 24 2.5 41t-11 29t-22 19t-31.5 11z" />
    <glyph glyph-name="bar" unicode="|" horiz-adv-x="214" 
d="M242 770l-193 -911h-45l193 911h45z" />
    <glyph glyph-name="braceright" unicode="}" horiz-adv-x="349" 
d="M302 309q-39 -8 -66 -30t-38 -70l-47 -221q-12 -59 -66 -93.5t-133 -34.5l4 23q42 4 71.5 26t39.5 72l47 220q5 26 15.5 44.5t26.5 31.5t37.5 21.5t48.5 16.5q-24 7 -41.5 16t-28 22t-13.5 31.5t3 44.5l47 220q10 50 -8.5 72t-60.5 26l5 23q81 0 119 -34t26 -94l-46 -221
q-11 -47 7.5 -69.5t53.5 -30.5z" />
    <glyph glyph-name="asciitilde" unicode="~" horiz-adv-x="461" 
d="M433 364q-22 -67 -49.5 -99.5t-75.5 -32.5q-21 0 -41 9t-49 26q-28 18 -46 26.5t-36 8.5q-26 0 -43 -15.5t-34 -48.5l-27 8q22 68 49.5 100t76.5 32q21 0 41 -9t48 -27q28 -17 46 -25.5t36 -8.5q26 0 43 16t35 48z" />
    <glyph glyph-name="uni00A0" unicode="&#xa0;" horiz-adv-x="193" 
 />
    <glyph glyph-name="exclamdown" unicode="&#xa1;" horiz-adv-x="251" 
d="M263 524q0 -31 -22.5 -53.5t-52.5 -22.5q-32 0 -53.5 22.5t-21.5 53.5q0 30 21.5 52.5t53.5 22.5q30 0 52.5 -22.5t22.5 -52.5zM-31 -113l180 492h24l-56 -492h-148z" />
    <glyph glyph-name="cent" unicode="&#xa2;" horiz-adv-x="471" 
d="M192 -115h-30l23 105q-41 1 -71.5 15.5t-51 38.5t-31 57t-10.5 71q0 63 22.5 126t61.5 114.5t91 87t111 44.5l23 101h30l-22 -99q2 0 4 0.5t4 0.5q59 0 92.5 -23t33.5 -64q0 -29 -18 -44.5t-48 -21.5h-16q6 48 -8.5 81.5t-50.5 37.5l-103 -464h8q48 0 82.5 24.5
t74.5 71.5l19 -15q-18 -26 -39 -50t-45.5 -42.5t-53 -30.5t-59.5 -15zM128 184q0 -48 17.5 -83t53.5 -47l101 457q-34 -8 -65 -40.5t-55 -78.5t-38 -100.5t-14 -107.5z" />
    <glyph glyph-name="sterling" unicode="&#xa3;" horiz-adv-x="641" 
d="M90 352l7 34h114l31 105q32 109 91 165t160 56q69 0 110.5 -29t41.5 -76q0 -27 -14.5 -47t-35.5 -28h-71q6 14 10 33t4 39q0 14 -2 28.5t-7.5 26t-15.5 19t-26 7.5q-39 0 -65 -48q-6 -12 -11.5 -24t-11 -26.5t-12 -33t-15.5 -42.5l-40 -125h169l-9 -34h-171l-30 -93
q-6 -20 -12 -36t-11.5 -29.5t-10.5 -26t-11 -25.5q47 -24 95.5 -41t102.5 -17q95 0 95 76q0 18 -7.5 32t-24.5 28l10 10q30 -14 53.5 -40.5t23.5 -68.5q0 -64 -40.5 -97.5t-104.5 -33.5q-36 0 -67 10q-17 5 -32.5 11t-29.5 14t-39 24t-61 41q-22 -43 -59 -71.5t-85 -28.5
q-52 0 -78.5 27.5t-26.5 65.5q0 46 31 74.5t77 28.5q19 0 37 -4.5t33 -10.5l52 181h-111zM56 32q31 0 49 24.5t34 78.5q-12 10 -28.5 14.5t-31.5 4.5q-35 0 -53.5 -19.5t-18.5 -51.5q0 -21 13.5 -36t35.5 -15z" />
    <glyph glyph-name="currency" unicode="&#xa4;" horiz-adv-x="577" 
d="M100 546l30 25l63 -74q56 45 130 45q34 0 65 -11.5t53 -33.5l82 74l24 -27l-83 -74q28 -44 28 -99q0 -44 -16 -83.5t-45 -70.5l65 -73l-29 -25l-63 74q-56 -45 -131 -45q-35 0 -66 11.5t-53 33.5l-81 -74l-24 27l83 74q-14 20 -21 45.5t-7 53.5q0 43 15.5 82.5t44.5 70.5
zM278 185q37 0 68.5 14.5t54.5 40t36.5 58.5t13.5 71q0 30 -10 55t-27.5 43.5t-42 28.5t-53.5 10q-37 0 -68.5 -15t-55 -40.5t-36.5 -59t-13 -70.5q0 -30 10 -55t27.5 -43t42 -28t53.5 -10z" />
    <glyph glyph-name="yen" unicode="&#xa5;" horiz-adv-x="612" 
d="M355 278l-10 -46h171l-8 -34h-170l-21 -97q-4 -22 -2.5 -35t10 -20t26 -10t46.5 -6l-7 -30h-299l7 30q32 4 51 7.5t30 10.5t16.5 19t10.5 34l20 97h-168l7 34h168l10 45l-12 37h-148l7 35h130l-91 286q-6 19 -18.5 26t-32.5 11l7 30h265l-7 -30q-28 -1 -46 -3.5
t-28.5 -7.5t-14.5 -12.5t-4 -18.5v-8.5t1 -6.5t3 -10.5t5 -19.5l83 -260l192 260q10 15 19.5 28t9.5 27q0 16 -16.5 23t-60.5 9l7 30h201l-7 -30q-23 -4 -38 -11t-29 -26l-213 -286h133l-6 -35h-153z" />
    <glyph glyph-name="brokenbar" unicode="&#xa6;" horiz-adv-x="214" 
d="M242 770l-80 -376h-45l80 376h45zM128 235l-79 -376h-45l79 376h45z" />
    <glyph glyph-name="section" unicode="&#xa7;" horiz-adv-x="518" 
d="M130 368q0 -61 18 -113q9 -26 22.5 -56.5t30.5 -65.5q18 -35 31 -62t21 -47q17 -42 17 -85q0 -26 -8.5 -46.5t-18.5 -34.5q30 20 55.5 50t44 67.5t29 80t10.5 86.5q0 30 -4.5 57.5t-13.5 55t-22.5 57t-31.5 64.5q-17 35 -30.5 62.5t-21.5 47.5q-16 39 -16 85q0 26 8 46
t18 35q-30 -20 -55.5 -50t-44 -67t-28.5 -79.5t-10 -87.5zM416 142q0 -63 -20.5 -125t-60 -110.5t-96.5 -78.5t-129 -30q-70 0 -102.5 27t-32.5 65q0 31 18.5 47t38.5 24h59q-5 -9 -7 -20t-2 -22q0 -15 3.5 -31t11.5 -30t22.5 -23t35.5 -9q37 0 59 31t22 82q0 42 -15 76
q-8 17 -20.5 43.5t-31.5 61.5q-18 36 -31.5 66.5t-23 60t-14 59t-4.5 62.5q0 63 20.5 125t59.5 110.5t96 78.5t129 30q70 0 102.5 -27t32.5 -65q0 -32 -18 -47.5t-39 -23.5h-58q4 11 6.5 21t2.5 21q0 15 -3.5 31t-12 30t-22.5 23t-35 9q-37 0 -59 -31t-22 -82q0 -42 15 -76
q8 -17 20.5 -44t30.5 -62t32 -65.5t23.5 -60t14 -59t4.5 -62.5z" />
    <glyph glyph-name="dieresis" unicode="&#xa8;" 
d="M326 606q-28 0 -45.5 18.5t-17.5 44.5q0 28 19.5 48.5t48.5 20.5t46.5 -17.5t17.5 -44.5q0 -29 -20 -49.5t-49 -20.5zM152 606q-29 0 -46.5 18.5t-17.5 44.5q0 28 20.5 48.5t48.5 20.5t45.5 -17.5t17.5 -44.5q0 -29 -19.5 -49.5t-48.5 -20.5z" />
    <glyph glyph-name="copyright" unicode="&#xa9;" horiz-adv-x="796" 
d="M393 -10q-73 0 -134.5 26t-106.5 71t-70 106t-25 132q0 81 29.5 151.5t81 123t121 82.5t149.5 30q73 0 134.5 -26t106.5 -71t70 -106t25 -132q0 -81 -29.5 -151.5t-81 -123t-121 -82.5t-149.5 -30zM393 14q75 0 140 28t113.5 77t76 115.5t27.5 142.5q0 66 -23.5 123
t-65 99t-98.5 65.5t-125 23.5q-75 0 -140 -28t-113.5 -77t-76 -115.5t-27.5 -142.5q0 -66 23.5 -123t65 -99t98.5 -65.5t125 -23.5zM394 142q-39 0 -71 12t-55.5 34t-36 52.5t-12.5 68.5q0 52 20 98.5t54 81.5t79 55t96 20q38 0 71 -11t53 -31l-20 -94h-21q-4 51 -21 78.5
t-58 27.5q-35 0 -64.5 -20.5t-52 -53t-35 -73.5t-12.5 -82q0 -59 22.5 -95.5t69.5 -36.5q42 0 74 29t61 86h24l-29 -108q-29 -17 -62.5 -27.5t-73.5 -10.5z" />
    <glyph glyph-name="ordfeminine" unicode="&#xaa;" horiz-adv-x="405" 
d="M406 717h19l-23 -75l-53 -194q-2 -10 -3.5 -14.5t-2 -7t-0.5 -3.5v-4q0 -9 9 -9q10 0 24 11t34 36l14 -11q-59 -87 -115 -87q-21 0 -32.5 13.5t-11.5 35.5q0 6 2 18t5 25.5t7 28t8 26.5h-2q-14 -30 -31 -57t-35.5 -47t-38.5 -31.5t-41 -11.5q-35 0 -55.5 27t-20.5 73
q0 49 18.5 95t47.5 81t66 56t75 21q23 0 42.5 -7.5t31.5 -21.5zM176 414q17 0 37 18.5t40.5 51t39 77t31.5 97.5q-16 28 -48 28q-24 0 -47 -20t-41 -52t-29 -72t-11 -80q0 -21 6.5 -34.5t21.5 -13.5z" />
    <glyph glyph-name="guillemotleft" unicode="&#xab;" horiz-adv-x="447" 
d="M199 271l1 6l232 194h32l-160 -197l75 -197h-32zM38 271l1 6l232 194h32l-160 -197l75 -197h-32z" />
    <glyph glyph-name="registered" unicode="&#xae;" horiz-adv-x="555" 
d="M308 257q-47 0 -86 16t-67.5 44.5t-44.5 67.5t-16 84q0 51 19 95t51.5 77t76.5 52t95 19q46 0 85.5 -16.5t68 -45t44.5 -67t16 -83.5q0 -51 -19 -95t-51.5 -77t-76.5 -52t-95 -19zM308 280q46 0 86 17t69.5 47t46.5 70t17 86q0 40 -14 74.5t-39.5 60t-60.5 40t-77 14.5
q-46 0 -86 -17t-69.5 -47t-46.5 -70t-17 -86q0 -40 14 -74.5t39.5 -60t60.5 -40t77 -14.5zM318 589l-21 -101h21q26 0 43.5 14.5t17.5 42.5q0 17 -11 30.5t-34 13.5h-16zM244 608h110q21 0 35.5 -5.5t23.5 -14t13 -19t4 -20.5q0 -18 -7 -30.5t-17.5 -21.5t-23.5 -14t-25 -7
l30 -57q8 -14 18.5 -22.5t22.5 -8.5l-3 -16h-56q-6 6 -14.5 17t-15.5 24l-28 57h-19l-12 -57q-4 -14 1 -19.5t22 -5.5l-3 -16h-107l4 16q19 0 25 5t10 19l32 151q4 14 0.5 19t-24.5 7z" />
    <glyph glyph-name="macron" unicode="&#xaf;" 
d="M114 623l12 58h259l-12 -58h-259z" />
    <glyph glyph-name="degree" unicode="&#xb0;" horiz-adv-x="268" 
d="M173 477q-45 0 -73.5 28.5t-28.5 73.5q0 27 9.5 51t27 42.5t41 29t50.5 10.5q45 0 73.5 -28.5t28.5 -74.5q0 -26 -9.5 -50t-27 -42t-41 -29t-50.5 -11zM175 510q39 0 62 29t23 70q0 30 -17 49.5t-46 19.5q-39 0 -62 -28.5t-23 -70.5q0 -30 17 -49.5t46 -19.5z" />
    <glyph glyph-name="plusminus" unicode="&#xb1;" horiz-adv-x="566" 
d="M319 603h53l-31 -147h194l-12 -53h-193l-31 -147h-53l31 147h-193l12 53h192zM30 144l11 53h438l-11 -53h-438z" />
    <glyph glyph-name="twosuperior" unicode="&#xb2;" horiz-adv-x="386" 
d="M250 379q18 0 30 1.5t22 7.5t20 17t25 30h19l-45 -128h-277l3 16q77 63 123 104.5t70 71.5t31.5 52.5t8.5 46.5q0 26 -16.5 41.5t-45.5 15.5t-55.5 -15.5t-43.5 -36.5l-13 14q23 37 62 65t91 28q49 0 78.5 -25.5t29.5 -71.5q0 -33 -15.5 -60t-41.5 -51
q-13 -12 -33.5 -28.5t-48.5 -37.5q-28 -20 -47 -34.5t-30 -22.5h99z" />
    <glyph glyph-name="threesuperior" unicode="&#xb3;" horiz-adv-x="367" 
d="M251 531q45 -6 72.5 -30.5t27.5 -66.5q0 -34 -14.5 -59.5t-37.5 -42.5t-53 -25.5t-60 -8.5q-65 0 -97.5 25.5t-32.5 57.5q0 17 10 30t26 19h46q-7 -22 -7 -44q0 -26 14 -45t42 -19q36 0 58.5 25.5t22.5 69.5q0 36 -18 59t-51 23q-8 0 -15 -0.5t-17 -2.5l-3 17
q25 9 46.5 18.5t37.5 21.5t25 26.5t9 31.5q0 20 -12 33t-36 13q-29 0 -52.5 -13.5t-44.5 -34.5l-15 13q22 40 60 65t88 25q46 0 71.5 -20.5t25.5 -56.5q0 -22 -10.5 -39.5t-27 -30t-37 -21t-41.5 -13.5z" />
    <glyph glyph-name="acute" unicode="&#xb4;" 
d="M233 762h123l-1 -6l-186 -162h-25z" />
    <glyph glyph-name="mu" unicode="&#xb5;" horiz-adv-x="591" 
d="M86 -186l-110 -10l159 639l-59 33l4 15l173 43h15l-102 -407l-4.5 -21t-1.5 -18q0 -12 6.5 -19.5t18.5 -7.5q21 -1 53 25t64 71t61 105t44 127l32 129l115 8l-99 -404l-6.5 -26t-2.5 -17q0 -15 14 -15t35 17t53 57l17 -13q-48 -71 -83 -103t-76 -32q-32 0 -49.5 20
t-17.5 54q0 10 3.5 29.5t8.5 43.5t12 50.5t14 52.5q-19 -41 -47.5 -84t-61.5 -79t-68.5 -59.5t-68.5 -25.5z" />
    <glyph glyph-name="paragraph" unicode="&#xb6;" horiz-adv-x="619" 
d="M399 669q-48 -1 -84.5 -25t-61 -61t-37.5 -81.5t-13 -87.5q0 -31 6 -60.5t18.5 -52t33 -36t50.5 -13.5zM216 -197l88 415q-54 0 -95.5 15t-69 42t-42 63t-14.5 78q0 61 23 113.5t65 91t102 60t134 21.5h275l-7 -32q-53 0 -81 -15.5t-38 -62.5l-167 -789h-40l183 865h-93
l-183 -865h-40z" />
    <glyph glyph-name="periodcentered" unicode="&#xb7;" horiz-adv-x="219" 
d="M30 303q0 34 23 56.5t56 22.5q34 0 57 -22.5t23 -56.5t-23 -57t-57 -23q-33 0 -56 23t-23 57z" />
    <glyph glyph-name="cedilla" unicode="&#xb8;" 
d="M154 -195q58 0 91 15.5t33 38.5q0 21 -22 29.5t-64 10.5l59 109h28l-29 -54q43 -2 69 -19.5t26 -51.5q0 -27 -13.5 -46.5t-38.5 -33t-59 -20t-74 -6.5z" />
    <glyph glyph-name="onesuperior" unicode="&#xb9;" horiz-adv-x="322" 
d="M303 712l-70 -329q-3 -16 -2 -25t8.5 -14.5t23 -7.5t40.5 -3l-6 -25h-247l6 25q25 2 40.5 4t24.5 6.5t14 13t9 23.5l49 236h-82l4 20l23 4q26 5 45 10t35 13t30.5 19.5t31.5 29.5h23z" />
    <glyph glyph-name="ordmasculine" unicode="&#xba;" horiz-adv-x="345" 
d="M381 588q0 -40 -15.5 -80.5t-41.5 -73.5t-61.5 -53.5t-74.5 -20.5q-52 0 -84.5 33t-32.5 91q0 40 15.5 80.5t41.5 73.5t61.5 53.5t74.5 20.5q52 0 84.5 -33t32.5 -91zM152 469q0 -36 9 -59t34 -23q21 0 40 21.5t33.5 53.5t22.5 70t8 71q0 36 -9 59t-33 23
q-21 0 -40 -21.5t-33.5 -53.5t-23 -70t-8.5 -71z" />
    <glyph glyph-name="guillemotright" unicode="&#xbb;" horiz-adv-x="447" 
d="M256 277l-1 -6l-232 -194h-32l160 197l-75 197h32zM417 277l-1 -6l-233 -194h-32l160 197l-74 197h32z" />
    <glyph glyph-name="onequarter" unicode="&#xbc;" horiz-adv-x="788" 
d="M99 -10l599 722h43l-599 -722h-43zM674 0h-209l5 25q21 2 33.5 3.5t20 5.5t11 11.5t6.5 20.5l8 40h-191l4 21l281 275h54l-57 -266h79l-6 -30h-79l-8 -40q-3 -13 -2.5 -20.5t6.5 -11.5t18 -5.5t31 -3.5zM410 136h146l38 178zM303 712l-70 -329q-3 -16 -2 -25t8.5 -14.5
t23 -7.5t40.5 -3l-6 -25h-247l6 25q25 2 40.5 4t24.5 6.5t14 13t9 23.5l49 236h-82l4 20l23 4q26 5 45 10t35 13t30.5 19.5t31.5 29.5h23z" />
    <glyph glyph-name="onehalf" unicode="&#xbd;" horiz-adv-x="799" 
d="M99 -10l599 722h43l-599 -722h-43zM624 72q18 0 30 1.5t22 7.5t20 17t25 30h19l-45 -128h-277l3 16q77 63 123 104.5t70 71.5t31.5 52.5t8.5 46.5q0 26 -16.5 41.5t-45.5 15.5t-55.5 -15.5t-43.5 -36.5l-13 15q23 37 62 65t91 28q49 0 78.5 -25.5t29.5 -72.5
q0 -33 -15.5 -60t-41.5 -51q-13 -12 -33.5 -28.5t-48.5 -37.5q-28 -20 -47 -34.5t-30 -22.5h99zM303 712l-70 -329q-3 -16 -2 -25t8.5 -14.5t23 -7.5t40.5 -3l-6 -25h-247l6 25q25 2 40.5 4t24.5 6.5t14 13t9 23.5l49 236h-82l4 20l23 4q26 5 45 10t35 13t30.5 19.5
t31.5 29.5h23z" />
    <glyph glyph-name="threequarters" unicode="&#xbe;" horiz-adv-x="789" 
d="M100 -10l599 722h44l-599 -722h-44zM676 0h-210l5 25q21 2 33.5 3.5t20 5.5t11 11.5t6.5 20.5l9 40h-192l4 21l281 275h54l-56 -266h79l-7 -30h-79l-8 -40q-3 -13 -2 -20.5t7 -11.5t17.5 -5.5t30.5 -3.5zM411 136h146l38 178zM251 531q45 -6 72.5 -30.5t27.5 -66.5
q0 -34 -14.5 -59.5t-37.5 -42.5t-53 -25.5t-60 -8.5q-65 0 -97.5 25.5t-32.5 57.5q0 17 10 30t26 19h46q-7 -22 -7 -44q0 -26 14 -45t42 -19q36 0 58.5 25.5t22.5 69.5q0 36 -18 59t-51 23q-8 0 -15 -0.5t-17 -2.5l-3 17q25 9 46.5 18.5t37.5 21.5t25 26.5t9 31.5
q0 20 -12 33t-36 13q-29 0 -52.5 -13.5t-44.5 -34.5l-15 13q22 40 60 65t88 25q46 0 71.5 -20.5t25.5 -56.5q0 -22 -10.5 -39.5t-27 -30t-37 -21t-41.5 -13.5z" />
    <glyph glyph-name="questiondown" unicode="&#xbf;" horiz-adv-x="431" 
d="M369 524q0 -31 -22.5 -53.5t-52.5 -22.5q-32 0 -53.5 22.5t-21.5 53.5q0 30 21.5 52.5t53.5 22.5q30 0 52.5 -22.5t22.5 -52.5zM186 140q-26 -15 -46.5 -29.5t-34.5 -31t-21.5 -37t-7.5 -47.5q0 -41 23 -66t66 -25q44 0 68.5 28.5t24.5 79.5q0 17 -1.5 26.5t-3.5 20.5h82
q11 -8 17.5 -23.5t6.5 -33.5q0 -29 -14.5 -52t-40 -39.5t-60.5 -25t-76 -8.5q-88 0 -139 42.5t-51 113.5q1 35 11 61t29 47t46 39t62 37q56 30 89.5 59.5t33.5 75.5q0 7 -2 17q-1 4 -3 11t-2 8h18q22 -18 34 -42.5t12 -53.5q0 -49 -30.5 -84t-89.5 -68z" />
    <glyph glyph-name="Agrave" unicode="&#xc0;" horiz-adv-x="707" 
d="M387 589l-188 -313h248zM454 239h-278l-75 -125q-19 -29 -19 -49q0 -17 19.5 -25t61.5 -10l-6 -30h-206l6 30q22 2 38 9.5t28 27.5l350 574l-14 68h120l126 -642q5 -20 17 -26.5t34 -10.5l-6 -30h-273l6 30q22 1 40 3t31 8t20 17t7 29q0 6 -0.5 12t-2.5 15zM291 898h119
l42 -149h-25l-136 143v6z" />
    <glyph glyph-name="Aacute" unicode="&#xc1;" horiz-adv-x="707" 
d="M387 589l-188 -313h248zM454 239h-278l-75 -125q-19 -29 -19 -49q0 -17 19.5 -25t61.5 -10l-6 -30h-206l6 30q22 2 38 9.5t28 27.5l350 574l-14 68h120l126 -642q5 -20 17 -26.5t34 -10.5l-6 -30h-273l6 30q22 1 40 3t31 8t20 17t7 29q0 6 -0.5 12t-2.5 15zM483 898h128
l-1 -6l-171 -143h-25z" />
    <glyph glyph-name="Acircumflex" unicode="&#xc2;" horiz-adv-x="707" 
d="M387 589l-188 -313h248zM454 239h-278l-75 -125q-19 -29 -19 -49q0 -17 19.5 -25t61.5 -10l-6 -30h-206l6 30q22 2 38 9.5t28 27.5l350 574l-14 68h120l126 -642q5 -20 17 -26.5t34 -10.5l-6 -30h-273l6 30q22 1 40 3t31 8t20 17t7 29q0 6 -0.5 12t-2.5 15zM509 907
l75 -158h-31l-97 89l-140 -89h-36l148 158h81z" />
    <glyph glyph-name="Atilde" unicode="&#xc3;" horiz-adv-x="707" 
d="M387 589l-188 -313h248zM454 239h-278l-75 -125q-19 -29 -19 -49q0 -17 19.5 -25t61.5 -10l-6 -30h-206l6 30q22 2 38 9.5t28 27.5l350 574l-14 68h120l126 -642q5 -20 17 -26.5t34 -10.5l-6 -30h-273l6 30q22 1 40 3t31 8t20 17t7 29q0 6 -0.5 12t-2.5 15zM504 752
q-18 0 -33 7t-35 21q-19 15 -31.5 21.5t-27.5 6.5q-22 0 -38 -13.5t-36 -42.5l-21 12q18 33 32 56t27.5 36.5t28 19.5t32.5 6t33 -7.5t34 -21.5q20 -14 32.5 -21t27.5 -7q21 0 37 14t36 43l22 -13q-17 -33 -31.5 -55.5t-28 -36t-28 -19.5t-32.5 -6z" />
    <glyph glyph-name="Adieresis" unicode="&#xc4;" horiz-adv-x="707" 
d="M387 589l-188 -313h248zM454 239h-278l-75 -125q-19 -29 -19 -49q0 -17 19.5 -25t61.5 -10l-6 -30h-206l6 30q22 2 38 9.5t28 27.5l350 574l-14 68h120l126 -642q5 -20 17 -26.5t34 -10.5l-6 -30h-273l6 30q22 1 40 3t31 8t20 17t7 29q0 6 -0.5 12t-2.5 15zM544 755
q-28 0 -45.5 18.5t-17.5 44.5q0 28 19.5 48.5t48.5 20.5t46.5 -17.5t17.5 -44.5q0 -29 -20 -49.5t-49 -20.5zM354 755q-29 0 -46.5 18.5t-17.5 44.5q0 28 20.5 48.5t48.5 20.5t45.5 -17.5t17.5 -44.5q0 -29 -19.5 -49.5t-48.5 -20.5z" />
    <glyph glyph-name="Aring" unicode="&#xc5;" horiz-adv-x="707" 
d="M387 589l-188 -313h248zM454 239h-278l-75 -125q-19 -29 -19 -49q0 -17 19.5 -25t61.5 -10l-6 -30h-206l6 30q22 2 38 9.5t28 27.5l350 574l-14 68h120l126 -642q5 -20 17 -26.5t34 -10.5l-6 -30h-273l6 30q22 1 40 3t31 8t20 17t7 29q0 6 -0.5 12t-2.5 15zM362 813
q0 21 7.5 39t20.5 31t31 20.5t38 7.5q39 0 62 -23t23 -58q0 -41 -28 -69.5t-69 -28.5q-39 0 -62 23t-23 58zM507 830q0 22 -13.5 35t-35.5 13q-28 0 -43.5 -19t-15.5 -45q0 -22 13.5 -35.5t35.5 -13.5q28 0 43.5 19t15.5 46z" />
    <glyph glyph-name="AE" unicode="&#xc6;" horiz-adv-x="992" 
d="M576 663l-317 -380h235zM887 0h-537l6 30q30 4 47.5 7.5t27.5 10.5t15 19.5t10 33.5l31 146h-258l-110 -133q-14 -16 -19.5 -26.5t-5.5 -22.5q0 -17 19.5 -25t62.5 -10l-6 -30h-219l6 30q22 2 39 12t40 36l473 565q-13 13 -36.5 18.5t-55.5 10.5l7 30h601l-32 -173h-24
q-9 41 -18 67.5t-22 42t-32 21.5t-48 6h-155l-61 -285h136q32 0 52 21.5t38 69.5h31l-47 -219h-31q2 48 -8 69t-43 21h-136l-51 -239q-8 -41 10.5 -54.5t69.5 -13.5h71q53 0 96 34q22 18 46 44.5t62 74.5h28z" />
    <glyph glyph-name="Ccedilla" unicode="&#xc7;" horiz-adv-x="653" 
d="M207 -195q58 0 91 15.5t33 38.5q0 21 -22 29.5t-64 10.5l50 92q-61 4 -108 25t-79 57t-48.5 85.5t-16.5 110.5q-1 82 30.5 161.5t87.5 142.5t133.5 101.5t167.5 37.5q66 0 120.5 -16t90.5 -44l-31 -152h-31q0 86 -37.5 131t-109.5 45q-47 1 -87.5 -17.5t-73.5 -50
t-58.5 -73.5t-43 -89t-26 -95t-8.5 -92q0 -111 40 -171.5t118 -60.5q80 0 139 49.5t107 152.5h36l-53 -183q-52 -26 -107.5 -41t-124.5 -15l-19 -36q43 -2 69 -19.5t26 -51.5q0 -27 -13.5 -46.5t-38.5 -33t-59 -20t-74 -6.5z" />
    <glyph glyph-name="Egrave" unicode="&#xc8;" horiz-adv-x="625" 
d="M520 0h-546l7 30q29 4 46.5 7.5t27 10.5t15 19t10.5 34l107 500q4 22 3.5 35t-8 19.5t-23 10t-41.5 6.5l6 30h534l-32 -173h-24q-9 41 -18 67.5t-22 42t-32.5 21.5t-47.5 6h-164l-60 -285h144q32 0 52 21.5t38 69.5h30l-46 -219h-31q2 48 -8 69t-43 21h-144l-51 -239
q-8 -41 10.5 -54.5t69.5 -13.5h79q53 0 96 34q22 18 46 45t61 74h29zM287 898h119l42 -149h-25l-136 143v6z" />
    <glyph glyph-name="Eacute" unicode="&#xc9;" horiz-adv-x="625" 
d="M520 0h-546l7 30q29 4 46.5 7.5t27 10.5t15 19t10.5 34l107 500q4 22 3.5 35t-8 19.5t-23 10t-41.5 6.5l6 30h534l-32 -173h-24q-9 41 -18 67.5t-22 42t-32.5 21.5t-47.5 6h-164l-60 -285h144q32 0 52 21.5t38 69.5h30l-46 -219h-31q2 48 -8 69t-43 21h-144l-51 -239
q-8 -41 10.5 -54.5t69.5 -13.5h79q53 0 96 34q22 18 46 45t61 74h29zM480 898h128l-1 -6l-171 -143h-25z" />
    <glyph glyph-name="Ecircumflex" unicode="&#xca;" horiz-adv-x="625" 
d="M520 0h-546l7 30q29 4 46.5 7.5t27 10.5t15 19t10.5 34l107 500q4 22 3.5 35t-8 19.5t-23 10t-41.5 6.5l6 30h534l-32 -173h-24q-9 41 -18 67.5t-22 42t-32.5 21.5t-47.5 6h-164l-60 -285h144q32 0 52 21.5t38 69.5h30l-46 -219h-31q2 48 -8 69t-43 21h-144l-51 -239
q-8 -41 10.5 -54.5t69.5 -13.5h79q53 0 96 34q22 18 46 45t61 74h29zM505 907l75 -158h-31l-97 89l-140 -89h-36l148 158h81z" />
    <glyph glyph-name="Edieresis" unicode="&#xcb;" horiz-adv-x="625" 
d="M520 0h-546l7 30q29 4 46.5 7.5t27 10.5t15 19t10.5 34l107 500q4 22 3.5 35t-8 19.5t-23 10t-41.5 6.5l6 30h534l-32 -173h-24q-9 41 -18 67.5t-22 42t-32.5 21.5t-47.5 6h-164l-60 -285h144q32 0 52 21.5t38 69.5h30l-46 -219h-31q2 48 -8 69t-43 21h-144l-51 -239
q-8 -41 10.5 -54.5t69.5 -13.5h79q53 0 96 34q22 18 46 45t61 74h29zM540 755q-28 0 -45.5 18.5t-17.5 44.5q0 28 19.5 48.5t48.5 20.5t46.5 -17.5t17.5 -44.5q0 -29 -20 -49.5t-49 -20.5zM350 755q-29 0 -46.5 18.5t-17.5 44.5q0 28 20.5 48.5t48.5 20.5t45.5 -17.5
t17.5 -44.5q0 -29 -19.5 -49.5t-48.5 -20.5z" />
    <glyph glyph-name="Igrave" unicode="&#xcc;" horiz-adv-x="342" 
d="M187 601q4 22 3.5 35t-8 19.5t-23 10t-41.5 6.5l6 30h287l-7 -30q-30 -4 -47 -7.5t-26.5 -10.5t-14.5 -19t-11 -34l-107 -500q-4 -23 -3.5 -35.5t8 -19t23 -10t42.5 -6.5l-7 -30h-287l7 30q29 4 46.5 7.5t27 10.5t15 19t10.5 34zM131 898h119l42 -149h-25l-136 143v6z
" />
    <glyph glyph-name="Iacute" unicode="&#xcd;" horiz-adv-x="342" 
d="M187 601q4 22 3.5 35t-8 19.5t-23 10t-41.5 6.5l6 30h287l-7 -30q-30 -4 -47 -7.5t-26.5 -10.5t-14.5 -19t-11 -34l-107 -500q-4 -23 -3.5 -35.5t8 -19t23 -10t42.5 -6.5l-7 -30h-287l7 30q29 4 46.5 7.5t27 10.5t15 19t10.5 34zM333 898h128l-1 -6l-171 -143h-25z" />
    <glyph glyph-name="Icircumflex" unicode="&#xce;" horiz-adv-x="342" 
d="M187 601q4 22 3.5 35t-8 19.5t-23 10t-41.5 6.5l6 30h287l-7 -30q-30 -4 -47 -7.5t-26.5 -10.5t-14.5 -19t-11 -34l-107 -500q-4 -23 -3.5 -35.5t8 -19t23 -10t42.5 -6.5l-7 -30h-287l7 30q29 4 46.5 7.5t27 10.5t15 19t10.5 34zM349 907l75 -158h-31l-97 89l-140 -89
h-36l148 158h81z" />
    <glyph glyph-name="Idieresis" unicode="&#xcf;" horiz-adv-x="342" 
d="M187 601q4 22 3.5 35t-8 19.5t-23 10t-41.5 6.5l6 30h287l-7 -30q-30 -4 -47 -7.5t-26.5 -10.5t-14.5 -19t-11 -34l-107 -500q-4 -23 -3.5 -35.5t8 -19t23 -10t42.5 -6.5l-7 -30h-287l7 30q29 4 46.5 7.5t27 10.5t15 19t10.5 34zM387 755q-28 0 -45.5 18.5t-17.5 44.5
q0 28 19.5 48.5t48.5 20.5t46.5 -17.5t17.5 -44.5q0 -29 -20 -49.5t-49 -20.5zM197 755q-29 0 -46.5 18.5t-17.5 44.5q0 28 20.5 48.5t48.5 20.5t45.5 -17.5t17.5 -44.5q0 -29 -19.5 -49.5t-48.5 -20.5z" />
    <glyph glyph-name="Eth" unicode="&#xd0;" horiz-adv-x="718" 
d="M51 341l8 41h81l47 219q4 22 3.5 35t-8 19.5t-23 10t-41.5 6.5l6 30h266q74 0 133.5 -19.5t101.5 -56t64.5 -89t22.5 -117.5q0 -95 -34 -172.5t-94 -132.5t-140.5 -85t-173.5 -30h-296l7 30q29 4 46.5 7.5t27 10.5t15 19t10.5 34l51 240h-80zM281 36q64 0 120.5 29.5
t97.5 82t65 124t24 155.5q0 114 -51.5 176.5t-163.5 62.5h-55l-60 -284h139l-8 -41h-140l-49 -234q-10 -44 7 -57.5t61 -13.5h13z" />
    <glyph glyph-name="Ntilde" unicode="&#xd1;" horiz-adv-x="735" 
d="M571 177l89 424q4 21 1.5 34t-13.5 20.5t-31 11t-50 5.5l6 30h239l-7 -30q-29 -4 -46.5 -7.5t-27 -10.5t-15 -19t-10.5 -34l-129 -604h-34l-318 569l-98 -465q-4 -21 -1.5 -34t13.5 -20.5t30.5 -11t49.5 -5.5l-6 -30h-238l6 30q30 4 47.5 7.5t27.5 10.5t15 19.5t10 33.5
l108 510q-9 18 -16.5 29t-15.5 18t-19.5 10t-29.5 4l7 30h171zM543 752q-18 0 -33 7t-35 21q-19 15 -31.5 21.5t-27.5 6.5q-22 0 -38 -13.5t-36 -42.5l-21 12q18 33 32 56t27.5 36.5t28 19.5t32.5 6t33 -7.5t34 -21.5q20 -14 32.5 -21t27.5 -7q21 0 37 14t36 43l22 -13
q-17 -33 -31.5 -55.5t-28 -36t-28 -19.5t-32.5 -6z" />
    <glyph glyph-name="Ograve" unicode="&#xd2;" horiz-adv-x="710" 
d="M436 712q66 0 116 -21.5t83.5 -58.5t51 -87t17.5 -107q1 -52 -12 -106t-37.5 -104t-59.5 -94t-79 -76.5t-95.5 -50.5t-109.5 -17q-66 0 -116 21.5t-83.5 58.5t-51 87t-17.5 107q-1 52 12 106t37.5 104t59.5 94t79 76.5t95.5 50.5t109.5 17zM435 675q-41 1 -77 -18
t-65.5 -51.5t-53 -76t-39.5 -91t-24.5 -96.5t-7.5 -93q0 -48 8 -88.5t25.5 -70.5t45 -46.5t65.5 -16.5q41 -1 77 18t65.5 51.5t53 76t39.5 91t24 96.5t8 93q0 48 -8 88.5t-25.5 70.5t-45 46.5t-65.5 16.5zM319 898h119l42 -149h-25l-136 143v6z" />
    <glyph glyph-name="Oacute" unicode="&#xd3;" horiz-adv-x="710" 
d="M436 712q66 0 116 -21.5t83.5 -58.5t51 -87t17.5 -107q1 -52 -12 -106t-37.5 -104t-59.5 -94t-79 -76.5t-95.5 -50.5t-109.5 -17q-66 0 -116 21.5t-83.5 58.5t-51 87t-17.5 107q-1 52 12 106t37.5 104t59.5 94t79 76.5t95.5 50.5t109.5 17zM435 675q-41 1 -77 -18
t-65.5 -51.5t-53 -76t-39.5 -91t-24.5 -96.5t-7.5 -93q0 -48 8 -88.5t25.5 -70.5t45 -46.5t65.5 -16.5q41 -1 77 18t65.5 51.5t53 76t39.5 91t24 96.5t8 93q0 48 -8 88.5t-25.5 70.5t-45 46.5t-65.5 16.5zM521 898h128l-1 -6l-171 -143h-25z" />
    <glyph glyph-name="Ocircumflex" unicode="&#xd4;" horiz-adv-x="710" 
d="M436 712q66 0 116 -21.5t83.5 -58.5t51 -87t17.5 -107q1 -52 -12 -106t-37.5 -104t-59.5 -94t-79 -76.5t-95.5 -50.5t-109.5 -17q-66 0 -116 21.5t-83.5 58.5t-51 87t-17.5 107q-1 52 12 106t37.5 104t59.5 94t79 76.5t95.5 50.5t109.5 17zM435 675q-41 1 -77 -18
t-65.5 -51.5t-53 -76t-39.5 -91t-24.5 -96.5t-7.5 -93q0 -48 8 -88.5t25.5 -70.5t45 -46.5t65.5 -16.5q41 -1 77 18t65.5 51.5t53 76t39.5 91t24 96.5t8 93q0 48 -8 88.5t-25.5 70.5t-45 46.5t-65.5 16.5zM537 907l75 -158h-31l-97 89l-140 -89h-36l148 158h81z" />
    <glyph glyph-name="Otilde" unicode="&#xd5;" horiz-adv-x="710" 
d="M436 712q66 0 116 -21.5t83.5 -58.5t51 -87t17.5 -107q1 -52 -12 -106t-37.5 -104t-59.5 -94t-79 -76.5t-95.5 -50.5t-109.5 -17q-66 0 -116 21.5t-83.5 58.5t-51 87t-17.5 107q-1 52 12 106t37.5 104t59.5 94t79 76.5t95.5 50.5t109.5 17zM435 675q-41 1 -77 -18
t-65.5 -51.5t-53 -76t-39.5 -91t-24.5 -96.5t-7.5 -93q0 -48 8 -88.5t25.5 -70.5t45 -46.5t65.5 -16.5q41 -1 77 18t65.5 51.5t53 76t39.5 91t24 96.5t8 93q0 48 -8 88.5t-25.5 70.5t-45 46.5t-65.5 16.5zM532 752q-18 0 -33 7t-35 21q-19 15 -31.5 21.5t-27.5 6.5
q-22 0 -38 -13.5t-36 -42.5l-21 12q18 33 32 56t27.5 36.5t28 19.5t32.5 6t33 -7.5t34 -21.5q20 -14 32.5 -21t27.5 -7q21 0 37 14t36 43l22 -13q-17 -33 -31.5 -55.5t-28 -36t-28 -19.5t-32.5 -6z" />
    <glyph glyph-name="Odieresis" unicode="&#xd6;" horiz-adv-x="710" 
d="M436 712q66 0 116 -21.5t83.5 -58.5t51 -87t17.5 -107q1 -52 -12 -106t-37.5 -104t-59.5 -94t-79 -76.5t-95.5 -50.5t-109.5 -17q-66 0 -116 21.5t-83.5 58.5t-51 87t-17.5 107q-1 52 12 106t37.5 104t59.5 94t79 76.5t95.5 50.5t109.5 17zM435 675q-41 1 -77 -18
t-65.5 -51.5t-53 -76t-39.5 -91t-24.5 -96.5t-7.5 -93q0 -48 8 -88.5t25.5 -70.5t45 -46.5t65.5 -16.5q41 -1 77 18t65.5 51.5t53 76t39.5 91t24 96.5t8 93q0 48 -8 88.5t-25.5 70.5t-45 46.5t-65.5 16.5zM572 755q-28 0 -45.5 18.5t-17.5 44.5q0 28 19.5 48.5t48.5 20.5
t46.5 -17.5t17.5 -44.5q0 -29 -20 -49.5t-49 -20.5zM382 755q-29 0 -46.5 18.5t-17.5 44.5q0 28 20.5 48.5t48.5 20.5t45.5 -17.5t17.5 -44.5q0 -29 -19.5 -49.5t-48.5 -20.5z" />
    <glyph glyph-name="multiply" unicode="&#xd7;" horiz-adv-x="490" 
d="M220 367l-110 140l44 38l110 -142l173 142l30 -39l-173 -142l113 -140l-45 -37l-112 141l-171 -142l-31 39z" />
    <glyph glyph-name="Oslash" unicode="&#xd8;" horiz-adv-x="710" 
d="M436 675q-41 1 -77 -18t-66 -51.5t-53.5 -76t-40 -91t-25 -96.5t-7.5 -93q0 -32 3.5 -58.5t9.5 -51.5l372 461q-16 35 -45 55t-71 20zM580 453q0 30 -3.5 57.5t-9.5 51.5l-373 -461q18 -35 46.5 -54.5t70.5 -19.5q41 -1 77 18t66 51.5t53.5 76t40 91t24.5 96.5t8 93z
M681 703l-52 -64q38 -38 56.5 -90t18.5 -111q1 -52 -12 -106t-37.5 -104t-59.5 -94t-79 -76.5t-95.5 -50.5t-109.5 -17q-52 0 -93 13t-73 37l-59 -73l-28 20l60 75q-38 38 -56.5 90t-18.5 112q-1 52 12 106t37.5 104t59.5 94t79 76.5t95.5 50.5t109.5 17q51 0 92.5 -13.5
t73.5 -36.5l50 61z" />
    <glyph glyph-name="Ugrave" unicode="&#xd9;" horiz-adv-x="715" 
d="M653 601q4 22 3 35t-8.5 19.5t-24 10t-44.5 6.5l6 30h219l-7 -30q-30 -4 -47 -7.5t-26.5 -10.5t-14.5 -19t-11 -34l-77 -362q-26 -126 -102.5 -187.5t-185.5 -61.5q-63 0 -113 19t-82 55t-43.5 88.5t2.5 119.5l70 329q4 22 3.5 35t-8 19.5t-23 10t-41.5 6.5l6 30h287
l-7 -30q-30 -4 -47 -7.5t-26.5 -10.5t-14.5 -19t-11 -34l-71 -334q-10 -48 -5.5 -88t23 -69t50.5 -45t76 -16q93 0 145 49t76 159zM350 898h119l42 -149h-25l-136 143v6z" />
    <glyph glyph-name="Uacute" unicode="&#xda;" horiz-adv-x="715" 
d="M653 601q4 22 3 35t-8.5 19.5t-24 10t-44.5 6.5l6 30h219l-7 -30q-30 -4 -47 -7.5t-26.5 -10.5t-14.5 -19t-11 -34l-77 -362q-26 -126 -102.5 -187.5t-185.5 -61.5q-63 0 -113 19t-82 55t-43.5 88.5t2.5 119.5l70 329q4 22 3.5 35t-8 19.5t-23 10t-41.5 6.5l6 30h287
l-7 -30q-30 -4 -47 -7.5t-26.5 -10.5t-14.5 -19t-11 -34l-71 -334q-10 -48 -5.5 -88t23 -69t50.5 -45t76 -16q93 0 145 49t76 159zM537 898h128l-1 -6l-171 -143h-25z" />
    <glyph glyph-name="Ucircumflex" unicode="&#xdb;" horiz-adv-x="715" 
d="M653 601q4 22 3 35t-8.5 19.5t-24 10t-44.5 6.5l6 30h219l-7 -30q-30 -4 -47 -7.5t-26.5 -10.5t-14.5 -19t-11 -34l-77 -362q-26 -126 -102.5 -187.5t-185.5 -61.5q-63 0 -113 19t-82 55t-43.5 88.5t2.5 119.5l70 329q4 22 3.5 35t-8 19.5t-23 10t-41.5 6.5l6 30h287
l-7 -30q-30 -4 -47 -7.5t-26.5 -10.5t-14.5 -19t-11 -34l-71 -334q-10 -48 -5.5 -88t23 -69t50.5 -45t76 -16q93 0 145 49t76 159zM568 907l75 -158h-31l-97 89l-140 -89h-36l148 158h81z" />
    <glyph glyph-name="Udieresis" unicode="&#xdc;" horiz-adv-x="715" 
d="M653 601q4 22 3 35t-8.5 19.5t-24 10t-44.5 6.5l6 30h219l-7 -30q-30 -4 -47 -7.5t-26.5 -10.5t-14.5 -19t-11 -34l-77 -362q-26 -126 -102.5 -187.5t-185.5 -61.5q-63 0 -113 19t-82 55t-43.5 88.5t2.5 119.5l70 329q4 22 3.5 35t-8 19.5t-23 10t-41.5 6.5l6 30h287
l-7 -30q-30 -4 -47 -7.5t-26.5 -10.5t-14.5 -19t-11 -34l-71 -334q-10 -48 -5.5 -88t23 -69t50.5 -45t76 -16q93 0 145 49t76 159zM603 755q-28 0 -45.5 18.5t-17.5 44.5q0 28 19.5 48.5t48.5 20.5t46.5 -17.5t17.5 -44.5q0 -29 -20 -49.5t-49 -20.5zM413 755
q-29 0 -46.5 18.5t-17.5 44.5q0 28 20.5 48.5t48.5 20.5t45.5 -17.5t17.5 -44.5q0 -29 -19.5 -49.5t-48.5 -20.5z" />
    <glyph glyph-name="Yacute" unicode="&#xdd;" horiz-adv-x="638" 
d="M382 278l-38 -177q-4 -22 -2.5 -35t10.5 -20t26 -10t46 -6l-7 -30h-301l7 30q31 4 50 7.5t30.5 10.5t17.5 19.5t11 33.5l36 176l-123 358q-6 19 -18.5 26t-32.5 11l7 30h267l-7 -30q-28 -1 -46 -3.5t-28.5 -7.5t-14.5 -12.5t-4 -18.5v-8.5t1 -6.5t3 -10.5t5 -19.5
l92 -261l201 261q10 15 19.5 28t9.5 27q0 16 -16.5 23t-60.5 9l7 30h201l-7 -30q-21 -4 -37 -11.5t-30 -25.5zM511 898h128l-1 -6l-171 -143h-25z" />
    <glyph glyph-name="Thorn" unicode="&#xde;" horiz-adv-x="618" 
d="M297 566l77 1q57 1 100.5 -12t72.5 -37t43.5 -56.5t14.5 -70.5q0 -59 -24 -104t-67.5 -76t-103.5 -47t-131 -16h-70l-9 -37q-5 -22 -2.5 -36.5t14.5 -23.5t35 -13t59 -6l-6 -32h-326l7 30q29 4 46.5 7.5t27 10.5t15 19t10.5 34l107 500q4 22 3.5 35t-8 19.5t-23 10
t-41.5 6.5l6 30h287l-7 -30q-30 -4 -47 -7.5t-26.5 -10.5t-14.5 -19t-11 -34zM290 531l-73 -345h56q46 0 85.5 12.5t68.5 38t45 64t16 90.5q0 63 -36.5 101.5t-112.5 38.5h-49z" />
    <glyph glyph-name="germandbls" unicode="&#xdf;" horiz-adv-x="596" 
d="M406 28q35 0 53.5 18t18.5 53q0 31 -21 62t-63 78q-42 48 -63 79.5t-21 63.5q0 34 21 61q11 14 26 27.5t42 35.5q35 29 51 68.5t16 79.5t-22 68.5t-65 28.5q-27 0 -46 -11.5t-33.5 -33t-24.5 -51t-17 -65.5l-93 -425q-23 -104 -48.5 -175.5t-56 -116t-66.5 -64t-81 -19.5
q-43 0 -70 18t-27 49q0 29 18.5 44t41.5 19h15q2 -45 16 -72t37 -27q13 0 24.5 8.5t22 34t22.5 73t27 126.5l76 408h-77l6 28l81 19q12 55 35.5 103t57 84t77 57t96.5 21q37 0 67.5 -9.5t52.5 -26.5t34.5 -40.5t12.5 -50.5q-1 -28 -10 -50.5t-25 -41t-37.5 -35.5t-47.5 -33
q-23 -16 -33.5 -28.5t-10.5 -33.5q0 -22 15 -41l60 -72q45 -51 66.5 -88t21.5 -76q0 -38 -14.5 -68.5t-40 -52.5t-59.5 -34t-72 -12q-71 0 -114 31t-43 78q0 23 13.5 43t35.5 28h6q16 -64 50 -103t86 -39z" />
    <glyph glyph-name="agrave" unicode="&#xe0;" horiz-adv-x="566" 
d="M317 64q0 10 3 29t8.5 42t12 46.5t13.5 42.5q-23 -48 -50 -91t-56 -74.5t-59.5 -50t-60.5 -18.5q-52 0 -80 39.5t-28 109.5q-1 75 26 146.5t71 127.5t100.5 89t114.5 32q35 0 59.5 -10.5t45.5 -31.5l82 49h24l-36 -117l-74 -302q-4 -17 -4.5 -18.5t-1.5 -7.5
q-1 -5 -1.5 -9.5t-0.5 -7.5q0 -15 14 -15t35 16.5t53 57.5l17 -13q-24 -35 -44.5 -60.5t-39 -42t-37 -24.5t-38.5 -8q-33 0 -50.5 20t-17.5 54zM175 67q27 0 59 27.5t64.5 78t62 122t51.5 159.5q-8 22 -28 35.5t-43 13.5q-41 1 -79.5 -31t-68 -84t-47 -116t-16.5 -126
q0 -36 11 -57.5t34 -21.5zM235 762h115l53 -168h-25l-143 162v6z" />
    <glyph glyph-name="aacute" unicode="&#xe1;" horiz-adv-x="566" 
d="M317 64q0 10 3 29t8.5 42t12 46.5t13.5 42.5q-23 -48 -50 -91t-56 -74.5t-59.5 -50t-60.5 -18.5q-52 0 -80 39.5t-28 109.5q-1 75 26 146.5t71 127.5t100.5 89t114.5 32q35 0 59.5 -10.5t45.5 -31.5l82 49h24l-36 -117l-74 -302q-4 -17 -4.5 -18.5t-1.5 -7.5
q-1 -5 -1.5 -9.5t-0.5 -7.5q0 -15 14 -15t35 16.5t53 57.5l17 -13q-24 -35 -44.5 -60.5t-39 -42t-37 -24.5t-38.5 -8q-33 0 -50.5 20t-17.5 54zM175 67q27 0 59 27.5t64.5 78t62 122t51.5 159.5q-8 22 -28 35.5t-43 13.5q-41 1 -79.5 -31t-68 -84t-47 -116t-16.5 -126
q0 -36 11 -57.5t34 -21.5zM450 762h123l-1 -6l-186 -162h-25z" />
    <glyph glyph-name="acircumflex" unicode="&#xe2;" horiz-adv-x="566" 
d="M317 64q0 10 3 29t8.5 42t12 46.5t13.5 42.5q-23 -48 -50 -91t-56 -74.5t-59.5 -50t-60.5 -18.5q-52 0 -80 39.5t-28 109.5q-1 75 26 146.5t71 127.5t100.5 89t114.5 32q35 0 59.5 -10.5t45.5 -31.5l82 49h24l-36 -117l-74 -302q-4 -17 -4.5 -18.5t-1.5 -7.5
q-1 -5 -1.5 -9.5t-0.5 -7.5q0 -15 14 -15t35 16.5t53 57.5l17 -13q-24 -35 -44.5 -60.5t-39 -42t-37 -24.5t-38.5 -8q-33 0 -50.5 20t-17.5 54zM175 67q27 0 59 27.5t64.5 78t62 122t51.5 159.5q-8 22 -28 35.5t-43 13.5q-41 1 -79.5 -31t-68 -84t-47 -116t-16.5 -126
q0 -36 11 -57.5t34 -21.5zM447 765l75 -172h-31l-97 103l-140 -103h-36l148 172h81z" />
    <glyph glyph-name="atilde" unicode="&#xe3;" horiz-adv-x="566" 
d="M317 64q0 10 3 29t8.5 42t12 46.5t13.5 42.5q-23 -48 -50 -91t-56 -74.5t-59.5 -50t-60.5 -18.5q-52 0 -80 39.5t-28 109.5q-1 75 26 146.5t71 127.5t100.5 89t114.5 32q35 0 59.5 -10.5t45.5 -31.5l82 49h24l-36 -117l-74 -302q-4 -17 -4.5 -18.5t-1.5 -7.5
q-1 -5 -1.5 -9.5t-0.5 -7.5q0 -15 14 -15t35 16.5t53 57.5l17 -13q-24 -35 -44.5 -60.5t-39 -42t-37 -24.5t-38.5 -8q-33 0 -50.5 20t-17.5 54zM175 67q27 0 59 27.5t64.5 78t62 122t51.5 159.5q-8 22 -28 35.5t-43 13.5q-41 1 -79.5 -31t-68 -84t-47 -116t-16.5 -126
q0 -36 11 -57.5t34 -21.5zM450 604q-18 0 -33 7t-35 21q-19 15 -31.5 21.5t-27.5 6.5q-22 0 -38 -13.5t-36 -42.5l-21 12q18 33 32 56t27.5 36.5t28 19.5t32.5 6t33 -7.5t34 -21.5q20 -14 32.5 -21t27.5 -7q21 0 37 14t36 43l22 -12q-18 -33 -32 -56t-27.5 -36.5t-28 -19.5
t-32.5 -6z" />
    <glyph glyph-name="adieresis" unicode="&#xe4;" horiz-adv-x="566" 
d="M317 64q0 10 3 29t8.5 42t12 46.5t13.5 42.5q-23 -48 -50 -91t-56 -74.5t-59.5 -50t-60.5 -18.5q-52 0 -80 39.5t-28 109.5q-1 75 26 146.5t71 127.5t100.5 89t114.5 32q35 0 59.5 -10.5t45.5 -31.5l82 49h24l-36 -117l-74 -302q-4 -17 -4.5 -18.5t-1.5 -7.5
q-1 -5 -1.5 -9.5t-0.5 -7.5q0 -15 14 -15t35 16.5t53 57.5l17 -13q-24 -35 -44.5 -60.5t-39 -42t-37 -24.5t-38.5 -8q-33 0 -50.5 20t-17.5 54zM175 67q27 0 59 27.5t64.5 78t62 122t51.5 159.5q-8 22 -28 35.5t-43 13.5q-41 1 -79.5 -31t-68 -84t-47 -116t-16.5 -126
q0 -36 11 -57.5t34 -21.5zM475 606q-28 0 -45.5 18.5t-17.5 44.5q0 28 19.5 48.5t48.5 20.5t46.5 -17.5t17.5 -44.5q0 -29 -20 -49.5t-49 -20.5zM301 606q-29 0 -46.5 18.5t-17.5 44.5q0 28 20.5 48.5t48.5 20.5t45.5 -17.5t17.5 -44.5q0 -29 -19.5 -49.5t-48.5 -20.5z" />
    <glyph glyph-name="aring" unicode="&#xe5;" horiz-adv-x="566" 
d="M317 64q0 10 3 29t8.5 42t12 46.5t13.5 42.5q-23 -48 -50 -91t-56 -74.5t-59.5 -50t-60.5 -18.5q-52 0 -80 39.5t-28 109.5q-1 75 26 146.5t71 127.5t100.5 89t114.5 32q35 0 59.5 -10.5t45.5 -31.5l82 49h24l-36 -117l-74 -302q-4 -17 -4.5 -18.5t-1.5 -7.5
q-1 -5 -1.5 -9.5t-0.5 -7.5q0 -15 14 -15t35 16.5t53 57.5l17 -13q-24 -35 -44.5 -60.5t-39 -42t-37 -24.5t-38.5 -8q-33 0 -50.5 20t-17.5 54zM175 67q27 0 59 27.5t64.5 78t62 122t51.5 159.5q-8 22 -28 35.5t-43 13.5q-41 1 -79.5 -31t-68 -84t-47 -116t-16.5 -126
q0 -36 11 -57.5t34 -21.5zM297 650q0 41 28 69.5t69 28.5q39 0 62 -23t23 -58q0 -21 -7.5 -39t-20.5 -31t-31 -20.5t-38 -7.5q-39 0 -62 23t-23 58zM442 666q0 22 -13.5 35.5t-35.5 13.5q-28 0 -43.5 -19t-15.5 -46q0 -22 13.5 -35t35.5 -13q28 0 43.5 19t15.5 45z" />
    <glyph glyph-name="ae" unicode="&#xe6;" horiz-adv-x="741" 
d="M343 534q43 0 71 -15.5t50 -41.5q34 26 73 41.5t81 15.5q63 0 94 -29.5t31 -71.5q0 -45 -25 -78.5t-68 -56.5q-43 -22 -96 -37t-123 -29q0 -10 -1 -19t-1 -18q0 -67 27.5 -104t76.5 -37q42 0 78 23.5t74 71.5l19 -15q-50 -72 -101.5 -108t-117.5 -36q-73 0 -117 46
t-48 123q-22 -37 -45 -68t-47.5 -53.5t-49.5 -35t-50 -12.5q-52 0 -80 39.5t-28 109.5q0 77 27 148.5t72 126t103 87.5t121 33zM175 67q33 0 71 38t76 107q6 66 35.5 128t74.5 108q-12 26 -34.5 40.5t-51.5 14.5q-42 1 -81.5 -31t-70 -84t-48 -116t-16.5 -126
q0 -36 11 -57.5t34 -21.5zM600 501q-29 0 -56 -21t-49 -55.5t-38 -78.5t-23 -90q109 26 162.5 69.5t53.5 117.5q0 24 -12 41t-38 17z" />
    <glyph glyph-name="ccedilla" unicode="&#xe7;" horiz-adv-x="428" 
d="M55 -195q58 0 91 15.5t33 38.5q0 21 -22 29.5t-64 10.5l51 95q-60 12 -91.5 60t-31.5 115q-1 66 23 132t66 118t97 84t115 31q56 0 87 -23t31 -63q0 -29 -17 -45.5t-44 -22.5h-17q1 26 -1.5 48t-10 38.5t-20.5 26t-33 9.5q-35 0 -65 -29.5t-52.5 -76t-35.5 -102.5
t-13 -108q0 -28 5.5 -52.5t17 -42.5t29.5 -28.5t43 -10.5q42 0 73 23t68 69l18 -15q-18 -28 -39 -53.5t-46.5 -44.5t-55 -30t-63.5 -11h-11l-19 -36q43 -2 69 -19.5t26 -51.5q0 -27 -13.5 -46.5t-38.5 -33t-59 -20t-74 -6.5z" />
    <glyph glyph-name="egrave" unicode="&#xe8;" horiz-adv-x="442" 
d="M444 433q0 -45 -25 -78.5t-68 -56.5q-43 -22 -96 -37t-123 -29q0 -10 -1 -19t-1 -18q0 -67 27.5 -104t76.5 -37q43 0 79 23.5t74 71.5l19 -15q-48 -72 -101 -108t-119 -36q-78 0 -121.5 50.5t-43.5 134.5q-1 65 23.5 129.5t65.5 116t95.5 83t113.5 30.5q64 0 94.5 -29.5
t30.5 -71.5zM302 501q-30 0 -57 -21t-49 -55.5t-38 -78.5t-23 -90q109 26 162.5 69.5t53.5 117.5q0 24 -11.5 41t-37.5 17zM198 762h115l53 -168h-25l-143 162v6z" />
    <glyph glyph-name="eacute" unicode="&#xe9;" horiz-adv-x="442" 
d="M444 433q0 -45 -25 -78.5t-68 -56.5q-43 -22 -96 -37t-123 -29q0 -10 -1 -19t-1 -18q0 -67 27.5 -104t76.5 -37q43 0 79 23.5t74 71.5l19 -15q-48 -72 -101 -108t-119 -36q-78 0 -121.5 50.5t-43.5 134.5q-1 65 23.5 129.5t65.5 116t95.5 83t113.5 30.5q64 0 94.5 -29.5
t30.5 -71.5zM302 501q-30 0 -57 -21t-49 -55.5t-38 -78.5t-23 -90q109 26 162.5 69.5t53.5 117.5q0 24 -11.5 41t-37.5 17zM391 762h123l-1 -6l-186 -162h-25z" />
    <glyph glyph-name="ecircumflex" unicode="&#xea;" horiz-adv-x="442" 
d="M444 433q0 -45 -25 -78.5t-68 -56.5q-43 -22 -96 -37t-123 -29q0 -10 -1 -19t-1 -18q0 -67 27.5 -104t76.5 -37q43 0 79 23.5t74 71.5l19 -15q-48 -72 -101 -108t-119 -36q-78 0 -121.5 50.5t-43.5 134.5q-1 65 23.5 129.5t65.5 116t95.5 83t113.5 30.5q64 0 94.5 -29.5
t30.5 -71.5zM302 501q-30 0 -57 -21t-49 -55.5t-38 -78.5t-23 -90q109 26 162.5 69.5t53.5 117.5q0 24 -11.5 41t-37.5 17zM410 765l75 -172h-31l-97 103l-140 -103h-36l148 172h81z" />
    <glyph glyph-name="edieresis" unicode="&#xeb;" horiz-adv-x="442" 
d="M444 433q0 -45 -25 -78.5t-68 -56.5q-43 -22 -96 -37t-123 -29q0 -10 -1 -19t-1 -18q0 -67 27.5 -104t76.5 -37q43 0 79 23.5t74 71.5l19 -15q-48 -72 -101 -108t-119 -36q-78 0 -121.5 50.5t-43.5 134.5q-1 65 23.5 129.5t65.5 116t95.5 83t113.5 30.5q64 0 94.5 -29.5
t30.5 -71.5zM302 501q-30 0 -57 -21t-49 -55.5t-38 -78.5t-23 -90q109 26 162.5 69.5t53.5 117.5q0 24 -11.5 41t-37.5 17zM429 606q-28 0 -45.5 18.5t-17.5 44.5q0 28 19.5 48.5t48.5 20.5t46.5 -17.5t17.5 -44.5q0 -29 -20 -49.5t-49 -20.5zM255 606q-29 0 -46.5 18.5
t-17.5 44.5q0 28 20.5 48.5t48.5 20.5t45.5 -17.5t17.5 -44.5q0 -29 -19.5 -49.5t-48.5 -20.5z" />
    <glyph glyph-name="igrave" unicode="&#xec;" horiz-adv-x="289" 
d="M119 443l-59 33l4 15l173 43h15l-103 -412q-4 -14 -6.5 -25.5t-2.5 -17.5q0 -15 14 -15q15 0 34.5 17t53.5 57l17 -13q-24 -35 -44.5 -60.5t-39 -42t-37 -24.5t-38.5 -8q-33 0 -50.5 20.5t-17.5 53.5q0 18 2.5 37t10.5 48zM59 762h115l53 -168h-25l-143 162v6z" />
    <glyph glyph-name="iacute" unicode="&#xed;" horiz-adv-x="289" 
d="M119 443l-59 33l4 15l173 43h15l-103 -412q-4 -14 -6.5 -25.5t-2.5 -17.5q0 -15 14 -15q15 0 34.5 17t53.5 57l17 -13q-24 -35 -44.5 -60.5t-39 -42t-37 -24.5t-38.5 -8q-33 0 -50.5 20.5t-17.5 53.5q0 18 2.5 37t10.5 48zM269 762h123l-1 -6l-186 -162h-25z" />
    <glyph glyph-name="icircumflex" unicode="&#xee;" horiz-adv-x="289" 
d="M119 443l-59 33l4 15l173 43h15l-103 -412q-4 -14 -6.5 -25.5t-2.5 -17.5q0 -15 14 -15q15 0 34.5 17t53.5 57l17 -13q-24 -35 -44.5 -60.5t-39 -42t-37 -24.5t-38.5 -8q-33 0 -50.5 20.5t-17.5 53.5q0 18 2.5 37t10.5 48zM285 765l75 -172h-31l-97 103l-140 -103h-36
l148 172h81z" />
    <glyph glyph-name="idieresis" unicode="&#xef;" horiz-adv-x="289" 
d="M119 443l-59 33l4 15l173 43h15l-103 -412q-4 -14 -6.5 -25.5t-2.5 -17.5q0 -15 14 -15q15 0 34.5 17t53.5 57l17 -13q-24 -35 -44.5 -60.5t-39 -42t-37 -24.5t-38.5 -8q-33 0 -50.5 20.5t-17.5 53.5q0 18 2.5 37t10.5 48zM302 606q-28 0 -45.5 18.5t-17.5 44.5
q0 28 19.5 48.5t48.5 20.5t46.5 -17.5t17.5 -44.5q0 -29 -20 -49.5t-49 -20.5zM128 606q-29 0 -46.5 18.5t-17.5 44.5q0 28 20.5 48.5t48.5 20.5t45.5 -17.5t17.5 -44.5q0 -29 -19.5 -49.5t-48.5 -20.5z" />
    <glyph glyph-name="eth" unicode="&#xf0;" horiz-adv-x="502" 
d="M144 585l-12 32l146 53q-24 26 -54.5 50t-70.5 44l16 20q48 -16 89 -40.5t75 -54.5l117 43l11 -31l-102 -37q61 -63 91.5 -143t30.5 -162q1 -70 -22 -137t-63 -119t-93 -83.5t-112 -29.5q-37 0 -68.5 12t-54 36t-35 59.5t-12.5 82.5q-1 61 21 124t62 114.5t94 84
t117 31.5q11 0 20 -2t19 -4q-8 30 -21 59t-33 55zM373 376q0 28 -2 57.5t-8 56.5q-10 6 -22 10t-28 4q-38 2 -72 -33t-59 -88t-39 -114t-14 -112q0 -66 17 -101t53 -35q23 -1 45.5 15t42 43.5t35.5 64t27.5 76t17.5 80t6 76.5z" />
    <glyph glyph-name="ntilde" unicode="&#xf1;" horiz-adv-x="577" 
d="M261 534l-67 -247q23 44 54.5 88t67.5 79.5t73.5 57.5t72.5 22q38 0 53 -19.5t15 -54.5q0 -10 -2 -22l-4 -24l-78 -292q-4 -14 -6.5 -25.5t-2.5 -17.5q0 -15 14 -15t35 17t53 57l17 -13q-48 -71 -83 -103t-76 -32q-33 0 -51 20.5t-18 53.5q0 17 3 37.5t11 47.5l71 260
q6 19 6 32q0 21 -18 21q-22 0 -56 -26t-69.5 -70t-66.5 -101.5t-47 -121.5l-36 -143h-109l111 443l-59 33l3 15l174 43h15zM435 604q-18 0 -33 7t-35 21q-19 15 -31.5 21.5t-27.5 6.5q-22 0 -38 -13.5t-36 -42.5l-21 12q18 33 32 56t27.5 36.5t28 19.5t32.5 6t33 -7.5
t34 -21.5q20 -14 32.5 -21t27.5 -7q21 0 37 14t36 43l22 -12q-18 -33 -32 -56t-27.5 -36.5t-28 -19.5t-32.5 -6z" />
    <glyph glyph-name="ograve" unicode="&#xf2;" horiz-adv-x="502" 
d="M481 345q0 -63 -22.5 -126t-61.5 -114t-91.5 -83t-113.5 -32q-79 0 -125 49t-46 140q0 41 10 83.5t28.5 82.5t45 74.5t59 60.5t70 40.5t77.5 13.5q79 0 124.5 -49t45.5 -140zM129 153q0 -57 16 -94.5t55 -37.5q23 -1 45 15t41.5 43t35.5 63t27.5 75t17.5 79t6 75
q0 57 -16 94.5t-55 37.5q-23 1 -44.5 -15t-41 -43t-36 -63t-28 -75t-18 -79t-5.5 -75zM178 762h115l53 -168h-25l-143 162v6z" />
    <glyph glyph-name="oacute" unicode="&#xf3;" horiz-adv-x="502" 
d="M481 345q0 -63 -22.5 -126t-61.5 -114t-91.5 -83t-113.5 -32q-79 0 -125 49t-46 140q0 41 10 83.5t28.5 82.5t45 74.5t59 60.5t70 40.5t77.5 13.5q79 0 124.5 -49t45.5 -140zM129 153q0 -57 16 -94.5t55 -37.5q23 -1 45 15t41.5 43t35.5 63t27.5 75t17.5 79t6 75
q0 57 -16 94.5t-55 37.5q-23 1 -44.5 -15t-41 -43t-36 -63t-28 -75t-18 -79t-5.5 -75zM389 762h123l-1 -6l-186 -162h-25z" />
    <glyph glyph-name="ocircumflex" unicode="&#xf4;" horiz-adv-x="502" 
d="M481 345q0 -63 -22.5 -126t-61.5 -114t-91.5 -83t-113.5 -32q-79 0 -125 49t-46 140q0 41 10 83.5t28.5 82.5t45 74.5t59 60.5t70 40.5t77.5 13.5q79 0 124.5 -49t45.5 -140zM129 153q0 -57 16 -94.5t55 -37.5q23 -1 45 15t41.5 43t35.5 63t27.5 75t17.5 79t6 75
q0 57 -16 94.5t-55 37.5q-23 1 -44.5 -15t-41 -43t-36 -63t-28 -75t-18 -79t-5.5 -75zM399 765l75 -172h-31l-97 103l-140 -103h-36l148 172h81z" />
    <glyph glyph-name="otilde" unicode="&#xf5;" horiz-adv-x="502" 
d="M481 345q0 -63 -22.5 -126t-61.5 -114t-91.5 -83t-113.5 -32q-79 0 -125 49t-46 140q0 41 10 83.5t28.5 82.5t45 74.5t59 60.5t70 40.5t77.5 13.5q79 0 124.5 -49t45.5 -140zM129 153q0 -57 16 -94.5t55 -37.5q23 -1 45 15t41.5 43t35.5 63t27.5 75t17.5 79t6 75
q0 57 -16 94.5t-55 37.5q-23 1 -44.5 -15t-41 -43t-36 -63t-28 -75t-18 -79t-5.5 -75zM397 604q-18 0 -33 7t-35 21q-19 15 -31.5 21.5t-27.5 6.5q-22 0 -38 -13.5t-36 -42.5l-21 12q18 33 32 56t27.5 36.5t28 19.5t32.5 6t33 -7.5t34 -21.5q20 -14 32.5 -21t27.5 -7
q21 0 37 14t36 43l22 -12q-18 -33 -32 -56t-27.5 -36.5t-28 -19.5t-32.5 -6z" />
    <glyph glyph-name="odieresis" unicode="&#xf6;" horiz-adv-x="502" 
d="M481 345q0 -63 -22.5 -126t-61.5 -114t-91.5 -83t-113.5 -32q-79 0 -125 49t-46 140q0 41 10 83.5t28.5 82.5t45 74.5t59 60.5t70 40.5t77.5 13.5q79 0 124.5 -49t45.5 -140zM129 153q0 -57 16 -94.5t55 -37.5q23 -1 45 15t41.5 43t35.5 63t27.5 75t17.5 79t6 75
q0 57 -16 94.5t-55 37.5q-23 1 -44.5 -15t-41 -43t-36 -63t-28 -75t-18 -79t-5.5 -75zM429 606q-28 0 -45.5 18.5t-17.5 44.5q0 28 19.5 48.5t48.5 20.5t46.5 -17.5t17.5 -44.5q0 -29 -20 -49.5t-49 -20.5zM255 606q-29 0 -46.5 18.5t-17.5 44.5q0 28 20.5 48.5t48.5 20.5
t45.5 -17.5t17.5 -44.5q0 -29 -19.5 -49.5t-48.5 -20.5z" />
    <glyph glyph-name="divide" unicode="&#xf7;" horiz-adv-x="566" 
d="M278 536q0 22 15.5 37.5t38.5 15.5t38.5 -15.5t15.5 -37.5q0 -23 -15.5 -38.5t-38.5 -15.5t-38.5 15.5t-15.5 38.5zM72 343l11 56h440l-12 -56h-439zM207 206q0 23 15.5 38t37.5 15q23 0 38.5 -15.5t15.5 -37.5q0 -23 -15.5 -38.5t-38.5 -15.5q-22 0 -37.5 15.5
t-15.5 38.5z" />
    <glyph glyph-name="oslash" unicode="&#xf8;" horiz-adv-x="502" 
d="M128 132l240 301q-6 32 -22 51t-44 19q-23 1 -44.5 -15t-41 -43t-36 -63t-28 -75t-18 -79t-6.5 -75v-21zM200 21q23 -1 45 15t41.5 43t36 63t28 75t17.5 79t6 75q0 5 -0.5 9.5t-0.5 9.5l-240 -300q6 -32 23 -50.5t44 -18.5zM192 -10q-33 0 -61.5 9t-48.5 27l-44 -55
l-24 18l46 58q-19 25 -29 57.5t-10 74.5q0 41 10 83.5t28.5 82.5t45 74.5t59 60.5t70 40.5t77.5 13.5q65 0 109 -36l40 50l25 -18l-43 -54q39 -51 39 -131q0 -63 -22.5 -126t-61.5 -114t-91.5 -83t-113.5 -32z" />
    <glyph glyph-name="ugrave" unicode="&#xf9;" horiz-adv-x="578" 
d="M423 518l115 8l-99 -404l-6.5 -26t-2.5 -17q0 -15 14 -15t35 17t53 57l17 -13q-48 -71 -83 -103t-76 -32q-32 0 -49.5 20t-17.5 54q0 10 3.5 29.5t8.5 43.5t12 50.5t14 52.5q-20 -44 -49 -88.5t-62 -80.5t-69 -58.5t-69 -22.5q-39 0 -59.5 23.5t-20.5 58.5q0 23 8 53
l82 318l-59 33l3 15l174 43h15l-103 -401q-4 -15 -6 -25.5t-2 -19.5q0 -12 6.5 -19.5t18.5 -7.5q21 -1 53 25t64 71t61 105t44 127zM412 762h123l-1 -6l-186 -162h-25z" />
    <glyph glyph-name="uacute" unicode="&#xfa;" horiz-adv-x="578" 
d="M423 518l115 8l-99 -404l-6.5 -26t-2.5 -17q0 -15 14 -15t35 17t53 57l17 -13q-48 -71 -83 -103t-76 -32q-32 0 -49.5 20t-17.5 54q0 10 3.5 29.5t8.5 43.5t12 50.5t14 52.5q-20 -44 -49 -88.5t-62 -80.5t-69 -58.5t-69 -22.5q-39 0 -59.5 23.5t-20.5 58.5q0 23 8 53
l82 318l-59 33l3 15l174 43h15l-103 -401q-4 -15 -6 -25.5t-2 -19.5q0 -12 6.5 -19.5t18.5 -7.5q21 -1 53 25t64 71t61 105t44 127zM202 762h115l53 -168h-25l-143 162v6z" />
    <glyph glyph-name="ucircumflex" unicode="&#xfb;" horiz-adv-x="578" 
d="M423 518l115 8l-99 -404l-6.5 -26t-2.5 -17q0 -15 14 -15t35 17t53 57l17 -13q-48 -71 -83 -103t-76 -32q-32 0 -49.5 20t-17.5 54q0 10 3.5 29.5t8.5 43.5t12 50.5t14 52.5q-20 -44 -49 -88.5t-62 -80.5t-69 -58.5t-69 -22.5q-39 0 -59.5 23.5t-20.5 58.5q0 23 8 53
l82 318l-59 33l3 15l174 43h15l-103 -401q-4 -15 -6 -25.5t-2 -19.5q0 -12 6.5 -19.5t18.5 -7.5q21 -1 53 25t64 71t61 105t44 127zM428 765l75 -172h-31l-97 103l-140 -103h-36l148 172h81z" />
    <glyph glyph-name="udieresis" unicode="&#xfc;" horiz-adv-x="578" 
d="M423 518l115 8l-99 -404l-6.5 -26t-2.5 -17q0 -15 14 -15t35 17t53 57l17 -13q-48 -71 -83 -103t-76 -32q-32 0 -49.5 20t-17.5 54q0 10 3.5 29.5t8.5 43.5t12 50.5t14 52.5q-20 -44 -49 -88.5t-62 -80.5t-69 -58.5t-69 -22.5q-39 0 -59.5 23.5t-20.5 58.5q0 23 8 53
l82 318l-59 33l3 15l174 43h15l-103 -401q-4 -15 -6 -25.5t-2 -19.5q0 -12 6.5 -19.5t18.5 -7.5q21 -1 53 25t64 71t61 105t44 127zM445 606q-28 0 -45.5 18.5t-17.5 44.5q0 28 19.5 48.5t48.5 20.5t46.5 -17.5t17.5 -44.5q0 -29 -20 -49.5t-49 -20.5zM271 606
q-29 0 -46.5 18.5t-17.5 44.5q0 28 20.5 48.5t48.5 20.5t45.5 -17.5t17.5 -44.5q0 -29 -19.5 -49.5t-48.5 -20.5z" />
    <glyph glyph-name="yacute" unicode="&#xfd;" horiz-adv-x="492" 
d="M78 449l-60 28l5 15l147 42h7l79 -487l44 65q36 55 58.5 96.5t35 74t17 58t4.5 48.5q0 43 -26 64t-71 17v10q14 20 38.5 37t54.5 17q23 0 39 -7.5t25.5 -20t14 -29t4.5 -33.5q0 -28 -10.5 -61.5t-32 -76t-54 -95.5t-76.5 -120q-61 -92 -109.5 -150.5t-88.5 -91.5
t-74 -45.5t-65 -12.5q-18 0 -35 4.5t-30 14.5t-21 25t-8 35q0 24 15.5 44t39.5 26h7q0 -42 18.5 -65.5t54.5 -23.5q16 0 32.5 3.5t34 13t37.5 26.5t43 44zM393 762h123l-1 -6l-186 -162h-25z" />
    <glyph glyph-name="thorn" unicode="&#xfe;" horiz-adv-x="555" 
d="M376 458q-28 1 -63.5 -29t-71 -82t-65.5 -122.5t-47 -150.5q8 -23 29 -36.5t45 -13.5q42 -2 81.5 31.5t70.5 85t49.5 114t17.5 119.5q0 38 -10 61t-36 23zM306 783l-127 -500q22 48 51.5 93t62.5 80.5t67 56.5t65 21q51 0 80 -39t29 -109q1 -51 -12 -100.5t-36.5 -94
t-54.5 -81.5t-67 -64t-74.5 -42t-75.5 -14q-33 0 -57 10.5t-38 28.5l-40 -156q-3 -10 -4 -14.5t-1 -10.5q0 -17 18.5 -24t70.5 -7l-6 -29h-273l6 29q39 2 55.5 10t22.5 37l208 832l-64 31l4 16l175 40h15z" />
    <glyph glyph-name="ydieresis" unicode="&#xff;" horiz-adv-x="492" 
d="M78 449l-60 28l5 15l147 42h7l79 -487l44 65q36 55 58.5 96.5t35 74t17 58t4.5 48.5q0 43 -26 64t-71 17v10q14 20 38.5 37t54.5 17q23 0 39 -7.5t25.5 -20t14 -29t4.5 -33.5q0 -28 -10.5 -61.5t-32 -76t-54 -95.5t-76.5 -120q-61 -92 -109.5 -150.5t-88.5 -91.5
t-74 -45.5t-65 -12.5q-18 0 -35 4.5t-30 14.5t-21 25t-8 35q0 24 15.5 44t39.5 26h7q0 -42 18.5 -65.5t54.5 -23.5q16 0 32.5 3.5t34 13t37.5 26.5t43 44zM410 606q-28 0 -45.5 18.5t-17.5 44.5q0 28 19.5 48.5t48.5 20.5t46.5 -17.5t17.5 -44.5q0 -29 -20 -49.5t-49 -20.5z
M236 606q-29 0 -46.5 18.5t-17.5 44.5q0 28 20.5 48.5t48.5 20.5t45.5 -17.5t17.5 -44.5q0 -29 -19.5 -49.5t-48.5 -20.5z" />
    <glyph glyph-name="Amacron" unicode="&#x100;" horiz-adv-x="707" 
d="M387 589l-188 -313h248zM454 239h-278l-75 -125q-19 -29 -19 -49q0 -17 19.5 -25t61.5 -10l-6 -30h-206l6 30q22 2 38 9.5t28 27.5l350 574l-14 68h120l126 -642q5 -20 17 -26.5t34 -10.5l-6 -30h-273l6 30q22 1 40 3t31 8t20 17t7 29q0 6 -0.5 12t-2.5 15zM305 768
l12 58h275l-12 -58h-275z" />
    <glyph glyph-name="amacron" unicode="&#x101;" horiz-adv-x="566" 
d="M317 64q0 10 3 29t8.5 42t12 46.5t13.5 42.5q-23 -48 -50 -91t-56 -74.5t-59.5 -50t-60.5 -18.5q-52 0 -80 39.5t-28 109.5q-1 75 26 146.5t71 127.5t100.5 89t114.5 32q35 0 59.5 -10.5t45.5 -31.5l82 49h24l-36 -117l-74 -302q-4 -17 -4.5 -18.5t-1.5 -7.5
q-1 -5 -1.5 -9.5t-0.5 -7.5q0 -15 14 -15t35 16.5t53 57.5l17 -13q-24 -35 -44.5 -60.5t-39 -42t-37 -24.5t-38.5 -8q-33 0 -50.5 20t-17.5 54zM175 67q27 0 59 27.5t64.5 78t62 122t51.5 159.5q-8 22 -28 35.5t-43 13.5q-41 1 -79.5 -31t-68 -84t-47 -116t-16.5 -126
q0 -36 11 -57.5t34 -21.5zM254 623l12 58h259l-12 -58h-259z" />
    <glyph glyph-name="Abreve" unicode="&#x102;" horiz-adv-x="707" 
d="M387 589l-188 -313h248zM454 239h-278l-75 -125q-19 -29 -19 -49q0 -17 19.5 -25t61.5 -10l-6 -30h-206l6 30q22 2 38 9.5t28 27.5l350 574l-14 68h120l126 -642q5 -20 17 -26.5t34 -10.5l-6 -30h-273l6 30q22 1 40 3t31 8t20 17t7 29q0 6 -0.5 12t-2.5 15zM437 746
q-29 0 -52 9.5t-37 29t-18 49t5 69.5h32q-6 -50 18 -69t65 -19q40 0 73 19t47 69h33q-18 -81 -60 -119t-106 -38z" />
    <glyph glyph-name="abreve" unicode="&#x103;" horiz-adv-x="566" 
d="M317 64q0 10 3 29t8.5 42t12 46.5t13.5 42.5q-23 -48 -50 -91t-56 -74.5t-59.5 -50t-60.5 -18.5q-52 0 -80 39.5t-28 109.5q-1 75 26 146.5t71 127.5t100.5 89t114.5 32q35 0 59.5 -10.5t45.5 -31.5l82 49h24l-36 -117l-74 -302q-4 -17 -4.5 -18.5t-1.5 -7.5
q-1 -5 -1.5 -9.5t-0.5 -7.5q0 -15 14 -15t35 16.5t53 57.5l17 -13q-24 -35 -44.5 -60.5t-39 -42t-37 -24.5t-38.5 -8q-33 0 -50.5 20t-17.5 54zM175 67q27 0 59 27.5t64.5 78t62 122t51.5 159.5q-8 22 -28 35.5t-43 13.5q-41 1 -79.5 -31t-68 -84t-47 -116t-16.5 -126
q0 -36 11 -57.5t34 -21.5zM385 596q-60 0 -88 41t-10 120h33q-6 -51 15 -71t63 -20t71.5 20t45.5 71h33q-36 -161 -163 -161z" />
    <glyph glyph-name="Aogonek" unicode="&#x104;" horiz-adv-x="707" 
d="M454 239h-278l-75 -125q-19 -29 -19 -49q0 -17 19.5 -25t61.5 -10l-6 -30h-206l6 30q22 2 38 9.5t28 27.5l350 574l-14 68h120l126 -642q5 -20 17 -26.5t34 -10.5l-6 -30h-246q-53 -20 -81.5 -48.5t-28.5 -66.5q0 -20 13 -32t34 -12q23 0 45.5 10.5t48.5 32.5l9 -13
q-29 -31 -64.5 -56.5t-81.5 -25.5q-35 0 -57.5 18t-22.5 52q0 28 12 51.5t33.5 43t51 36t65.5 30.5q63 22 74 27q27 14 27 40q0 6 -0.5 12t-2.5 15zM387 589l-188 -313h248z" />
    <glyph glyph-name="aogonek" unicode="&#x105;" horiz-adv-x="566" 
d="M544 125q-32 -44 -62 -74q-15 -14 -33 -30.5t-40 -35.5q-21 -18 -35.5 -32t-23.5 -26t-13 -22.5t-4 -22.5q0 -20 13.5 -30.5t34.5 -10.5q23 0 45 10.5t48 32.5l9 -13q-29 -31 -64.5 -56.5t-81.5 -25.5q-34 0 -56.5 18t-22.5 51q1 22 11 41t26.5 35t38.5 30t46 28
q-30 2 -46.5 20.5t-16.5 51.5q0 10 3 29t8.5 42t12 46.5t13.5 42.5q-23 -48 -50 -91t-56 -74.5t-59.5 -50t-60.5 -18.5q-52 0 -80 39.5t-28 109.5q-1 75 26 146.5t71 127.5t100.5 89t114.5 32q35 0 59.5 -10.5t45.5 -31.5l82 49h24l-36 -117l-74 -302q-4 -17 -4.5 -18.5
t-1.5 -7.5q-1 -5 -1.5 -9.5t-0.5 -7.5q0 -15 14 -15t35 16.5t53 57.5zM175 67q27 0 59 27.5t64.5 78t62 122t51.5 159.5q-8 22 -28 35.5t-43 13.5q-41 1 -79.5 -31t-68 -84t-47 -116t-16.5 -126q0 -36 11 -57.5t34 -21.5z" />
    <glyph glyph-name="Cacute" unicode="&#x106;" horiz-adv-x="653" 
d="M462 712q66 0 120.5 -16t90.5 -44l-31 -152h-31q0 86 -37.5 131t-109.5 45q-47 1 -87.5 -17.5t-73.5 -50t-58.5 -73.5t-43 -89t-26 -95t-8.5 -92q0 -111 40 -171.5t118 -60.5q80 0 139 49.5t107 152.5h36l-53 -183q-52 -26 -107.5 -41t-124.5 -15q-67 0 -119 20
t-87.5 56.5t-54 88t-18.5 114.5q-1 82 30.5 161.5t87.5 142.5t133.5 101.5t167.5 37.5zM536 898h128l-1 -6l-171 -143h-25z" />
    <glyph glyph-name="cacute" unicode="&#x107;" horiz-adv-x="428" 
d="M297 502q-35 0 -65 -29.5t-52.5 -76t-35.5 -102.5t-13 -108q0 -28 5.5 -52.5t17 -42.5t29.5 -28.5t43 -10.5q42 0 73 23t68 69l18 -15q-18 -28 -39 -53.5t-46.5 -44.5t-55 -30t-63.5 -11q-38 0 -68 13.5t-50.5 37.5t-31 57t-10.5 71q-1 66 23 132t66 118t97 84t115 31
q56 0 87 -23t31 -63q0 -29 -17 -45.5t-44 -22.5h-17q1 26 -1.5 48t-10 38.5t-20.5 26t-33 9.5zM408 762h123l-1 -6l-186 -162h-25z" />
    <glyph glyph-name="Ccircumflex" unicode="&#x108;" horiz-adv-x="653" 
d="M462 712q66 0 120.5 -16t90.5 -44l-31 -152h-31q0 86 -37.5 131t-109.5 45q-47 1 -87.5 -17.5t-73.5 -50t-58.5 -73.5t-43 -89t-26 -95t-8.5 -92q0 -111 40 -171.5t118 -60.5q80 0 139 49.5t107 152.5h36l-53 -183q-52 -26 -107.5 -41t-124.5 -15q-67 0 -119 20
t-87.5 56.5t-54 88t-18.5 114.5q-1 82 30.5 161.5t87.5 142.5t133.5 101.5t167.5 37.5zM560 907l75 -158h-31l-97 89l-140 -89h-36l148 158h81z" />
    <glyph glyph-name="ccircumflex" unicode="&#x109;" horiz-adv-x="428" 
d="M297 502q-35 0 -65 -29.5t-52.5 -76t-35.5 -102.5t-13 -108q0 -28 5.5 -52.5t17 -42.5t29.5 -28.5t43 -10.5q42 0 73 23t68 69l18 -15q-18 -28 -39 -53.5t-46.5 -44.5t-55 -30t-63.5 -11q-38 0 -68 13.5t-50.5 37.5t-31 57t-10.5 71q-1 66 23 132t66 118t97 84t115 31
q56 0 87 -23t31 -63q0 -29 -17 -45.5t-44 -22.5h-17q1 26 -1.5 48t-10 38.5t-20.5 26t-33 9.5zM407 765l75 -172h-31l-97 103l-140 -103h-36l148 172h81z" />
    <glyph glyph-name="Cdotaccent" unicode="&#x10a;" horiz-adv-x="653" 
d="M462 712q66 0 120.5 -16t90.5 -44l-31 -152h-31q0 86 -37.5 131t-109.5 45q-47 1 -87.5 -17.5t-73.5 -50t-58.5 -73.5t-43 -89t-26 -95t-8.5 -92q0 -111 40 -171.5t118 -60.5q80 0 139 49.5t107 152.5h36l-53 -183q-52 -26 -107.5 -41t-124.5 -15q-67 0 -119 20
t-87.5 56.5t-54 88t-18.5 114.5q-1 82 30.5 161.5t87.5 142.5t133.5 101.5t167.5 37.5zM502 756q-28 0 -46.5 18.5t-18.5 44.5q0 29 20 50t50 21q28 0 47 -19t19 -45q0 -29 -20.5 -49.5t-50.5 -20.5z" />
    <glyph glyph-name="cdotaccent" unicode="&#x10b;" horiz-adv-x="428" 
d="M297 502q-35 0 -65 -29.5t-52.5 -76t-35.5 -102.5t-13 -108q0 -28 5.5 -52.5t17 -42.5t29.5 -28.5t43 -10.5q42 0 73 23t68 69l18 -15q-18 -28 -39 -53.5t-46.5 -44.5t-55 -30t-63.5 -11q-38 0 -68 13.5t-50.5 37.5t-31 57t-10.5 71q-1 66 23 132t66 118t97 84t115 31
q56 0 87 -23t31 -63q0 -29 -17 -45.5t-44 -22.5h-17q1 26 -1.5 48t-10 38.5t-20.5 26t-33 9.5zM357 608q-28 0 -46.5 18.5t-18.5 44.5q0 29 20 50t50 21q28 0 47 -18.5t19 -44.5q0 -29 -20.5 -50t-50.5 -21z" />
    <glyph glyph-name="Ccaron" unicode="&#x10c;" horiz-adv-x="653" 
d="M462 712q66 0 120.5 -16t90.5 -44l-31 -152h-31q0 86 -37.5 131t-109.5 45q-47 1 -87.5 -17.5t-73.5 -50t-58.5 -73.5t-43 -89t-26 -95t-8.5 -92q0 -111 40 -171.5t118 -60.5q80 0 139 49.5t107 152.5h36l-53 -183q-52 -26 -107.5 -41t-124.5 -15q-67 0 -119 20
t-87.5 56.5t-54 88t-18.5 114.5q-1 82 30.5 161.5t87.5 142.5t133.5 101.5t167.5 37.5zM450 749l-75 158h31l97 -89l140 89h36l-148 -158h-81z" />
    <glyph glyph-name="ccaron" unicode="&#x10d;" horiz-adv-x="428" 
d="M297 502q-35 0 -65 -29.5t-52.5 -76t-35.5 -102.5t-13 -108q0 -28 5.5 -52.5t17 -42.5t29.5 -28.5t43 -10.5q42 0 73 23t68 69l18 -15q-18 -28 -39 -53.5t-46.5 -44.5t-55 -30t-63.5 -11q-38 0 -68 13.5t-50.5 37.5t-31 57t-10.5 71q-1 66 23 132t66 118t97 84t115 31
q56 0 87 -23t31 -63q0 -29 -17 -45.5t-44 -22.5h-17q1 26 -1.5 48t-10 38.5t-20.5 26t-33 9.5zM294 595l-75 172h31l97 -103l140 103h36l-148 -172h-81z" />
    <glyph glyph-name="Dcaron" unicode="&#x10e;" horiz-adv-x="718" 
d="M-26 0l7 30q29 4 46.5 7.5t27 10.5t15 19t10.5 34l107 500q4 22 3.5 35t-8 19.5t-23 10t-41.5 6.5l6 30h266q74 0 133.5 -19.5t101.5 -56t64.5 -89t22.5 -117.5q0 -95 -34 -172.5t-94 -132.5t-140.5 -85t-173.5 -30h-296zM281 36q64 0 120.5 29.5t97.5 82t65 124
t24 155.5q0 114 -51.5 176.5t-163.5 62.5h-55l-118 -559q-10 -44 7 -57.5t61 -13.5h13zM389 749l-75 158h31l97 -89l140 89h36l-148 -158h-81z" />
    <glyph glyph-name="dcaron" unicode="&#x10f;" horiz-adv-x="585" 
d="M479 696l-64 31l3 16l176 40h14l-163 -661q-4 -14 -6.5 -25.5t-2.5 -17.5q0 -15 14 -15t35 17t53 57l17 -13q-48 -71 -83 -103t-76 -32q-32 0 -49.5 20t-17.5 54q0 10 3.5 30.5t9.5 45.5t13 50.5t14 45.5q-22 -49 -51 -93.5t-61 -78.5t-65 -54t-63 -20q-51 0 -80 39.5
t-29 109.5q-1 75 27 146.5t73.5 127.5t102.5 89t114 32q32 0 52.5 -7.5t40.5 -25.5zM176 67q27 0 60.5 28t67.5 79t64.5 122.5t51.5 157.5q-8 22 -28.5 35.5t-44.5 13.5q-42 2 -81.5 -31t-70 -85t-48 -115t-16.5 -120q0 -38 10.5 -61.5t34.5 -23.5zM775 777l-150 -199h-18
l63 205h106z" />
    <glyph glyph-name="Dcroat" unicode="&#x110;" horiz-adv-x="718" 
d="M51 341l8 41h81l47 219q4 22 3.5 35t-8 19.5t-23 10t-41.5 6.5l6 30h266q74 0 133.5 -19.5t101.5 -56t64.5 -89t22.5 -117.5q0 -95 -34 -172.5t-94 -132.5t-140.5 -85t-173.5 -30h-296l7 30q29 4 46.5 7.5t27 10.5t15 19t10.5 34l51 240h-80zM281 36q64 0 120.5 29.5
t97.5 82t65 124t24 155.5q0 114 -51.5 176.5t-163.5 62.5h-55l-60 -284h139l-8 -41h-140l-49 -234q-10 -44 7 -57.5t61 -13.5h13z" />
    <glyph glyph-name="dcroat" unicode="&#x111;" horiz-adv-x="587" 
d="M453 594h-130l8 37h131l17 65l-64 31l3 16l176 40h14l-38 -152h69l-8 -37h-70l-116 -472q-4 -14 -6.5 -25.5t-2.5 -17.5q0 -15 14 -15t35 17t53 57l17 -13q-48 -71 -83 -103t-76 -32q-32 0 -49.5 20t-17.5 54q0 10 3.5 30.5t9.5 45.5t13 50.5t14 45.5q-22 -49 -51 -93.5
t-61 -78.5t-65 -54t-63 -20q-51 0 -80 39.5t-29 109.5q-1 75 27 146.5t73.5 127.5t102.5 89t114 32q32 0 52.5 -7.5t40.5 -25.5zM176 67q27 0 60.5 28t67.5 79t64.5 122.5t51.5 157.5q-8 22 -28.5 35.5t-44.5 13.5q-42 2 -81.5 -31t-70 -85t-48 -115t-16.5 -120
q0 -38 10.5 -61.5t34.5 -23.5z" />
    <glyph glyph-name="Emacron" unicode="&#x112;" horiz-adv-x="625" 
d="M520 0h-546l7 30q29 4 46.5 7.5t27 10.5t15 19t10.5 34l107 500q4 22 3.5 35t-8 19.5t-23 10t-41.5 6.5l6 30h534l-32 -173h-24q-9 41 -18 67.5t-22 42t-32.5 21.5t-47.5 6h-164l-60 -285h144q32 0 52 21.5t38 69.5h30l-46 -219h-31q2 48 -8 69t-43 21h-144l-51 -239
q-8 -41 10.5 -54.5t69.5 -13.5h79q53 0 96 34q22 18 46 45t61 74h29zM300 768l12 58h275l-12 -58h-275z" />
    <glyph glyph-name="emacron" unicode="&#x113;" horiz-adv-x="442" 
d="M444 433q0 -45 -25 -78.5t-68 -56.5q-43 -22 -96 -37t-123 -29q0 -10 -1 -19t-1 -18q0 -67 27.5 -104t76.5 -37q43 0 79 23.5t74 71.5l19 -15q-48 -72 -101 -108t-119 -36q-78 0 -121.5 50.5t-43.5 134.5q-1 65 23.5 129.5t65.5 116t95.5 83t113.5 30.5q64 0 94.5 -29.5
t30.5 -71.5zM302 501q-30 0 -57 -21t-49 -55.5t-38 -78.5t-23 -90q109 26 162.5 69.5t53.5 117.5q0 24 -11.5 41t-37.5 17zM208 623l12 58h259l-12 -58h-259z" />
    <glyph glyph-name="Ebreve" unicode="&#x114;" horiz-adv-x="625" 
d="M520 0h-546l7 30q29 4 46.5 7.5t27 10.5t15 19t10.5 34l107 500q4 22 3.5 35t-8 19.5t-23 10t-41.5 6.5l6 30h534l-32 -173h-24q-9 41 -18 67.5t-22 42t-32.5 21.5t-47.5 6h-164l-60 -285h144q32 0 52 21.5t38 69.5h30l-46 -219h-31q2 48 -8 69t-43 21h-144l-51 -239
q-8 -41 10.5 -54.5t69.5 -13.5h79q53 0 96 34q22 18 46 45t61 74h29zM440 746q-29 0 -52 9.5t-37 29t-18 49t5 69.5h32q-6 -50 18 -69t65 -19q40 0 73 19t47 69h33q-18 -81 -60 -119t-106 -38z" />
    <glyph glyph-name="ebreve" unicode="&#x115;" horiz-adv-x="442" 
d="M444 433q0 -45 -25 -78.5t-68 -56.5q-43 -22 -96 -37t-123 -29q0 -10 -1 -19t-1 -18q0 -67 27.5 -104t76.5 -37q43 0 79 23.5t74 71.5l19 -15q-48 -72 -101 -108t-119 -36q-78 0 -121.5 50.5t-43.5 134.5q-1 65 23.5 129.5t65.5 116t95.5 83t113.5 30.5q64 0 94.5 -29.5
t30.5 -71.5zM302 501q-30 0 -57 -21t-49 -55.5t-38 -78.5t-23 -90q109 26 162.5 69.5t53.5 117.5q0 24 -11.5 41t-37.5 17zM333 596q-60 0 -88 41t-10 120h33q-6 -51 15 -71t63 -20t71.5 20t45.5 71h33q-36 -161 -163 -161z" />
    <glyph glyph-name="Edotaccent" unicode="&#x116;" horiz-adv-x="625" 
d="M520 0h-546l7 30q29 4 46.5 7.5t27 10.5t15 19t10.5 34l107 500q4 22 3.5 35t-8 19.5t-23 10t-41.5 6.5l6 30h534l-32 -173h-24q-9 41 -18 67.5t-22 42t-32.5 21.5t-47.5 6h-164l-60 -285h144q32 0 52 21.5t38 69.5h30l-46 -219h-31q2 48 -8 69t-43 21h-144l-51 -239
q-8 -41 10.5 -54.5t69.5 -13.5h79q53 0 96 34q22 18 46 45t61 74h29zM447 756q-28 0 -46.5 18.5t-18.5 44.5q0 29 20 50t50 21q28 0 47 -19t19 -45q0 -29 -20.5 -49.5t-50.5 -20.5z" />
    <glyph glyph-name="edotaccent" unicode="&#x117;" horiz-adv-x="442" 
d="M444 433q0 -45 -25 -78.5t-68 -56.5q-43 -22 -96 -37t-123 -29q0 -10 -1 -19t-1 -18q0 -67 27.5 -104t76.5 -37q43 0 79 23.5t74 71.5l19 -15q-48 -72 -101 -108t-119 -36q-78 0 -121.5 50.5t-43.5 134.5q-1 65 23.5 129.5t65.5 116t95.5 83t113.5 30.5q64 0 94.5 -29.5
t30.5 -71.5zM302 501q-30 0 -57 -21t-49 -55.5t-38 -78.5t-23 -90q109 26 162.5 69.5t53.5 117.5q0 24 -11.5 41t-37.5 17zM354 608q-28 0 -46.5 18.5t-18.5 44.5q0 29 20 50t50 21q28 0 47 -18.5t19 -44.5q0 -29 -20.5 -50t-50.5 -21z" />
    <glyph glyph-name="Eogonek" unicode="&#x118;" horiz-adv-x="625" 
d="M520 0h-102q-46 -24 -77 -53.5t-31 -61.5q0 -20 13 -32t34 -12q23 0 45.5 10.5t48.5 32.5l9 -13q-15 -16 -31 -31t-33.5 -26t-37.5 -18t-44 -7q-35 0 -57.5 18t-22.5 51q0 25 11.5 45.5t31 38t46 32t56.5 26.5h-405l7 30q29 4 46.5 7.5t27 10.5t15 19t10.5 34l107 500
q4 22 3.5 35t-8 19.5t-23 10t-41.5 6.5l6 30h534l-32 -173h-24q-9 41 -18 67.5t-22 42t-32.5 21.5t-47.5 6h-164l-60 -285h144q32 0 52 21.5t38 69.5h30l-46 -219h-31q2 48 -8 69t-43 21h-144l-51 -239q-8 -41 10.5 -54.5t69.5 -13.5h79q53 0 96 34q22 18 46 45t61 74h29z
" />
    <glyph glyph-name="eogonek" unicode="&#x119;" horiz-adv-x="442" 
d="M194 -10q-38 0 -70 13.5t-55 37.5t-35.5 58t-12.5 76q-1 65 23.5 129.5t65.5 116t95.5 83t113.5 30.5q64 0 94.5 -29.5t30.5 -71.5q0 -45 -25 -78.5t-68 -56.5q-43 -22 -96 -37t-123 -29q0 -10 -1 -19t-1 -18q0 -68 27.5 -105t78.5 -37q42 0 78 24t75 72l18 -15
q-30 -42 -66 -74.5t-85 -57.5q-42 -20 -67.5 -49.5t-25.5 -67.5q0 -20 12.5 -32t34.5 -12q23 0 45 10.5t48 32.5l9 -13q-15 -16 -30.5 -30.5t-33 -26t-38 -18.5t-44.5 -7q-35 0 -57.5 18t-22.5 51q0 21 8.5 39t23.5 34.5t34.5 30.5t41.5 28zM302 501q-30 0 -57 -21
t-49 -55.5t-38 -78.5t-23 -90q109 26 162.5 69.5t53.5 117.5q0 24 -11.5 41t-37.5 17z" />
    <glyph glyph-name="Ecaron" unicode="&#x11a;" horiz-adv-x="625" 
d="M520 0h-546l7 30q29 4 46.5 7.5t27 10.5t15 19t10.5 34l107 500q4 22 3.5 35t-8 19.5t-23 10t-41.5 6.5l6 30h534l-32 -173h-24q-9 41 -18 67.5t-22 42t-32.5 21.5t-47.5 6h-164l-60 -285h144q32 0 52 21.5t38 69.5h30l-46 -219h-31q2 48 -8 69t-43 21h-144l-51 -239
q-8 -41 10.5 -54.5t69.5 -13.5h79q53 0 96 34q22 18 46 45t61 74h29zM395 749l-75 158h31l97 -89l140 89h36l-148 -158h-81z" />
    <glyph glyph-name="ecaron" unicode="&#x11b;" horiz-adv-x="442" 
d="M444 433q0 -45 -25 -78.5t-68 -56.5q-43 -22 -96 -37t-123 -29q0 -10 -1 -19t-1 -18q0 -67 27.5 -104t76.5 -37q43 0 79 23.5t74 71.5l19 -15q-48 -72 -101 -108t-119 -36q-78 0 -121.5 50.5t-43.5 134.5q-1 65 23.5 129.5t65.5 116t95.5 83t113.5 30.5q64 0 94.5 -29.5
t30.5 -71.5zM302 501q-30 0 -57 -21t-49 -55.5t-38 -78.5t-23 -90q109 26 162.5 69.5t53.5 117.5q0 24 -11.5 41t-37.5 17zM288 595l-75 172h31l97 -103l140 103h36l-148 -172h-81z" />
    <glyph glyph-name="Gcircumflex" unicode="&#x11c;" horiz-adv-x="708" 
d="M335 27q35 0 67.5 7.5t60.5 27.5l36 165q4 22 3.5 34.5t-7.5 19t-22.5 9.5t-42.5 7l6 31h269l-6 -31q-25 -2 -40.5 -5.5t-25 -11t-14.5 -20t-9 -33.5l-35 -166q-29 -17 -56 -30t-56.5 -22t-61.5 -14t-70 -5q-67 0 -120 19.5t-90.5 55t-57.5 86.5t-20 114q-1 82 31 162.5
t89 144t135 102.5t168 38q66 0 122.5 -17t91.5 -43l-31 -152h-32q0 85 -38.5 130.5t-111.5 45.5q-47 1 -88 -17.5t-74 -50.5t-59 -74.5t-43.5 -89.5t-26.5 -95.5t-9 -92.5q0 -112 44.5 -170.5t123.5 -58.5zM566 907l75 -158h-31l-97 89l-140 -89h-36l148 158h81z" />
    <glyph glyph-name="gcircumflex" unicode="&#x11d;" horiz-adv-x="481" 
d="M346 408q0 42 -14.5 70t-49.5 28q-25 0 -47 -16.5t-39 -44.5t-27 -65t-10 -77q0 -42 14.5 -70t49.5 -28q25 0 47.5 16.5t39.5 44t26.5 64.5t9.5 78zM449 386q0 -47 -18 -85.5t-49 -66.5t-72.5 -43t-88.5 -15q-35 0 -63 9q-17 -11 -26.5 -21t-9.5 -22q0 -13 10.5 -18.5
t27.5 -10.5l159 -47q25 -7 47.5 -17t39 -24.5t26 -34.5t9.5 -47q0 -40 -21.5 -71t-58 -52t-86 -31.5t-105.5 -10.5q-49 0 -93.5 10t-78.5 28t-54 43.5t-20 55.5q0 27 12.5 47t34.5 34t51 23.5t62 17.5q-14 11 -23 25t-9 34q0 32 21.5 54.5t64.5 42.5q-40 18 -60.5 53
t-20.5 80q0 46 18 84.5t49 66t72 42.5t88 15q22 0 42 -4t36 -12l176 7l-15 -54h-48l-60 9q34 -42 34 -94zM100 25q-42 -16 -64 -40.5t-22 -60.5q0 -51 45 -82t119 -31q83 0 126.5 25t43.5 63q0 29 -17.5 42t-53.5 27zM400 765l75 -172h-31l-97 103l-140 -103h-36l148 172h81
z" />
    <glyph glyph-name="Gbreve" unicode="&#x11e;" horiz-adv-x="708" 
d="M335 27q35 0 67.5 7.5t60.5 27.5l36 165q4 22 3.5 34.5t-7.5 19t-22.5 9.5t-42.5 7l6 31h269l-6 -31q-25 -2 -40.5 -5.5t-25 -11t-14.5 -20t-9 -33.5l-35 -166q-29 -17 -56 -30t-56.5 -22t-61.5 -14t-70 -5q-67 0 -120 19.5t-90.5 55t-57.5 86.5t-20 114q-1 82 31 162.5
t89 144t135 102.5t168 38q66 0 122.5 -17t91.5 -43l-31 -152h-32q0 85 -38.5 130.5t-111.5 45.5q-47 1 -88 -17.5t-74 -50.5t-59 -74.5t-43.5 -89.5t-26.5 -95.5t-9 -92.5q0 -112 44.5 -170.5t123.5 -58.5zM503 746q-29 0 -52 9.5t-37 29t-18 49t5 69.5h32q-6 -50 18 -69
t65 -19q40 0 73 19t47 69h33q-18 -81 -60 -119t-106 -38z" />
    <glyph glyph-name="gbreve" unicode="&#x11f;" horiz-adv-x="481" 
d="M346 408q0 42 -14.5 70t-49.5 28q-25 0 -47 -16.5t-39 -44.5t-27 -65t-10 -77q0 -42 14.5 -70t49.5 -28q25 0 47.5 16.5t39.5 44t26.5 64.5t9.5 78zM449 386q0 -47 -18 -85.5t-49 -66.5t-72.5 -43t-88.5 -15q-35 0 -63 9q-17 -11 -26.5 -21t-9.5 -22q0 -13 10.5 -18.5
t27.5 -10.5l159 -47q25 -7 47.5 -17t39 -24.5t26 -34.5t9.5 -47q0 -40 -21.5 -71t-58 -52t-86 -31.5t-105.5 -10.5q-49 0 -93.5 10t-78.5 28t-54 43.5t-20 55.5q0 27 12.5 47t34.5 34t51 23.5t62 17.5q-14 11 -23 25t-9 34q0 32 21.5 54.5t64.5 42.5q-40 18 -60.5 53
t-20.5 80q0 46 18 84.5t49 66t72 42.5t88 15q22 0 42 -4t36 -12l176 7l-15 -54h-48l-60 9q34 -42 34 -94zM100 25q-42 -16 -64 -40.5t-22 -60.5q0 -51 45 -82t119 -31q83 0 126.5 25t43.5 63q0 29 -17.5 42t-53.5 27zM326 596q-60 0 -88 41t-10 120h33q-6 -51 15 -71t63 -20
t71.5 20t45.5 71h33q-36 -161 -163 -161z" />
    <glyph glyph-name="Gdotaccent" unicode="&#x120;" horiz-adv-x="708" 
d="M335 27q35 0 67.5 7.5t60.5 27.5l36 165q4 22 3.5 34.5t-7.5 19t-22.5 9.5t-42.5 7l6 31h269l-6 -31q-25 -2 -40.5 -5.5t-25 -11t-14.5 -20t-9 -33.5l-35 -166q-29 -17 -56 -30t-56.5 -22t-61.5 -14t-70 -5q-67 0 -120 19.5t-90.5 55t-57.5 86.5t-20 114q-1 82 31 162.5
t89 144t135 102.5t168 38q66 0 122.5 -17t91.5 -43l-31 -152h-32q0 85 -38.5 130.5t-111.5 45.5q-47 1 -88 -17.5t-74 -50.5t-59 -74.5t-43.5 -89.5t-26.5 -95.5t-9 -92.5q0 -112 44.5 -170.5t123.5 -58.5zM508 756q-28 0 -46.5 18.5t-18.5 44.5q0 29 20 50t50 21
q28 0 47 -19t19 -45q0 -29 -20.5 -49.5t-50.5 -20.5z" />
    <glyph glyph-name="gdotaccent" unicode="&#x121;" horiz-adv-x="481" 
d="M346 408q0 42 -14.5 70t-49.5 28q-25 0 -47 -16.5t-39 -44.5t-27 -65t-10 -77q0 -42 14.5 -70t49.5 -28q25 0 47.5 16.5t39.5 44t26.5 64.5t9.5 78zM449 386q0 -47 -18 -85.5t-49 -66.5t-72.5 -43t-88.5 -15q-35 0 -63 9q-17 -11 -26.5 -21t-9.5 -22q0 -13 10.5 -18.5
t27.5 -10.5l159 -47q25 -7 47.5 -17t39 -24.5t26 -34.5t9.5 -47q0 -40 -21.5 -71t-58 -52t-86 -31.5t-105.5 -10.5q-49 0 -93.5 10t-78.5 28t-54 43.5t-20 55.5q0 27 12.5 47t34.5 34t51 23.5t62 17.5q-14 11 -23 25t-9 34q0 32 21.5 54.5t64.5 42.5q-40 18 -60.5 53
t-20.5 80q0 46 18 84.5t49 66t72 42.5t88 15q22 0 42 -4t36 -12l176 7l-15 -54h-48l-60 9q34 -42 34 -94zM100 25q-42 -16 -64 -40.5t-22 -60.5q0 -51 45 -82t119 -31q83 0 126.5 25t43.5 63q0 29 -17.5 42t-53.5 27zM340 608q-28 0 -46.5 18.5t-18.5 44.5q0 29 20 50t50 21
q28 0 47 -18.5t19 -44.5q0 -29 -20.5 -50t-50.5 -21z" />
    <glyph glyph-name="Gcommaaccent" unicode="&#x122;" horiz-adv-x="708" 
d="M335 27q35 0 67.5 7.5t60.5 27.5l36 165q4 22 3.5 34.5t-7.5 19t-22.5 9.5t-42.5 7l6 31h269l-6 -31q-25 -2 -40.5 -5.5t-25 -11t-14.5 -20t-9 -33.5l-35 -166q-29 -17 -56 -30t-56.5 -22t-61.5 -14t-70 -5q-67 0 -120 19.5t-90.5 55t-57.5 86.5t-20 114q-1 82 31 162.5
t89 144t135 102.5t168 38q66 0 122.5 -17t91.5 -43l-31 -152h-32q0 85 -38.5 130.5t-111.5 45.5q-47 1 -88 -17.5t-74 -50.5t-59 -74.5t-43.5 -89.5t-26.5 -95.5t-9 -92.5q0 -112 44.5 -170.5t123.5 -58.5zM277 -151q-19 5 -27 16t-8 25q0 30 20.5 47.5t52.5 17.5t50 -19
t18 -49q0 -51 -38 -84.5t-116 -33.5l4 26q40 0 65.5 16.5t29.5 37.5h-51z" />
    <glyph glyph-name="gcommaaccent" unicode="&#x123;" horiz-adv-x="481" 
d="M346 408q0 42 -14.5 70t-49.5 28q-25 0 -47 -16.5t-39 -44.5t-27 -65t-10 -77q0 -42 14.5 -70t49.5 -28q25 0 47.5 16.5t39.5 44t26.5 64.5t9.5 78zM449 386q0 -47 -18 -85.5t-49 -66.5t-72.5 -43t-88.5 -15q-35 0 -63 9q-17 -11 -26.5 -21t-9.5 -22q0 -13 10.5 -18.5
t27.5 -10.5l159 -47q25 -7 47.5 -17t39 -24.5t26 -34.5t9.5 -47q0 -40 -21.5 -71t-58 -52t-86 -31.5t-105.5 -10.5q-49 0 -93.5 10t-78.5 28t-54 43.5t-20 55.5q0 27 12.5 47t34.5 34t51 23.5t62 17.5q-14 11 -23 25t-9 34q0 32 21.5 54.5t64.5 42.5q-40 18 -60.5 53
t-20.5 80q0 46 18 84.5t49 66t72 42.5t88 15q22 0 42 -4t36 -12l176 7l-15 -54h-48l-60 9q34 -42 34 -94zM100 25q-42 -16 -64 -40.5t-22 -60.5q0 -51 45 -82t119 -31q83 0 126.5 25t43.5 63q0 29 -17.5 42t-53.5 27zM376 709q19 -5 27 -16t8 -25q0 -29 -20.5 -46.5
t-52.5 -17.5t-50 18t-18 50q0 49 38 83t116 34l-4 -25q-40 0 -65.5 -17t-29.5 -38h51z" />
    <glyph glyph-name="Hcircumflex" unicode="&#x124;" horiz-adv-x="788" 
d="M187 601q4 22 3.5 35t-8 19.5t-23 10t-41.5 6.5l6 30h287l-7 -30q-30 -4 -47 -7.5t-26.5 -10.5t-14.5 -19t-11 -34l-47 -219h328l47 219q4 22 3.5 35t-8 19.5t-23 10t-41.5 6.5l6 30h287l-7 -30q-30 -4 -47 -7.5t-26.5 -10.5t-14.5 -19t-11 -34l-107 -500
q-4 -23 -3.5 -35.5t8 -19t23 -10t42.5 -6.5l-7 -30h-287l7 30q30 4 47 7.5t26.5 10.5t14.5 19t11 34l52 240h-329l-51 -240q-4 -23 -3.5 -35.5t8 -19t23 -10t42.5 -6.5l-7 -30h-287l7 30q29 4 46.5 7.5t27 10.5t15 19t10.5 34zM571 907l75 -158h-31l-97 89l-140 -89h-36
l148 158h81z" />
    <glyph glyph-name="hcircumflex" unicode="&#x125;" horiz-adv-x="568" 
d="M310 783l-125 -496q23 44 54.5 88t67 79.5t73 57.5t72.5 22q38 0 53 -19.5t15 -54.5q0 -10 -2 -22l-4 -24l-78 -292q-4 -14 -6.5 -25.5t-2.5 -17.5q0 -15 14 -15t35 17t53 57l17 -13q-48 -71 -83 -103t-76 -32q-33 0 -51 20.5t-18 53.5q0 17 3 37.5t11 47.5l72 260
q2 9 3.5 17.5t1.5 14.5q0 21 -18 21q-22 0 -56 -26t-69.5 -70t-66.5 -101.5t-47 -121.5l-36 -143h-109l173 696l-64 31l4 16l175 40h15zM482 959l75 -158h-31l-97 89l-140 -89h-36l148 158h81z" />
    <glyph glyph-name="Hbar" unicode="&#x126;" horiz-adv-x="796" 
d="M262 382h328l25 116h-328zM88 498l8 40h81l14 63q4 22 3.5 35t-8 19.5t-23 10t-41.5 6.5l6 30h287l-7 -30q-30 -4 -47 -7.5t-26.5 -10.5t-14.5 -19t-11 -34l-14 -63h328l14 63q4 22 3.5 35t-8 19.5t-23 10t-41.5 6.5l6 30h287l-7 -30q-30 -4 -47 -7.5t-26.5 -10.5
t-14.5 -19t-11 -34l-14 -63h87l-8 -40h-87l-85 -397q-4 -23 -3.5 -35.5t8 -19t23 -10t42.5 -6.5l-7 -30h-287l7 30q29 4 46.5 7.5t27 10.5t15 19t10.5 34l52 240h-328l-52 -240q-4 -23 -3.5 -35.5t8 -19t23 -10t42.5 -6.5l-7 -30h-287l7 30q29 4 46.5 7.5t27 10.5t15 19
t10.5 34l85 397h-81z" />
    <glyph glyph-name="hbar" unicode="&#x127;" horiz-adv-x="569" 
d="M396 594h-133l-77 -307q23 44 54.5 88t67 79.5t73 57.5t72.5 22q38 0 53 -19.5t15 -54.5q0 -10 -2 -22l-4 -24l-78 -292q-4 -14 -6.5 -25.5t-2.5 -17.5q0 -15 14 -15t35 17t53 57l17 -13q-48 -71 -83 -103t-76 -32q-33 0 -51 20.5t-18 53.5q0 17 3 37.5t11 47.5l71 260
q6 19 6 32q0 21 -18 21q-22 0 -56 -26t-69.5 -70t-66.5 -101.5t-47 -121.5l-36 -143h-109l147 594h-66l8 37h67l17 65l-64 31l4 16l175 40h15l-38 -152h131z" />
    <glyph glyph-name="Itilde" unicode="&#x128;" horiz-adv-x="342" 
d="M187 601q4 22 3.5 35t-8 19.5t-23 10t-41.5 6.5l6 30h287l-7 -30q-30 -4 -47 -7.5t-26.5 -10.5t-14.5 -19t-11 -34l-107 -500q-4 -23 -3.5 -35.5t8 -19t23 -10t42.5 -6.5l-7 -30h-287l7 30q29 4 46.5 7.5t27 10.5t15 19t10.5 34zM344 752q-18 0 -33 7t-35 21
q-19 15 -31.5 21.5t-27.5 6.5q-22 0 -38 -13.5t-36 -42.5l-21 12q18 33 32 56t27.5 36.5t28 19.5t32.5 6t33 -7.5t34 -21.5q20 -14 32.5 -21t27.5 -7q21 0 37 14t36 43l22 -13q-17 -33 -31.5 -55.5t-28 -36t-28 -19.5t-32.5 -6z" />
    <glyph glyph-name="itilde" unicode="&#x129;" horiz-adv-x="289" 
d="M268 604q-14 0 -26 7t-29 21q-16 15 -26 21.5t-22 6.5q-20 0 -35 -13.5t-35 -42.5l-20 12q17 33 30.5 56t26 36.5t26 19.5t31.5 6q14 0 26 -7.5t28 -21.5q17 -14 27 -21t22 -7q38 0 69 57l21 -12q-17 -33 -30 -55.5t-26 -36.5t-27 -20t-31 -6zM119 443l-59 33l4 15
l173 43h15l-103 -412q-4 -14 -6.5 -25.5t-2.5 -17.5q0 -15 14 -15q15 0 34.5 17t53.5 57l17 -13q-24 -35 -44.5 -60.5t-39 -42t-37 -24.5t-38.5 -8q-33 0 -50.5 20.5t-17.5 53.5q0 18 2.5 37t10.5 48z" />
    <glyph glyph-name="Imacron" unicode="&#x12a;" horiz-adv-x="342" 
d="M187 601q4 22 3.5 35t-8 19.5t-23 10t-41.5 6.5l6 30h287l-7 -30q-30 -4 -47 -7.5t-26.5 -10.5t-14.5 -19t-11 -34l-107 -500q-4 -23 -3.5 -35.5t8 -19t23 -10t42.5 -6.5l-7 -30h-287l7 30q29 4 46.5 7.5t27 10.5t15 19t10.5 34zM144 768l12 58h275l-12 -58h-275z" />
    <glyph glyph-name="imacron" unicode="&#x12b;" horiz-adv-x="289" 
d="M105 623l12 58h223l-12 -58h-223zM119 443l-59 33l4 15l173 43h15l-103 -412q-4 -14 -6.5 -25.5t-2.5 -17.5q0 -15 14 -15q15 0 34.5 17t53.5 57l17 -13q-24 -35 -44.5 -60.5t-39 -42t-37 -24.5t-38.5 -8q-33 0 -50.5 20.5t-17.5 53.5q0 18 2.5 37t10.5 48z" />
    <glyph glyph-name="Ibreve" unicode="&#x12c;" horiz-adv-x="342" 
d="M187 601q4 22 3.5 35t-8 19.5t-23 10t-41.5 6.5l6 30h287l-7 -30q-30 -4 -47 -7.5t-26.5 -10.5t-14.5 -19t-11 -34l-107 -500q-4 -23 -3.5 -35.5t8 -19t23 -10t42.5 -6.5l-7 -30h-287l7 30q29 4 46.5 7.5t27 10.5t15 19t10.5 34zM285 746q-29 0 -52 9.5t-37 29t-18 49
t5 69.5h32q-6 -50 18 -69t65 -19q40 0 73 19t47 69h33q-18 -81 -60 -119t-106 -38z" />
    <glyph glyph-name="ibreve" unicode="&#x12d;" horiz-adv-x="289" 
d="M119 443l-59 33l4 15l173 43h15l-103 -412q-4 -14 -6.5 -25.5t-2.5 -17.5q0 -15 14 -15q15 0 34.5 17t53.5 57l17 -13q-24 -35 -44.5 -60.5t-39 -42t-37 -24.5t-38.5 -8q-33 0 -50.5 20.5t-17.5 53.5q0 18 2.5 37t10.5 48zM210 596q-60 0 -88 41t-10 120h33
q-6 -51 15 -71t63 -20t71.5 20t45.5 71h33q-36 -161 -163 -161z" />
    <glyph glyph-name="Iogonek" unicode="&#x12e;" horiz-adv-x="342" 
d="M187 601q4 22 3.5 35t-8 19.5t-23 10t-41.5 6.5l6 30h287l-7 -30q-30 -4 -47 -7.5t-26.5 -10.5t-14.5 -19t-11 -34l-107 -500q-4 -23 -3.5 -35.5t8 -19t23 -10t42.5 -6.5l-7 -30h-91q-46 -24 -77 -53.5t-31 -61.5q0 -20 13 -32t34 -12q23 0 45.5 10.5t48.5 32.5l9 -13
q-15 -16 -31 -31t-33.5 -26t-37.5 -18t-44 -7q-35 0 -57.5 18t-22.5 51q0 25 11.5 45.5t31 38t46 32t56.5 26.5h-157l7 30q29 4 46.5 7.5t27 10.5t15 19t10.5 34z" />
    <glyph glyph-name="iogonek" unicode="&#x12f;" horiz-adv-x="289" 
d="M228 607q-29 0 -48 19t-19 45q0 30 20.5 51t51.5 21q29 0 48 -19t19 -45q0 -29 -21 -50.5t-51 -21.5zM32 64q0 18 2.5 37t10.5 48l74 294l-59 33l4 15l173 43h15l-103 -412q-4 -14 -6.5 -25.5t-2.5 -17.5q0 -15 14 -15q15 0 34.5 17t53.5 57l17 -13q-33 -45 -62 -73
q-15 -14 -33 -30.5t-40 -35.5q-21 -19 -35.5 -33t-23 -26t-12.5 -22.5t-4 -22.5q0 -20 13 -30.5t34 -10.5q23 0 45 10.5t48 32.5l9 -13q-15 -16 -30.5 -30.5t-33 -26t-38 -18.5t-44.5 -7q-34 0 -56.5 18t-22.5 51q1 22 11 41t26.5 35t38.5 30t46 28q-30 2 -46.5 20t-16.5 52
z" />
    <glyph glyph-name="Idotaccent" unicode="&#x130;" horiz-adv-x="342" 
d="M187 601q4 22 3.5 35t-8 19.5t-23 10t-41.5 6.5l6 30h287l-7 -30q-30 -4 -47 -7.5t-26.5 -10.5t-14.5 -19t-11 -34l-107 -500q-4 -23 -3.5 -35.5t8 -19t23 -10t42.5 -6.5l-7 -30h-287l7 30q29 4 46.5 7.5t27 10.5t15 19t10.5 34zM291 756q-28 0 -46.5 18.5t-18.5 44.5
q0 29 20 50t50 21q28 0 47 -19t19 -45q0 -29 -20.5 -49.5t-50.5 -20.5z" />
    <glyph glyph-name="dotlessi" unicode="&#x131;" horiz-adv-x="289" 
d="M119 443l-59 33l4 15l173 43h15l-103 -412q-4 -14 -6.5 -25.5t-2.5 -17.5q0 -15 14 -15q15 0 34.5 17t53.5 57l17 -13q-24 -35 -44.5 -60.5t-39 -42t-37 -24.5t-38.5 -8q-33 0 -50.5 20.5t-17.5 53.5q0 18 2.5 37t10.5 48z" />
    <glyph glyph-name="IJ" unicode="&#x132;" horiz-adv-x="824" 
d="M188 601q4 22 3.5 35t-8 19.5t-23 10t-41.5 6.5l6 30h287l-7 -30q-30 -4 -47 -7.5t-26.5 -10.5t-14.5 -19t-11 -34l-107 -500q-4 -23 -3.5 -35.5t8 -19t23 -10t42.5 -6.5l-7 -30h-287l7 30q29 4 46.5 7.5t27 10.5t15 19t10.5 34zM679 601q4 22 3.5 35t-8 19.5t-23 10
t-41.5 6.5l6 30h287l-7 -30q-30 -4 -47 -7.5t-26.5 -10.5t-14.5 -19t-11 -34l-88 -409q-11 -55 -33 -93.5t-54 -62.5t-73.5 -35t-92.5 -11q-77 0 -123 30.5t-46 81.5q0 29 13.5 52t36.5 37h81q-10 -22 -16 -44.5t-6 -44.5q0 -35 18 -58t53 -23q46 0 74 34t46 112z" />
    <glyph glyph-name="ij" unicode="&#x133;" horiz-adv-x="507" 
d="M228 607q-29 0 -48 19t-19 45q0 30 20.5 51t51.5 21q29 0 48 -19t19 -45q0 -29 -21 -50.5t-51 -21.5zM119 443l-59 33l4 15l173 43h15l-103 -412q-4 -14 -6.5 -25.5t-2.5 -17.5q0 -15 14 -15q15 0 34.5 17t53.5 57l17 -13q-24 -35 -44.5 -60.5t-39 -42t-37 -24.5
t-38.5 -8q-33 0 -50.5 20.5t-17.5 53.5q0 18 2.5 37t10.5 48zM472 607q-29 0 -48 19t-19 45q0 30 21 51t51 21q29 0 48 -19t19 -45q0 -29 -21 -50.5t-51 -21.5zM504 534l-93 -404q-21 -93 -46.5 -158t-57 -105.5t-69 -58.5t-82.5 -18q-43 0 -70 17.5t-27 50.5q0 28 18.5 43
t41.5 19h15q2 -45 16 -71.5t37 -26.5q14 0 24 7.5t19 27t18.5 53.5t21.5 86l103 447l-59 33l3 15l172 43h15z" />
    <glyph glyph-name="Jcircumflex" unicode="&#x134;" horiz-adv-x="512" 
d="M367 601q4 22 3.5 35t-8 19.5t-23 10t-41.5 6.5l6 30h287l-7 -30q-30 -4 -47 -7.5t-26.5 -10.5t-14.5 -19t-11 -34l-88 -409q-11 -55 -33 -93.5t-54 -62.5t-73.5 -35t-92.5 -11q-77 0 -123 30.5t-46 81.5q0 29 13.5 52t36.5 37h81q-10 -22 -16 -44.5t-6 -44.5
q0 -35 18 -58t53 -23q46 0 74 34t46 112zM527 907l75 -158h-31l-97 89l-140 -89h-36l148 158h81z" />
    <glyph glyph-name="jcircumflex" unicode="&#x135;" horiz-adv-x="257" 
d="M283 765l75 -172h-31l-97 103l-140 -103h-36l148 172h81zM254 534l-93 -404q-21 -93 -46.5 -158t-57 -105.5t-69 -58.5t-82.5 -18q-43 0 -70 17.5t-27 50.5q0 28 18.5 43t41.5 19h15q2 -45 16 -71.5t37 -26.5q14 0 24 7.5t19 27t18.5 53.5t21.5 86l103 447l-59 33l3 15
l172 43h15z" />
    <glyph glyph-name="Kcommaaccent" unicode="&#x136;" horiz-adv-x="683" 
d="M198 101q-4 -23 -3.5 -35.5t8 -19t23 -10t42.5 -6.5l-7 -30h-287l7 30q29 4 46.5 7.5t27 10.5t15 19t10.5 34l107 500q4 22 3.5 35t-8 19.5t-23 10t-41.5 6.5l6 30h287l-7 -30q-30 -4 -47 -7.5t-26.5 -10.5t-14.5 -19t-11 -34zM373 388l157 -289q11 -19 21.5 -32
t22.5 -20.5t26.5 -11.5t35.5 -5l-7 -30h-163q-17 18 -31 38.5t-34 54.5l-138 253l301 261q13 11 22 20.5t9 20.5q0 12 -12.5 17t-55.5 7l6 30h221l-6 -30q-33 -2 -55 -13.5t-51 -34.5zM250 -151q-19 5 -27 16t-8 25q0 30 20.5 47.5t52.5 17.5t50 -19t18 -49q0 -51 -38 -84.5
t-116 -33.5l4 26q40 0 65.5 16.5t29.5 37.5h-51z" />
    <glyph glyph-name="kcommaaccent" unicode="&#x137;" horiz-adv-x="531" 
d="M117 0h-110l174 696l-64 31l4 16l175 40h15zM288 336l84 -214q19 -46 18 -44t3 -4q5 -7 11 -11.5t14 -4.5q17 0 33 16.5t44 49.5l16 -13q-39 -63 -70 -92t-72 -29q-40 0 -61.5 27.5t-38.5 75.5l-65 191l172 191q28 32 50 45.5t48 13.5q34 0 50.5 -19t16.5 -44
q0 -27 -16 -45t-46 -30h-8q0 22 -9.5 40t-33.5 18q-20 0 -36 -11t-39 -36zM139 -151q-19 5 -27 16t-8 25q0 30 20.5 47.5t52.5 17.5t50 -19t18 -49q0 -51 -38 -84.5t-116 -33.5l4 26q40 0 65.5 16.5t29.5 37.5h-51z" />
    <glyph glyph-name="kgreenlandic" unicode="&#x138;" horiz-adv-x="540" 
d="M126 0h-109l111 443l-59 33l3 15l172 43h15zM298 336l84 -214q19 -46 18 -44t3 -4q5 -7 11 -11.5t14 -4.5q17 0 33.5 16t42.5 50l17 -13q-39 -63 -70 -92t-72 -29q-40 0 -61.5 27.5t-38.5 75.5l-65 191l171 191q29 32 50.5 45.5t48.5 13.5q34 0 50 -19t16 -44
q0 -27 -15.5 -45t-45.5 -30h-8q0 22 -9.5 40t-33.5 18q-20 0 -36 -11t-39 -36z" />
    <glyph glyph-name="Lacute" unicode="&#x139;" horiz-adv-x="597" 
d="M199 104q-8 -41 10 -54.5t69 -13.5h52q30 0 55 10t48 30q24 21 48.5 50.5t60.5 78.5h29l-76 -205h-521l7 30q29 4 46.5 7.5t27 10.5t15 19t10.5 34l107 500q4 22 3.5 35t-8 19.5t-23 10t-41.5 6.5l6 30h287l-7 -30q-29 -4 -46.5 -7.5t-27 -10.5t-15 -19t-10.5 -34z
M336 898h128l-1 -6l-171 -143h-25z" />
    <glyph glyph-name="lacute" unicode="&#x13a;" horiz-adv-x="281" 
d="M304 783l-162 -661q-4 -14 -6.5 -25.5t-2.5 -17.5q0 -15 14 -15t35 17t53 57l17 -13q-48 -71 -83 -103t-75 -32q-33 0 -51 20.5t-18 53.5q0 17 3 36.5t11 48.5l135 547l-64 31l4 16l175 40h15zM299 945h128l-1 -6l-171 -143h-25z" />
    <glyph glyph-name="Lcommaaccent" unicode="&#x13b;" horiz-adv-x="597" 
d="M199 104q-8 -41 10 -54.5t69 -13.5h52q30 0 55 10t48 30q24 21 48.5 50.5t60.5 78.5h29l-76 -205h-521l7 30q29 4 46.5 7.5t27 10.5t15 19t10.5 34l107 500q4 22 3.5 35t-8 19.5t-23 10t-41.5 6.5l6 30h287l-7 -30q-29 -4 -46.5 -7.5t-27 -10.5t-15 -19t-10.5 -34z
M203 -151q-19 5 -27 16t-8 25q0 30 20.5 47.5t52.5 17.5t50 -19t18 -49q0 -51 -38 -84.5t-116 -33.5l4 26q40 0 65.5 16.5t29.5 37.5h-51z" />
    <glyph glyph-name="lcommaaccent" unicode="&#x13c;" horiz-adv-x="281" 
d="M304 783l-162 -661q-4 -14 -6.5 -25.5t-2.5 -17.5q0 -15 14 -15t35 17t53 57l17 -13q-48 -71 -83 -103t-75 -32q-33 0 -51 20.5t-18 53.5q0 17 3 36.5t11 48.5l135 547l-64 31l4 16l175 40h15zM24 -151q-19 5 -27 16t-8 25q0 30 20.5 47.5t52.5 17.5t50 -19t18 -49
q0 -51 -38 -84.5t-116 -33.5l4 26q40 0 65.5 16.5t29.5 37.5h-51z" />
    <glyph glyph-name="Lcaron" unicode="&#x13d;" horiz-adv-x="597" 
d="M199 104q-8 -41 10 -54.5t69 -13.5h52q30 0 55 10t48 30q24 21 48.5 50.5t60.5 78.5h29l-76 -205h-521l7 30q29 4 46.5 7.5t27 10.5t15 19t10.5 34l107 500q4 22 3.5 35t-8 19.5t-23 10t-41.5 6.5l6 30h287l-7 -30q-29 -4 -46.5 -7.5t-27 -10.5t-15 -19t-10.5 -34z
M602 696l-150 -199h-18l63 205h106z" />
    <glyph glyph-name="lcaron" unicode="&#x13e;" horiz-adv-x="281" 
d="M304 783l-162 -661q-4 -14 -6.5 -25.5t-2.5 -17.5q0 -15 14 -15t35 17t53 57l17 -13q-48 -71 -83 -103t-75 -32q-33 0 -51 20.5t-18 53.5q0 17 3 36.5t11 48.5l135 547l-64 31l4 16l175 40h15zM471 777l-150 -199h-18l63 205h106z" />
    <glyph glyph-name="Ldot" unicode="&#x13f;" horiz-adv-x="597" 
d="M490 310q-28 0 -46.5 18.5t-18.5 44.5q0 29 20 50t50 21q28 0 47 -18.5t19 -44.5q0 -29 -20.5 -50t-50.5 -21zM199 104q-8 -41 10 -54.5t69 -13.5h52q30 0 55 10t48 30q24 21 48.5 50.5t60.5 78.5h29l-76 -205h-521l7 30q29 4 46.5 7.5t27 10.5t15 19t10.5 34l107 500
q4 22 3.5 35t-8 19.5t-23 10t-41.5 6.5l6 30h287l-7 -30q-29 -4 -46.5 -7.5t-27 -10.5t-15 -19t-10.5 -34z" />
    <glyph glyph-name="ldot" unicode="&#x140;" horiz-adv-x="334" 
d="M313 319q-14 0 -26 5t-20.5 13.5t-13.5 20t-5 24.5q0 14 5 27t15 23t22.5 15.5t27.5 5.5q14 0 26 -5t21 -13.5t14 -20t5 -24.5q0 -14 -5.5 -27t-15 -23t-22.5 -15.5t-28 -5.5zM304 783l-162 -661q-4 -14 -6.5 -25.5t-2.5 -17.5q0 -15 14 -15t35 17t53 57l17 -13
q-48 -71 -83 -103t-75 -32q-33 0 -51 20.5t-18 53.5q0 17 3 36.5t11 48.5l135 547l-64 31l4 16l175 40h15z" />
    <glyph glyph-name="Lslash" unicode="&#x141;" horiz-adv-x="597" 
d="M390 396l-142 -62l-49 -230q-8 -41 10 -54.5t69 -13.5h52q30 0 55 10t48 30q24 21 48.5 50.5t60.5 78.5h29l-76 -205h-521l7 30q29 4 46.5 7.5t27 10.5t15 19t10.5 34l40 188l-92 -41l11 46l91 40l57 267q4 22 3.5 35t-8 19.5t-23 10t-41.5 6.5l6 30h287l-7 -30
q-29 -4 -46.5 -7.5t-27 -10.5t-15 -19t-10.5 -34l-48 -222l144 63z" />
    <glyph glyph-name="lslash" unicode="&#x142;" horiz-adv-x="296" 
d="M316 464l-95 -52l-71 -290q-4 -14 -6.5 -25.5t-2.5 -17.5q0 -15 14 -15q15 0 34.5 17t53.5 57l17 -13q-24 -35 -44.5 -60.5t-39 -42t-37 -24.5t-38.5 -8q-33 0 -50.5 20.5t-17.5 53.5q0 18 2.5 37t10.5 48l54 218l-77 -41l12 47l77 41l70 282l-65 31l4 16l176 40h14
l-79 -323l96 52z" />
    <glyph glyph-name="Nacute" unicode="&#x143;" horiz-adv-x="735" 
d="M571 177l89 424q4 21 1.5 34t-13.5 20.5t-31 11t-50 5.5l6 30h239l-7 -30q-29 -4 -46.5 -7.5t-27 -10.5t-15 -19t-10.5 -34l-129 -604h-34l-318 569l-98 -465q-4 -21 -1.5 -34t13.5 -20.5t30.5 -11t49.5 -5.5l-6 -30h-238l6 30q30 4 47.5 7.5t27.5 10.5t15 19.5t10 33.5
l108 510q-9 18 -16.5 29t-15.5 18t-19.5 10t-29.5 4l7 30h171zM510 898h128l-1 -6l-171 -143h-25z" />
    <glyph glyph-name="nacute" unicode="&#x144;" horiz-adv-x="577" 
d="M261 534l-67 -247q23 44 54.5 88t67.5 79.5t73.5 57.5t72.5 22q38 0 53 -19.5t15 -54.5q0 -10 -2 -22l-4 -24l-78 -292q-4 -14 -6.5 -25.5t-2.5 -17.5q0 -15 14 -15t35 17t53 57l17 -13q-48 -71 -83 -103t-76 -32q-33 0 -51 20.5t-18 53.5q0 17 3 37.5t11 47.5l71 260
q6 19 6 32q0 21 -18 21q-22 0 -56 -26t-69.5 -70t-66.5 -101.5t-47 -121.5l-36 -143h-109l111 443l-59 33l3 15l174 43h15zM443 762h123l-1 -6l-186 -162h-25z" />
    <glyph glyph-name="Ncommaaccent" unicode="&#x145;" horiz-adv-x="735" 
d="M571 177l89 424q4 21 1.5 34t-13.5 20.5t-31 11t-50 5.5l6 30h239l-7 -30q-29 -4 -46.5 -7.5t-27 -10.5t-15 -19t-10.5 -34l-129 -604h-34l-318 569l-98 -465q-4 -21 -1.5 -34t13.5 -20.5t30.5 -11t49.5 -5.5l-6 -30h-238l6 30q30 4 47.5 7.5t27.5 10.5t15 19.5t10 33.5
l108 510q-9 18 -16.5 29t-15.5 18t-19.5 10t-29.5 4l7 30h171zM275 -151q-19 5 -27 16t-8 25q0 30 20.5 47.5t52.5 17.5t50 -19t18 -49q0 -51 -38 -84.5t-116 -33.5l4 26q40 0 65.5 16.5t29.5 37.5h-51z" />
    <glyph glyph-name="ncommaaccent" unicode="&#x146;" horiz-adv-x="577" 
d="M261 534l-67 -247q23 44 54.5 88t67.5 79.5t73.5 57.5t72.5 22q38 0 53 -19.5t15 -54.5q0 -10 -2 -22l-4 -24l-78 -292q-4 -14 -6.5 -25.5t-2.5 -17.5q0 -15 14 -15t35 17t53 57l17 -13q-48 -71 -83 -103t-76 -32q-33 0 -51 20.5t-18 53.5q0 17 3 37.5t11 47.5l71 260
q6 19 6 32q0 21 -18 21q-22 0 -56 -26t-69.5 -70t-66.5 -101.5t-47 -121.5l-36 -143h-109l111 443l-59 33l3 15l174 43h15zM184 -151q-19 5 -27 16t-8 25q0 30 20.5 47.5t52.5 17.5t50 -19t18 -49q0 -51 -38 -84.5t-116 -33.5l4 26q40 0 65.5 16.5t29.5 37.5h-51z" />
    <glyph glyph-name="Ncaron" unicode="&#x147;" horiz-adv-x="735" 
d="M571 177l89 424q4 21 1.5 34t-13.5 20.5t-31 11t-50 5.5l6 30h239l-7 -30q-29 -4 -46.5 -7.5t-27 -10.5t-15 -19t-10.5 -34l-129 -604h-34l-318 569l-98 -465q-4 -21 -1.5 -34t13.5 -20.5t30.5 -11t49.5 -5.5l-6 -30h-238l6 30q30 4 47.5 7.5t27.5 10.5t15 19.5t10 33.5
l108 510q-9 18 -16.5 29t-15.5 18t-19.5 10t-29.5 4l7 30h171zM431 749l-75 158h31l97 -89l140 89h36l-148 -158h-81z" />
    <glyph glyph-name="ncaron" unicode="&#x148;" horiz-adv-x="577" 
d="M261 534l-67 -247q23 44 54.5 88t67.5 79.5t73.5 57.5t72.5 22q38 0 53 -19.5t15 -54.5q0 -10 -2 -22l-4 -24l-78 -292q-4 -14 -6.5 -25.5t-2.5 -17.5q0 -15 14 -15t35 17t53 57l17 -13q-48 -71 -83 -103t-76 -32q-33 0 -51 20.5t-18 53.5q0 17 3 37.5t11 47.5l71 260
q6 19 6 32q0 21 -18 21q-22 0 -56 -26t-69.5 -70t-66.5 -101.5t-47 -121.5l-36 -143h-109l111 443l-59 33l3 15l174 43h15zM330 595l-75 172h31l97 -103l140 103h36l-148 -172h-81z" />
    <glyph glyph-name="Eng" unicode="&#x14a;" horiz-adv-x="735" 
d="M225 566l-98 -465q-4 -21 -1.5 -34t13.5 -20.5t30.5 -11t49.5 -5.5l-6 -30h-238l6 30q30 4 47.5 7.5t27.5 10.5t15 19.5t10 33.5l108 510q-9 18 -16.5 29t-15.5 18t-19.5 10t-29.5 4l7 30h171l285 -525l89 424q4 21 1.5 34t-13.5 20.5t-31 11t-50 5.5l6 30h239l-7 -30
q-29 -4 -46.5 -7.5t-27 -10.5t-15 -19t-10.5 -34l-109 -512q-14 -59 -28.5 -98t-37.5 -69.5t-59 -58.5t-92 -65l-13 13l34 38q44 50 66 103t36 115z" />
    <glyph glyph-name="eng" unicode="&#x14b;" horiz-adv-x="550" 
d="M447 129q-25 -92 -51.5 -156.5t-58 -105t-68.5 -59t-82 -18.5q-43 0 -70 17.5t-27 50.5q0 28 18.5 43t41.5 19h15q2 -45 16 -71.5t37 -26.5q13 0 23 8t19 28q9 19 18.5 50t24.5 88l110 413q6 19 6 32q0 21 -18 21q-22 0 -56 -26t-69.5 -70t-66.5 -101.5t-47 -121.5
l-36 -143h-109l111 443l-59 33l3 15l174 43h15l-67 -247q23 44 54.5 88t67.5 79.5t73.5 57.5t72.5 22q38 0 53 -19.5t15 -54.5q0 -10 -2 -22l-4 -24z" />
    <glyph glyph-name="Omacron" unicode="&#x14c;" horiz-adv-x="710" 
d="M436 712q66 0 116 -21.5t83.5 -58.5t51 -87t17.5 -107q1 -52 -12 -106t-37.5 -104t-59.5 -94t-79 -76.5t-95.5 -50.5t-109.5 -17q-66 0 -116 21.5t-83.5 58.5t-51 87t-17.5 107q-1 52 12 106t37.5 104t59.5 94t79 76.5t95.5 50.5t109.5 17zM435 675q-41 1 -77 -18
t-65.5 -51.5t-53 -76t-39.5 -91t-24.5 -96.5t-7.5 -93q0 -48 8 -88.5t25.5 -70.5t45 -46.5t65.5 -16.5q41 -1 77 18t65.5 51.5t53 76t39.5 91t24 96.5t8 93q0 48 -8 88.5t-25.5 70.5t-45 46.5t-65.5 16.5zM333 768l12 58h275l-12 -58h-275z" />
    <glyph glyph-name="omacron" unicode="&#x14d;" horiz-adv-x="502" 
d="M481 345q0 -63 -22.5 -126t-61.5 -114t-91.5 -83t-113.5 -32q-79 0 -125 49t-46 140q0 41 10 83.5t28.5 82.5t45 74.5t59 60.5t70 40.5t77.5 13.5q79 0 124.5 -49t45.5 -140zM129 153q0 -57 16 -94.5t55 -37.5q23 -1 45 15t41.5 43t35.5 63t27.5 75t17.5 79t6 75
q0 57 -16 94.5t-55 37.5q-23 1 -44.5 -15t-41 -43t-36 -63t-28 -75t-18 -79t-5.5 -75zM204 623l12 58h259l-12 -58h-259z" />
    <glyph glyph-name="Obreve" unicode="&#x14e;" horiz-adv-x="710" 
d="M436 712q66 0 116 -21.5t83.5 -58.5t51 -87t17.5 -107q1 -52 -12 -106t-37.5 -104t-59.5 -94t-79 -76.5t-95.5 -50.5t-109.5 -17q-66 0 -116 21.5t-83.5 58.5t-51 87t-17.5 107q-1 52 12 106t37.5 104t59.5 94t79 76.5t95.5 50.5t109.5 17zM435 675q-41 1 -77 -18
t-65.5 -51.5t-53 -76t-39.5 -91t-24.5 -96.5t-7.5 -93q0 -48 8 -88.5t25.5 -70.5t45 -46.5t65.5 -16.5q41 -1 77 18t65.5 51.5t53 76t39.5 91t24 96.5t8 93q0 48 -8 88.5t-25.5 70.5t-45 46.5t-65.5 16.5zM473 746q-29 0 -52 9.5t-37 29t-18 49t5 69.5h32q-6 -50 18 -69
t65 -19q40 0 73 19t47 69h33q-18 -81 -60 -119t-106 -38z" />
    <glyph glyph-name="obreve" unicode="&#x14f;" horiz-adv-x="502" 
d="M481 345q0 -63 -22.5 -126t-61.5 -114t-91.5 -83t-113.5 -32q-79 0 -125 49t-46 140q0 41 10 83.5t28.5 82.5t45 74.5t59 60.5t70 40.5t77.5 13.5q79 0 124.5 -49t45.5 -140zM129 153q0 -57 16 -94.5t55 -37.5q23 -1 45 15t41.5 43t35.5 63t27.5 75t17.5 79t6 75
q0 57 -16 94.5t-55 37.5q-23 1 -44.5 -15t-41 -43t-36 -63t-28 -75t-18 -79t-5.5 -75zM330 596q-60 0 -88 41t-10 120h33q-6 -51 15 -71t63 -20t71.5 20t45.5 71h33q-36 -161 -163 -161z" />
    <glyph glyph-name="Ohungarumlaut" unicode="&#x150;" horiz-adv-x="710" 
d="M436 712q66 0 116 -21.5t83.5 -58.5t51 -87t17.5 -107q1 -52 -12 -106t-37.5 -104t-59.5 -94t-79 -76.5t-95.5 -50.5t-109.5 -17q-66 0 -116 21.5t-83.5 58.5t-51 87t-17.5 107q-1 52 12 106t37.5 104t59.5 94t79 76.5t95.5 50.5t109.5 17zM435 675q-41 1 -77 -18
t-65.5 -51.5t-53 -76t-39.5 -91t-24.5 -96.5t-7.5 -93q0 -48 8 -88.5t25.5 -70.5t45 -46.5t65.5 -16.5q41 -1 77 18t65.5 51.5t53 76t39.5 91t24 96.5t8 93q0 48 -8 88.5t-25.5 70.5t-45 46.5t-65.5 16.5zM599 898h115l-1 -6l-170 -143h-27zM447 898h116l-1 -6l-170 -143
h-27z" />
    <glyph glyph-name="ohungarumlaut" unicode="&#x151;" horiz-adv-x="502" 
d="M481 345q0 -63 -22.5 -126t-61.5 -114t-91.5 -83t-113.5 -32q-79 0 -125 49t-46 140q0 41 10 83.5t28.5 82.5t45 74.5t59 60.5t70 40.5t77.5 13.5q79 0 124.5 -49t45.5 -140zM129 153q0 -57 16 -94.5t55 -37.5q23 -1 45 15t41.5 43t35.5 63t27.5 75t17.5 79t6 75
q0 57 -16 94.5t-55 37.5q-23 1 -44.5 -15t-41 -43t-36 -63t-28 -75t-18 -79t-5.5 -75zM472 762h110l-2 -6l-188 -162h-27zM321 762h109l-1 -6l-188 -162h-27z" />
    <glyph glyph-name="OE" unicode="&#x152;" horiz-adv-x="980" 
d="M429 36l135 630h-86q-66 0 -123 -29.5t-98.5 -82t-65.5 -124t-24 -155.5q0 -114 51.5 -176.5t163.5 -62.5h47zM874 0h-509q-74 0 -133.5 19.5t-101.5 56t-64.5 89t-22.5 117.5q0 95 34 172.5t94 132.5t140.5 85t173.5 30h528l-33 -173h-23q-9 41 -18 67.5t-22.5 42
t-32.5 21.5t-47 6h-156l-61 -285h137q34 0 52 21.5t37 69.5h31l-47 -219h-30q2 48 -8 69t-43 21h-137l-51 -239q-8 -41 11 -54.5t69 -13.5h71q53 0 96 34q22 18 46 44.5t62 74.5h29z" />
    <glyph glyph-name="oe" unicode="&#x153;" horiz-adv-x="769" 
d="M311 534q51 0 89 -25.5t58 -70.5q38 42 87 69t101 27q63 0 94 -29.5t31 -71.5q0 -45 -25 -78.5t-68 -56.5q-43 -22 -95.5 -37t-124.5 -29q0 -10 -1 -19t-1 -18q0 -67 28 -104t77 -37q42 0 78 23.5t74 71.5l19 -15q-50 -72 -101.5 -108t-117.5 -36q-51 0 -86.5 25
t-53.5 67q-38 -42 -84 -67t-97 -25q-79 0 -125 49t-46 140q0 41 10 83.5t28.5 82.5t45 74.5t59 60.5t70 40.5t77.5 13.5zM130 153q0 -57 15.5 -94.5t54.5 -37.5q23 -1 45 15t41.5 43t35.5 63t27.5 75t17.5 79t6 75q0 57 -15.5 94.5t-55.5 37.5q-23 1 -44.5 -15t-41 -43
t-35.5 -63t-27.5 -75t-18 -79t-5.5 -75zM628 501q-30 0 -57 -21t-49 -55.5t-38 -78.5t-23 -90q110 26 163.5 69t53.5 118q0 24 -12 41t-38 17z" />
    <glyph glyph-name="Racute" unicode="&#x154;" horiz-adv-x="691" 
d="M318 665l-69 -324h49q47 0 86 12.5t66.5 36.5t43 60.5t15.5 84.5q0 57 -32.5 93.5t-103.5 36.5h-55zM241 303l-43 -202q-4 -23 -3.5 -35.5t8 -19t23 -10t41.5 -6.5l-6 -30h-287l7 30q29 4 46.5 7.5t27 10.5t15 19t10.5 34l107 500q4 22 3.5 35t-8 19.5t-23 10t-41.5 6.5
l6 30h292q58 0 99.5 -13t67 -35.5t37.5 -53t12 -64.5q0 -49 -21.5 -86.5t-54 -64t-70 -42.5t-69.5 -22l114 -207q13 -23 24.5 -38.5t24.5 -25.5t28.5 -14.5t35.5 -5.5l-6 -30h-160q-19 15 -33.5 37t-31.5 56l-106 210h-66zM451 898h128l-1 -6l-171 -143h-25z" />
    <glyph glyph-name="racute" unicode="&#x155;" horiz-adv-x="412" 
d="M261 534l-48 -178l-43 -128q38 79 67 133t56 93q28 39 53.5 59.5t51.5 20.5q27 0 41.5 -16.5t14.5 -42.5q0 -33 -19 -56.5t-51 -37.5h-8q0 18 -6 30.5t-25 12.5q-23 0 -52.5 -31t-59.5 -87.5t-58.5 -134.5t-48.5 -171h-109l111 443l-59 33l3 15l174 43h15zM382 762h123
l-1 -6l-186 -162h-25z" />
    <glyph glyph-name="Rcommaaccent" unicode="&#x156;" horiz-adv-x="691" 
d="M318 665l-69 -324h49q47 0 86 12.5t66.5 36.5t43 60.5t15.5 84.5q0 57 -32.5 93.5t-103.5 36.5h-55zM241 303l-43 -202q-4 -23 -3.5 -35.5t8 -19t23 -10t41.5 -6.5l-6 -30h-287l7 30q29 4 46.5 7.5t27 10.5t15 19t10.5 34l107 500q4 22 3.5 35t-8 19.5t-23 10t-41.5 6.5
l6 30h292q58 0 99.5 -13t67 -35.5t37.5 -53t12 -64.5q0 -49 -21.5 -86.5t-54 -64t-70 -42.5t-69.5 -22l114 -207q13 -23 24.5 -38.5t24.5 -25.5t28.5 -14.5t35.5 -5.5l-6 -30h-160q-19 15 -33.5 37t-31.5 56l-106 210h-66zM250 -151q-19 5 -27 16t-8 25q0 30 20.5 47.5
t52.5 17.5t50 -19t18 -49q0 -51 -38 -84.5t-116 -33.5l4 26q40 0 65.5 16.5t29.5 37.5h-51z" />
    <glyph glyph-name="rcommaaccent" unicode="&#x157;" horiz-adv-x="412" 
d="M261 534l-48 -178l-43 -128q38 79 67 133t56 93q28 39 53.5 59.5t51.5 20.5q27 0 41.5 -16.5t14.5 -42.5q0 -33 -19 -56.5t-51 -37.5h-8q0 18 -6 30.5t-25 12.5q-23 0 -52.5 -31t-59.5 -87.5t-58.5 -134.5t-48.5 -171h-109l111 443l-59 33l3 15l174 43h15zM15 -151
q-19 5 -27 16t-8 25q0 30 20.5 47.5t52.5 17.5t50 -19t18 -49q0 -51 -38 -84.5t-116 -33.5l4 26q40 0 65.5 16.5t29.5 37.5h-51z" />
    <glyph glyph-name="Rcaron" unicode="&#x158;" horiz-adv-x="691" 
d="M318 665l-69 -324h49q47 0 86 12.5t66.5 36.5t43 60.5t15.5 84.5q0 57 -32.5 93.5t-103.5 36.5h-55zM241 303l-43 -202q-4 -23 -3.5 -35.5t8 -19t23 -10t41.5 -6.5l-6 -30h-287l7 30q29 4 46.5 7.5t27 10.5t15 19t10.5 34l107 500q4 22 3.5 35t-8 19.5t-23 10t-41.5 6.5
l6 30h292q58 0 99.5 -13t67 -35.5t37.5 -53t12 -64.5q0 -49 -21.5 -86.5t-54 -64t-70 -42.5t-69.5 -22l114 -207q13 -23 24.5 -38.5t24.5 -25.5t28.5 -14.5t35.5 -5.5l-6 -30h-160q-19 15 -33.5 37t-31.5 56l-106 210h-66zM357 749l-75 158h31l97 -89l140 89h36l-148 -158
h-81z" />
    <glyph glyph-name="rcaron" unicode="&#x159;" horiz-adv-x="412" 
d="M261 534l-48 -178l-43 -128q38 79 67 133t56 93q28 39 53.5 59.5t51.5 20.5q27 0 41.5 -16.5t14.5 -42.5q0 -33 -19 -56.5t-51 -37.5h-8q0 18 -6 30.5t-25 12.5q-23 0 -52.5 -31t-59.5 -87.5t-58.5 -134.5t-48.5 -171h-109l111 443l-59 33l3 15l174 43h15zM268 595
l-75 172h31l97 -103l140 103h36l-148 -172h-81z" />
    <glyph glyph-name="Sacute" unicode="&#x15a;" horiz-adv-x="542" 
d="M495 214q0 -53 -21.5 -94.5t-58.5 -70.5t-85 -44t-101 -15q-39 0 -73.5 6.5t-62.5 17.5t-50 24t-35 27l27 168h31q4 -102 47 -154.5t123 -52.5q67 0 107.5 36.5t40.5 101.5q0 27 -7 47.5t-23.5 37t-42.5 32.5t-63 34q-69 33 -106 76.5t-37 107.5q0 47 17.5 86t50 67.5
t78.5 44t102 15.5q58 0 108 -17t86 -45l-29 -148h-29q0 85 -34 129.5t-109 44.5q-31 0 -56 -10t-42.5 -28t-27 -42.5t-9.5 -52.5q0 -24 6 -42t19.5 -33t34.5 -28t50 -28q38 -17 70 -37t55 -44t36 -52.5t13 -64.5zM429 898h128l-1 -6l-171 -143h-25z" />
    <glyph glyph-name="sacute" unicode="&#x15b;" horiz-adv-x="392" 
d="M184 28q74 0 74 70q0 25 -20 48q-21 26 -69 71q-48 48 -72.5 84.5t-24.5 75.5q0 32 14 60.5t38 50t57 34t71 12.5q58 0 93.5 -23.5t35.5 -64.5q0 -22 -16.5 -36.5t-34.5 -22.5h-5q-16 46 -44 77.5t-71 31.5q-31 0 -47.5 -17.5t-16.5 -47.5q0 -22 19 -44q10 -11 27.5 -29
t42.5 -43q51 -51 76 -87t25 -73t-15 -67.5t-40.5 -52t-59 -33.5t-70.5 -12q-71 0 -114 31t-43 78q0 25 14 43t36 28h6q14 -64 48.5 -103t85.5 -39zM344 762h123l-1 -6l-186 -162h-25z" />
    <glyph glyph-name="Scircumflex" unicode="&#x15c;" horiz-adv-x="542" 
d="M495 214q0 -53 -21.5 -94.5t-58.5 -70.5t-85 -44t-101 -15q-39 0 -73.5 6.5t-62.5 17.5t-50 24t-35 27l27 168h31q4 -102 47 -154.5t123 -52.5q67 0 107.5 36.5t40.5 101.5q0 27 -7 47.5t-23.5 37t-42.5 32.5t-63 34q-69 33 -106 76.5t-37 107.5q0 47 17.5 86t50 67.5
t78.5 44t102 15.5q58 0 108 -17t86 -45l-29 -148h-29q0 85 -34 129.5t-109 44.5q-31 0 -56 -10t-42.5 -28t-27 -42.5t-9.5 -52.5q0 -24 6 -42t19.5 -33t34.5 -28t50 -28q38 -17 70 -37t55 -44t36 -52.5t13 -64.5zM445 907l75 -158h-31l-97 89l-140 -89h-36l148 158h81z" />
    <glyph glyph-name="scircumflex" unicode="&#x15d;" horiz-adv-x="392" 
d="M184 28q74 0 74 70q0 25 -20 48q-21 26 -69 71q-48 48 -72.5 84.5t-24.5 75.5q0 32 14 60.5t38 50t57 34t71 12.5q58 0 93.5 -23.5t35.5 -64.5q0 -22 -16.5 -36.5t-34.5 -22.5h-5q-16 46 -44 77.5t-71 31.5q-31 0 -47.5 -17.5t-16.5 -47.5q0 -22 19 -44q10 -11 27.5 -29
t42.5 -43q51 -51 76 -87t25 -73t-15 -67.5t-40.5 -52t-59 -33.5t-70.5 -12q-71 0 -114 31t-43 78q0 25 14 43t36 28h6q14 -64 48.5 -103t85.5 -39zM357 765l75 -172h-31l-97 103l-140 -103h-36l148 172h81z" />
    <glyph glyph-name="Scedilla" unicode="&#x15e;" horiz-adv-x="542" 
d="M93 -195q58 0 91 15.5t33 38.5q0 21 -22 29.5t-64 10.5l50 94q-61 6 -106 28t-67 44l27 168h31q4 -102 47 -154.5t123 -52.5q67 0 107.5 36.5t40.5 101.5q0 27 -7 47.5t-23.5 37t-42.5 32.5t-63 34q-69 33 -106 76.5t-37 107.5q0 47 17.5 86t50 67.5t78.5 44t102 15.5
q58 0 108 -17t86 -45l-29 -148h-29q0 85 -34 129.5t-109 44.5q-31 0 -56 -10t-42.5 -28t-27 -42.5t-9.5 -52.5q0 -24 6 -42t19.5 -33t34.5 -28t50 -28q38 -17 70 -37t55 -44t36 -52.5t13 -64.5q0 -53 -21.5 -94.5t-58.5 -70.5t-85 -44t-101 -15q-6 0 -10.5 0.5t-10.5 0.5
l-19 -37q43 -2 69 -19.5t26 -51.5q0 -27 -13.5 -46.5t-38.5 -33t-59 -20t-74 -6.5z" />
    <glyph glyph-name="scedilla" unicode="&#x15f;" horiz-adv-x="392" 
d="M13 -195q58 0 91 15.5t33 38.5q0 21 -22 29.5t-64 10.5l51 96q-50 8 -79 37t-29 67q0 25 14 43t36 28h6q14 -64 48.5 -103t85.5 -39q74 0 74 70q0 25 -20 48q-21 26 -69 71q-48 48 -72.5 84.5t-24.5 75.5q0 32 14 60.5t38 50t57 34t71 12.5q58 0 93.5 -23.5t35.5 -64.5
q0 -22 -16.5 -36.5t-34.5 -22.5h-5q-16 46 -44 77.5t-71 31.5q-31 0 -47.5 -17.5t-16.5 -47.5q0 -22 19 -44q10 -11 27.5 -29t42.5 -43q51 -51 76 -87t25 -73t-15 -67.5t-40.5 -52t-59 -33.5t-70.5 -12q-5 0 -11.5 0.5t-10.5 0.5l-20 -37q43 -2 69 -19.5t26 -51.5
q0 -27 -13.5 -46.5t-38.5 -33t-59 -20t-74 -6.5z" />
    <glyph glyph-name="Scaron" unicode="&#x160;" horiz-adv-x="542" 
d="M495 214q0 -53 -21.5 -94.5t-58.5 -70.5t-85 -44t-101 -15q-39 0 -73.5 6.5t-62.5 17.5t-50 24t-35 27l27 168h31q4 -102 47 -154.5t123 -52.5q67 0 107.5 36.5t40.5 101.5q0 27 -7 47.5t-23.5 37t-42.5 32.5t-63 34q-69 33 -106 76.5t-37 107.5q0 47 17.5 86t50 67.5
t78.5 44t102 15.5q58 0 108 -17t86 -45l-29 -148h-29q0 85 -34 129.5t-109 44.5q-31 0 -56 -10t-42.5 -28t-27 -42.5t-9.5 -52.5q0 -24 6 -42t19.5 -33t34.5 -28t50 -28q38 -17 70 -37t55 -44t36 -52.5t13 -64.5zM336 749l-75 158h31l97 -89l140 89h36l-148 -158h-81z" />
    <glyph glyph-name="scaron" unicode="&#x161;" horiz-adv-x="392" 
d="M184 28q74 0 74 70q0 25 -20 48q-21 26 -69 71q-48 48 -72.5 84.5t-24.5 75.5q0 32 14 60.5t38 50t57 34t71 12.5q58 0 93.5 -23.5t35.5 -64.5q0 -22 -16.5 -36.5t-34.5 -22.5h-5q-16 46 -44 77.5t-71 31.5q-31 0 -47.5 -17.5t-16.5 -47.5q0 -22 19 -44q10 -11 27.5 -29
t42.5 -43q51 -51 76 -87t25 -73t-15 -67.5t-40.5 -52t-59 -33.5t-70.5 -12q-71 0 -114 31t-43 78q0 25 14 43t36 28h6q14 -64 48.5 -103t85.5 -39zM237 595l-75 172h31l97 -103l140 103h36l-148 -172h-81z" />
    <glyph glyph-name="Tcommaaccent" unicode="&#x162;" horiz-adv-x="659" 
d="M477 669l-120 -568q-4 -22 -2.5 -35t10 -20t26 -10t46.5 -6l-7 -30h-306l6 30q31 4 50 7.5t30.5 10.5t17.5 19.5t11 33.5l121 568h-63q-31 0 -54.5 -9t-45.5 -30q-11 -10 -21.5 -23t-22.5 -30.5t-27.5 -40.5t-34.5 -53h-27l62 219h598l-32 -219h-26q-6 33 -10 56.5
t-8 40.5t-8 29t-10 22q-11 20 -29.5 29t-49.5 9h-74zM220 -151q-19 5 -27 16t-8 25q0 30 20.5 47.5t52.5 17.5t50 -19t18 -49q0 -51 -38 -84.5t-116 -33.5l4 26q40 0 65.5 16.5t29.5 37.5h-51z" />
    <glyph glyph-name="tcommaaccent" unicode="&#x163;" horiz-adv-x="331" 
d="M235 471l-84 -334q-4 -17 -6 -28t-2 -22q0 -26 25 -26q13 0 26 4.5t27 15t31 27.5t39 42l17 -13q-54 -76 -99 -111.5t-93 -35.5q-38 0 -59.5 22.5t-21.5 59.5q0 17 2 34.5t8 40.5l81 324h-65l6 23q57 18 101 56t83 92h26l-32 -129h112l-10 -42h-112zM44 -151
q-19 5 -27 16t-8 25q0 30 20.5 47.5t52.5 17.5t50 -19t18 -49q0 -51 -38 -84.5t-116 -33.5l4 26q40 0 65.5 16.5t29.5 37.5h-51z" />
    <glyph glyph-name="Tcaron" unicode="&#x164;" horiz-adv-x="659" 
d="M477 669l-120 -568q-4 -22 -2.5 -35t10 -20t26 -10t46.5 -6l-7 -30h-306l6 30q31 4 50 7.5t30.5 10.5t17.5 19.5t11 33.5l121 568h-63q-31 0 -54.5 -9t-45.5 -30q-11 -10 -21.5 -23t-22.5 -30.5t-27.5 -40.5t-34.5 -53h-27l62 219h598l-32 -219h-26q-6 33 -10 56.5
t-8 40.5t-8 29t-10 22q-11 20 -29.5 29t-49.5 9h-74zM398 749l-75 158h31l97 -89l140 89h36l-148 -158h-81z" />
    <glyph glyph-name="tcaron" unicode="&#x165;" horiz-adv-x="331" 
d="M235 471l-84 -334q-4 -17 -6 -28t-2 -22q0 -26 25 -26q13 0 26 4.5t27 15t31 27.5t39 42l17 -13q-54 -76 -99 -111.5t-93 -35.5q-38 0 -59.5 22.5t-21.5 59.5q0 17 2 34.5t8 40.5l81 324h-65l6 23q57 18 101 56t83 92h26l-32 -129h112l-10 -42h-112zM455 747l-150 -199
h-18l63 205h106z" />
    <glyph glyph-name="Tbar" unicode="&#x166;" horiz-adv-x="659" 
d="M180 341l9 41h109l62 287h-63q-31 0 -54.5 -9t-45.5 -30q-11 -10 -21.5 -23t-22.5 -30.5t-27.5 -40.5t-34.5 -53h-27l62 219h598l-32 -219h-26q-6 33 -10 56.5t-8 40.5t-8 29t-10 22q-11 20 -29.5 29t-49.5 9h-74l-61 -287h116l-8 -41h-117l-50 -240q-4 -22 -2.5 -35
t10 -20t26 -10t46.5 -6l-7 -30h-306l6 30q31 4 50 7.5t30.5 10.5t17.5 19.5t11 33.5l51 240h-110z" />
    <glyph glyph-name="tbar" unicode="&#x167;" horiz-adv-x="351" 
d="M245 471l-26 -99h120l-9 -40h-121l-49 -195q-4 -17 -6 -28t-2 -22q0 -26 25 -26q13 0 26 4.5t27 15t31 27.5t39 42l17 -13q-54 -75 -99 -111t-93 -36q-38 0 -59.5 22.5t-21.5 59.5q0 17 2 34.5t8 40.5l47 185h-59l9 40h60l25 99h-65l6 23q57 18 101 56.5t83 91.5h26
l-33 -129h113l-11 -42h-111z" />
    <glyph glyph-name="Utilde" unicode="&#x168;" horiz-adv-x="715" 
d="M653 601q4 22 3 35t-8.5 19.5t-24 10t-44.5 6.5l6 30h219l-7 -30q-30 -4 -47 -7.5t-26.5 -10.5t-14.5 -19t-11 -34l-77 -362q-26 -126 -102.5 -187.5t-185.5 -61.5q-63 0 -113 19t-82 55t-43.5 88.5t2.5 119.5l70 329q4 22 3.5 35t-8 19.5t-23 10t-41.5 6.5l6 30h287
l-7 -30q-30 -4 -47 -7.5t-26.5 -10.5t-14.5 -19t-11 -34l-71 -334q-10 -48 -5.5 -88t23 -69t50.5 -45t76 -16q93 0 145 49t76 159zM562 752q-18 0 -33 7t-35 21q-19 15 -31.5 21.5t-27.5 6.5q-22 0 -38 -13.5t-36 -42.5l-21 12q18 33 32 56t27.5 36.5t28 19.5t32.5 6
t33 -7.5t34 -21.5q20 -14 32.5 -21t27.5 -7q21 0 37 14t36 43l22 -13q-17 -33 -31.5 -55.5t-28 -36t-28 -19.5t-32.5 -6z" />
    <glyph glyph-name="utilde" unicode="&#x169;" horiz-adv-x="578" 
d="M423 518l115 8l-99 -404l-6.5 -26t-2.5 -17q0 -15 14 -15t35 17t53 57l17 -13q-48 -71 -83 -103t-76 -32q-32 0 -49.5 20t-17.5 54q0 10 3.5 29.5t8.5 43.5t12 50.5t14 52.5q-20 -44 -49 -88.5t-62 -80.5t-69 -58.5t-69 -22.5q-39 0 -59.5 23.5t-20.5 58.5q0 23 8 53
l82 318l-59 33l3 15l174 43h15l-103 -401q-4 -15 -6 -25.5t-2 -19.5q0 -12 6.5 -19.5t18.5 -7.5q21 -1 53 25t64 71t61 105t44 127zM420 604q-18 0 -33 7t-35 21q-19 15 -31.5 21.5t-27.5 6.5q-22 0 -38 -13.5t-36 -42.5l-21 12q18 33 32 56t27.5 36.5t28 19.5t32.5 6
t33 -7.5t34 -21.5q20 -14 32.5 -21t27.5 -7q21 0 37 14t36 43l22 -12q-18 -33 -32 -56t-27.5 -36.5t-28 -19.5t-32.5 -6z" />
    <glyph glyph-name="Umacron" unicode="&#x16a;" horiz-adv-x="715" 
d="M653 601q4 22 3 35t-8.5 19.5t-24 10t-44.5 6.5l6 30h219l-7 -30q-30 -4 -47 -7.5t-26.5 -10.5t-14.5 -19t-11 -34l-77 -362q-26 -126 -102.5 -187.5t-185.5 -61.5q-63 0 -113 19t-82 55t-43.5 88.5t2.5 119.5l70 329q4 22 3.5 35t-8 19.5t-23 10t-41.5 6.5l6 30h287
l-7 -30q-30 -4 -47 -7.5t-26.5 -10.5t-14.5 -19t-11 -34l-71 -334q-10 -48 -5.5 -88t23 -69t50.5 -45t76 -16q93 0 145 49t76 159zM364 768l12 58h275l-12 -58h-275z" />
    <glyph glyph-name="umacron" unicode="&#x16b;" horiz-adv-x="578" 
d="M423 518l115 8l-99 -404l-6.5 -26t-2.5 -17q0 -15 14 -15t35 17t53 57l17 -13q-48 -71 -83 -103t-76 -32q-32 0 -49.5 20t-17.5 54q0 10 3.5 29.5t8.5 43.5t12 50.5t14 52.5q-20 -44 -49 -88.5t-62 -80.5t-69 -58.5t-69 -22.5q-39 0 -59.5 23.5t-20.5 58.5q0 23 8 53
l82 318l-59 33l3 15l174 43h15l-103 -401q-4 -15 -6 -25.5t-2 -19.5q0 -12 6.5 -19.5t18.5 -7.5q21 -1 53 25t64 71t61 105t44 127zM230 623l12 58h259l-12 -58h-259z" />
    <glyph glyph-name="Ubreve" unicode="&#x16c;" horiz-adv-x="715" 
d="M653 601q4 22 3 35t-8.5 19.5t-24 10t-44.5 6.5l6 30h219l-7 -30q-30 -4 -47 -7.5t-26.5 -10.5t-14.5 -19t-11 -34l-77 -362q-26 -126 -102.5 -187.5t-185.5 -61.5q-63 0 -113 19t-82 55t-43.5 88.5t2.5 119.5l70 329q4 22 3.5 35t-8 19.5t-23 10t-41.5 6.5l6 30h287
l-7 -30q-30 -4 -47 -7.5t-26.5 -10.5t-14.5 -19t-11 -34l-71 -334q-10 -48 -5.5 -88t23 -69t50.5 -45t76 -16q93 0 145 49t76 159zM504 746q-29 0 -52 9.5t-37 29t-18 49t5 69.5h32q-6 -50 18 -69t65 -19q40 0 73 19t47 69h33q-18 -81 -60 -119t-106 -38z" />
    <glyph glyph-name="ubreve" unicode="&#x16d;" horiz-adv-x="578" 
d="M423 518l115 8l-99 -404l-6.5 -26t-2.5 -17q0 -15 14 -15t35 17t53 57l17 -13q-48 -71 -83 -103t-76 -32q-32 0 -49.5 20t-17.5 54q0 10 3.5 29.5t8.5 43.5t12 50.5t14 52.5q-20 -44 -49 -88.5t-62 -80.5t-69 -58.5t-69 -22.5q-39 0 -59.5 23.5t-20.5 58.5q0 23 8 53
l82 318l-59 33l3 15l174 43h15l-103 -401q-4 -15 -6 -25.5t-2 -19.5q0 -12 6.5 -19.5t18.5 -7.5q21 -1 53 25t64 71t61 105t44 127zM353 596q-60 0 -88 41t-10 120h33q-6 -51 15 -71t63 -20t71.5 20t45.5 71h33q-36 -161 -163 -161z" />
    <glyph glyph-name="Uring" unicode="&#x16e;" horiz-adv-x="715" 
d="M653 601q4 22 3 35t-8.5 19.5t-24 10t-44.5 6.5l6 30h219l-7 -30q-30 -4 -47 -7.5t-26.5 -10.5t-14.5 -19t-11 -34l-77 -362q-26 -126 -102.5 -187.5t-185.5 -61.5q-63 0 -113 19t-82 55t-43.5 88.5t2.5 119.5l70 329q4 22 3.5 35t-8 19.5t-23 10t-41.5 6.5l6 30h287
l-7 -30q-30 -4 -47 -7.5t-26.5 -10.5t-14.5 -19t-11 -34l-71 -334q-10 -48 -5.5 -88t23 -69t50.5 -45t76 -16q93 0 145 49t76 159zM421 813q0 21 7.5 39t20.5 31t31 20.5t38 7.5q39 0 62 -23t23 -58q0 -41 -28 -69.5t-69 -28.5q-39 0 -62 23t-23 58zM566 830q0 22 -13.5 35
t-35.5 13q-28 0 -43.5 -19t-15.5 -45q0 -22 13.5 -35.5t35.5 -13.5q28 0 43.5 19t15.5 46z" />
    <glyph glyph-name="uring" unicode="&#x16f;" horiz-adv-x="578" 
d="M423 518l115 8l-99 -404l-6.5 -26t-2.5 -17q0 -15 14 -15t35 17t53 57l17 -13q-48 -71 -83 -103t-76 -32q-32 0 -49.5 20t-17.5 54q0 10 3.5 29.5t8.5 43.5t12 50.5t14 52.5q-20 -44 -49 -88.5t-62 -80.5t-69 -58.5t-69 -22.5q-39 0 -59.5 23.5t-20.5 58.5q0 23 8 53
l82 318l-59 33l3 15l174 43h15l-103 -401q-4 -15 -6 -25.5t-2 -19.5q0 -12 6.5 -19.5t18.5 -7.5q21 -1 53 25t64 71t61 105t44 127zM276 650q0 41 28 69.5t69 28.5q39 0 62 -23t23 -58q0 -21 -7.5 -39t-20.5 -31t-31 -20.5t-38 -7.5q-39 0 -62 23t-23 58zM421 666
q0 22 -13.5 35.5t-35.5 13.5q-28 0 -43.5 -19t-15.5 -46q0 -22 13.5 -35t35.5 -13q28 0 43.5 19t15.5 45z" />
    <glyph glyph-name="Uhungarumlaut" unicode="&#x170;" horiz-adv-x="715" 
d="M653 601q4 22 3 35t-8.5 19.5t-24 10t-44.5 6.5l6 30h219l-7 -30q-30 -4 -47 -7.5t-26.5 -10.5t-14.5 -19t-11 -34l-77 -362q-26 -126 -102.5 -187.5t-185.5 -61.5q-63 0 -113 19t-82 55t-43.5 88.5t2.5 119.5l70 329q4 22 3.5 35t-8 19.5t-23 10t-41.5 6.5l6 30h287
l-7 -30q-30 -4 -47 -7.5t-26.5 -10.5t-14.5 -19t-11 -34l-71 -334q-10 -48 -5.5 -88t23 -69t50.5 -45t76 -16q93 0 145 49t76 159zM630 898h115l-1 -6l-170 -143h-27zM478 898h116l-1 -6l-170 -143h-27z" />
    <glyph glyph-name="uhungarumlaut" unicode="&#x171;" horiz-adv-x="578" 
d="M423 518l115 8l-99 -404l-6.5 -26t-2.5 -17q0 -15 14 -15t35 17t53 57l17 -13q-48 -71 -83 -103t-76 -32q-32 0 -49.5 20t-17.5 54q0 10 3.5 29.5t8.5 43.5t12 50.5t14 52.5q-20 -44 -49 -88.5t-62 -80.5t-69 -58.5t-69 -22.5q-39 0 -59.5 23.5t-20.5 58.5q0 23 8 53
l82 318l-59 33l3 15l174 43h15l-103 -401q-4 -15 -6 -25.5t-2 -19.5q0 -12 6.5 -19.5t18.5 -7.5q21 -1 53 25t64 71t61 105t44 127zM495 762h110l-2 -6l-188 -162h-27zM344 762h109l-1 -6l-188 -162h-27z" />
    <glyph glyph-name="Uogonek" unicode="&#x172;" horiz-adv-x="715" 
d="M659 601q4 22 3 35t-8.5 19.5t-24 10t-44.5 6.5l6 30h219l-7 -30q-30 -4 -47 -7.5t-26.5 -10.5t-14.5 -19t-11 -34l-77 -362q-20 -94 -66 -151t-115 -81q-54 -24 -88 -55.5t-34 -66.5q0 -20 13 -32t34 -12q24 0 45.5 10.5t47.5 32.5l9 -13q-15 -16 -30.5 -30.5t-33 -26
t-37.5 -18.5t-44 -7q-35 0 -57.5 18t-22.5 51q0 45 36.5 78t91.5 56q-11 -2 -18.5 -2h-18.5q-63 0 -113 19t-82 55t-43.5 88.5t2.5 119.5l70 329q4 22 3.5 35t-8 19.5t-23 10t-41.5 6.5l6 30h287l-7 -30q-30 -4 -47 -7.5t-26.5 -10.5t-14.5 -19t-11 -34l-71 -334
q-10 -48 -5.5 -88t23 -69t50.5 -45t76 -16q93 0 145 49t76 159z" />
    <glyph glyph-name="uogonek" unicode="&#x173;" horiz-adv-x="578" 
d="M323 64q0 10 3.5 29.5t8.5 43.5t12 50.5t14 52.5q-20 -44 -49 -88.5t-62 -80.5t-69 -58.5t-69 -22.5q-39 0 -59 23.5t-20 58.5q0 11 2.5 26l4.5 27l79 318l-59 33l4 15l173 43h15l-102 -407l-4.5 -21t-1.5 -18q0 -12 6.5 -19.5t18.5 -7.5q21 -1 53 25t64 71t61 105
t44 127l32 129l115 8l-99 -404q-4 -14 -6.5 -25.5t-2.5 -17.5q0 -15 14 -15t35 17t53 57l17 -13q-33 -45 -62 -73q-15 -14 -33 -30.5t-40 -35.5q-21 -19 -35.5 -33t-23 -26t-12.5 -22.5t-4 -22.5q0 -20 13 -30.5t34 -10.5q23 0 45 10.5t48 32.5l9 -13q-15 -16 -30.5 -30.5
t-33 -26t-37.5 -18.5t-44 -7q-35 0 -57.5 18t-22.5 51q0 22 10.5 41t27.5 35t39 30t46 28q-63 5 -63 72z" />
    <glyph glyph-name="Wcircumflex" unicode="&#x174;" horiz-adv-x="931" 
d="M646 165l230 419q7 15 11 22.5t6 12t2.5 8t1.5 9.5q0 16 -15 25t-62 11l6 30h198l-7 -30q-23 -4 -39 -10t-27 -27l-359 -643h-30l-50 419l-241 -419h-30l-96 643q-2 19 -16 26t-35 11l7 30h263l-6 -30q-54 -4 -73.5 -14t-19.5 -37q0 -10 0.5 -18.5t2.5 -16.5l59 -425
l177 311l-19 163q-2 19 -15.5 26t-33.5 11l7 30h252l-7 -30q-27 -2 -45 -5.5t-28.5 -9.5t-14.5 -15t-4 -22q0 -8 1 -17t1 -17zM643 907l75 -158h-31l-97 89l-140 -89h-36l148 158h81z" />
    <glyph glyph-name="wcircumflex" unicode="&#x175;" horiz-adv-x="707" 
d="M332 449l-57 28l5 14l147 43h7l27 -432l97 126q38 50 54.5 87t16.5 78t-25 61t-70 16v10q15 20 39 37t55 17q23 0 38.5 -7.5t25 -20t13.5 -28.5t4 -32q-1 -26 -8.5 -51t-22.5 -52t-37 -58t-52 -68l-184 -226h-35l-21 252l-197 -252h-35l-38 458l-59 28l5 15l149 42h6
l30 -426l135 175zM502 765l75 -172h-31l-97 103l-140 -103h-36l148 172h81z" />
    <glyph glyph-name="Ycircumflex" unicode="&#x176;" horiz-adv-x="638" 
d="M382 278l-38 -177q-4 -22 -2.5 -35t10.5 -20t26 -10t46 -6l-7 -30h-301l7 30q31 4 50 7.5t30.5 10.5t17.5 19.5t11 33.5l36 176l-123 358q-6 19 -18.5 26t-32.5 11l7 30h267l-7 -30q-28 -1 -46 -3.5t-28.5 -7.5t-14.5 -12.5t-4 -18.5v-8.5t1 -6.5t3 -10.5t5 -19.5
l92 -261l201 261q10 15 19.5 28t9.5 27q0 16 -16.5 23t-60.5 9l7 30h201l-7 -30q-21 -4 -37 -11.5t-30 -25.5zM526 907l75 -158h-31l-97 89l-140 -89h-36l148 158h81z" />
    <glyph glyph-name="ycircumflex" unicode="&#x177;" horiz-adv-x="492" 
d="M78 449l-60 28l5 15l147 42h7l79 -487l44 65q36 55 58.5 96.5t35 74t17 58t4.5 48.5q0 43 -26 64t-71 17v10q14 20 38.5 37t54.5 17q23 0 39 -7.5t25.5 -20t14 -29t4.5 -33.5q0 -28 -10.5 -61.5t-32 -76t-54 -95.5t-76.5 -120q-61 -92 -109.5 -150.5t-88.5 -91.5
t-74 -45.5t-65 -12.5q-18 0 -35 4.5t-30 14.5t-21 25t-8 35q0 24 15.5 44t39.5 26h7q0 -42 18.5 -65.5t54.5 -23.5q16 0 32.5 3.5t34 13t37.5 26.5t43 44zM392 765l75 -172h-31l-97 103l-140 -103h-36l148 172h81z" />
    <glyph glyph-name="Ydieresis" unicode="&#x178;" horiz-adv-x="638" 
d="M382 278l-38 -177q-4 -22 -2.5 -35t10.5 -20t26 -10t46 -6l-7 -30h-301l7 30q31 4 50 7.5t30.5 10.5t17.5 19.5t11 33.5l36 176l-123 358q-6 19 -18.5 26t-32.5 11l7 30h267l-7 -30q-28 -1 -46 -3.5t-28.5 -7.5t-14.5 -12.5t-4 -18.5v-8.5t1 -6.5t3 -10.5t5 -19.5
l92 -261l201 261q10 15 19.5 28t9.5 27q0 16 -16.5 23t-60.5 9l7 30h201l-7 -30q-21 -4 -37 -11.5t-30 -25.5zM562 755q-28 0 -45.5 18.5t-17.5 44.5q0 28 19.5 48.5t48.5 20.5t46.5 -17.5t17.5 -44.5q0 -29 -20 -49.5t-49 -20.5zM372 755q-29 0 -46.5 18.5t-17.5 44.5
q0 28 20.5 48.5t48.5 20.5t45.5 -17.5t17.5 -44.5q0 -29 -19.5 -49.5t-48.5 -20.5z" />
    <glyph glyph-name="Zacute" unicode="&#x179;" horiz-adv-x="611" 
d="M131 36h197q59 0 101 36q12 9 23.5 20.5t25 27.5t30 37t37.5 49h29l-77 -206h-520l4 20l535 646h-193q-30 0 -51.5 -8t-40.5 -26q-9 -9 -17.5 -19t-19 -24t-23 -33t-30.5 -46h-28l48 192h507l-5 -21zM470 898h128l-1 -6l-171 -143h-25z" />
    <glyph glyph-name="zacute" unicode="&#x17a;" horiz-adv-x="468" 
d="M371 428h-189q-25 0 -35.5 -7t-24.5 -27l-29 -43l-17 6l73 202h17q2 -17 7 -28t20 -11h307v-14l-387 -367l81 -29q45 -14 42 -14q0 -1 2 -1q2 -1 3.5 -1t4.5 -1q22 -5 46 -5q35 0 62 19.5t53 71.5l18 -8q-17 -51 -33.5 -86t-35 -56.5t-42 -31t-53.5 -9.5q-16 0 -29.5 2.5
t-28.5 8t-32 13.5t-39 20l-88 50l-36 -88q-22 0 -31 9.5t-9 21.5q0 10 5 21.5t17 23.5zM402 762h123l-1 -6l-186 -162h-25z" />
    <glyph glyph-name="Zdotaccent" unicode="&#x17b;" horiz-adv-x="611" 
d="M131 36h197q59 0 101 36q12 9 23.5 20.5t25 27.5t30 37t37.5 49h29l-77 -206h-520l4 20l535 646h-193q-30 0 -51.5 -8t-40.5 -26q-9 -9 -17.5 -19t-19 -24t-23 -33t-30.5 -46h-28l48 192h507l-5 -21zM428 756q-28 0 -46.5 18.5t-18.5 44.5q0 29 20 50t50 21q28 0 47 -19
t19 -45q0 -29 -20.5 -49.5t-50.5 -20.5z" />
    <glyph glyph-name="zdotaccent" unicode="&#x17c;" horiz-adv-x="468" 
d="M371 428h-189q-25 0 -35.5 -7t-24.5 -27l-29 -43l-17 6l73 202h17q2 -17 7 -28t20 -11h307v-14l-387 -367l81 -29q45 -14 42 -14q0 -1 2 -1q2 -1 3.5 -1t4.5 -1q22 -5 46 -5q35 0 62 19.5t53 71.5l18 -8q-17 -51 -33.5 -86t-35 -56.5t-42 -31t-53.5 -9.5q-16 0 -29.5 2.5
t-28.5 8t-32 13.5t-39 20l-88 50l-36 -88q-22 0 -31 9.5t-9 21.5q0 10 5 21.5t17 23.5zM342 608q-28 0 -46.5 18.5t-18.5 44.5q0 29 20 50t50 21q28 0 47 -18.5t19 -44.5q0 -29 -20.5 -50t-50.5 -21z" />
    <glyph glyph-name="Zcaron" unicode="&#x17d;" horiz-adv-x="611" 
d="M131 36h197q59 0 101 36q12 9 23.5 20.5t25 27.5t30 37t37.5 49h29l-77 -206h-520l4 20l535 646h-193q-30 0 -51.5 -8t-40.5 -26q-9 -9 -17.5 -19t-19 -24t-23 -33t-30.5 -46h-28l48 192h507l-5 -21zM376 749l-75 158h31l97 -89l140 89h36l-148 -158h-81z" />
    <glyph glyph-name="zcaron" unicode="&#x17e;" horiz-adv-x="468" 
d="M371 428h-189q-25 0 -35.5 -7t-24.5 -27l-29 -43l-17 6l73 202h17q2 -17 7 -28t20 -11h307v-14l-387 -367l81 -29q45 -14 42 -14q0 -1 2 -1q2 -1 3.5 -1t4.5 -1q22 -5 46 -5q35 0 62 19.5t53 71.5l18 -8q-17 -51 -33.5 -86t-35 -56.5t-42 -31t-53.5 -9.5q-16 0 -29.5 2.5
t-28.5 8t-32 13.5t-39 20l-88 50l-36 -88q-22 0 -31 9.5t-9 21.5q0 10 5 21.5t17 23.5zM289 595l-75 172h31l97 -103l140 103h36l-148 -172h-81z" />
    <glyph glyph-name="florin" unicode="&#x192;" horiz-adv-x="480" 
d="M84 328l7 32h95l16 71q31 135 87 208t148 73q52 0 77.5 -19.5t25.5 -51.5q0 -26 -15 -42.5t-39 -22.5h-27q0 24 -0.5 44t-4.5 34.5t-12.5 23t-23.5 8.5q-26 0 -40.5 -28.5t-24.5 -70.5l-52 -227h107l-6 -32h-108l-44 -198q-32 -139 -88 -213.5t-148 -74.5
q-51 0 -77.5 19.5t-26.5 51.5q0 26 15.5 42.5t39.5 22.5h27q-2 -22 -1.5 -42t4.5 -35t12.5 -24t23.5 -9q25 0 39.5 23t24.5 64l84 373h-95z" />
    <glyph glyph-name="Aringacute" unicode="&#x1fa;" horiz-adv-x="707" 
d="M514 1036h124v-6l-151 -114h-26zM534 822q0 -38 -26.5 -64t-65.5 -26q-37 0 -58.5 21t-21.5 53q0 38 26 64t65 26q38 0 59.5 -21t21.5 -53zM497 822q0 20 -12 31.5t-33 11.5q-26 0 -40 -17t-14 -41q0 -21 12 -32.5t33 -11.5q26 0 40 17t14 42zM387 589l-188 -313h248z
M454 239h-278l-75 -125q-19 -29 -19 -49q0 -17 19.5 -25t61.5 -10l-6 -30h-206l6 30q22 2 38 9.5t28 27.5l350 574l-14 68h120l126 -642q5 -20 17 -26.5t34 -10.5l-6 -30h-273l6 30q22 1 40 3t31 8t20 17t7 29q0 6 -0.5 12t-2.5 15z" />
    <glyph glyph-name="aringacute" unicode="&#x1fb;" horiz-adv-x="566" 
d="M456 860h124l-1 -6l-151 -114h-25zM467 646q0 -38 -26.5 -64.5t-64.5 -26.5t-59.5 21t-21.5 54q0 38 26.5 64t64.5 26t59.5 -21t21.5 -53zM431 645q0 20 -12 31.5t-33 11.5q-27 0 -41 -17t-14 -41q0 -20 12 -31.5t33 -11.5q27 0 41 17t14 41zM317 64q0 10 3 29t8.5 42
t12 46.5t13.5 42.5q-23 -48 -50 -91t-56 -74.5t-59.5 -50t-60.5 -18.5q-52 0 -80 39.5t-28 109.5q-1 75 26 146.5t71 127.5t100.5 89t114.5 32q35 0 59.5 -10.5t45.5 -31.5l82 49h24l-36 -117l-74 -302q-4 -17 -4.5 -18.5t-1.5 -7.5q-1 -5 -1.5 -9.5t-0.5 -7.5q0 -15 14 -15
t35 16.5t53 57.5l17 -13q-24 -35 -44.5 -60.5t-39 -42t-37 -24.5t-38.5 -8q-33 0 -50.5 20t-17.5 54zM175 67q27 0 59 27.5t64.5 78t62 122t51.5 159.5q-8 22 -28 35.5t-43 13.5q-41 1 -79.5 -31t-68 -84t-47 -116t-16.5 -126q0 -36 11 -57.5t34 -21.5z" />
    <glyph glyph-name="AEacute" unicode="&#x1fc;" horiz-adv-x="992" 
d="M576 663l-317 -380h235zM887 0h-537l6 30q30 4 47.5 7.5t27.5 10.5t15 19.5t10 33.5l31 146h-258l-110 -133q-14 -16 -19.5 -26.5t-5.5 -22.5q0 -17 19.5 -25t62.5 -10l-6 -30h-219l6 30q22 2 39 12t40 36l473 565q-13 13 -36.5 18.5t-55.5 10.5l7 30h601l-32 -173h-24
q-9 41 -18 67.5t-22 42t-32 21.5t-48 6h-155l-61 -285h136q32 0 52 21.5t38 69.5h31l-47 -219h-31q2 48 -8 69t-43 21h-136l-51 -239q-8 -41 10.5 -54.5t69.5 -13.5h71q53 0 96 34q22 18 46 44.5t62 74.5h28zM799 898h128l-1 -6l-171 -143h-25z" />
    <glyph glyph-name="aeacute" unicode="&#x1fd;" horiz-adv-x="741" 
d="M343 534q43 0 71 -15.5t50 -41.5q34 26 73 41.5t81 15.5q63 0 94 -29.5t31 -71.5q0 -45 -25 -78.5t-68 -56.5q-43 -22 -96 -37t-123 -29q0 -10 -1 -19t-1 -18q0 -67 27.5 -104t76.5 -37q42 0 78 23.5t74 71.5l19 -15q-50 -72 -101.5 -108t-117.5 -36q-73 0 -117 46
t-48 123q-22 -37 -45 -68t-47.5 -53.5t-49.5 -35t-50 -12.5q-52 0 -80 39.5t-28 109.5q0 77 27 148.5t72 126t103 87.5t121 33zM175 67q33 0 71 38t76 107q6 66 35.5 128t74.5 108q-12 26 -34.5 40.5t-51.5 14.5q-42 1 -81.5 -31t-70 -84t-48 -116t-16.5 -126
q0 -36 11 -57.5t34 -21.5zM600 501q-29 0 -56 -21t-49 -55.5t-38 -78.5t-23 -90q109 26 162.5 69.5t53.5 117.5q0 24 -12 41t-38 17zM551 762h123l-1 -6l-186 -162h-25z" />
    <glyph glyph-name="Oslashacute" unicode="&#x1fe;" horiz-adv-x="710" 
d="M436 675q-41 1 -77 -18t-66 -51.5t-53.5 -76t-40 -91t-25 -96.5t-7.5 -93q0 -32 3.5 -58.5t9.5 -51.5l372 461q-16 35 -45 55t-71 20zM580 453q0 30 -3.5 57.5t-9.5 51.5l-373 -461q18 -35 46.5 -54.5t70.5 -19.5q41 -1 77 18t66 51.5t53.5 76t40 91t24.5 96.5t8 93z
M681 703l-52 -64q38 -38 56.5 -90t18.5 -111q1 -52 -12 -106t-37.5 -104t-59.5 -94t-79 -76.5t-95.5 -50.5t-109.5 -17q-52 0 -93 13t-73 37l-59 -73l-28 20l60 75q-38 38 -56.5 90t-18.5 112q-1 52 12 106t37.5 104t59.5 94t79 76.5t95.5 50.5t109.5 17q51 0 92.5 -13.5
t73.5 -36.5l50 61zM523 898h128l-1 -6l-171 -143h-25z" />
    <glyph glyph-name="oslashacute" unicode="&#x1ff;" horiz-adv-x="502" 
d="M128 132l240 301q-6 32 -22 51t-44 19q-23 1 -44.5 -15t-41 -43t-36 -63t-28 -75t-18 -79t-6.5 -75v-21zM200 21q23 -1 45 15t41.5 43t36 63t28 75t17.5 79t6 75q0 5 -0.5 9.5t-0.5 9.5l-240 -300q6 -32 23 -50.5t44 -18.5zM192 -10q-33 0 -61.5 9t-48.5 27l-44 -55
l-24 18l46 58q-19 25 -29 57.5t-10 74.5q0 41 10 83.5t28.5 82.5t45 74.5t59 60.5t70 40.5t77.5 13.5q65 0 109 -36l40 50l25 -18l-43 -54q39 -51 39 -131q0 -63 -22.5 -126t-61.5 -114t-91.5 -83t-113.5 -32zM395 762h123l-1 -6l-186 -162h-25z" />
    <glyph glyph-name="Scommaaccent" unicode="&#x218;" horiz-adv-x="542" 
d="M495 214q0 -53 -21.5 -94.5t-58.5 -70.5t-85 -44t-101 -15q-39 0 -73.5 6.5t-62.5 17.5t-50 24t-35 27l27 168h31q4 -102 47 -154.5t123 -52.5q67 0 107.5 36.5t40.5 101.5q0 27 -7 47.5t-23.5 37t-42.5 32.5t-63 34q-69 33 -106 76.5t-37 107.5q0 47 17.5 86t50 67.5
t78.5 44t102 15.5q58 0 108 -17t86 -45l-29 -148h-29q0 85 -34 129.5t-109 44.5q-31 0 -56 -10t-42.5 -28t-27 -42.5t-9.5 -52.5q0 -24 6 -42t19.5 -33t34.5 -28t50 -28q38 -17 70 -37t55 -44t36 -52.5t13 -64.5zM156 -151q-19 5 -27 16t-8 25q0 30 20.5 47.5t52.5 17.5
t50 -19t18 -49q0 -51 -38 -84.5t-116 -33.5l4 26q40 0 65.5 16.5t29.5 37.5h-51z" />
    <glyph glyph-name="scommaaccent" unicode="&#x219;" horiz-adv-x="392" 
d="M184 28q74 0 74 70q0 25 -20 48q-21 26 -69 71q-48 48 -72.5 84.5t-24.5 75.5q0 32 14 60.5t38 50t57 34t71 12.5q58 0 93.5 -23.5t35.5 -64.5q0 -22 -16.5 -36.5t-34.5 -22.5h-5q-16 46 -44 77.5t-71 31.5q-31 0 -47.5 -17.5t-16.5 -47.5q0 -22 19 -44q10 -11 27.5 -29
t42.5 -43q51 -51 76 -87t25 -73t-15 -67.5t-40.5 -52t-59 -33.5t-70.5 -12q-71 0 -114 31t-43 78q0 25 14 43t36 28h6q14 -64 48.5 -103t85.5 -39zM76 -151q-19 5 -27 16t-8 25q0 30 20.5 47.5t52.5 17.5t50 -19t18 -49q0 -51 -38 -84.5t-116 -33.5l4 26q40 0 65.5 16.5
t29.5 37.5h-51z" />
    <glyph glyph-name="dotlessj" unicode="&#x237;" horiz-adv-x="257" 
d="M254 534l-93 -404q-21 -93 -46.5 -158t-57 -105.5t-69 -58.5t-82.5 -18q-43 0 -70 17.5t-27 50.5q0 28 18.5 43t41.5 19h15q2 -45 16 -71.5t37 -26.5q14 0 24 7.5t19 27t18.5 53.5t21.5 86l103 447l-59 33l3 15l172 43h15z" />
    <glyph glyph-name="circumflex" unicode="&#x2c6;" 
d="M327 765l75 -172h-31l-97 103l-140 -103h-36l148 172h81z" />
    <glyph glyph-name="caron" unicode="&#x2c7;" 
d="M173 595l-75 172h31l97 -103l140 103h36l-148 -172h-81z" />
    <glyph glyph-name="breve" unicode="&#x2d8;" 
d="M223 596q-60 0 -88 41t-10 120h33q-6 -51 15 -71t63 -20t71.5 20t45.5 71h33q-36 -161 -163 -161z" />
    <glyph glyph-name="dotaccent" unicode="&#x2d9;" 
d="M247 608q-28 0 -46.5 18.5t-18.5 44.5q0 29 20 50t50 21q28 0 47 -18.5t19 -44.5q0 -29 -20.5 -50t-50.5 -21z" />
    <glyph glyph-name="ring" unicode="&#x2da;" 
d="M159 650q0 41 28 69.5t69 28.5q39 0 62 -23t23 -58q0 -21 -7.5 -39t-20.5 -31t-31 -20.5t-38 -7.5q-39 0 -62 23t-23 58zM304 666q0 22 -13.5 35.5t-35.5 13.5q-28 0 -43.5 -19t-15.5 -46q0 -22 13.5 -35t35.5 -13q28 0 43.5 19t15.5 45z" />
    <glyph glyph-name="ogonek" unicode="&#x2db;" 
d="M350 14q-29 -13 -53.5 -27.5t-43.5 -31t-29.5 -34.5t-10.5 -36q0 -20 13 -32t34 -12q23 0 45.5 10.5t48.5 32.5l9 -13q-15 -16 -31 -31t-33.5 -26t-37.5 -18t-44 -7q-35 0 -57.5 18t-22.5 51q0 31 18 56t47 45q30 19 63 34t81 32z" />
    <glyph glyph-name="tilde" unicode="&#x2dc;" 
d="M301 604q-18 0 -33 7t-35 21q-19 15 -31.5 21.5t-27.5 6.5q-22 0 -38 -13.5t-36 -42.5l-21 12q18 33 32 56t27.5 36.5t28 19.5t32.5 6t33 -7.5t34 -21.5q20 -14 32.5 -21t27.5 -7q21 0 37 14t36 43l22 -12q-18 -33 -32 -56t-27.5 -36.5t-28 -19.5t-32.5 -6z" />
    <glyph glyph-name="hungarumlaut" unicode="&#x2dd;" 
d="M324 762h110l-2 -6l-188 -162h-27zM173 762h109l-1 -6l-188 -162h-27z" />
    <glyph glyph-name="pi" unicode="&#x3c0;" horiz-adv-x="641" 
d="M455 450h-182q-16 -77 -31 -138.5t-30.5 -114t-33.5 -100t-40 -97.5h-118l3 18q45 72 73 120.5t42 73.5q27 51 50 111.5t37 126.5h-119l18 84h510l-35 -84h-80q-36 -137 -53.5 -222.5t-17.5 -134.5q0 -24 12.5 -34t32.5 -10q8 0 22.5 1.5t25.5 5.5l-1 -16
q-32 -26 -60.5 -38t-57.5 -12q-37 0 -59 22t-22 60q0 50 29 140q7 23 15 47.5t18 50.5z" />
    <glyph glyph-name="Wgrave" unicode="&#x1e80;" horiz-adv-x="931" 
d="M646 165l230 419q7 15 11 22.5t6 12t2.5 8t1.5 9.5q0 16 -15 25t-62 11l6 30h198l-7 -30q-23 -4 -39 -10t-27 -27l-359 -643h-30l-50 419l-241 -419h-30l-96 643q-2 19 -16 26t-35 11l7 30h263l-6 -30q-54 -4 -73.5 -14t-19.5 -37q0 -10 0.5 -18.5t2.5 -16.5l59 -425
l177 311l-19 163q-2 19 -15.5 26t-33.5 11l7 30h252l-7 -30q-27 -2 -45 -5.5t-28.5 -9.5t-14.5 -15t-4 -22q0 -8 1 -17t1 -17zM425 898h119l42 -149h-25l-136 143v6z" />
    <glyph glyph-name="wgrave" unicode="&#x1e81;" horiz-adv-x="707" 
d="M332 449l-57 28l5 14l147 43h7l27 -432l97 126q38 50 54.5 87t16.5 78t-25 61t-70 16v10q15 20 39 37t55 17q23 0 38.5 -7.5t25 -20t13.5 -28.5t4 -32q-1 -26 -8.5 -51t-22.5 -52t-37 -58t-52 -68l-184 -226h-35l-21 252l-197 -252h-35l-38 458l-59 28l5 15l149 42h6
l30 -426l135 175zM276 762h115l53 -168h-25l-143 162v6z" />
    <glyph glyph-name="Wacute" unicode="&#x1e82;" horiz-adv-x="931" 
d="M646 165l230 419q7 15 11 22.5t6 12t2.5 8t1.5 9.5q0 16 -15 25t-62 11l6 30h198l-7 -30q-23 -4 -39 -10t-27 -27l-359 -643h-30l-50 419l-241 -419h-30l-96 643q-2 19 -16 26t-35 11l7 30h263l-6 -30q-54 -4 -73.5 -14t-19.5 -37q0 -10 0.5 -18.5t2.5 -16.5l59 -425
l177 311l-19 163q-2 19 -15.5 26t-33.5 11l7 30h252l-7 -30q-27 -2 -45 -5.5t-28.5 -9.5t-14.5 -15t-4 -22q0 -8 1 -17t1 -17zM627 898h128l-1 -6l-171 -143h-25z" />
    <glyph glyph-name="wacute" unicode="&#x1e83;" horiz-adv-x="707" 
d="M332 449l-57 28l5 14l147 43h7l27 -432l97 126q38 50 54.5 87t16.5 78t-25 61t-70 16v10q15 20 39 37t55 17q23 0 38.5 -7.5t25 -20t13.5 -28.5t4 -32q-1 -26 -8.5 -51t-22.5 -52t-37 -58t-52 -68l-184 -226h-35l-21 252l-197 -252h-35l-38 458l-59 28l5 15l149 42h6
l30 -426l135 175zM487 762h123l-1 -6l-186 -162h-25z" />
    <glyph glyph-name="Wdieresis" unicode="&#x1e84;" horiz-adv-x="931" 
d="M646 165l230 419q7 15 11 22.5t6 12t2.5 8t1.5 9.5q0 16 -15 25t-62 11l6 30h198l-7 -30q-23 -4 -39 -10t-27 -27l-359 -643h-30l-50 419l-241 -419h-30l-96 643q-2 19 -16 26t-35 11l7 30h263l-6 -30q-54 -4 -73.5 -14t-19.5 -37q0 -10 0.5 -18.5t2.5 -16.5l59 -425
l177 311l-19 163q-2 19 -15.5 26t-33.5 11l7 30h252l-7 -30q-27 -2 -45 -5.5t-28.5 -9.5t-14.5 -15t-4 -22q0 -8 1 -17t1 -17zM678 755q-28 0 -45.5 18.5t-17.5 44.5q0 28 19.5 48.5t48.5 20.5t46.5 -17.5t17.5 -44.5q0 -29 -20 -49.5t-49 -20.5zM488 755q-29 0 -46.5 18.5
t-17.5 44.5q0 28 20.5 48.5t48.5 20.5t45.5 -17.5t17.5 -44.5q0 -29 -19.5 -49.5t-48.5 -20.5z" />
    <glyph glyph-name="wdieresis" unicode="&#x1e85;" horiz-adv-x="707" 
d="M332 449l-57 28l5 14l147 43h7l27 -432l97 126q38 50 54.5 87t16.5 78t-25 61t-70 16v10q15 20 39 37t55 17q23 0 38.5 -7.5t25 -20t13.5 -28.5t4 -32q-1 -26 -8.5 -51t-22.5 -52t-37 -58t-52 -68l-184 -226h-35l-21 252l-197 -252h-35l-38 458l-59 28l5 15l149 42h6
l30 -426l135 175zM519 606q-28 0 -45.5 18.5t-17.5 44.5q0 28 19.5 48.5t48.5 20.5t46.5 -17.5t17.5 -44.5q0 -29 -20 -49.5t-49 -20.5zM345 606q-29 0 -46.5 18.5t-17.5 44.5q0 28 20.5 48.5t48.5 20.5t45.5 -17.5t17.5 -44.5q0 -29 -19.5 -49.5t-48.5 -20.5z" />
    <glyph glyph-name="Ygrave" unicode="&#x1ef2;" horiz-adv-x="638" 
d="M382 278l-38 -177q-4 -22 -2.5 -35t10.5 -20t26 -10t46 -6l-7 -30h-301l7 30q31 4 50 7.5t30.5 10.5t17.5 19.5t11 33.5l36 176l-123 358q-6 19 -18.5 26t-32.5 11l7 30h267l-7 -30q-28 -1 -46 -3.5t-28.5 -7.5t-14.5 -12.5t-4 -18.5v-8.5t1 -6.5t3 -10.5t5 -19.5
l92 -261l201 261q10 15 19.5 28t9.5 27q0 16 -16.5 23t-60.5 9l7 30h201l-7 -30q-21 -4 -37 -11.5t-30 -25.5zM309 898h119l42 -149h-25l-136 143v6z" />
    <glyph glyph-name="ygrave" unicode="&#x1ef3;" horiz-adv-x="492" 
d="M78 449l-60 28l5 15l147 42h7l79 -487l44 65q36 55 58.5 96.5t35 74t17 58t4.5 48.5q0 43 -26 64t-71 17v10q14 20 38.5 37t54.5 17q23 0 39 -7.5t25.5 -20t14 -29t4.5 -33.5q0 -28 -10.5 -61.5t-32 -76t-54 -95.5t-76.5 -120q-61 -92 -109.5 -150.5t-88.5 -91.5
t-74 -45.5t-65 -12.5q-18 0 -35 4.5t-30 14.5t-21 25t-8 35q0 24 15.5 44t39.5 26h7q0 -42 18.5 -65.5t54.5 -23.5q16 0 32.5 3.5t34 13t37.5 26.5t43 44zM167 762h115l53 -168h-25l-143 162v6z" />
    <glyph glyph-name="endash" unicode="&#x2013;" horiz-adv-x="540" 
d="M505 280h-480l10 42h480z" />
    <glyph glyph-name="emdash" unicode="&#x2014;" horiz-adv-x="960" 
d="M935 322l-10 -42h-900l10 42h900z" />
    <glyph glyph-name="quoteleft" unicode="&#x2018;" horiz-adv-x="217" 
d="M202 646q22 -4 37 -20.5t15 -42.5q0 -30 -20.5 -49t-50.5 -19q-33 0 -54 23t-21 60q0 31 14 58.5t38.5 48.5t57.5 34t71 15v-27q-22 -3 -43 -10t-37.5 -17t-27 -24t-11.5 -30h32z" />
    <glyph glyph-name="quoteright" unicode="&#x2019;" horiz-adv-x="217" 
d="M179 619q-22 4 -37 20.5t-15 42.5q0 30 21 49t50 19q33 0 54 -23t21 -60q0 -31 -14 -58.5t-38.5 -48.5t-57.5 -34t-71 -15v27q22 3 43 10t37.5 17t27 23.5t11.5 30.5h-32z" />
    <glyph glyph-name="quotesinglbase" unicode="&#x201a;" horiz-adv-x="217" 
d="M45 -1q-22 4 -37 20.5t-15 42.5q0 32 20.5 50t50.5 18q33 0 54 -23t21 -60q0 -31 -14 -58.5t-38.5 -48.5t-57.5 -34t-71 -15v27q21 3 42 10t37.5 17.5t27.5 24t12 29.5h-32z" />
    <glyph glyph-name="quotedblleft" unicode="&#x201c;" horiz-adv-x="391" 
d="M375 646q22 -4 37.5 -20.5t15.5 -42.5q0 -30 -21 -49t-50 -19q-33 0 -54 23t-21 60q0 31 14 58.5t38.5 48.5t57.5 34t71 15v-27q-22 -3 -43 -10t-37.5 -17t-27 -24t-12.5 -30h32zM202 646q22 -4 37 -20.5t15 -42.5q0 -30 -20.5 -49t-50.5 -19q-33 0 -54 23t-21 60
q0 31 14 58.5t38.5 48.5t57.5 34t71 15v-27q-22 -3 -43 -10t-37.5 -17t-27 -24t-11.5 -30h32z" />
    <glyph glyph-name="quotedblright" unicode="&#x201d;" horiz-adv-x="391" 
d="M179 619q-22 4 -37 20t-15 43q0 30 21 49t50 19q33 0 54 -23t21 -60q0 -31 -14 -58.5t-38.5 -48.5t-57.5 -34t-71 -15v27q21 3 42 10t37.5 17t27.5 23.5t12 30.5h-32zM353 619q-22 4 -37 20t-15 43q0 30 20.5 49t50.5 19q33 0 54 -23t21 -60q0 -31 -14 -58.5t-38.5 -48.5
t-57.5 -34t-71 -15v27q21 3 41.5 9.5t37 17t27.5 24t13 30.5h-32z" />
    <glyph glyph-name="quotedblbase" unicode="&#x201e;" horiz-adv-x="391" 
d="M45 -1q-22 4 -37 20.5t-15 42.5q0 32 20.5 50t50.5 18q33 0 54 -23t21 -60q0 -31 -14 -58.5t-38.5 -48.5t-57.5 -34t-71 -15v27q21 3 42 10t37.5 17.5t27.5 24t12 29.5h-32zM219 -1q-22 4 -37 20.5t-15 42.5q0 32 20.5 50t49.5 18q33 0 54 -23t21 -60q0 -31 -14 -58.5
t-38.5 -48.5t-57.5 -34t-71 -15v27q22 3 42.5 10t37 17.5t27.5 24t13 29.5h-32z" />
    <glyph glyph-name="dagger" unicode="&#x2020;" horiz-adv-x="358" 
d="M259 591q-6 -31 0.5 -55.5t23.5 -35.5l-2 -8q-12 -14 -26 -44t-28.5 -71t-29 -90.5t-26.5 -101.5h-13q10 53 16.5 102.5t9.5 90t1.5 70.5t-7.5 44l2 8q20 10 38.5 35t24.5 56q-15 0 -29 -3.5t-33 -11.5q-18 -7 -29 -10.5t-24 -3.5q-15 0 -25 9.5t-10 25.5q0 17 13 28
t31 11q10 0 23 -4.5t28 -10t30 -10t28 -4.5q3 15 2 26q0 15 -4 38q-2 13 -3 21.5t-1 13.5q0 26 11.5 39t30.5 13q18 0 26 -10t8 -24q0 -11 -6 -23t-18 -32t-19.5 -33.5t-10.5 -28.5q13 -2 29.5 3t32.5 11.5t30 11t23 3.5q16 0 26 -9.5t10 -25.5q0 -17 -13 -28t-32 -11
q-9 0 -22 4.5t-28 10t-30.5 10t-28.5 4.5z" />
    <glyph glyph-name="daggerdbl" unicode="&#x2021;" horiz-adv-x="358" 
d="M205 336q13 -1 29 4t31.5 11.5t30 11t23.5 3.5q16 0 26 -10t10 -26q0 -17 -13 -28t-32 -11q-9 -2 -22 3t-28 11.5t-30.5 11.5t-28.5 4q-2 -13 -1 -23t4 -25q3 -14 4.5 -20.5t1.5 -17.5q0 -23 -11.5 -36t-30.5 -13q-17 0 -25 10t-8 24q-2 9 5.5 21.5t17 27t18 28t9.5 24.5
q-13 1 -29 -4t-31.5 -11.5t-30 -11.5t-23.5 -3q-16 0 -26 10t-10 25q0 17 13 28.5t32 11.5q9 1 22 -3.5t28 -11t30 -11.5t29 -4q6 31 -3 47.5t-26 27.5l2 8q20 4 37 20t19 33q4 16 -5 32.5t-29 20.5l2 8q22 12 38 27.5t22 47.5q-13 1 -29.5 -4t-32.5 -11.5t-30 -11.5t-23 -3
q-16 0 -25.5 10t-9.5 26q0 17 13 28t31 11q9 1 22 -3.5t28 -11t30 -11.5t29 -4q2 13 1.5 23t-4.5 25q-3 15 -4 21t-1 17q0 23 11 36t31 13q17 0 25 -10t8 -24q2 -9 -5.5 -21.5t-17.5 -27t-18.5 -28.5t-9.5 -24q13 -1 29.5 4t32.5 11.5t30 11t23 3.5q16 0 25.5 -10t9.5 -26
q0 -17 -13 -28t-31 -11q-9 -2 -22 3t-28 11.5t-30.5 11.5t-28.5 4q-6 -32 2 -47.5t26 -27.5l-2 -8q-20 -4 -37 -20.5t-19 -32.5q-5 -17 5 -33t29 -20l-2 -8q-23 -12 -38 -27.5t-21 -47.5z" />
    <glyph glyph-name="bullet" unicode="&#x2022;" horiz-adv-x="319" 
d="M30 303q0 27 10.5 50.5t28 41t41 28t49.5 10.5q27 0 50.5 -10.5t41 -28t28 -41t10.5 -50.5t-10 -50.5t-28 -41.5t-41.5 -28t-50.5 -10q-26 0 -49.5 10t-41 28t-28 41.5t-10.5 50.5z" />
    <glyph glyph-name="ellipsis" unicode="&#x2026;" horiz-adv-x="623" 
d="M395 67q0 32 22.5 54.5t54.5 22.5t54.5 -22.5t22.5 -54.5t-22.5 -54.5t-54.5 -22.5t-54.5 22.5t-22.5 54.5zM191 67q0 32 22.5 54.5t54.5 22.5t54.5 -22.5t22.5 -54.5t-22.5 -54.5t-54.5 -22.5t-54.5 22.5t-22.5 54.5zM-13 67q0 32 22.5 54.5t54.5 22.5t54.5 -22.5
t22.5 -54.5t-22.5 -54.5t-54.5 -22.5t-54.5 22.5t-22.5 54.5z" />
    <glyph glyph-name="perthousand" unicode="&#x2030;" horiz-adv-x="1084" 
d="M861 -10q-30 0 -55.5 10t-44.5 29t-29.5 45.5t-10.5 59.5q0 44 16 79.5t41.5 60.5t58 38.5t65.5 13.5q30 0 55.5 -10.5t44 -29t29.5 -45t11 -59.5q0 -44 -16 -79.5t-41.5 -60.5t-58 -38.5t-65.5 -13.5zM862 17q24 0 43 16.5t32.5 43.5t20.5 60.5t7 67.5q0 41 -13 67
t-51 26q-24 0 -43 -16.5t-32.5 -43.5t-20.5 -60.5t-7 -67.5q0 -41 13 -67t51 -26zM701 712l-599 -722h-44l599 722h44zM249 712q30 0 55.5 -10t44.5 -29t29.5 -45.5t10.5 -59.5q0 -44 -16 -79.5t-41.5 -60.5t-58 -38.5t-65.5 -13.5q-30 0 -55.5 10.5t-44 29t-29.5 45
t-11 59.5q0 44 16 79.5t41.5 60.5t58 38.5t65.5 13.5zM248 685q-24 0 -43 -16.5t-32.5 -43.5t-20.5 -60.5t-7 -67.5q0 -41 13 -67t51 -26q24 0 43 16.5t32.5 43.5t20.5 60.5t7 67.5q0 41 -13 67t-51 26zM510 -10q-30 0 -55.5 10t-44.5 29t-29.5 45.5t-10.5 59.5
q0 44 16 79.5t41.5 60.5t58 38.5t65.5 13.5q30 0 55.5 -10.5t44 -29t29.5 -45t11 -59.5q0 -44 -16 -79.5t-41.5 -60.5t-58 -38.5t-65.5 -13.5zM511 17q24 0 43 16.5t32.5 43.5t20.5 60.5t7 67.5q0 41 -13 67t-51 26q-24 0 -43 -16.5t-32.5 -43.5t-20.5 -60.5t-7 -67.5
q0 -41 13 -67t51 -26z" />
    <glyph glyph-name="guilsinglleft" unicode="&#x2039;" horiz-adv-x="286" 
d="M38 271l1 6l232 194h32l-160 -197l75 -197h-32z" />
    <glyph glyph-name="guilsinglright" unicode="&#x203a;" horiz-adv-x="286" 
d="M256 277l-1 -6l-232 -194h-32l160 197l-75 197h32z" />
    <glyph glyph-name="fraction" unicode="&#x2044;" horiz-adv-x="283" 
d="M-160 -10l598 722h44l-599 -722h-43z" />
    <glyph glyph-name="Euro" unicode="&#x20ac;" horiz-adv-x="634" 
d="M475 712q56 0 103.5 -16t77.5 -44l-27 -150h-33q0 87 -28.5 130.5t-91.5 43.5q-42 0 -78 -20t-65 -53.5t-51 -78.5t-37 -94h261l-20 -35h-251q-4 -21 -7.5 -41t-5.5 -39h221l-20 -34h-204v-23q0 -109 30.5 -170.5t95.5 -61.5q70 0 117 50t88 148h37l-47 -180
q-45 -26 -92.5 -40.5t-105.5 -14.5q-59 0 -104.5 19t-76 55t-46.5 86.5t-16 113.5v18h-84l9 34h78q5 42 16 80h-78l9 35h80q22 59 56.5 110.5t79.5 89.5t98 60t112 22z" />
    <glyph glyph-name="trademark" unicode="&#x2122;" horiz-adv-x="852" 
d="M145 702h295l-14 -102h-23q-3 15 -5.5 24.5t-4 15.5t-3.5 10t-5 9q-5 10 -14 15t-24 5h-22l-56 -253q-4 -22 5.5 -27.5t36.5 -7.5l-5 -21h-169l5 21q25 2 37 7t17 24l56 257h-22q-28 0 -48 -20q-9 -9 -16 -19.5t-26 -39.5h-24zM632 470l109 202q3 5 7 13.5t6 16.5h113
l-6 -21q-23 -2 -33.5 -7.5t-14.5 -21.5l-12 -236q0 -14 7 -18.5t28 -6.5l-5 -21h-154l4 21q18 1 28.5 3.5t15.5 8.5t7 17t3 30l9 171l-136 -251h-26l-37 251l-62 -177q-11 -29 -7 -40t39 -13l-4 -21h-119l4 21q37 0 45 25l83 235q0 15 -5.5 21.5t-28.5 8.5l4 21h108
q0 -11 0.5 -17t0.5 -13z" />
    <glyph glyph-name="Omega" unicode="&#x2126;" horiz-adv-x="747" 
d="M463 683q-38 1 -70.5 -16.5t-59 -47.5t-47.5 -69.5t-34.5 -82.5t-21 -87.5t-6.5 -84.5q0 -79 21 -134t48 -87l-15 -74h-251l12 179h20q12 -36 20.5 -56t20.5 -29.5t32 -12t56 -3.5h69q-23 12 -49.5 35.5t-48.5 58t-36.5 78t-14.5 94.5q-1 69 26.5 135.5t76.5 118.5
t114.5 83.5t139.5 30.5q52 0 95.5 -16.5t75 -47.5t48.5 -75.5t17 -99.5q0 -62 -23.5 -121t-63 -110.5t-92.5 -93.5t-112 -70h70q37 0 57 3t36 13q17 10 33.5 28.5t44.5 56.5h24l-62 -179h-255l14 74q45 36 83.5 86t66.5 107.5t43.5 119t15.5 121.5q0 80 -27 127.5t-91 47.5z
" />
    <glyph glyph-name="uni2153" unicode="&#x2153;" horiz-adv-x="800" 
d="M627 224q45 -6 72.5 -31.5t27.5 -66.5q0 -34 -14.5 -59.5t-37.5 -42.5t-53 -25.5t-60 -8.5q-65 0 -97.5 25.5t-32.5 57.5q0 18 10 30.5t27 18.5h46q-7 -22 -7 -43q0 -26 13.5 -45.5t41.5 -19.5q36 0 58.5 26.5t22.5 69.5q0 35 -18 58t-51 23q-8 0 -14.5 -0.5t-16.5 -2.5
l-3 18q25 9 46 18.5t37 21t25 26t9 32.5q0 20 -12 32.5t-36 12.5q-29 0 -52.5 -13t-43.5 -35l-16 13q22 40 60 65t89 25q45 0 70.5 -20.5t25.5 -56.5q0 -23 -10.5 -40t-27 -29.5t-37 -20.5t-41.5 -13zM303 712l-70 -329q-3 -16 -2 -25t8.5 -14.5t23 -7.5t40.5 -3l-6 -25
h-247l6 25q25 2 40.5 4t24.5 6.5t14 13t9 23.5l49 236h-82l4 20l23 4q26 5 45 10t35 13t30.5 19.5t31.5 29.5h23zM99 -10l598 722h44l-599 -722h-43z" />
    <glyph glyph-name="uni2154" unicode="&#x2154;" horiz-adv-x="820" 
d="M648 224q45 -6 72.5 -31.5t27.5 -66.5q0 -34 -14.5 -59.5t-37.5 -42.5t-53 -25.5t-60 -8.5q-65 0 -97.5 25.5t-32.5 57.5q0 18 10 30.5t26 18.5h46q-7 -22 -7 -43q0 -26 14 -45.5t42 -19.5q36 0 58.5 26.5t22.5 69.5q0 35 -18 58t-51 23q-8 0 -15 -0.5t-17 -2.5l-3 18
q25 9 46.5 18.5t37.5 21t25 26t9 32.5q0 20 -12 32.5t-36 12.5q-29 0 -52.5 -13.5t-44.5 -34.5l-15 13q22 40 60 65t88 25q46 0 71.5 -20.5t25.5 -56.5q0 -23 -10.5 -40t-27 -29.5t-37 -20.5t-41.5 -13zM250 379q18 0 30 1.5t22 7.5t20 17t25 30h19l-45 -128h-277l3 16
q77 63 123 104.5t70 71.5t31.5 52.5t8.5 46.5q0 26 -16.5 41.5t-45.5 15.5t-55.5 -15.5t-43.5 -36.5l-13 14q23 37 62 65t91 28q49 0 78.5 -25.5t29.5 -71.5q0 -33 -15.5 -60t-41.5 -51q-13 -12 -33.5 -28.5t-48.5 -37.5q-28 -20 -47 -34.5t-30 -22.5h99zM120 -10l598 722
h44l-599 -722h-43z" />
    <glyph glyph-name="uni215B" unicode="&#x215b;" horiz-adv-x="832" 
d="M99 -10l599 722h43l-599 -722h-43zM775 314q0 -43 -31.5 -63.5t-75.5 -26.5q42 -20 62.5 -48t20.5 -60q0 -30 -11.5 -53.5t-32 -39.5t-48.5 -24.5t-60 -8.5t-58.5 7.5t-46.5 21.5t-31 32.5t-11 41.5q0 22 9.5 39t25.5 29.5t36.5 20.5t42.5 13q-25 13 -41.5 38t-16.5 56
q0 25 10.5 46.5t28.5 37t43.5 24t55.5 8.5q59 0 94 -26t35 -65zM655 231q26 16 41.5 35.5t15.5 50.5q0 27 -17.5 44.5t-48.5 17.5q-32 0 -50.5 -18t-18.5 -48q0 -20 9 -33.5t31 -25.5zM579 188q-31 -14 -45 -38.5t-14 -52.5q0 -36 21.5 -59.5t57.5 -23.5q35 0 58.5 21
t23.5 54q0 21 -10.5 36t-33.5 29zM303 712l-70 -329q-3 -16 -2 -25t8.5 -14.5t23 -7.5t40.5 -3l-6 -25h-247l6 25q25 2 40.5 4t24.5 6.5t14 13t9 23.5l49 236h-82l4 20l23 4q26 5 45 10t35 13t30.5 19.5t31.5 29.5h23z" />
    <glyph glyph-name="uni215C" unicode="&#x215c;" horiz-adv-x="831" 
d="M100 -10l599 722h44l-599 -722h-44zM251 531q45 -6 72.5 -30.5t27.5 -66.5q0 -34 -14.5 -59.5t-37.5 -42.5t-53 -25.5t-60 -8.5q-65 0 -97.5 25.5t-32.5 57.5q0 17 10 30t26 19h46q-7 -22 -7 -44q0 -26 14 -45t42 -19q36 0 58.5 25.5t22.5 69.5q0 36 -18 59t-51 23
q-8 0 -15 -0.5t-17 -2.5l-3 17q25 9 46.5 18.5t37.5 21.5t25 26.5t9 31.5q0 20 -12 33t-36 13q-29 0 -52.5 -13.5t-44.5 -34.5l-15 13q22 40 60 65t88 25q46 0 71.5 -20.5t25.5 -56.5q0 -22 -10.5 -39.5t-27 -30t-37 -21t-41.5 -13.5zM775 314q0 -21 -8.5 -37t-23 -26.5
t-34 -17t-41.5 -9.5q42 -20 62 -48.5t20 -59.5q0 -30 -11.5 -53.5t-32 -39.5t-48 -24.5t-59.5 -8.5t-58.5 7.5t-46.5 21.5t-31 32.5t-11 41.5q0 22 9.5 39t25.5 29.5t36.5 20.5t42.5 13q-25 13 -42 38t-17 56q0 25 10.5 46.5t29 37t44 24t55.5 8.5q59 0 94 -26t35 -65z
M655 231q26 16 41 36t15 50q0 27 -17.5 44.5t-47.5 17.5q-32 0 -51 -18t-19 -48q0 -20 9.5 -32.5t30.5 -26.5zM578 188q-31 -14 -45 -38.5t-14 -52.5q0 -36 21.5 -59.5t58.5 -23.5q35 0 58 21t23 54q0 21 -10 36t-33 29z" />
    <glyph glyph-name="uni215D" unicode="&#x215d;" horiz-adv-x="822" 
d="M91 -10l599 722h44l-599 -722h-44zM184 702h130q21 0 30 3.5t19 19.5h22l-34 -101h-163l-22 -62q38 0 70 -8t55.5 -23.5t36.5 -39t13 -54.5q0 -32 -11.5 -57.5t-32 -44t-48 -28.5t-59.5 -10q-64 0 -96.5 21.5t-32.5 54.5q0 20 11 35t26 21h43q-9 -26 -9 -45
q0 -28 15.5 -45t43.5 -17q36 0 57 23t21 61q0 49 -41.5 71.5t-113.5 22.5zM766 314q0 -21 -8.5 -37t-23 -26.5t-34 -17t-41.5 -9.5q42 -20 62 -48.5t20 -59.5q0 -30 -11.5 -53.5t-32 -39.5t-48 -24.5t-59.5 -8.5t-58.5 7.5t-46.5 21.5t-31 32.5t-11 41.5q0 22 9.5 39
t25.5 29.5t36.5 20.5t42.5 13q-25 13 -42 38t-17 56q0 25 10.5 46.5t29 37t44 24t55.5 8.5q59 0 94 -26t35 -65zM646 231q26 16 41 36t15 50q0 27 -17.5 44.5t-47.5 17.5q-32 0 -51 -18t-19 -48q0 -20 9.5 -32.5t30.5 -26.5zM569 188q-31 -14 -45 -38.5t-14 -52.5
q0 -36 21.5 -59.5t58.5 -23.5q35 0 58 21t23 54q0 21 -10 36t-33 29z" />
    <glyph glyph-name="uni215E" unicode="&#x215e;" horiz-adv-x="759" 
d="M28 -10l599 722h43l-599 -722h-43zM354 621h-158q-23 0 -38 -15t-35 -49h-28l60 145h286l-4 -16l-276 -387h-64zM702 314q0 -21 -8.5 -37t-23 -26.5t-33.5 -17t-41 -9.5q42 -20 62 -48.5t20 -59.5q0 -30 -11.5 -53.5t-32 -39.5t-48.5 -24.5t-60 -8.5t-58.5 7.5
t-46.5 21.5t-31 32.5t-11 41.5q0 22 9.5 39t25.5 29.5t36.5 20.5t42.5 13q-25 13 -41.5 38t-16.5 56q0 25 10.5 46.5t28.5 37t43.5 24t55.5 8.5q59 0 94 -26t35 -65zM583 231q26 16 41 36t15 50q0 27 -17.5 44.5t-48.5 17.5q-32 0 -50.5 -18t-18.5 -48q0 -20 9 -33.5
t31 -25.5zM506 188q-31 -14 -45 -38.5t-14 -52.5q0 -36 21.5 -59.5t57.5 -23.5q35 0 58.5 21t23.5 54q0 21 -10.5 36t-33.5 29z" />
    <glyph glyph-name="partialdiff" unicode="&#x2202;" horiz-adv-x="540" 
d="M319 534q16 0 30.5 -2.5t26.5 -8.5q-18 69 -65 127t-137 104l16 19q76 -25 135 -67t99 -96t61 -119t21 -137q0 -71 -21.5 -136.5t-59.5 -116t-90.5 -81t-114.5 -30.5q-83 0 -133.5 54.5t-50.5 151.5q-1 63 21 124t60.5 109t90.5 77t111 28zM392 377q0 29 -2 56t-6 53
q-12 8 -27 11.5t-29 3.5q-39 0 -72 -33.5t-56.5 -84.5t-36.5 -112t-13 -115q0 -60 18 -96.5t53 -36.5q25 -1 47 14.5t41.5 42.5t34.5 63t26 75.5t16.5 80.5t5.5 78z" />
    <glyph glyph-name="Delta" unicode="&#x2206;" horiz-adv-x="666" 
d="M587 0h-609l6 33l422 669h46l142 -669zM365 570l-331 -531h435z" />
    <glyph glyph-name="product" unicode="&#x220f;" horiz-adv-x="747" 
d="M608 666h-302l-163 -762q-5 -21 -4.5 -33.5t8 -19.5t23.5 -10.5t43 -7.5l-6 -30h-286l6 30q29 4 46.5 7.5t27.5 10.5t15 19.5t9 33.5l149 697q4 22 4 34t-7 19t-23 10.5t-43 7.5l6 30h707l-7 -30q-30 -4 -47 -7.5t-26.5 -10.5t-14.5 -19t-11 -34l-149 -697q-4 -22 -4 -34
t7 -19t23 -10.5t43 -7.5l-5 -30h-287l6 30q29 4 46.5 7.5t27 10.5t15 19t10.5 34z" />
    <glyph glyph-name="summation" unicode="&#x2211;" horiz-adv-x="582" 
d="M25 -99h232q39 1 63.5 3t44 12.5t40.5 31.5t53 60h24l-76 -205h-499l6 31l388 400l-201 432l8 36h495l-36 -172h-22q-8 36 -16 61.5t-20.5 42t-32 24.5t-50.5 9h-201l175 -377l-3 -7z" />
    <glyph glyph-name="minus" unicode="&#x2212;" horiz-adv-x="566" 
d="M72 343l11 56h440l-12 -56h-439z" />
    <glyph glyph-name="radical" unicode="&#x221a;" horiz-adv-x="566" 
d="M270 152l326 560h44l-415 -712h-55l-39 445q-4 31 -12.5 42.5t-39.5 11.5l-26 1l7 34h188z" />
    <glyph glyph-name="infinity" unicode="&#x221e;" horiz-adv-x="706" 
d="M389 349l30 -43q23 -33 46 -47.5t54 -14.5q48 0 81 35t33 96q0 39 -23 62t-56 23q-17 0 -31 -3.5t-27.5 -11t-27 -19.5t-29.5 -28zM342 352l-31 44q-24 32 -46 47.5t-54 15.5q-48 0 -81 -35t-33 -96q0 -39 23 -62t55 -23q36 0 60 14t55 45zM361 316l-41 -41
q-35 -35 -67 -53.5t-73 -18.5q-55 0 -91 33.5t-36 94.5q0 36 13 67t35.5 53.5t52.5 35t64 12.5q42 0 70.5 -19t54.5 -57l26 -38l41 41q35 35 67 54.5t73 19.5q55 0 91 -33.5t36 -94.5q0 -36 -13 -67t-35.5 -53.5t-53 -35t-64.5 -12.5q-43 0 -70.5 18.5t-53.5 57.5z" />
    <glyph glyph-name="integral" unicode="&#x222b;" horiz-adv-x="424" 
d="M186 52q-26 -119 -78.5 -183.5t-147.5 -64.5q-43 0 -68.5 19.5t-25.5 54.5q0 20 13 35.5t36 21.5h27q1 -47 6.5 -74.5t32.5 -29.5q16 0 27 10t20 33q9 22 17.5 57.5t22.5 99.5l92 432q26 120 78 184.5t146 64.5q44 0 70 -19.5t26 -54.5q0 -21 -13 -36.5t-36 -21.5h-27
q0 45 -7 75t-34 30q-15 0 -26 -10t-20 -33q-8 -22 -16.5 -56.5t-22.5 -100.5z" />
    <glyph glyph-name="approxequal" unicode="&#x2248;" horiz-adv-x="576" 
d="M99 452q38 20 68.5 30t59.5 10q25 0 46 -5t50 -15q30 -9 50.5 -14t45.5 -5q29 0 60 8.5t69 31.5l-12 -56q-38 -23 -69 -31.5t-60 -8.5q-25 0 -45.5 5t-50.5 14q-29 10 -50 15t-46 5q-54 0 -127 -40zM69 309q36 22 68.5 31t58.5 9q25 0 46 -4.5t50 -14.5q30 -9 51 -14
t46 -5q28 0 59.5 8t68.5 31l-12 -56q-37 -23 -68.5 -31t-59.5 -8q-25 0 -46 5t-51 14q-29 10 -50 14.5t-46 4.5q-26 0 -57.5 -9.5t-68.5 -29.5z" />
    <glyph glyph-name="notequal" unicode="&#x2260;" horiz-adv-x="576" 
d="M92 414l11 54h263l103 107h63l-103 -107h114l-12 -54h-154l-85 -88h220l-11 -53h-260l-104 -108h-63l104 108h-116l11 53h156l85 88h-222z" />
    <glyph glyph-name="lessequal" unicode="&#x2264;" horiz-adv-x="436" 
d="M81 400l1 8l348 168l-15 -65l-232 -110l186 -109l-13 -59zM25 141l12 55h312l-12 -55h-312z" />
    <glyph glyph-name="greaterequal" unicode="&#x2265;" horiz-adv-x="436" 
d="M407 408l-1 -8l-348 -167l13 65l232 109l-185 110l13 59zM362 196l-12 -55h-311l11 55h312z" />
    <glyph glyph-name="lozenge" unicode="&#x25ca;" horiz-adv-x="550" 
d="M250 0h-59l-137 351l277 351h59l137 -351zM223 32l256 324l-120 314l-256 -324z" />
    <glyph glyph-name="commaaccent" unicode="&#xf6c3;" 
d="M221 -151q-19 5 -27 16t-8 25q0 30 20.5 47.5t52.5 17.5t50 -19t18 -49q0 -51 -38 -84.5t-116 -33.5l4 26q40 0 65.5 16.5t29.5 37.5h-51z" />
    <glyph glyph-name="published" horiz-adv-x="796" 
d="M393 -10q-73 0 -134.5 26t-106.5 71t-70 106t-25 132q0 81 29.5 151.5t81 123t121 82.5t149.5 30q73 0 134.5 -26t106.5 -71t70 -106t25 -132q0 -81 -29.5 -151.5t-81 -123t-121 -82.5t-149.5 -30zM393 14q75 0 140 28t113.5 77t76 115.5t27.5 142.5q0 66 -23.5 123
t-65 99t-98.5 65.5t-125 23.5q-75 0 -140 -28t-113.5 -77t-76 -115.5t-27.5 -142.5q0 -66 23.5 -123t65 -99t98.5 -65.5t125 -23.5zM381 317l-23 -103q-6 -23 7.5 -31t50.5 -8l-4 -21h-196l5 21q29 0 41.5 8t18.5 32l62 276q6 25 -5 31t-37 8l5 21h172q67 0 99.5 -29
t32.5 -76q0 -56 -47.5 -92.5t-131.5 -36.5h-50zM427 524l-41 -181h32q22 0 42.5 6t36 18.5t24.5 31.5t9 45q0 35 -18 57.5t-57 22.5h-28z" />
    <glyph glyph-name="dotbelow" 
d="M247 -176q-28 0 -46.5 18.5t-18.5 44.5q0 29 20 50t50 21q28 0 47 -19t19 -45q0 -29 -20.5 -49.5t-50.5 -20.5z" />
    <glyph glyph-name="exclamdown.cap" horiz-adv-x="251" 
d="M290 637q0 -31 -22.5 -53.5t-52.5 -22.5q-32 0 -53.5 22.5t-21.5 53.5q0 30 21.5 52.5t53.5 22.5q30 0 52.5 -22.5t22.5 -52.5zM-4 0l180 492h24l-56 -492h-148z" />
    <glyph glyph-name="questiondown.cap" horiz-adv-x="447" 
d="M393 637q0 -31 -22.5 -53.5t-52.5 -22.5q-32 0 -53.5 22.5t-21.5 53.5q0 30 21.5 52.5t53.5 22.5q30 0 52.5 -22.5t22.5 -52.5zM210 253q-26 -15 -46.5 -29.5t-34.5 -31t-21.5 -37t-7.5 -47.5q0 -41 23 -66t66 -25q44 0 68.5 28.5t24.5 79.5q0 17 -1.5 26.5t-3.5 20.5h82
q11 -8 17.5 -23.5t6.5 -33.5q0 -29 -14.5 -52t-40 -39.5t-60.5 -25t-76 -8.5q-88 0 -139 42.5t-51 113.5q1 35 11 61t29 47t46 39t62 37q56 30 89.5 59.5t33.5 75.5q0 7 -2 17q-1 4 -3 11t-2 8h18q22 -18 34 -42.5t12 -53.5q0 -49 -30.5 -84t-89.5 -68z" />
    <glyph glyph-name="guilsinglleft.cap" horiz-adv-x="286" 
d="M54 354l1 6l232 194h32l-160 -197l75 -196h-32z" />
    <glyph glyph-name="guilsinglright.cap" horiz-adv-x="286" 
d="M272 360l-1 -6l-233 -193h-32l160 196l-74 197h32z" />
    <glyph glyph-name="guillemotleft.cap" horiz-adv-x="447" 
d="M214 354l1 6l233 194h32l-160 -197l74 -196h-32zM54 354l1 6l232 194h32l-160 -197l75 -196h-32z" />
    <glyph glyph-name="guillemotright.cap" horiz-adv-x="447" 
d="M272 360l-1 -6l-233 -193h-32l160 196l-74 197h32zM433 360l-1 -6l-233 -193h-32l160 196l-75 197h33z" />
    <glyph glyph-name="slash.cap" horiz-adv-x="372" 
d="M456 770l-467 -871h-50l467 871h50z" />
    <glyph glyph-name="backslash.cap" horiz-adv-x="372" 
d="M236 -101l-97 871h45l97 -871h-45z" />
    <glyph glyph-name="bar.cap" horiz-adv-x="214" 
d="M243 770l-185 -871h-46l185 871h46z" />
    <glyph glyph-name="brokenbar.cap" horiz-adv-x="214" 
d="M243 770l-79 -371h-45l79 371h45zM137 270l-79 -371h-45l79 371h45z" />
    <glyph glyph-name="bullet.cap" horiz-adv-x="319" 
d="M45 359q0 27 10.5 50.5t28 41t41 28t49.5 10.5q27 0 50.5 -10.5t41 -28t28 -41t10.5 -50.5t-10.5 -50.5t-28 -41t-41 -28t-50.5 -10.5q-26 0 -49.5 10.5t-41 28t-28 41t-10.5 50.5z" />
    <glyph glyph-name="periodcentered.cap" horiz-adv-x="219" 
d="M45 359q0 34 23 56.5t57 22.5q33 0 56 -22.5t23 -56.5t-23 -57t-56 -23q-34 0 -57 23t-23 57z" />
    <glyph glyph-name="hyphen.cap" horiz-adv-x="320" 
d="M298 332h-260l12 53h260z" />
    <glyph glyph-name="endash.cap" horiz-adv-x="540" 
d="M519 336h-480l11 42h480z" />
    <glyph glyph-name="emdash.cap" horiz-adv-x="960" 
d="M950 378l-11 -42h-900l11 42h900z" />
    <glyph glyph-name="parenleft.cap" horiz-adv-x="346" 
d="M72 224q0 79 24.5 155t68 145.5t103 131.5t129.5 114h42q-70 -59 -122 -132t-86.5 -150t-51.5 -153.5t-17 -141.5q0 -88 18.5 -160.5t64.5 -134.5h-43q-64 72 -97 154t-33 172z" />
    <glyph glyph-name="parenright.cap" horiz-adv-x="346" 
d="M301 444q0 -80 -24.5 -155.5t-68 -145t-103 -131.5t-129.5 -114h-42q70 59 122 132t86.5 150t51.5 153.5t17 141.5q0 87 -18.5 160t-64.5 135h43q64 -72 97 -154t33 -172z" />
    <glyph glyph-name="bracketleft.cap" horiz-adv-x="318" 
d="M121 -12q-3 -20 0 -30.5t14 -16.5t31 -8.5t53 -4.5l-6 -29h-190l184 871h191l-6 -29q-36 -2 -55.5 -4.5t-33.5 -8.5q-28 -10 -35 -47z" />
    <glyph glyph-name="bracketright.cap" horiz-adv-x="318" 
d="M238 681q3 19 0 30t-14 17t-31 8.5t-53 4.5l6 29h191l-185 -871h-191l6 29q36 2 55.5 4.5t33.5 8.5q28 10 35 47z" />
    <glyph glyph-name="braceleft.cap" horiz-adv-x="347" 
d="M81 341q39 8 66 30t38 70l43 201q12 59 65.5 93.5t134.5 34.5l-5 -23q-44 -4 -72.5 -26t-38.5 -72l-43 -200q-5 -27 -15.5 -45t-26.5 -31t-37.5 -21.5t-49.5 -16.5q24 -8 42 -16.5t28.5 -21.5t13.5 -31.5t-3 -44.5l-43 -200q-10 -50 8.5 -72t60.5 -26l-4 -23
q-81 0 -119.5 34t-26.5 94l43 201q5 24 2.5 41t-11 29t-22 19t-31.5 11z" />
    <glyph glyph-name="braceright.cap" horiz-adv-x="349" 
d="M309 329q-39 -8 -66 -30t-38 -70l-43 -201q-12 -59 -65.5 -93.5t-133.5 -34.5l4 23q44 4 72.5 26t38.5 72l43 200q6 27 16 45t26 30.5t37 21.5t50 17q-25 7 -42.5 16t-28 22t-13 31.5t2.5 44.5l43 200q10 50 -8.5 72t-60.5 26l5 23q81 0 119 -34.5t26 -93.5l-42 -201
q-11 -47 8 -70t54 -30z" />
    <glyph glyph-name="at.cap" horiz-adv-x="856" 
d="M604 132q-37 0 -60.5 13t-34.5 37t-11.5 56.5t9.5 71.5q-38 -81 -80 -129t-95 -48q-43 0 -69 33t-26 93q-1 53 20.5 106.5t58 96.5t83 69.5t94.5 25.5q27 0 50.5 -10t38.5 -25l70 36h20l-31 -88l-61 -202q-5 -20 -7.5 -39t0.5 -34t12.5 -24t27.5 -9q39 0 69 23.5
t50.5 61.5t31.5 87t11 100q0 61 -17.5 113t-52 89t-86 58t-118.5 21q-85 1 -155 -35t-119.5 -96.5t-76.5 -139t-26 -161.5q0 -71 22.5 -128.5t63 -98t98 -62t126.5 -21.5q43 0 78.5 4t67 13t62.5 23t65 34l10 -15q-52 -45 -130 -72t-163 -27q-84 0 -153 23.5t-117.5 68.5
t-75.5 110t-27 147q-1 89 33 173.5t94 149.5t142.5 103.5t180.5 37.5q80 0 143.5 -22.5t107.5 -64t67.5 -99t23.5 -126.5q0 -59 -18 -113.5t-50 -96.5t-75.5 -67t-95.5 -25zM369 191q23 0 49 24t51.5 65t48.5 96t39 117q-8 19 -25.5 27.5t-36.5 8.5q-35 0 -65 -25.5
t-52.5 -65t-35.5 -87t-13 -90.5q0 -31 10 -50.5t30 -19.5z" />
    <glyph glyph-name="grave.cap" 
d="M166 898h119l42 -149h-25l-136 143v6z" />
    <glyph glyph-name="acute.cap" 
d="M228 898h128l-1 -6l-171 -143h-25z" />
    <glyph glyph-name="circumflex.cap" 
d="M327 907l75 -158h-31l-97 89l-140 -89h-36l148 158h81z" />
    <glyph glyph-name="tilde.cap" 
d="M301 752q-18 0 -33 7t-35 21q-19 15 -31.5 21.5t-27.5 6.5q-22 0 -38 -13.5t-36 -42.5l-21 12q18 33 32 56t27.5 36.5t28 19.5t32.5 6t33 -7.5t34 -21.5q20 -14 32.5 -21t27.5 -7q21 0 37 14t36 43l22 -13q-17 -33 -31.5 -55.5t-28 -36t-28 -19.5t-32.5 -6z" />
    <glyph glyph-name="macron.cap" 
d="M106 768l12 58h275l-12 -58h-275z" />
    <glyph glyph-name="breve.cap" 
d="M224 746q-29 0 -52 9.5t-37 29t-18 49t5 69.5h32q-6 -50 18 -69t65 -19q40 0 73 19t47 69h33q-18 -81 -60 -119t-106 -38z" />
    <glyph glyph-name="dotaccent.cap" 
d="M247 756q-28 0 -46.5 18.5t-18.5 44.5q0 29 20 50t50 21q28 0 47 -19t19 -45q0 -29 -20.5 -49.5t-50.5 -20.5z" />
    <glyph glyph-name="dieresis.cap" 
d="M342 755q-28 0 -45.5 18.5t-17.5 44.5q0 28 19.5 48.5t48.5 20.5t46.5 -17.5t17.5 -44.5q0 -29 -20 -49.5t-49 -20.5zM152 755q-29 0 -46.5 18.5t-17.5 44.5q0 28 20.5 48.5t48.5 20.5t45.5 -17.5t17.5 -44.5q0 -29 -19.5 -49.5t-48.5 -20.5z" />
    <glyph glyph-name="ring.cap" 
d="M159 813q0 21 7.5 39t20.5 31t31 20.5t38 7.5q39 0 62 -23t23 -58q0 -41 -28 -69.5t-69 -28.5q-39 0 -62 23t-23 58zM304 830q0 22 -13.5 35t-35.5 13q-28 0 -43.5 -19t-15.5 -45q0 -22 13.5 -35.5t35.5 -13.5q28 0 43.5 19t15.5 46z" />
    <glyph glyph-name="hungarumlaut.cap" 
d="M317 898h115l-1 -6l-170 -143h-27zM165 898h116l-1 -6l-170 -143h-27z" />
    <glyph glyph-name="caron.cap" 
d="M173 749l-75 158h31l97 -89l140 89h36l-148 -158h-81z" />
    <glyph glyph-name="caron.Slovak" 
d="M333 777l-150 -199h-18l63 205h106z" />
    <glyph glyph-name="commaturn" 
d="M279 709q19 -5 27 -16t8 -25q0 -29 -20.5 -46.5t-52.5 -17.5t-50 18t-18 50q0 49 38 83t116 34l-4 -25q-40 0 -65.5 -17t-29.5 -38h51z" />
    <glyph glyph-name="cedilla.alt" 
d="M221 -46h22q48 -2 75 -19t27 -52q0 -27 -13.5 -46.5t-38.5 -33t-59 -20t-74 -6.5l-6 28q58 0 91 15.5t33 38.5q0 21 -22 29.5t-64 10.5z" />
    <glyph glyph-name="idotaccent" horiz-adv-x="289" 
d="M225 608q-28 0 -46.5 18.5t-18.5 44.5q0 29 20 50t50 21q28 0 47 -18.5t19 -44.5q0 -29 -20.5 -50t-50.5 -21zM119 443l-59 33l4 15l173 43h15l-103 -412q-4 -14 -6.5 -25.5t-2.5 -17.5q0 -15 14 -15q15 0 34.5 17t53.5 57l17 -13q-24 -35 -44.5 -60.5t-39 -42t-37 -24.5
t-38.5 -8q-33 0 -50.5 20.5t-17.5 53.5q0 18 2.5 37t10.5 48z" />
    </font>
</defs>
</svg>
