<?xml version="1.0" encoding="utf-8"?>
<!-- Generator: Adobe Illustrator 19.1.0, SVG Export Plug-In . SVG Version: 6.00 Build 0)  -->
<svg version="1.1" id="Layer_1" xmlns="http://www.w3.org/2000/svg" xmlns:xlink="http://www.w3.org/1999/xlink" x="0px" y="0px"
	 viewBox="493.5 321.3 1262.2 125.2" style="enable-background:new 493.5 321.3 1262.2 125.2;" xml:space="preserve">
<g>
	<path fill="#E7E6E0" d="M545.6,320.4h32.8L630.6,444h-36.5l-8.8-22.1h-47.5L529,444h-35.5L545.6,320.4z M575.4,395.4l-13.7-34.7
		l-13.8,34.7H575.4z"/>
	<path fill="#E7E6E0" d="M636.2,390.2v-68.9h34.4v68.2c0,17.7,8.9,26.1,22.6,26.1c13.8,0,22.8-8.1,22.8-25.2v-69.1h34.4v68
		c0,39.4-22.6,57-57.5,57C658.2,446.3,636.2,428.6,636.2,390.2z"/>
	<path fill="#E7E6E0" d="M756.8,425.4l21.9-20.7c6,7.2,11.6,11.4,19.3,11.4c8.4,0,13.8-5.8,13.8-17.2v-77.7h33.8V399
		c0,15.4-3.9,26.3-12.1,34.5c-8.1,8.1-19.6,12.4-33.7,12.4C778.6,446.1,765.6,437.1,756.8,425.4z"/>
	<path fill="#E7E6E0" d="M861.9,383v-0.4c0-35.2,28.4-63.8,66.3-63.8S994,347,994,382.3v0.4c0,35.2-28.4,63.8-66.3,63.8
		S861.9,418.2,861.9,383z M959.1,383v-0.4c0-17.9-12.6-33.1-31.4-33.1s-31.2,15.1-31.2,32.8v0.4c0,17.7,12.8,33.1,31.6,33.1
		C946.7,415.8,959.1,400.7,959.1,383z"/>
	<path fill="#E7E6E0" d="M1010.2,390.2v-68.9h34.4v68.2c0,17.7,8.9,26.1,22.6,26.1c13.8,0,22.8-8.1,22.8-25.2v-69.1h34.4v68
		c0,39.4-22.6,57-57.5,57C1032.1,446.3,1010.2,428.6,1010.2,390.2z"/>
	<path fill="#E7E6E0" d="M1144.4,321.3h58c18.8,0,31.7,4.9,40,13.1c7.2,7.2,10.9,16.5,10.9,28.6v0.4c0,18.9-10,31.4-25.2,37.9
		l29.3,42.8h-39.1l-24.7-37.2h-15.1V444h-34L1144.4,321.3L1144.4,321.3z M1201.1,380.2c11.4,0,18.2-5.6,18.2-14.5v-0.4
		c0-9.8-7.2-14.7-18.4-14.7h-22.4v29.6L1201.1,380.2L1201.1,380.2z"/>
	<path fill="#E7E6E0" d="M1270.5,321.3h47.5c43.6,0,69.1,25.2,69.1,60.7v0.4c0,35.4-25.8,61.7-69.8,61.7h-46.8V321.3z M1304.5,351.2
		v62.6h13.8c20.5,0,34-11.2,34-31v-0.3c0-19.6-13.5-31.2-34-31.2h-13.8V351.2z"/>
	<path fill="#E7E6E0" d="M1398.1,371.9c11.7-1.4,17.9-7,17.5-16.5h-13.5v-34.2h34.5v27.9c0,25.9-14,34.9-35.9,35.6L1398.1,371.9z"/>
	<path fill="#E7E6E0" d="M1454.5,321.3h34v45.9h43.6v-45.9h34V444h-34v-46.6h-43.6V444h-34V321.3z"/>
	<path fill="#E7E6E0" d="M1586.5,390.2v-68.9h34.4v68.2c0,17.7,8.9,26.1,22.6,26.1c13.8,0,22.8-8.1,22.8-25.2v-69.1h34.4v68
		c0,39.4-22.6,57-57.5,57C1608.4,446.3,1586.5,428.6,1586.5,390.2z"/>
	<path fill="#E7E6E0" d="M1721.7,321.3h34V444h-34V321.3z"/>
</g>
</svg>
