<?xml version="1.0" encoding="utf-8"?>
<!-- Generator: Adobe Illustrator 19.1.0, SVG Export Plug-In . SVG Version: 6.00 Build 0)  -->
<svg version="1.1" id="Layer_1" xmlns="http://www.w3.org/2000/svg" xmlns:xlink="http://www.w3.org/1999/xlink" x="0px" y="0px"
	 viewBox="452.1 253.3 1240.1 281.2" style="enable-background:new 452.1 253.3 1240.1 281.2;" xml:space="preserve">
<g>
	<path d="M456.7,320h108.1c26.5,0,45.2,6.6,57.5,18.7c8.4,8.7,13.6,19.9,13.6,34.3v0.6c0,24.4-13.9,38.8-32.5,47
		c25.6,8.4,41.9,22.9,41.9,51.5v0.6c0,36.1-29.5,58.1-79.8,58.1H456.7V320z M578.3,385.1c0-11.7-9.3-18.1-26.5-18.1h-38.2v37h36.7
		c17.8,0,28-6,28-18.4V385.1z M558.1,445h-44.6v38.8h45.2c18.1,0,28-6.9,28-19.3v-0.6C586.7,452.5,577.7,445,558.1,445z"/>
	<path d="M672,320h99.7c32.2,0,54.5,8.4,68.7,22.6c12.3,12.3,18.7,28.3,18.7,49.1v0.6c0,32.5-17.2,53.9-43.4,65
		l50.3,73.5h-67.2L756.3,467h-25.9v63.8H672V320z M769.2,421.2c19.6,0,31.3-9.6,31.3-25v-0.6c0-16.9-12.3-25.3-31.6-25.3h-38.5v50.9
		H769.2z"/>
	<path d="M888.5,320H1058v49.4H946.3v32.2h101.2v46.1H946.3v33.4h113.2v49.7h-171V320z M953.8,305.6l-44.6-32.2
		l54.5-16.6l32.8,48.8L953.8,305.6L953.8,305.6z"/>
	<path d="M1073.1,320h65l47.9,133.5l48.2-133.4h63.8l-85.5,212.2h-54.2L1073.1,320z"/>
	<path d="M1318.5,320H1488v49.4h-111.7v32.2h101.2v46.1h-101.2v33.4h113.2v49.7h-171V320z"/>
	<path d="M1503.7,499.5l32.5-38.8c21.1,16.6,44,25.3,68.4,25.3c16,0,24.4-5.4,24.4-14.5v-0.6c0-9-6.9-13.6-35.8-20.5
		c-44.9-10.2-79.5-22.9-79.5-65.9v-0.6c0-39.1,31-67.5,81.6-67.5c35.8,0,63.8,9.6,86.7,28l-29.2,41.3c-19.3-13.9-40.4-20.8-59-20.8
		c-14.2,0-21.1,5.7-21.1,13.6v0.6c0,9.6,7.2,13.9,36.7,20.5c48.2,10.5,78.3,26.2,78.3,65.6v0.6c0,43.1-34,68.7-85.2,68.7
		C1565.1,534.5,1529.9,522.7,1503.7,499.5z"/>
</g>
</svg>
