<?xml version="1.0" encoding="utf-8"?>
<!-- Generator: Adobe Illustrator 19.1.0, SVG Export Plug-In . SVG Version: 6.00 Build 0)  -->
<svg version="1.1" id="Layer_1" xmlns="http://www.w3.org/2000/svg" xmlns:xlink="http://www.w3.org/1999/xlink" x="0px" y="0px"
	 viewBox="0 0 39.6 47" style="enable-background:new 0 0 39.6 47;" xml:space="preserve">
<g>
	<path d="M39.6,4.3h-4.7c-0.8,0-1.4,0.6-1.4,1.4s0.6,1.4,1.4,1.4h3.3v10.9H2.9V7.2h3.3c0.8,0,1.4-0.6,1.4-1.4S6.9,4.3,6.1,4.3H1.4
		C0.6,4.3,0,5,0,5.8v39.8C0,46.4,0.6,47,1.4,47h38.1c0.8,0,1.4-0.6,1.4-1.4V5.8C41,5,40.4,4.3,39.6,4.3z M38.1,44.2H2.9V21h35.3
		V44.2z"/>
	<path d="M12.5,11.8c1.5,0,2.7-1.2,2.7-2.7V2.7c0-1.5-1.2-2.7-2.7-2.7S9.7,1.2,9.7,2.7v6.4C9.7,10.6,11,11.8,12.5,11.8z"/>
	<path d="M28.6,11.8c1.5,0,2.7-1.2,2.7-2.7V2.7c0-1.5-1.2-2.7-2.7-2.7c-1.5,0-2.7,1.2-2.7,2.7v6.4C25.9,10.6,27.1,11.8,28.6,11.8z"
		/>
	<path d="M18.9,7.3h3.4c0.8,0,1.5-0.7,1.5-1.5s-0.7-1.5-1.5-1.5h-3.4c-0.8,0-1.5,0.7-1.5,1.5S18.1,7.3,18.9,7.3z"/>
</g>
</svg>
