<?xml version="1.0" encoding="utf-8"?>
<!-- Generator: Adobe Illustrator 19.1.0, SVG Export Plug-In . SVG Version: 6.00 Build 0)  -->
<svg version="1.1" xmlns="http://www.w3.org/2000/svg" xmlns:xlink="http://www.w3.org/1999/xlink" x="0px" y="0px"
	 viewBox="0 0 448.4 448.1" style="enable-background:new 0 0 448.4 448.1;" xml:space="preserve">
<style type="text/css">
	.st0{fill:#FFFFFF;}
	.st1{fill:#222222;}
	.st2{fill:#ED2224;}
</style>
<g id="Layer_2">
	<circle class="st0" cx="224.2" cy="223.8" r="213.7"/>
</g>
<g id="Layer_1">
	<g>
		<rect x="220.3" y="23.8" class="st1" width="6.8" height="14.7"/>
	</g>
	<g>
		<rect x="120.4" y="53.3" transform="matrix(0.5 0.866 -0.866 0.5 112.942 -82.2524)" class="st1" width="14.7" height="6.8"/>
	</g>
	<g>
		
			<rect x="50.3" y="123.6" transform="matrix(-0.8659 -0.5002 0.5002 -0.8659 44.0826 265.7723)" class="st1" width="14.7" height="6.8"/>
	</g>
	<g>
		<rect x="24.5" y="219.6" class="st1" width="14.7" height="6.8"/>
	</g>
	<g>
		<rect x="50.4" y="315.5" transform="matrix(-0.866 0.5 -0.5 -0.866 267.2561 566.1595)" class="st1" width="14.7" height="6.8"/>
	</g>
	<g>
		
			<rect x="124.4" y="381.8" transform="matrix(0.8654 0.5011 -0.5011 0.8654 212.2163 -11.6573)" class="st1" width="6.8" height="14.7"/>
	</g>
	<g>
		<rect x="220.3" y="407.6" class="st1" width="6.8" height="14.7"/>
	</g>
	<g>
		<rect x="312.2" y="385.6" transform="matrix(0.5 0.866 -0.866 0.5 496.6771 -82.2627)" class="st1" width="14.7" height="6.8"/>
	</g>
	<g>
		<rect x="382.5" y="315.3" transform="matrix(0.866 0.5 -0.5 0.866 211.5865 -152.1812)" class="st1" width="14.7" height="6.8"/>
	</g>
	<g>
		<rect x="408.3" y="219.6" class="st1" width="14.7" height="6.8"/>
	</g>
	<g>
		<rect x="382.4" y="123.8" transform="matrix(0.866 -0.5 0.5 0.866 -11.4063 211.8805)" class="st1" width="14.7" height="6.8"/>
	</g>
	<g>
		
			<rect x="316.4" y="49.7" transform="matrix(-0.8658 -0.5005 0.5005 -0.8658 568.1602 266.4354)" class="st1" width="6.8" height="14.7"/>
	</g>
	<g>
		<circle class="st1" cx="203.3" cy="28.3" r="3.4"/>
	</g>
	<g>
		<circle class="st1" cx="183" cy="31.5" r="3.4"/>
	</g>
	<g>
		<circle class="st1" cx="163.2" cy="36.8" r="3.4"/>
	</g>
	<g>
		<circle class="st1" cx="144.1" cy="44.2" r="3.4"/>
	</g>
	<g>
		<circle class="st1" cx="108.7" cy="64.6" r="3.4"/>
	</g>
	<g>
		<circle class="st1" cx="92.7" cy="77.5" r="3.4"/>
	</g>
	<g>
		<circle class="st1" cx="78.2" cy="92" r="3.4"/>
	</g>
	<g>
		<circle class="st1" cx="65.4" cy="108" r="3.4"/>
	</g>
	<g>
		<circle class="st1" cx="44.9" cy="143.4" r="3.4"/>
	</g>
	<g>
		<circle class="st1" cx="37.5" cy="162.5" r="3.4"/>
	</g>
	<g>
		<circle class="st1" cx="32.2" cy="182.3" r="3.4"/>
	</g>
	<g>
		<circle class="st1" cx="29" cy="202.6" r="3.4"/>
	</g>
	<g>
		<circle class="st1" cx="29" cy="243.5" r="3.4"/>
	</g>
	<g>
		<circle class="st1" cx="32.2" cy="263.7" r="3.4"/>
	</g>
	<g>
		<circle class="st1" cx="37.5" cy="283.5" r="3.4"/>
	</g>
	<g>
		<circle class="st1" cx="44.9" cy="302.7" r="3.4"/>
	</g>
	<g>
		<circle class="st1" cx="65.3" cy="338.1" r="3.4"/>
	</g>
	<g>
		<circle class="st1" cx="78.2" cy="354" r="3.4"/>
	</g>
	<g>
		<circle class="st1" cx="92.7" cy="368.5" r="3.4"/>
	</g>
	<g>
		<circle class="st1" cx="108.7" cy="381.4" r="3.4"/>
	</g>
	<g>
		<circle class="st1" cx="144.1" cy="401.9" r="3.4"/>
	</g>
	<g>
		<circle class="st1" cx="163.2" cy="409.2" r="3.4"/>
	</g>
	<g>
		<circle class="st1" cx="183" cy="414.5" r="3.4"/>
	</g>
	<g>
		<circle class="st1" cx="203.3" cy="417.8" r="3.4"/>
	</g>
	<g>
		<circle class="st1" cx="244.2" cy="417.8" r="3.4"/>
	</g>
	<g>
		<circle class="st1" cx="264.4" cy="414.5" r="3.4"/>
	</g>
	<g>
		<circle class="st1" cx="284.2" cy="409.2" r="3.4"/>
	</g>
	<g>
		<circle class="st1" cx="303.4" cy="401.9" r="3.4"/>
	</g>
	<g>
		<circle class="st1" cx="338.8" cy="381.4" r="3.4"/>
	</g>
	<g>
		<circle class="st1" cx="354.7" cy="368.5" r="3.4"/>
	</g>
	<g>
		<circle class="st1" cx="369.2" cy="354" r="3.4"/>
	</g>
	<g>
		<circle class="st1" cx="382.1" cy="338.1" r="3.4"/>
	</g>
	<g>
		<circle class="st1" cx="402.6" cy="302.7" r="3.4"/>
	</g>
	<g>
		<circle class="st1" cx="410" cy="283.5" r="3.4"/>
	</g>
	<g>
		<circle class="st1" cx="415.3" cy="263.7" r="3.4"/>
	</g>
	<g>
		<circle class="st1" cx="418.5" cy="243.5" r="3.4"/>
	</g>
	<g>
		<circle class="st1" cx="418.5" cy="202.6" r="3.4"/>
	</g>
	<g>
		<circle class="st1" cx="415.3" cy="182.3" r="3.4"/>
	</g>
	<g>
		<circle class="st1" cx="410" cy="162.5" r="3.4"/>
	</g>
	<g>
		<circle class="st1" cx="402.6" cy="143.4" r="3.4"/>
	</g>
	<g>
		<circle class="st1" cx="382.1" cy="108" r="3.4"/>
	</g>
	<g>
		<circle class="st1" cx="369.2" cy="92" r="3.4"/>
	</g>
	<g>
		<circle class="st1" cx="354.8" cy="77.5" r="3.4"/>
	</g>
	<g>
		<circle class="st1" cx="338.8" cy="64.6" r="3.4"/>
	</g>
	<g>
		<circle class="st1" cx="303.4" cy="44.2" r="3.4"/>
	</g>
	<g>
		<circle class="st1" cx="284.3" cy="36.8" r="3.4"/>
	</g>
	<g>
		<circle class="st1" cx="264.5" cy="31.5" r="3.4"/>
	</g>
	<g>
		<circle class="st1" cx="244.2" cy="28.3" r="3.4"/>
	</g>
	<g>
		<path class="st1" d="M216.7,87.5h-3.2V67.3c-0.8,0.7-1.8,1.5-3,2.2c-1.2,0.7-2.4,1.3-3.3,1.6v-3.1c1.8-0.8,3.3-1.8,4.7-3
			c1.3-1.2,2.3-2.3,2.8-3.5h2V87.5z"/>
		<path class="st1" d="M241.5,84.5v3h-17.1c0-0.8,0.1-1.5,0.4-2.2c0.4-1.2,1.1-2.3,2.1-3.4c1-1.1,2.3-2.4,4.2-3.9
			c2.8-2.3,4.7-4.1,5.7-5.5s1.5-2.6,1.5-3.8c0-1.3-0.4-2.3-1.3-3.2c-0.9-0.9-2.1-1.3-3.5-1.3c-1.5,0-2.8,0.5-3.7,1.4
			s-1.4,2.2-1.4,3.8l-3.3-0.3c0.2-2.4,1.1-4.3,2.5-5.6c1.5-1.3,3.4-1.9,5.9-1.9c2.5,0,4.4,0.7,5.9,2.1c1.4,1.4,2.2,3.1,2.2,5.1
			c0,1-0.2,2.1-0.6,3s-1.1,2.1-2.1,3.2c-1,1.1-2.6,2.6-4.9,4.5c-1.9,1.6-3.1,2.7-3.7,3.3c-0.5,0.6-1,1.1-1.3,1.7H241.5z"/>
	</g>
	<g>
		<path class="st1" d="M373.2,231.9l3.2-0.4c0.4,1.8,1,3.1,1.9,3.9c0.9,0.8,1.9,1.2,3.2,1.2c1.5,0,2.8-0.5,3.8-1.6
			c1-1,1.5-2.3,1.5-3.8c0-1.5-0.5-2.7-1.4-3.6c-1-0.9-2.2-1.4-3.6-1.4c-0.6,0-1.3,0.1-2.2,0.4l0.4-2.8c0.2,0,0.4,0,0.5,0
			c1.4,0,2.6-0.4,3.6-1.1s1.6-1.8,1.6-3.3c0-1.2-0.4-2.1-1.2-2.9c-0.8-0.8-1.8-1.1-3.1-1.1c-1.2,0-2.3,0.4-3.1,1.2
			c-0.8,0.8-1.4,1.9-1.6,3.5l-3.2-0.6c0.4-2.1,1.3-3.8,2.6-4.9c1.4-1.2,3.1-1.8,5.1-1.8c1.4,0,2.7,0.3,3.9,0.9
			c1.2,0.6,2.1,1.4,2.7,2.5c0.6,1,0.9,2.2,0.9,3.3c0,1.1-0.3,2.1-0.9,3c-0.6,0.9-1.5,1.6-2.7,2.2c1.5,0.4,2.7,1.1,3.6,2.2
			c0.8,1.1,1.3,2.5,1.3,4.2c0,2.3-0.8,4.2-2.5,5.7c-1.6,1.6-3.7,2.4-6.2,2.4c-2.3,0-4.2-0.7-5.7-2S373.4,234,373.2,231.9z"/>
	</g>
	<g>
		<path class="st1" d="M231.8,367.5l-3.2,0.2c-0.3-1.2-0.7-2.2-1.2-2.7c-0.9-0.9-1.9-1.4-3.2-1.4c-1,0-1.9,0.3-2.7,0.8
			c-1,0.7-1.8,1.8-2.4,3.2c-0.6,1.4-0.9,3.4-0.9,6c0.8-1.2,1.7-2,2.8-2.6c1.1-0.6,2.3-0.8,3.5-0.8c2.1,0,3.9,0.8,5.4,2.3
			c1.5,1.6,2.2,3.6,2.2,6c0,1.6-0.4,3.1-1,4.5c-0.7,1.4-1.7,2.5-2.9,3.2c-1.2,0.7-2.6,1.1-4.2,1.1c-2.6,0-4.8-1-6.5-2.9
			s-2.5-5.2-2.5-9.6c0-5,0.9-8.6,2.8-10.9c1.6-2,3.8-3,6.5-3c2,0,3.7,0.6,5,1.7C230.8,363.9,231.5,365.5,231.8,367.5z M218.8,378.7
			c0,1.1,0.2,2.1,0.7,3.1s1.1,1.8,1.9,2.3s1.7,0.8,2.6,0.8c1.3,0,2.5-0.5,3.5-1.6c1-1.1,1.4-2.5,1.4-4.4c0-1.8-0.5-3.2-1.4-4.2
			c-1-1-2.2-1.5-3.6-1.5c-1.4,0-2.7,0.5-3.6,1.5C219.3,375.7,218.8,377,218.8,378.7z"/>
	</g>
	<g>
		<path class="st1" d="M56.9,228.5l3-0.3c0.3,1.4,0.8,2.5,1.5,3.1s1.7,1,2.8,1c1,0,1.8-0.2,2.6-0.7c0.7-0.4,1.3-1,1.8-1.8
			c0.5-0.7,0.9-1.8,1.2-3s0.5-2.6,0.5-3.9c0-0.1,0-0.4,0-0.6c-0.6,1-1.5,1.8-2.6,2.5c-1.1,0.6-2.3,0.9-3.6,0.9
			c-2.1,0-3.9-0.8-5.4-2.3c-1.5-1.6-2.2-3.6-2.2-6.1c0-2.6,0.8-4.7,2.3-6.3c1.5-1.6,3.5-2.4,5.8-2.4c1.7,0,3.2,0.5,4.6,1.4
			s2.5,2.2,3.2,3.9c0.7,1.7,1.1,4.1,1.1,7.3c0,3.3-0.4,5.9-1.1,7.9c-0.7,2-1.8,3.4-3.2,4.5c-1.4,1-3.1,1.5-5,1.5c-2,0-3.7-0.6-5-1.7
			C57.9,232.1,57.1,230.5,56.9,228.5z M69.8,217.1c0-1.8-0.5-3.3-1.5-4.3c-1-1.1-2.1-1.6-3.5-1.6c-1.4,0-2.6,0.6-3.7,1.7
			c-1,1.2-1.6,2.6-1.6,4.5c0,1.6,0.5,3,1.5,4c1,1,2.2,1.5,3.7,1.5c1.5,0,2.7-0.5,3.6-1.5C69.4,220.3,69.8,218.9,69.8,217.1z"/>
	</g>
	<g>
		<circle class="st1" cx="224.9" cy="221" r="20.5"/>
	</g>
	<g>
		<path class="st1" d="M224.9,228c-2.3,0-4.5-1.2-5.7-3.3c-1.7-3.1-0.6-7.1,2.5-8.8l135.9-75.6c3.1-1.7,7.1-0.6,8.8,2.5
			s0.6,7.1-2.5,8.8l-135.9,75.6C227.1,227.8,226,228,224.9,228z"/>
	</g>
	<g>
		<path class="st1" d="M227.2,229.5c-1.4,0-2.8-0.3-4.1-1.1l-92.8-51.4c-4.1-2.3-5.6-7.4-3.3-11.6c2.3-4.1,7.4-5.6,11.6-3.3
			l92.8,51.4c4.1,2.3,5.6,7.4,3.3,11.6C233.1,227.9,230.2,229.5,227.2,229.5z"/>
	</g>
	<g>
		<path class="st2" d="M214,260.1c-0.2,0-0.5,0-0.7-0.1c-1.3-0.4-2.1-1.8-1.6-3.1l64.6-208.7c0.4-1.3,1.8-2.1,3.1-1.6
			c1.3,0.4,2.1,1.8,1.6,3.1l-64.6,208.7C216.1,259.4,215.1,260.1,214,260.1z"/>
	</g>
	<g>
		<circle class="st0" cx="224.9" cy="221.5" r="5.4"/>
	</g>
</g>
</svg>
