<?xml version="1.0" encoding="utf-8"?>
<!-- Generator: Adobe Illustrator 19.1.0, SVG Export Plug-In . SVG Version: 6.00 Build 0)  -->
<svg version="1.1" id="Layer_1" xmlns="http://www.w3.org/2000/svg" xmlns:xlink="http://www.w3.org/1999/xlink" x="0px" y="0px"
	 viewBox="502.3 250.1 1265.1 296" style="enable-background:new 502.3 250.1 1265.1 296;" xml:space="preserve">
<g>
	<path fill="#E7E6E0" d="M502.3,250.1h114.6c105.3,0,166.6,60.9,166.6,146.3v0.8c0,85.4-62.2,148.8-168.3,148.8H502.3V250.1z
		 M584.3,322.4v150.9h33.4c49.5,0,82-27.1,82-74.8v-0.8c0-47.4-32.6-75.3-82-75.3H584.3L584.3,322.4z"/>
	<path fill="#E7E6E0" d="M907.4,248h79.1l126,298.1h-87.9l-21.1-53.3H888.8L867.6,546h-85.8L907.4,248z M979.3,428.9l-33-83.7
		l-33.4,83.7H979.3z"/>
	<path fill="#E7E6E0" d="M1143.3,250.1h82v296h-82V250.1z"/>
	<path fill="#E7E6E0" d="M1279.4,250.1h82v224.1h143.3V546h-225.3V250.1z"/>
	<path fill="#E7E6E0" d="M1571.2,435.3l-112.9-185.2h93.4l60.9,107.8l61.3-107.8h91.7L1653.2,434v112h-82V435.3z"/>
</g>
</svg>
