<?xml version="1.0" encoding="utf-8"?>
<!-- Generator: Adobe Illustrator 18.1.1, SVG Export Plug-In . SVG Version: 6.00 Build 0)  -->
<!DOCTYPE svg PUBLIC "-//W3C//DTD SVG 1.1//EN" "http://www.w3.org/Graphics/SVG/1.1/DTD/svg11.dtd">
<svg version="1.1" id="Layer_1" xmlns="http://www.w3.org/2000/svg" xmlns:xlink="http://www.w3.org/1999/xlink" x="0px" y="0px"
	 viewBox="0 238 841.9 95.3" enable-background="new 0 238 841.9 95.3" xml:space="preserve">
<g>
	<path fill="#E7E6E0" d="M42,262.4h56.6v16.5H61.3v10.7h33.7V305H61.3v11.2h37.8v16.6H42L42,262.4L42,262.4z"/>
	<path fill="#E7E6E0" d="M109.2,262.4h27.2c25,0,39.6,14.5,39.6,34.8v0.2c0,20.3-14.8,35.4-40,35.4h-26.8L109.2,262.4L109.2,262.4z
		 M128.6,279.6v35.8h7.9c11.8,0,19.5-6.4,19.5-17.8v-0.2c0-11.2-7.7-17.9-19.5-17.9L128.6,279.6L128.6,279.6z"/>
	<path fill="#E7E6E0" d="M186.6,262.4h19.5v70.4h-19.5V262.4z"/>
	<path fill="#E7E6E0" d="M236.2,279.5h-21v-17.1h61.6v17.1h-21.1v53.3h-19.5V279.5z"/>
	<path fill="#E7E6E0" d="M279.9,297.8v-0.2c0-20.2,16.3-36.6,38-36.6c21.7,0,37.8,16.2,37.8,36.4v0.2c0,20.2-16.3,36.6-38,36.6
		C296,334.2,279.9,318,279.9,297.8z M335.7,297.8v-0.2c0-10.3-7.2-19-18-19c-10.7,0-17.9,8.6-17.9,18.8v0.2c0,10.1,7.3,19,18.1,19
		C328.6,316.6,335.7,308,335.7,297.8z"/>
	<path fill="#E7E6E0" d="M365.8,262.4H399c10.7,0,18.2,2.8,22.9,7.6c4.1,4.1,6.2,9.4,6.2,16.4v0.2c0,10.9-5.7,18-14.5,21.7
		l16.8,24.5h-22.4l-14.2-21.3h-8.6v21.4h-19.5V262.4z M398.2,296.2c6.5,0,10.4-3.2,10.4-8.3v-0.2c0-5.6-4.1-8.5-10.6-8.5h-12.9v17
		H398.2z"/>
	<path fill="#E7E6E0" d="M434.2,291.5c6.7-0.8,10.3-4,10-9.4h-7.7v-19.6h19.8v16c0,14.9-8,20-20.6,20.4L434.2,291.5z"/>
	<path fill="#E7E6E0" d="M461.2,322.3l10.9-13c7,5.5,14.7,8.5,22.8,8.5c5.3,0,8.2-1.8,8.2-4.8v-0.2c0-3-2.3-4.5-11.9-6.8
		c-15-3.4-26.5-7.6-26.5-22v-0.2c0-13.1,10.3-22.5,27.3-22.5c11.9,0,21.3,3.2,28.9,9.4l-9.7,13.8c-6.4-4.6-13.5-6.9-19.7-6.9
		c-4.7,0-7,1.9-7,4.5v0.2c0,3.2,2.4,4.6,12.2,6.8c16.1,3.5,26.1,8.8,26.1,21.9v0.2c0,14.4-11.3,22.9-28.5,22.9
		C481.8,334,470,330.1,461.2,322.3z"/>
	<path fill="#E7E6E0" d="M559.9,262.4h30.3c17.7,0,29.1,9.1,29.1,24.6v0.2c0,16.7-12.8,25.4-30.1,25.4h-9.7v20.2h-19.5V262.4z
		 M588.8,297.4c6.8,0,11.2-3.7,11.2-9.2V288c0-6-4.3-9.1-11.2-9.1h-9.2v18.6L588.8,297.4L588.8,297.4z"/>
	<path fill="#E7E6E0" d="M628.1,262.4h19.5v70.4h-19.5V262.4z"/>
	<path fill="#E7E6E0" d="M658.1,297.8v-0.2c0-20.5,15.7-36.6,37-36.6c14.4,0,23.6,6,29.8,14.6L710.3,287c-4-4.9-8.6-8.2-15.4-8.2
		c-9.8,0-16.8,8.5-16.8,18.7v0.2c0,10.6,6.9,18.8,16.8,18.8c7.3,0,11.6-3.4,15.9-8.5l14.7,10.4c-6.6,9.1-15.6,15.9-31,15.9
		C674.3,334.1,658.1,318.8,658.1,297.8z"/>
	<path fill="#E7E6E0" d="M733.9,262.4h19.5v28.5l24.3-28.5h23l-26.6,30.1l27.6,40.2h-23.4l-17.8-26.1l-7.1,7.9v18.3h-19.5V262.4z"/>
</g>
</svg>
