<?xml version="1.0" encoding="utf-8"?>
<!-- Generator: Adobe Illustrator 19.1.0, SVG Export Plug-In . SVG Version: 6.00 Build 0)  -->
<svg version="1.1" id="facebook" xmlns="http://www.w3.org/2000/svg" xmlns:xlink="http://www.w3.org/1999/xlink" x="0px" y="0px"
	 viewBox="0 0 48.9 90.4" style="enable-background:new 0 0 48.9 90.4;" xml:space="preserve">
<g>
	<path d="M47,0L35.3,0C22.1,0,13.6,8.7,13.6,22.3v10.3H1.8c-1,0-1.8,0.8-1.8,1.8v14.9c0,1,0.8,1.8,1.8,1.8h11.8v37.5
		c0,1,0.8,1.8,1.8,1.8h15.4c1,0,1.8-0.8,1.8-1.8V51.1h13.8c1,0,1.8-0.8,1.8-1.8l0-14.9c0-0.5-0.2-1-0.5-1.3
		c-0.3-0.3-0.8-0.5-1.3-0.5H32.7v-8.7c0-4.2,1-6.3,6.4-6.3l7.9,0c1,0,1.8-0.8,1.8-1.8V1.9C48.9,0.8,48.1,0,47,0z"/>
</g>
</svg>
