<?xml version="1.0" encoding="utf-8"?>
<!-- Generator: Adobe Illustrator 19.1.0, SVG Export Plug-In . SVG Version: 6.00 Build 0)  -->
<svg version="1.1" id="gallery" xmlns="http://www.w3.org/2000/svg" xmlns:xlink="http://www.w3.org/1999/xlink" x="0px" y="0px"
	 viewBox="0 0 55.9 46.5" style="enable-background:new 0 0 55.9 46.5;" xml:space="preserve">
<g>
	<path d="M35,34.8c-0.3,0-0.6,0.3-0.6,0.6v10H0.6V21.5h20.2c0.3,0,0.6-0.3,0.6-0.6s-0.3-0.6-0.6-0.6H0
		c-0.3,0-0.6,0.3-0.6,0.6v25c0,0.3,0.3,0.6,0.6,0.6h35c0.3,0,0.6-0.3,0.6-0.6V35.4C35.6,35.1,35.4,34.8,35,34.8z"/>
	<circle cx="21" cy="29.2" r="2.3"/>
	<path d="M14.4,28.3c-0.1-0.2-0.5-0.2-0.6,0l-10.5,14c-0.1,0.1-0.2,0.2-0.2,0.4c0,0.2,0.2,0.3,0.4,0.3h28
		c0.1,0,0.3-0.1,0.3-0.2c0.1-0.1,0-0.3,0-0.4l-6.7-8.1c-0.1-0.1-0.2-0.1-0.3-0.1c-0.1,0-0.2,0-0.3,0.1l-3.1,3.4L14.4,28.3z"/>
	<circle cx="39.9" cy="15.9" r="15.9"/>
</g>
</svg>
