<?xml version="1.0" encoding="utf-8"?>
<!-- Generator: Adobe Illustrator 19.2.0, SVG Export Plug-In . SVG Version: 6.00 Build 0)  -->
<svg version="1.1" id="Layer_1" xmlns="http://www.w3.org/2000/svg" xmlns:xlink="http://www.w3.org/1999/xlink" x="0px" y="0px"
	 viewBox="0 0 51 43.5" style="enable-background:new 0 0 51 43.5;" xml:space="preserve">
<g>
	<path d="M17.1,20c0,1.8,0,3.5,0,5.3c2.9,0.1,5.9,0.1,8.8,0.1c-1.3,6.5-10.2,8.6-14.8,4.4C6.3,26,6.5,17.8,11.5,14.3
		c3.5-2.8,8.5-2.1,12,0.3c1.4-1.3,2.7-2.6,3.9-4c-2.9-2.3-6.5-4-10.3-3.8C9.2,6.5,1.9,13.5,1.8,21.4c-0.5,6.5,3.8,12.9,9.8,15.2
		c6,2.3,13.7,0.7,17.5-4.7c2.5-3.4,3.1-7.8,2.8-11.9C26.9,20,22,20,17.1,20z"/>
	<path d="M45.8,20c0-1.5,0-2.9,0-4.4c-1.5,0-2.9,0-4.4,0c0,1.5,0,2.9,0,4.4c-1.5,0-2.9,0-4.4,0c0,1.5,0,2.9,0,4.4
		c1.5,0,2.9,0,4.4,0c0,1.5,0,2.9,0,4.4c1.5,0,2.9,0,4.4,0c0-1.5,0-2.9,0-4.4c1.5,0,2.9,0,4.4,0c0-1.5,0-2.9,0-4.4
		C48.8,20,47.3,20,45.8,20z"/>
</g>
</svg>
