<?xml version="1.0" encoding="utf-8"?>
<!-- Generator: Adobe Illustrator 19.1.0, SVG Export Plug-In . SVG Version: 6.00 Build 0)  -->
<svg version="1.1" id="image" xmlns="http://www.w3.org/2000/svg" xmlns:xlink="http://www.w3.org/1999/xlink" x="0px" y="0px"
	 viewBox="0 0 36.2 26.1" style="enable-background:new 0 0 36.2 26.1;" xml:space="preserve">
<g>
	<path d="M35.6,0h-35C0.3,0,0,0.3,0,0.6v25c0,0.3,0.3,0.6,0.6,0.6h35c0.3,0,0.6-0.3,0.6-0.6v-25C36.2,0.3,35.9,0,35.6,0
		z M35,25H1.1V1.1H35V25z"/>
	<circle cx="21.5" cy="8.8" r="2.3"/>
	<path d="M4.1,22.7h28c0.1,0,0.3-0.1,0.3-0.2c0.1-0.1,0-0.3,0-0.4l-6.7-8.1c-0.1-0.1-0.2-0.1-0.3-0.1
		c-0.1,0-0.2,0-0.3,0.1L22,17.3l-7-9.4c-0.1-0.2-0.5-0.2-0.6,0L3.9,22c-0.1,0.1-0.2,0.2-0.2,0.4C3.8,22.5,3.9,22.7,4.1,22.7z"/>
</g>
</svg>
