<?xml version="1.0" encoding="utf-8"?>
<!-- Generator: Adobe Illustrator 19.1.0, SVG Export Plug-In . SVG Version: 6.00 Build 0)  -->
<svg version="1.1" id="instagram" xmlns="http://www.w3.org/2000/svg" xmlns:xlink="http://www.w3.org/1999/xlink" x="0px" y="0px"
	 viewBox="0 0 94.3 94.3" style="enable-background:new 0 0 94.3 94.3;" xml:space="preserve">
<g>
	<g id="post-instagram">
		<path d="M84.8,0H9.4C4.2,0,0,4.2,0,9.4v75.4c0,5.2,4.2,9.4,9.4,9.4h75.4c5.2,0,9.4-4.2,9.4-9.4V9.4C94.3,4.2,90,0,84.8,0z
			 M47.1,28.3c10.4,0,18.9,8.5,18.9,18.9S57.5,66,47.1,66s-18.9-8.5-18.9-18.9S36.8,28.3,47.1,28.3z M11.8,84.8
			c-1.4,0-2.4-0.9-2.4-2.4V42.4h9.9c-0.5,1.4-0.5,3.3-0.5,4.7c0,15.6,12.7,28.3,28.3,28.3s28.3-12.7,28.3-28.3c0-1.4,0-3.3-0.5-4.7
			h9.9v40.1c0,1.4-0.9,2.4-2.4,2.4H11.8z M84.8,21.2c0,1.4-0.9,2.4-2.4,2.4h-9.4c-1.4,0-2.4-0.9-2.4-2.4v-9.4c0-1.4,0.9-2.4,2.4-2.4
			h9.4c1.4,0,2.4,0.9,2.4,2.4V21.2z"/>
	</g>
</g>
</svg>
