<?xml version="1.0" encoding="utf-8"?>
<svg version="1.1" id="interview" xmlns="http://www.w3.org/2000/svg" xmlns:xlink="http://www.w3.org/1999/xlink" x="0px" y="0px"
	 viewBox="0 0 33.7 35.2" style="enable-background:new 0 0 33.7 35.2;" xml:space="preserve">
<g>
	<path d="M20.4,0h-20C0.2,0,0,0.2,0,0.4v16.5c0,0.2,0.2,0.4,0.4,0.4h4.3v5.6c0,0.1,0.1,0.3,0.2,0.3c0.1,0,0.1,0,0.2,0
		c0.1,0,0.2,0,0.2-0.1l6.9-5.9h8.2c0.2,0,0.4-0.2,0.4-0.4V0.4C20.8,0.2,20.6,0,20.4,0z M6.5,9.9c-0.8,0-1.4-0.6-1.4-1.4
		c0-0.8,0.6-1.4,1.4-1.4c0.8,0,1.4,0.6,1.4,1.4C7.9,9.3,7.3,9.9,6.5,9.9z M10.4,9.9C9.6,9.9,9,9.3,9,8.5c0-0.8,0.6-1.4,1.4-1.4
		c0.8,0,1.4,0.6,1.4,1.4C11.8,9.3,11.2,9.9,10.4,9.9z M14.2,9.9c-0.8,0-1.4-0.6-1.4-1.4c0-0.8,0.6-1.4,1.4-1.4
		c0.8,0,1.4,0.6,1.4,1.4C15.6,9.3,15,9.9,14.2,9.9z"/>
	<g>
		<path d="M33.2,11.6h-7.3c-0.3,0-0.6,0.3-0.6,0.6c0,0.3,0.3,0.6,0.6,0.6h6.8v15.4h-4.2c-0.3,0-0.6,0.3-0.6,0.6v4.7
			l-6.1-5.2c-0.1-0.1-0.2-0.1-0.4-0.1h-7.8v-5.3c0-0.3-0.3-0.6-0.6-0.6s-0.6,0.3-0.6,0.6v5.8c0,0.3,0.3,0.6,0.6,0.6h8.1l6.8,5.8
			c0.1,0.1,0.2,0.1,0.4,0.1c0.1,0,0.2,0,0.2-0.1c0.2-0.1,0.3-0.3,0.3-0.5v-5.4h4.2c0.3,0,0.6-0.3,0.6-0.6V12.2
			C33.7,11.9,33.5,11.6,33.2,11.6z"/>
		<circle cx="19.3" cy="21.1" r="1.4"/>
		<circle cx="23.2" cy="21.1" r="1.4"/>
		<circle cx="27" cy="21.1" r="1.4"/>
	</g>
</g>
</svg>
