<?xml version="1.0" encoding="utf-8"?>
<!-- Generator: Adobe Illustrator 19.1.0, SVG Export Plug-In . SVG Version: 6.00 Build 0)  -->
<svg version="1.1" id="Layer_1" xmlns="http://www.w3.org/2000/svg" xmlns:xlink="http://www.w3.org/1999/xlink" x="0px" y="0px"
	 viewBox="0 0 95.1 92.1" style="enable-background:new 0 0 95.1 92.1;" xml:space="preserve">
<g>
	<path id="LinkedIn" d="M95.1,56.5v35.6H74.5V58.8c0-8.3-3-14-10.5-14c-5.7,0-9.1,3.8-10.6,7.6c-0.5,1.3-0.7,3.2-0.7,5v34.7H32.1
		c0,0,0.3-56.3,0-62.1h20.7v8.8c0,0.1-0.1,0.1-0.1,0.2h0.1v-0.2c2.7-4.2,7.6-10.3,18.6-10.3C84.9,28.5,95.1,37.4,95.1,56.5z M10.5,0
		C3.4,0-1.2,4.6-1.2,10.7c0,6,4.5,10.7,11.4,10.7h0.1c7.2,0,11.7-4.8,11.7-10.7C21.9,4.6,17.5,0,10.5,0z M0,92.1h20.7V29.9H0V92.1z"
		/>
</g>
</svg>
