<?xml version="1.0" encoding="utf-8"?>
<!-- Generator: Adobe Illustrator 18.1.1, SVG Export Plug-In . SVG Version: 6.00 Build 0)  -->
<!DOCTYPE svg PUBLIC "-//W3C//DTD SVG 1.1//EN" "http://www.w3.org/Graphics/SVG/1.1/DTD/svg11.dtd">
<svg version="1.1" id="Layer_1" xmlns="http://www.w3.org/2000/svg" xmlns:xlink="http://www.w3.org/1999/xlink" x="0px" y="0px"
	 viewBox="0 120 1402 425" enable-background="new 0 120 1402 425" xml:space="preserve">
<g>
	<path fill="#E7E6E0" d="M323,161.6h39l62.1,79.7v-79.7h41.4v150.8H429l-64.6-82.7v82.7H323V161.6z"/>
	<path fill="#E7E6E0" d="M487.2,237.4V237c0-43.3,34.9-78.4,81.4-78.4s81,34.7,81,78v0.4c0,43.3-34.9,78.4-81.4,78.4
		S487.2,280.7,487.2,237.4z M606.7,237.4V237c0-22-15.5-40.7-38.6-40.7c-23.1,0-38.4,18.5-38.4,40.3v0.4c0,21.8,15.7,40.7,38.8,40.7
		C591.4,277.7,606.7,259.2,606.7,237.4z"/>
	<path fill="#E7E6E0" d="M701.5,198.2h-45v-36.6h132.1v36.6h-45.2v114.2h-41.8V198.2z"/>
	<path fill="#E7E6E0" d="M806.9,161.6h71.3c23.1,0,39,6,49.1,16.2c8.8,8.8,13.4,20.3,13.4,35.1v0.4c0,23.3-12.3,38.6-31,46.5
		l36,52.6h-48l-30.4-45.7h-18.5v45.7h-41.8V161.6z M876.5,234c14,0,22.4-6.9,22.4-17.9v-0.4c0-12.1-8.8-18.1-22.6-18.1h-27.6V234
		H876.5z"/>
	<path fill="#E7E6E0" d="M961.8,161.6h121.3v35.3h-79.9V220h72.4v33h-72.4v23.9h81v35.5H961.8V161.6z"/>
	<path fill="#E7E6E0" d="M63.7,502.9L87,475.1c15.1,11.9,31.5,18.1,48.9,18.1c11.4,0,17.5-3.9,17.5-10.3v-0.4c0-6.5-5-9.7-25.6-14.7
		c-32.1-7.3-56.9-16.4-56.9-47.2v-0.4c0-28,22.2-48.3,58.4-48.3c25.6,0,45.7,6.9,62.1,20l-20.9,29.5c-13.8-9.9-28.9-14.9-42.2-14.9
		c-10.1,0-15.1,4.1-15.1,9.7v0.4c0,6.9,5.2,9.9,26.3,14.7c34.5,7.5,56,18.7,56,47v0.4c0,30.8-24.3,49.1-61,49.1
		C107.7,527.9,82.5,519.5,63.7,502.9z"/>
	<path fill="#E7E6E0" d="M215.6,374.5h121.3v35.3H257v23.1h72.4v33H257v23.9h81v35.5H215.6V374.5z M283.9,329.3l39,11.9L291,364.2
		h-30.4L283.9,329.3z"/>
	<path fill="#E7E6E0" d="M359.5,374.5h41.8v114.2h73v36.6H359.5V374.5z"/>
	<path fill="#E7E6E0" d="M492.4,374.5h121.3v35.3h-79.9v23.1h72.4v33h-72.4v23.9h81v35.5H492.4V374.5z"/>
	<path fill="#E7E6E0" d="M630.3,450.4v-0.4c0-44,33.6-78.4,79.3-78.4c30.8,0,50.6,12.9,64,31.2l-31.5,24.3
		c-8.6-10.6-18.5-17.7-33-17.7c-21.1,0-36,18.1-36,40.1v0.4c0,22.6,14.9,40.3,36,40.3c15.7,0,25-7.3,34-18.3l31.5,22.4
		c-14.2,19.6-33.4,34-66.6,34C665,528.4,630.3,495.4,630.3,450.4z"/>
	<path fill="#E7E6E0" d="M829.6,411.2h-45v-36.6h132.1v36.6h-45.2v114.2h-41.8V411.2z"/>
	<path fill="#E7E6E0" d="M936.1,374.5h41.8v150.8h-41.8V374.5z"/>
	<path fill="#E7E6E0" d="M1000.5,450.4v-0.4c0-43.3,34.9-78.4,81.4-78.4s81,34.7,81,78v0.4c0,43.3-34.9,78.4-81.4,78.4
		S1000.5,493.7,1000.5,450.4z M1120.1,450.4v-0.4c0-22-15.5-40.7-38.6-40.7c-23.1,0-38.4,18.5-38.4,40.3v0.4
		c0,21.8,15.7,40.7,38.8,40.7C1104.8,490.7,1120.1,472.1,1120.1,450.4z"/>
	<path fill="#E7E6E0" d="M1184.5,374.5h39l62.1,79.7v-79.7h41.4v150.8h-36.4l-64.6-82.7v82.7h-41.4V374.5z"/>
</g>
</svg>
