<?xml version="1.0" encoding="utf-8"?>
<!-- Generator: Adobe Illustrator 19.1.0, SVG Export Plug-In . SVG Version: 6.00 Build 0)  -->
<svg version="1.1" id="pinterest" xmlns="http://www.w3.org/2000/svg" xmlns:xlink="http://www.w3.org/1999/xlink" x="0px" y="0px"
	 viewBox="0 0 72.2 92.8" style="enable-background:new 0 0 72.2 92.8;" xml:space="preserve">
<g>
	<path d="M29.7,61.3c-2.4,12.8-5.4,25-14.2,31.4c-2.7-19.3,4-33.8,7.1-49.2c-5.3-8.9,0.6-27,11.9-22.5c13.8,5.5-11.9,33.3,5.3,36.7
		c18,3.6,25.4-31.3,14.2-42.7C37.8-1.3,6.9,14.8,10.7,38.2c0.9,5.7,6.9,7.5,2.4,15.4C2.7,51.3-0.4,43.2,0,32.3
		C0.7,14.5,16,2,31.4,0.3c19.5-2.2,37.8,7.2,40.3,25.5c2.8,20.7-8.8,43.1-29.6,41.5C36.5,66.8,34.1,64,29.7,61.3z"/>
</g>
</svg>
