<?xml version="1.0" encoding="utf-8"?>
<!-- Generator: Adobe Illustrator 19.1.0, SVG Export Plug-In . SVG Version: 6.00 Build 0)  -->
<svg version="1.1" id="Layer_1" xmlns="http://www.w3.org/2000/svg" xmlns:xlink="http://www.w3.org/1999/xlink" x="0px" y="0px"
	 viewBox="259.5 941 430.5 430.5" style="enable-background:new 259.5 941 430.5 430.5;" xml:space="preserve">
<!-- <style type="text/css">
	.st0{fill:#222222;}
</style -->>
<g>
	<rect x="469.6" y="957.3"  width="6.8" height="14.7"/>
</g>
<g>
	<rect x="369.6" y="986.7" transform="matrix(0.5 0.866 -0.866 0.5 1045.9628 168.6358)" width="14.7" height="6.8"/>
</g>
<g>

		<rect x="299.6" y="1057" transform="matrix(-0.8659 -0.5002 0.5002 -0.8659 42.2441 2132.1372)" width="14.7" height="6.8"/>
</g>
<g>
	<rect x="273.8" y="1153.1" width="14.7" height="6.8"/>
</g>
<g>

		<rect x="299.7" y="1248.9" transform="matrix(-0.866 0.5 -0.5 -0.866 1199.0411 2183.365)" width="14.7" height="6.8"/>
</g>
<g>

		<rect x="373.6" y="1315.3" transform="matrix(0.8654 0.5011 -0.5011 0.8654 713.5035 -10.9055)" width="6.8" height="14.7"/>
</g>
<g>
	<rect x="469.6" y="1341" width="6.8" height="14.7"/>
</g>
<g>
	<rect x="561.5" y="1319" transform="matrix(0.5 0.866 -0.866 0.5 1429.6979 168.6254)" width="14.7" height="6.8"/>
</g>
<g>
	<rect x="631.7" y="1248.8" transform="matrix(0.866 0.5 -0.5 0.866 711.6586 -151.7569)" width="14.7" height="6.8"/>
</g>
<g>
	<rect x="657.5" y="1153.1" width="14.7" height="6.8"/>
</g>
<g>
	<rect x="631.6" y="1057.2" transform="matrix(0.866 -0.5 0.5 0.866 -444.7028 461.533)" width="14.7" height="6.8"/>
</g>
<g>

		<rect x="565.6" y="983.1" transform="matrix(-0.8658 -0.5005 0.5005 -0.8658 566.0328 2132.7227)" width="6.8" height="14.7"/>
</g>
<g>
	<circle cx="474.2" cy="1154.4" r="20.5"/>
</g>
</svg>
