<?xml version="1.0" encoding="utf-8"?>
<!-- Generator: Adobe Illustrator 19.1.0, SVG Export Plug-In . SVG Version: 6.00 Build 0)  -->
<svg version="1.1" id="search" xmlns="http://www.w3.org/2000/svg" xmlns:xlink="http://www.w3.org/1999/xlink" x="0px" y="0px"
	 viewBox="0 0 20.6 21.5" style="enable-background:new 0 0 20.6 21.5;" xml:space="preserve">
<path d="M20.6,19.4l-4.8-4.8c1.3-1.5,2-3.5,2-5.7c0-4.9-4-8.9-8.9-8.9C4,0,0,4,0,8.9s4,8.9,8.9,8.9c1.7,0,3.3-0.5,4.7-1.3l4.9,4.9
	L20.6,19.4z M3,8.9C3,5.7,5.7,3,8.9,3c3.3,0,5.9,2.7,5.9,5.9s-2.7,5.9-5.9,5.9C5.7,14.9,3,12.2,3,8.9z"/>
</svg>
