<?xml version="1.0" encoding="utf-8"?>
<!-- Generator: Adobe Illustrator 19.1.0, SVG Export Plug-In . SVG Version: 6.00 Build 0)  -->
<svg version="1.1" xmlns="http://www.w3.org/2000/svg" xmlns:xlink="http://www.w3.org/1999/xlink" x="0px" y="0px"
   viewBox="-678.5 -13.8 787.7 822.1" style="enable-background:new -678.5 -13.8 787.7 822.1;" xml:space="preserve">
  <defs>
    <path id="clipSearch" d="M77,702.7L-91.5,534.2c45.7-52.7,70.2-122.9,70.2-200.2c0-172.1-140.5-312.6-312.6-312.6
        S-646.4,161.9-646.4,334S-506,646.6-333.9,646.6c59.7,0,115.9-17.6,165.1-45.7L3.3,773L77,702.7z M-541.1,334
        c0-112.4,94.8-207.2,207.2-207.2c115.9,0,207.2,94.8,207.2,207.2s-94.8,207.2-207.2,207.2C-446.3,544.7-541.1,449.9-541.1,334z"
        />
  </defs>

  <clipPath id="svgClipPath">
    <use xlink:href="#clipSearch" />
  </clipPath>

  <g style="clip-path:url(#svgClipPath);">
    <image style="overflow:visible;" width="700" height="1137" xlink:href="/wp-content/themes/fhh/dist/images/bg-texture.jpg"  transform="matrix(1 0 0 1 -685 -171.5)">
  </image>
  </g>
</svg>
