<?xml version="1.0" encoding="utf-8"?>
<!-- Generator: Adobe Illustrator 19.1.0, SVG Export Plug-In . SVG Version: 6.00 Build 0)  -->
<svg version="1.1" id="short" xmlns="http://www.w3.org/2000/svg" xmlns:xlink="http://www.w3.org/1999/xlink" x="0px" y="0px"
	 viewBox="501.7 240.5 1259.7 255.4" style="enable-background:new 501.7 240.5 1259.7 255.4;" xml:space="preserve">
<g>
	<path d="M501.7,454.5l37.9-45.3c24.6,19.3,51.2,29.5,79.6,29.5c18.6,0,28.4-6.3,28.4-16.8v-0.7
		c0-10.5-8.1-15.8-41.7-23.9c-52.3-11.9-92.6-26.7-92.6-76.8v-0.7c0-45.6,36.1-78.6,95.1-78.6c41.7,0,74.4,11.2,101,32.6l-34,48.1
		c-22.5-16.1-47-24.2-68.8-24.2c-16.5,0-24.6,6.7-24.6,15.8v0.7c0,11.2,8.4,16.1,42.8,23.9c56.1,12.3,91.2,30.5,91.2,76.5v0.7
		c0,50.2-39.6,80-99.3,80C573.3,495.2,532.2,481.5,501.7,454.5z"/>
	<path d="M749,245.5h68.1v91.9h87.3v-91.9h68.1V491h-68.1v-93.3h-87.3V491H749V245.5z"/>
	<path d="M1007.9,368.9v-0.7c0-70.5,56.8-127.7,132.6-127.7c75.8,0,131.9,56.5,131.9,127v0.7
		c0,70.5-56.8,127.7-132.6,127.7S1007.9,439.4,1007.9,368.9z M1202.6,368.9v-0.7c0-35.8-25.3-66.3-62.8-66.3s-62.4,30.2-62.4,65.6
		v0.7c0,35.4,25.6,66.3,63.1,66.3C1177.7,434.5,1202.6,404.4,1202.6,368.9z"/>
	<path d="M1307.5,245.5h116.1c37.5,0,63.5,9.8,80,26.3c14.4,14.4,21.7,33,21.7,57.2v0.7c0,37.9-20,62.8-50.5,75.8
		l58.6,85.6h-78.2l-49.5-74.4h-30.2V491h-68.1L1307.5,245.5L1307.5,245.5z M1420.8,363.3c22.8,0,36.5-11.2,36.5-29.1v-0.7
		c0-19.6-14.4-29.5-36.8-29.5h-44.9v59.3H1420.8z"/>
	<path d="M1619.7,305.1h-73.3v-59.6h215v59.6h-73.7V491h-68.1L1619.7,305.1L1619.7,305.1z"/>
</g>
</svg>
