<svg version="1.1" id="bookmark" xmlns="http://www.w3.org/2000/svg" x="0" y="0" viewBox="0 0 248 188.5" xml:space="preserve"><path d="M239 0H9C4 0 0 4 0 9s4 9 9 9h46.5v162.4c0 .1 0 .2.1.4 0 .2 0 .3.1.5 0 .1.1.3.1.4 0 .1.1.3.1.4 0 .1.1.3.1.4.1.1.1.3.2.4.1.1.1.2.2.4.1.1.1.3.2.4.1.1.1.2.2.3.1.1.2.3.3.4.1.1.2.2.3.4.1.1.2.2.3.4.2.2.3.4.5.6l.1.1s.1 0 .1.1c.2.2.4.4.6.5.1.1.2.2.3.2.1.1.3.2.4.3.1.1.3.2.4.2.1.1.2.2.4.2.1.1.3.1.4.2.1.1.3.1.4.2.1.1.3.1.4.1.2.1.3.1.5.2.1 0 .2.1.4.1s.3.1.5.1c.1 0 .3 0 .4.1.2 0 .3.1.5.1H65.8c.2 0 .3 0 .5-.1.1 0 .3 0 .4-.1.2 0 .3-.1.5-.1.1 0 .2-.1.4-.1s.3-.1.5-.2c.1 0 .3-.1.4-.1.1-.1.3-.1.4-.2.1-.1.3-.1.4-.2.1-.1.3-.1.4-.2.1-.1.3-.1.4-.2.1-.1.3-.2.4-.3.1-.1.2-.2.3-.2.2-.2.4-.3.6-.5 0 0 .1 0 .1-.1l53.1-53.1 53.1 53.1.1.1c.2.2.4.4.6.5.1.1.2.2.3.2.1.1.2.2.4.3.1.1.3.2.4.2.1.1.2.1.4.2.1.1.3.1.4.2.1.1.3.1.4.2.1.1.3.1.4.1.1.1.3.1.4.2.1 0 .3.1.4.1.1 0 .3.1.4.1.2 0 .3 0 .5.1.1 0 .3 0 .4.1h1.8c.1 0 .3 0 .4-.1.2 0 .3 0 .5-.1.2 0 .3-.1.4-.1.1 0 .3-.1.4-.1.1 0 .3-.1.4-.2.1 0 .3-.1.4-.1.1-.1.3-.1.4-.2.1-.1.3-.1.4-.2.1-.1.2-.1.4-.2.1-.1.3-.2.4-.2.1-.1.3-.2.4-.3.1-.1.2-.2.3-.2.2-.2.4-.3.6-.5l.1-.1.1-.1c.2-.2.3-.4.5-.6.1-.1.2-.2.3-.4.1-.1.2-.2.3-.4.1-.1.2-.3.3-.4.1-.1.1-.2.2-.3.1-.1.1-.3.2-.4.1-.1.1-.2.2-.4.1-.1.1-.3.2-.4 0-.1.1-.3.1-.4 0-.1.1-.3.1-.4 0-.1.1-.3.1-.4 0-.2.1-.3.1-.5 0-.1 0-.2.1-.4V18H239c5 0 9-4 9-9s-4-9-9-9z"/><path fill="#fff" d="M70.8 17.7H123V107l-52.2 51.3z"/></svg>