<svg version="1.1" id="Layer_1" xmlns="http://www.w3.org/2000/svg" x="0" y="0" viewBox="0 0 39.6 47" xml:space="preserve"><path d="M39.6 4.3h-4.7c-.8 0-1.4.6-1.4 1.4s.6 1.4 1.4 1.4h3.3V18H2.9V7.2h3.3c.8 0 1.4-.6 1.4-1.4s-.7-1.5-1.5-1.5H1.4C.6 4.3 0 5 0 5.8v39.8c0 .8.6 1.4 1.4 1.4h38.1c.8 0 1.4-.6 1.4-1.4V5.8c.1-.8-.5-1.5-1.3-1.5zm-1.5 39.9H2.9V21h35.3v23.2z"/><path d="M12.5 11.8c1.5 0 2.7-1.2 2.7-2.7V2.7C15.2 1.2 14 0 12.5 0S9.7 1.2 9.7 2.7v6.4c0 1.5 1.3 2.7 2.8 2.7zM28.6 11.8c1.5 0 2.7-1.2 2.7-2.7V2.7c0-1.5-1.2-2.7-2.7-2.7-1.5 0-2.7 1.2-2.7 2.7v6.4c0 1.5 1.2 2.7 2.7 2.7zM18.9 7.3h3.4c.8 0 1.5-.7 1.5-1.5s-.7-1.5-1.5-1.5h-3.4c-.8 0-1.5.7-1.5 1.5s.7 1.5 1.5 1.5z"/></svg>