<svg version="1.1" xmlns="http://www.w3.org/2000/svg" x="0" y="0" viewBox="0 0 448.4 448.1" xml:space="preserve"><style type="text/css">.st0{fill:#fff}.st1{fill:#222}.st2{fill:#ed2224}</style><circle class="st0" cx="224.2" cy="223.8" r="213.7" id="Layer_2"/><g id="Layer_1"><path class="st1" d="M220.3 23.8h6.8v14.7h-6.8z"/><path transform="rotate(60 127.707 56.684)" class="st1" d="M120.4 53.3h14.7v6.8h-14.7z"/><path transform="rotate(-149.986 57.665 126.978)" class="st1" d="M50.3 123.6H65v6.8H50.3z"/><path class="st1" d="M24.5 219.6h14.7v6.8H24.5z"/><path transform="rotate(150 57.777 318.89)" class="st1" d="M50.4 315.5h14.7v6.8H50.4z"/><path transform="rotate(30.072 127.799 389.173)" class="st1" d="M124.4 381.8h6.8v14.7h-6.8z"/><path class="st1" d="M220.3 407.6h6.8v14.7h-6.8z"/><path transform="rotate(60 319.592 389.008)" class="st1" d="M312.2 385.6h14.7v6.8h-14.7z"/><path transform="rotate(30 389.777 318.713)" class="st1" d="M382.5 315.3h14.7v6.8h-14.7z"/><path class="st1" d="M408.3 219.6H423v6.8h-14.7z"/><path transform="rotate(-30 389.66 127.242)" class="st1" d="M382.4 123.8h14.7v6.8h-14.7z"/><path transform="scale(-1) rotate(30.031 212.541 -1192.198)" class="st1" d="M316.4 49.7h6.8v14.7h-6.8z"/><circle class="st1" cx="203.3" cy="28.3" r="3.4"/><circle class="st1" cx="183" cy="31.5" r="3.4"/><circle class="st1" cx="163.2" cy="36.8" r="3.4"/><circle class="st1" cx="144.1" cy="44.2" r="3.4"/><circle class="st1" cx="108.7" cy="64.6" r="3.4"/><circle class="st1" cx="92.7" cy="77.5" r="3.4"/><circle class="st1" cx="78.2" cy="92" r="3.4"/><circle class="st1" cx="65.4" cy="108" r="3.4"/><circle class="st1" cx="44.9" cy="143.4" r="3.4"/><circle class="st1" cx="37.5" cy="162.5" r="3.4"/><circle class="st1" cx="32.2" cy="182.3" r="3.4"/><circle class="st1" cx="29" cy="202.6" r="3.4"/><circle class="st1" cx="29" cy="243.5" r="3.4"/><circle class="st1" cx="32.2" cy="263.7" r="3.4"/><circle class="st1" cx="37.5" cy="283.5" r="3.4"/><circle class="st1" cx="44.9" cy="302.7" r="3.4"/><circle class="st1" cx="65.3" cy="338.1" r="3.4"/><circle class="st1" cx="78.2" cy="354" r="3.4"/><circle class="st1" cx="92.7" cy="368.5" r="3.4"/><circle class="st1" cx="108.7" cy="381.4" r="3.4"/><circle class="st1" cx="144.1" cy="401.9" r="3.4"/><circle class="st1" cx="163.2" cy="409.2" r="3.4"/><circle class="st1" cx="183" cy="414.5" r="3.4"/><circle class="st1" cx="203.3" cy="417.8" r="3.4"/><circle class="st1" cx="244.2" cy="417.8" r="3.4"/><circle class="st1" cx="264.4" cy="414.5" r="3.4"/><circle class="st1" cx="284.2" cy="409.2" r="3.4"/><circle class="st1" cx="303.4" cy="401.9" r="3.4"/><circle class="st1" cx="338.8" cy="381.4" r="3.4"/><circle class="st1" cx="354.7" cy="368.5" r="3.4"/><circle class="st1" cx="369.2" cy="354" r="3.4"/><circle class="st1" cx="382.1" cy="338.1" r="3.4"/><circle class="st1" cx="402.6" cy="302.7" r="3.4"/><circle class="st1" cx="410" cy="283.5" r="3.4"/><circle class="st1" cx="415.3" cy="263.7" r="3.4"/><circle class="st1" cx="418.5" cy="243.5" r="3.4"/><circle class="st1" cx="418.5" cy="202.6" r="3.4"/><circle class="st1" cx="415.3" cy="182.3" r="3.4"/><circle class="st1" cx="410" cy="162.5" r="3.4"/><circle class="st1" cx="402.6" cy="143.4" r="3.4"/><circle class="st1" cx="382.1" cy="108" r="3.4"/><circle class="st1" cx="369.2" cy="92" r="3.4"/><circle class="st1" cx="354.8" cy="77.5" r="3.4"/><circle class="st1" cx="338.8" cy="64.6" r="3.4"/><circle class="st1" cx="303.4" cy="44.2" r="3.4"/><circle class="st1" cx="284.3" cy="36.8" r="3.4"/><circle class="st1" cx="264.5" cy="31.5" r="3.4"/><circle class="st1" cx="244.2" cy="28.3" r="3.4"/><path class="st1" d="M216.7 87.5h-3.2V67.3c-.8.7-1.8 1.5-3 2.2-1.2.7-2.4 1.3-3.3 1.6V68c1.8-.8 3.3-1.8 4.7-3 1.3-1.2 2.3-2.3 2.8-3.5h2v26zM241.5 84.5v3h-17.1c0-.8.1-1.5.4-2.2.4-1.2 1.1-2.3 2.1-3.4s2.3-2.4 4.2-3.9c2.8-2.3 4.7-4.1 5.7-5.5s1.5-2.6 1.5-3.8c0-1.3-.4-2.3-1.3-3.2-.9-.9-2.1-1.3-3.5-1.3-1.5 0-2.8.5-3.7 1.4s-1.4 2.2-1.4 3.8l-3.3-.3c.2-2.4 1.1-4.3 2.5-5.6 1.5-1.3 3.4-1.9 5.9-1.9 2.5 0 4.4.7 5.9 2.1 1.4 1.4 2.2 3.1 2.2 5.1 0 1-.2 2.1-.6 3s-1.1 2.1-2.1 3.2-2.6 2.6-4.9 4.5c-1.9 1.6-3.1 2.7-3.7 3.3-.5.6-1 1.1-1.3 1.7h12.5zM373.2 231.9l3.2-.4c.4 1.8 1 3.1 1.9 3.9.9.8 1.9 1.2 3.2 1.2 1.5 0 2.8-.5 3.8-1.6 1-1 1.5-2.3 1.5-3.8s-.5-2.7-1.4-3.6c-1-.9-2.2-1.4-3.6-1.4-.6 0-1.3.1-2.2.4l.4-2.8h.5c1.4 0 2.6-.4 3.6-1.1s1.6-1.8 1.6-3.3c0-1.2-.4-2.1-1.2-2.9-.8-.8-1.8-1.1-3.1-1.1-1.2 0-2.3.4-3.1 1.2-.8.8-1.4 1.9-1.6 3.5l-3.2-.6c.4-2.1 1.3-3.8 2.6-4.9 1.4-1.2 3.1-1.8 5.1-1.8 1.4 0 2.7.3 3.9.9 1.2.6 2.1 1.4 2.7 2.5.6 1 .9 2.2.9 3.3 0 1.1-.3 2.1-.9 3-.6.9-1.5 1.6-2.7 2.2 1.5.4 2.7 1.1 3.6 2.2.8 1.1 1.3 2.5 1.3 4.2 0 2.3-.8 4.2-2.5 5.7-1.6 1.6-3.7 2.4-6.2 2.4-2.3 0-4.2-.7-5.7-2s-2.2-3.2-2.4-5.3zM231.8 367.5l-3.2.2c-.3-1.2-.7-2.2-1.2-2.7-.9-.9-1.9-1.4-3.2-1.4-1 0-1.9.3-2.7.8-1 .7-1.8 1.8-2.4 3.2-.6 1.4-.9 3.4-.9 6 .8-1.2 1.7-2 2.8-2.6 1.1-.6 2.3-.8 3.5-.8 2.1 0 3.9.8 5.4 2.3 1.5 1.6 2.2 3.6 2.2 6 0 1.6-.4 3.1-1 4.5-.7 1.4-1.7 2.5-2.9 3.2-1.2.7-2.6 1.1-4.2 1.1-2.6 0-4.8-1-6.5-2.9s-2.5-5.2-2.5-9.6c0-5 .9-8.6 2.8-10.9 1.6-2 3.8-3 6.5-3 2 0 3.7.6 5 1.7 1.5 1.3 2.2 2.9 2.5 4.9zm-13 11.2c0 1.1.2 2.1.7 3.1s1.1 1.8 1.9 2.3 1.7.8 2.6.8c1.3 0 2.5-.5 3.5-1.6s1.4-2.5 1.4-4.4c0-1.8-.5-3.2-1.4-4.2-1-1-2.2-1.5-3.6-1.5s-2.7.5-3.6 1.5c-1 1-1.5 2.3-1.5 4zM56.9 228.5l3-.3c.3 1.4.8 2.5 1.5 3.1s1.7 1 2.8 1c1 0 1.8-.2 2.6-.7.7-.4 1.3-1 1.8-1.8.5-.7.9-1.8 1.2-3s.5-2.6.5-3.9v-.6c-.6 1-1.5 1.8-2.6 2.5-1.1.6-2.3.9-3.6.9-2.1 0-3.9-.8-5.4-2.3-1.5-1.6-2.2-3.6-2.2-6.1 0-2.6.8-4.7 2.3-6.3 1.5-1.6 3.5-2.4 5.8-2.4 1.7 0 3.2.5 4.6 1.4s2.5 2.2 3.2 3.9c.7 1.7 1.1 4.1 1.1 7.3 0 3.3-.4 5.9-1.1 7.9-.7 2-1.8 3.4-3.2 4.5-1.4 1-3.1 1.5-5 1.5-2 0-3.7-.6-5-1.7-1.3-1.3-2.1-2.9-2.3-4.9zm12.9-11.4c0-1.8-.5-3.3-1.5-4.3-1-1.1-2.1-1.6-3.5-1.6s-2.6.6-3.7 1.7c-1 1.2-1.6 2.6-1.6 4.5 0 1.6.5 3 1.5 4s2.2 1.5 3.7 1.5 2.7-.5 3.6-1.5c1.1-1.1 1.5-2.5 1.5-4.3z"/><circle class="st1" cx="224.9" cy="221" r="20.5"/><path class="st1" d="M224.9 228c-2.3 0-4.5-1.2-5.7-3.3-1.7-3.1-.6-7.1 2.5-8.8l135.9-75.6c3.1-1.7 7.1-.6 8.8 2.5s.6 7.1-2.5 8.8L228 227.2c-.9.6-2 .8-3.1.8z"/><path class="st1" d="M227.2 229.5c-1.4 0-2.8-.3-4.1-1.1L130.3 177c-4.1-2.3-5.6-7.4-3.3-11.6 2.3-4.1 7.4-5.6 11.6-3.3l92.8 51.4c4.1 2.3 5.6 7.4 3.3 11.6-1.6 2.8-4.5 4.4-7.5 4.4z"/><path class="st2" d="M214 260.1c-.2 0-.5 0-.7-.1-1.3-.4-2.1-1.8-1.6-3.1l64.6-208.7c.4-1.3 1.8-2.1 3.1-1.6 1.3.4 2.1 1.8 1.6 3.1l-64.6 208.7c-.3 1-1.3 1.7-2.4 1.7z"/><g><circle class="st0" cx="224.9" cy="221.5" r="5.4"/></g></g></svg>