<svg version="1.1" id="Layer_1" xmlns="http://www.w3.org/2000/svg" x="0" y="0" viewBox="502.3 250.1 1265.1 296" xml:space="preserve"><g fill="#E7E6E0"><path d="M502.3 250.1h114.6c105.3 0 166.6 60.9 166.6 146.3v.8c0 85.4-62.2 148.8-168.3 148.8H502.3V250.1zm82 72.3v150.9h33.4c49.5 0 82-27.1 82-74.8v-.8c0-47.4-32.6-75.3-82-75.3h-33.4zM907.4 248h79.1l126 298.1h-87.9l-21.1-53.3H888.8L867.6 546h-85.8l125.6-298zm71.9 180.9l-33-83.7-33.4 83.7h66.4zM1143.3 250.1h82v296h-82v-296zM1279.4 250.1h82v224.1h143.3V546h-225.3V250.1zM1571.2 435.3l-112.9-185.2h93.4l60.9 107.8 61.3-107.8h91.7L1653.2 434v112h-82V435.3z"/></g></svg>