<svg version="1.1" id="Layer_1" xmlns="http://www.w3.org/2000/svg" x="0" y="0" viewBox="0 238 841.9 95.3" xml:space="preserve"><g fill="#E7E6E0"><path d="M42 262.4h56.6v16.5H61.3v10.7H95V305H61.3v11.2h37.8v16.6H42v-70.4zM109.2 262.4h27.2c25 0 39.6 14.5 39.6 34.8v.2c0 20.3-14.8 35.4-40 35.4h-26.8v-70.4zm19.4 17.2v35.8h7.9c11.8 0 19.5-6.4 19.5-17.8v-.2c0-11.2-7.7-17.9-19.5-17.9l-7.9.1zM186.6 262.4h19.5v70.4h-19.5v-70.4zM236.2 279.5h-21v-17.1h61.6v17.1h-21.1v53.3h-19.5v-53.3zM279.9 297.8v-.2c0-20.2 16.3-36.6 38-36.6s37.8 16.2 37.8 36.4v.2c0 20.2-16.3 36.6-38 36.6s-37.8-16.2-37.8-36.4zm55.8 0v-.2c0-10.3-7.2-19-18-19-10.7 0-17.9 8.6-17.9 18.8v.2c0 10.1 7.3 19 18.1 19 10.7 0 17.8-8.6 17.8-18.8zM365.8 262.4H399c10.7 0 18.2 2.8 22.9 7.6 4.1 4.1 6.2 9.4 6.2 16.4v.2c0 10.9-5.7 18-14.5 21.7l16.8 24.5H408l-14.2-21.3h-8.6v21.4h-19.5v-70.5zm32.4 33.8c6.5 0 10.4-3.2 10.4-8.3v-.2c0-5.6-4.1-8.5-10.6-8.5h-12.9v17h13.1zM434.2 291.5c6.7-.8 10.3-4 10-9.4h-7.7v-19.6h19.8v16c0 14.9-8 20-20.6 20.4l-1.5-7.4zM461.2 322.3l10.9-13c7 5.5 14.7 8.5 22.8 8.5 5.3 0 8.2-1.8 8.2-4.8v-.2c0-3-2.3-4.5-11.9-6.8-15-3.4-26.5-7.6-26.5-22v-.2c0-13.1 10.3-22.5 27.3-22.5 11.9 0 21.3 3.2 28.9 9.4l-9.7 13.8c-6.4-4.6-13.5-6.9-19.7-6.9-4.7 0-7 1.9-7 4.5v.2c0 3.2 2.4 4.6 12.2 6.8 16.1 3.5 26.1 8.8 26.1 21.9v.2c0 14.4-11.3 22.9-28.5 22.9-12.5-.1-24.3-4-33.1-11.8zM559.9 262.4h30.3c17.7 0 29.1 9.1 29.1 24.6v.2c0 16.7-12.8 25.4-30.1 25.4h-9.7v20.2H560v-70.4zm28.9 35c6.8 0 11.2-3.7 11.2-9.2v-.2c0-6-4.3-9.1-11.2-9.1h-9.2v18.6l9.2-.1zM628.1 262.4h19.5v70.4h-19.5v-70.4zM658.1 297.8v-.2c0-20.5 15.7-36.6 37-36.6 14.4 0 23.6 6 29.8 14.6L710.3 287c-4-4.9-8.6-8.2-15.4-8.2-9.8 0-16.8 8.5-16.8 18.7v.2c0 10.6 6.9 18.8 16.8 18.8 7.3 0 11.6-3.4 15.9-8.5l14.7 10.4c-6.6 9.1-15.6 15.9-31 15.9-20.2-.2-36.4-15.5-36.4-36.5zM733.9 262.4h19.5v28.5l24.3-28.5h23l-26.6 30.1 27.6 40.2h-23.4l-17.8-26.1-7.1 7.9v18.3h-19.5v-70.4z"/></g></svg>