<svg version="1.1" id="Layer_1" xmlns="http://www.w3.org/2000/svg" x="0" y="0" viewBox="434.1 289.2 1275.7 213.5" xml:space="preserve"><path d="M440.1 294.9h162.1v47.2H495.3v30.8H592v44h-96.7v32h108.2v47.5H440.1V294.9zM632.4 294.9h52.1l82.9 106.5V294.9h55.3v201.5H774l-86.4-110.5v110.5h-55.3V294.9h.1zM938 294.9h103.3c25.3 0 43.2 6.3 55 17.8 8.1 8.3 13 19 13 32.8v.6c0 23.3-13.2 37.1-31.1 44.9 24.5 8.1 40 21.9 40 49.2v.6c0 34.5-28.2 55.6-76.3 55.6H938V294.9zm116.3 62.2c0-11.2-8.9-17.3-25.3-17.3h-36.6v35.4h35.1c17 0 26.8-5.8 26.8-17.6v-.5zm-19.3 57.2h-42.6v37.1h43.2c17.3 0 26.8-6.6 26.8-18.4v-.6c0-10.9-8.7-18.1-27.4-18.1zM1143.8 294.9h95.3c30.8 0 52.1 8.1 65.6 21.6 11.8 11.8 17.8 27.1 17.8 46.9v.6c0 31.1-16.4 51.5-41.4 62.2l48.1 70.2H1265l-40.6-61h-24.8v61h-55.8V294.9zm93 96.7c18.7 0 29.9-9.2 29.9-23.9v-.6c0-16.1-11.8-24.2-30.2-24.2h-36.8v48.6h37.1v.1zM1350.8 294.9h162.1v47.2h-106.8v30.8h96.7v44h-96.7v32h108.2v47.5h-163.5V294.9zM1543.1 294.9h161.2v48.9h-105.4v34.3h95.3v46.3h-95.3v72h-55.8V294.9z"/></svg>