<svg version="1.1" id="gallery" xmlns="http://www.w3.org/2000/svg" x="0" y="0" viewBox="0 0 55.9 46.5" xml:space="preserve"><path d="M35 34.8c-.3 0-.6.3-.6.6v10H.6V21.5h20.2c.3 0 .6-.3.6-.6s-.3-.6-.6-.6H0c-.3 0-.6.3-.6.6v25c0 .3.3.6.6.6h35c.3 0 .6-.3.6-.6V35.4c0-.3-.2-.6-.6-.6z"/><circle cx="21" cy="29.2" r="2.3"/><path d="M14.4 28.3c-.1-.2-.5-.2-.6 0l-10.5 14c-.1.1-.2.2-.2.4s.2.3.4.3h28c.1 0 .3-.1.3-.2.1-.1 0-.3 0-.4l-6.7-8.1c-.1-.1-.2-.1-.3-.1-.1 0-.2 0-.3.1l-3.1 3.4-7-9.4z"/><circle cx="39.9" cy="15.9" r="15.9"/></svg>