<svg xmlns="http://www.w3.org/2000/svg" xmlns:xlink="http://www.w3.org/1999/xlink" style="display:none"><defs><path id="a" d="M77 702.7L-91.5 534.2c45.7-52.7 70.2-122.9 70.2-200.2 0-172.1-140.5-312.6-312.6-312.6S-646.4 161.9-646.4 334-506 646.6-333.9 646.6c59.7 0 115.9-17.6 165.1-45.7L3.3 773 77 702.7zM-541.1 334c0-112.4 94.8-207.2 207.2-207.2 115.9 0 207.2 94.8 207.2 207.2s-94.8 207.2-207.2 207.2c-112.4 3.5-207.2-91.3-207.2-207.2z"/><style>.cls-1{fill:#fff;fill-rule:evenodd}</style></defs><symbol id="arrow-down" viewBox="0 0 18 10.3"><path d="M16.6 0L9.1 7.5 1.8.1.3 1.5l8.8 8.8L18 1.4z"/></symbol><symbol id="arrow-left-b" viewBox="0 0 10.3 17.7"><path d="M10.3 1.4L2.8 8.9l7.4 7.3-1.4 1.5L0 8.9 8.9 0z"/></symbol><symbol id="arrow-left" viewBox="0 0 56.4 45.7"><path d="M56.2 22.9H.5L23 .3l-.1-.2L0 23l22.9 22.9.1-.2L.5 23.1h55.7zM.5 22.9h55.7"/><path d="M56.4 22.7H.7L23.3.2l-.2-.2L.2 22.9l22.9 22.8.2-.2L.7 23h55.7z"/></symbol><symbol id="arrow-right-b" viewBox="0 0 10.3 17.7"><path d="M0 1.4l7.5 7.5-7.4 7.3 1.4 1.5 8.8-8.8L1.4 0z"/></symbol><symbol id="arrow-right-c" viewBox="0 0 55.7 34.4"><path d="M0 17.5h54.2M55 16.5L37.9 33.7M37.9.7L55 17.9"/></symbol><symbol id="arrow-right" viewBox="0 0 56.4 45.7"><path d="M.2 22.9h55.7L33.4.3l.2-.2L56.4 23 33.6 45.9l-.2-.2 22.5-22.6H.2zM55.9 22.9H.2"/><path d="M0 22.7h55.7L33.1.2l.2-.2 22.9 22.9-22.9 22.8-.2-.2L55.7 23H0z"/></symbol><symbol id="aujourdhui" viewBox="493.5 321.3 1262.2 125.2"><g fill="#E7E6E0"><path d="M545.6 320.4h32.8L630.6 444h-36.5l-8.8-22.1h-47.5L529 444h-35.5l52.1-123.6zm29.8 75l-13.7-34.7-13.8 34.7h27.5zM636.2 390.2v-68.9h34.4v68.2c0 17.7 8.9 26.1 22.6 26.1 13.8 0 22.8-8.1 22.8-25.2v-69.1h34.4v68c0 39.4-22.6 57-57.5 57-34.7 0-56.7-17.7-56.7-56.1zM756.8 425.4l21.9-20.7c6 7.2 11.6 11.4 19.3 11.4 8.4 0 13.8-5.8 13.8-17.2v-77.7h33.8V399c0 15.4-3.9 26.3-12.1 34.5-8.1 8.1-19.6 12.4-33.7 12.4-21.2.2-34.2-8.8-43-20.5zM861.9 383v-.4c0-35.2 28.4-63.8 66.3-63.8S994 347 994 382.3v.4c0 35.2-28.4 63.8-66.3 63.8s-65.8-28.3-65.8-63.5zm97.2 0v-.4c0-17.9-12.6-33.1-31.4-33.1s-31.2 15.1-31.2 32.8v.4c0 17.7 12.8 33.1 31.6 33.1 18.6 0 31-15.1 31-32.8zM1010.2 390.2v-68.9h34.4v68.2c0 17.7 8.9 26.1 22.6 26.1 13.8 0 22.8-8.1 22.8-25.2v-69.1h34.4v68c0 39.4-22.6 57-57.5 57-34.8 0-56.7-17.7-56.7-56.1zM1144.4 321.3h58c18.8 0 31.7 4.9 40 13.1 7.2 7.2 10.9 16.5 10.9 28.6v.4c0 18.9-10 31.4-25.2 37.9l29.3 42.8h-39.1l-24.7-37.2h-15.1V444h-34l-.1-122.7zm56.7 58.9c11.4 0 18.2-5.6 18.2-14.5v-.4c0-9.8-7.2-14.7-18.4-14.7h-22.4v29.6h22.6zM1270.5 321.3h47.5c43.6 0 69.1 25.2 69.1 60.7v.4c0 35.4-25.8 61.7-69.8 61.7h-46.8V321.3zm34 29.9v62.6h13.8c20.5 0 34-11.2 34-31v-.3c0-19.6-13.5-31.2-34-31.2h-13.8v-.1zM1398.1 371.9c11.7-1.4 17.9-7 17.5-16.5h-13.5v-34.2h34.5v27.9c0 25.9-14 34.9-35.9 35.6l-2.6-12.8zM1454.5 321.3h34v45.9h43.6v-45.9h34V444h-34v-46.6h-43.6V444h-34V321.3zM1586.5 390.2v-68.9h34.4v68.2c0 17.7 8.9 26.1 22.6 26.1 13.8 0 22.8-8.1 22.8-25.2v-69.1h34.4v68c0 39.4-22.6 57-57.5 57-34.8 0-56.7-17.7-56.7-56.1zM1721.7 321.3h34V444h-34V321.3z"/></g></symbol><symbol id="bookmark" viewBox="0 0 248 188.5"><path d="M239 0H9C4 0 0 4 0 9s4 9 9 9h46.5v162.4c0 .1 0 .2.1.4 0 .2 0 .3.1.5 0 .1.1.3.1.4 0 .1.1.3.1.4 0 .1.1.3.1.4.1.1.1.3.2.4.1.1.1.2.2.4.1.1.1.3.2.4.1.1.1.2.2.3.1.1.2.3.3.4.1.1.2.2.3.4.1.1.2.2.3.4.2.2.3.4.5.6l.1.1s.1 0 .1.1c.2.2.4.4.6.5.1.1.2.2.3.2.1.1.3.2.4.3.1.1.3.2.4.2.1.1.2.2.4.2.1.1.3.1.4.2.1.1.3.1.4.2.1.1.3.1.4.1.2.1.3.1.5.2.1 0 .2.1.4.1s.3.1.5.1c.1 0 .3 0 .4.1.2 0 .3.1.5.1H65.8c.2 0 .3 0 .5-.1.1 0 .3 0 .4-.1.2 0 .3-.1.5-.1.1 0 .2-.1.4-.1s.3-.1.5-.2c.1 0 .3-.1.4-.1.1-.1.3-.1.4-.2.1-.1.3-.1.4-.2.1-.1.3-.1.4-.2.1-.1.3-.1.4-.2.1-.1.3-.2.4-.3.1-.1.2-.2.3-.2.2-.2.4-.3.6-.5 0 0 .1 0 .1-.1l53.1-53.1 53.1 53.1.1.1c.2.2.4.4.6.5.1.1.2.2.3.2.1.1.2.2.4.3.1.1.3.2.4.2.1.1.2.1.4.2.1.1.3.1.4.2.1.1.3.1.4.2.1.1.3.1.4.1.1.1.3.1.4.2.1 0 .3.1.4.1.1 0 .3.1.4.1.2 0 .3 0 .5.1.1 0 .3 0 .4.1h1.8c.1 0 .3 0 .4-.1.2 0 .3 0 .5-.1.2 0 .3-.1.4-.1.1 0 .3-.1.4-.1.1 0 .3-.1.4-.2.1 0 .3-.1.4-.1.1-.1.3-.1.4-.2.1-.1.3-.1.4-.2.1-.1.2-.1.4-.2.1-.1.3-.2.4-.2.1-.1.3-.2.4-.3.1-.1.2-.2.3-.2.2-.2.4-.3.6-.5l.1-.1.1-.1c.2-.2.3-.4.5-.6.1-.1.2-.2.3-.4.1-.1.2-.2.3-.4.1-.1.2-.3.3-.4.1-.1.1-.2.2-.3.1-.1.1-.3.2-.4.1-.1.1-.2.2-.4.1-.1.1-.3.2-.4 0-.1.1-.3.1-.4 0-.1.1-.3.1-.4 0-.1.1-.3.1-.4 0-.2.1-.3.1-.5 0-.1 0-.2.1-.4V18H239c5 0 9-4 9-9s-4-9-9-9z"/><path fill="#fff" d="M70.8 17.7H123V107l-52.2 51.3z"/></symbol><symbol id="breves" viewBox="452.1 253.3 1240.1 281.2"><path d="M456.7 320h108.1c26.5 0 45.2 6.6 57.5 18.7 8.4 8.7 13.6 19.9 13.6 34.3v.6c0 24.4-13.9 38.8-32.5 47 25.6 8.4 41.9 22.9 41.9 51.5v.6c0 36.1-29.5 58.1-79.8 58.1H456.7V320zm121.6 65.1c0-11.7-9.3-18.1-26.5-18.1h-38.2v37h36.7c17.8 0 28-6 28-18.4v-.5zM558.1 445h-44.6v38.8h45.2c18.1 0 28-6.9 28-19.3v-.6c0-11.4-9-18.9-28.6-18.9zM672 320h99.7c32.2 0 54.5 8.4 68.7 22.6 12.3 12.3 18.7 28.3 18.7 49.1v.6c0 32.5-17.2 53.9-43.4 65l50.3 73.5h-67.2L756.3 467h-25.9v63.8H672V320zm97.2 101.2c19.6 0 31.3-9.6 31.3-25v-.6c0-16.9-12.3-25.3-31.6-25.3h-38.5v50.9h38.8zM888.5 320H1058v49.4H946.3v32.2h101.2v46.1H946.3v33.4h113.2v49.7h-171V320zm65.3-14.4l-44.6-32.2 54.5-16.6 32.8 48.8h-42.7zM1073.1 320h65l47.9 133.5 48.2-133.4h63.8l-85.5 212.2h-54.2L1073.1 320zM1318.5 320H1488v49.4h-111.7v32.2h101.2v46.1h-101.2v33.4h113.2v49.7h-171V320zM1503.7 499.5l32.5-38.8c21.1 16.6 44 25.3 68.4 25.3 16 0 24.4-5.4 24.4-14.5v-.6c0-9-6.9-13.6-35.8-20.5-44.9-10.2-79.5-22.9-79.5-65.9v-.6c0-39.1 31-67.5 81.6-67.5 35.8 0 63.8 9.6 86.7 28l-29.2 41.3c-19.3-13.9-40.4-20.8-59-20.8-14.2 0-21.1 5.7-21.1 13.6v.6c0 9.6 7.2 13.9 36.7 20.5 48.2 10.5 78.3 26.2 78.3 65.6v.6c0 43.1-34 68.7-85.2 68.7-37.4 0-72.6-11.8-98.8-35z"/></symbol><symbol id="calendar" viewBox="0 0 39.6 47"><path d="M39.6 4.3h-4.7c-.8 0-1.4.6-1.4 1.4s.6 1.4 1.4 1.4h3.3V18H2.9V7.2h3.3c.8 0 1.4-.6 1.4-1.4s-.7-1.5-1.5-1.5H1.4C.6 4.3 0 5 0 5.8v39.8c0 .8.6 1.4 1.4 1.4h38.1c.8 0 1.4-.6 1.4-1.4V5.8c.1-.8-.5-1.5-1.3-1.5zm-1.5 39.9H2.9V21h35.3v23.2z"/><path d="M12.5 11.8c1.5 0 2.7-1.2 2.7-2.7V2.7C15.2 1.2 14 0 12.5 0S9.7 1.2 9.7 2.7v6.4c0 1.5 1.3 2.7 2.8 2.7zM28.6 11.8c1.5 0 2.7-1.2 2.7-2.7V2.7c0-1.5-1.2-2.7-2.7-2.7-1.5 0-2.7 1.2-2.7 2.7v6.4c0 1.5 1.2 2.7 2.7 2.7zM18.9 7.3h3.4c.8 0 1.5-.7 1.5-1.5s-.7-1.5-1.5-1.5h-3.4c-.8 0-1.5.7-1.5 1.5s.7 1.5 1.5 1.5z"/></symbol><symbol id="check-active" viewBox="0 0 13.8 10.1"><path fill="#c32929" d="M5.1 10.1L0 5l1.4-1.4 3.7 3.7L12.4 0l1.4 1.4z"/></symbol><symbol id="check" viewBox="0 0 13.8 10.1"><path d="M5.1 10.1L0 5l1.4-1.4 3.7 3.7L12.4 0l1.4 1.4z"/></symbol><symbol id="clock" viewBox="0 0 448.4 448.1"><style type="text/css">.st0{fill:#fff}.st1{fill:#222}.st2{fill:#ed2224}</style><circle class="st0" cx="224.2" cy="223.8" r="213.7" id="Layer_2"/><g id="Layer_1"><path class="st1" d="M220.3 23.8h6.8v14.7h-6.8z"/><path transform="rotate(60 127.707 56.684)" class="st1" d="M120.4 53.3h14.7v6.8h-14.7z"/><path transform="rotate(-149.986 57.665 126.978)" class="st1" d="M50.3 123.6H65v6.8H50.3z"/><path class="st1" d="M24.5 219.6h14.7v6.8H24.5z"/><path transform="rotate(150 57.777 318.89)" class="st1" d="M50.4 315.5h14.7v6.8H50.4z"/><path transform="rotate(30.072 127.799 389.173)" class="st1" d="M124.4 381.8h6.8v14.7h-6.8z"/><path class="st1" d="M220.3 407.6h6.8v14.7h-6.8z"/><path transform="rotate(60 319.592 389.008)" class="st1" d="M312.2 385.6h14.7v6.8h-14.7z"/><path transform="rotate(30 389.777 318.713)" class="st1" d="M382.5 315.3h14.7v6.8h-14.7z"/><path class="st1" d="M408.3 219.6H423v6.8h-14.7z"/><path transform="rotate(-30 389.66 127.242)" class="st1" d="M382.4 123.8h14.7v6.8h-14.7z"/><path transform="scale(-1) rotate(30.031 212.541 -1192.198)" class="st1" d="M316.4 49.7h6.8v14.7h-6.8z"/><circle class="st1" cx="203.3" cy="28.3" r="3.4"/><circle class="st1" cx="183" cy="31.5" r="3.4"/><circle class="st1" cx="163.2" cy="36.8" r="3.4"/><circle class="st1" cx="144.1" cy="44.2" r="3.4"/><circle class="st1" cx="108.7" cy="64.6" r="3.4"/><circle class="st1" cx="92.7" cy="77.5" r="3.4"/><circle class="st1" cx="78.2" cy="92" r="3.4"/><circle class="st1" cx="65.4" cy="108" r="3.4"/><circle class="st1" cx="44.9" cy="143.4" r="3.4"/><circle class="st1" cx="37.5" cy="162.5" r="3.4"/><circle class="st1" cx="32.2" cy="182.3" r="3.4"/><circle class="st1" cx="29" cy="202.6" r="3.4"/><circle class="st1" cx="29" cy="243.5" r="3.4"/><circle class="st1" cx="32.2" cy="263.7" r="3.4"/><circle class="st1" cx="37.5" cy="283.5" r="3.4"/><circle class="st1" cx="44.9" cy="302.7" r="3.4"/><circle class="st1" cx="65.3" cy="338.1" r="3.4"/><circle class="st1" cx="78.2" cy="354" r="3.4"/><circle class="st1" cx="92.7" cy="368.5" r="3.4"/><circle class="st1" cx="108.7" cy="381.4" r="3.4"/><circle class="st1" cx="144.1" cy="401.9" r="3.4"/><circle class="st1" cx="163.2" cy="409.2" r="3.4"/><circle class="st1" cx="183" cy="414.5" r="3.4"/><circle class="st1" cx="203.3" cy="417.8" r="3.4"/><circle class="st1" cx="244.2" cy="417.8" r="3.4"/><circle class="st1" cx="264.4" cy="414.5" r="3.4"/><circle class="st1" cx="284.2" cy="409.2" r="3.4"/><circle class="st1" cx="303.4" cy="401.9" r="3.4"/><circle class="st1" cx="338.8" cy="381.4" r="3.4"/><circle class="st1" cx="354.7" cy="368.5" r="3.4"/><circle class="st1" cx="369.2" cy="354" r="3.4"/><circle class="st1" cx="382.1" cy="338.1" r="3.4"/><circle class="st1" cx="402.6" cy="302.7" r="3.4"/><circle class="st1" cx="410" cy="283.5" r="3.4"/><circle class="st1" cx="415.3" cy="263.7" r="3.4"/><circle class="st1" cx="418.5" cy="243.5" r="3.4"/><circle class="st1" cx="418.5" cy="202.6" r="3.4"/><circle class="st1" cx="415.3" cy="182.3" r="3.4"/><circle class="st1" cx="410" cy="162.5" r="3.4"/><circle class="st1" cx="402.6" cy="143.4" r="3.4"/><circle class="st1" cx="382.1" cy="108" r="3.4"/><circle class="st1" cx="369.2" cy="92" r="3.4"/><circle class="st1" cx="354.8" cy="77.5" r="3.4"/><circle class="st1" cx="338.8" cy="64.6" r="3.4"/><circle class="st1" cx="303.4" cy="44.2" r="3.4"/><circle class="st1" cx="284.3" cy="36.8" r="3.4"/><circle class="st1" cx="264.5" cy="31.5" r="3.4"/><circle class="st1" cx="244.2" cy="28.3" r="3.4"/><path class="st1" d="M216.7 87.5h-3.2V67.3c-.8.7-1.8 1.5-3 2.2-1.2.7-2.4 1.3-3.3 1.6V68c1.8-.8 3.3-1.8 4.7-3 1.3-1.2 2.3-2.3 2.8-3.5h2v26zM241.5 84.5v3h-17.1c0-.8.1-1.5.4-2.2.4-1.2 1.1-2.3 2.1-3.4s2.3-2.4 4.2-3.9c2.8-2.3 4.7-4.1 5.7-5.5s1.5-2.6 1.5-3.8c0-1.3-.4-2.3-1.3-3.2-.9-.9-2.1-1.3-3.5-1.3-1.5 0-2.8.5-3.7 1.4s-1.4 2.2-1.4 3.8l-3.3-.3c.2-2.4 1.1-4.3 2.5-5.6 1.5-1.3 3.4-1.9 5.9-1.9 2.5 0 4.4.7 5.9 2.1 1.4 1.4 2.2 3.1 2.2 5.1 0 1-.2 2.1-.6 3s-1.1 2.1-2.1 3.2-2.6 2.6-4.9 4.5c-1.9 1.6-3.1 2.7-3.7 3.3-.5.6-1 1.1-1.3 1.7h12.5zM373.2 231.9l3.2-.4c.4 1.8 1 3.1 1.9 3.9.9.8 1.9 1.2 3.2 1.2 1.5 0 2.8-.5 3.8-1.6 1-1 1.5-2.3 1.5-3.8s-.5-2.7-1.4-3.6c-1-.9-2.2-1.4-3.6-1.4-.6 0-1.3.1-2.2.4l.4-2.8h.5c1.4 0 2.6-.4 3.6-1.1s1.6-1.8 1.6-3.3c0-1.2-.4-2.1-1.2-2.9-.8-.8-1.8-1.1-3.1-1.1-1.2 0-2.3.4-3.1 1.2-.8.8-1.4 1.9-1.6 3.5l-3.2-.6c.4-2.1 1.3-3.8 2.6-4.9 1.4-1.2 3.1-1.8 5.1-1.8 1.4 0 2.7.3 3.9.9 1.2.6 2.1 1.4 2.7 2.5.6 1 .9 2.2.9 3.3 0 1.1-.3 2.1-.9 3-.6.9-1.5 1.6-2.7 2.2 1.5.4 2.7 1.1 3.6 2.2.8 1.1 1.3 2.5 1.3 4.2 0 2.3-.8 4.2-2.5 5.7-1.6 1.6-3.7 2.4-6.2 2.4-2.3 0-4.2-.7-5.7-2s-2.2-3.2-2.4-5.3zM231.8 367.5l-3.2.2c-.3-1.2-.7-2.2-1.2-2.7-.9-.9-1.9-1.4-3.2-1.4-1 0-1.9.3-2.7.8-1 .7-1.8 1.8-2.4 3.2-.6 1.4-.9 3.4-.9 6 .8-1.2 1.7-2 2.8-2.6 1.1-.6 2.3-.8 3.5-.8 2.1 0 3.9.8 5.4 2.3 1.5 1.6 2.2 3.6 2.2 6 0 1.6-.4 3.1-1 4.5-.7 1.4-1.7 2.5-2.9 3.2-1.2.7-2.6 1.1-4.2 1.1-2.6 0-4.8-1-6.5-2.9s-2.5-5.2-2.5-9.6c0-5 .9-8.6 2.8-10.9 1.6-2 3.8-3 6.5-3 2 0 3.7.6 5 1.7 1.5 1.3 2.2 2.9 2.5 4.9zm-13 11.2c0 1.1.2 2.1.7 3.1s1.1 1.8 1.9 2.3 1.7.8 2.6.8c1.3 0 2.5-.5 3.5-1.6s1.4-2.5 1.4-4.4c0-1.8-.5-3.2-1.4-4.2-1-1-2.2-1.5-3.6-1.5s-2.7.5-3.6 1.5c-1 1-1.5 2.3-1.5 4zM56.9 228.5l3-.3c.3 1.4.8 2.5 1.5 3.1s1.7 1 2.8 1c1 0 1.8-.2 2.6-.7.7-.4 1.3-1 1.8-1.8.5-.7.9-1.8 1.2-3s.5-2.6.5-3.9v-.6c-.6 1-1.5 1.8-2.6 2.5-1.1.6-2.3.9-3.6.9-2.1 0-3.9-.8-5.4-2.3-1.5-1.6-2.2-3.6-2.2-6.1 0-2.6.8-4.7 2.3-6.3 1.5-1.6 3.5-2.4 5.8-2.4 1.7 0 3.2.5 4.6 1.4s2.5 2.2 3.2 3.9c.7 1.7 1.1 4.1 1.1 7.3 0 3.3-.4 5.9-1.1 7.9-.7 2-1.8 3.4-3.2 4.5-1.4 1-3.1 1.5-5 1.5-2 0-3.7-.6-5-1.7-1.3-1.3-2.1-2.9-2.3-4.9zm12.9-11.4c0-1.8-.5-3.3-1.5-4.3-1-1.1-2.1-1.6-3.5-1.6s-2.6.6-3.7 1.7c-1 1.2-1.6 2.6-1.6 4.5 0 1.6.5 3 1.5 4s2.2 1.5 3.7 1.5 2.7-.5 3.6-1.5c1.1-1.1 1.5-2.5 1.5-4.3z"/><circle class="st1" cx="224.9" cy="221" r="20.5"/><path class="st1" d="M224.9 228c-2.3 0-4.5-1.2-5.7-3.3-1.7-3.1-.6-7.1 2.5-8.8l135.9-75.6c3.1-1.7 7.1-.6 8.8 2.5s.6 7.1-2.5 8.8L228 227.2c-.9.6-2 .8-3.1.8z"/><path class="st1" d="M227.2 229.5c-1.4 0-2.8-.3-4.1-1.1L130.3 177c-4.1-2.3-5.6-7.4-3.3-11.6 2.3-4.1 7.4-5.6 11.6-3.3l92.8 51.4c4.1 2.3 5.6 7.4 3.3 11.6-1.6 2.8-4.5 4.4-7.5 4.4z"/><path class="st2" d="M214 260.1c-.2 0-.5 0-.7-.1-1.3-.4-2.1-1.8-1.6-3.1l64.6-208.7c.4-1.3 1.8-2.1 3.1-1.6 1.3.4 2.1 1.8 1.6 3.1l-64.6 208.7c-.3 1-1.3 1.7-2.4 1.7z"/><g><circle class="st0" cx="224.9" cy="221.5" r="5.4"/></g></g></symbol><symbol id="close" viewBox="0 0 12.5 12.3"><style type="text/css">.st0{fill:#1d1d1b}</style><path d="M12.5 1.5L11 .1 6.3 4.9 1.4 0 0 1.4l4.9 4.9-4.6 4.6 1.4 1.4 4.6-4.6 4.5 4.5 1.4-1.4-4.5-4.5z"/></symbol><symbol id="collapse" viewBox="-288.9 383.4 27.7 27.5"><circle cx="-275" cy="397.2" r="13" stroke="#c32929" fill="none"/><path d="M-279 398.1v-1.8h8v1.8h-8z" stroke="#c32929" fill="#c32929"/></symbol><symbol id="contact" viewBox="0 0 93.4 62.2"><path d="M0 3.5v55.2l29.1-28.5zM89.5 0H3.8l42.9 39.3zM64.3 30.2l29.1 28.5V3.5z"/><path d="M60.5 33.7l-12 11c-.5.5-1.1.7-1.8.7s-1.3-.2-1.8-.7l-12-11L3.8 62.2h85.8L60.5 33.7z"/></symbol><symbol id="daily" viewBox="502.3 250.1 1265.1 296"><g fill="#E7E6E0"><path d="M502.3 250.1h114.6c105.3 0 166.6 60.9 166.6 146.3v.8c0 85.4-62.2 148.8-168.3 148.8H502.3V250.1zm82 72.3v150.9h33.4c49.5 0 82-27.1 82-74.8v-.8c0-47.4-32.6-75.3-82-75.3h-33.4zM907.4 248h79.1l126 298.1h-87.9l-21.1-53.3H888.8L867.6 546h-85.8l125.6-298zm71.9 180.9l-33-83.7-33.4 83.7h66.4zM1143.3 250.1h82v296h-82v-296zM1279.4 250.1h82v224.1h143.3V546h-225.3V250.1zM1571.2 435.3l-112.9-185.2h93.4l60.9 107.8 61.3-107.8h91.7L1653.2 434v112h-82V435.3z"/></g></symbol><symbol id="editorspick" viewBox="0 238 841.9 95.3"><g fill="#E7E6E0"><path d="M42 262.4h56.6v16.5H61.3v10.7H95V305H61.3v11.2h37.8v16.6H42v-70.4zM109.2 262.4h27.2c25 0 39.6 14.5 39.6 34.8v.2c0 20.3-14.8 35.4-40 35.4h-26.8v-70.4zm19.4 17.2v35.8h7.9c11.8 0 19.5-6.4 19.5-17.8v-.2c0-11.2-7.7-17.9-19.5-17.9l-7.9.1zM186.6 262.4h19.5v70.4h-19.5v-70.4zM236.2 279.5h-21v-17.1h61.6v17.1h-21.1v53.3h-19.5v-53.3zM279.9 297.8v-.2c0-20.2 16.3-36.6 38-36.6s37.8 16.2 37.8 36.4v.2c0 20.2-16.3 36.6-38 36.6s-37.8-16.2-37.8-36.4zm55.8 0v-.2c0-10.3-7.2-19-18-19-10.7 0-17.9 8.6-17.9 18.8v.2c0 10.1 7.3 19 18.1 19 10.7 0 17.8-8.6 17.8-18.8zM365.8 262.4H399c10.7 0 18.2 2.8 22.9 7.6 4.1 4.1 6.2 9.4 6.2 16.4v.2c0 10.9-5.7 18-14.5 21.7l16.8 24.5H408l-14.2-21.3h-8.6v21.4h-19.5v-70.5zm32.4 33.8c6.5 0 10.4-3.2 10.4-8.3v-.2c0-5.6-4.1-8.5-10.6-8.5h-12.9v17h13.1zM434.2 291.5c6.7-.8 10.3-4 10-9.4h-7.7v-19.6h19.8v16c0 14.9-8 20-20.6 20.4l-1.5-7.4zM461.2 322.3l10.9-13c7 5.5 14.7 8.5 22.8 8.5 5.3 0 8.2-1.8 8.2-4.8v-.2c0-3-2.3-4.5-11.9-6.8-15-3.4-26.5-7.6-26.5-22v-.2c0-13.1 10.3-22.5 27.3-22.5 11.9 0 21.3 3.2 28.9 9.4l-9.7 13.8c-6.4-4.6-13.5-6.9-19.7-6.9-4.7 0-7 1.9-7 4.5v.2c0 3.2 2.4 4.6 12.2 6.8 16.1 3.5 26.1 8.8 26.1 21.9v.2c0 14.4-11.3 22.9-28.5 22.9-12.5-.1-24.3-4-33.1-11.8zM559.9 262.4h30.3c17.7 0 29.1 9.1 29.1 24.6v.2c0 16.7-12.8 25.4-30.1 25.4h-9.7v20.2H560v-70.4zm28.9 35c6.8 0 11.2-3.7 11.2-9.2v-.2c0-6-4.3-9.1-11.2-9.1h-9.2v18.6l9.2-.1zM628.1 262.4h19.5v70.4h-19.5v-70.4zM658.1 297.8v-.2c0-20.5 15.7-36.6 37-36.6 14.4 0 23.6 6 29.8 14.6L710.3 287c-4-4.9-8.6-8.2-15.4-8.2-9.8 0-16.8 8.5-16.8 18.7v.2c0 10.6 6.9 18.8 16.8 18.8 7.3 0 11.6-3.4 15.9-8.5l14.7 10.4c-6.6 9.1-15.6 15.9-31 15.9-20.2-.2-36.4-15.5-36.4-36.5zM733.9 262.4h19.5v28.5l24.3-28.5h23l-26.6 30.1 27.6 40.2h-23.4l-17.8-26.1-7.1 7.9v18.3h-19.5v-70.4z"/></g></symbol><symbol id="enbref" viewBox="434.1 289.2 1275.7 213.5"><path d="M440.1 294.9h162.1v47.2H495.3v30.8H592v44h-96.7v32h108.2v47.5H440.1V294.9zM632.4 294.9h52.1l82.9 106.5V294.9h55.3v201.5H774l-86.4-110.5v110.5h-55.3V294.9h.1zM938 294.9h103.3c25.3 0 43.2 6.3 55 17.8 8.1 8.3 13 19 13 32.8v.6c0 23.3-13.2 37.1-31.1 44.9 24.5 8.1 40 21.9 40 49.2v.6c0 34.5-28.2 55.6-76.3 55.6H938V294.9zm116.3 62.2c0-11.2-8.9-17.3-25.3-17.3h-36.6v35.4h35.1c17 0 26.8-5.8 26.8-17.6v-.5zm-19.3 57.2h-42.6v37.1h43.2c17.3 0 26.8-6.6 26.8-18.4v-.6c0-10.9-8.7-18.1-27.4-18.1zM1143.8 294.9h95.3c30.8 0 52.1 8.1 65.6 21.6 11.8 11.8 17.8 27.1 17.8 46.9v.6c0 31.1-16.4 51.5-41.4 62.2l48.1 70.2H1265l-40.6-61h-24.8v61h-55.8V294.9zm93 96.7c18.7 0 29.9-9.2 29.9-23.9v-.6c0-16.1-11.8-24.2-30.2-24.2h-36.8v48.6h37.1v.1zM1350.8 294.9h162.1v47.2h-106.8v30.8h96.7v44h-96.7v32h108.2v47.5h-163.5V294.9zM1543.1 294.9h161.2v48.9h-105.4v34.3h95.3v46.3h-95.3v72h-55.8V294.9z"/></symbol><symbol id="expand" viewBox="-288.9 383.4 27.7 27.5"><circle cx="-275" cy="397.2" r="13" fill="none" stroke="#222"/><path d="M-279 398.1v-1.8h8v1.8h-8z" stroke="#222" fill="#c32929"/><path d="M-275.9 393.2h1.8v7.9h-1.8v-7.9z" fill="#222" stroke="#222"/></symbol><symbol id="facebook" viewBox="0 0 48.9 90.4"><path d="M47 0H35.3C22.1 0 13.6 8.7 13.6 22.3v10.3H1.8c-1 0-1.8.8-1.8 1.8v14.9c0 1 .8 1.8 1.8 1.8h11.8v37.5c0 1 .8 1.8 1.8 1.8h15.4c1 0 1.8-.8 1.8-1.8V51.1h13.8c1 0 1.8-.8 1.8-1.8V34.4c0-.5-.2-1-.5-1.3-.3-.3-.8-.5-1.3-.5H32.7v-8.7c0-4.2 1-6.3 6.4-6.3H47c1 0 1.8-.8 1.8-1.8V1.9C48.9.8 48.1 0 47 0z"/></symbol><symbol id="follow" viewBox="0 0 215 183"><path d="M209.3 0H5.7C2.6 0 0 2.6 0 5.7v131.7c0 3.1 2.6 5.7 5.7 5.7h43.2v40l63-40h97.4c3.1 0 5.7-2.6 5.7-5.7V5.7c0-3.1-2.6-5.7-5.7-5.7z"/></symbol><symbol id="gallery" viewBox="0 0 55.9 46.5"><path d="M35 34.8c-.3 0-.6.3-.6.6v10H.6V21.5h20.2c.3 0 .6-.3.6-.6s-.3-.6-.6-.6H0c-.3 0-.6.3-.6.6v25c0 .3.3.6.6.6h35c.3 0 .6-.3.6-.6V35.4c0-.3-.2-.6-.6-.6z"/><circle cx="21" cy="29.2" r="2.3"/><path d="M14.4 28.3c-.1-.2-.5-.2-.6 0l-10.5 14c-.1.1-.2.2-.2.4s.2.3.4.3h28c.1 0 .3-.1.3-.2.1-.1 0-.3 0-.4l-6.7-8.1c-.1-.1-.2-.1-.3-.1-.1 0-.2 0-.3.1l-3.1 3.4-7-9.4z"/><circle cx="39.9" cy="15.9" r="15.9"/></symbol><symbol id="gplus" viewBox="0 0 51 43.5"><path d="M17.1 20v5.3c2.9.1 5.9.1 8.8.1-1.3 6.5-10.2 8.6-14.8 4.4-4.8-3.8-4.6-12 .4-15.5 3.5-2.8 8.5-2.1 12 .3 1.4-1.3 2.7-2.6 3.9-4-2.9-2.3-6.5-4-10.3-3.8-7.9-.3-15.2 6.7-15.3 14.6-.5 6.5 3.8 12.9 9.8 15.2 6 2.3 13.7.7 17.5-4.7 2.5-3.4 3.1-7.8 2.8-11.9H17.1zM45.8 20v-4.4h-4.4V20H37v4.4h4.4v4.4h4.4v-4.4h4.4V20h-4.4z"/></symbol><symbol id="image" viewBox="0 0 36.2 26.1"><path d="M35.6 0H.6C.3 0 0 .3 0 .6v25c0 .3.3.6.6.6h35c.3 0 .6-.3.6-.6V.6c0-.3-.3-.6-.6-.6zM35 25H1.1V1.1H35V25z"/><circle cx="21.5" cy="8.8" r="2.3"/><path d="M4.1 22.7h28c.1 0 .3-.1.3-.2.1-.1 0-.3 0-.4L25.7 14c-.1-.1-.2-.1-.3-.1-.1 0-.2 0-.3.1L22 17.3l-7-9.4c-.1-.2-.5-.2-.6 0L3.9 22c-.1.1-.2.2-.2.4.1.1.2.3.4.3z"/></symbol><symbol id="instagram" viewBox="0 0 94.3 94.3"><path d="M84.8 0H9.4C4.2 0 0 4.2 0 9.4v75.4c0 5.2 4.2 9.4 9.4 9.4h75.4c5.2 0 9.4-4.2 9.4-9.4V9.4C94.3 4.2 90 0 84.8 0zM47.1 28.3c10.4 0 18.9 8.5 18.9 18.9S57.5 66 47.1 66s-18.9-8.5-18.9-18.9 8.6-18.8 18.9-18.8zM11.8 84.8c-1.4 0-2.4-.9-2.4-2.4v-40h9.9c-.5 1.4-.5 3.3-.5 4.7 0 15.6 12.7 28.3 28.3 28.3s28.3-12.7 28.3-28.3c0-1.4 0-3.3-.5-4.7h9.9v40.1c0 1.4-.9 2.4-2.4 2.4H11.8zm73-63.6c0 1.4-.9 2.4-2.4 2.4H73c-1.4 0-2.4-.9-2.4-2.4v-9.4c0-1.4.9-2.4 2.4-2.4h9.4c1.4 0 2.4.9 2.4 2.4v9.4z"/></symbol><symbol id="interview" viewBox="0 0 33.7 35.2"><path d="M20.4 0H.4C.2 0 0 .2 0 .4v16.5c0 .2.2.4.4.4h4.3v5.6c0 .1.1.3.2.3h.2c.1 0 .2 0 .2-.1l6.9-5.9h8.2c.2 0 .4-.2.4-.4V.4c0-.2-.2-.4-.4-.4zM6.5 9.9c-.8 0-1.4-.6-1.4-1.4 0-.8.6-1.4 1.4-1.4.8 0 1.4.6 1.4 1.4 0 .8-.6 1.4-1.4 1.4zm3.9 0C9.6 9.9 9 9.3 9 8.5c0-.8.6-1.4 1.4-1.4.8 0 1.4.6 1.4 1.4 0 .8-.6 1.4-1.4 1.4zm3.8 0c-.8 0-1.4-.6-1.4-1.4 0-.8.6-1.4 1.4-1.4.8 0 1.4.6 1.4 1.4 0 .8-.6 1.4-1.4 1.4z"/><path d="M33.2 11.6h-7.3c-.3 0-.6.3-.6.6s.3.6.6.6h6.8v15.4h-4.2c-.3 0-.6.3-.6.6v4.7l-6.1-5.2c-.1-.1-.2-.1-.4-.1h-7.8v-5.3c0-.3-.3-.6-.6-.6s-.6.3-.6.6v5.8c0 .3.3.6.6.6h8.1l6.8 5.8c.1.1.2.1.4.1.1 0 .2 0 .2-.1.2-.1.3-.3.3-.5v-5.4H33c.3 0 .6-.3.6-.6V12.2c.1-.3-.1-.6-.4-.6z"/><circle cx="19.3" cy="21.1" r="1.4"/><circle cx="23.2" cy="21.1" r="1.4"/><circle cx="27" cy="21.1" r="1.4"/></symbol><symbol id="linkedin" viewBox="0 0 95.1 92.1"><path d="M95.1 56.5v35.6H74.5V58.8c0-8.3-3-14-10.5-14-5.7 0-9.1 3.8-10.6 7.6-.5 1.3-.7 3.2-.7 5v34.7H32.1s.3-56.3 0-62.1h20.7v8.8c0 .1-.1.1-.1.2h.1v-.2c2.7-4.2 7.6-10.3 18.6-10.3 13.5 0 23.7 8.9 23.7 28zM10.5 0C3.4 0-1.2 4.6-1.2 10.7c0 6 4.5 10.7 11.4 10.7h.1c7.2 0 11.7-4.8 11.7-10.7C21.9 4.6 17.5 0 10.5 0zM0 92.1h20.7V29.9H0v62.2z"/></symbol><symbol id="notreselection" viewBox="0 120 1402 425"><g fill="#E7E6E0"><path d="M323 161.6h39l62.1 79.7v-79.7h41.4v150.8H429l-64.6-82.7v82.7H323V161.6zM487.2 237.4v-.4c0-43.3 34.9-78.4 81.4-78.4s81 34.7 81 78v.4c0 43.3-34.9 78.4-81.4 78.4s-81-34.7-81-78zm119.5 0v-.4c0-22-15.5-40.7-38.6-40.7s-38.4 18.5-38.4 40.3v.4c0 21.8 15.7 40.7 38.8 40.7 22.9 0 38.2-18.5 38.2-40.3zM701.5 198.2h-45v-36.6h132.1v36.6h-45.2v114.2h-41.8V198.2zM806.9 161.6h71.3c23.1 0 39 6 49.1 16.2 8.8 8.8 13.4 20.3 13.4 35.1v.4c0 23.3-12.3 38.6-31 46.5l36 52.6h-48l-30.4-45.7h-18.5v45.7H807V161.6zm69.6 72.4c14 0 22.4-6.9 22.4-17.9v-.4c0-12.1-8.8-18.1-22.6-18.1h-27.6V234h27.8zM961.8 161.6h121.3v35.3h-79.9V220h72.4v33h-72.4v23.9h81v35.5H961.8V161.6zM63.7 502.9L87 475.1c15.1 11.9 31.5 18.1 48.9 18.1 11.4 0 17.5-3.9 17.5-10.3v-.4c0-6.5-5-9.7-25.6-14.7-32.1-7.3-56.9-16.4-56.9-47.2v-.4c0-28 22.2-48.3 58.4-48.3 25.6 0 45.7 6.9 62.1 20l-20.9 29.5c-13.8-9.9-28.9-14.9-42.2-14.9-10.1 0-15.1 4.1-15.1 9.7v.4c0 6.9 5.2 9.9 26.3 14.7 34.5 7.5 56 18.7 56 47v.4c0 30.8-24.3 49.1-61 49.1-26.8.1-52-8.3-70.8-24.9zM215.6 374.5h121.3v35.3H257v23.1h72.4v33H257v23.9h81v35.5H215.6V374.5zm68.3-45.2l39 11.9-31.9 23h-30.4l23.3-34.9zM359.5 374.5h41.8v114.2h73v36.6H359.5V374.5zM492.4 374.5h121.3v35.3h-79.9v23.1h72.4v33h-72.4v23.9h81v35.5H492.4V374.5zM630.3 450.4v-.4c0-44 33.6-78.4 79.3-78.4 30.8 0 50.6 12.9 64 31.2l-31.5 24.3c-8.6-10.6-18.5-17.7-33-17.7-21.1 0-36 18.1-36 40.1v.4c0 22.6 14.9 40.3 36 40.3 15.7 0 25-7.3 34-18.3l31.5 22.4c-14.2 19.6-33.4 34-66.6 34-43 .1-77.7-32.9-77.7-77.9zM829.6 411.2h-45v-36.6h132.1v36.6h-45.2v114.2h-41.8V411.2zM936.1 374.5h41.8v150.8h-41.8V374.5zM1000.5 450.4v-.4c0-43.3 34.9-78.4 81.4-78.4s81 34.7 81 78v.4c0 43.3-34.9 78.4-81.4 78.4s-81-34.7-81-78zm119.6 0v-.4c0-22-15.5-40.7-38.6-40.7s-38.4 18.5-38.4 40.3v.4c0 21.8 15.7 40.7 38.8 40.7 22.9 0 38.2-18.6 38.2-40.3zM1184.5 374.5h39l62.1 79.7v-79.7h41.4v150.8h-36.4l-64.6-82.7v82.7h-41.4V374.5z"/></g></symbol><symbol id="outbound-left" viewBox="0 0 9.9 9.9"><path d="M9.5 0v1H1.7l8.2 8.1-.8.8L1 1.7v7.8H0V0z"/></symbol><symbol id="outbound-right" viewBox="0 0 9.9 9.9"><path d="M.4 0v1h7.7L0 9.1l.7.8 8.2-8.2v7.8h1V0z"/></symbol><symbol id="pinterest" viewBox="0 0 72.2 92.8"><path d="M29.7 61.3c-2.4 12.8-5.4 25-14.2 31.4-2.7-19.3 4-33.8 7.1-49.2-5.3-8.9.6-27 11.9-22.5 13.8 5.5-11.9 33.3 5.3 36.7C57.8 61.3 65.2 26.4 54 15 37.8-1.3 6.9 14.8 10.7 38.2c.9 5.7 6.9 7.5 2.4 15.4C2.7 51.3-.4 43.2 0 32.3.7 14.5 16 2 31.4.3c19.5-2.2 37.8 7.2 40.3 25.5 2.8 20.7-8.8 43.1-29.6 41.5-5.6-.5-8-3.3-12.4-6z"/></symbol><symbol id="play" viewBox="0 0 24.2 24.2"><path d="M12.1 0C5.4 0 0 5.4 0 12.1s5.4 12.1 12.1 12.1 12.1-5.4 12.1-12.1S18.8 0 12.1 0zm-1.8 16.4V7.8l6 4.3-6 4.3z"/></symbol><symbol id="preloader-body" viewBox="259.5 941 430.5 430.5">&amp;gt;<path d="M469.6 957.3h6.8V972h-6.8zM376.28 982.06l7.35 12.73-5.888 3.4-7.35-12.73zM311.532 1067.021l-12.729-7.353 3.401-5.888 12.73 7.353zM273.8 1153.1h14.7v6.8h-14.7zM315.05 1251.668l-12.73 7.35-3.4-5.89 12.73-7.35zM377.72 1314.566l5.885 3.408-7.366 12.72-5.885-3.407zM469.6 1341h6.8v14.7h-6.8zM568.194 1314.384l7.35 12.73-5.889 3.4-7.35-12.73zM634.31 1245.554l12.731 7.35-3.4 5.889-12.73-7.35zM657.5 1153.1h14.7v6.8h-14.7zM630.863 1061.268l12.73-7.35 3.4 5.889-12.73 7.35zM568.378 998.472l-5.888-3.403 7.358-12.728 5.887 3.404z"/><circle cx="474.2" cy="1154.4" r="20.5"/></symbol><symbol id="preloader-hand" viewBox="259.5 941 430.5 430.5"><path d="M473.2 1163.5c-2.3 0-4.5-1.2-5.7-3.3-1.7-3.1-.6-7.1 2.5-8.8l135.9-75.6c3.1-1.7 7.1-.6 8.8 2.5s.6 7.1-2.5 8.8l-135.9 75.6c-1 .5-2.1.8-3.1.8z"/><circle cx="474.2" cy="1155" r="5.4"/></symbol><symbol id="scrubber" viewBox="0 0 36 36"><style type="text/css">.st0{fill:none;stroke:#fff;stroke-width:2;stroke-miterlimit:10}</style><circle cx="18" cy="18" r="18"/><path class="st0" d="M13.7 24.1l-6-6.1 6-6.1M22.3 11.9l6 6.1-6 6.1"/></symbol><symbol id="search-big" viewBox="-678.5 -13.8 787.7 822.1"><clipPath id="b"><use xlink:href="#a"/></clipPath><g clip-path="url(#b)"><image width="700" height="1137" xlink:href="/wp-content/themes/fhh/dist/images/bg-texture.jpg" transform="translate(-685 -171.5)" overflow="visible"/></g></symbol><symbol id="search" viewBox="0 0 20.6 21.5"><path d="M20.6 19.4l-4.8-4.8c1.3-1.5 2-3.5 2-5.7 0-4.9-4-8.9-8.9-8.9S0 4 0 8.9s4 8.9 8.9 8.9c1.7 0 3.3-.5 4.7-1.3l4.9 4.9 2.1-2zM3 8.9C3 5.7 5.7 3 8.9 3c3.3 0 5.9 2.7 5.9 5.9s-2.7 5.9-5.9 5.9C5.7 14.9 3 12.2 3 8.9z"/></symbol><symbol id="short" viewBox="501.7 240.5 1259.7 255.4"><path d="M501.7 454.5l37.9-45.3c24.6 19.3 51.2 29.5 79.6 29.5 18.6 0 28.4-6.3 28.4-16.8v-.7c0-10.5-8.1-15.8-41.7-23.9-52.3-11.9-92.6-26.7-92.6-76.8v-.7c0-45.6 36.1-78.6 95.1-78.6 41.7 0 74.4 11.2 101 32.6l-34 48.1c-22.5-16.1-47-24.2-68.8-24.2-16.5 0-24.6 6.7-24.6 15.8v.7c0 11.2 8.4 16.1 42.8 23.9 56.1 12.3 91.2 30.5 91.2 76.5v.7c0 50.2-39.6 80-99.3 80-43.4-.1-84.5-13.8-115-40.8zM749 245.5h68.1v91.9h87.3v-91.9h68.1V491h-68.1v-93.3h-87.3V491H749V245.5zM1007.9 368.9v-.7c0-70.5 56.8-127.7 132.6-127.7s131.9 56.5 131.9 127v.7c0 70.5-56.8 127.7-132.6 127.7s-131.9-56.5-131.9-127zm194.7 0v-.7c0-35.8-25.3-66.3-62.8-66.3s-62.4 30.2-62.4 65.6v.7c0 35.4 25.6 66.3 63.1 66.3 37.2 0 62.1-30.1 62.1-65.6zM1307.5 245.5h116.1c37.5 0 63.5 9.8 80 26.3 14.4 14.4 21.7 33 21.7 57.2v.7c0 37.9-20 62.8-50.5 75.8l58.6 85.6h-78.2l-49.5-74.4h-30.2V491h-68.1l.1-245.5zm113.3 117.8c22.8 0 36.5-11.2 36.5-29.1v-.7c0-19.6-14.4-29.5-36.8-29.5h-44.9v59.3h45.2zM1619.7 305.1h-73.3v-59.6h215v59.6h-73.7V491h-68.1l.1-185.9z"/></symbol><symbol id="slide-arrow" viewBox="0 0 23 18.75"><path class="cls-1" d="M0 9.875v-1h23v1H0zM12.17.748l.66-.744 10 9-.66.744zm0 17.256l.66.744 10-9-.66-.744z"/></symbol><symbol id="submit-tick" viewBox="-197.5 385.9 32.7 21.5"><style type="text/css">.st0{fill:none;stroke:#fff;stroke-width:.75;stroke-miterlimit:10}</style><path class="st0" d="M-196.2 397.6l9.3 8.7 21.1-19.6"/></symbol><symbol id="twitter" viewBox="0 0 107.3 87.2"><path d="M107.3 10.3c-3.9 1.8-8.2 2.9-12.6 3.5 4.5-2.7 8-7 9.7-12.2-4.3 2.5-9 4.4-14 5.3-4-4.3-9.7-7-16.1-7-12.2 0-22 9.9-22 22 0 1.7.2 3.4.6 5C34.5 26.1 18.3 17.3 7.5 4c-1.9 3.3-3 7-3 11.1 0 7.6 3.9 14.4 9.8 18.3-3.6-.1-7-1.1-10-2.8v.3c0 10.7 7.6 19.6 17.7 21.6-1.8.5-3.8.8-5.8.8-1.4 0-2.8-.1-4.1-.4C14.8 61.6 23 68 32.6 68.2c-7.5 5.9-17 9.4-27.3 9.4-1.8 0-3.5-.1-5.3-.3 9.7 6.2 21.3 9.9 33.7 9.9 40.5 0 62.6-33.5 62.6-62.6 0-1 0-1.9-.1-2.8 4.4-3.2 8.1-7.1 11.1-11.5z"/></symbol><symbol id="youtube" viewBox="0 0 96.9 67.5"><path d="M95.2 10.9c-1.2-5.2-5.4-9-10.5-9.5C72.7 0 60.6 0 48.5 0 36.3 0 24.2 0 12.2 1.3c-5.1.6-9.3 4.4-10.5 9.6C0 18.2 0 26.2 0 33.8s0 15.6 1.7 22.9c1.2 5.2 5.4 9 10.5 9.5 12 1.3 24.2 1.3 36.3 1.3 12.1 0 24.3 0 36.3-1.3 5.1-.6 9.3-4.4 10.5-9.5C97 49.4 97 41.4 97 33.8c-.1-7.6-.1-15.6-1.8-22.9zM35.9 48.8v-32c10.3 5.4 20.5 10.7 30.8 16.1-10.3 5.3-20.5 10.6-30.8 15.9z"/></symbol></svg>