<svg version="1.1" id="instagram" xmlns="http://www.w3.org/2000/svg" x="0" y="0" viewBox="0 0 94.3 94.3" xml:space="preserve"><path d="M84.8 0H9.4C4.2 0 0 4.2 0 9.4v75.4c0 5.2 4.2 9.4 9.4 9.4h75.4c5.2 0 9.4-4.2 9.4-9.4V9.4C94.3 4.2 90 0 84.8 0zM47.1 28.3c10.4 0 18.9 8.5 18.9 18.9S57.5 66 47.1 66s-18.9-8.5-18.9-18.9 8.6-18.8 18.9-18.8zM11.8 84.8c-1.4 0-2.4-.9-2.4-2.4v-40h9.9c-.5 1.4-.5 3.3-.5 4.7 0 15.6 12.7 28.3 28.3 28.3s28.3-12.7 28.3-28.3c0-1.4 0-3.3-.5-4.7h9.9v40.1c0 1.4-.9 2.4-2.4 2.4H11.8zm73-63.6c0 1.4-.9 2.4-2.4 2.4H73c-1.4 0-2.4-.9-2.4-2.4v-9.4c0-1.4.9-2.4 2.4-2.4h9.4c1.4 0 2.4.9 2.4 2.4v9.4z" id="post-instagram"/></svg>