<svg version="1.1" id="interview" xmlns="http://www.w3.org/2000/svg" x="0" y="0" viewBox="0 0 33.7 35.2" xml:space="preserve"><path d="M20.4 0H.4C.2 0 0 .2 0 .4v16.5c0 .2.2.4.4.4h4.3v5.6c0 .1.1.3.2.3h.2c.1 0 .2 0 .2-.1l6.9-5.9h8.2c.2 0 .4-.2.4-.4V.4c0-.2-.2-.4-.4-.4zM6.5 9.9c-.8 0-1.4-.6-1.4-1.4 0-.8.6-1.4 1.4-1.4.8 0 1.4.6 1.4 1.4 0 .8-.6 1.4-1.4 1.4zm3.9 0C9.6 9.9 9 9.3 9 8.5c0-.8.6-1.4 1.4-1.4.8 0 1.4.6 1.4 1.4 0 .8-.6 1.4-1.4 1.4zm3.8 0c-.8 0-1.4-.6-1.4-1.4 0-.8.6-1.4 1.4-1.4.8 0 1.4.6 1.4 1.4 0 .8-.6 1.4-1.4 1.4z"/><path d="M33.2 11.6h-7.3c-.3 0-.6.3-.6.6s.3.6.6.6h6.8v15.4h-4.2c-.3 0-.6.3-.6.6v4.7l-6.1-5.2c-.1-.1-.2-.1-.4-.1h-7.8v-5.3c0-.3-.3-.6-.6-.6s-.6.3-.6.6v5.8c0 .3.3.6.6.6h8.1l6.8 5.8c.1.1.2.1.4.1.1 0 .2 0 .2-.1.2-.1.3-.3.3-.5v-5.4H33c.3 0 .6-.3.6-.6V12.2c.1-.3-.1-.6-.4-.6z"/><circle cx="19.3" cy="21.1" r="1.4"/><circle cx="23.2" cy="21.1" r="1.4"/><circle cx="27" cy="21.1" r="1.4"/></svg>