<svg version="1.1" id="Layer_1" xmlns="http://www.w3.org/2000/svg" x="0" y="0" viewBox="259.5 941 430.5 430.5" xml:space="preserve">&amp;gt;<path d="M469.6 957.3h6.8V972h-6.8z"/><path transform="rotate(60 376.96 990.165)" d="M369.6 986.7h14.7v6.8h-14.7z"/><path transform="rotate(-149.986 306.91 1060.411)" d="M299.6 1057h14.7v6.8h-14.7z"/><path d="M273.8 1153.1h14.7v6.8h-14.7z"/><path transform="rotate(150 307.005 1252.34)" d="M299.7 1248.9h14.7v6.8h-14.7z"/><path transform="rotate(30.072 377.026 1322.602)" d="M373.6 1315.3h6.8v14.7h-6.8z"/><path d="M469.6 1341h6.8v14.7h-6.8z"/><path transform="rotate(60 568.844 1322.49)" d="M561.5 1319h14.7v6.8h-14.7z"/><path transform="rotate(30 639.063 1252.048)" d="M631.7 1248.8h14.7v6.8h-14.7z"/><path d="M657.5 1153.1h14.7v6.8h-14.7z"/><path transform="rotate(-30 638.823 1060.61)" d="M631.6 1057.2h14.7v6.8h-14.7z"/><path transform="scale(-1) rotate(30.031 3692.157 -2121.325)" d="M565.6 983.1h6.8v14.7h-6.8z"/><circle cx="474.2" cy="1154.4" r="20.5"/></svg>