<svg version="1.1" xmlns="http://www.w3.org/2000/svg" xmlns:xlink="http://www.w3.org/1999/xlink" x="0" y="0" viewBox="-678.5 -13.8 787.7 822.1" xml:space="preserve"><defs><path id="clipSearch" d="M77 702.7L-91.5 534.2c45.7-52.7 70.2-122.9 70.2-200.2 0-172.1-140.5-312.6-312.6-312.6S-646.4 161.9-646.4 334-506 646.6-333.9 646.6c59.7 0 115.9-17.6 165.1-45.7L3.3 773 77 702.7zM-541.1 334c0-112.4 94.8-207.2 207.2-207.2 115.9 0 207.2 94.8 207.2 207.2s-94.8 207.2-207.2 207.2c-112.4 3.5-207.2-91.3-207.2-207.2z"/></defs><clipPath id="svgClipPath"><use xlink:href="#clipSearch"/></clipPath><g clip-path="url(#svgClipPath)"><image width="700" height="1137" xlink:href="/wp-content/themes/fhh/dist/images/bg-texture.jpg" transform="translate(-685 -171.5)" overflow="visible"/></g></svg>