<svg version="1.1" id="short" xmlns="http://www.w3.org/2000/svg" x="0" y="0" viewBox="501.7 240.5 1259.7 255.4" xml:space="preserve"><path d="M501.7 454.5l37.9-45.3c24.6 19.3 51.2 29.5 79.6 29.5 18.6 0 28.4-6.3 28.4-16.8v-.7c0-10.5-8.1-15.8-41.7-23.9-52.3-11.9-92.6-26.7-92.6-76.8v-.7c0-45.6 36.1-78.6 95.1-78.6 41.7 0 74.4 11.2 101 32.6l-34 48.1c-22.5-16.1-47-24.2-68.8-24.2-16.5 0-24.6 6.7-24.6 15.8v.7c0 11.2 8.4 16.1 42.8 23.9 56.1 12.3 91.2 30.5 91.2 76.5v.7c0 50.2-39.6 80-99.3 80-43.4-.1-84.5-13.8-115-40.8zM749 245.5h68.1v91.9h87.3v-91.9h68.1V491h-68.1v-93.3h-87.3V491H749V245.5zM1007.9 368.9v-.7c0-70.5 56.8-127.7 132.6-127.7s131.9 56.5 131.9 127v.7c0 70.5-56.8 127.7-132.6 127.7s-131.9-56.5-131.9-127zm194.7 0v-.7c0-35.8-25.3-66.3-62.8-66.3s-62.4 30.2-62.4 65.6v.7c0 35.4 25.6 66.3 63.1 66.3 37.2 0 62.1-30.1 62.1-65.6zM1307.5 245.5h116.1c37.5 0 63.5 9.8 80 26.3 14.4 14.4 21.7 33 21.7 57.2v.7c0 37.9-20 62.8-50.5 75.8l58.6 85.6h-78.2l-49.5-74.4h-30.2V491h-68.1l.1-245.5zm113.3 117.8c22.8 0 36.5-11.2 36.5-29.1v-.7c0-19.6-14.4-29.5-36.8-29.5h-44.9v59.3h45.2zM1619.7 305.1h-73.3v-59.6h215v59.6h-73.7V491h-68.1l.1-185.9z"/></svg>