<svg version="1.1" id="twitter" xmlns="http://www.w3.org/2000/svg" x="0" y="0" viewBox="0 0 107.3 87.2" xml:space="preserve"><path d="M107.3 10.3c-3.9 1.8-8.2 2.9-12.6 3.5 4.5-2.7 8-7 9.7-12.2-4.3 2.5-9 4.4-14 5.3-4-4.3-9.7-7-16.1-7-12.2 0-22 9.9-22 22 0 1.7.2 3.4.6 5C34.5 26.1 18.3 17.3 7.5 4c-1.9 3.3-3 7-3 11.1 0 7.6 3.9 14.4 9.8 18.3-3.6-.1-7-1.1-10-2.8v.3c0 10.7 7.6 19.6 17.7 21.6-1.8.5-3.8.8-5.8.8-1.4 0-2.8-.1-4.1-.4C14.8 61.6 23 68 32.6 68.2c-7.5 5.9-17 9.4-27.3 9.4-1.8 0-3.5-.1-5.3-.3 9.7 6.2 21.3 9.9 33.7 9.9 40.5 0 62.6-33.5 62.6-62.6 0-1 0-1.9-.1-2.8 4.4-3.2 8.1-7.1 11.1-11.5z"/></svg>